<svg width="22" height="22" viewBox="0 0 22 22" fill="none" xmlns="http://www.w3.org/2000/svg">
<path d="M8.20714 7.70711C8.59766 7.31658 8.59766 6.68342 8.20714 6.29289C7.81661 5.90237 7.18345 5.90237 6.79292 6.29289L3.29292 9.79289C3.00692 10.0789 2.92137 10.509 3.07615 10.8827C3.23093 11.2564 3.59557 11.5 4.00003 11.5H5.08582L3.29292 13.2929C2.9024 13.6834 2.9024 14.3166 3.29292 14.7071C3.68345 15.0976 4.31661 15.0976 4.70714 14.7071L8.20714 11.2071C8.49313 10.9211 8.57869 10.491 8.42391 10.1173C8.26913 9.74364 7.90449 9.5 7.50003 9.5H6.41424L8.20714 7.70711Z" fill="#343A3D"/>
<path d="M0 3C0 1.34315 1.34315 0 3 0H9C10.6569 0 12 1.34315 12 3H15C16.6569 3 18 4.34315 18 6V7H20C20.5523 7 21 7.44772 21 8C21 8.55228 20.5523 9 20 9H18V13H20C20.5523 13 21 13.4477 21 14C21 14.5523 20.5523 15 20 15H18V16C18 17.6569 16.6569 19 15 19H12C12 20.6569 10.6569 22 9 22H3C1.34315 22 0 20.6569 0 19V3ZM16 6C16 5.44772 15.5523 5 15 5H12V17H15C15.5523 17 16 16.5523 16 16V6ZM9 2H3C2.44772 2 2 2.44772 2 3V19C2 19.5523 2.44772 20 3 20H9C9.55228 20 10 19.5523 10 19V3C10 2.44772 9.55229 2 9 2Z" fill="#343A3D"/>
</svg>
