<svg width="24" height="24" viewBox="0 0 24 24" fill="none" xmlns="http://www.w3.org/2000/svg">
<path d="M6.25 15V10.4014L5.91603 10.624C5.57138 10.8538 5.10573 10.7607 4.87596 10.416C4.6462 10.0714 4.73933 9.60573 5.08397 9.37596L6.58397 8.37596C6.81412 8.22254 7.11002 8.20823 7.35389 8.33875C7.59776 8.46926 7.75 8.7234 7.75 9V15C7.75 15.4142 7.41421 15.75 7 15.75C6.58579 15.75 6.25 15.4142 6.25 15Z" fill="#343A3D"/>
<path d="M12.4874 11.1666C12.6657 10.8755 12.7685 10.5331 12.7685 10.1667C12.7685 9.10813 11.9104 8.25 10.8519 8.25C9.79331 8.25 8.93518 9.10813 8.93518 10.1667C8.93518 10.5331 9.03802 10.8756 9.2164 11.1667C8.63781 11.6404 8.26855 12.3603 8.26855 13.1665C8.26855 14.5932 9.42516 15.7498 10.8519 15.7498C12.2787 15.7498 13.4353 14.5932 13.4353 13.1665C13.4353 12.3603 13.066 11.6404 12.4874 11.1666ZM10.8519 9.75C11.082 9.75 11.2685 9.93655 11.2685 10.1667C11.2685 10.3924 11.089 10.5763 10.8649 10.5832L10.8519 10.5831L10.8388 10.5832C10.6147 10.5763 10.4352 10.3924 10.4352 10.1667C10.4352 9.93655 10.6217 9.75 10.8519 9.75ZM10.8338 12.0833L10.8519 12.0834L10.87 12.0833C11.46 12.093 11.9353 12.5742 11.9353 13.1665C11.9353 13.7648 11.4502 14.2498 10.8519 14.2498C10.2536 14.2498 9.76855 13.7648 9.76855 13.1665C9.76855 12.5742 10.2438 12.093 10.8338 12.0833Z" fill="#343A3D"/>
<path d="M16.75 9C17.1642 9 17.5 9.33579 17.5 9.75V11H18.75C19.1642 11 19.5 11.3358 19.5 11.75C19.5 12.1642 19.1642 12.5 18.75 12.5H17.5V13.75C17.5 14.1642 17.1642 14.5 16.75 14.5C16.3358 14.5 16 14.1642 16 13.75V12.5H14.75C14.3358 12.5 14 12.1642 14 11.75C14 11.3358 14.3358 11 14.75 11H16V9.75C16 9.33579 16.3358 9 16.75 9Z" fill="#343A3D"/>
<path d="M12 1C5.92487 1 1 5.92487 1 12C1 18.0751 5.92487 23 12 23C18.0751 23 23 18.0751 23 12C23 5.92487 18.0751 1 12 1ZM3 12C3 7.02944 7.02944 3 12 3C16.9706 3 21 7.02944 21 12C21 16.9706 16.9706 21 12 21C7.02944 21 3 16.9706 3 12Z" fill="#343A3D"/>
</svg>
