<svg width="24" height="24" viewBox="0 0 24 24" fill="none" xmlns="http://www.w3.org/2000/svg">
<path d="M10.5 16.9432C10.0155 16.722 9.45095 16.9525 9.23896 17.4581C9.02698 17.9638 9.24787 18.553 9.73234 18.7743C10.3994 19.0789 11.1225 19.2382 11.8572 19.2382C12.5919 19.2382 13.3151 19.0789 13.9821 18.7743C14.4666 18.553 14.6875 17.9638 14.4755 17.4581C14.2635 16.9525 13.6989 16.722 13.2145 16.9432C12.7884 17.1378 12.3265 17.2395 11.8572 17.2395C11.388 17.2395 10.9261 17.1378 10.5 16.9432Z" fill="#444444"/>
<path d="M10 13.75C10 14.4404 9.44036 15 8.75 15C8.05964 15 7.5 14.4404 7.5 13.75C7.5 13.0596 8.05964 12.5 8.75 12.5C9.44036 12.5 10 13.0596 10 13.75Z" fill="#444444"/>
<path d="M16 13.75C16 14.4404 15.4404 15 14.75 15C14.0596 15 13.5 14.4404 13.5 13.75C13.5 13.0596 14.0596 12.5 14.75 12.5C15.4404 12.5 16 13.0596 16 13.75Z" fill="#444444"/>
<path d="M19.7454 0.702568C18.9534 0.151469 17.9992 -0.0874221 17.0538 0.0286607L6.32164 1.4711C3.28702 1.84371 1 4.52795 1 7.71701V11.1538C1 12.0217 1.37146 12.7991 1.95751 13.3223V15.9137C1.95751 19.8274 4.99732 23 8.74713 23H14.318C18.0678 23 21.1076 19.8274 21.1076 15.9137V12.6451C23.0226 10.9928 23.4827 9.49494 22.4948 7.77651L21.4067 5.88377L21.4881 5.62877C22.0597 3.83917 21.2493 1.74895 19.7454 0.702568ZM18.6831 2.36558C19.4685 2.91201 19.9698 4.06219 19.6714 4.99673L19.4507 5.68777C19.3623 5.96454 19.3942 6.26779 19.538 6.51795L20.8527 8.80482C21.2381 9.47523 20.8623 10.3123 20.3281 10.7797L17.8551 8.19867C16.4764 6.75982 14.2939 6.59793 12.7342 7.81884L12.4325 8.05499C11.8992 8.47244 11.1659 8.47244 10.6326 8.05499C8.92817 6.72079 6.48213 7.32345 5.52931 9.31236L4.46429 11.5355C4.32576 11.8246 4.04258 12.0073 3.73282 12.0073C3.28116 12.0073 2.91501 11.6252 2.91501 11.1538V7.71701C2.91501 5.54146 4.4752 3.7103 6.54539 3.4561L17.2776 2.01366C17.7713 1.95304 18.2695 2.07779 18.6831 2.36558ZM3.87252 15.9137V14.0023C4.85244 13.9501 5.73512 13.352 6.17713 12.4293L7.24215 10.2062C7.66064 9.33264 8.73499 9.06794 9.48362 9.65394C10.6978 10.6044 12.3673 10.6044 13.5815 9.65394L13.8832 9.41779C14.6805 8.79368 15.7962 8.87643 16.5009 9.61196L19.1926 12.4212V15.9137C19.1926 18.7235 17.0102 21.0013 14.318 21.0013H8.74713C6.05495 21.0013 3.87252 18.7235 3.87252 15.9137Z" fill="#444444"/>
</svg>
