<svg width="24" height="24" viewBox="0 0 24 24" fill="none" xmlns="http://www.w3.org/2000/svg">
<path fill-rule="evenodd" clip-rule="evenodd" d="M8.16779 2.44501C8.47414 1.98589 9.09499 1.86183 9.55451 2.16791L11.9997 3.79667L14.445 2.16791C14.9045 1.86183 15.5254 1.98589 15.8317 2.44501C16.138 2.90413 16.0139 3.52444 15.5544 3.83052L12.9997 5.53215V10.2267L16.1299 8.35016L17.0294 4.7552C17.1633 4.21988 17.7062 3.8944 18.242 4.02822C18.7778 4.16203 19.1036 4.70448 18.9696 5.2398L18.2122 8.267L21.242 9.02378C21.7777 9.15761 22.1035 9.70006 21.9695 10.2354C21.8356 10.7707 21.2927 11.0962 20.7569 10.9623L17.1589 10.0636L13.9408 11.9928L17.1552 13.9198L20.757 13.0201C21.2928 12.8863 21.8357 13.2118 21.9697 13.7471C22.1036 14.2824 21.7779 14.8248 21.2421 14.9587L18.2123 15.7155L18.9699 18.7426C19.1038 19.2779 18.7781 19.8203 18.2423 19.9542C17.7065 20.0881 17.1636 19.7626 17.0296 19.2273L16.1309 15.6361L12.9997 13.759V17.8629L15.4286 20.2952C15.8187 20.6858 15.8179 21.3184 15.427 21.7082C15.036 22.0979 14.4029 22.0972 14.0128 21.7066L11.9997 19.6906L9.98651 21.7066C9.59644 22.0972 8.96329 22.0979 8.57233 21.7082C8.18137 21.3184 8.18066 20.6858 8.57073 20.2952L10.9998 17.8628V13.7559L7.84856 15.645L6.97118 19.2229C6.83976 19.7588 6.29838 20.0869 5.76197 19.9556C5.22557 19.8242 4.89726 19.2833 5.02869 18.7474L5.76254 15.7548L2.74382 14.9554C2.20998 14.814 1.89192 14.267 2.03341 13.7336C2.1749 13.2003 2.72236 12.8825 3.2562 13.0238L6.77804 13.9565L10.0536 11.9928L6.8353 10.0635L3.24283 10.9622C2.70709 11.0962 2.16406 10.7709 2.02993 10.2356C1.8958 9.70036 2.22137 9.1578 2.75711 9.02379L5.78704 8.26586L5.02971 5.23997C4.89573 4.70466 5.22145 4.16219 5.75723 4.02833C6.293 3.89446 6.83594 4.2199 6.96992 4.75521L7.8706 8.35387L10.9998 10.2298L10.9998 5.53215L8.44513 3.83052C7.98561 3.52444 7.86144 2.90413 8.16779 2.44501Z" fill="#343A3D"/>
</svg>
