<svg width="24" height="24" viewBox="0 0 24 24" fill="none" xmlns="http://www.w3.org/2000/svg">
<path fill-rule="evenodd" clip-rule="evenodd" d="M20.7701 10.5349L16.8639 10.8173C16.0389 10.877 15.267 10.3964 14.923 9.60891L11.7989 2.45657L10.1651 2.09665L11.199 8.31927C11.4139 9.61286 10.4538 10.7988 9.20238 10.7855L6.73443 10.7593C5.99223 10.7515 5.31774 10.3116 4.98357 9.61739L4.10703 7.7966L2.19958 7.95858L3.38132 11.1309C3.57053 11.6388 3.56293 12.2053 3.36013 12.7097L1.9974 16.0987L4.16423 16.1217L5.00737 14.3306C5.34908 13.6048 6.05672 13.1476 6.82605 13.1558L9.3228 13.1823C10.5371 13.1952 11.4532 14.3348 11.2626 15.5955L10.3086 21.9036L11.9634 21.573L14.9475 14.5563C15.2969 13.7348 16.1048 13.2355 16.9561 13.315L20.8431 13.6782C21.0883 13.6701 21.3649 13.5356 21.6055 13.2449C21.8573 12.9406 22.0076 12.5333 22.0046 12.1439C22.0022 11.8425 21.8547 11.4115 21.5628 11.0468C21.2828 10.697 20.9879 10.5492 20.7701 10.5349ZM23.0931 9.69346C23.6206 10.3524 23.9931 11.2368 23.9999 12.1156C24.0071 13.0515 23.6595 13.9488 23.1085 14.6146C22.5564 15.2817 21.7384 15.784 20.7812 15.7739C20.7551 15.7736 20.729 15.7722 20.7029 15.7698L16.7687 15.4022L13.7847 22.419C13.5166 23.0493 12.9713 23.5026 12.3261 23.6315L10.6713 23.9621C9.31658 24.2327 8.12171 23.0158 8.33796 21.5858L9.29192 15.2777L6.79517 15.2512L5.95203 17.0422C5.61032 17.7681 4.90269 18.2252 4.13335 18.217L1.96652 18.194C0.551289 18.179 -0.391839 16.6643 0.159818 15.2923L1.52255 11.9033L0.340814 8.73106C-0.14688 7.42189 0.712063 5.98352 2.04937 5.86996L3.95682 5.70798C4.76236 5.63957 5.52509 6.08776 5.88877 6.84322L6.76531 8.664L9.23326 8.6902L8.19935 2.46759C7.95634 1.00502 9.20137 -0.259011 10.5848 0.045745L12.2186 0.405665C12.8343 0.5413 13.3513 0.97457 13.6134 1.57449L16.7375 8.72682L20.6929 8.44083C20.7191 8.43894 20.7453 8.43813 20.7716 8.43841C21.7573 8.44887 22.5667 9.03571 23.0931 9.69346Z" fill="#343A3D"/>
</svg>
