<svg width="24" height="24" viewBox="0 0 24 24" fill="none" xmlns="http://www.w3.org/2000/svg">
<path d="M3.39029 10.3891C3.03323 10.4234 2.6968 10.574 2.43815 10.8185C2.13833 11.1019 1.96756 11.4883 1.96339 11.8928C1.95922 12.2973 2.122 12.6867 2.41591 12.9753C2.69492 13.2493 3.0704 13.4112 3.46691 13.4301L7.68307 13.3426C8.46751 13.3264 9.18632 13.7616 9.51105 14.4495L13.1188 22.0924L14.9404 22.1084L13.7782 15.5068C13.5737 14.3449 14.5101 13.2868 15.7334 13.2976L17.2378 13.3108C17.7585 13.3154 18.2558 13.5191 18.6203 13.8771L20.2942 15.5208L21.9675 15.3494L20.8032 12.8502C20.5683 12.3459 20.5742 11.7676 20.8195 11.2674L22.0351 8.78924L20.3656 8.58833L18.6709 10.1903C18.2841 10.5559 17.7578 10.7515 17.2166 10.7306L15.5517 10.6666C14.3383 10.6199 13.4603 9.53373 13.7103 8.38861L15.1251 1.90739L13.3271 1.89155L9.40996 9.77629C9.16403 10.2713 8.6366 10.5787 8.06753 10.5585L3.48663 10.3963C3.45368 10.3951 3.42156 10.3927 3.39029 10.3891ZM3.31897 15.3166C2.44898 15.2635 1.62736 14.903 1.01393 14.3006C0.355492 13.654 -0.00916534 12.7816 0.000175113 11.8755C0.00951506 10.9694 0.392087 10.1036 1.06373 9.46877C1.71908 8.84929 2.59726 8.49912 3.51321 8.49019C3.59235 8.48942 3.6681 8.49718 3.73995 8.51236L7.79066 8.65582L11.5563 1.076C11.8857 0.412907 12.5838 -0.00663942 13.3466 7.95193e-05L15.1446 0.0159182C16.3835 0.0268297 17.3014 1.12701 17.0464 2.29529L15.6316 8.77651L17.2965 8.84058L18.9912 7.23863C19.4193 6.83397 20.0157 6.63978 20.6105 6.71136L22.28 6.91228C23.6053 7.07178 24.381 8.43239 23.8101 9.59632L22.5945 12.0745L23.7588 14.5737C24.3056 15.7475 23.502 17.0942 22.1736 17.2303L20.5003 17.4018C19.9041 17.4629 19.3119 17.2582 18.8922 16.8461L17.2183 15.2023L15.7139 15.1891L16.8761 21.7907C17.0806 22.9526 16.1442 24.0107 14.9209 23.9999L13.0993 23.9839C12.3366 23.9772 11.6473 23.5454 11.3316 22.8766L7.72377 15.2337L3.61601 15.3189C3.58154 15.3221 3.54655 15.3236 3.51114 15.3233L3.42063 15.3225C3.38629 15.3222 3.35238 15.3202 3.31897 15.3166Z" fill="#343A3D"/>
</svg>
