<svg width="24" height="24" viewBox="0 0 24 24" fill="none" xmlns="http://www.w3.org/2000/svg">
<path d="M12.3134 7.97509C12.3134 7.42182 11.8722 6.97331 11.3278 6.97331C10.7835 6.97331 10.3423 7.42182 10.3423 7.97509V11.1523C10.3423 11.9494 10.6538 12.7138 11.2083 13.2774L12.6021 14.6941C12.9869 15.0854 13.611 15.0854 13.9958 14.6941C14.3807 14.3029 14.3807 13.6686 13.9958 13.2774L12.6021 11.8607C12.4172 11.6728 12.3134 11.418 12.3134 11.1523V7.97509Z" fill="#343A3D"/>
<path d="M3.60135 8.58626L3.01032 7.9855C1.66323 6.61624 1.66323 4.39622 3.01032 3.02695C4.35741 1.65768 6.54148 1.65768 7.88857 3.02695L8.47956 3.62767C9.51076 3.20117 10.6387 2.96619 11.8206 2.96619C13.0995 2.96619 14.3151 3.24129 15.4134 3.73645L16.1114 3.02695C17.4585 1.65768 19.6426 1.65768 20.9897 3.02695C22.3368 4.39622 22.3368 6.61624 20.9897 7.9855L20.1403 8.84886C20.4962 9.82481 20.6906 10.8804 20.6906 11.9822C20.6906 14.3664 19.7802 16.5344 18.2935 18.1467L20.402 20.2899C20.7868 20.6811 20.7868 21.3154 20.402 21.7066C20.0171 22.0978 19.3931 22.0978 19.0082 21.7066L16.7898 19.4517C15.3722 20.4279 13.6619 20.9982 11.8206 20.9982C9.97933 20.9982 8.26907 20.4279 6.85148 19.4517L4.63307 21.7066C4.24819 22.0978 3.62417 22.0978 3.23929 21.7066C2.85441 21.3154 2.85441 20.6811 3.23929 20.2899L5.34777 18.1467C3.86104 16.5344 2.95063 14.3664 2.95063 11.9822C2.95063 10.7809 3.18178 9.6344 3.60135 8.58626ZM4.4041 6.56878L4.59044 6.75817C5.16578 5.93693 5.87317 5.21789 6.6811 4.63307L6.49478 4.44368C5.91746 3.85685 4.98143 3.85685 4.4041 4.44368C3.82678 5.03051 3.82678 5.98195 4.4041 6.56878ZM19.1973 6.97389L19.5959 6.56878C20.1732 5.98195 20.1732 5.03051 19.5959 4.44368C19.0186 3.85685 18.0825 3.85685 17.5052 4.44368L17.167 4.78744C17.9576 5.3954 18.6449 6.13489 19.1973 6.97389ZM4.92174 11.9822C4.92174 15.8551 8.01047 18.9947 11.8206 18.9947C15.6308 18.9947 18.7195 15.8551 18.7195 11.9822C18.7195 8.10934 15.6308 4.96975 11.8206 4.96975C8.01047 4.96975 4.92174 8.10934 4.92174 11.9822Z" fill="#343A3D"/>
</svg>
