<svg width="24" height="24" viewBox="0 0 24 24" fill="none" xmlns="http://www.w3.org/2000/svg">
<path fill-rule="evenodd" clip-rule="evenodd" d="M14.2862 9.31802C16.0508 7.56066 18.9119 7.56066 20.6765 9.31802C22.4412 11.0754 22.4412 13.9246 20.6765 15.682C18.9119 17.4393 16.0508 17.4393 14.2862 15.682L13.7881 15.1859C13.399 14.7984 13.399 14.1702 13.7881 13.7828C14.1771 13.3953 14.8079 13.3953 15.197 13.7828L15.6952 14.2788C16.6817 15.2613 18.2811 15.2613 19.2676 14.2788C20.2541 13.2964 20.2541 11.7036 19.2676 10.7212C18.2811 9.73872 16.6817 9.73872 15.6952 10.7212L10.7138 15.682C8.94915 17.4393 6.08811 17.4393 4.32348 15.682C2.55884 13.9246 2.55884 11.0754 4.32348 9.31802C6.08811 7.56066 8.94915 7.56066 10.7138 9.31802L10.0093 10.0196L10.7138 9.31802L11.2119 9.8141C11.601 10.2016 11.601 10.8298 11.2119 11.2172C10.8229 11.6047 10.192 11.6047 9.80298 11.2172L9.30485 10.7212C8.31835 9.73872 6.71892 9.73872 5.73242 10.7212C4.74592 11.7036 4.74592 13.2964 5.73242 14.2788C6.71892 15.2613 8.31835 15.2613 9.30484 14.2788L14.2862 9.31802Z" fill="#343A3D"/>
</svg>
