<svg width="24" height="24" viewBox="0 0 24 24" fill="none" xmlns="http://www.w3.org/2000/svg">
<path fill-rule="evenodd" clip-rule="evenodd" d="M4 4C4 2.89543 4.89543 2 6 2H10C11.1046 2 12 2.89543 12 4V5.76393L13.5326 8.82918C14.0313 9.82653 13.306 11 12.191 11H3.80901C2.69394 11 1.9687 9.82653 2.46737 8.82918L4 5.76393V4ZM5.61803 7L4.61803 9H11.382L10.382 7H5.61803ZM10 5V4H6V5H10ZM2 15C2 13.8954 2.89543 13 4 13H19C20.1046 13 21 13.8954 21 15V20C21 21.1046 20.1046 22 19 22H4C2.89543 22 2 21.1046 2 20V15ZM12 15H4V20H12V15ZM14 15V16.5H19V15H14ZM19 18.5H14V20H19V18.5ZM6 17C6 16.4477 6.44772 16 7 16H9C9.55228 16 10 16.4477 10 17C10 17.5523 9.55228 18 9 18H7C6.44772 18 6 17.5523 6 17Z" fill="#343A3D"/>
</svg>
