<svg width="24" height="24" viewBox="0 0 24 24" fill="none" xmlns="http://www.w3.org/2000/svg">
<path fill-rule="evenodd" clip-rule="evenodd" d="M3 5C3 3.89543 3.89543 3 5 3H19C20.1046 3 21 3.89543 21 5V7.17072C22.1652 7.58256 23 8.6938 23 10V16.8889C23 18.0548 22.0548 19 20.8889 19H19V20C19 20.5523 18.5523 21 18 21C17.4477 21 17 20.5523 17 20V19H7V20C7 20.5523 6.55228 21 6 21C5.44772 21 5 20.5523 5 20L5 19H3.11112C1.94518 19 1 18.0548 1 16.8889V10C1 8.69378 1.83481 7.58254 3 7.17071V5ZM5 7.17071C6.16519 7.58254 7 8.69378 7 10V12L11 12V5L5 5V7.17071ZM13 12L17 12V10C17 8.6938 17.8348 7.58256 19 7.17072V5H13V12ZM3.99999 9C3.44771 9 3 9.44772 3 10V16.8889C3 16.9503 3.04975 17 3.11112 17H20.8889C20.9503 17 21 16.9503 21 16.8889V10C21 9.44773 20.5523 9.00002 20 9.00002C19.4477 9.00002 19 9.44773 19 10V12.2857C19 13.2325 18.2325 14 17.2857 14L6.71427 14C5.76751 13.9999 5 13.2324 5 12.2857V10C5 9.44771 4.55228 9 3.99999 9Z" fill="#343A3D"/>
</svg>
