<svg width="24" height="24" viewBox="0 0 24 24" fill="none" xmlns="http://www.w3.org/2000/svg">
<path d="M11.9998 22.2003C12.71 22.2003 13.2843 21.6223 13.2843 20.9112L13.2843 6.20304L17.0067 9.94124C17.5084 10.4451 18.3222 10.4451 18.8239 9.94124C19.3251 9.43788 19.3251 8.62212 18.8239 8.11876L12.9084 2.17817C12.6676 1.93632 12.3408 1.80029 11.9998 1.80029C11.6589 1.80029 11.332 1.93632 11.0912 2.17817L5.17573 8.11876C4.6745 8.62212 4.6745 9.43788 5.17573 9.94124C5.67743 10.4451 6.4912 10.4451 6.99289 9.94124L10.7153 6.20304L10.7153 20.9112C10.7153 21.6223 11.2896 22.2003 11.9998 22.2003Z" fill="#343A3D"/>
</svg>
