<svg width="24" height="24" viewBox="0 0 24 24" fill="none" xmlns="http://www.w3.org/2000/svg">
<path d="M1.7998 12.0003C1.7998 12.7105 2.37776 13.2848 3.08891 13.2848H17.7971L14.0589 17.0072C13.555 17.5089 13.555 18.3227 14.0589 18.8244C14.5622 19.3256 15.378 19.3256 15.8813 18.8244L21.8219 12.9089C22.0638 12.6681 22.1998 12.3412 22.1998 12.0003C22.1998 11.6593 22.0638 11.3325 21.8219 11.0917L15.8813 5.17622C15.378 4.67498 14.5622 4.67498 14.0589 5.17622C13.555 5.67792 13.555 6.49168 14.0589 6.99338L17.7971 10.7158H3.08891C2.37776 10.7158 1.7998 11.2901 1.7998 12.0003Z" fill="#343A3D"/>
</svg>
