<svg width="24" height="24" viewBox="0 0 24 24" fill="none" xmlns="http://www.w3.org/2000/svg">
<path d="M11.9998 1.7998C11.2896 1.7998 10.7153 2.37776 10.7153 3.08891V17.7971L6.99289 14.0589C6.4912 13.555 5.67743 13.555 5.17573 14.0589C4.6745 14.5622 4.6745 15.378 5.17573 15.8813L11.0912 21.8219C11.332 22.0638 11.6589 22.1998 11.9998 22.1998C12.3408 22.1998 12.6676 22.0638 12.9084 21.8219L18.8239 15.8813C19.3251 15.378 19.3251 14.5622 18.8239 14.0589C18.3222 13.555 17.5084 13.555 17.0067 14.0589L13.2843 17.7971V3.08891C13.2843 2.37776 12.71 1.7998 11.9998 1.7998Z" fill="#343A3D"/>
</svg>
