<svg width="25" height="24" viewBox="0 0 25 24" fill="none" xmlns="http://www.w3.org/2000/svg">
<path d="M11.6761 3.00682C12.0871 3.00682 12.4564 3.25781 12.6072 3.63972L14.6448 8.79948C14.8513 9.32229 14.8984 9.42245 14.9536 9.49945C15.0174 9.58844 15.0954 9.66637 15.1845 9.73011C15.2616 9.78525 15.3619 9.83229 15.8854 10.0385L21.0518 12.0735C21.4342 12.2241 21.6855 12.5929 21.6855 13.0034C21.6855 13.4139 21.4342 13.7827 21.0518 13.9334L15.8854 15.9683C15.3619 16.1745 15.2616 16.2216 15.1845 16.2767C15.0954 16.3405 15.0174 16.4184 14.9536 16.5074C14.8984 16.5844 14.8513 16.6845 14.6448 17.2073L12.6072 22.3671C12.4564 22.749 12.0871 23 11.6761 23C11.265 23 10.8957 22.749 10.7449 22.3671L8.70734 17.2073C8.50088 16.6845 8.45379 16.5844 8.39857 16.5074C8.33475 16.4184 8.25672 16.3405 8.16761 16.2767C8.09051 16.2216 7.99022 16.1745 7.46675 15.9683L2.30036 13.9334C1.91797 13.7827 1.66666 13.4139 1.66666 13.0034C1.66666 12.5929 1.91797 12.2241 2.30036 12.0735L7.46675 10.0385C7.99022 9.83229 8.09051 9.78525 8.16761 9.73011C8.25672 9.66637 8.33475 9.58845 8.39857 9.49945C8.45379 9.42245 8.50088 9.32228 8.70734 8.79948L10.7449 3.63972C10.8957 3.25781 11.265 3.00682 11.6761 3.00682ZM11.6761 6.73116L10.5696 9.53302C10.5588 9.56031 10.5482 9.5874 10.5376 9.61426C10.3816 10.0104 10.2441 10.3596 10.0261 10.6636C9.83464 10.9306 9.60056 11.1643 9.33322 11.3556C9.02883 11.5733 8.6792 11.7106 8.28258 11.8664C8.25567 11.877 8.22856 11.8876 8.20122 11.8984L5.39577 13.0034L8.20122 14.1084C8.22856 14.1192 8.25568 14.1299 8.28259 14.1404C8.6792 14.2962 9.02883 14.4335 9.33322 14.6513C9.60057 14.8425 9.83464 15.0763 10.0261 15.3433C10.2441 15.6473 10.3816 15.9964 10.5376 16.3926C10.5482 16.4194 10.5588 16.4465 10.5696 16.4738L11.6761 19.2757L12.7825 16.4738C12.7933 16.4465 12.804 16.4194 12.8146 16.3925C12.9705 15.9964 13.108 15.6473 13.326 15.3433C13.5175 15.0763 13.7516 14.8425 14.0189 14.6513C14.3233 14.4335 14.6729 14.2962 15.0696 14.1404C15.0965 14.1299 15.1236 14.1192 15.1509 14.1084L17.9564 13.0034L15.1509 11.8984C15.1236 11.8876 15.0965 11.877 15.0696 11.8664C14.6729 11.7106 14.3233 11.5733 14.0189 11.3556C13.7516 11.1643 13.5175 10.9306 13.326 10.6636C13.108 10.3596 12.9705 10.0104 12.8146 9.61428C12.804 9.58741 12.7933 9.56032 12.7825 9.53302L11.6761 6.73116Z" fill="#323439"/>
<path d="M19.6629 1C19.8684 1 20.0531 1.1255 20.1285 1.31645L20.9209 3.32302C21.0032 3.5315 21.0163 3.55512 21.0279 3.57131C21.0456 3.59603 21.0673 3.61768 21.092 3.63538C21.1083 3.64697 21.1319 3.66006 21.3407 3.74228L23.3498 4.53366C23.541 4.60897 23.6667 4.79337 23.6667 4.99864C23.6667 5.2039 23.541 5.3883 23.3498 5.46361L21.3407 6.25499C21.1319 6.33721 21.1083 6.3503 21.092 6.36189C21.0673 6.37959 21.0456 6.40124 21.0279 6.42596C21.0163 6.44215 21.0032 6.46577 20.9209 6.67425L20.1285 8.68082C20.0531 8.87178 19.8684 8.99727 19.6629 8.99727C19.4574 8.99727 19.2727 8.87178 19.1973 8.68082L18.4049 6.67425C18.3226 6.46577 18.3095 6.44215 18.2979 6.42596C18.2802 6.40124 18.2585 6.37959 18.2337 6.36189C18.2175 6.3503 18.1939 6.33721 17.9851 6.25499L15.976 5.46361C15.7848 5.3883 15.6591 5.2039 15.6591 4.99864C15.6591 4.79337 15.7848 4.60897 15.976 4.53366L17.9851 3.74228C18.1939 3.66006 18.2175 3.64697 18.2337 3.63538C18.2585 3.61768 18.2802 3.59603 18.2979 3.57131C18.3095 3.55512 18.3226 3.5315 18.4049 3.32302L19.1973 1.31645C19.2727 1.1255 19.4574 1 19.6629 1Z" fill="#323439"/>
</svg>
