<svg width="24" height="24" viewBox="0 0 24 24" fill="none" xmlns="http://www.w3.org/2000/svg">
<path d="M11.9999 11.9C12.3313 11.9 12.5999 12.1687 12.5999 12.5V14.4L14.4999 14.4C14.8313 14.4 15.0999 14.6686 15.0999 15C15.0999 15.3313 14.8313 15.6 14.4999 15.6H12.5999V17.5C12.5999 17.8314 12.3313 18.1 11.9999 18.1C11.6685 18.1 11.3999 17.8314 11.3999 17.5V15.6H9.4999C9.16853 15.6 8.8999 15.3313 8.8999 15C8.8999 14.6686 9.16853 14.4 9.4999 14.4H11.3999V12.5C11.3999 12.1687 11.6685 11.9 11.9999 11.9Z" fill="#343A3D"/>
<path d="M7.65114 5.27239C7.98502 3.93689 9.18497 3 10.5616 3H13.4385C14.8151 3 16.015 3.93689 16.3489 5.27239L16.7808 7H19C20.6569 7 22 8.34315 22 10V19C22 20.6569 20.6569 22 19 22H5C3.34315 22 2 20.6569 2 19V10C2 8.34315 3.34315 7 5 7H7.21924L7.65114 5.27239ZM14.75 9V10C14.75 10.1381 14.8619 10.25 15 10.25H16C16.1381 10.25 16.25 10.1381 16.25 10V9H14.75ZM10.75 9V10C10.75 10.9665 9.9665 11.75 9 11.75H8C7.0335 11.75 6.25 10.9665 6.25 10V9H5C4.44772 9 4 9.44772 4 10V19C4 19.5523 4.44772 20 5 20H19C19.5523 20 20 19.5523 20 19V10C20 9.44772 19.5523 9 19 9H17.75V10C17.75 10.9665 16.9665 11.75 16 11.75H15C14.0335 11.75 13.25 10.9665 13.25 10V9H10.75ZM7.75 9V10C7.75 10.1381 7.86193 10.25 8 10.25H9C9.13807 10.25 9.25 10.1381 9.25 10V9H7.75ZM14.4086 5.75746C14.2973 5.3123 13.8973 5 13.4385 5H10.5616C10.1027 5 9.70272 5.3123 9.59142 5.75746L9.28079 7H14.7192L14.4086 5.75746Z" fill="#343A3D"/>
</svg>
