<svg width="24px" height="24px" viewBox="0 0 24 24" version="1.1" xmlns="http://www.w3.org/2000/svg" xmlns:xlink="http://www.w3.org/1999/xlink">
    <g id="Utilidades" stroke="none" stroke-width="1" fill="none" fill-rule="evenodd">
        <g id="Icons" transform="translate(-76.000000, -4051.000000)" fill="#343A3D" fill-rule="nonzero">
            <g id="Group-18" transform="translate(76.000000, 4051.000000)">
                <path d="M13,9 L11.003819,9 L11.003819,10.5 C11.003819,11.0522847 10.5561037,11.5 10.003819,11.5 L8,11.5 C7.44771525,11.5 7,11.0522847 7,10.5 L7,9 L5.57142857,9 C5.2952862,9 5.07142857,8.77614237 5.07142857,8.5 C5.07142857,8.22385763 5.2952862,8 5.57142857,8 L8.13962039,8 L8.79773427,6.02565835 C9.00190534,5.41314514 9.57511361,5 10.2207592,5 L13.7792408,5 C14.4248864,5 14.9980947,5.41314514 15.2022657,6.02565835 L15.8603796,8 L17.3571429,8 C18.809338,8 20,9.11128452 20,10.5 L20,17.5 C20,18.8887155 18.809338,20 17.3571429,20 L6.64285714,20 C5.19066199,20 4,18.8887155 4,17.5 L4,12.5 C4,12.2238576 4.22385763,12 4.5,12 C4.77614237,12 5,12.2238576 5,12.5 L5,17.5 C5,18.3204235 5.72811766,19 6.64285714,19 L17.3571429,19 C18.2718823,19 19,18.3204235 19,17.5 L19,10.5 C19,9.67957648 18.2718823,9 17.3571429,9 L17.003819,9 L17.003819,10.5 C17.003819,11.0522847 16.5561037,11.5 16.003819,11.5 L14,11.5 C13.4477153,11.5 13,11.0522847 13,10.5 L13,9 Z M14,9 L14,10.5 L16.003819,10.5 L16.003819,9 L14,9 Z M10.003819,9 L8,9 L8,10.5 L10.003819,10.5 L10.003819,9 Z M9.19371294,8 L14.8062871,8 L14.2535824,6.34188612 C14.1855254,6.13771505 13.994456,6 13.7792408,6 L10.2207592,6 C10.005544,6 9.81447459,6.13771505 9.74641757,6.34188612 L9.19371294,8 Z M11.5,15 L10,15 C9.72385763,15 9.5,14.7761424 9.5,14.5 C9.5,14.2238576 9.72385763,14 10,14 L11.5,14 L11.5,12.5 C11.5,12.2238576 11.7238576,12 12,12 C12.2761424,12 12.5,12.2238576 12.5,12.5 L12.5,14 L14,14 C14.2761424,14 14.5,14.2238576 14.5,14.5 C14.5,14.7761424 14.2761424,15 14,15 L12.5,15 L12.5,16.5 C12.5,16.7761424 12.2761424,17 12,17 C11.7238576,17 11.5,16.7761424 11.5,16.5 L11.5,15 Z" id="Shape"></path>
            </g>
        </g>
    </g>
</svg>