<svg width="24" height="24" viewBox="0 0 24 24" fill="none" xmlns="http://www.w3.org/2000/svg">
<path d="M12 7C12.3787 7 12.725 7.214 12.8944 7.55279L16.8944 15.5528C17.1414 16.0468 16.9412 16.6474 16.4472 16.8944C15.9532 17.1414 15.3525 16.9412 15.1055 16.4472L13.8819 14H10.118L8.8944 16.4472C8.64741 16.9412 8.04674 17.1414 7.55276 16.8944C7.05878 16.6474 6.85856 16.0468 7.10555 15.5528L11.1055 7.55279C11.2749 7.214 11.6212 7 12 7ZM11.118 12H12.8819L12 10.2361L11.118 12Z" fill="#343A3D"/>
<path d="M2 5C2 3.34315 3.34315 2 5 2H19C20.6569 2 22 3.34315 22 5V19C22 20.6569 20.6569 22 19 22H5C3.34315 22 2 20.6569 2 19V5ZM5 4C4.44772 4 4 4.44772 4 5V19C4 19.5523 4.44772 20 5 20H19C19.5523 20 20 19.5523 20 19V5C20 4.44772 19.5523 4 19 4H5Z" fill="#343A3D"/>
</svg>
