<svg width="24" height="24" viewBox="0 0 24 24" fill="none" xmlns="http://www.w3.org/2000/svg">
<path fill-rule="evenodd" clip-rule="evenodd" d="M2 5C2 3.34315 3.34315 2 5 2H19C20.6569 2 22 3.34315 22 5V11C22 12.6569 20.6569 14 19 14H17.0625C16.5102 14 16.0625 13.5523 16.0625 13C16.0625 12.4477 16.5102 12 17.0625 12H19C19.5523 12 20 11.5523 20 11V5C20 4.44772 19.5523 4 19 4H5C4.44772 4 4 4.44772 4 5V11C4 11.5523 4.44772 12 5 12H6.9375C7.48978 12 7.9375 12.4477 7.9375 13C7.9375 13.5523 7.48978 14 6.9375 14H5C3.34315 14 2 12.6569 2 11V5ZM12 7.5C11.4477 7.5 11 7.94772 11 8.5C11 9.05228 11.4477 9.5 12 9.5C12.5523 9.5 13 9.05228 13 8.5C13 7.94772 12.5523 7.5 12 7.5ZM9 8.5C9 6.84315 10.3431 5.5 12 5.5C13.6569 5.5 15 6.84315 15 8.5C15 10.1569 13.6569 11.5 12 11.5C10.3431 11.5 9 10.1569 9 8.5ZM12 13C12.5523 13 13 13.4477 13 14V18.5858L14.2929 17.2929C14.6834 16.9024 15.3166 16.9024 15.7071 17.2929C16.0976 17.6834 16.0976 18.3166 15.7071 18.7071L12.7071 21.7071C12.3166 22.0976 11.6834 22.0976 11.2929 21.7071L8.29289 18.7071C7.90237 18.3166 7.90237 17.6834 8.29289 17.2929C8.68342 16.9024 9.31658 16.9024 9.70711 17.2929L11 18.5858V14C11 13.4477 11.4477 13 12 13Z" fill="#343A3D"/>
</svg>
