<svg width="24" height="24" viewBox="0 0 24 24" fill="none" xmlns="http://www.w3.org/2000/svg">
<path fill-rule="evenodd" clip-rule="evenodd" d="M5.01966 11.0299L5.01971 12H6C7.10457 12 8 12.8954 8 14V19C8 20.1046 7.10457 21 6 21H5C2.79086 21 1 19.2091 1 17V16C1 14.5113 1.81326 13.2125 3.01975 12.5238L3.01965 11.0001C3.01965 10.9805 3.02022 10.961 3.02136 10.9416C3.34063 5.48738 7.22028 2 12 2C16.7798 2 20.6595 5.48738 20.9787 10.9416C20.9799 10.961 20.9804 10.9805 20.9804 11V12.5239C22.1868 13.2127 23 14.5114 23 16V17C23 19.2091 21.2091 21 19 21H18C16.8954 21 16 20.1046 16 19V14C16 12.8954 16.8954 12 18 12H18.9804V11.0299C18.7092 6.60661 15.6694 4 12 4C8.33067 4 5.29095 6.6066 5.01966 11.0299ZM5 14C3.89543 14 3 14.8954 3 16V17C3 18.1046 3.89543 19 5 19H6V14H5ZM19 14H18V19H19C20.1046 19 21 18.1046 21 17V16C21 14.8954 20.1046 14 19 14Z" fill="#343A3D"/>
</svg>
