<svg width="24" height="24" viewBox="0 0 24 24" fill="none" xmlns="http://www.w3.org/2000/svg">
<path fill-rule="evenodd" clip-rule="evenodd" d="M12.0527 3.00009H8.22765C7.6473 3.00009 7.27257 3.00087 6.98737 3.02402C6.71392 3.04622 6.61254 3.08389 6.56277 3.10909C6.37337 3.20496 6.21938 3.35794 6.12288 3.5461C6.09752 3.59554 6.05959 3.69626 6.03725 3.96792C6.01395 4.25126 6.01317 4.62353 6.01317 5.20008V18.8C6.01317 19.3766 6.01395 19.7488 6.03725 20.0322C6.05959 20.3038 6.09752 20.4046 6.12288 20.454C6.21938 20.6422 6.37337 20.7951 6.56277 20.891C6.61254 20.9162 6.71392 20.9539 6.98737 20.9761C7.27257 20.9992 7.6473 21 8.22765 21H9.03291C9.58883 21 10.0395 21.4477 10.0395 22C10.0395 22.5523 9.58883 23 9.03291 23H8.18883C7.65822 23 7.20047 23 6.82344 22.9694C6.42549 22.9371 6.02968 22.8658 5.64881 22.673C5.08061 22.3854 4.61865 21.9265 4.32914 21.362C4.13507 20.9836 4.06329 20.5904 4.03077 20.195C3.99997 19.8205 3.99998 19.3657 4 18.8386V5.16154C3.99998 4.63441 3.99997 4.17962 4.03077 3.80506C4.06329 3.40972 4.13507 3.0165 4.32914 2.63812C4.61865 2.07364 5.08061 1.6147 5.64881 1.32708C6.02968 1.13429 6.42549 1.06297 6.82344 1.03067C7.20047 1.00007 7.65823 1.00008 8.18884 1.0001L12.8155 1.00005C13.225 0.999672 13.5861 0.999338 13.9369 1.08299C14.245 1.15648 14.5396 1.27769 14.8098 1.44218C15.1173 1.62941 15.3724 1.88332 15.6618 2.17131L18.9264 5.41459C19.2163 5.70204 19.4719 5.95547 19.6603 6.26101C19.8259 6.52942 19.9479 6.82206 20.0219 7.12816C20.086 7.39364 20.1011 7.66511 20.1045 7.95929C20.105 7.97282 20.1053 7.98642 20.1053 8.00009L20.105 8.02313C20.1055 8.0945 20.1054 8.16725 20.1054 8.2416L20.1053 11.0001C20.1053 11.5523 19.6547 12.0001 19.0987 12.0001C18.5428 12.0001 18.0921 11.5523 18.0921 11.0001V9.00008H14.0658C12.954 9.00008 12.0527 8.10466 12.0527 7.00009V3.00009ZM17.6734 7.00009C17.6128 6.93861 17.5376 6.86338 17.4435 6.76992L14.2975 3.64445C14.2034 3.55101 14.1277 3.47633 14.0658 3.41613V7.00009H17.6734Z" fill="#343A3D"/>
<path fill-rule="evenodd" clip-rule="evenodd" d="M12.2763 18.05C12.2763 15.9695 13.9883 14.3 16.0789 14.3C18.1695 14.3 19.8816 15.9695 19.8816 18.05C19.8816 18.7234 19.7022 19.3536 19.3888 19.8982L20.7016 21.1894C21.0967 21.5779 21.0999 22.2111 20.7087 22.6036C20.3176 22.996 19.6803 22.9992 19.2852 22.6107L17.9614 21.3087C17.4054 21.6216 16.7624 21.8 16.0789 21.8C13.9883 21.8 12.2763 20.1305 12.2763 18.05ZM16.0789 16.3C15.0811 16.3 14.2895 17.093 14.2895 18.05C14.2895 19.0071 15.0811 19.8 16.0789 19.8C17.0768 19.8 17.8684 19.0071 17.8684 18.05C17.8684 17.093 17.0768 16.3 16.0789 16.3Z" fill="#343A3D"/>
<path d="M9.03291 7.00009C8.47699 7.00009 8.02633 7.44781 8.02633 8.00009C8.02633 8.55237 8.47699 9.00008 9.03291 9.00008H10.0395C10.5954 9.00008 11.0461 8.55237 11.0461 8.00009C11.0461 7.44781 10.5954 7.00009 10.0395 7.00009H9.03291Z" fill="#343A3D"/>
<path d="M8.02633 12.0001C8.02633 11.4478 8.47699 11.0001 9.03291 11.0001H13.0592C13.6152 11.0001 14.0658 11.4478 14.0658 12.0001C14.0658 12.5524 13.6152 13.0001 13.0592 13.0001H9.03291C8.47699 13.0001 8.02633 12.5524 8.02633 12.0001Z" fill="#343A3D"/>
<path d="M9.03291 15.0001C8.47699 15.0001 8.02633 15.4478 8.02633 16.0001C8.02633 16.5523 8.47699 17 9.03291 17H10.0395C10.5954 17 11.0461 16.5523 11.0461 16.0001C11.0461 15.4478 10.5954 15.0001 10.0395 15.0001H9.03291Z" fill="#343A3D"/>
</svg>
