<svg width="24" height="24" viewBox="0 0 24 24" fill="none" xmlns="http://www.w3.org/2000/svg">
<path d="M11.8578 7.23063C11.2451 6.72 10.355 6.72 9.74224 7.23063C8.94953 7.89123 8.94953 9.10875 9.74224 9.76934L11.6799 11.3841C11.8654 11.5386 12.1347 11.5386 12.3201 11.3841L14.2578 9.76934C15.0505 9.10875 15.0505 7.89123 14.2578 7.23063C13.6451 6.72 12.755 6.72 12.1422 7.23063L12 7.34913L11.8578 7.23063Z" fill="#343A3D"/>
<path d="M4.23077 3C2.99875 3 2 3.99875 2 5.23077V11C2 16.5228 6.47715 21 12 21C17.5228 21 22 16.5228 22 11V5.23077C22 3.99875 21.0012 3 19.7692 3H4.23077ZM4 5.23077C4 5.10332 4.10332 5 4.23077 5H19.7692C19.8967 5 20 5.10332 20 5.23077V7L18 7C17.4477 7 17 7.44772 17 8C17 8.55228 17.4477 9 18 9L20 9V11L19.9998 11.05C18.6974 11.1652 17.0966 11.518 15.7425 12.4867C14.0467 13.6999 12.9158 15.7434 13.0055 18.9374C12.6761 18.9787 12.3406 19 12 19C11.688 19 11.3801 18.9821 11.0774 18.9474C11.1733 15.754 10.0654 13.7077 8.38711 12.4905C6.99059 11.4776 5.32496 11.1365 4.00008 11.0366L4 11V9H6C6.55228 9 7 8.55228 7 8C7 7.44772 6.55228 7 6 7H4V5.23077ZM16.9062 14.1133C17.7413 13.5158 18.7611 13.2236 19.7234 13.093C19.0677 15.5186 17.2998 17.4873 15.0008 18.4182C15.0381 16.0691 15.9153 14.8222 16.9062 14.1133ZM4.2709 13.0719C5.27217 13.1907 6.34538 13.4803 7.21289 14.1095C8.19146 14.8192 9.0591 16.0748 9.08366 18.4518C6.73679 17.5326 4.92999 15.5368 4.2709 13.0719Z" fill="#343A3D"/>
</svg>
