<svg width="24" height="24" viewBox="0 0 24 24" fill="none" xmlns="http://www.w3.org/2000/svg">
<path d="M8 11C8 8.79086 9.79086 7 12 7C14.2091 7 16 8.79086 16 11C16 13.2091 14.2091 15 12 15C9.79086 15 8 13.2091 8 11ZM12 9C10.8954 9 10 9.89543 10 11C10 12.1046 10.8954 13 12 13C13.1046 13 14 12.1046 14 11C14 9.89543 13.1046 9 12 9Z" fill="#343A3D"/>
<path d="M9 19C9.55228 19 10 18.5523 10 18C10 17.4477 9.55228 17 9 17C8.44772 17 8 17.4477 8 18C8 18.5523 8.44772 19 9 19Z" fill="#343A3D"/>
<path d="M13 18C13 17.4477 13.4477 17 14 17H16C16.5523 17 17 17.4477 17 18C17 18.5523 16.5523 19 16 19H14C13.4477 19 13 18.5523 13 18Z" fill="#343A3D"/>
<path d="M18 5.70835L18 3C18 2.44771 17.5523 2 17 2C16.4477 2 16 2.44772 16 3V4.07026C14.8233 3.38958 13.4571 3 12 3C7.58172 3 4 6.58172 4 11V18C4 20.2091 5.79086 22 8 22H16C18.2091 22 20 20.2091 20 18V11C20 8.97111 19.2447 7.11862 18 5.70835ZM12 5C15.3137 5 18 7.68629 18 11V18C18 19.1046 17.1046 20 16 20H8C6.89543 20 6 19.1046 6 18V11C6 7.68629 8.68629 5 12 5Z" fill="#343A3D"/>
</svg>
