<svg width="24" height="24" viewBox="0 0 24 24" fill="none" xmlns="http://www.w3.org/2000/svg">
<path d="M8.25 13.25C8.94036 13.25 9.5 12.6904 9.5 12C9.5 11.3096 8.94036 10.75 8.25 10.75C7.55964 10.75 7 11.3096 7 12C7 12.6904 7.55964 13.25 8.25 13.25Z" fill="#343A3D"/>
<path d="M17 12C17 12.6904 16.4404 13.25 15.75 13.25C15.0596 13.25 14.5 12.6904 14.5 12C14.5 11.3096 15.0596 10.75 15.75 10.75C16.4404 10.75 17 11.3096 17 12Z" fill="#343A3D"/>
<path d="M8.40683 15.6135C8.71237 15.1534 9.33302 15.0282 9.79309 15.3337C10.4472 15.7681 11.215 15.9999 12.0003 15.9999C12.7855 15.9999 13.5533 15.7681 14.2075 15.3337C14.6675 15.0282 15.2882 15.1534 15.5937 15.6135C15.8993 16.0736 15.774 16.6942 15.3139 16.9998C14.3319 17.652 13.1792 17.9999 12.0003 17.9999C10.8214 17.9999 9.66867 17.652 8.68662 16.9998C8.22655 16.6942 8.10129 16.0736 8.40683 15.6135Z" fill="#343A3D"/>
<path d="M12.0008 1C12.0005 1 12.0011 1 12.0008 1C5.92566 1 1 5.92487 1 12C1 18.0751 5.92487 23 12 23C18.0751 23 23 18.0751 23 12C23 5.92513 18.0756 1.00043 12.0008 1ZM10.0844 3.2043C9.84776 3.71473 9.68596 4.19217 9.57535 4.60696C9.45702 5.05069 9.39664 5.42493 9.36576 5.69508C9.35031 5.83032 9.34219 5.93999 9.33793 6.01986C9.3358 6.05981 9.33463 6.09237 9.33399 6.117L9.33338 6.14797L9.33328 6.15889L9.33326 6.16319L9.33325 6.16504V6.1667C9.33325 6.87395 9.6142 7.55222 10.1143 8.05232C10.6144 8.55242 11.2927 8.83337 11.9999 8.83337C12.7072 8.83337 13.3854 8.55242 13.8855 8.05232C14.3856 7.55222 14.6666 6.87395 14.6666 6.1667C14.6666 5.61442 14.2189 5.1667 13.6666 5.1667C13.1143 5.1667 12.6666 5.61442 12.6666 6.1667C12.6666 6.34351 12.5963 6.51308 12.4713 6.63811C12.3463 6.76313 12.1767 6.83337 11.9999 6.83337C11.8231 6.83337 11.6535 6.76313 11.5285 6.63811C11.4045 6.51411 11.3344 6.34631 11.3333 6.17108L11.3333 6.1686C11.3335 6.16169 11.334 6.14746 11.3351 6.12637C11.3373 6.08417 11.3422 6.01481 11.3528 5.92218C11.374 5.7366 11.4178 5.4598 11.5078 5.12228C11.6623 4.54306 11.951 3.79155 12.4911 3.01317C17.2333 3.26818 21 7.19421 21 12C21 16.9706 16.9706 21 12 21C7.02944 21 3 16.9706 3 12C3 7.68683 6.03408 4.0823 10.0844 3.2043Z" fill="#343A3D"/>
</svg>
