<svg width="24" height="24" viewBox="0 0 24 24" fill="none" xmlns="http://www.w3.org/2000/svg">
<path d="M11 4.0897C11 2.93559 11.9356 2 13.0897 2H15C18.866 2 22 5.13401 22 9V12.6412C22 14.5839 20.9662 16.2852 19.4187 17.2249C19.7841 17.722 20 18.3358 20 19C20 20.6569 18.6569 22 17 22C15.3431 22 14 20.6569 14 19C14 18.6494 14.0602 18.3128 14.1707 18H10.8293C10.9398 18.3128 11 18.6494 11 19C11 20.6569 9.65685 22 8 22C6.34315 22 5 20.6569 5 19C5 18.2527 5.27325 17.5692 5.72529 17.044C4.53755 16.2191 3.693 14.9221 3.47542 13.399L3.18774 11.3852C3.00789 10.1263 3.98475 9 5.25644 9H6V7.1794C6 6.52804 5.47196 6 4.8206 6H3C2.44772 6 2 5.55228 2 5C2 4.44772 2.44772 4 3 4H4.8206C6.57653 4 8 5.42347 8 7.1794V9H11V4.0897ZM15 4H13.0897C13.0402 4 13 4.04016 13 4.0897V9H20C20 6.23858 17.7614 4 15 4ZM5.25644 11C5.20185 11 5.15992 11.0483 5.16764 11.1024L5.45532 13.1162C5.69171 14.7709 7.10886 16 8.78038 16H16.6412C18.4962 16 20 14.4962 20 12.6412V11H5.25644ZM17 20C17.5523 20 18 19.5523 18 19C18 18.4477 17.5523 18 17 18C16.4477 18 16 18.4477 16 19C16 19.5523 16.4477 20 17 20ZM9 19C9 18.4477 8.55228 18 8 18C7.44772 18 7 18.4477 7 19C7 19.5523 7.44772 20 8 20C8.55228 20 9 19.5523 9 19Z" fill="#343A3D"/>
</svg>
