<svg width="24" height="24" viewBox="0 0 24 24" fill="none" xmlns="http://www.w3.org/2000/svg">
<path fill-rule="evenodd" clip-rule="evenodd" d="M4 5C4 3.34315 5.34313 2.00001 6.99998 2C8.65684 1.99999 10 3.34314 10 5V5.76389C10.5308 5.28885 11.2316 5 12 5C13.6569 5 15 6.34315 15 8C15 9.32951 14.1352 10.457 12.9374 10.8507L15.4473 12.1056C15.9412 12.3526 16.1415 12.9533 15.8945 13.4472C15.6475 13.9412 15.0468 14.1414 14.5528 13.8944L12.9053 13.0707L13.6771 15H17C17.1975 15 17.3905 15.0585 17.5547 15.168L20.5547 17.168C21.0143 17.4743 21.1384 18.0952 20.8321 18.5547C20.5257 19.0142 19.9049 19.1384 19.4453 18.8321L18.9599 18.5085C18.9863 18.6684 19 18.8326 19 19C19 20.6569 17.6569 22 16 22H9.44617C7.54529 22 5.92871 20.6131 5.63967 18.7343L4.03053 8.27491C4.01021 8.14282 4 8.00937 4 7.87572V5ZM17 19C17 18.4477 16.5523 18 16 18H12.6435C11.8288 18 11.1055 17.4787 10.8478 16.7058L8.13246 8.55966C8.04473 8.29647 8 8.02086 8 7.74343V5C8 4.44771 7.55228 4 6.99999 4C6.44771 4 6 4.44772 6 5V7.87572C6 7.90756 6.00243 7.93934 6.00727 7.9708L7.61641 18.4302C7.75535 19.3333 8.53243 20 9.44617 20H16C16.5523 20 17 19.5523 17 19ZM12 7C11.4477 7 11 7.44772 11 8C11 8.55228 11.4477 9 12 9C12.5523 9 13 8.55228 13 8C13 7.44772 12.5523 7 12 7Z" fill="#343A3D"/>
</svg>
