<svg width="24" height="24" viewBox="0 0 24 24" fill="none" xmlns="http://www.w3.org/2000/svg">
<path d="M13.7201 4C14.8688 4 15.8001 4.93125 15.8001 6.08C15.8001 6.15552 15.8085 6.22908 15.8243 6.29981C15.8084 6.37065 15.8 6.44435 15.8 6.52C15.8 7.07228 16.2477 7.52 16.8 7.52C17.2843 7.52 17.7016 7.80688 17.8912 8.21997H16.1304C15.5109 8.21997 14.8971 8.10176 14.3219 7.87168L11.5709 6.77128C10.8257 6.47322 10.0396 6.29376 9.2411 6.23842C9.4601 5.94785 9.80811 5.76 10.2 5.76H10.64C10.6902 5.76 10.7396 5.7563 10.7878 5.74915C11.2122 5.81311 11.6461 5.59681 11.8397 5.18909C12.1747 4.48404 12.8919 4 13.7201 4ZM17.78 5.67286C17.5757 3.61069 15.836 2 13.7201 2C12.3274 2 11.0992 2.69777 10.3637 3.76H10.2C8.68741 3.76 7.41994 4.80946 7.086 6.21997H4C2.34315 6.21997 1 7.56312 1 9.21997C1 10.5968 1.92746 11.7569 3.19168 12.1098L4.08303 15.6752C4.47623 17.248 5.47006 18.5444 6.78298 19.3446L6.12815 20.5102C5.85766 20.9917 6.02872 21.6014 6.51023 21.8719C6.99174 22.1423 7.60136 21.9713 7.87185 21.4898L8.6583 20.0898C9.06168 20.1753 9.47856 20.22 9.90388 20.22H14.3962C15.0381 20.22 15.6622 20.1179 16.2501 19.9268L17.1282 21.4898C17.3987 21.9713 18.0083 22.1423 18.4898 21.8718C18.9713 21.6013 19.1423 20.9917 18.8718 20.5102L18.0232 18.9996C18.9642 18.2856 19.6963 17.2933 20.0883 16.1173L20.7525 14.1248C22.0451 13.7909 23 12.617 23 11.22C23 9.56312 21.6569 8.21997 20 8.21997H19.9612C19.7725 7.01759 18.9143 6.03737 17.78 5.67286ZM18.6126 14.22L18.1909 15.4849C17.6465 17.1182 16.1179 18.22 14.3962 18.22H9.90388C8.06841 18.22 6.46848 16.9708 6.02331 15.1901L5.28078 12.22H8.70813C9.43432 12.22 10.1538 12.3585 10.8281 12.6282L13.5791 13.7286C14.3905 14.0532 15.2564 14.22 16.1304 14.22H18.6126ZM4 8.21997H8.70813C9.43432 8.21997 10.1538 8.35854 10.8281 8.62824L13.5791 9.72863C14.3905 10.0532 15.2564 10.22 16.1304 10.22H20C20.5523 10.22 21 10.6677 21 11.22C21 11.7723 20.5523 12.22 20 12.22H16.1304C15.5109 12.22 14.8971 12.1018 14.3219 11.8717L11.5709 10.7713C10.6604 10.4071 9.68876 10.22 8.70813 10.22H4C3.44772 10.22 3 9.77226 3 9.21997C3 8.66769 3.44772 8.21997 4 8.21997Z" fill="#343A3D"/>
</svg>
