<svg width="24" height="24" viewBox="0 0 24 24" fill="none" xmlns="http://www.w3.org/2000/svg">
<path d="M7 5C7 3.34315 8.34315 2 10 2H14C15.6569 2 17 3.34315 17 5V9H18C18.5523 9 19 9.44772 19 10V11C19 12.5632 17.8043 13.8472 16.2777 13.9873L17.9702 20.7575C18.1041 21.2933 17.7784 21.8362 17.2426 21.9702C16.7068 22.1041 16.1639 21.7784 16.0299 21.2426L15.4693 19H8.53073L7.97009 21.2426C7.83614 21.7784 7.2932 22.1041 6.75741 21.9702C6.22161 21.8362 5.89585 21.2933 6.0298 20.7575L7.72234 13.9873C6.19565 13.8472 5 12.5632 5 11V10C5 9.44772 5.44772 9 6 9H7V5ZM9.03073 17H14.9693L14.2719 14.2105C14.2447 14.234 14.2165 14.2575 14.1872 14.2809C13.7102 14.6625 12.9929 15 12 15C11.0071 15 10.2898 14.6625 9.81281 14.2809C9.78353 14.2575 9.7553 14.234 9.72809 14.2105L9.03073 17ZM16 12C16.5523 12 17 11.5523 17 11H7C7 11.5523 7.44772 12 8 12H8.97926C8.99251 11.9997 9.0058 11.9997 9.01912 12H10C10.369 12 10.7072 12.2031 10.881 12.5268C10.8841 12.5317 10.8908 12.5419 10.9016 12.5562C10.9297 12.5938 10.9819 12.6549 11.0622 12.7191C11.2102 12.8375 11.4929 13 12 13C12.5071 13 12.7898 12.8375 12.9378 12.7191C13.0181 12.6549 13.0703 12.5938 13.0984 12.5562C13.1092 12.5419 13.1159 12.5317 13.119 12.5268C13.2928 12.2031 13.631 12 14 12H14.9809C14.9942 11.9997 15.0075 11.9997 15.0207 12H16ZM15 5C15 4.44772 14.5523 4 14 4H10C9.44772 4 9 4.44772 9 5V9H15V5Z" fill="#343A3D"/>
</svg>
