<svg width="24" height="24" viewBox="0 0 24 24" fill="none" xmlns="http://www.w3.org/2000/svg">
<path d="M9.25 14C9.25 13.5858 9.58579 13.25 10 13.25H14C14.4142 13.25 14.75 13.5858 14.75 14C14.75 14.4142 14.4142 14.75 14 14.75H10C9.58579 14.75 9.25 14.4142 9.25 14Z" fill="#343A3D"/>
<path d="M10 17.25C9.58579 17.25 9.25 17.5858 9.25 18C9.25 18.4142 9.58579 18.75 10 18.75H10.25V19C10.25 19.4142 10.5858 19.75 11 19.75C11.4142 19.75 11.75 19.4142 11.75 19V18.75H14C14.4142 18.75 14.75 18.4142 14.75 18C14.75 17.5858 14.4142 17.25 14 17.25H10Z" fill="#343A3D"/>
<path d="M10 5C8.89543 5 8 5.89543 8 7V8C8 8.11835 8.01028 8.23429 8.02999 8.34699C7.43913 8.5515 6.81876 8.86698 6.35273 9.32596C5.48841 10.1772 5 11.335 5 12.5455V21.4091C5 21.836 5.17234 22.2423 5.47405 22.5394C5.77524 22.836 6.18054 23 6.6 23H17.4C17.8195 23 18.2248 22.836 18.526 22.5394C18.8277 22.2423 19 21.836 19 21.4091V12.5455C19 11.335 18.5116 10.1772 17.6473 9.32596C17.1812 8.86698 16.5609 8.5515 15.97 8.34699C15.9897 8.23429 16 8.11835 16 8V7C16 5.89543 15.1046 5 14 5H10ZM14 8H10V7H14V8ZM10 10H14C14.3603 10 14.8217 10.0729 15.2631 10.2191C15.7147 10.3687 16.0553 10.5652 16.2439 10.7509C16.7298 11.2295 17 11.8753 17 12.5455V21H7V12.5455C7 11.8753 7.27016 11.2295 7.7561 10.7509C7.94469 10.5652 8.28534 10.3687 8.73687 10.2191C9.17826 10.0729 9.63972 10 10 10Z" fill="#343A3D"/>
</svg>
