<svg width="24" height="24" viewBox="0 0 24 24" fill="none" xmlns="http://www.w3.org/2000/svg">
<path d="M9.25 13.75C9.25 13.3358 9.58579 13 10 13H14C14.4142 13 14.75 13.3358 14.75 13.75C14.75 14.1642 14.4142 14.5 14 14.5H10C9.58579 14.5 9.25 14.1642 9.25 13.75ZM10 17H14C14.4142 17 14.75 17.3358 14.75 17.75C14.75 18.1642 14.4142 18.5 14 18.5H11.75V18.75C11.75 19.1642 11.4142 19.5 11 19.5C10.5858 19.5 10.25 19.1642 10.25 18.75V18.5H10C9.58579 18.5 9.25 18.1642 9.25 17.75C9.25 17.3358 9.58579 17 10 17ZM10 5C8.89543 5 8 5.89543 8 7V8C8 8.08554 8.00537 8.16983 8.01579 8.25254C7.32404 8.4553 6.66383 8.77579 6.23015 9.1982C5.4425 9.96539 5 11.0059 5 12.0909V22.3182C5 22.499 5.07375 22.6724 5.20503 22.8003C5.3363 22.9282 5.51435 23 5.7 23H18.3C18.4857 23 18.6637 22.9282 18.795 22.8003C18.9263 22.6724 19 22.499 19 22.3182V12.0909C19 11.0059 18.5575 9.96539 17.7698 9.1982C17.3362 8.77579 16.676 8.4553 15.9842 8.25254C15.9946 8.16983 16 8.08554 16 8V7C16 5.89543 15.1046 5 14 5H10ZM14 8H10V7H14V8Z" fill="#343A3D"/>
</svg>
