<svg width="24" height="24" viewBox="0 0 24 24" fill="none" xmlns="http://www.w3.org/2000/svg">
<path fill-rule="evenodd" clip-rule="evenodd" d="M1 5C1 2.79086 2.79086 1 5 1H19C21.2091 1 23 2.79086 23 5V19C23 21.2091 21.2091 23 19 23H5C2.79086 23 1 21.2091 1 19V5ZM5 3C3.89543 3 3 3.89543 3 5V19C3 20.1046 3.89543 21 5 21H19C20.1046 21 21 20.1046 21 19V5C21 3.89543 20.1046 3 19 3H5ZM12.0046 6C12.5569 6 13.0046 6.44772 13.0046 7V17C13.0046 17.5523 12.5569 18 12.0046 18C11.4524 18 11.0046 17.5523 11.0046 17V7C11.0046 6.44772 11.4524 6 12.0046 6ZM7 10C7.55228 10 8 10.4477 8 11V17C8 17.5523 7.55228 18 7 18C6.44772 18 6 17.5523 6 17V11C6 10.4477 6.44772 10 7 10ZM17 13C17.5523 13 18 13.4477 18 14V17C18 17.5523 17.5523 18 17 18C16.4477 18 16 17.5523 16 17V14C16 13.4477 16.4477 13 17 13Z" fill="#343A3D"/>
</svg>
