<svg width="24" height="24" viewBox="0 0 24 24" fill="none" xmlns="http://www.w3.org/2000/svg">
<path d="M9.00562 5.0033C8.45333 5.0033 8.00562 5.45101 8.00562 6.0033C8.00562 6.55558 8.45333 7.0033 9.00562 7.0033H11.0056C11.5579 7.0033 12.0056 6.55558 12.0056 6.0033C12.0056 5.45101 11.5579 5.0033 11.0056 5.0033H9.00562Z" fill="#343A3D"/>
<path d="M7 2C5.89543 2 5 2.89543 5 4V9H4C3.73478 9 3.48043 9.10536 3.29289 9.29289C3.10536 9.48043 3 9.73478 3 10C3 12.9995 4.74245 15.3019 7.06302 16.6504C7.05014 16.685 7.03904 16.7207 7.02986 16.7575L6.65112 18.2724C6.17776 20.1658 7.60984 22 9.56155 22H14.4384C16.3902 22 17.8222 20.1658 17.3489 18.2724L16.9701 16.7575C16.961 16.7207 16.9499 16.685 16.937 16.6504C19.2576 15.3019 21 12.9995 21 10C21 9.44772 20.5523 9 20 9H19V4C19 2.89543 18.1046 2 17 2H7ZM17 9H7V4H17V9ZM8.59141 18.7575L8.90973 17.4842C9.91922 17.8227 10.9737 18 12 18C13.0263 18 14.0808 17.8227 15.0903 17.4842L15.4086 18.7575C15.5664 19.3886 15.089 20 14.4384 20H9.56155C8.91098 20 8.43362 19.3886 8.59141 18.7575ZM12 16C8.7855 16 5.6799 13.9461 5.09742 11H18.9026C18.3201 13.9461 15.2145 16 12 16Z" fill="#343A3D"/>
</svg>
