<svg width="24" height="24" viewBox="0 0 24 24" fill="none" xmlns="http://www.w3.org/2000/svg">
<path d="M16.7703 21.9999H11.0089L11.0001 22L10.9912 21.9999H7.22987C5.96124 21.9999 5.01317 20.834 5.27191 19.592L6.64525 13H4.52955C3.08701 13 2.11889 11.5193 2.69747 10.1978L5.93794 2.79677C6.41586 1.70522 7.49449 1 8.68607 1H15.3141C16.5056 1 17.5843 1.70522 18.0622 2.79676L21.3027 10.1978C21.8812 11.5193 20.9131 13 19.4706 13H17.3549L18.7282 19.592C18.987 20.834 18.0389 21.9999 16.7703 21.9999ZM7.6097 3.9651L4.52956 11H7.06192L7.40341 9.36082C7.51605 8.82015 8.04567 8.47316 8.58635 8.5858C9.12702 8.69844 9.47401 9.22806 9.36137 9.76873L9.10486 11H10.3794L10.7364 10.279L7.6097 3.9651ZM11.8523 8.0256L14.3411 3H9.36357L11.8523 8.0256ZM12.6112 11H14.8953L14.6388 9.76873C14.5261 9.22806 14.8731 8.69844 15.4138 8.5858C15.9545 8.47316 16.4841 8.82015 16.5967 9.36082L16.9382 11H19.4706L16.2518 3.6484L12.6112 11ZM8.68819 13L7.22987 19.9999H10.0001V13H8.68819ZM12.0001 13V19.9999H16.7703L15.3119 13H12.0001Z" fill="#444444"/>
</svg>
