<svg width="24" height="24" viewBox="0 0 24 24" fill="none" xmlns="http://www.w3.org/2000/svg">
<path fill-rule="evenodd" clip-rule="evenodd" d="M7 3L3 3C2.44772 3 2 2.55229 2 2C2 1.44772 2.44772 1 3 1L10 1C10.5523 1 11 1.44772 11 2C11 2.55228 10.5523 3 10 3L9 3V5C10.6569 5 12 6.34315 12 8C12 8.05667 11.9976 8.11278 11.993 8.16825C13.1619 8.57811 14 9.69118 14 11V14.3987C14.2583 14.3937 14.5164 14.3675 14.7715 14.3203L17.7603 13.7674C20.5008 13.2604 23 15.4088 23 18.1646C23 20.2443 21.5262 22.0723 19.4657 22.4682C17.6603 22.815 15.8302 22.9885 14 22.9885V23H5C3.34315 23 2 21.6569 2 20V11C2 9.69118 2.83814 8.57811 4.00698 8.16825C4.00236 8.11278 4 8.05666 4 8C4 6.34315 5.34315 5 7 5V3ZM5 10C4.44772 10 4 10.4477 4 11V20C4 20.5523 4.44772 21 5 21H6.03638C5.38506 20.2273 5 19.2312 5 18.168C5 15.4077 7.51055 13.2692 10.249 13.7897L12 14.1225V11C12 10.4477 11.5523 10 11 10H5ZM15.5 6C15.2239 6 15 6.22386 15 6.5C15 6.77614 15.2239 7 15.5 7C15.7761 7 16 6.77614 16 6.5C16 6.22386 15.7761 6 15.5 6ZM13 6.5C13 5.11929 14.1193 4 15.5 4C16.8807 4 18 5.11929 18 6.5C18 7.88071 16.8807 9 15.5 9C14.1193 9 13 7.88071 13 6.5ZM7 7C6.44772 7 6 7.44772 6 8L10 8C10 7.44772 9.55228 7 9 7H7ZM20.5 10C20.2239 10 20 10.2239 20 10.5C20 10.7761 20.2239 11 20.5 11C20.7761 11 21 10.7761 21 10.5C21 10.2239 20.7761 10 20.5 10ZM18 10.5C18 9.11929 19.1193 8 20.5 8C21.8807 8 23 9.11929 23 10.5C23 11.8807 21.8807 13 20.5 13C19.1193 13 18 11.8807 18 10.5ZM21 18.1646C21 16.628 19.6047 15.4601 18.1242 15.734L15.1353 16.2869C14.3119 16.4393 13.4673 16.4372 12.6446 16.2808L9.87551 15.7545C8.39591 15.4733 7 16.6348 7 18.168C7 19.3059 7.80989 20.2924 8.91164 20.5041C12.2731 21.1499 15.7269 21.1499 19.0884 20.5041C20.1889 20.2926 21 19.3038 21 18.1646Z" fill="#343A3D"/>
</svg>
