<svg width="24" height="24" viewBox="0 0 24 24" fill="none" xmlns="http://www.w3.org/2000/svg">
<path fill-rule="evenodd" clip-rule="evenodd" d="M8 4C7.44772 4 7 4.44772 7 5V8H11.2676C11.6134 7.4022 12.2597 7 13 7H17C17.7403 7 18.3866 7.4022 18.7324 8H20C21.1046 8 22 8.89543 22 10V15C22 17.419 20.2822 19.4367 18 19.9V21C18 21.5523 17.5523 22 17 22C16.4477 22 16 21.5523 16 21V20H8V21C8 21.5523 7.55228 22 7 22C6.44772 22 6 21.5523 6 21V19.9C3.71776 19.4367 2 17.419 2 15V10C2 8.89543 2.89543 8 4 8H5V5C5 3.34315 6.34315 2 8 2C9.65685 2 11 3.34315 11 5C11 5.55228 10.5523 6 10 6C9.44772 6 9 5.55228 9 5C9 4.44772 8.55228 4 8 4ZM4 10V15C4 16.6569 5.34315 18 7 18H17C18.6569 18 20 16.6569 20 15V10H19V12C19 13.1046 18.1046 14 17 14H13C11.8954 14 11 13.1046 11 12V10H4ZM17 9H13V12H17V9Z" fill="#343A3D"/>
</svg>
