<svg width="24" height="24" viewBox="0 0 24 24" fill="none" xmlns="http://www.w3.org/2000/svg">
<path d="M10.4326 4.12818C10.221 4.3347 10.0191 4.54897 9.82742 4.76553C8.60077 6.15175 7.51547 7.9426 6.65771 9.53839L4.60611 8.91039C4.32448 8.82418 4.13526 8.64115 4.05184 8.46856C3.97748 8.31472 3.9816 8.17359 4.07246 8.03074C5.44175 5.8779 7.90551 4.53452 10.4326 4.12818ZM14.6042 4.364L14.652 4.37888C15.1102 4.52316 15.4001 4.80883 15.5959 5.27483C15.8094 5.78301 15.9024 6.49962 15.8685 7.40939C15.8124 8.91459 15.4252 10.6825 15.0052 12.3648L8.5904 10.1705C9.38235 8.72705 10.318 7.22916 11.3252 6.0909C12.6364 4.60912 13.7297 4.1052 14.6042 4.364ZM15.2528 2.47124L15.1884 2.4512C10.8933 1.13229 5.07637 2.72576 2.38489 6.95737C1.8893 7.73655 1.90297 8.61859 2.25117 9.33895C2.59031 10.0406 3.23669 10.5828 4.02071 10.8228L10.0682 12.7898L6.99991 19.5873C6.7727 20.0906 6.99657 20.6829 7.49995 20.9101C8.00333 21.1373 8.5956 20.9135 8.82281 20.4101L11.969 13.44L18.2896 15.498C19.7691 15.9508 21.6739 15.2048 21.9119 13.368C22.5468 8.46709 19.6814 3.86592 15.2528 2.47124ZM17.8561 6.43431C19.415 8.12679 20.2607 10.5466 19.9284 13.1111C19.9058 13.2859 19.8071 13.4295 19.6228 13.5281C19.4274 13.6327 19.153 13.6707 18.8748 13.5855L16.9119 12.9848C17.3501 11.2438 17.8016 9.24017 17.8671 7.48388C17.8802 7.13306 17.8785 6.78106 17.8561 6.43431Z" fill="#343A3D"/>
</svg>
