<svg width="24" height="24" viewBox="0 0 24 24" fill="none" xmlns="http://www.w3.org/2000/svg">
<path d="M2.93111 7.15038C5.48158 2.78367 10.9191 1.09583 15.2418 2.46339L15.3129 2.48618C19.7708 3.93543 22.1434 8.6681 21.4534 13.5701C21.1916 15.4304 19.2668 16.2258 17.7336 15.6851L12.107 13.701L10.3285 19.2564L11.2574 19.6277C11.7343 19.8183 12.2662 19.8183 12.743 19.6277L15.378 18.5746C16.4388 18.1507 17.6305 18.2002 18.6524 18.7107L21.4474 20.107C21.9414 20.3538 22.1416 20.9539 21.8946 21.4475C21.6477 21.941 21.047 22.1411 20.553 21.8943L17.758 20.498C17.247 20.2427 16.6512 20.218 16.1208 20.43L13.4858 21.483C12.5321 21.8642 11.4683 21.8642 10.5147 21.483L7.87967 20.43C7.34925 20.218 6.75343 20.2427 6.24246 20.498L3.44743 21.8943C2.95345 22.1411 2.35278 21.941 2.10579 21.4475C1.8588 20.9539 2.05903 20.3538 2.55301 20.107L5.34804 18.7107C6.321 18.2246 7.44781 18.1565 8.46909 18.5169L10.221 13.0359L4.50666 11.0208C3.04264 10.5046 1.99206 8.75814 2.93111 7.15038ZM14.6465 4.37112C14.2206 4.24059 13.7665 4.29294 13.2356 4.56672C12.6679 4.85944 12.0591 5.3857 11.4324 6.11132C10.4111 7.29385 9.46298 8.862 8.6638 10.3677L15.0437 12.6175C15.4621 10.8907 15.8492 9.07111 15.9052 7.52069C15.9391 6.58419 15.8466 5.84085 15.6306 5.31087C15.4309 4.82091 15.138 4.53051 14.6914 4.38553L14.6465 4.37112ZM17.9039 7.59282C17.8383 9.40934 17.3801 11.4867 16.9396 13.286L18.3992 13.8008C18.6695 13.8961 18.9395 13.8647 19.137 13.7606C19.3239 13.662 19.443 13.5043 19.4729 13.2918C19.8327 10.7355 19.2076 8.37299 17.9015 6.678C17.9154 6.98076 17.915 7.28703 17.9039 7.59282ZM9.91826 4.80584C10.1141 4.57904 10.3171 4.35891 10.5268 4.14945C8.17546 4.58724 5.94326 5.95787 4.65849 8.15754C4.56318 8.32073 4.55885 8.49271 4.63905 8.66932C4.72525 8.85916 4.91059 9.04421 5.1723 9.1365L6.75775 9.69558C7.61376 8.05665 8.69587 6.22117 9.91826 4.80584Z" fill="#343A3D"/>
</svg>
