<svg width="24" height="24" viewBox="0 0 24 24" fill="none" xmlns="http://www.w3.org/2000/svg">
<path d="M9 12C9 11.4477 8.55228 11 8 11C7.44772 11 7 11.4477 7 12V15C7 15.5523 7.44772 16 8 16C8.55228 16 9 15.5523 9 15V12Z" fill="#343A3D"/>
<path d="M12 11C12.5523 11 13 11.4477 13 12V15C13 15.5523 12.5523 16 12 16C11.4477 16 11 15.5523 11 15V12C11 11.4477 11.4477 11 12 11Z" fill="#343A3D"/>
<path d="M2 6C2 3.79086 3.79086 2 6 2H14C16.2091 2 18 3.79086 18 6C20.2091 6 22 7.79086 22 10V14C22 16.2091 20.2091 18 18 18C18 20.2091 16.2091 22 14 22H6C3.79086 22 2 20.2091 2 18V6ZM16 18V8H4V18C4 19.1046 4.89543 20 6 20H14C15.1046 20 16 19.1046 16 18ZM16 6C16 4.89543 15.1046 4 14 4H6C4.89543 4 4 4.89543 4 6L16 6ZM18 16C19.1046 16 20 15.1046 20 14V10C20 8.89543 19.1046 8 18 8V16Z" fill="#343A3D"/>
</svg>
