<svg width="24" height="24" viewBox="0 0 24 24" fill="none" xmlns="http://www.w3.org/2000/svg">
<path fill-rule="evenodd" clip-rule="evenodd" d="M16.68 12.75C14.5804 12.75 12.8801 14.4279 12.8801 16.5C12.8801 17.2031 13.0795 17.8658 13.4282 18.4238L13.4345 18.434C14.0892 19.5201 15.2934 20.25 16.68 20.25C18.0666 20.25 19.2709 19.5202 19.9256 18.434L19.9318 18.4237C20.2805 17.8657 20.48 17.2031 20.48 16.5C20.48 14.4279 18.7797 12.75 16.68 12.75ZM11.3601 16.5C11.3601 13.5995 13.7409 11.25 16.68 11.25C19.6192 11.25 22 13.5995 22 16.5C22 17.4822 21.7218 18.4152 21.2288 19.206C20.3096 20.7271 18.62 21.75 16.68 21.75C14.7401 21.75 13.0504 20.7271 12.1312 19.206C11.6383 18.4151 11.3601 17.4822 11.3601 16.5ZM14.6226 14.4697C14.9194 14.1768 15.4006 14.1768 15.6974 14.4697L16.6801 15.4395L17.6626 14.4698C17.9594 14.1769 18.4406 14.1769 18.7374 14.4698C19.0342 14.7627 19.0342 15.2376 18.7374 15.5305L17.7549 16.5001L18.7374 17.4697C19.0342 17.7626 19.0342 18.2375 18.7374 18.5304C18.4406 18.8233 17.9594 18.8233 17.6626 18.5304L16.6801 17.5608L15.6974 18.5305C15.4006 18.8234 14.9194 18.8234 14.6226 18.5305C14.3259 18.2376 14.3259 17.7627 14.6226 17.4698L15.6053 16.5001L14.6226 15.5304C14.3259 15.2375 14.3259 14.7626 14.6226 14.4697Z" fill="#343A3D"/>
<path fill-rule="evenodd" clip-rule="evenodd" d="M3.00013 5.99765C3.00013 3.7875 4.81589 2 7.05343 2H17.1867C19.4252 2 21.24 3.7907 21.24 5.99989V8.99999C21.24 9.55227 20.7863 9.99998 20.2267 9.99998C19.667 9.99998 19.2134 9.55227 19.2134 8.99999V5.99989C19.2134 4.89536 18.306 4 17.1867 4H7.05343C5.93311 4 5.02678 4.8941 5.02678 5.99765V19C5.02678 19.2571 5.02719 19.4727 5.04037 19.6678C5.04977 19.807 5.06433 19.9088 5.0805 19.9817C5.16062 19.955 5.28936 19.8975 5.44189 19.8105C6.98053 18.9332 9.16256 18.5845 10.8245 19.8965L11.2331 20.2191C11.6701 20.5641 11.741 21.1934 11.3914 21.6247C11.0417 22.0559 10.4041 22.1258 9.96706 21.7808L9.55842 21.4582C8.80115 20.8604 7.59962 20.89 6.45577 21.5422C6.09137 21.75 5.56892 22 5.02678 22C4.59822 22 4.17508 21.8909 3.81883 21.6174C3.47134 21.3507 3.28345 21.001 3.1788 20.6912C2.99866 20.1579 2.99949 19.5142 3.00007 19.071C3.0001 19.0467 3.00013 19.023 3.00013 19V5.99765ZM7.05343 7.99999C7.05343 7.44771 7.50712 6.99999 8.06676 6.99999H14.1467C14.7064 6.99999 15.16 7.44771 15.16 7.99999C15.16 8.55227 14.7064 8.99999 14.1467 8.99999H8.06676C7.50712 8.99999 7.05343 8.55227 7.05343 7.99999ZM7.05343 12C7.05343 11.4477 7.50712 11 8.06676 11H10.0934C10.6531 11 11.1067 11.4477 11.1067 12C11.1067 12.5523 10.6531 13 10.0934 13H8.06676C7.50712 13 7.05343 12.5523 7.05343 12Z" fill="#343A3D"/>
</svg>
