<svg width="24" height="24" viewBox="0 0 24 24" fill="none" xmlns="http://www.w3.org/2000/svg">
<path d="M4 2C4 1.44772 4.44772 1 5 1H19C19.5523 1 20 1.44772 20 2V10H21C21.5523 10 22 10.4477 22 11C22 11.5523 21.5523 12 21 12H20V21H21C21.5523 21 22 21.4477 22 22C22 22.5523 21.5523 23 21 23H3C2.44772 23 2 22.5523 2 22C2 21.4477 2.44772 21 3 21H4V12H3C2.44772 12 2 11.5523 2 11C2 10.4477 2.44772 10 3 10H4V2ZM6 21H18V15H16V17C16 17.5523 15.5523 18 15 18C14.4477 18 14 17.5523 14 17V15L6 15V21ZM18 3H6V10H18V3ZM6 13L18 13V12H6V13Z" fill="#343A3D"/>
</svg>
