<svg width="24" height="24" viewBox="0 0 24 24" fill="none" xmlns="http://www.w3.org/2000/svg">
<path fill-rule="evenodd" clip-rule="evenodd" d="M10.0002 3.50412C10.0002 2.12383 11.705 1.4752 12.6214 2.50684L19.0079 9.69704C19.8678 10.6651 19.1811 12 17.8868 12H12.0002V13.9939H21.4049C22.3054 13.9939 23.1354 14.856 22.7965 15.8833C22.5685 16.5745 22.1643 17.4859 21.6371 18.3673C21.4328 18.709 21.2032 19.0575 20.9504 19.3932L22.4288 20.0948C22.9278 20.3316 23.1405 20.9284 22.9038 21.4278C22.6672 21.9272 22.0708 22.14 21.5718 21.9032L18.5631 20.4754C18.0502 20.232 17.4582 20.2181 16.9345 20.4373L14.5182 21.4485C13.5508 21.8533 12.4631 21.8618 11.4895 21.4721L8.74305 20.3727C8.26623 20.1818 7.73431 20.1818 7.25748 20.3727L3.37166 21.9282C2.85887 22.1334 2.2769 21.8838 2.07179 21.3707C1.86668 20.8575 2.11609 20.2751 2.62888 20.0698L3.61025 19.677C3.36427 19.2237 3.13273 18.717 2.93221 18.2326C2.56122 17.3364 2.23949 16.3756 2.09265 15.7013C1.87419 14.698 2.70286 13.9939 3.50031 13.9939H10.0002V3.50412ZM5.48295 18.9274L6.5147 18.5144C7.46835 18.1326 8.53218 18.1326 9.48583 18.5144L12.2322 19.6137C12.7191 19.8086 13.2629 19.8044 13.7466 19.6019L16.1629 18.5907C17.0976 18.1996 18.1412 18.1796 19.0839 18.5258C19.3779 18.1798 19.661 17.7742 19.921 17.3394C20.1964 16.8789 20.4301 16.4125 20.6115 15.9953H4.2433C4.38118 16.4367 4.56729 16.9529 4.77995 17.4666C5.01834 18.0425 5.26493 18.5535 5.48295 18.9274ZM12.0002 10H16.7734L12.0002 4.82019V10Z" fill="#343A3D"/>
</svg>
