<svg width="24" height="24" viewBox="0 0 24 24" fill="none" xmlns="http://www.w3.org/2000/svg">
<path fill-rule="evenodd" clip-rule="evenodd" d="M2.99999 5.99572C2.99999 3.78664 4.79186 2.00001 6.99998 2.00001H17C19.2081 2.00001 21 3.78664 21 5.99572L21.0002 18.2518C21.0002 18.2749 21.0002 18.2986 21.0002 18.3229C21.0008 18.7658 21.0016 19.4092 20.8239 19.9422C20.7206 20.2519 20.5352 20.6015 20.1922 20.868C19.8407 21.1413 19.4231 21.2504 19.0002 21.2504C18.4333 21.2504 17.8818 20.969 17.5039 20.7422C16.4261 20.0955 15.2698 20.0487 14.5187 20.6118L13.2002 21.6002C12.4891 22.1333 11.5113 22.1333 10.8002 21.6002L9.48168 20.6118C8.73052 20.0487 7.5742 20.0955 6.49643 20.7422C6.11854 20.969 5.56702 21.2504 5.00017 21.2504C4.57725 21.2504 4.15967 21.1413 3.80811 20.868C3.46519 20.6015 3.27977 20.2519 3.17649 19.9422C2.99872 19.4092 2.99955 18.7658 3.00011 18.3229C3.00014 18.2986 3.00017 18.2749 3.00017 18.2518L2.99999 5.99572ZM6.99998 3.99904C5.8944 3.99904 4.99999 4.89271 4.99999 5.99572L5.00017 18.2518C5.00017 18.5088 5.00058 18.7243 5.01358 18.9194C5.02286 19.0585 5.03723 19.1603 5.05319 19.2331C5.0658 19.2288 5.08029 19.2236 5.09672 19.2173C5.19319 19.1799 5.31753 19.118 5.46702 19.0283C6.94926 18.1389 9.04412 17.785 10.6817 19.0126L12.0002 20.001L13.3187 19.0126C14.9562 17.785 17.0511 18.1389 18.5333 19.0283C18.6828 19.118 18.8072 19.1799 18.9036 19.2173C18.9201 19.2236 18.9345 19.2288 18.9472 19.2331C18.9631 19.1603 18.9775 19.0585 18.9868 18.9194C18.9998 18.7243 19.0002 18.5088 19.0002 18.2518L19 5.99572C19 4.89271 18.1056 3.99904 17 3.99904H6.99998ZM7.99998 8.99661C7.99998 8.44459 8.4477 7.99709 8.99998 7.99709H15C15.5523 7.99709 16 8.44459 16 8.99661C16 9.54862 15.5523 9.99612 15 9.99612H8.99998C8.4477 9.99612 7.99998 9.54862 7.99998 8.99661ZM8.99998 12.9947C8.99998 12.4426 9.4477 11.9951 9.99998 11.9951H14C14.5523 11.9951 15 12.4426 15 12.9947C15 13.5467 14.5523 13.9942 14 13.9942H9.99998C9.4477 13.9942 8.99998 13.5467 8.99998 12.9947Z" fill="#343A3D"/>
</svg>
