<svg width="24" height="24" viewBox="0 0 24 24" fill="none" xmlns="http://www.w3.org/2000/svg">
<path d="M7 10.6531C6.31219 10.6531 5.70095 10.7842 5.35294 10.977C4.98746 11.1795 4.53316 11.0358 4.33824 10.6562C4.14331 10.2765 4.28157 9.80462 4.64705 9.60214C5.29905 9.24092 6.18781 9.09497 7 9.09497C7.81219 9.09497 8.70095 9.24092 9.35294 9.60214C9.71842 9.80462 9.85669 10.2765 9.66176 10.6562C9.46684 11.0358 9.01254 11.1795 8.64706 10.977C8.29905 10.7842 7.68781 10.6531 7 10.6531Z" fill="#323439"/>
<path d="M6.24217 14.9743C6.58194 14.8538 6.78986 14.8104 6.97891 14.8083C7.16678 14.8063 7.39138 14.8447 7.75837 14.9745C8.1505 15.1131 8.57656 14.8952 8.71001 14.4879C8.84346 14.0806 8.63376 13.638 8.24163 13.4994C7.78774 13.3389 7.38412 13.2456 6.96309 13.2502C6.54326 13.2548 6.16161 13.3565 5.75783 13.4996C5.36581 13.6385 5.15643 14.0812 5.29017 14.4885C5.42392 14.8957 5.85014 15.1132 6.24217 14.9743Z" fill="#323439"/>
<path d="M11.9951 19.1315C11.2638 19.8084 10.2292 20.1298 9.22277 19.942C7.65187 19.6488 6.32421 19.6544 4.76987 19.9464C2.92815 20.2925 1 18.929 1 16.8093V7.56907C1 6.23778 1.82203 5.00023 3.11407 4.62546C5.98915 3.79151 8.01085 3.79151 10.8859 4.62546C11.3128 4.74929 11.6884 4.9673 12 5.25177C12.3116 4.9673 12.6872 4.74929 13.1141 4.62546C15.9892 3.79151 18.0108 3.79151 20.8859 4.62546C22.178 5.00023 23 6.23778 23 7.56907V16.7997C23 18.9246 21.0642 20.2856 19.2228 19.942C17.6519 19.6488 16.3242 19.6544 14.7699 19.9464C13.7603 20.1361 12.7248 19.8121 11.9951 19.1315ZM3.65196 6.62647C3.28125 6.73399 3 7.10707 3 7.56907V16.8093C3 17.4611 3.63029 18.0493 4.41393 17.9021C6.19998 17.5665 7.76797 17.5597 9.57641 17.8972C10.3663 18.0446 11 17.452 11 16.7997V7.56907C11 7.10707 10.7187 6.73399 10.348 6.62647C7.82482 5.89458 6.17518 5.89458 3.65196 6.62647ZM13 16.8093C13 17.4611 13.6303 18.0493 14.4139 17.9021C16.2 17.5665 17.768 17.5597 19.5764 17.8972C20.3663 18.0446 21 17.452 21 16.7997V7.56907C21 7.10707 20.7187 6.73399 20.348 6.62647C17.8248 5.89458 16.1752 5.89458 13.652 6.62647C13.2813 6.73399 13 7.10707 13 7.56907V16.8093Z" fill="#323439"/>
</svg>
