<svg width="24" height="24" viewBox="0 0 24 24" fill="none" xmlns="http://www.w3.org/2000/svg">
<path fill-rule="evenodd" clip-rule="evenodd" d="M5 4.99625C5 3.3414 6.34315 1.99987 8 1.99987H16C17.6569 1.99987 19 3.3414 19 4.99625V19.9998C19 21.4759 17.4523 22.4422 16.1238 21.7955L11.9757 19.7762L7.88241 21.7863C6.55344 22.4389 5 21.4728 5 19.9936V4.99625ZM8 3.99746C7.44772 3.99746 7 4.44464 7 4.99625V19.9936L11.0933 17.9836C11.6476 17.7114 12.2967 17.7103 12.852 17.9806L17 19.9998V4.99625C17 4.44464 16.5523 3.99746 16 3.99746H8Z" fill="#343A3D"/>
</svg>
