<svg width="24" height="24" viewBox="0 0 24 24" fill="none" xmlns="http://www.w3.org/2000/svg">
<path d="M10 2C10.5523 2 11 2.44772 11 3V4C11 4.55228 10.5523 5 10 5C9.44772 5 9 4.55228 9 4V3C9 2.44772 9.44772 2 10 2Z" fill="#343A3D"/>
<path d="M13 2C13.5523 2 14 2.44772 14 3V4C14 4.55228 13.5523 5 13 5C12.4477 5 12 4.55228 12 4V3C12 2.44772 12.4477 2 13 2Z" fill="#343A3D"/>
<path d="M18 15V16H20.2857C21.2325 16 22 16.7675 22 17.7143C22 20.0812 20.0812 22 17.7143 22H6.28571C3.91878 22 2 20.0812 2 17.7143C2 16.7675 2.76751 16 3.71429 16H5V8C5 6.89543 5.89543 6 7 6H16C17.1046 6 18 6.89543 18 8H18.5C20.433 8 22 9.567 22 11.5C22 13.433 20.433 15 18.5 15H18ZM7 8V16H16V8H7ZM18 13H18.5C19.3284 13 20 12.3284 20 11.5C20 10.6716 19.3284 10 18.5 10H18V13ZM4.01768 18C4.15828 19.1275 5.12011 20 6.28571 20H17.7143C18.8799 20 19.8417 19.1275 19.9823 18H4.01768Z" fill="#343A3D"/>
</svg>
