<svg width="24" height="24" viewBox="0 0 24 24" fill="none" xmlns="http://www.w3.org/2000/svg">
<path fill-rule="evenodd" clip-rule="evenodd" d="M12.0005 3C12.5527 3.00013 13.0004 3.44796 13.0002 4.00024L13 5.00024C13 5.04804 12.9966 5.09505 12.9901 5.14105C13.8067 5.24258 14.6106 5.49401 15.289 5.92807C16.284 6.56475 17 7.59999 17 8.99991C17 9.55219 16.5523 9.99991 16 9.99991C15.4477 9.99991 15 9.55219 15 8.99991C15 8.37654 14.716 7.93582 14.211 7.61272C13.6697 7.26635 12.8789 7.07144 12.0207 7.08924C11.1643 7.10701 10.3575 7.33451 9.79715 7.70078C9.25748 8.05356 9 8.48685 9 8.99991C9 9.46804 9.20846 9.8015 9.76854 10.1411C10.3855 10.5153 11.2473 10.7781 12.2845 11.0859C12.3083 11.093 12.3323 11.1001 12.3564 11.1072C13.3034 11.388 14.4071 11.7153 15.2681 12.2368C16.2078 12.8061 17 13.6974 17 15.0861C17 16.4371 16.2488 17.4222 15.276 18.0238C14.6004 18.4417 13.798 18.6939 12.981 18.8041C12.9936 18.8674 13.0002 18.9329 13.0002 19V20.0002C13.0002 20.5525 12.5525 21.0002 12.0002 21.0002C11.4479 21.0002 11.0002 20.5525 11.0002 20.0002V19C11.0002 18.9331 11.0068 18.8678 11.0193 18.8046C10.2024 18.6949 9.40014 18.4432 8.72452 18.0259C7.7518 17.4252 7 16.4408 7 15.0904C7 14.5381 7.44772 14.0904 8 14.0904C8.55228 14.0904 9 14.5381 9 15.0904C9 15.5931 9.2482 15.9987 9.77548 16.3243C10.3294 16.6664 11.1348 16.8698 11.9997 16.8696C12.8646 16.8693 13.6701 16.6655 14.224 16.3229C14.7512 15.9968 15 15.5904 15 15.0861C15 14.6196 14.7922 14.2869 14.2319 13.9475C13.6148 13.5737 12.7529 13.3111 11.7155 13.0033C11.6925 12.9964 11.6694 12.9896 11.6461 12.9827C10.6984 12.7016 9.59339 12.374 8.73147 11.8513C7.79154 11.2813 7 10.3891 7 8.99991C7 7.65565 7.74252 6.65446 8.70285 6.02672C9.37985 5.58417 10.1884 5.30523 11.0152 5.17499C11.0052 5.11809 11 5.05954 11 4.99976L11.0002 3.99976C11.0004 3.44747 11.4482 2.99987 12.0005 3Z" fill="#343A3D"/>
</svg>
