<svg width="24" height="24" viewBox="0 0 24 24" fill="none" xmlns="http://www.w3.org/2000/svg">
<path fill-rule="evenodd" clip-rule="evenodd" d="M12 3C7.02944 3 3 7.02944 3 12C3 16.9706 7.02944 21 12 21C16.9706 21 21 16.9706 21 12C21 7.02944 16.9706 3 12 3ZM1 12C1 5.92487 5.92487 1 12 1C18.0751 1 23 5.92487 23 12C23 18.0751 18.0751 23 12 23C5.92487 23 1 18.0751 1 12ZM12 5.5C12.5523 5.5 13 5.94772 13 6.5V7.10509C13.5528 7.19216 14.0954 7.36445 14.5684 7.64192C15.3657 8.10953 16 8.91141 16 10.0373C16 10.5896 15.5523 11.0373 15 11.0373C14.4477 11.0373 14 10.5896 14 10.0373C14 9.77215 13.8843 9.55931 13.5566 9.36708C13.1965 9.15587 12.6434 9.02472 12.0217 9.03613C12.0201 9.03616 12.0185 9.03619 12.0169 9.03622C11.397 9.04833 10.8292 9.20015 10.4515 9.42647C10.0867 9.64507 10 9.85644 10 10.0373C10 10.1668 10.0263 10.3059 10.4122 10.514C10.8438 10.7468 11.4602 10.9107 12.2474 11.1117C12.2694 11.1173 12.2916 11.123 12.3139 11.1287C13.0144 11.3073 13.865 11.5243 14.5367 11.8861C15.2755 12.2841 16 12.9745 16 14.1218C16 15.2261 15.3262 15.9898 14.5557 16.4267C14.0876 16.6921 13.5497 16.8629 13 16.954V17.5C13 18.0523 12.5523 18.5 12 18.5C11.4477 18.5 11 18.0523 11 17.5V16.9545C10.4505 16.8636 9.91278 16.6931 9.44482 16.4282C8.67439 15.992 8 15.2289 8 14.1247C8 13.5724 8.44772 13.1247 9 13.1247C9.55228 13.1247 10 13.5724 10 14.1247C10 14.2946 10.0756 14.487 10.4302 14.6878C10.8033 14.899 11.3713 15.0356 11.9997 15.0354C12.6282 15.0352 13.1962 14.8984 13.5693 14.6868C13.9237 14.4859 14 14.293 14 14.1218C14 13.9936 13.9745 13.855 13.5883 13.6469C13.1564 13.4143 12.54 13.2506 11.7526 13.0495C11.7312 13.044 11.7096 13.0385 11.6878 13.033C10.9869 12.8542 10.1353 12.637 9.46285 12.2743C8.72371 11.8757 8 11.1847 8 10.0373C8 8.94123 8.66332 8.16639 9.42351 7.71089C9.89526 7.42821 10.4406 7.24025 11 7.13593V6.5C11 5.94772 11.4477 5.5 12 5.5Z" fill="#343A3D"/>
</svg>
