<svg width="24" height="24" viewBox="0 0 24 24" fill="none" xmlns="http://www.w3.org/2000/svg">
<path d="M2 4C0.895431 4 0 4.89543 0 6V16C0 17.1046 0.89543 18 2 18H3.17071C3.58254 19.1652 4.69378 20 6 20C7.30622 20 8.41746 19.1652 8.82929 18H15.1707C15.5825 19.1652 16.6938 20 18 20C19.3062 20 20.4175 19.1652 20.8293 18H22C23.1046 18 24 17.1046 24 16V9C24 6.23858 21.7614 4 19 4H2ZM8.82929 16C8.41746 14.8348 7.30622 14 6 14C4.69378 14 3.58254 14.8348 3.17071 16H2V12H9.48038C9.49413 12.0003 9.5079 12.0003 9.52167 12H15.4804C15.4941 12.0003 15.5079 12.0003 15.5217 12H18.2639L22 13.868V16H20.8293C20.4175 14.8348 19.3062 14 18 14C16.6938 14 15.5825 14.8348 15.1707 16H8.82929ZM16.0352 10L14.3322 7.44541C14.0258 6.98588 13.4049 6.8617 12.9454 7.16806C12.4859 7.47441 12.3617 8.09528 12.6681 8.55481L13.6315 10H10.0352L8.33216 7.44541C8.0258 6.98588 7.40493 6.8617 6.94541 7.16806C6.48588 7.47441 6.3617 8.09528 6.66806 8.55481L7.63152 10H2V6L19 6C20.6569 6 22 7.34315 22 9V11.632L18.9472 10.1056C18.8084 10.0361 18.6552 10 18.5 10H16.0352ZM18 18C17.4477 18 17 17.5523 17 17C17 16.4477 17.4477 16 18 16C18.5523 16 19 16.4477 19 17C19 17.5523 18.5523 18 18 18ZM7 17C7 17.5523 6.55228 18 6 18C5.44772 18 5 17.5523 5 17C5 16.4477 5.44772 16 6 16C6.55228 16 7 16.4477 7 17Z" fill="#343A3D"/>
</svg>
