<svg width="24px" height="24px" viewBox="0 0 24 24" version="1.1" xmlns="http://www.w3.org/2000/svg" xmlns:xlink="http://www.w3.org/1999/xlink">
    <g id="Utilidades" stroke="none" stroke-width="1" fill="none" fill-rule="evenodd">
        <g id="Icons" transform="translate(-636.000000, -3972.000000)" fill="#343A3D" fill-rule="nonzero">
            <g id="Group-15" transform="translate(636.000000, 3972.000000)">
                <path d="M10.7967653,10.0000223 L14.7345017,10.0000223 L14.0008882,8.42152163 C13.8845053,8.17110276 13.9931628,7.8737511 14.2435817,7.7573681 C14.4940005,7.64098511 14.7913522,7.74964265 14.9077352,8.00006152 L15.7506554,9.8137554 C15.7787375,9.8741791 15.7937175,9.93733528 15.7967653,10.0000223 L19,10.0000223 C19.1326083,10.0000223 19.2597852,10.0527008 19.3535534,10.1464689 L21.9999908,12.7929063 L21.9999908,8.5 C21.9999908,7.11928813 20.8807026,6 19.4999908,6 L2.49296441,6 C2.21682204,6 1.99296441,5.77614237 1.99296441,5.5 C1.99296441,5.22385763 2.21682204,5 2.49296441,5 L19.4999908,5 C21.4329874,5 22.9999908,6.56700338 22.9999908,8.5 L22.9999908,14.6738487 C22.9999908,15.0301323 22.8731728,15.3747831 22.6422429,15.6460936 L21.6769118,16.780223 C21.5870023,16.912861 21.4350505,17.0000223 21.262741,17.0000223 L18.949991,17.0000223 C18.7183558,18.1411425 17.709479,19.0000223 16.5,19.0000223 C15.2905211,19.0000223 14.2816442,18.1411425 14.0500091,17.0000223 L7.94999096,17.0000223 C7.71835579,18.1411425 6.70947897,19.0000223 5.50000002,19.0000223 C4.29052106,19.0000223 3.28164424,18.1411425 3.05000907,17.0000223 L1.50000002,17.0000223 C1.22351117,17.0000223 0.999510291,16.7756237 1.0000008,16.4991353 L1.00886759,11.5011779 C1.00935748,11.225036 1.2336119,11.0015758 1.50975384,11.0020657 C1.78589578,11.0025556 2.00935591,11.22681 2.00886601,11.502952 L2.00088784,16.0000223 L3.05000907,16.0000223 C3.28164424,14.8589022 4.29052106,14.0000223 5.50000002,14.0000223 C6.70947897,14.0000223 7.71835579,14.8589022 7.94999096,16.0000223 L14.0500091,16.0000223 C14.2816442,14.8589022 15.2905211,14.0000223 16.5,14.0000223 C17.709479,14.0000223 18.7183558,14.8589022 18.949991,16.0000223 L21.027796,16.0000223 L21.8807415,14.9979303 C21.9577181,14.9074935 21.9999908,14.7926099 21.9999908,14.6738487 L21.9999908,14.0000223 C21.8720327,14.00002 21.7440753,13.9512044 21.6464466,13.8535757 L18.7928932,11.0000223 L4.46742423,11.0000223 C4.19128186,11.0000223 3.96742423,10.7761647 3.96742423,10.5000223 C3.96742423,10.22388 4.19128186,10.0000223 4.46742423,10.0000223 L9.73450166,10.0000223 L9.00088825,8.42152163 C8.88450525,8.17110276 8.9931628,7.8737511 9.24358166,7.7573681 C9.49400053,7.64098511 9.7913522,7.74964265 9.90773519,8.00006152 L10.7506554,9.8137554 C10.7787375,9.8741791 10.7937175,9.93733528 10.7967653,10.0000223 Z M16.5,18.0000223 C17.3284271,18.0000223 18,17.3284495 18,16.5000223 C18,15.6715952 17.3284271,15.0000223 16.5,15.0000223 C15.6715729,15.0000223 15,15.6715952 15,16.5000223 C15,17.3284495 15.6715729,18.0000223 16.5,18.0000223 Z M5.50000002,18.0000223 C6.32842714,18.0000223 7.00000002,17.3284495 7.00000002,16.5000223 C7.00000002,15.6715952 6.32842714,15.0000223 5.50000002,15.0000223 C4.67157289,15.0000223 4.00000002,15.6715952 4.00000002,16.5000223 C4.00000002,17.3284495 4.67157289,18.0000223 5.50000002,18.0000223 Z" id="Shape"></path>
            </g>
        </g>
    </g>
</svg>