<svg width="24" height="24" viewBox="0 0 24 24" fill="none" xmlns="http://www.w3.org/2000/svg">
<path d="M10 4H14C14.5523 4 15 4.44772 15 5V6H9V5C9 4.44772 9.44772 4 10 4ZM17 6V5C17 3.34315 15.6569 2 14 2H10C8.34315 2 7 3.34315 7 5V6H5C3.34315 6 2 7.34315 2 9V18C2 19.6569 3.34315 21 5 21H19C20.6569 21 22 19.6569 22 18V9C22 7.34315 20.6569 6 19 6H17ZM5 8H19C19.5523 8 20 8.44772 20 9V9.46482L15.453 12.4962C14.9602 12.8247 14.3812 13 13.7889 13H10.2111C9.61883 13 9.0398 12.8247 8.547 12.4962L4 9.46482V9C4 8.44772 4.44772 8 5 8ZM20 11.8685V18C20 18.5523 19.5523 19 19 19H5C4.44772 19 4 18.5523 4 18V11.8685L7.4376 14.1603C8.25894 14.7078 9.22398 15 10.2111 15H13.7889C14.776 15 15.7411 14.7078 16.5624 14.1603L20 11.8685Z" fill="#343A3D"/>
</svg>
