<svg width="24" height="24" viewBox="0 0 24 24" fill="none" xmlns="http://www.w3.org/2000/svg">
<path fill-rule="evenodd" clip-rule="evenodd" d="M8.99976 1.97803C8.98808 1.43589 8.54494 1 8 1C7.45506 1 7.01192 1.43589 7.00024 1.97803H4.99994C2.7908 1.97803 0.999939 3.76889 0.999939 5.97803V18.978C0.999939 21.1872 2.7908 22.978 4.99994 22.978H12.5C13.0523 22.978 13.5 22.5303 13.5 21.978C13.5 21.4257 13.0523 20.978 12.5 20.978H4.99994C3.89537 20.978 2.99994 20.0826 2.99994 18.978V10L20.9999 10V10.5C20.9999 11.0523 21.4477 11.5 21.9999 11.5C22.5522 11.5 22.9999 11.0523 22.9999 10.5V9.01117L23 9L22.9999 8.98884V5.97803C22.9999 3.76889 21.2091 1.97803 18.9999 1.97803H16.9998C16.9881 1.43589 16.5449 1 16 1C15.4551 1 15.0119 1.43589 15.0002 1.97803H8.99976ZM7 3.97803V5C7 5.55228 7.44772 6 8 6C8.55228 6 9 5.55228 9 5V3.97803H15V5C15 5.55228 15.4477 6 16 6C16.5523 6 17 5.55228 17 5V3.97803H18.9999C20.1045 3.97803 20.9999 4.87346 20.9999 5.97803V8L3 8L2.99994 5.97803C2.99994 4.87346 3.89537 3.97803 4.99994 3.97803H7Z" fill="#323439"/>
<path fill-rule="evenodd" clip-rule="evenodd" d="M20.3894 15.75L19.6697 16.4697C19.3768 16.7626 19.3768 17.2374 19.6697 17.5303C19.9626 17.8232 20.4374 17.8232 20.7303 17.5303L22.7303 15.5303C23.0232 15.2374 23.0232 14.7626 22.7303 14.4697L20.7303 12.4697C20.4375 12.1768 19.9626 12.1768 19.6697 12.4697C19.3768 12.7626 19.3768 13.2374 19.6697 13.5303L20.3894 14.25H17.0001C16.5858 14.25 16.2501 14.5858 16.2501 15C16.2501 15.4142 16.5858 15.75 17.0001 15.75H20.3894Z" fill="#323439"/>
<path fill-rule="evenodd" clip-rule="evenodd" d="M16.8107 19.25L17.5303 18.5303C17.8232 18.2374 17.8232 17.7626 17.5303 17.4697C17.2374 17.1768 16.7626 17.1768 16.4697 17.4697L14.4697 19.4697C14.1768 19.7626 14.1768 20.2374 14.4697 20.5303L16.4697 22.5303C16.7626 22.8232 17.2374 22.8232 17.5303 22.5303C17.8232 22.2374 17.8232 21.7626 17.5303 21.4697L16.8107 20.75H20C20.4142 20.75 20.75 20.4142 20.75 20C20.75 19.5858 20.4142 19.25 20 19.25H16.8107Z" fill="#323439"/>
</svg>
