<svg width="24" height="24" viewBox="0 0 24 24" fill="none" xmlns="http://www.w3.org/2000/svg">
<path d="M5.21837 8.5C6.02096 5.01881 8.75848 3 12 3C15.2416 3 17.9791 5.01881 18.7817 8.5H18C16.8954 8.5 16 9.39543 16 10.5V15.5C16 16.6046 16.8954 17.5 18 17.5H18.9585C18.7205 18.9189 17.4865 20 16 20H15.4146C15.2087 19.4174 14.6531 19 14 19H11C10.1716 19 9.5 19.6716 9.5 20.5C9.5 21.3284 10.1716 22 11 22H16C18.7614 22 21 19.7614 21 17C21 16.9884 20.9998 16.9768 20.9994 16.9652C22.1953 16.2737 23 14.9808 23 13.5V12.5C23 10.9796 22.1518 9.65738 20.9027 8.98066C20.2076 4.07237 16.4926 1 12 1C7.50742 1 3.79247 4.07236 3.09731 8.98064C1.84825 9.65735 1 10.9796 1 12.5V13.5C1 15.7091 2.79086 17.5 5 17.5H6C7.10457 17.5 8 16.6046 8 15.5V10.5C8 9.39543 7.10457 8.5 6 8.5H5.21837ZM5 10.5H6V15.5H5C3.89543 15.5 3 14.6046 3 13.5V12.5C3 11.3954 3.89543 10.5 5 10.5ZM19 10.5C20.1046 10.5 21 11.3954 21 12.5V13.5C21 14.6046 20.1046 15.5 19 15.5H18V10.5H19Z" fill="#343A3D"/>
</svg>
