<svg width="24" height="24" viewBox="0 0 24 24" fill="none" xmlns="http://www.w3.org/2000/svg">
<path fill-rule="evenodd" clip-rule="evenodd" d="M9.44152 4C9.01109 4 8.62895 4.27543 8.49284 4.68377L8.40453 4.94868C7.99619 6.17371 6.84977 7 5.55848 7H4C3.44772 7 3 7.44772 3 8V19C3 19.5523 3.44772 20 4 20H20C20.5523 20 21 19.5523 21 19V8C21 7.44771 20.5523 7 20 7H18.4415C17.1502 7 16.0038 6.17371 15.5955 4.94869L15.5072 4.68377C15.3711 4.27543 14.9889 4 14.5585 4H9.44152ZM6.59547 4.05132C7.00381 2.82629 8.15023 2 9.44152 2H14.5585C15.8498 2 16.9962 2.82629 17.4045 4.05132L17.4928 4.31623C17.629 4.72457 18.0111 5 18.4415 5H20C21.6569 5 23 6.34315 23 8V19C23 20.6569 21.6569 22 20 22H4C2.34315 22 1 20.6569 1 19V8C1 6.34315 2.34315 5 4 5H5.55848C5.98891 5 6.37105 4.72457 6.50716 4.31623L6.59547 4.05132ZM12 10C10.3431 10 9 11.3431 9 13C9 14.6569 10.3431 16 12 16C13.6569 16 15 14.6569 15 13C15 11.3431 13.6569 10 12 10ZM7 13C7 10.2386 9.23858 8 12 8C14.7614 8 17 10.2386 17 13C17 15.7614 14.7614 18 12 18C9.23858 18 7 15.7614 7 13Z" fill="#343A3D"/>
</svg>
