<svg width="24" height="24" viewBox="0 0 24 24" fill="none" xmlns="http://www.w3.org/2000/svg">
<path fill-rule="evenodd" clip-rule="evenodd" d="M12.8347 3.01376C13.1499 2.96094 13.4714 3.06198 13.6998 3.28565C15.3927 4.94397 18 7.56404 18 11.0853C18 12.6596 17.3636 14.1659 16.2365 15.2737C15.11 16.381 13.5858 17 12 17C10.4142 17 8.88995 16.381 7.76346 15.2737C6.63639 14.1659 5.99999 12.6596 5.99999 11.0853C5.99999 9.32748 6.89063 7.56373 7.83793 6.16098C8.12701 5.73292 8.69452 5.59546 9.14744 5.84379L10.5701 6.62382L12.1056 3.5528C12.2485 3.26692 12.5195 3.06659 12.8347 3.01376ZM13.2702 5.69564L11.8944 8.44723C11.7729 8.69032 11.5576 8.87347 11.2982 8.95452C11.0388 9.03556 10.7575 9.00752 10.5192 8.87685L9.01122 8.05001C8.39493 9.11044 7.99999 10.1642 7.99999 11.0853C7.99999 12.118 8.41716 13.1118 9.16545 13.8474C9.91433 14.5835 10.9336 15 12 15C13.0664 15 14.0857 14.5835 14.8345 13.8474C15.5828 13.1118 16 12.118 16 11.0853C16 8.98615 14.7149 7.22422 13.2702 5.69564ZM5.02985 17.7575C5.1638 17.2217 5.70673 16.8959 6.24253 17.0299L12 18.4692L17.7575 17.0299C18.2933 16.8959 18.8362 17.2217 18.9701 17.7575C19.1041 18.2933 18.7783 18.8362 18.2425 18.9702L16.1231 19.5L18.2425 20.0299C18.7783 20.1638 19.1041 20.7068 18.9701 21.2426C18.8362 21.7784 18.2933 22.1041 17.7575 21.9702L12 20.5308L6.24253 21.9702C5.70673 22.1041 5.1638 21.7784 5.02985 21.2426C4.8959 20.7068 5.22166 20.1638 5.75746 20.0299L7.8769 19.5L5.75746 18.9702C5.22166 18.8362 4.8959 18.2933 5.02985 17.7575Z" fill="#343A3D"/>
</svg>
