<svg width="24" height="24" viewBox="0 0 24 24" fill="none" xmlns="http://www.w3.org/2000/svg">
<path d="M5 22H20V21.9646C20.0691 21.9547 20.1376 21.9428 20.2054 21.9289C21.8003 21.6025 23 20.1914 23 18.5V5.5C23 3.567 21.433 2 19.5 2C18.1038 2 16.8985 2.81753 16.3368 4H5C3.89543 4 3 4.89543 3 6V6.5H1.75C1.33579 6.5 1 6.83579 1 7.25C1 7.66421 1.33579 8 1.75 8H3V9.5H1.75C1.33579 9.5 1 9.83579 1 10.25C1 10.6642 1.33579 11 1.75 11H3V12.5H1.75C1.33579 12.5 1 12.8358 1 13.25C1 13.6642 1.33579 14 1.75 14H3V15.5H1.75C1.33579 15.5 1 15.8358 1 16.25C1 16.6642 1.33579 17 1.75 17H3V18.5H1.75C1.33579 18.5 1 18.8358 1 19.25C1 19.6642 1.33579 20 1.75 20H3C3 21.1046 3.89543 22 5 22ZM5 6H16V8H9.63636C9.08408 8 8.63636 8.44772 8.63636 9V9.6L8 9.6C7.44772 9.6 7 10.0477 7 10.6V15.4C7 15.9523 7.44772 16.4 8 16.4H8.63636L8.63636 17C8.63636 17.5523 9.08408 18 9.63636 18H16V18.5C16 19.0368 16.1208 19.5454 16.3368 20H5V6ZM10.5964 10H16V16H10.5964C10.4348 15.2043 9.80087 14.5801 9 14.433V11.567C9.80087 11.4199 10.4348 10.7957 10.5964 10ZM19.5 20C18.6716 20 18 19.3284 18 18.5C18 17.6716 18.6716 17 19.5 17C20.3284 17 21 17.6716 21 18.5C21 19.3284 20.3284 20 19.5 20ZM19.5 15C18.9632 15 18.4546 15.1208 18 15.3368V5.5C18 4.67157 18.6716 4 19.5 4C20.3284 4 21 4.67157 21 5.5V15.3368C20.5454 15.1208 20.0368 15 19.5 15Z" fill="#343A3D"/>
</svg>
