<svg width="24" height="24" viewBox="0 0 24 24" fill="none" xmlns="http://www.w3.org/2000/svg">
<path d="M8.37472 6.53153C8.63348 6.73853 8.67543 7.11611 8.46843 7.37486L6.46843 9.87486C6.36181 10.0081 6.20349 10.0897 6.03309 10.0991C5.86268 10.1086 5.69632 10.045 5.57564 9.92431L4.57564 8.92431C4.34133 8.69 4.34133 8.3101 4.57564 8.07578C4.80996 7.84147 5.18986 7.84147 5.42417 8.07578L5.95015 8.60177L7.53138 6.62523C7.73839 6.36647 8.11597 6.32452 8.37472 6.53153Z" fill="#343A3D"/>
<path d="M6.91603 2.87596C6.6641 2.70801 6.3359 2.70801 6.08398 2.87596C5.34404 3.36926 4.78017 3.70246 4.18039 3.92133C3.59131 4.1363 2.93053 4.25378 1.99735 4.25708C1.79022 4.25782 1.59263 4.34417 1.45139 4.49568C1.31016 4.64718 1.23788 4.85035 1.25167 5.05702C1.42917 7.7171 2.03649 9.63031 2.78513 11H2.51337C1.07915 11 0.111111 12.4651 0.673609 13.7844L2.37904 17.7844C2.69335 18.5216 3.41738 19 4.2188 19H4.67071C5.08254 20.1652 6.19378 21 7.5 21C8.80622 21 9.91746 20.1652 10.3293 19H13.6707C14.0825 20.1652 15.1938 21 16.5 21C17.8062 21 18.9175 20.1652 19.3293 19H19.9803C20.5659 19 21.1221 18.7433 21.5021 18.2977L23.1546 16.3598C23.8371 15.5594 23.7829 14.367 23.0306 13.6318L20.9205 11.5696C20.5469 11.2045 20.0451 11 19.5227 11H17.9538L15.0514 7.68299C14.6716 7.24896 14.123 7 13.5462 7H11.5251C11.6256 6.40129 11.7018 5.75485 11.7483 5.05702C11.7621 4.85035 11.6898 4.64718 11.5486 4.49568C11.4074 4.34417 11.2098 4.25782 11.0027 4.25708C10.0695 4.25378 9.40869 4.1363 8.81961 3.92133C8.21983 3.70246 7.65597 3.36926 6.91603 2.87596ZM11.0531 9H13.5462L15.2962 11H10.2149C10.5255 10.4317 10.8117 9.76991 11.0531 9ZM8.69563 13H19.5227L21.6327 15.0621L19.9803 17H19.3293C18.9175 15.8348 17.8062 15 16.5 15C15.1938 15 14.0825 15.8348 13.6707 17H10.3293C9.91746 15.8348 8.80622 15 7.5 15C6.19378 15 5.08254 15.8348 4.67071 17H4.2188L2.51337 13H4.30438C4.74552 13.4142 5.16419 13.6957 5.50538 13.8836C5.72977 14.0072 5.92003 14.09 6.06049 14.1434C6.13073 14.1701 6.18859 14.1895 6.23214 14.2031C6.25391 14.2099 6.27212 14.2152 6.28652 14.2192L6.30525 14.2243L6.31242 14.2262L6.31545 14.2269L6.31682 14.2273L6.5 14.25L6.68318 14.2273L6.69475 14.2243L6.71348 14.2192C6.72788 14.2152 6.74609 14.2099 6.76787 14.2031C6.81141 14.1895 6.86927 14.1701 6.93952 14.1434C7.07998 14.09 7.27023 14.0072 7.49462 13.8836C7.83581 13.6957 8.25448 13.4142 8.69563 13ZM6.5 12.7032C6.42691 12.6717 6.33521 12.6282 6.229 12.5697C5.91299 12.3957 5.46591 12.0876 4.99625 11.5631C4.1329 10.5989 3.14624 8.84944 2.81444 5.7252C3.51532 5.66958 4.11925 5.5404 4.69461 5.33044C5.32615 5.09997 5.89857 4.78064 6.5 4.39623C7.10143 4.78064 7.67385 5.09997 8.30539 5.33044C8.88076 5.5404 9.48468 5.66958 10.1856 5.7252C9.85377 8.84944 8.8671 10.5989 8.00376 11.5631C7.53409 12.0876 7.08701 12.3957 6.77101 12.5697C6.6648 12.6282 6.57309 12.6717 6.5 12.7032ZM7.5 17C8.05228 17 8.5 17.4477 8.5 18C8.5 18.5523 8.05228 19 7.5 19C6.94772 19 6.5 18.5523 6.5 18C6.5 17.4477 6.94772 17 7.5 17ZM15.5 18C15.5 17.4477 15.9477 17 16.5 17C17.0523 17 17.5 17.4477 17.5 18C17.5 18.5523 17.0523 19 16.5 19C15.9477 19 15.5 18.5523 15.5 18Z" fill="#343A3D"/>
</svg>
