<svg width="24" height="24" viewBox="0 0 24 24" fill="none" xmlns="http://www.w3.org/2000/svg">
<path d="M7.22565 6C6.56951 6 5.95966 6.35524 5.61191 6.94L3.79218 10H2.90503C1.54037 10 0.619288 11.4651 1.1545 12.7844L2.77721 16.7844C3.07627 17.5216 3.76519 18 4.52773 18H4.95772C5.34958 19.1652 6.40692 20 7.64978 20C8.89264 20 9.94997 19.1652 10.3418 18H13.5212C13.913 19.1652 14.9704 20 16.2132 20C17.4561 20 18.5134 19.1652 18.9053 18H19.5247C20.0819 18 20.6112 17.7433 20.9727 17.2977L22.545 15.3598C23.1945 14.5594 23.1429 13.367 22.4271 12.6318L20.4193 10.5696C20.0638 10.2045 19.5864 10 19.0893 10H17.5965L14.8349 6.68299C14.4735 6.24896 13.9515 6 13.4027 6H7.22565ZM18.9053 16C18.5134 14.8348 17.4561 14 16.2132 14C14.9704 14 13.913 14.8348 13.5212 16H10.3418C9.94997 14.8348 8.89264 14 7.64978 14C6.40692 14 5.34958 14.8348 4.95772 16H4.52773L2.90503 12L19.0893 12L21.097 14.0621L19.5247 16H18.9053ZM15.0678 10H6.03628L7.22565 8L13.4027 8L15.0678 10ZM7.64978 16C8.17527 16 8.60127 16.4477 8.60127 17C8.60127 17.5523 8.17527 18 7.64978 18C7.12428 18 6.69828 17.5523 6.69828 17C6.69828 16.4477 7.12428 16 7.64978 16ZM15.2617 17C15.2617 16.4477 15.6877 16 16.2132 16C16.7387 16 17.1647 16.4477 17.1647 17C17.1647 17.5523 16.7387 18 16.2132 18C15.6877 18 15.2617 17.5523 15.2617 17Z" fill="#343A3D"/>
</svg>
