<svg width="24px" height="24px" viewBox="0 0 24 24" version="1.1" xmlns="http://www.w3.org/2000/svg" xmlns:xlink="http://www.w3.org/1999/xlink">
    <g id="Utilidades" stroke="none" stroke-width="1" fill="none" fill-rule="evenodd">
        <g id="Icons" transform="translate(-476.000000, -3972.000000)" fill="#343A3D" fill-rule="nonzero">
            <g id="Group-14" transform="translate(476.000000, 3972.000000)">
                <path d="M20.2216972,16 L21.8445863,14.2367027 C22.033859,14.0409187 22.0316528,13.7296725 21.8372031,13.5341406 L20.1877042,11.8525755 C19.998041,11.661873 19.7145991,11.378314 19.3375217,11.0020426 L17.3862158,11.0020426 C17.3710652,11.0020426 17.3559938,11.0013555 17.3410419,11 L8.48340304,11 C8.20726067,11 7.98340304,10.7761424 7.98340304,10.5 C7.98340304,10.2238576 8.20726067,10 8.48340304,10 L16.3044027,10 L13.9083227,7.17648238 C13.8133218,7.06453425 13.6739176,7 13.5270927,7 L5.47409209,7 C5.19794972,7 4.97409209,6.77614237 4.97409209,6.5 C4.97409209,6.22385763 5.19794972,6 5.47409209,6 L13.5270927,6 C13.9675674,6 14.3857802,6.19360276 14.6707828,6.52944714 L17.6159468,10 L17.983403,10 C17.9987415,10 18.0139187,10.0006907 18.0289052,10.0020426 L19.483403,10.0020426 C19.4873837,10.0020426 19.4913536,10.0020891 19.495312,10.0021817 C19.6381999,9.9887953 19.7857631,10.0367084 19.8953157,10.1459766 C20.3480587,10.597544 20.6817986,10.9312839 20.8991607,11.1498538 L22.5486597,12.831419 C23.124747,13.4106626 23.1313655,14.3444011 22.5719837,14.9228089 L20.8089755,16.8385704 C20.6890806,16.9688533 20.5160234,17.0210019 20.3537057,16.9923627 C20.3252822,16.9973819 20.2960303,17 20.2661668,17 L18.933394,17 C18.7017588,18.1411202 17.692882,19 16.483403,19 C15.2739241,19 14.2650473,18.1411202 14.0334121,17 L9.93339399,17 C9.70175882,18.1411202 8.692882,19 7.48340304,19 C6.27392409,19 5.26504727,18.1411202 5.0334121,17 L3.8089268,17 C3.27967162,17 2.79279972,16.7105353 2.51800386,16.1732931 L1.15701999,12.0941351 C1.0538964,11.8976696 1,11.6797712 1,11.4585221 C1,10.6854763 1.63008804,10 2.40855674,10 L2.95087092,10 L3.24410137,9.39054639 C3.36382658,9.14170811 3.66260631,9.03704129 3.91144459,9.15676649 C4.16028286,9.2764917 4.26494968,9.57527143 4.14522448,9.82410971 L3.71572731,10.7167817 C3.63242785,10.8899122 3.45729331,11 3.26516576,11 L2.40855674,11 C2.20206405,11 2,11.2198266 2,11.4585221 C2,11.5175864 2.01445553,11.5760288 2.07380067,11.7028058 L3.43478455,15.7819638 C3.50416783,15.9141492 3.64856668,16 3.8089268,16 L5.0334121,16 C5.26504727,14.8588798 6.27392409,14 7.48340304,14 C8.692882,14 9.70175882,14.8588798 9.93339399,16 L14.0334121,16 C14.2650473,14.8588798 15.2739241,14 16.483403,14 C17.692882,14 18.7017588,14.8588798 18.933394,16 L20.2216972,16 Z M16.483403,18 C17.3118302,18 17.983403,17.3284271 17.983403,16.5 C17.983403,15.6715729 17.3118302,15 16.483403,15 C15.6549759,15 14.983403,15.6715729 14.983403,16.5 C14.983403,17.3284271 15.6549759,18 16.483403,18 Z M7.48340304,18 C8.31183017,18 8.98340304,17.3284271 8.98340304,16.5 C8.98340304,15.6715729 8.31183017,15 7.48340304,15 C6.65497592,15 5.98340304,15.6715729 5.98340304,16.5 C5.98340304,17.3284271 6.65497592,18 7.48340304,18 Z" id="Shape"></path>
            </g>
        </g>
    </g>
</svg>