<svg width="24px" height="24px" viewBox="0 0 24 24" version="1.1" xmlns="http://www.w3.org/2000/svg" xmlns:xlink="http://www.w3.org/1999/xlink">
    <g id="Artboard" stroke="none" stroke-width="1" fill="none" fill-rule="evenodd">
        <g id="Group-5" fill="#343A3D" fill-rule="nonzero">
            <g id="Group-3">
                <path d="M6.65045538,4.08804499 C7.82403424,4.79856816 9.13230416,5.36758455 10.4309303,5.73246087 C10.6638268,5.79783045 10.8320311,5.99298702 10.8704432,6.22541252 L10.8787692,6.32703549 L10.878,7.407 L13.6489116,7.40799995 C14.0936696,7.40799995 14.5159493,7.60458121 14.8037235,7.94559243 L17.7775275,11.4695384 L18.1485571,11.4695384 L18.1945017,11.4716124 L18.1945017,11.4716124 L19.6751685,11.4717536 C19.8194458,11.4581613 19.968444,11.5068116 20.079062,11.6177608 C20.5362077,12.0762754 20.873193,12.4151498 21.0926689,12.6370822 L22.7582082,14.3445177 C23.3398977,14.9326728 23.3465806,15.8807765 22.7817591,16.4680829 L21.0016066,18.4133175 C20.8805458,18.5456048 20.7058057,18.5985557 20.5419096,18.5694759 C20.5132097,18.5745723 20.4836733,18.5772307 20.4535194,18.5772307 L19.1077861,18.5772307 C18.8738984,19.7359066 17.8552109,20.6079999 16.6339704,20.6079999 C15.4127299,20.6079999 14.3940424,19.7359066 14.1601547,18.5772307 L10.0202662,18.5772307 C9.78637851,19.7359066 8.76769094,20.6079999 7.54645048,20.6079999 C6.32521003,20.6079999 5.30652245,19.7359066 5.07263476,18.5772307 L3.83624203,18.5772307 C3.30184014,18.5772307 2.81023368,18.2833127 2.53276559,17.7378052 L1.15854692,13.595891 C1.05442051,13.3964029 1,13.1751523 1,12.9504993 C1,12.1655605 1.63621529,11.4695384 2.42225416,11.4695384 L2.45871236,11.470096 C2.03310107,10.5979104 1.792,9.59715015 1.792,8.46456429 C1.792,8.23923211 1.97466782,8.05656429 2.2,8.05656429 C2.42533218,8.05656429 2.608,8.23923211 2.608,8.46456429 C2.608,10.230333 3.26378787,11.6182535 4.31020815,12.669591 C5.03274425,13.3955838 6.00706952,13.9449999 6.33544144,13.9449999 C6.66377945,13.9449999 7.63810973,13.3955748 8.36064909,12.6695787 C9.34545119,11.6801494 9.98426856,10.3924889 10.0560159,8.7722624 L10.0627692,8.46456429 L10.062,6.47399995 L9.75362686,6.38193946 C8.68843152,6.04624612 7.62930848,5.58560374 6.64493835,5.02994868 L6.335,4.84899995 L6.01803202,5.03511946 C5.02311266,5.59888538 4.00367614,6.04224926 2.92591833,6.37984804 L2.608,6.47399995 L2.608,6.77173946 C2.608,6.96890512 2.46814495,7.13340587 2.28222623,7.17145035 L2.2,7.17973946 C2.00283434,7.17973946 1.83833359,7.03988441 1.80028911,6.85396569 L1.792,6.77173946 L1.792,6.32705492 C1.792,6.05140289 1.97366347,5.80717121 2.23973842,5.7324891 C3.57640893,5.35694238 4.81214973,4.81949255 6.0203824,4.0880723 C6.21427828,3.97064712 6.45654721,3.97064712 6.65045538,4.08804499 Z M16.6339704,16.5464615 C15.7974873,16.5464615 15.1193837,17.2283663 15.1193837,18.0695384 C15.1193837,18.9107106 15.7974873,19.5926153 16.6339704,19.5926153 C17.4704535,19.5926153 18.1485571,18.9107106 18.1485571,18.0695384 C18.1485571,17.2283663 17.4704535,16.5464615 16.6339704,16.5464615 Z M7.54645048,16.5464615 C6.70996737,16.5464615 6.03186383,17.2283663 6.03186383,18.0695384 C6.03186383,18.9107106 6.70996737,19.5926153 7.54645048,19.5926153 C8.38293359,19.5926153 9.06103713,18.9107106 9.06103713,18.0695384 C9.06103713,17.2283663 8.38293359,16.5464615 7.54645048,16.5464615 Z M3.07653474,12.4852533 L2.42225416,12.484923 C2.21375344,12.484923 2.00972444,12.7081316 2.00972444,12.9504993 C2.00972444,13.0104723 2.02432053,13.0698138 2.08424278,13.1985413 L3.45846145,17.3404555 C3.52851945,17.4746745 3.67432249,17.5618461 3.83624203,17.5618461 L5.07263476,17.5618461 C5.30652245,16.4031702 6.32521003,15.5310769 7.54645048,15.5310769 C8.76769094,15.5310769 9.78637851,16.4031702 10.0202662,17.5618461 L14.1601547,17.5618461 C14.3940424,16.4031702 15.4127299,15.5310769 16.6339704,15.5310769 C17.8552109,15.5310769 18.8738984,16.4031702 19.1077861,17.5618461 L20.4086173,17.5618461 L22.0472881,15.7714211 C22.2384014,15.5726251 22.2361738,15.2565905 22.0398332,15.0580504 L20.3742938,13.350615 C20.1827862,13.1569787 19.896588,12.8690572 19.5158437,12.4869971 L17.5455625,12.4869971 C17.5302646,12.4869971 17.5150466,12.4862993 17.4999493,12.484923 L9.59428835,12.4852702 C9.39488186,12.7542024 9.17564141,13.0074696 8.93901126,13.2452116 C8.07812281,14.1102186 6.92405125,14.7609999 6.33544144,14.7609999 C5.74679972,14.7609999 4.59273121,14.1102277 3.73184591,13.2452238 C3.49520276,13.0074687 3.275951,12.7541919 3.07653474,12.4852533 Z M13.6489116,8.42338457 L10.878,8.423 L10.8787692,8.46456429 C10.8787692,9.59803933 10.6373032,10.5994853 10.2110968,11.4721437 L16.4532294,11.4695384 L14.0338489,8.60258206 C13.9379242,8.48891165 13.7971643,8.42338457 13.6489116,8.42338457 Z M8.25553495,7.50320363 C8.40886813,7.62715214 8.44887813,7.83932927 8.36158673,8.00783257 L8.31634141,8.0769898 L5.79425623,11.1969898 C5.65990038,11.3631976 5.42496648,11.3942218 5.25398878,11.2823326 L5.185108,11.2256078 L4.1897396,10.2066944 C4.03227891,10.045509 4.03529834,9.78719536 4.1964837,9.62973466 C4.33752089,9.49195655 4.55292194,9.47704604 4.71005486,9.58345279 L4.77344342,9.63647876 L5.448,10.3269999 L7.68174877,7.5640101 C7.82340421,7.38877218 8.08029703,7.3615482 8.25553495,7.50320363 Z" id="Combined-Shape"></path>
            </g>
        </g>
    </g>
</svg>