<svg width="24" height="24" viewBox="0 0 24 24" fill="none" xmlns="http://www.w3.org/2000/svg">
<path fill-rule="evenodd" clip-rule="evenodd" d="M6.25 2.75C6.25 1.7835 7.0335 1 8 1H18.25C19.2165 1 20 1.7835 20 2.75V19.0001C20 19.9665 19.2165 20.7501 18.25 20.7501H16C15.5858 20.7501 15.25 20.4143 15.25 20.0001C15.25 19.5858 15.5858 19.2501 16 19.2501H18.25C18.3881 19.2501 18.5 19.1381 18.5 19.0001V2.75C18.5 2.61193 18.3881 2.5 18.25 2.5H8C7.86193 2.5 7.75 2.61193 7.75 2.75V5.00005C7.75 5.41426 7.41421 5.75005 7 5.75005C6.58579 5.75005 6.25 5.41426 6.25 5.00005V2.75Z" fill="#343A3D"/>
<path fill-rule="evenodd" clip-rule="evenodd" d="M3 6.00005C3 4.89548 3.89543 4.00005 5 4.00005H15C16.1046 4.00005 17 4.89548 17 6.00005V21.0001C17 22.1046 16.1046 23.0001 15 23.0001H5C3.89543 23.0001 3 22.1046 3 21.0001V6.00005ZM15 6.00005H5V21.0001H15V6.00005Z" fill="#343A3D"/>
<path d="M6 8.00005L7 7.00005L8 8.00005L7 9.00005L6 8.00005Z" fill="#343A3D"/>
<path d="M12 19.0001L13 18.0001L14 19.0001L13 20.0001L12 19.0001Z" fill="#343A3D"/>
<path fill-rule="evenodd" clip-rule="evenodd" d="M10 9.50005C10.1672 9.50005 10.3233 9.5836 10.416 9.7227L12.416 12.7227C12.528 12.8907 12.528 13.1095 12.416 13.2774L10.416 16.2774C10.3233 16.4165 10.1672 16.5001 10 16.5001C9.83282 16.5001 9.67671 16.4165 9.58397 16.2774L7.58397 13.2774C7.47201 13.1095 7.47201 12.8907 7.58397 12.7227L9.58397 9.7227C9.67671 9.5836 9.83282 9.50005 10 9.50005Z" fill="#343A3D"/>
</svg>
