<svg width="24" height="24" viewBox="0 0 24 24" fill="none" xmlns="http://www.w3.org/2000/svg">
<path fill-rule="evenodd" clip-rule="evenodd" d="M1 4C1 2.34315 2.34315 1 4 1H20C21.6569 1 23 2.34315 23 4V16C23 17.6569 21.6569 19 20 19H13C13 19.345 13.0119 19.6923 12.9993 20.0371C14.508 20.1451 15.9695 20.5108 17.3714 21.0715C17.8842 21.2766 18.1336 21.8586 17.9285 22.3714C17.7234 22.8842 17.1414 23.1336 16.6286 22.9285C13.6428 21.7342 10.3532 21.7358 7.37139 22.9285C6.8586 23.1336 6.27664 22.8842 6.07152 22.3714C5.86641 21.8586 6.11583 21.2766 6.62861 21.0715C8.03052 20.5108 9.49195 20.1451 11.0007 20.0371C10.9881 19.6923 11 19.345 11 19H4C2.34315 19 1 17.6569 1 16V4ZM4 3C3.44772 3 3 3.44772 3 4V16C3 16.5523 3.44772 17 4 17H20C20.5523 17 21 16.5523 21 16V4C21 3.44772 20.5523 3 20 3H4Z" fill="#343A3D"/>
<path fill-rule="evenodd" clip-rule="evenodd" d="M4.5 7.58628C4.5 6.98378 4.98842 6.49536 5.59092 6.49536H7C7.27614 6.49536 7.5 6.71922 7.5 6.99536C7.5 7.2715 7.27614 7.49536 7 7.49536H5.59092C5.54071 7.49536 5.5 7.53607 5.5 7.58628V12.4044C5.5 12.4547 5.54071 12.4954 5.59092 12.4954H7C7.27614 12.4954 7.5 12.7192 7.5 12.9954C7.5 13.2715 7.27614 13.4954 7 13.4954H5.59092C4.98842 13.4954 4.5 13.0069 4.5 12.4044V7.58628Z" fill="#343A3D"/>
<path fill-rule="evenodd" clip-rule="evenodd" d="M18 13.5C18.2444 13.5 18.453 13.3233 18.4932 13.0822L19.4932 7.0822C19.5386 6.80981 19.3546 6.5522 19.0822 6.5068C18.8098 6.46141 18.5522 6.64542 18.5068 6.9178L18 9.95862L17.4932 6.9178C17.4478 6.64542 17.1902 6.46141 16.9178 6.5068C16.6454 6.5522 16.4614 6.80981 16.5068 7.0822L17.5068 13.0822C17.547 13.3233 17.7556 13.5 18 13.5Z" fill="#343A3D"/>
<path fill-rule="evenodd" clip-rule="evenodd" d="M8.5 7.58765C8.5 6.98417 8.98996 6.49534 9.59345 6.49674L10.4116 6.49863C11.0131 6.50003 11.5 6.98804 11.5 7.58955V13C11.5 13.2761 11.2761 13.5 11 13.5C10.7239 13.5 10.5 13.2761 10.5 13V7.58955C10.5 7.53942 10.4594 7.49875 10.4093 7.49863L9.59113 7.49673C9.54083 7.49662 9.5 7.53736 9.5 7.58765V12.9954C9.5 13.2715 9.27614 13.4954 9 13.4954C8.72386 13.4954 8.5 13.2715 8.5 12.9954V7.58765Z" fill="#343A3D"/>
<path fill-rule="evenodd" clip-rule="evenodd" d="M9.00005 9.5H11C11.6449 9.5 11.6449 10.5 11 10.5H9.00005C8.3552 10.5 8.3552 9.5 9.00005 9.5Z" fill="#343A3D"/>
<path d="M12.5 7C12.5 6.72386 12.7239 6.5 13 6.5H15C15.2761 6.5 15.5 6.72386 15.5 7C15.5 7.27614 15.2761 7.5 15 7.5H13C12.7239 7.5 12.5 7.27614 12.5 7Z" fill="#343A3D"/>
<path d="M14.5 7.19995V13C14.5 13.2761 14.2761 13.5 14 13.5C13.7239 13.5 13.5 13.2761 13.5 13V7.19995C13.5 6.5551 14.5 6.55511 14.5 7.19995Z" fill="#343A3D"/>
</svg>
