<svg width="24" height="24" viewBox="0 0 24 24" fill="none" xmlns="http://www.w3.org/2000/svg">
<path d="M7 1C6.44772 1 6 1.44772 6 2C6 2.55228 6.44772 3 7 3H9V4C9 5.31133 9.84135 6.42615 11.0137 6.8341C11.0047 6.88806 11 6.94348 11 7V15H10.3846C10.381 15 10.3773 15 10.3737 15H3.69478C2.20649 15 1 16.2065 1 17.6948C1 19.5128 2.76331 20.8092 4.49856 20.2669L9 18.8602V19C9 20.6569 10.3431 22 12 22C13.6569 22 15 20.6569 15 19V18.8602L19.5014 20.2669C21.2367 20.8092 23 19.5128 23 17.6948C23 16.2065 21.7935 15 20.3052 15H13.6263C13.6227 15 13.619 15 13.6154 15H13V7C13 6.94348 12.9953 6.88806 12.9863 6.8341C14.1586 6.42615 15 5.31133 15 4V3H17C17.5523 3 18 2.55228 18 2C18 1.44772 17.5523 1 17 1H7ZM11 17H13V19C13 19.5523 12.5523 20 12 20C11.4477 20 11 19.5523 11 19V17ZM11 4V3H13V4C13 4.55228 12.5523 5 12 5C11.4477 5 11 4.55228 11 4ZM3.69478 17H8.24739L3.90201 18.358C3.45463 18.4978 3 18.1635 3 17.6948C3 17.3111 3.31106 17 3.69478 17ZM15.7526 17H20.3052C20.6889 17 21 17.3111 21 17.6948C21 18.1635 20.5454 18.4978 20.098 18.358L15.7526 17Z" fill="#343A3D"/>
</svg>
