<svg width="24" height="24" viewBox="0 0 24 24" fill="none" xmlns="http://www.w3.org/2000/svg">
<path fill-rule="evenodd" clip-rule="evenodd" d="M5 5C5 3.34315 6.34315 2 8 2H16C17.6569 2 19 3.34315 19 5V19C19 20.6569 17.6569 22 16 22H8C6.34315 22 5 20.6569 5 19V5ZM8 4C7.44772 4 7 4.44772 7 5V19C7 19.5523 7.44772 20 8 20H16C16.5523 20 17 19.5523 17 19V5C17 4.44772 16.5523 4 16 4H15C13 4 11 4 9 4H8Z" fill="#343A3D"/>
<path fill-rule="evenodd" clip-rule="evenodd" d="M15 4C14.7941 4.5826 14.1531 5 13.5 5H10.5C9.84689 5 9.20592 4.5826 9 4C9.5 4 14 4 15 4Z" fill="#343A3D"/>
<path fill-rule="evenodd" clip-rule="evenodd" d="M9.25006 18C9.25006 17.5858 9.58585 17.25 10.0001 17.25H14.0001C14.4143 17.25 14.7501 17.5858 14.7501 18C14.7501 18.4142 14.4143 18.75 14.0001 18.75H10.0001C9.58585 18.75 9.25006 18.4142 9.25006 18Z" fill="#343A3D"/>
</svg>
