<svg width="24" height="24" viewBox="0 0 24 24" fill="none" xmlns="http://www.w3.org/2000/svg">
<path d="M2 5C2 3.34315 3.34315 2 5 2H15C16.6569 2 18 3.34315 18 5V7H19C20.6569 7 22 8.34315 22 10V21C22 21.3788 21.786 21.725 21.4472 21.8944C21.1084 22.0638 20.703 22.0273 20.4 21.8L16.9333 19.2C16.7602 19.0702 16.5497 19 16.3333 19H9C7.34315 19 6 17.6569 6 16V15L3.6 16.8C3.29698 17.0273 2.89157 17.0638 2.55279 16.8944C2.214 16.725 2 16.3788 2 16V5ZM6.69352 12.1622C7.00473 12.0555 7.33339 12 7.66667 12H15C15.5523 12 16 11.5523 16 11V5C16 4.44772 15.5523 4 15 4H5C4.44772 4 4 4.44772 4 5V14L5.86667 12.6C6.10393 12.4221 6.36463 12.2815 6.63974 12.1812C6.65743 12.1744 6.67536 12.1681 6.69352 12.1622ZM8 14V16C8 16.5523 8.44772 17 9 17H16.3333C16.9824 17 17.614 17.2105 18.1333 17.6L20 19V10C20 9.44772 19.5523 9 19 9H18V11C18 12.6569 16.6569 14 15 14H8Z" fill="#343A3D"/>
<path d="M8 8C8 8.55228 7.55228 9 7 9C6.44772 9 6 8.55228 6 8C6 7.44772 6.44772 7 7 7C7.55228 7 8 7.44772 8 8Z" fill="#343A3D"/>
<path d="M11 8C11 8.55228 10.5523 9 10 9C9.44772 9 9 8.55228 9 8C9 7.44772 9.44772 7 10 7C10.5523 7 11 7.44772 11 8Z" fill="#343A3D"/>
<path d="M14 8C14 8.55228 13.5523 9 13 9C12.4477 9 12 8.55228 12 8C12 7.44772 12.4477 7 13 7C13.5523 7 14 7.44772 14 8Z" fill="#343A3D"/>
</svg>
