<svg width="24" height="24" viewBox="0 0 24 24" fill="none" xmlns="http://www.w3.org/2000/svg">
<path d="M16.6761 9.97634C17.0772 9.52012 17.0326 8.82507 16.5764 8.4239C16.1202 8.02274 15.4251 8.06737 15.0239 8.52359L10.5261 13.6387L8.42285 11.2697C8.01951 10.8154 7.32426 10.774 6.86996 11.1774C6.41566 11.5807 6.37434 12.276 6.77768 12.7303L9.7075 16.0303C9.91686 16.2661 10.2174 16.4007 10.5327 16.4C10.8481 16.3992 11.1479 16.2632 11.3561 16.0263L16.6761 9.97634Z" fill="#343A3D"/>
<path d="M12 23C18.05 23 23 18.05 23 12C23 5.95 18.05 1 12 1C5.95 1 1 5.95 1 12C1 18.05 5.95 23 12 23ZM20.8 12C20.8 16.835 16.835 20.8 12 20.8C7.16503 20.8 3.2 16.835 3.2 12C3.2 7.16503 7.16503 3.2 12 3.2C16.835 3.2 20.8 7.16503 20.8 12Z" fill="#343A3D"/>
</svg>
