<svg width="24" height="24" viewBox="0 0 24 24" fill="none" xmlns="http://www.w3.org/2000/svg">
<path d="M12 1C5.94772 1 1 5.94772 1 12C1 18.0523 5.94772 23 12 23C18.0523 23 23 18.0523 23 12C23 5.94772 18.0523 1 12 1ZM16.251 10.1604L11.4147 15.6604C11.2254 15.8756 10.9528 15.9993 10.6661 16C10.3794 16.0007 10.1062 15.8783 9.91592 15.6639L7.25245 12.6639C6.88578 12.2509 6.92334 11.6189 7.33634 11.2522C7.74934 10.8855 8.38139 10.9231 8.74806 11.3361L10.6601 13.4897L14.749 8.83967C15.1137 8.42492 15.7456 8.38435 16.1604 8.74905C16.5751 9.11374 16.6157 9.74561 16.251 10.1604Z" fill="#343A3D"/>
</svg>
