<svg width="24" height="24" viewBox="0 0 24 24" fill="none" xmlns="http://www.w3.org/2000/svg">
<path d="M11 3C10.4477 3 10 3.44772 10 4V5C10 5.55228 9.55229 6 9 6C8.44772 6 8 5.55228 8 5V4C8 2.34315 9.34315 1 11 1H19C20.6569 1 22 2.34315 22 4V22C22 22.5523 21.5523 23 21 23C20.4477 23 20 22.5523 20 22V4C20 3.44772 19.5523 3 19 3H11Z" fill="#343A3D"/>
<path d="M8.70711 7.29289L12.7071 11.2929C13.0976 11.6834 13.0976 12.3166 12.7071 12.7071L8.70711 16.7071C8.31658 17.0976 7.68342 17.0976 7.29289 16.7071C6.90237 16.3166 6.90237 15.6834 7.29289 15.2929L9.58579 13H2C1.44772 13 1 12.5523 1 12C1 11.4477 1.44772 11 2 11H9.58579L7.29289 8.70711C6.90237 8.31658 6.90237 7.68342 7.29289 7.29289C7.68342 6.90237 8.31658 6.90237 8.70711 7.29289Z" fill="#343A3D"/>
<path d="M10 19C10 18.4477 9.55229 18 9 18C8.44772 18 8 18.4477 8 19V22C8 22.5523 8.44772 23 9 23C9.55229 23 10 22.5523 10 22V19Z" fill="#343A3D"/>
</svg>
