<svg width="24" height="24" viewBox="0 0 24 24" fill="none" xmlns="http://www.w3.org/2000/svg">
<path d="M11 3C10.4477 3 10 3.44772 10 4V5C10 5.55228 9.55229 6 9 6C8.44772 6 8 5.55228 8 5V4C8 2.34315 9.34315 1 11 1H19C20.6569 1 22 2.34315 22 4V22C22 22.5523 21.5523 23 21 23C20.4477 23 20 22.5523 20 22V4C20 3.44772 19.5523 3 19 3H11Z" fill="#343A3D"/>
<path d="M6.70711 16.7071C6.31658 17.0976 5.68342 17.0976 5.29289 16.7071L1.29289 12.7071C0.902369 12.3166 0.902369 11.6834 1.29289 11.2929L5.29289 7.29289C5.68342 6.90237 6.31658 6.90237 6.70711 7.29289C7.09763 7.68342 7.09763 8.31658 6.70711 8.70711L4.41421 11L12 11C12.5523 11 13 11.4477 13 12C13 12.5523 12.5523 13 12 13L4.41421 13L6.70711 15.2929C7.09763 15.6834 7.09763 16.3166 6.70711 16.7071Z" fill="#343A3D"/>
<path d="M10 19C10 18.4477 9.55229 18 9 18C8.44772 18 8 18.4477 8 19V22C8 22.5523 8.44772 23 9 23C9.55229 23 10 22.5523 10 22V19Z" fill="#343A3D"/>
</svg>
