<svg width="24" height="24" viewBox="0 0 24 24" fill="none" xmlns="http://www.w3.org/2000/svg">
<path d="M19.6404 16.6936L18.5125 11.0287H19.1366C21.0651 11.0287 22.599 9.11147 21.7696 7.14762C21.3292 6.1047 20.7209 4.87775 19.96 3.89512C19.229 2.95125 18.1752 2 16.8142 2C15.9027 2 15.1197 2.23409 14.4945 2.72713C13.8779 3.21338 13.5098 3.87678 13.2845 4.56325C13.0037 5.4188 13.0031 6.41357 13.0025 7.41287C13.0024 7.60872 13.0022 7.80481 13 8H7L6.99942 8.0019C6.97913 8.00064 6.95867 8 6.93807 8C6.12162 8 4.91893 8.23978 3.89197 8.98847C2.81465 9.77386 2 11.0741 2 13C2 13.5523 2.44217 14 2.98761 14C3.53306 14 3.97523 13.5523 3.97523 13C3.97523 11.7259 4.4774 11.0261 5.0461 10.6115C5.45991 10.3099 5.94228 10.1382 6.36611 10.0576L4.35631 16.9155C4.12374 16.7168 3.89971 16.5093 3.68596 16.2929C3.30028 15.9024 2.67495 15.9024 2.28927 16.2929C1.90358 16.6834 1.90358 17.3166 2.28927 17.7071C3.01777 18.4447 4.33263 19.5047 5.98429 20.3849C7.63518 21.2647 9.68854 22 11.8761 22C14.0637 22 16.1171 21.2647 17.768 20.3849C19.4197 19.5047 20.7345 18.4447 21.463 17.7071C21.8487 17.3166 21.8487 16.6834 21.463 16.2929C21.0773 15.9024 20.452 15.9024 20.0663 16.2929C19.9471 16.4136 19.8044 16.5485 19.6404 16.6936ZM18.4056 5.12922C19.0114 5.91151 19.54 6.95496 19.9535 7.93399C20.1553 8.41196 19.8309 9.0287 19.1366 9.0287H17.926L17.7024 8.56284C17.4639 8.06612 16.873 7.85918 16.3824 8.10061C15.8918 8.34205 15.6874 8.94044 15.9259 9.43716L16.3643 10.3505L17.8697 17.9198C17.8754 17.9484 17.8823 17.9765 17.8903 18.004C17.4746 18.2703 17.0205 18.5333 16.5368 18.7761C16.2778 18.3207 15.9225 17.8355 15.4635 17.3998C14.6573 16.6344 13.5042 16 12 16C10.4958 16 9.34271 16.6344 8.53652 17.3998C8.04524 17.8662 7.67266 18.3893 7.40997 18.8719C6.94379 18.6468 6.48266 18.3981 6.03513 18.1249C6.03988 18.1099 6.04429 18.0947 6.04836 18.0793L8.18121 10.0286H8.9684C8.95012 10.6973 8.95149 11.5208 9.07775 12.2363C9.34759 13.7654 10.3467 15 12.0001 15C13.6534 15 14.6525 13.7654 14.9223 12.2363C15.0823 11.3299 15.0418 10.2502 15.0149 9.53137C14.961 8.09414 14.9852 6.62171 15.159 5.1939C15.7536 3.3817 17.5197 3.98522 18.4056 5.12922ZM10.972 10.0286H13.0281C13.0494 10.6465 13.0594 11.2845 12.9528 11.8887C12.8522 12.4583 12.6546 13 12.0001 13C11.3455 13 11.1478 12.4583 11.0473 11.8887C10.9407 11.2845 10.9507 10.6465 10.972 10.0286ZM11.8761 20C10.9995 20 10.1304 19.8521 9.29658 19.6067C9.88957 18.6666 10.8593 18 12 18C13.1136 18 14.0665 18.6354 14.6628 19.5435C13.7662 19.8265 12.8256 20 11.8761 20Z" fill="#343A3D"/>
</svg>
