<svg width="24" height="24" viewBox="0 0 24 24" fill="none" xmlns="http://www.w3.org/2000/svg">
<path d="M18 4C18.5523 4 19 4.44772 19 5V7C19 7.55228 18.5523 8 18 8C17.4477 8 17 7.55228 17 7V5C17 4.44772 17.4477 4 18 4ZM21 4C21.5523 4 22 4.44772 22 5V7C22 7.55228 21.5523 8 21 8C20.4477 8 20 7.55228 20 7V5C20 4.44772 20.4477 4 21 4ZM2 12C2 10.8954 2.89543 10 4 10H20C21.1046 10 22 10.8954 22 12V15C22 16.1046 21.1046 17 20 17H4C2.89543 17 2 16.1046 2 15V12ZM18 15H20V12H18V15ZM16 12H14V15H16V12ZM12 12H4V15H12V12Z" fill="#343A3D"/>
</svg>
