<svg width="24" height="24" viewBox="0 0 24 24" fill="none" xmlns="http://www.w3.org/2000/svg">
<path fill-rule="evenodd" clip-rule="evenodd" d="M6.26824 4.35984C5.91468 3.93556 5.28412 3.87824 4.85984 4.2318C4.43556 4.58537 4.37824 5.21593 4.7318 5.64021L17.2318 20.6402C17.5854 21.0645 18.2159 21.1218 18.6402 20.7682C19.0645 20.4147 19.1218 19.7841 18.7682 19.3598L16.8018 17.0001H20C21.1046 17.0001 22 16.1047 22 15.0001V12.0001C22 10.8955 21.1046 10.0001 20 10.0001H11C10.9896 10.0001 10.9792 10.0003 10.9689 10.0006L6.26824 4.35984ZM12.6351 12.0001L15.179 15.0527C15.2798 15.0186 15.3877 15.0001 15.5 15.0001H16V12.0001H12.6351ZM18 15.0001V12.0001H20V15.0001H18Z" fill="#343A3D"/>
<path d="M2 12.0001C2 10.8955 2.89543 10.0001 4 10.0001H6.5C7.05228 10.0001 7.5 10.4478 7.5 11.0001C7.5 11.5524 7.05228 12.0001 6.5 12.0001H4V15.0001H11C11.5523 15.0001 12 15.4478 12 16.0001C12 16.5524 11.5523 17.0001 11 17.0001H4C2.89543 17.0001 2 16.1047 2 15.0001V12.0001Z" fill="#343A3D"/>
<path d="M18 4.0001C18.5523 4.0001 19 4.44781 19 5.0001V7.0001C19 7.55238 18.5523 8.0001 18 8.0001C17.4477 8.0001 17 7.55238 17 7.0001V5.0001C17 4.44781 17.4477 4.0001 18 4.0001Z" fill="#343A3D"/>
<path d="M22 5.0001C22 4.44781 21.5523 4.0001 21 4.0001C20.4477 4.0001 20 4.44781 20 5.0001V7.0001C20 7.55238 20.4477 8.0001 21 8.0001C21.5523 8.0001 22 7.55238 22 7.0001V5.0001Z" fill="#343A3D"/>
</svg>
