<svg width="24" height="24" viewBox="0 0 24 24" fill="none" xmlns="http://www.w3.org/2000/svg">
<path d="M8.5 1.5C7.16062 1.5 5.91285 1.89619 4.85402 2.57997C4.62204 2.72978 4.55543 3.03927 4.70523 3.27125C4.85504 3.50322 5.16453 3.56984 5.39651 3.42003C6.30105 2.8359 7.36166 2.5 8.5 2.5C11.804 2.5 14.5 5.35304 14.5 8.89444C14.5 10.662 13.7482 12.2629 12.6184 13.8238C11.6711 15.1327 10.4535 16.4184 9.18948 17.7518C8.96026 17.9936 8.7297 18.2369 8.5 18.4811C8.27065 18.2372 8.04044 17.9944 7.81156 17.7529L7.81051 17.7518C6.54652 16.4184 5.3289 15.1327 4.38159 13.8238C3.25181 12.2629 2.5 10.662 2.5 8.89444C2.5 7.93245 2.69993 7.01935 3.05773 6.20012C3.16825 5.94706 3.0527 5.65232 2.79964 5.54179C2.54658 5.43127 2.25184 5.54682 2.14131 5.79988C1.72901 6.74393 1.5 7.79316 1.5 8.89444C1.5 10.9601 2.38207 12.7668 3.57151 14.4101C4.5613 15.7777 5.82228 17.1079 7.07101 18.4253L7.08476 18.4398L7.08572 18.4408C7.32442 18.6926 7.56286 18.9441 7.80003 19.1965C7.98117 19.3892 8.23384 19.5 8.5 19.5C8.76616 19.5 9.01883 19.3892 9.19997 19.1965C9.43745 18.9438 9.67621 18.6919 9.91523 18.4398L9.92898 18.4253C11.1777 17.1079 12.4387 15.7777 13.4285 14.4101C14.6179 12.7668 15.5 10.9601 15.5 8.89444C15.5 4.86106 12.4147 1.5 8.5 1.5Z" fill="#343A3D"/>
<path d="M15.6674 14.8601C15.4884 15.3724 15.6139 15.9066 15.8537 16.1465C16.2983 16.5913 16.6249 16.7352 16.9999 16.7352H20.6149C21.2399 16.7352 21.7241 17.0931 22.0313 17.5403C22.3365 17.9848 22.5 18.5563 22.5 19.1175C22.5 19.6802 22.3347 20.2781 21.9247 20.7425C21.5048 21.2181 20.8755 21.4999 20.061 21.4999L17.2325 21.5C16.8866 22.0978 16.2403 22.5 15.5 22.5C14.7724 22.5 14.1356 22.1115 13.7856 21.5306C13.7227 21.5374 13.6493 21.5429 13.5639 21.5472H8.38839C8.14753 21.5472 7.95227 21.302 7.95227 20.9995C7.95227 20.697 8.14753 20.4518 8.38839 20.4518H13.5006C13.5262 19.3695 14.4115 18.5 15.5 18.5C16.6046 18.5 17.5 19.3954 17.5 20.5L20.061 20.4999C20.6316 20.4999 20.9717 20.311 21.1751 20.0807C21.3883 19.8392 21.5 19.496 21.5 19.1175C21.5 18.7375 21.3865 18.3678 21.2069 18.1064C21.0293 17.8478 20.8211 17.7352 20.615 17.7352H16.9999C16.2675 17.7352 15.7015 17.4087 15.1465 16.8535C14.5738 16.2807 14.4492 15.315 14.7233 14.5303C15.0161 13.6921 15.776 13 16.9999 13H18.563C18.785 12.1374 19.5681 11.5 20.5 11.5C21.6046 11.5 22.5 12.3954 22.5 13.5C22.5 14.6046 21.6046 15.5 20.5 15.5C19.5681 15.5 18.785 14.8626 18.563 14H16.9999C16.2238 14 15.8276 14.4015 15.6674 14.8601ZM16.5 20.5C16.5 19.9477 16.0523 19.5 15.5 19.5C14.9477 19.5 14.5 19.9477 14.5 20.5C14.5 21.0523 14.9477 21.5 15.5 21.5C16.0475 21.5 16.4923 21.06 16.4999 20.5142L16.5 20.5ZM19.5 13.5C19.5 14.0523 19.9477 14.5 20.5 14.5C21.0523 14.5 21.5 14.0523 21.5 13.5C21.5 12.9477 21.0523 12.5 20.5 12.5C19.9477 12.5 19.5 12.9477 19.5 13.5Z" fill="#343A3D"/>
<path d="M5.09998 8.7C5.09998 6.82224 6.62221 5.3 8.49998 5.3C10.3777 5.3 11.9 6.82224 11.9 8.7C11.9 10.5778 10.3777 12.1 8.49998 12.1C6.62221 12.1 5.09998 10.5778 5.09998 8.7ZM8.49998 6.3C7.17449 6.3 6.09998 7.37452 6.09998 8.7C6.09998 10.0255 7.17449 11.1 8.49998 11.1C9.82546 11.1 10.9 10.0255 10.9 8.7C10.9 7.37452 9.82546 6.3 8.49998 6.3Z" fill="#343A3D"/>
</svg>
