<svg width="24" height="24" viewBox="0 0 24 24" fill="none" xmlns="http://www.w3.org/2000/svg">
<path d="M8.39985 4.69995C6.30117 4.69995 4.59985 6.40127 4.59985 8.49995C4.59985 10.5986 6.30117 12.3 8.39985 12.3C10.4985 12.3 12.1999 10.5986 12.1999 8.49995C12.1999 6.40127 10.4985 4.69995 8.39985 4.69995ZM6.39985 8.49995C6.39985 7.39538 7.29528 6.49995 8.39985 6.49995C9.50442 6.49995 10.3999 7.39538 10.3999 8.49995C10.3999 9.60452 9.50442 10.5 8.39985 10.5C7.29528 10.5 6.39985 9.60452 6.39985 8.49995Z" fill="#343A3D"/>
<path d="M1 8.69459C1 4.46442 4.24098 0.900146 8.4 0.900146C12.559 0.900146 15.8 4.46442 15.8 8.69459C15.8 10.8795 14.8658 12.7685 13.6525 14.4448C12.6472 15.8338 11.3711 17.18 10.1298 18.4895L10.1055 18.5151C9.86641 18.7674 9.62825 19.0186 9.39144 19.2706C9.13548 19.5429 8.77767 19.7001 8.4 19.7001C8.02233 19.7001 7.66452 19.5429 7.40856 19.2706C7.17175 19.0186 6.93358 18.7674 6.69446 18.5151L6.67041 18.4897C5.42905 17.1802 4.15285 15.8339 3.14748 14.4448C1.93418 12.7685 1 10.8795 1 8.69459ZM8.4 2.70015C5.34028 2.70015 2.8 5.34998 2.8 8.69459C2.8 10.3429 3.49971 11.8615 4.60562 13.3894C5.53449 14.6728 6.73252 15.9388 8.00081 17.2768L8.00187 17.2779C8.1341 17.4174 8.26698 17.5576 8.4 17.6983C8.53317 17.5574 8.66621 17.417 8.79859 17.2774C10.0669 15.9394 11.2655 14.6728 12.1944 13.3894C13.3003 11.8615 14 10.3429 14 8.69459C14 5.34998 11.4597 2.70015 8.4 2.70015Z" fill="#343A3D"/>
<path d="M17.4 12.4001C15.7984 12.4001 14.5 13.6985 14.5 15.3001C14.5 16.9018 15.7984 18.2001 17.4 18.2001H20.15C20.6194 18.2001 21 18.5807 21 19.0501C21 19.5196 20.6194 19.9001 20.15 19.9001H17.5172C17.1669 19.0771 16.3508 18.5 15.3999 18.5C14.4489 18.5 13.6328 19.0771 13.2825 19.9001H11.9C11.4029 19.9001 11 20.3031 11 20.8001C11 21.2972 11.4029 21.7001 11.9 21.7001H13.2827C13.633 22.5231 14.449 23.1 15.3999 23.1C16.3507 23.1 17.1667 22.5231 17.517 21.7001H20.15C21.6136 21.7001 22.8 20.5137 22.8 19.0501C22.8 17.5866 21.6136 16.4001 20.15 16.4001H17.4C16.7925 16.4001 16.3 15.9077 16.3 15.3001C16.3 14.6926 16.7925 14.2001 17.4 14.2001H18.2827C18.633 15.0231 19.449 15.6 20.3999 15.6C21.6701 15.6 22.6999 14.5703 22.6999 13.3C22.6999 12.0297 21.6701 11 20.3999 11C19.4489 11 18.6328 11.5771 18.2825 12.4001H17.4ZM20.3999 12.6C20.7865 12.6 21.0999 12.9134 21.0999 13.3C21.0999 13.6866 20.7865 14 20.3999 14C20.0133 14 19.6999 13.6866 19.6999 13.3C19.6999 12.9134 20.0133 12.6 20.3999 12.6ZM14.6999 20.8C14.6999 20.4134 15.0133 20.1 15.3999 20.1C15.7865 20.1 16.0999 20.4134 16.0999 20.8C16.0999 21.1866 15.7865 21.5 15.3999 21.5C15.0133 21.5 14.6999 21.1866 14.6999 20.8Z" fill="#343A3D"/>
</svg>
