<svg width="24" height="24" viewBox="0 0 24 24" fill="none" xmlns="http://www.w3.org/2000/svg">
<path d="M15 14C15 13.4477 15.4477 13 16 13H17C17.5523 13 18 13.4477 18 14C18 14.5523 17.5523 15 17 15H16C15.4477 15 15 14.5523 15 14Z" fill="#343A3D"/>
<path d="M16 16C15.4477 16 15 16.4477 15 17C15 17.5523 15.4477 18 16 18H17C17.5523 18 18 17.5523 18 17C18 16.4477 17.5523 16 17 16H16Z" fill="#343A3D"/>
<path d="M7 7C6.44772 7 6 7.44772 6 8C6 8.55228 6.44772 9 7 9H9C9.55228 9 10 8.55228 10 8C10 7.44772 9.55228 7 9 7H7Z" fill="#343A3D"/>
<path d="M6 16C6 15.4477 6.44772 15 7 15H9C9.55228 15 10 15.4477 10 16C10 16.5523 9.55228 17 9 17H7C6.44772 17 6 16.5523 6 16Z" fill="#343A3D"/>
<path d="M8 11C7.44772 11 7 11.4477 7 12C7 12.5523 7.44772 13 8 13H10C10.5523 13 11 12.5523 11 12C11 11.4477 10.5523 11 10 11H8Z" fill="#343A3D"/>
<path d="M4.64286 2C4.13654 2 3.70157 2.2463 3.41556 2.59448C3.1341 2.93713 3 3.36652 3 3.78261V20C2.44772 20 2 20.4477 2 21C2 21.5523 2.44772 22 3 22L21 22C21.5523 22 22 21.5523 22 21C22 20.4477 21.5523 20 21 20V10.7333C21 10.3313 20.871 9.91499 20.5982 9.58155C20.3208 9.24252 19.8965 9 19.4 9H14V3.78261C14 3.36652 13.8659 2.93713 13.5844 2.59448C13.2984 2.2463 12.8635 2 12.3571 2H4.64286ZM19 11V20H14V11H19ZM12 20H5V4H12V20Z" fill="#343A3D"/>
</svg>
