<svg width="24" height="24" viewBox="0 0 24 24" fill="none" xmlns="http://www.w3.org/2000/svg">
<path d="M8 2C8 1.44772 7.55228 1 7 1C6.44772 1 6 1.44772 6 2L6 16H4C3.5911 16 3.22339 16.249 3.07153 16.6286L1.07153 21.6286C0.948292 21.9367 0.985907 22.2859 1.17194 22.5606C1.35797 22.8354 1.66818 23 2 23H19C19.4589 23 19.8589 22.6877 19.9701 22.2425L20.7808 19H22C22.5523 19 23 18.5523 23 18V13C23 12.4477 22.5523 12 22 12H20.3998C19.9362 9.71737 17.9192 8 15.5 8C12.7386 8 10.5 10.2386 10.5 13H10C9.71317 13 9.44015 13.1232 9.25033 13.3382C9.0605 13.5532 8.97215 13.8394 9.00773 14.124L9.24222 16H8L8 2ZM12.5 13C12.5 11.3431 13.8431 10 15.5 10C16.806 10 17.9178 10.8351 18.3295 12H17C16.4477 12 16 12.4477 16 13H12.5ZM11.8828 21L11.1328 15H16L16 18C16 18.5523 16.4477 19 17 19H18.7192L18.2192 21H11.8828ZM6.5 21V19.75C6.5 19.3358 6.16421 19 5.75 19C5.33579 19 5 19.3358 5 19.75L5 21H3.47704L4.67704 18H9.49222L9.86722 21H9.5V19.75C9.5 19.3358 9.16421 19 8.75 19C8.33579 19 8 19.3358 8 19.75V21H6.5ZM19.9776 17H18V14H21V17H20.0209C20.0064 16.9997 19.992 16.9997 19.9776 17Z" fill="#343A3D"/>
</svg>
