<svg width="24" height="24" viewBox="0 0 24 24" fill="none" xmlns="http://www.w3.org/2000/svg">
<path fill-rule="evenodd" clip-rule="evenodd" d="M16.4659 5.32714C16.8375 4.9971 17.4064 5.03085 17.7364 5.40252L22.5713 10.8473C23.2201 11.578 23.2089 12.6817 22.5454 13.399L18.021 18.2903C17.6614 18.6791 17.1558 18.9001 16.6262 18.9001H15.6458C14.0089 18.9001 13.1381 16.9684 14.222 15.7419L17.3739 12.1754C17.4068 12.1382 17.4074 12.0824 17.3752 12.0445L13.0407 6.93541C13.0217 6.91302 12.9938 6.90011 12.9645 6.90011H11.6986C11.6667 6.90011 11.6523 6.90789 11.644 6.91346C11.6322 6.92134 11.6181 6.93599 11.6079 6.95805C11.5976 6.98011 11.5956 7.00034 11.5972 7.01441C11.5983 7.02434 11.6017 7.04042 11.6223 7.06473L14.8538 10.8807C15.4637 11.6009 15.4525 12.6596 14.8275 13.3668L10.8032 17.9205C10.2527 18.5434 9.46144 18.9001 8.63017 18.9001H4.0001C2.39847 18.9001 1.1001 17.6017 1.1001 16.0001V8.00011C1.1001 6.39848 2.39847 5.10011 4.0001 5.10011H7.45407C7.95112 5.10011 8.35407 5.50305 8.35407 6.00011C8.35407 6.49716 7.95112 6.90011 7.45407 6.90011H4.0001C3.39259 6.90011 2.9001 7.39259 2.9001 8.00011V16.0001C2.9001 16.6076 3.39258 17.1001 4.0001 17.1001H8.63017C8.94548 17.1001 9.24563 16.9648 9.45443 16.7285L13.4788 12.1748C13.5116 12.1376 13.5122 12.0819 13.4801 12.044L10.2486 8.22796C9.20307 6.99327 10.0807 5.10011 11.6986 5.10011H12.9645C13.5225 5.10011 14.0523 5.34541 14.4133 5.77093L18.7478 10.88C19.3588 11.6002 19.3481 12.6597 18.7227 13.3674L15.5708 16.9339C15.5492 16.9583 15.5457 16.9744 15.5444 16.9841C15.5426 16.9981 15.5444 17.0186 15.5546 17.0412C15.5648 17.0638 15.579 17.0787 15.5906 17.0866C15.5987 17.0921 15.6131 17.1001 15.6458 17.1001H16.6262C16.6541 17.1001 16.6807 17.0885 16.6996 17.068L21.224 12.1768C21.2589 12.139 21.2595 12.0809 21.2253 12.0425L16.3905 6.5977C16.0604 6.22602 16.0942 5.65718 16.4659 5.32714Z" fill="#323439"/>
</svg>
