<svg width="24" height="24" viewBox="0 0 24 24" fill="none" xmlns="http://www.w3.org/2000/svg">
<path fill-rule="evenodd" clip-rule="evenodd" d="M10.3333 3C9.14117 3 8 4.10878 8 5.7037V16.4444C8 19.0621 9.88736 21 12 21C14.1126 21 16 19.0621 16 16.4444V5.25581C16 4.70353 16.4477 4.25581 17 4.25581C17.5523 4.25581 18 4.70353 18 5.25581V16.4444C18 19.9633 15.4102 23 12 23C8.58979 23 6 19.9633 6 16.4444V5.7037C6 3.20763 7.8436 1 10.3333 1C12.8231 1 14.6667 3.20763 14.6667 5.7037V16.4272C14.6667 17.9005 13.5693 19.2791 12 19.2791C10.4307 19.2791 9.33333 17.9005 9.33333 16.4272V5.88889C9.33333 5.3366 9.78105 4.88889 10.3333 4.88889C10.8856 4.88889 11.3333 5.3366 11.3333 5.88889V16.4272C11.3333 16.9994 11.7283 17.2791 12 17.2791C12.2717 17.2791 12.6667 16.9994 12.6667 16.4272V5.7037C12.6667 4.10878 11.5255 3 10.3333 3Z" fill="#343A3D"/>
</svg>
