<svg width="24" height="24" viewBox="0 0 24 24" fill="none" xmlns="http://www.w3.org/2000/svg">
<path d="M4.99858 3.17702C4.49563 2.67407 3.68017 2.67407 3.17722 3.17702C2.67426 3.67998 2.67426 4.49543 3.17722 4.99839L10.1784 11.9996L3.17702 19.001C2.67407 19.504 2.67407 20.3194 3.17702 20.8224C3.67998 21.3254 4.49543 21.3254 4.99839 20.8224L11.9998 13.821L19.0012 20.8224C19.5042 21.3254 20.3196 21.3254 20.8226 20.8224C21.3255 20.3194 21.3255 19.504 20.8226 19.001L13.8212 11.9996L20.8224 4.99839C21.3254 4.49543 21.3254 3.67998 20.8224 3.17702C20.3194 2.67407 19.504 2.67407 19.001 3.17702L11.9998 10.1782L4.99858 3.17702Z" fill="#343A3D"/>
</svg>
