<svg width="24" height="24" viewBox="0 0 24 24" fill="none" xmlns="http://www.w3.org/2000/svg">
<path d="M4 3C4 2.44772 3.55229 2 3 2C2.44772 2 2 2.44772 2 3V21C2 21.5523 2.44772 22 3 22C3.55228 22 4 21.5523 4 21L4 10H8.25V16C8.25 16.9665 9.0335 17.75 10 17.75H11C11.9665 17.75 12.75 16.9665 12.75 16V13.75H13.25V16C13.25 16.9665 14.0335 17.75 15 17.75H16C16.9665 17.75 17.75 16.9665 17.75 16V9.5H20V21C20 21.5523 20.4477 22 21 22C21.5523 22 22 21.5523 22 21V3C22 2.44772 21.5523 2 21 2C20.4477 2 20 2.44772 20 3L4 3ZM17.4363 8C17.1201 7.54663 16.5947 7.25 16 7.25H10C9.40531 7.25 8.87991 7.54663 8.56367 8H4L4 5H20V8H17.4363ZM9.75 9C9.75 8.86193 9.86193 8.75 10 8.75H16C16.1381 8.75 16.25 8.86193 16.25 9V16C16.25 16.1381 16.1381 16.25 16 16.25H15C14.8619 16.25 14.75 16.1381 14.75 16V13C14.75 12.5858 14.4142 12.25 14 12.25H12C11.5858 12.25 11.25 12.5858 11.25 13V16C11.25 16.1381 11.1381 16.25 11 16.25H10C9.86193 16.25 9.75 16.1381 9.75 16V9Z" fill="#343A3D"/>
</svg>
