<svg width="24" height="24" viewBox="0 0 24 24" fill="none" xmlns="http://www.w3.org/2000/svg">
<path fill-rule="evenodd" clip-rule="evenodd" d="M10.598 7.18182C10.598 6.4287 11.2256 5.81818 11.9998 5.81818C12.774 5.81818 13.4015 6.4287 13.4015 7.18182C13.4015 7.7451 13.0503 8.23066 12.5455 8.43852C11.942 8.68704 11.0831 9.30304 11.0656 10.3316L2.83571 15.669C1.29708 16.6669 2.02324 19 3.87244 19H20.1276C21.9768 19 22.7029 16.6669 21.1643 15.669L12.949 10.341C12.9553 10.3319 12.9642 10.3207 12.9763 10.3073C13.0349 10.2429 13.1388 10.1686 13.274 10.1129C14.4456 9.63043 15.2705 8.50089 15.2705 7.18182C15.2705 5.42455 13.8062 4 11.9998 4C10.1934 4 8.72904 5.42455 8.72904 7.18182C8.72904 7.6839 9.14743 8.09091 9.66354 8.09091C10.1796 8.09091 10.598 7.6839 10.598 7.18182ZM3.87244 17.1818L12 11.9108L20.1276 17.1818L3.87244 17.1818Z" fill="#343A3D"/>
</svg>
