<svg width="24" height="24" viewBox="0 0 24 24" fill="none" xmlns="http://www.w3.org/2000/svg">
<path fill-rule="evenodd" clip-rule="evenodd" d="M0.107178 11.5714C0.107178 16.3071 3.94289 20.1429 8.67861 20.1429H17.25C20.8018 20.1429 23.6786 17.2661 23.6786 13.7143C23.6786 10.1625 20.8018 7.28571 17.25 7.28571C16.875 7.28571 16.5161 7.33393 16.1625 7.39821C14.6947 4.77321 11.8929 3 8.67861 3C3.94289 3 0.107178 6.83571 0.107178 11.5714ZM21.5357 13.7143C21.5357 16.0821 19.6179 18 17.25 18H8.67861C5.12682 18 2.25003 15.1232 2.25003 11.5714C2.25003 8.01964 5.12682 5.14286 8.67861 5.14286C11.7268 5.14286 14.2661 7.26964 14.9304 10.1196C15.6 9.68571 16.3929 9.42857 17.25 9.42857C19.6179 9.42857 21.5357 11.3464 21.5357 13.7143Z" fill="#343A3D"/>
</svg>
