<svg width="24" height="24" viewBox="0 0 24 24" fill="none" xmlns="http://www.w3.org/2000/svg">
<path fill-rule="evenodd" clip-rule="evenodd" d="M1 9C1 7.34315 2.34315 6 4 6H7.00002C7.5523 6 8.00002 6.44772 8.00002 7C8.00002 7.55228 7.5523 8 7.00002 8H4C3.44772 8 3 8.44772 3 9V14.5104C3 15.0627 2.55228 15.5104 2 15.5104C1.44772 15.5104 1 15.0627 1 14.5104V9ZM16.1111 13.0017C17.4869 12.9742 18.7094 13.2841 19.3601 13.5352L18.64 15.401C18.1997 15.2311 17.2351 14.9796 16.151 15.0013C15.0739 15.0228 13.9767 15.3097 13.1234 16.1001C10.5899 18.4468 7.64082 18.0652 6.72197 17.7992L7.27806 15.8781C7.81376 16.0331 9.9342 16.328 11.7643 14.6328C13.0929 13.4022 14.7283 13.0294 16.1111 13.0017Z" fill="#343A3D"/>
<path fill-rule="evenodd" clip-rule="evenodd" d="M6.354 6H18.9717L20.7053 19.6212C20.9335 21.414 19.5365 23 17.7293 23H8.1769C6.41998 23 5.0391 21.497 5.18764 19.7464L6.354 6ZM8.19149 8L7.18048 19.9155C7.13097 20.499 7.59126 21 8.1769 21H17.7293C18.3317 21 18.7974 20.4713 18.7213 19.8737L17.2101 8H8.19149Z" fill="#343A3D"/>
<path fill-rule="evenodd" clip-rule="evenodd" d="M12.6855 3C10.2443 3 8.37099 4.84745 8.37099 7H6.37099C6.37099 3.6297 9.25643 1 12.6855 1C15.767 1 18.4095 3.12365 18.9135 6H21.7177C22.1073 6 22.3648 6.20741 22.471 6.30912C22.5927 6.42573 22.6728 6.55195 22.7234 6.64547C22.8277 6.83795 22.8954 7.05599 22.9375 7.26772C23.0238 7.70236 23.031 8.25587 22.8936 8.86888C22.6122 10.1236 21.7374 11.5845 19.7775 12.8417C19.3127 13.1399 18.6941 13.0048 18.3959 12.5399C18.0977 12.0751 18.2328 11.4565 18.6977 11.1583C20.2711 10.149 20.7899 9.10992 20.9421 8.43129C20.9785 8.26889 20.9948 8.12382 20.9989 8H17V7C17 4.84745 15.1267 3 12.6855 3Z" fill="#343A3D"/>
</svg>
