<svg width="25" height="24" viewBox="0 0 25 24" fill="none" xmlns="http://www.w3.org/2000/svg">
<path fill-rule="evenodd" clip-rule="evenodd" d="M12.3331 8C10.1239 8 8.33307 9.79086 8.33307 12C8.33307 14.2091 10.1239 16 12.3331 16C14.5422 16 16.3331 14.2091 16.3331 12C16.3331 9.79086 14.5422 8 12.3331 8ZM10.3331 12C10.3331 10.8954 11.2285 10 12.3331 10C13.4376 10 14.3331 10.8954 14.3331 12C14.3331 13.1046 13.4376 14 12.3331 14C11.2285 14 10.3331 13.1046 10.3331 12Z" fill="#343A3D"/>
<path fill-rule="evenodd" clip-rule="evenodd" d="M15.0816 1.91604C14.5311 1.33381 13.7687 0.999778 12.966 1H11.697C10.9092 0.999991 10.1597 1.32301 9.61278 1.88807C9.06947 2.44936 8.76961 3.20339 8.77025 3.98345C8.75889 4.54488 8.32178 4.94945 7.83976 4.95237C7.69686 4.94991 7.55532 4.90924 7.4289 4.83209L7.41561 4.82412C5.99838 3.98918 4.20548 4.49932 3.40203 5.91893L2.73122 7.05269L2.7195 7.07303C1.92877 8.48402 2.38581 10.299 3.78256 11.1344L3.7854 11.1361C4.07317 11.3069 4.26384 11.6327 4.26384 12C4.26384 12.3673 4.0724 12.6935 3.78463 12.8644C2.38727 13.6955 1.92908 15.5091 2.71981 16.918L3.35575 18.0456C3.73022 18.7346 4.36012 19.2511 5.11457 19.4716C5.87322 19.6932 6.68593 19.5942 7.3703 19.1997L7.38541 19.1909C7.5941 19.0657 7.83885 19.0329 8.0677 19.0958C8.29736 19.159 8.50153 19.3164 8.62781 19.5434L8.63559 19.5571C8.71482 19.6943 8.75874 19.8526 8.76102 20.0159C8.7644 21.6384 10.0517 23 11.697 23H12.966C14.6079 23 15.8945 21.6436 15.902 20.0237L15.902 20.0144C15.9007 19.7437 16.005 19.4891 16.1831 19.306C16.3575 19.1267 16.5875 19.0304 16.8218 19.0286C16.9729 19.0346 17.122 19.0779 17.2565 19.1567C18.6712 19.9934 20.4643 19.4879 21.2709 18.0703L21.9349 16.9326L21.9412 16.9216C22.328 16.2388 22.4329 15.4292 22.236 14.6699C22.0389 13.91 21.5531 13.2539 20.8762 12.8536C20.6641 12.7281 20.5014 12.5156 20.4343 12.2566C20.3669 11.997 20.4038 11.7214 20.5332 11.493L20.5367 11.4867C20.6194 11.3383 20.737 11.219 20.8746 11.1379L20.8825 11.1332C22.2406 10.3165 22.7066 8.57206 21.9948 7.17869C21.9798 7.14258 21.9627 7.10728 21.9435 7.07298L21.3136 5.94917C20.5132 4.52105 18.7146 4.00598 17.2937 4.8431L17.2832 4.84942C17.0737 4.97631 16.8277 5.01073 16.5971 4.94916C16.3657 4.88738 16.1592 4.73113 16.03 4.50457L16.0274 4.50006C15.9498 4.36565 15.9061 4.21107 15.9022 4.05137C15.918 3.261 15.6257 2.49148 15.0816 1.91604ZM12.9664 3C13.2101 2.9999 13.4495 3.10092 13.6283 3.29007C13.8081 3.48024 13.9101 3.74306 13.9024 4.0197C13.902 4.03237 13.9019 4.04504 13.902 4.05772C13.9071 4.56305 14.0416 5.05964 14.294 5.49768C14.6825 6.17758 15.323 6.67907 16.0812 6.88149C16.8386 7.08366 17.6418 6.96801 18.3127 6.56414C18.7435 6.31308 19.3043 6.45474 19.5689 6.92702L20.1557 7.974C20.1681 8.00213 20.1818 8.02975 20.1968 8.05675C20.4665 8.5427 20.2965 9.14881 19.8557 9.41684C19.41 9.6803 19.0436 10.0586 18.7913 10.5102C18.4059 11.1923 18.3017 12.0005 18.4983 12.7587C18.6954 13.5185 19.1812 14.1746 19.858 14.575C20.0702 14.7005 20.2328 14.9129 20.3 15.172C20.3669 15.4298 20.331 15.7035 20.2037 15.931L19.5404 17.0674L19.5338 17.079C19.267 17.5507 18.7043 17.6898 18.2739 17.4349L18.2709 17.4331C17.8438 17.1821 17.3609 17.0426 16.8654 17.0289L16.8429 17.0286C16.0526 17.0247 15.2995 17.346 14.7494 17.9115C14.2017 18.4747 13.8998 19.2332 13.902 20.0178C13.8976 20.5873 13.4544 21 12.966 21H11.697C11.2061 21 10.7611 20.5829 10.7611 20.0095L10.761 19.9994C10.7559 19.4959 10.6223 19.001 10.3717 18.5641C9.98966 17.8817 9.3541 17.3755 8.59827 17.1675C7.84272 16.9596 7.03886 17.07 6.36612 17.4701C6.15312 17.5909 5.90582 17.6191 5.67554 17.5518C5.44244 17.4837 5.23677 17.3203 5.11127 17.0874L5.10204 17.0707L4.46351 15.9384C4.19198 15.4538 4.36395 14.8468 4.80705 14.5833C5.71682 14.0429 6.26384 13.0547 6.26384 12C6.26384 10.9455 5.71708 9.95761 4.80771 9.41712C4.36509 9.15133 4.19278 8.54584 4.45947 8.05934L5.12869 6.92826L5.14042 6.90791C5.40487 6.436 5.96494 6.29425 6.39563 6.54451C6.82673 6.80551 7.31919 6.94699 7.82363 6.95238L7.8342 6.95238C9.46499 6.95255 10.7477 5.61359 10.7702 4.00444L10.7703 3.9858C10.769 3.71596 10.8727 3.4621 11.0498 3.27907C11.2261 3.09701 11.4596 3 11.697 3H12.9664Z" fill="#343A3D"/>
</svg>
