<svg width="24" height="24" viewBox="0 0 24 24" fill="none" xmlns="http://www.w3.org/2000/svg">
<path d="M8.08215 15.7V14.75C8.08215 14.3358 7.72661 14 7.28803 14C6.84945 14 6.49391 14.3358 6.49391 14.75L6.49391 18.25C6.49391 18.6642 6.84945 19 7.28803 19C7.72661 19 8.08215 18.6642 8.08215 18.25V17.2H9.67039V18.25C9.67039 18.6642 10.0259 19 10.4645 19C10.9031 19 11.2586 18.6642 11.2586 18.25V14.75C11.2586 14.3358 10.9031 14 10.4645 14C10.0259 14 9.67039 14.3358 9.67039 14.75V15.7H8.08215Z" fill="#343A3D"/>
<path d="M5.11765 6.36364C5.11765 5.94038 5.24213 5.06342 5.76027 4.32528C6.23223 3.65292 7.09046 3 8.82353 3C10.5566 3 11.4148 3.65292 11.8868 4.32528C12.4049 5.06342 12.5294 5.94038 12.5294 6.36364V6.8443C12.5228 6.88444 12.5187 6.92538 12.5172 6.96696C12.5159 6.9764 12.5122 6.99868 12.5031 7.03147C12.4822 7.10746 12.4315 7.24487 12.3089 7.41529C12.073 7.74334 11.499 8.29104 10.0938 8.7088C9.08298 9.00933 8.06873 9.2764 7.15798 9.50031C4.77124 10.0871 3 12.1021 3 14.4855V19.9428C3 21.6313 4.44924 23 6.23698 23H11.3973C12.3602 23 13.2248 22.603 13.8178 21.9728C13.8968 21.9906 13.9793 22 14.0641 22H17.763C19.5508 22 21 20.6313 21 18.9429V6.7504L21 6.74619L21 6.74427L20.9999 6.7424V6C20.9999 5.37309 20.833 4.15479 20.0434 3.06152C19.2077 1.90434 17.7517 1 15.4474 1C14.2094 1 13.0536 1.50632 12.3048 1.92115C11.4414 1.36123 10.2999 1 8.82353 1C6.38749 1 4.86337 1.98344 3.99525 3.22018C3.17331 4.39112 3 5.69598 3 6.36364C3 6.91592 3.47405 7.36364 4.05882 7.36364C4.6436 7.36364 5.11765 6.91592 5.11765 6.36364ZM13.7936 3.43342C14.3108 3.19163 14.8996 3 15.4474 3C17.0751 3 17.8659 3.59566 18.294 4.18848C18.7683 4.84521 18.8822 5.62691 18.8822 6V6.71095C18.8806 6.71843 18.878 6.72924 18.8739 6.74302C18.8569 6.8001 18.8116 6.91753 18.6933 7.06922C18.4638 7.36375 17.8846 7.88017 16.4459 8.27485C15.8399 8.4411 15.2328 8.59637 14.6471 8.73879V6.36364C14.6471 5.73627 14.494 4.54626 13.7936 3.43342ZM18.8822 9.48031V12.9999L18.8824 13.0148V18.9429C18.8824 19.5267 18.3812 20 17.763 20H14.6338C14.6341 19.981 14.6343 19.9619 14.6343 19.9428V16.2H16.0233V17.25C16.0233 17.6642 16.3789 18 16.8175 18C17.256 18 17.6116 17.6642 17.6116 17.25V13.75C17.6116 13.3358 17.256 13 16.8175 13C16.3789 13 16.0233 13.3358 16.0233 13.75V14.7H14.6343V14.1551C14.6427 14.1043 14.6471 14.0523 14.6471 13.9993V10.802C15.4081 10.6226 16.2215 10.4191 17.0367 10.1955C17.7752 9.99284 18.3832 9.74874 18.8822 9.48031ZM10.7297 10.6165C11.4422 10.4047 12.0312 10.1513 12.5167 9.87406V19.9428C12.5167 20.5267 12.0155 21 11.3973 21H6.23698C5.61879 21 5.11765 20.5267 5.11765 19.9428V14.4855C5.11765 13.0662 6.1817 11.807 7.69147 11.4358C8.62685 11.2058 9.67658 10.9296 10.7297 10.6165Z" fill="#343A3D"/>
</svg>
