<svg width="24" height="24" viewBox="0 0 24 24" fill="none" xmlns="http://www.w3.org/2000/svg">
<path fill-rule="evenodd" clip-rule="evenodd" d="M15.8719 1.08299C15.6062 1.01921 15.3346 1.00425 15.0401 1.00091C15.0268 1.00039 15.0134 1.00012 15 1.00012L14.9776 1.00037C14.9058 0.999913 14.8326 0.999981 14.7578 1.00005L11.1615 1.0001C10.6343 1.00008 10.1795 1.00007 9.80497 1.03067C9.40963 1.06297 9.01641 1.13429 8.63803 1.32708C8.07354 1.6147 7.6146 2.07364 7.32698 2.63813C7.13419 3.01651 7.06287 3.40973 7.03057 3.80507C7.00314 4.14086 7.00031 4.54108 7.00003 5.00012L6.16146 5.00012C5.63431 5.0001 5.17955 5.00009 4.80497 5.03069C4.40963 5.06299 4.01641 5.13431 3.63803 5.3271C3.07354 5.61472 2.6146 6.07367 2.32698 6.63815C2.13419 7.01653 2.06287 7.40975 2.03057 7.8051C1.99997 8.17966 1.99998 8.63441 2 9.16154V18.8387C1.99998 19.3658 1.99997 19.8206 2.03057 20.1952C2.06287 20.5905 2.13419 20.9837 2.32698 21.3621C2.6146 21.9266 3.07354 22.3855 3.63803 22.6731C4.01641 22.8659 4.40963 22.9373 4.80497 22.9696C5.17954 23.0002 5.6343 23.0001 6.16144 23.0001H12.8386C13.3657 23.0001 13.8205 23.0002 14.195 22.9696C14.5904 22.9373 14.9836 22.8659 15.362 22.6731C15.9265 22.3855 16.3854 21.9266 16.673 21.3621C16.8658 20.9837 16.9371 20.5905 16.9694 20.1952C16.9969 19.8594 16.9997 19.4591 17 19.0001H17.8386C18.3657 19.0001 18.8205 19.0001 19.195 18.9695C19.5904 18.9372 19.9836 18.8659 20.362 18.6731C20.9265 18.3855 21.3854 17.9266 21.673 17.3621C21.8658 16.9837 21.9371 16.5905 21.9694 16.1951C22 15.8206 22 15.3659 22 14.8388L22.0001 8.24228C22.0001 8.16771 22.0002 8.09472 21.9997 8.02316L22 8.00012C22 7.98646 21.9997 7.97286 21.9992 7.95933C21.9958 7.66514 21.9809 7.39368 21.9171 7.12819C21.8436 6.82208 21.7224 6.52945 21.5579 6.26103C21.3707 5.95549 21.1168 5.70206 20.8288 5.41461L17.5855 2.17131C17.298 1.88333 17.0446 1.62942 16.7391 1.44218C16.4707 1.2777 16.178 1.15648 15.8719 1.08299ZM14.9999 19.0001C14.9995 19.4652 14.9964 19.7831 14.9761 20.0323C14.9539 20.304 14.9162 20.4047 14.891 20.4541C14.7951 20.6423 14.6422 20.7953 14.454 20.8911C14.4045 20.9163 14.3038 20.954 14.0322 20.9762C13.7488 20.9993 13.3766 21.0001 12.8 21.0001H6.2C5.62345 21.0001 5.25118 20.9993 4.96784 20.9762C4.69618 20.954 4.59546 20.9163 4.54601 20.8911C4.35785 20.7953 4.20487 20.6423 4.109 20.4541C4.0838 20.4047 4.04613 20.304 4.02393 20.0323C4.00078 19.749 4 19.3767 4 18.8001V9.20012C4 8.62357 4.00078 8.2513 4.02393 7.96796C4.04613 7.6963 4.0838 7.59558 4.109 7.54613C4.20487 7.35797 4.35785 7.20499 4.54601 7.10912C4.59546 7.08392 4.69618 7.04625 4.96784 7.02405C5.25118 7.0009 5.62345 7.00012 6.2 7.00012H7V14.8386C6.99998 15.3658 6.99997 15.8206 7.03057 16.1951C7.06287 16.5905 7.13419 16.9837 7.32698 17.3621C7.6146 17.9266 8.07354 18.3855 8.63803 18.6731C9.01641 18.8659 9.40963 18.9372 9.80497 18.9695C10.1795 19.0001 10.6343 19.0001 11.1614 19.0001H14.9999ZM9 14.8001V5.2001C9 4.62355 9.00078 4.25127 9.02393 3.96794C9.04613 3.69627 9.0838 3.59556 9.109 3.54611C9.20487 3.35795 9.35785 3.20497 9.54601 3.1091C9.59546 3.0839 9.69618 3.04622 9.96784 3.02403C10.2512 3.00088 10.6234 3.0001 11.2 3.0001H14V7.00012C14 8.10469 14.8954 9.00012 16 9.00012H20V14.8001C20 15.3767 19.9992 15.7489 19.9761 16.0323C19.9539 16.3039 19.9162 16.4046 19.891 16.4541C19.7951 16.6423 19.6422 16.7952 19.454 16.8911C19.4045 16.9163 19.3038 16.954 19.0322 16.9762C18.7488 16.9993 18.3766 17.0001 17.8 17.0001H11.2C10.6234 17.0001 10.2512 16.9993 9.96784 16.9762C9.69618 16.954 9.59546 16.9163 9.54601 16.8911C9.35785 16.7952 9.20487 16.6423 9.109 16.4541C9.0838 16.4046 9.04613 16.3039 9.02393 16.0323C9.00078 15.7489 9 15.3767 9 14.8001ZM19.3556 6.76995C19.4491 6.8634 19.5238 6.93864 19.584 7.00012H16V3.41614C16.0615 3.47634 16.1367 3.55102 16.2302 3.64447L19.3556 6.76995Z" fill="#343A3D"/>
</svg>
