<svg width="24" height="24" viewBox="0 0 24 24" fill="none" xmlns="http://www.w3.org/2000/svg">
<path d="M11.0498 1.00961C11.96 0.908171 12.7561 1.6228 12.7561 2.54137V3.99206H13.2683C14.1169 3.99206 14.8049 4.68207 14.8049 5.53325V8.87248C14.8049 9.29807 14.4609 9.64307 14.0366 9.64307C13.6123 9.64307 13.2683 9.29807 13.2683 8.87248V5.53325H11.2392L11.2195 5.53337H3.53659V16.3215H7.89024C8.31456 16.3215 8.65854 16.6665 8.65854 17.0921C8.65854 17.5177 8.31456 17.8627 7.89024 17.8627H3.53659C2.68795 17.8627 2 17.1727 2 16.3215V3.99206C2.0169 2.86394 2.86836 1.92138 3.98988 1.79639L11.0498 1.00961ZM11.2195 3.99206L11.2195 2.54137L4.15957 3.32815C3.81626 3.36641 3.55386 3.64936 3.53741 3.99206H11.2195Z" fill="#343A3D"/>
<path d="M14.5488 14.5235C13.983 14.5235 13.5244 14.9835 13.5244 15.5509C13.5244 16.1184 13.983 16.5784 14.5488 16.5784C15.1145 16.5784 15.5732 16.1184 15.5732 15.5509C15.5732 14.9835 15.1145 14.5235 14.5488 14.5235Z" fill="#343A3D"/>
<path d="M18.4963 14.674C18.6963 14.8746 18.6963 15.1999 18.4963 15.4005L14.3988 19.5103C14.1987 19.7109 13.8744 19.7109 13.6744 19.5103C13.4744 19.3097 13.4744 18.9844 13.6744 18.7838L17.772 14.674C17.972 14.4733 18.2963 14.4733 18.4963 14.674Z" fill="#343A3D"/>
<path d="M16.5976 18.6333C16.5976 18.0659 17.0562 17.6059 17.622 17.6059C18.1877 17.6059 18.6463 18.0659 18.6463 18.6333C18.6463 19.2008 18.1877 19.6608 17.622 19.6608C17.0562 19.6608 16.5976 19.2008 16.5976 18.6333Z" fill="#343A3D"/>
<path d="M5.26524 8.2402C5.26524 7.70276 5.69962 7.26708 6.23546 7.26708H7.89024C9.90575 7.26708 11.5396 8.90586 11.5396 10.9274C11.5396 11.0137 11.5367 11.0994 11.5308 11.1843H20.8659C22.0445 11.1843 23 12.1426 23 13.3248V14.9394C23 15.419 22.6123 15.8078 22.1341 15.8078C21.4808 15.8078 20.9512 16.339 20.9512 16.9943V17.19C20.9512 17.8452 21.4808 18.3764 22.1341 18.3764C22.6123 18.3764 23 18.7653 23 19.2449V20.8595C23 22.0417 22.0445 23 20.8659 23H11.3049C10.1262 23 9.17073 22.0417 9.17073 20.8595V19.2449C9.17073 18.7653 9.55839 18.3764 10.0366 18.3764C10.6899 18.3764 11.2195 17.8452 11.2195 17.19V16.9943C11.2195 16.339 10.6899 15.8078 10.0366 15.8078C9.55839 15.8078 9.17073 15.419 9.17073 14.9394V14.356C8.7723 14.5058 8.34081 14.5877 7.89024 14.5877H6.23546C5.69962 14.5877 5.26524 14.152 5.26524 13.6146V8.2402ZM10.3399 11.4151C10.3709 11.2573 10.3872 11.0943 10.3872 10.9274C10.3872 9.54593 9.27201 8.42572 7.89531 8.42297C8.47232 8.98423 8.97866 9.79904 8.97866 10.9274C8.97866 12.0557 8.47232 12.8706 7.89531 13.4318C8.3678 13.4309 8.80948 13.2983 9.18585 13.0687C9.27189 12.3448 9.71821 11.7317 10.3399 11.4151ZM10.7121 13.2486C10.7089 13.2736 10.7073 13.299 10.7073 13.3248V14.3502C11.8849 14.6498 12.7561 15.72 12.7561 16.9943V17.19C12.7561 18.4643 11.8849 19.5344 10.7073 19.834V20.8595C10.7073 21.1905 10.9749 21.4588 11.3049 21.4588H20.8659C21.1959 21.4588 21.4634 21.1905 21.4634 20.8595V19.834C20.2858 19.5344 19.4146 18.4643 19.4146 17.19V16.9943C19.4146 15.72 20.2858 14.6498 21.4634 14.3502V13.3248C21.4634 12.9938 21.1959 12.7254 20.8659 12.7254H11.3049C11.2063 12.7254 11.1134 12.7494 11.0315 12.7917C10.8974 12.861 10.7475 12.9684 10.7121 13.2486ZM6.41768 8.88072V12.9741C6.41768 13.0447 6.44936 13.0771 6.46098 13.0851C6.464 13.0838 6.46832 13.0817 6.47405 13.0782C7.13323 12.6744 7.82622 11.9998 7.82622 10.9274C7.82622 9.85495 7.13323 9.18038 6.47405 8.77656C6.46832 8.77305 6.464 8.77094 6.46098 8.76969C6.44936 8.77767 6.41768 8.81012 6.41768 8.88072Z" fill="#343A3D"/>
</svg>
