<svg width="24" height="24" viewBox="0 0 24 24" fill="none" xmlns="http://www.w3.org/2000/svg">
<path fill-rule="evenodd" clip-rule="evenodd" d="M9.89474 9.26316C9.54593 9.26316 9.26316 9.54593 9.26316 9.89474C9.26316 10.2435 9.54593 10.5263 9.89474 10.5263C10.2435 10.5263 10.5263 10.2435 10.5263 9.89474C10.5263 9.54593 10.2435 9.26316 9.89474 9.26316ZM8 9.89474C8 8.8483 8.8483 8 9.89474 8C10.9412 8 11.7895 8.8483 11.7895 9.89474C11.7895 10.9412 10.9412 11.7895 9.89474 11.7895C8.8483 11.7895 8 10.9412 8 9.89474ZM15.815 8.18499C16.0617 8.43163 16.0617 8.83153 15.815 9.07817L9.07817 15.815C8.83153 16.0617 8.43163 16.0617 8.18499 15.815C7.93834 15.5684 7.93834 15.1685 8.18499 14.9218L14.9218 8.18499C15.1685 7.93834 15.5684 7.93834 15.815 8.18499ZM14.1053 13.4737C13.7565 13.4737 13.4737 13.7565 13.4737 14.1053C13.4737 14.4541 13.7565 14.7368 14.1053 14.7368C14.4541 14.7368 14.7368 14.4541 14.7368 14.1053C14.7368 13.7565 14.4541 13.4737 14.1053 13.4737ZM12.2105 14.1053C12.2105 13.0588 13.0588 12.2105 14.1053 12.2105C15.1517 12.2105 16 13.0588 16 14.1053C16 15.1517 15.1517 16 14.1053 16C13.0588 16 12.2105 15.1517 12.2105 14.1053Z" fill="#343A3D"/>
<path fill-rule="evenodd" clip-rule="evenodd" d="M2 6C2 4.34315 3.34315 3 5 3H19C20.6569 3 22 4.34315 22 6V9.22045C22 9.8719 21.6211 10.3379 21.2549 10.599C20.8916 10.858 20.4382 11.0001 20 11.0001C19.4477 11.0001 19 11.4478 19 12.0001C19 12.5523 19.4477 13.0001 20 13.0001C20.4382 13.0001 20.8916 13.1422 21.2549 13.4011C21.6211 13.6622 22 14.1282 22 14.7797V18C22 19.6569 20.6569 21 19 21H5C3.34315 21 2 19.6569 2 18V14.7797C2 14.1282 2.37887 13.6622 2.74511 13.4011C3.1084 13.1422 3.56178 13.0001 4 13.0001C4.55228 13.0001 5 12.5523 5 12.0001C5 11.4478 4.55228 11.0001 4 11.0001C3.56178 11.0001 3.1084 10.858 2.74511 10.599C2.37887 10.3379 2 9.8719 2 9.22044V6ZM5 5C4.44772 5 4 5.44772 4 6V9.00006C5.65685 9.00006 7 10.3432 7 12.0001C7 13.6569 5.65685 15.0001 4 15.0001V18C4 18.5523 4.44772 19 5 19H19C19.5523 19 20 18.5523 20 18V15.0001C18.3431 15.0001 17 13.6569 17 12.0001C17 10.3432 18.3431 9.00006 20 9.00006V6C20 5.44772 19.5523 5 19 5H5Z" fill="#343A3D"/>
</svg>
