<svg width="24" height="24" viewBox="0 0 24 24" fill="none" xmlns="http://www.w3.org/2000/svg">
<path d="M13 3C13 2.44772 13.4477 2 14 2H16C19.3137 2 22 4.68629 22 8V21C22 21.5523 21.5523 22 21 22C20.4477 22 20 21.5523 20 21H4C4 21.5523 3.55228 22 3 22C2.44772 22 2 21.5523 2 21V13C2 11.8954 2.89543 11 4 11H20V8C20 5.79086 18.2091 4 16 4H14C13.4477 4 13 3.55228 13 3ZM4 13L4 16.5H6L6 13H4ZM4 18L4 19H6V18H4ZM8 18V19H11V18H8ZM13 18V19H16V18H13ZM16 16.5V13H13V16.5H16ZM18 18V19H20V18H18ZM20 16.5V13H18V16.5H20ZM11 16.5V13H8L8 16.5H11Z" fill="#343A3D"/>
<path d="M13.8578 5.23063C13.2451 4.72 12.355 4.72 11.7422 5.23063C10.9495 5.89123 10.9495 7.10875 11.7422 7.76934L13.6799 9.3841C13.8654 9.53862 14.1347 9.53862 14.3201 9.3841L16.2578 7.76934C17.0505 7.10875 17.0505 5.89123 16.2578 5.23063C15.6451 4.72 14.755 4.72 14.1422 5.23063L14 5.34913L13.8578 5.23063Z" fill="#343A3D"/>
</svg>
