<svg width="25" height="24" viewBox="0 0 25 24" fill="none" xmlns="http://www.w3.org/2000/svg">
<path d="M13.2499 10.2537C13.2499 9.80861 13.5857 9.44776 13.9999 9.44776H16.9999C17.4142 9.44776 17.7499 9.80861 17.7499 10.2537C17.7499 10.6989 17.4142 11.0597 16.9999 11.0597H13.9999C13.5857 11.0597 13.2499 10.6989 13.2499 10.2537Z" fill="#343A3D"/>
<path d="M7.99995 3C7.58573 3 7.24995 3.36085 7.24995 3.80597V5.95522H6.99984C6.62107 5.95522 6.27481 6.1852 6.10542 6.54926L3.27615 12H1.89429C1.54771 12 1.22584 12.1928 1.04364 12.5097C0.861431 12.8265 0.844867 13.2221 0.999861 13.5552L3.55274 19.2179C4.06091 20.3101 5.0997 21 6.23602 21H20.1666C21.3777 21 22.47 20.2174 22.9358 19.0161L24.8174 13.4879C24.946 13.1563 24.9118 12.7775 24.7263 12.4785C24.5409 12.1796 24.2286 12 23.8943 12H22.3032L19.9078 6.57952C19.7443 6.19894 19.3899 5.95522 18.9998 5.95522H18.1077L17.1963 3.50664C17.0824 3.20065 16.8066 3 16.4999 3H13.4999C13.0857 3 12.7499 3.36085 12.7499 3.80597V5.95522H12.6077L11.6963 3.50664C11.5824 3.20065 11.3066 3 10.9999 3H7.99995ZM20.1005 12H16.3943C16.0155 12 15.6693 12.23 15.4999 12.594L14.7763 14.1493H8.01232L7.28872 12.594C7.11932 12.23 6.77306 12 6.39429 12H5.51222L7.61788 8.10448H18.36L20.1005 12ZM15.9922 4.61194L16.4922 5.95522H14.2499V4.61194H15.9922ZM10.9922 5.95522H8.74995V4.61194H10.4922L10.9922 5.95522ZM5.34159 18.2567L3.51232 14.1493H5.77625L6.46643 15.406C6.63582 15.77 6.98209 16 7.36086 16H15.6309C16.0097 16 16.356 15.77 16.5254 15.406L17.0123 14.1493H22.3943L21.0897 18.1894C20.9344 18.5899 20.5703 18.8507 20.1666 18.8507H6.23602C5.85725 18.8507 5.51098 18.6208 5.34159 18.2567Z" fill="#343A3D"/>
</svg>
