<svg width="24px" height="24px" viewBox="0 0 24 24" version="1.1" xmlns="http://www.w3.org/2000/svg" xmlns:xlink="http://www.w3.org/1999/xlink">
    <g id="Utilidades" stroke="none" stroke-width="1" fill="none" fill-rule="evenodd">
        <g id="Icons" transform="translate(-556.000000, -3972.000000)" fill="#343A3D" fill-rule="nonzero">
            <g id="Group-16" transform="translate(556.000000, 3972.000000)">
                <path d="M6.9640974,7 L6.9640974,4.5 C6.9640974,4.22385763 7.18795502,4 7.4640974,4 L9.81869426,4 C10.0211892,4 10.2036906,4.12213493 10.2809108,4.30932794 L11.390858,7 L11.9640974,7 L11.9640974,4.5 C11.9640974,4.22385763 12.187955,4 12.4640974,4 L14.8186943,4 C15.0211892,4 15.2036906,4.12213493 15.2809108,4.30932794 L16.390858,7 L18.9646106,7 C19.1640738,7 19.3444557,7.11855107 19.4235837,7.30164765 L21.8862149,13 L22.5005366,13 C22.8580575,13 23.1000494,13.3643327 22.9614164,13.6938809 L21.4915259,17.1879987 C21.0967602,18.1264071 20.8581935,18.5334828 20.4848551,18.931227 C20.1381191,19.3006298 19.7300342,19.5716821 19.2550827,19.7480491 C18.7436917,19.9379473 18.2759587,20 17.2578968,20 L6.76939174,20 C5.75515633,20 5.28951075,19.9386126 4.78011559,19.7505598 C4.30681198,19.5758309 3.89978328,19.3071375 3.55311517,18.9405755 C3.18001203,18.5460614 2.94057649,18.142001 2.54200789,17.2093614 L1.04076194,13.6964872 C0.899787537,13.366611 1.14179982,13 1.50053663,13 L4.96461056,13 C5.15399659,13 5.32712814,13.1070012 5.41182415,13.2763932 L6.27362755,15 L13.6555936,15 L14.517397,13.2763932 C14.602093,13.1070012 14.7752245,13 14.9646106,13 L20.7968266,13 L18.6359991,8 L5.27362755,8 L4.41182415,9.7236068 C4.28832953,9.97059605 3.98799301,10.0707082 3.74100376,9.9472136 C3.49401451,9.82371897 3.39390234,9.52338245 3.51739696,9.2763932 L4.51739696,7.2763932 C4.60209297,7.10700119 4.77522453,7 4.96461056,7 L6.9640974,7 Z M7.9640974,7 L10.309114,7 L9.48408062,5 L7.9640974,5 L7.9640974,7 Z M15.309114,7 L14.4840806,5 L12.9640974,5 L12.9640974,7 L15.309114,7 Z M3.46155728,16.816387 C3.81767453,17.6496915 4.00059062,17.9583723 4.2796625,18.253459 C4.52059055,18.508213 4.79750111,18.691011 5.12643853,18.8124444 C5.50745347,18.9531033 5.86318206,19 6.76939174,19 L17.2578968,19 C18.1673424,19 18.524519,18.9526145 18.9069718,18.8105957 C19.2370736,18.6880168 19.5147434,18.5035869 19.7557326,18.2468438 C20.0349404,17.9493837 20.217118,17.638527 20.5697663,16.8002368 L21.747758,14 L15.2736276,14 L14.4118242,15.7236068 C14.3271281,15.8929988 14.1539966,16 13.9646106,16 L5.96461056,16 C5.77522453,16 5.60209297,15.8929988 5.51739696,15.7236068 L4.65559356,14 L2.25795894,14 L3.46155728,16.816387 Z M16.4646106,10 C16.7407529,10 16.9646106,10.2238576 16.9646106,10.5 C16.9646106,10.7761424 16.7407529,11 16.4646106,11 L12.4646106,11 C12.1884682,11 11.9646106,10.7761424 11.9646106,10.5 C11.9646106,10.2238576 12.1884682,10 12.4646106,10 L16.4646106,10 Z" id="Shape"></path>
            </g>
        </g>
    </g>
</svg>