<svg width="24" height="24" viewBox="0 0 24 24" fill="none" xmlns="http://www.w3.org/2000/svg">
<path fill-rule="evenodd" clip-rule="evenodd" d="M12 3C7.02944 3 3 7.02944 3 12C3 16.9706 7.02944 21 12 21C16.9706 21 21 16.9706 21 12C21 7.02944 16.9706 3 12 3ZM1 12C1 5.92487 5.92487 1 12 1C18.0751 1 23 5.92487 23 12C23 18.0751 18.0751 23 12 23C5.92487 23 1 18.0751 1 12Z" fill="#343A3D"/>
<path fill-rule="evenodd" clip-rule="evenodd" d="M10 6C10.5523 6 11 6.44772 11 7V7.13626C11.3892 7.04707 11.7941 7 12.2086 7C12.4773 7 12.7416 7.0196 13 7.05745V7C13 6.44772 13.4477 6 14 6C14.5523 6 15 6.44772 15 7V7.77788C15.3232 7.97507 15.6225 8.20574 15.8927 8.46516C16.291 8.84772 16.3038 9.48075 15.9213 9.87909C15.5387 10.2774 14.9057 10.2902 14.5073 9.90766C13.9285 9.35174 13.1173 9 12.2086 9C10.388 9 9 10.3904 9 12C9 13.6096 10.388 15 12.2086 15C13.1173 15 13.9285 14.6483 14.5073 14.0923C14.9057 13.7098 15.5387 13.7226 15.9213 14.1209C16.3038 14.5192 16.291 15.1523 15.8927 15.5348C15.6225 15.7943 15.3232 16.0249 15 16.2221V17C15 17.5523 14.5523 18 14 18C13.4477 18 13 17.5523 13 17V16.9426C12.7416 16.9804 12.4773 17 12.2086 17C11.7941 17 11.3892 16.9529 11 16.8637V17C11 17.5523 10.5523 18 10 18C9.44772 18 9 17.5523 9 17V16C9 15.9797 9.00061 15.9595 9.0018 15.9395C7.79058 15.0322 7 13.6186 7 12C7 10.3814 7.79057 8.96779 9.0018 8.06048C9.0006 8.04048 9 8.02031 9 8V7C9 6.44772 9.44772 6 10 6Z" fill="#343A3D"/>
</svg>
