<svg width="24" height="24" viewBox="0 0 24 24" fill="none" xmlns="http://www.w3.org/2000/svg">
<path fill-rule="evenodd" clip-rule="evenodd" d="M3 2C3.55229 2 4 2.44772 4 3V5H5.5V3C5.5 2.44772 5.94772 2 6.5 2C7.05229 2 7.5 2.44772 7.5 3V5H9V3C9 2.44772 9.44772 2 10 2C10.5523 2 11 2.44772 11 3V9H13V3C13 2.44772 13.4477 2 14 2C14.5523 2 15 2.44772 15 3V5H16.5V3C16.5 2.44772 16.9477 2 17.5 2C18.0523 2 18.5 2.44772 18.5 3V5H20V3C20 2.44772 20.4477 2 21 2C21.5523 2 22 2.44772 22 3V17.8386C22 18.3657 22 18.8205 21.9694 19.195C21.9371 19.5904 21.8658 19.9836 21.673 20.362C21.3854 20.9265 20.9265 21.3854 20.362 21.673C19.9836 21.8658 19.5904 21.9371 19.195 21.9694C18.8205 22 18.3657 22 17.8386 22H6.16144C5.6343 22 5.17954 22 4.80498 21.9694C4.40963 21.9371 4.01641 21.8658 3.63803 21.673C3.07354 21.3854 2.6146 20.9265 2.32698 20.362C2.13419 19.9836 2.06287 19.5904 2.03057 19.195C1.99997 18.8205 1.99998 18.3657 2 17.8385L2 3C2 2.44772 2.44772 2 3 2ZM4 7V9H9V7H4ZM4 11V17.8C4 18.3766 4.00078 18.7488 4.02393 19.0322C4.04612 19.3038 4.0838 19.4045 4.109 19.454C4.20487 19.6422 4.35785 19.7951 4.54601 19.891C4.59545 19.9162 4.69617 19.9539 4.96784 19.9761C5.25118 19.9992 5.62345 20 6.2 20H9V17C9 15.3431 10.3431 14 12 14C13.6569 14 15 15.3431 15 17V20H17.8C18.3766 20 18.7488 19.9992 19.0322 19.9761C19.3038 19.9539 19.4045 19.9162 19.454 19.891C19.6422 19.7951 19.7951 19.6422 19.891 19.454C19.9162 19.4045 19.9539 19.3038 19.9761 19.0322C19.9992 18.7488 20 18.3766 20 17.8V11H4ZM15 9H20V7H15V9ZM13 20V17C13 16.4477 12.5523 16 12 16C11.4477 16 11 16.4477 11 17V20H13Z" fill="#343A3D"/>
</svg>
