<svg width="24" height="24" viewBox="0 0 24 24" fill="none" xmlns="http://www.w3.org/2000/svg">
<path d="M8 10.5C8 9.39543 7.10457 8.5 6 8.5H5C2.79086 8.5 1 10.2909 1 12.5V13.5C1 15.7091 2.79086 17.5 5 17.5H6C7.10457 17.5 8 16.6046 8 15.5V10.5ZM5 10.5H6V15.5H5C3.89543 15.5 3 14.6046 3 13.5V12.5C3 11.3954 3.89543 10.5 5 10.5Z" fill="#343A3D"/>
<path d="M16 10.5C16 9.39543 16.8954 8.5 18 8.5H19C21.2091 8.5 23 10.2909 23 12.5V13.5C23 15.7091 21.2091 17.5 19 17.5H18C16.8954 17.5 16 16.6046 16 15.5V10.5ZM19 10.5H18V15.5H19C20.1046 15.5 21 14.6046 21 13.5V12.5C21 11.3954 20.1046 10.5 19 10.5Z" fill="#343A3D"/>
<path d="M12 3C8.42957 3 5.47063 5.44925 5.03531 9.6042C4.97776 10.1535 4.48583 10.5521 3.93655 10.4946C3.38728 10.437 2.98865 9.94508 3.0462 9.3958C3.58573 4.24623 7.38203 1 12 1C16.618 1 20.4143 4.24623 20.9538 9.3958C21.0113 9.94508 20.6127 10.437 20.0634 10.4946C19.5142 10.5521 19.0222 10.1535 18.9647 9.6042C18.5294 5.44925 15.5704 3 12 3Z" fill="#343A3D"/>
<path d="M20 16C20.5523 16 21 16.4477 21 17C21 19.7614 18.7614 22 16 22H14C13.4477 22 13 21.5523 13 21C13 20.4477 13.4477 20 14 20H16C17.6569 20 19 18.6569 19 17C19 16.4477 19.4477 16 20 16Z" fill="#343A3D"/>
<path d="M9.5 20.5C9.5 19.6716 10.1716 19 11 19H14C14.8284 19 15.5 19.6716 15.5 20.5C15.5 21.3284 14.8284 22 14 22H11C10.1716 22 9.5 21.3284 9.5 20.5Z" fill="#343A3D"/>
</svg>
