<svg width="24" height="24" viewBox="0 0 24 24" fill="none" xmlns="http://www.w3.org/2000/svg">
<path d="M5.00361 0.999023C2.79194 0.999023 0.999023 2.79194 0.999023 5.00361V18.9967C0.999023 21.2084 2.79194 23.0013 5.00361 23.0013H18.9967C21.2084 23.0013 23.0013 21.2084 23.0013 18.9967V5.00361C23.0013 2.79194 21.2084 0.999023 18.9967 0.999023H5.00361ZM3.00132 5.00361C3.00132 3.89778 3.89778 3.00132 5.00361 3.00132H7.00017L7.00017 11.0002H3.00132V5.00361ZM3.00132 13.0002H7.00017L7.00017 20.999H5.00361C3.89778 20.999 3.00132 20.1026 3.00132 18.9967V13.0002ZM9.00017 20.999V13.0002H14.7502V20.999H9.00017ZM16.7502 20.999V13.0002H20.999V18.9967C20.999 20.1026 20.1026 20.999 18.9967 20.999H16.7502ZM20.999 11.0002H16.7502V3.00132H18.9967C20.1026 3.00132 20.999 3.89778 20.999 5.00361V11.0002ZM14.7502 3.00132V11.0002H9.00017V3.00132H14.7502Z" fill="#343A3D"/>
</svg>
