<svg width="24" height="24" viewBox="0 0 24 24" fill="none" xmlns="http://www.w3.org/2000/svg">
<path fill-rule="evenodd" clip-rule="evenodd" d="M2 3C2 1.89543 2.89543 1 4 1H14C15.1046 1 16 1.89543 16 3V9C16 10.1046 15.1046 11 14 11H10V13H22C22.5523 13 23 13.4477 23 14V22C23 22.5523 22.5523 23 22 23H15C14.4477 23 14 22.5523 14 22V15H3V22C3 22.5523 2.55228 23 2 23C1.44772 23 1 22.5523 1 22V15C1 13.8954 1.89543 13 3 13H8V11H4C2.89543 11 2 10.1046 2 9V3ZM14 3H4V9H14V3ZM16 17H21V15H16V17ZM16 19V21H21V19H16Z" fill="#343A3D"/>
</svg>
