<svg width="24" height="24" viewBox="0 0 24 24" fill="none" xmlns="http://www.w3.org/2000/svg">
<path d="M12 10.3078C11.6326 10.3078 11.3349 10.6063 11.3349 10.9745V13.3676C11.3349 13.7358 11.6326 14.0343 12 14.0343H13.893V15.0941H12C11.6326 15.0941 11.3349 15.3926 11.3349 15.7608V18.1539C11.3349 18.5221 11.6326 18.8206 12 18.8206H15.2232V17.4873H12.6651V16.4275H14.5581C14.9254 16.4275 15.2232 16.129 15.2232 15.7608V13.3676C15.2232 12.9994 14.9254 12.701 14.5581 12.701H12.6651V11.6411H15.2232V10.3078H12Z" fill="#343A3D"/>
<path d="M15.9396 17.4871H18.4977V16.4272L16.6047 16.4272C16.2373 16.4272 15.9396 16.1288 15.9396 15.7606V13.3674C15.9396 12.9992 16.2373 12.7008 16.6047 12.7008H18.4977V11.6409H15.9396V10.3076H19.1628C19.5301 10.3076 19.8279 10.6061 19.8279 10.9743V13.3674C19.8279 13.7356 19.5301 14.0341 19.1628 14.0341H17.2698V15.0939H19.1628C19.5301 15.0939 19.8279 15.3924 19.8279 15.7606V18.1537C19.8279 18.5219 19.5301 18.8204 19.1628 18.8204H15.9396V17.4871Z" fill="#343A3D"/>
<path d="M1 3.55819C1 2.69762 1.696 2 2.55456 2H6.37209C9.66395 2 12.3749 4.49289 12.7284 7.69796C13.6067 7.3309 14.5704 7.12821 15.5814 7.12821C19.6786 7.12821 23 10.4574 23 14.5641C23 18.6708 19.6786 22 15.5814 22C11.4847 22 8.16361 18.6717 8.16279 14.5656C7.59403 14.7316 6.99297 14.8205 6.37209 14.8205H2.55456C1.696 14.8205 1 14.1229 1 13.2623V3.55819ZM8.359 12.8579C8.77226 11.0936 9.81234 9.57147 11.2309 8.5404C11.232 8.49717 11.2326 8.45379 11.2326 8.41026C11.2326 5.71964 9.05645 3.53846 6.37209 3.53846H4.56951C5.63122 4.51416 6.62791 6.05937 6.62791 8.41033C6.62791 10.7612 5.63132 12.3063 4.56967 13.2821H6.37209C7.08142 13.2821 7.75336 13.1302 8.359 12.8579ZM5.09302 8.41033C5.09302 5.84934 3.60513 4.55542 2.53488 3.94554V12.8751C3.60513 12.2652 5.09302 10.9713 5.09302 8.41033ZM9.69767 14.5641C9.69767 17.8212 12.3319 20.4615 15.5814 20.4615C18.8309 20.4615 21.4651 17.8212 21.4651 14.5641C21.4651 11.307 18.8309 8.66667 15.5814 8.66667C12.3319 8.66667 9.69767 11.307 9.69767 14.5641Z" fill="#343A3D"/>
</svg>
