<svg width="24" height="24" viewBox="0 0 24 24" fill="none" xmlns="http://www.w3.org/2000/svg">
<path fill-rule="evenodd" clip-rule="evenodd" d="M5 14C5 13.4477 5.44772 13 6 13H18C18.5523 13 19 13.4477 19 14C19 14.5523 18.5523 15 18 15H13V22C13 22.5523 12.5523 23 12 23C11.4477 23 11 22.5523 11 22V15H6C5.44772 15 5 14.5523 5 14Z" fill="#343A3D"/>
<path fill-rule="evenodd" clip-rule="evenodd" d="M2 9C2.55229 9 3 9.44772 3 10L3 16H6C7.10457 16 8 16.8954 8 18V22C8 22.5523 7.55228 23 7 23C6.44772 23 6 22.5523 6 22V18H3V22C3 22.5523 2.55228 23 2 23C1.44772 23 1 22.5523 1 22L1 10C1 9.44771 1.44772 9 2 9Z" fill="#343A3D"/>
<path fill-rule="evenodd" clip-rule="evenodd" d="M22 9C22.5523 9 23 9.44771 23 10V22C23 22.5523 22.5523 23 22 23C21.4477 23 21 22.5523 21 22V18H18V22C18 22.5523 17.5523 23 17 23C16.4477 23 16 22.5523 16 22V18C16 16.8954 16.8954 16 18 16H21V10C21 9.44772 21.4477 9 22 9Z" fill="#343A3D"/>
<path fill-rule="evenodd" clip-rule="evenodd" d="M12 1C12.5523 1 13 1.44772 13 2V4.10131C13.4898 4.20635 13.9188 4.38986 14.2891 4.6367C14.8867 5.03511 15.2726 5.55916 15.5194 6.05279C15.7643 6.5425 15.8817 7.02011 15.9395 7.36685C15.9688 7.54259 15.9838 7.69123 15.9916 7.79985C15.9955 7.85432 15.9976 7.89923 15.9987 7.93299C15.9993 7.94989 15.9996 7.96405 15.9998 7.97527L16 7.98989L16 7.99552L16 7.9979L16 8C16 8.55228 15.5523 9 15 9H9C8.44772 9 8 8.55228 8 8C8.00022 8.02126 8 7.99899 8 7.99899L8 7.9979L8.00001 7.99552L8.00004 7.98989L8.00022 7.97527C8.0004 7.96405 8.00072 7.94989 8.00129 7.93299C8.00241 7.89923 8.00451 7.85432 8.0084 7.79985C8.01616 7.69123 8.03119 7.54259 8.06048 7.36685C8.11827 7.02011 8.23572 6.5425 8.48057 6.05279C8.72739 5.55916 9.11331 5.03511 9.71093 4.6367C10.0812 4.38986 10.5102 4.20635 11 4.10131V2C11 1.44772 11.4477 1 12 1ZM10.2439 7H13.7561C13.7478 6.98236 13.7393 6.96476 13.7306 6.94721C13.6024 6.69084 13.4258 6.46489 13.1797 6.3008C12.9398 6.14088 12.575 6 12 6C11.425 6 11.0602 6.14088 10.8203 6.3008C10.5742 6.46489 10.3976 6.69084 10.2694 6.94721C10.2607 6.96476 10.2522 6.98236 10.2439 7Z" fill="#343A3D"/>
</svg>
