<svg width="24" height="24" viewBox="0 0 24 24" fill="none" xmlns="http://www.w3.org/2000/svg">
<path fill-rule="evenodd" clip-rule="evenodd" d="M11 4C11 5.30622 10.1652 6.41746 9 6.82929V8L14.2586 8C14.8109 8 15.2586 8.44772 15.2586 9C15.2586 9.55229 14.8109 10 14.2586 10H9.00367L9 10V12H17C17.3788 12 17.725 12.214 17.8944 12.5528L20.4472 17.6584L21.5528 17.1056C22.0468 16.8586 22.6474 17.0588 22.8944 17.5528C23.1414 18.0468 22.9412 18.6474 22.4472 18.8944L20.4472 19.8944C19.9532 20.1414 19.3526 19.9412 19.1056 19.4472L16.382 14H8C7.44772 14 7 13.5523 7 13V10.4615C6.75358 10.58 6.51484 10.7208 6.28634 10.8834C5.47071 11.4637 4.81868 12.2979 4.42174 13.2917C4.02465 14.2858 3.90374 15.3881 4.07699 16.4603C4.25023 17.5323 4.70817 18.5169 5.38427 19.2956C6.05972 20.0735 6.92119 20.6102 7.85689 20.853C8.79168 21.0955 9.77119 21.0373 10.6787 20.6834C11.5874 20.329 12.3929 19.6897 12.988 18.8314C13.5835 17.9725 13.9388 16.9358 14.0017 15.8485C14.0336 15.2971 14.5064 14.876 15.0578 14.9079C15.6091 14.9398 16.0302 15.4127 15.9983 15.964C15.9148 17.4081 15.4426 18.8011 14.6316 19.9709C13.8201 21.1414 12.7015 22.0412 11.4054 22.5467C10.1082 23.0526 8.69876 23.1376 7.35461 22.7889C6.01136 22.4403 4.80348 21.6772 3.8741 20.6068C2.94537 19.5372 2.33311 18.2057 2.10261 16.7793C1.87212 15.3531 2.03158 13.8838 2.56442 12.5498C3.09741 11.2154 3.98426 10.0668 5.12686 9.25381C5.70609 8.84168 6.33771 8.52555 7 8.31382V6.82929C5.83481 6.41746 5 5.30622 5 4C5 2.34315 6.34315 1 8 1C9.65685 1 11 2.34315 11 4ZM8 3C7.44772 3 7 3.44772 7 4C7 4.55228 7.44772 5 8 5C8.55228 5 9 4.55228 9 4C9 3.44772 8.55228 3 8 3Z" fill="#343A3D"/>
</svg>
