<svg width="24" height="24" viewBox="0 0 24 24" fill="none" xmlns="http://www.w3.org/2000/svg">
<path d="M15 4C14.4477 4 14 4.44772 14 5C14 5.55228 14.4477 6 15 6H16C16.5523 6 17 5.55228 17 5C17 4.44772 16.5523 4 16 4H15Z" fill="#343A3D"/>
<path d="M5 1C3.34315 1 2 2.34315 2 4V18C2 19.6569 3.34315 21 5 21H17C18.6569 21 20 19.6569 20 18V4C20 2.34315 18.6569 1 17 1H5ZM4 4C4 3.44772 4.44772 3 5 3H17C17.5523 3 18 3.44772 18 4V7H4V4ZM4 9H18V18C18 18.5523 17.5523 19 17 19H16.0315C16.9513 18.2991 17.5354 17.1836 17.51 15.9389C17.4678 13.8682 15.755 12.2239 13.6844 12.2661C13.3662 12.2725 13.057 12.3187 12.7619 12.4C11.9421 11.5376 10.7838 11 9.5 11C7.01472 11 5 13.0147 5 15.5C5 16.9136 5.65183 18.175 6.67133 19H5C4.44772 19 4 18.5523 4 18V9ZM13.6545 13.7678C13.6746 13.7668 13.6947 13.7662 13.715 13.7657C14.9573 13.7404 15.985 14.7271 16.0103 15.9694C16.0356 17.2118 15.049 18.2395 13.8066 18.2648C13.5675 18.2697 13.3371 18.2373 13.1204 18.1731C13.6732 17.4256 14 16.501 14 15.5C14 14.8861 13.8771 14.301 13.6545 13.7678ZM9.5 18.5C7.84315 18.5 6.5 17.1569 6.5 15.5C6.5 13.8431 7.84315 12.5 9.5 12.5C11.1569 12.5 12.5 13.8431 12.5 15.5C12.5 17.1569 11.1569 18.5 9.5 18.5Z" fill="#343A3D"/>
</svg>
