<svg width="24px" height="24px" viewBox="0 0 24 24" version="1.1" xmlns="http://www.w3.org/2000/svg" xmlns:xlink="http://www.w3.org/1999/xlink">
    <g id="Utilidades" stroke="none" stroke-width="1" fill="none" fill-rule="evenodd">
        <g id="Icons" transform="translate(-316.000000, -4051.000000)" fill="#343A3D" fill-rule="nonzero">
            <g id="Group-17" transform="translate(316.000000, 4051.000000)">
                <path d="M16.617053,11.8886101 C16.4511164,11.5284858 16.7503358,11.1277386 17.1427646,11.1845198 C18.3631939,11.3611058 19.5278478,10.9620087 20.2639134,10.0938132 C21.4842293,8.65444058 21.1589856,6.36769386 19.4991283,4.98921917 C17.8364515,3.60840298 15.4958024,3.68878274 14.2726889,5.13145514 C13.5780164,5.95082708 13.3653987,7.0685617 13.6740588,8.16969928 C13.7806543,8.54997605 13.4250239,8.89791438 13.0471685,8.78303035 C12.5003939,8.61678772 11.928347,8.5313041 11.3441208,8.5313041 C10.8697378,8.5313041 10.403233,8.5876589 9.9514589,8.69801063 C9.58461714,8.78761652 9.25465654,8.45381581 9.34850094,8.08803538 C9.6245955,7.01189232 9.40491638,5.92994124 8.72795113,5.13145514 C7.50483767,3.68878274 5.1641885,3.60840298 3.50151172,4.98921917 C1.8416544,6.36769386 1.51641075,8.65444058 2.7367266,10.0938132 C3.4120121,10.890318 4.44833082,11.2939106 5.56612882,11.2158148 C5.94383553,11.1894261 6.21268191,11.5761234 6.05639211,11.9209889 C5.72522102,12.6517435 5.55177769,13.4461372 5.55177769,14.265643 C5.55177769,17.431589 8.14406678,19.9999818 11.3441208,19.9999818 C14.5441747,19.9999818 17.1364638,17.431589 17.1364638,14.265643 C17.1364638,13.433937 16.9578104,12.6281401 16.617053,11.8886101 Z M18.1364638,14.265643 C18.1364638,17.9859575 15.094397,20.9999818 11.3441208,20.9999818 C7.59384449,20.9999818 4.55177769,17.9859575 4.55177769,14.265643 C4.55177769,13.5582166 4.66203039,12.8656935 4.87512539,12.2070021 C3.73935298,12.1068831 2.70205879,11.5992856 1.97396394,10.7404917 C0.377328599,8.85724718 0.792357863,5.93922929 2.86262467,4.21991862 C4.93007201,2.50294945 7.89687605,2.60483186 9.49071379,4.48477661 C10.2231715,5.34871651 10.5484246,6.45694941 10.4463036,7.58966808 C10.742183,7.55090266 11.0419165,7.5313041 11.3441208,7.5313041 C11.7549532,7.5313041 12.1610861,7.56752757 12.5589876,7.63879548 C12.4429876,6.49015722 12.7663317,5.36185248 13.5099262,4.48477661 C15.103764,2.60483186 18.070568,2.50294945 20.1380153,4.21991862 C22.2082822,5.93922929 22.6233114,8.85724718 21.0266761,10.7404917 C20.2313498,11.6785856 19.0688053,12.1951311 17.8186572,12.2242043 C18.0281022,12.877685 18.1364638,13.5643203 18.1364638,14.265643 Z" id="Path"></path>
            </g>
        </g>
    </g>
</svg>