<svg width="24" height="24" viewBox="0 0 24 24" fill="none" xmlns="http://www.w3.org/2000/svg">
<path fill-rule="evenodd" clip-rule="evenodd" d="M8.83712 5.05835C7.84551 3.82342 5.84836 3.641 4.33157 4.97099C2.808 6.30693 2.62293 8.4261 3.62695 9.67646C4.20167 10.3922 5.08045 10.7453 6.02894 10.6754C6.37868 10.6496 6.71605 10.8136 6.91806 11.1075C7.12006 11.4015 7.15719 11.7825 7.0159 12.1117C6.718 12.8057 6.55147 13.5768 6.55147 14.3919C6.55147 17.48 8.93944 19.9487 11.8438 19.9487C14.7482 19.9487 17.1362 17.48 17.1362 14.3919C17.1362 13.5645 16.9646 12.7824 16.6581 12.0802C16.5089 11.7382 16.5533 11.3399 16.7741 11.0414C16.9949 10.7428 17.3568 10.5915 17.7182 10.6467C18.7611 10.8061 19.7488 10.4539 20.3731 9.67646C21.3771 8.4261 21.192 6.30693 19.6685 4.97099C18.1517 3.641 16.1545 3.82342 15.1629 5.05835C14.5688 5.79825 14.3885 6.81675 14.6572 7.82858C14.7532 8.19022 14.6492 8.57677 14.386 8.83678C14.1229 9.09679 13.7424 9.18886 13.3936 9.07691C12.9046 8.91991 12.3845 8.83512 11.8438 8.83512C11.4058 8.83512 10.9815 8.89077 10.5764 8.99525C10.2356 9.08313 9.87486 8.98113 9.62614 8.72656C9.37742 8.47199 9.27722 8.1022 9.36219 7.75251C9.60206 6.76537 9.41652 5.77991 8.83712 5.05835ZM3.03195 3.41177C5.24529 1.47101 8.5556 1.48103 10.3809 3.75424C11.0931 4.64111 11.4385 5.712 11.4624 6.79404C11.5888 6.78723 11.7159 6.78378 11.8438 6.78378C12.0775 6.78378 12.3088 6.79529 12.5372 6.8178C12.5564 5.72764 12.9016 4.64778 13.6191 3.75424C15.4444 1.48103 18.7547 1.47101 20.9681 3.41177C23.1746 5.34658 23.7298 8.7228 21.9169 10.9806C21.1398 11.9484 20.0777 12.509 18.9504 12.6792C19.072 13.2303 19.1362 13.8037 19.1362 14.3919C19.1362 18.5746 15.8898 22 11.8438 22C7.79786 22 4.55147 18.5746 4.55147 14.3919C4.55147 13.7842 4.61994 13.1923 4.74951 12.6244C3.73475 12.4054 2.79016 11.8611 2.08313 10.9806C0.270195 8.7228 0.825404 5.34658 3.03195 3.41177Z" fill="#343A3D"/>
</svg>
