<svg width="24" height="24" viewBox="0 0 24 24" fill="none" xmlns="http://www.w3.org/2000/svg">
<path d="M20 6C20.5523 6 21 6.44772 21 7V17C21 17.5523 20.5523 18 20 18H4C3.44772 18 3 17.5523 3 17V7C3 6.44772 3.44772 6 4 6H20ZM4 4C2.34315 4 1 5.34315 1 7V17C1 18.6569 2.34315 20 4 20H20C21.6569 20 23 18.6569 23 17V7C23 5.34315 21.6569 4 20 4H4Z" fill="#323439"/>
<path d="M6.94516 14.6595C6.50605 14.6595 6.12499 14.5863 5.80197 14.4399C5.47895 14.2885 5.22912 14.0589 5.05247 13.751C4.87582 13.4381 4.78749 13.0393 4.78749 12.5548V9.74432C4.78749 9.20588 5.83983 9.20533 5.83983 9.7438V12.5548C5.83983 12.9687 5.93825 13.2765 6.13509 13.4784C6.33193 13.6753 6.60195 13.7737 6.94516 13.7737C7.28837 13.7737 7.55587 13.6753 7.74766 13.4784C7.9445 13.2765 8.04292 12.9687 8.04292 12.5548V9.74432C8.04292 9.20595 9.09526 9.20605 9.09526 9.74432V12.5548C9.09526 13.0393 9.00693 13.4381 8.83028 13.751C8.65868 14.0589 8.41136 14.2885 8.08834 14.4399C7.77037 14.5863 7.38931 14.6595 6.94516 14.6595Z" fill="#323439"/>
<path d="M12.5346 9.33829C12.8371 9.39856 13.1264 9.47791 13.3819 9.6278C13.8112 9.87958 14.1528 10.3113 14.1528 10.9176C14.1528 11.2149 13.9117 11.456 13.6143 11.456C13.317 11.456 13.0759 11.2149 13.0759 10.9176C13.0759 10.7748 13.0136 10.6602 12.8371 10.5567C12.643 10.4428 12.3445 10.3721 12.0092 10.3785C11.675 10.3849 11.3688 10.4667 11.1652 10.5887C10.9688 10.7064 10.9221 10.8202 10.9221 10.9176C10.9221 10.9873 10.9363 11.0622 11.1441 11.1742C11.3765 11.2996 11.7084 11.3878 12.1322 11.4961C12.1441 11.4991 12.156 11.5021 12.168 11.5052C12.5452 11.6014 13.0032 11.7182 13.3649 11.913C13.7627 12.1273 14.1528 12.4991 14.1528 13.1168C14.1528 13.7114 13.79 14.1226 13.3751 14.3579C13.1229 14.5008 12.877 14.5802 12.5369 14.6419C12.1235 14.7169 11.8745 14.717 11.4611 14.6421C11.1212 14.5806 10.8753 14.5014 10.6232 14.3587C10.2084 14.1238 9.84526 13.7129 9.84526 13.1184C9.84526 12.821 10.0863 12.5799 10.3837 12.5799C10.6811 12.5799 10.9221 12.821 10.9221 13.1184C10.9221 13.2099 10.9628 13.3135 11.1538 13.4216C11.3546 13.5353 11.6605 13.6088 11.9989 13.6087C12.3373 13.6087 12.6431 13.535 12.844 13.4211C13.0348 13.3129 13.0759 13.209 13.0759 13.1168C13.0759 13.0478 13.0621 12.9731 12.8542 12.8611C12.6217 12.7359 12.2898 12.6477 11.8658 12.5395C11.8543 12.5365 11.8426 12.5335 11.8309 12.5306C11.4535 12.4343 10.995 12.3173 10.6329 12.1221C10.2349 11.9074 9.84526 11.5353 9.84526 10.9176C9.84526 10.3274 10.2024 9.91019 10.6117 9.66493C10.8671 9.51191 11.1441 9.41118 11.4654 9.35446C11.7867 9.29773 12.232 9.27802 12.5346 9.33829Z" fill="#323439"/>
<path d="M17.0565 8.5C17.3539 8.5 17.5949 8.74107 17.5949 9.03844V9.30766C17.5949 9.3266 17.594 9.34532 17.5921 9.36377C17.8907 9.4105 18.1839 9.50339 18.4394 9.65327C18.8687 9.90505 19.2103 10.3368 19.2103 10.943C19.2103 11.2404 18.9692 11.4815 18.6718 11.4815C18.3745 11.4815 18.1334 11.2404 18.1334 10.943C18.1334 10.8003 18.0711 10.6857 17.8946 10.5822C17.7005 10.4683 17.402 10.3976 17.0667 10.404C16.7325 10.4103 16.4263 10.4921 16.2227 10.6141C16.0263 10.7318 15.9796 10.8456 15.9796 10.943C15.9796 11.0128 15.9938 11.0877 16.2016 11.1997C16.434 11.325 16.7659 11.4133 17.1897 11.5215C17.2016 11.5246 17.2135 11.5276 17.2255 11.5307C17.6027 11.6269 18.0607 11.7437 18.4224 11.9385C18.8202 12.1528 19.2103 12.5245 19.2103 13.1423C19.2103 13.7369 18.8475 14.1481 18.4326 14.3833C18.1804 14.5263 17.8906 14.6183 17.5944 14.6674C17.5948 14.6756 17.5949 14.6838 17.5949 14.692V14.9613C17.5949 15.2586 17.3539 15.4997 17.0565 15.4997C16.7591 15.4997 16.5181 15.2586 16.5181 14.9613V14.692C16.5181 14.6838 16.5183 14.6757 16.5186 14.6676C16.2226 14.6187 15.9328 14.5269 15.6807 14.3841C15.2659 14.1493 14.9028 13.7384 14.9028 13.1439C14.9028 12.8465 15.1438 12.6054 15.4412 12.6054C15.7386 12.6054 15.9796 12.8465 15.9796 13.1439C15.9796 13.2353 16.0203 13.3389 16.2113 13.447C16.4122 13.5608 16.718 13.6343 17.0564 13.6342C17.3948 13.6341 17.7006 13.5604 17.9015 13.4465C18.0923 13.3383 18.1334 13.2345 18.1334 13.1423C18.1334 13.0733 18.1196 12.9986 17.9117 12.8866C17.6792 12.7614 17.3473 12.6732 16.9233 12.5649C16.9118 12.562 16.9001 12.559 16.8884 12.556C16.511 12.4598 16.0525 12.3428 15.6904 12.1475C15.2924 11.9329 14.9028 11.5608 14.9028 10.943C14.9028 10.3529 15.2599 9.93567 15.6692 9.6904C15.9246 9.53739 16.22 9.43592 16.5229 9.37993C16.5197 9.35629 16.5181 9.33217 16.5181 9.30766V9.03844C16.5181 8.74107 16.7591 8.5 17.0565 8.5Z" fill="#323439"/>
</svg>
