<svg width="24" height="24" viewBox="0 0 24 24" fill="none" xmlns="http://www.w3.org/2000/svg">
<path fill-rule="evenodd" clip-rule="evenodd" d="M2.7264 2.03779C3.07841 1.93577 3.45527 2.04381 3.70952 2.31965C3.94957 2.58007 4.52923 3.20852 5.22003 3.83307C5.94069 4.48461 6.66537 5.02251 7.19774 5.21503C7.4558 5.30835 7.79039 5.36146 8.29205 5.44106C8.75225 5.51408 9.3256 5.607 9.88803 5.80374C10.4629 6.00483 11.0635 6.3257 11.5796 6.88014C11.6269 6.93105 11.6732 6.98345 11.7182 7.03736C11.7633 6.98345 11.8095 6.93105 11.8569 6.88014C12.3729 6.3257 12.9735 6.00483 13.5484 5.80374C14.1108 5.607 14.6842 5.51408 15.1444 5.44106C15.646 5.36146 15.9806 5.30835 16.2387 5.21503C16.771 5.02251 17.4957 4.48461 18.2164 3.83307C18.9072 3.20852 19.4868 2.58007 19.7269 2.31965C19.9811 2.04381 20.358 1.93577 20.71 2.03779C21.062 2.13982 21.3332 2.43569 21.4175 2.80965L21.4178 2.81097L21.4182 2.81274L21.4193 2.81758L21.4225 2.83241L21.4331 2.88216C21.4417 2.92404 21.4536 2.98314 21.4676 3.05778C21.4955 3.20693 21.532 3.41879 21.5687 3.67972C21.6419 4.19975 21.717 4.92411 21.7236 5.74111C21.7364 7.32791 21.4934 9.47981 20.2494 11.0862C19.0705 12.6085 17.5331 13.2372 16.4182 13.6932L16.339 13.7256C15.7417 13.9701 15.3291 14.146 15.0277 14.3564C14.7641 14.5403 14.6672 14.6951 14.6246 14.8797C14.4594 15.5968 14.621 16.4061 14.8897 17.1157C15.0192 17.4577 15.1623 17.7466 15.2724 17.9487C15.2744 17.9522 15.2763 17.9557 15.2782 17.9591C15.293 17.9409 15.3079 17.9226 15.3229 17.9041C16.0883 16.9636 17.1293 15.6842 18.9999 15.6842L19.0087 15.6842C19.2893 15.6842 19.9618 15.6841 20.7185 16.0381C21.5044 16.4058 22.2963 17.1125 22.8942 18.3714C23.1412 18.8913 22.941 19.5236 22.447 19.7836C21.953 20.0436 21.3524 19.8328 21.1054 19.3129C20.7033 18.4664 20.2452 18.1205 19.9062 17.9619C19.546 17.7934 19.2247 17.7895 18.9999 17.7895C18.0763 17.7895 17.6279 18.3299 16.7377 19.4025L16.6275 19.5353C16.1819 20.0713 15.63 20.7023 14.8834 21.186C14.1147 21.6839 13.1829 22 12 22C10.8171 22 9.88534 21.6839 9.11659 21.186C8.36997 20.7023 7.81805 20.0713 7.37252 19.5353L7.26232 19.4025C6.37215 18.3299 5.92366 17.7895 5.00014 17.7895C4.77529 17.7895 4.454 17.7934 4.0938 17.9619C3.75477 18.1205 3.29666 18.4664 2.89461 19.3129C2.64762 19.8328 2.04696 20.0436 1.55299 19.7836C1.05903 19.5236 0.858805 18.8913 1.10579 18.3714C1.70372 17.1125 2.49558 16.4058 3.28154 16.0381C4.03825 15.6841 4.71068 15.6842 4.9913 15.6842L5.00014 15.6842C6.63368 15.6842 7.63458 16.6599 8.37174 17.5336C8.43004 17.4065 8.48967 17.2663 8.54668 17.1157C8.81542 16.4061 8.97701 15.5968 8.81177 14.8797C8.76923 14.6951 8.67228 14.5403 8.40871 14.3564C8.10731 14.146 7.69468 13.9701 7.0974 13.7256L7.01823 13.6932C5.90329 13.2372 4.36593 12.6085 3.18702 11.0862C1.94301 9.47981 1.70002 7.32791 1.71279 5.74111C1.71937 4.92411 1.79451 4.19975 1.86767 3.67972C1.90437 3.41879 1.94092 3.20693 1.96884 3.05778C1.98282 2.98314 1.99467 2.92404 2.00335 2.88216L2.01387 2.83241L2.01711 2.81758L2.01818 2.81274L2.01858 2.81097L2.01888 2.80965C2.10317 2.43569 2.37438 2.13982 2.7264 2.03779ZM13.7887 19.4226L13.7777 19.4056C13.7634 19.3832 13.7442 19.3527 13.7208 19.3144C13.6742 19.2381 13.6108 19.1305 13.5377 18.9963C13.3921 18.7292 13.204 18.3498 13.0319 17.8953C12.6975 17.0121 12.374 15.7161 12.681 14.3835C12.8747 13.5432 13.3688 12.9882 13.9226 12.6017C14.4279 12.2491 15.0436 11.997 15.5801 11.7774L15.6139 11.7635C16.7767 11.2874 17.8684 10.8289 18.6992 9.75597C19.4932 8.73077 19.7353 7.19846 19.7237 5.75895C19.7223 5.58632 19.7173 5.41811 19.7096 5.25587C19.6473 5.31377 19.5838 5.37194 19.5194 5.43014C18.7847 6.09439 17.8115 6.87228 16.8885 7.20607C16.4522 7.36387 15.9506 7.44279 15.5358 7.50807L15.4425 7.52281C14.9697 7.59781 14.557 7.66937 14.1791 7.80158C13.8136 7.92944 13.5195 8.10199 13.2855 8.35346C13.0725 8.58222 12.8643 8.92451 12.7193 9.47371C12.678 9.90625 12.3829 10.2839 11.9587 10.3917C11.8781 10.4122 11.7975 10.4217 11.7182 10.4213C11.6389 10.4217 11.5583 10.4122 11.4777 10.3917C11.0535 10.2839 10.7584 9.90625 10.7171 9.47371C10.5722 8.92451 10.3639 8.58222 10.151 8.35346C9.9169 8.10199 9.62285 7.92944 9.25734 7.80158C8.8794 7.66937 8.46667 7.59781 7.99395 7.52281L7.90057 7.50807C7.48578 7.44279 6.98426 7.36387 6.54793 7.20607C5.62493 6.87228 4.65168 6.09439 3.91697 5.43014C3.85259 5.37194 3.78915 5.31377 3.72679 5.25587C3.71908 5.41811 3.71407 5.58632 3.71268 5.75895C3.7011 7.19846 3.94323 8.73077 4.73717 9.75597C5.56803 10.8289 6.65976 11.2874 7.82247 11.7635L7.8563 11.7774C8.39279 11.997 9.00853 12.2491 9.51385 12.6017C10.0677 12.9882 10.5617 13.5432 10.7554 14.3835C11.0625 15.7161 10.7389 17.0121 10.4045 17.8953C10.2324 18.3498 10.0443 18.7292 9.89872 18.9963C9.87083 19.0475 9.84437 19.0948 9.81971 19.1379C9.93057 19.2302 10.0449 19.3153 10.1648 19.393C10.6147 19.6845 11.183 19.8947 12 19.8947C12.7891 19.8947 13.3461 19.6986 13.7887 19.4226Z" fill="#343A3D"/>
</svg>
