<svg width="24" height="24" viewBox="0 0 24 24" fill="none" xmlns="http://www.w3.org/2000/svg">
<path d="M8 2C7.44772 2 7 2.44772 7 3V7C7 7.10497 7.01649 7.20795 7.04783 7.30559C7.0163 7.53255 7 7.76437 7 8C7 10.7614 9.23858 13 12 13C14.7614 13 17 10.7614 17 8C17 7.76437 16.9837 7.53254 16.9522 7.30559C16.9835 7.20794 17 7.10497 17 7V3C17 2.44772 16.5523 2 16 2H8ZM14.992 7.77877C14.9973 7.85182 15 7.92559 15 8C15 9.65685 13.6569 11 12 11C10.3431 11 9 9.65685 9 8C9 7.92559 9.00271 7.85182 9.00803 7.77877L11.2724 7.21268C11.7501 7.09325 12.2499 7.09325 12.7276 7.21268L14.992 7.77877ZM9 5.71922V4H15V5.71922L13.2127 5.27239C12.4165 5.07334 11.5835 5.07334 10.7873 5.27239L9 5.71922Z" fill="#444444"/>
<path d="M21 22C21.5523 22 22 21.5523 22 21C22 18.9048 20.7261 17.1303 18.9187 15.9253C18.491 15.6402 18.028 15.3825 17.5354 15.1552C17.4523 15.1023 17.363 15.063 17.2707 15.0372C15.7292 14.3736 13.9184 14 12 14C10.0816 14 8.27085 14.3736 6.72927 15.0372C6.63701 15.063 6.54773 15.1023 6.46456 15.1552C5.97197 15.3825 5.50902 15.6402 5.08134 15.9253C3.27388 17.1303 2 18.9048 2 21C2 21.5523 2.44772 22 3 22H21ZM17.8093 17.5894C18.861 18.2905 19.5396 19.1279 19.833 20H14.4142L17.1944 17.2198C17.4098 17.3365 17.615 17.4599 17.8093 17.5894ZM12 19.5858L8.83075 16.4165C9.79697 16.1503 10.8668 16 12 16C13.1332 16 14.203 16.1503 15.1693 16.4165L12 19.5858ZM9.58579 20H4.16698C4.46041 19.1279 5.13904 18.2905 6.19074 17.5894C6.38497 17.4599 6.59021 17.3365 6.80564 17.2199L9.58579 20Z" fill="#444444"/>
</svg>
