<svg width="24" height="24" viewBox="0 0 24 24" fill="none" xmlns="http://www.w3.org/2000/svg">
<path d="M13.6152 18.75H14.7408C15.9193 18.75 16.5095 17.3548 15.6762 16.5389C15.3553 16.2247 15.1519 15.8137 15.0989 15.3724L14.9469 14.1074C14.8518 13.316 14.5781 12.0808 13.4395 11.5561C13.1717 11.4327 12.8621 11.3347 12.5106 11.2852V11C12.5106 10.7239 12.282 10.5 12 10.5C11.718 10.5 11.4894 10.7239 11.4894 11V11.2852C11.1379 11.3347 10.8283 11.4327 10.5605 11.5561C9.42195 12.0808 9.14825 13.316 9.05316 14.1074L8.90117 15.3724C8.84815 15.8137 8.64477 16.2247 8.32387 16.5389C7.49056 17.3548 8.08074 18.75 9.25923 18.75H10.3848C10.6716 19.3412 11.287 19.75 12 19.75C12.713 19.75 13.3284 19.3412 13.6152 18.75ZM12 12.75C12.3309 12.75 12.5889 12.8219 12.7871 12.9133C13.1144 13.0641 13.3312 13.4987 13.4254 14.2827L13.5774 15.5477C13.6521 16.1694 13.8964 16.7568 14.2807 17.25H9.7193C10.1036 16.7568 10.3479 16.1694 10.4226 15.5477L10.5746 14.2827C10.6688 13.4987 10.8857 13.0641 11.2129 12.9133C11.4111 12.8219 11.6692 12.75 12 12.75Z" fill="#343A3D"/>
<path d="M12 8C12.8461 8 13.5319 7.32843 13.5319 6.5C13.5319 5.67157 12.8461 5 12 5C11.1539 5 10.4681 5.67157 10.4681 6.5C10.4681 7.32843 11.1539 8 12 8Z" fill="#343A3D"/>
<path d="M4.85106 6C4.85106 3.23858 7.13727 1 9.95745 1H14.0426C16.8627 1 19.1489 3.23858 19.1489 6V18C19.1489 20.7614 16.8627 23 14.0426 23H9.95745C7.13727 23 4.85106 20.7614 4.85106 18V6ZM9.95745 3C8.26534 3 6.89362 4.34315 6.89362 6V18C6.89362 19.6569 8.26534 21 9.95745 21H14.0426C15.7347 21 17.1064 19.6569 17.1064 18V6C17.1064 4.34315 15.7347 3 14.0426 3H9.95745Z" fill="#343A3D"/>
<path d="M21.5951 14.5565C22.7591 13.0023 22.7591 10.9977 21.5951 9.44351C21.3449 9.10949 21.4187 8.64014 21.7598 8.39519C22.1009 8.15023 22.5803 8.22244 22.8304 8.55647C24.3899 10.6386 24.3899 13.3613 22.8304 15.4435C22.5803 15.7775 22.1009 15.8497 21.7598 15.6048C21.4187 15.3598 21.3449 14.8905 21.5951 14.5565Z" fill="#343A3D"/>
<path d="M20.1656 11.055C20.2031 11.0883 20.2736 11.1807 20.3338 11.3663C20.3918 11.5448 20.4255 11.7662 20.4255 12C20.4255 12.2338 20.3918 12.4552 20.3338 12.6337C20.2736 12.8194 20.2031 12.9117 20.1656 12.9451C19.8526 13.2237 19.8295 13.698 20.1141 14.0045C20.3986 14.311 20.8831 14.3336 21.1961 14.055C21.499 13.7853 21.6839 13.4269 21.7938 13.0879C21.9061 12.7418 21.9574 12.3647 21.9574 12C21.9574 11.6354 21.9061 11.2582 21.7938 10.9121C21.6839 10.5731 21.499 10.2147 21.1961 9.94505C20.8831 9.66642 20.3986 9.68901 20.1141 9.9955C19.8295 10.302 19.8526 10.7763 20.1656 11.055Z" fill="#343A3D"/>
<path d="M2.40491 14.5565C1.24092 13.0023 1.24092 10.9977 2.40491 9.44351C2.65507 9.10949 2.58132 8.64014 2.24019 8.39519C1.89906 8.15023 1.41972 8.22244 1.16956 8.55647C-0.389854 10.6386 -0.389854 13.3613 1.16956 15.4435C1.41972 15.7775 1.89906 15.8497 2.24019 15.6048C2.58132 15.3598 2.65507 14.8905 2.40491 14.5565Z" fill="#343A3D"/>
<path d="M3.83439 11.055C3.79689 11.0883 3.72641 11.1807 3.66617 11.3663C3.60825 11.5448 3.57447 11.7662 3.57447 12C3.57447 12.2338 3.60824 12.4552 3.66617 12.6337C3.7264 12.8194 3.79689 12.9117 3.83439 12.9451C4.1474 13.2237 4.17047 13.698 3.88591 14.0045C3.60135 14.311 3.11692 14.3336 2.80391 14.055C2.50098 13.7853 2.31615 13.4269 2.20617 13.0879C2.09388 12.7418 2.04255 12.3647 2.04255 12C2.04255 11.6354 2.09388 11.2582 2.20617 10.9121C2.31615 10.5731 2.50098 10.2147 2.80391 9.94505C3.11692 9.66642 3.60135 9.68901 3.88591 9.9955C4.17047 10.302 4.1474 10.7763 3.83439 11.055Z" fill="#343A3D"/>
</svg>
