<svg width="24" height="24" viewBox="0 0 24 24" fill="none" xmlns="http://www.w3.org/2000/svg">
<path fill-rule="evenodd" clip-rule="evenodd" d="M13.4672 5C11.4047 5 9.44721 5.90956 8.11717 7.4859L5.15215 11H20V6C20 5.44772 19.5523 5 19 5H13.4672ZM20 13H4V18C4 18.5523 4.44772 19 5 19H19C19.5523 19 20 18.5523 20 18V13ZM6.58859 6.19616C8.29864 4.16944 10.8154 3 13.4672 3H19C20.6569 3 22 4.34315 22 6V18C22 19.6569 20.6569 21 19 21H5C3.34315 21 2 19.6569 2 18V12.731C2 12.0229 2.25048 11.3376 2.70713 10.7964L6.58859 6.19616ZM14 15C14 14.4477 14.4477 14 15 14H17C17.5523 14 18 14.4477 18 15C18 15.5523 17.5523 16 17 16H15C14.4477 16 14 15.5523 14 15Z" fill="#343A3D"/>
</svg>
