<svg width="24" height="24" viewBox="0 0 24 24" fill="none" xmlns="http://www.w3.org/2000/svg">
<path d="M3 5V9.17071C1.83481 9.58254 1 10.6938 1 12V22C1 22.5523 1.44772 23 2 23C2.55228 23 3 22.5523 3 22L3 19H21V22C21 22.5523 21.4477 23 22 23C22.5523 23 23 22.5523 23 22V12C23 10.6938 22.1652 9.58254 21 9.17071V5C21 3.34315 19.6569 2 18 2H6C4.34315 2 3 3.34315 3 5ZM6 4H18C18.5523 4 19 4.44772 19 5V9H17V7C17 5.89543 16.1046 5 15 5H9C7.89543 5 7 5.89543 7 7V9H5V5C5 4.44772 5.44772 4 6 4ZM11 9H9V7H11V9ZM13 9V7H15V9H13ZM4 11H20C20.5523 11 21 11.4477 21 12V17H3V12C3 11.4477 3.44772 11 4 11Z" fill="#343A3D"/>
</svg>
