<svg width="24" height="24" viewBox="0 0 24 24" fill="none" xmlns="http://www.w3.org/2000/svg">
<path d="M10.9296 2.13745C10.9296 1.50996 11.4082 1 12 1C12.5918 1 13.0704 1.50996 13.0704 2.13745V15.1152L16.1724 11.8168C16.5905 11.3723 17.2686 11.3723 17.6867 11.8168C18.1044 12.261 18.1044 12.9807 17.6867 13.4249L12.7572 18.6666C12.5565 18.88 12.2841 19 12 19C11.7159 19 11.4435 18.88 11.2428 18.6666L6.31327 13.4249C5.89558 12.9807 5.89558 12.261 6.31327 11.8168C6.73135 11.3723 7.40949 11.3723 7.82757 11.8168L10.9296 15.1152V2.13745ZM2 21C1.44772 21 1 21.4477 1 22C1 22.5523 1.44772 23 2 23H22C22.5523 23 23 22.5523 23 22C23 21.4477 22.5523 21 22 21H2Z" fill="#323439"/>
</svg>
