<svg width="24" height="24" viewBox="0 0 24 24" fill="none" xmlns="http://www.w3.org/2000/svg">
<path d="M16.2181 7.04214C16.6351 6.81343 16.9375 6.38277 16.9375 5.86207C16.9375 5.07116 16.2536 4.5 15.5 4.5C14.7464 4.5 14.0625 5.07116 14.0625 5.86207C14.0625 6.13821 14.2864 6.36207 14.5625 6.36207C14.8386 6.36207 15.0625 6.13821 15.0625 5.86207C15.0625 5.70076 15.2181 5.5 15.5 5.5C15.7819 5.5 15.9375 5.70076 15.9375 5.86207C15.9375 5.98937 15.8493 6.13166 15.6706 6.19525C15.4196 6.28462 15.0775 6.52285 15.0113 6.92731L11.192 8.84294C10.3672 9.25663 10.6616 10.5001 11.5843 10.5001H19.4161C20.3389 10.5001 20.6332 9.25663 19.8084 8.84294L16.2181 7.04214ZM18.8881 9.50008H12.1124L15.5002 7.80082L18.8881 9.50008Z" fill="#343A3D"/>
<path d="M6.75 12.5C7.16421 12.5 7.5 12.1642 7.5 11.75C7.5 11.3358 7.16421 11 6.75 11C6.33579 11 6 11.3358 6 11.75C6 12.1642 6.33579 12.5 6.75 12.5Z" fill="#343A3D"/>
<path d="M1 3C1 1.89543 1.89543 1 3 1H21C22.1046 1 23 1.89543 23 3V21C23 22.1046 22.1046 23 21 23H3C1.89543 23 1 22.1046 1 21V3ZM10 21H21V3H10V21ZM3 3V21H8V3L3 3Z" fill="#343A3D"/>
</svg>
