<svg width="24" height="24" viewBox="0 0 24 24" fill="none" xmlns="http://www.w3.org/2000/svg">
<path fill-rule="evenodd" clip-rule="evenodd" d="M5.8959 3.184C6.01089 2.50077 6.60786 2 7.30735 2H16.6926C17.3921 2 17.9891 2.50076 18.1041 3.184L18.903 7.93084C19.5575 11.8192 16.8221 15.3865 13.0099 15.9289V20H15.8221C16.3798 20 16.8319 20.4477 16.8319 21C16.8319 21.5523 16.3798 22 15.8221 22H8.17786C7.62013 22 7.16799 21.5523 7.16799 21C7.16799 20.4477 7.62013 20 8.17786 20H10.9901L10.9901 15.9289C7.17795 15.3865 4.4425 11.8192 5.09695 7.93084L5.8959 3.184ZM7.80615 4L7.28752 7.08137C8.65768 6.83314 10.4529 7.1015 12.3651 8.60714C14.3693 10.1853 16.0522 10.0647 16.9283 9.78505C17.0006 9.29324 16.9985 8.78049 16.9108 8.25964L16.1938 4H7.80615ZM16.0417 11.9489C14.6676 12.006 12.9363 11.6122 11.108 10.1726C9.2328 8.69599 7.7602 8.9087 7.02291 9.24148C7.109 11.8351 9.26313 14 12 14C13.6825 14 15.1447 13.1819 16.0417 11.9489Z" fill="#343A3D"/>
</svg>
