<svg width="24" height="24" viewBox="0 0 24 24" fill="none" xmlns="http://www.w3.org/2000/svg">
<path fill-rule="evenodd" clip-rule="evenodd" d="M8.56054 2.17194C8.28576 1.98591 7.9366 1.94829 7.62851 2.07153L2.62851 4.07153C2.16421 4.25725 1.90848 4.7574 2.02976 5.24254L3.02976 9.24254C3.14105 9.68771 3.54103 10 3.9999 10H4.9999V13C4.9999 13.5523 5.44762 14 5.9999 14C6.55219 14 6.9999 13.5523 6.9999 13V9C6.9999 8.44772 6.55219 8 5.9999 8H4.78068L4.18175 5.6043L7.29751 4.35799C7.38907 4.58051 7.50943 4.8171 7.66783 5.0547C8.37596 6.11691 9.70857 7 11.9999 7C14.2912 7 15.6239 6.11692 16.332 5.05471C16.4885 4.81998 16.6079 4.58624 16.699 4.36608C17.2425 4.58497 17.8869 4.842 18.4914 5.08226C18.9797 5.27634 19.4455 5.46087 19.8172 5.60792L19.2192 8H16.9999C16.4476 8 15.9999 8.44772 15.9999 9V16C15.9999 16.5523 16.4476 17 16.9999 17C17.5522 17 17.9999 16.5523 17.9999 16V10H20C20.4589 10 20.8588 9.6877 20.9701 9.24252L21.97 5.24252C22.0918 4.75557 21.8337 4.25383 21.3667 4.06971L20.7217 3.81494C20.3285 3.65944 19.7943 3.44791 19.2301 3.22369C18.0955 2.7727 16.8584 2.27775 16.3902 2.07931C16.0814 1.94839 15.7275 1.98104 15.4478 2.16625C15.0295 2.44327 15.0296 2.80727 14.9613 3.25182C14.9184 3.44462 14.8333 3.69721 14.6679 3.9453C14.376 4.38309 13.7086 5 11.9999 5C10.2912 5 9.62379 4.38309 9.33193 3.94531C9.16655 3.69723 9.08142 3.44464 9.03858 3.25184C9.01938 3.16543 9.00356 3.07643 8.99983 2.98777C8.99584 2.66057 8.83193 2.35569 8.56054 2.17194Z" fill="#343A3D"/>
<path fill-rule="evenodd" clip-rule="evenodd" d="M6.48002 17.0711C5.32915 17.3253 4.36404 18.2324 3.83961 19.0431C3.53965 19.5069 2.92055 19.6396 2.45683 19.3397C1.99311 19.0397 1.86035 18.4206 2.16032 17.9569C2.85623 16.881 4.20976 15.5243 6.04872 15.1182C7.9941 14.6885 10.1749 15.3834 12.2996 17.8469C14.0473 19.8733 15.6808 20.1768 16.9713 19.924C18.358 19.6524 19.5566 18.6946 20.2224 17.8713C20.5696 17.4418 21.1993 17.3751 21.6287 17.7224C22.0582 18.0696 22.1248 18.6993 21.7776 19.1288C20.9179 20.1919 19.3402 21.498 17.3557 21.8867C15.2751 22.2942 12.9424 21.6544 10.7851 19.1531C9.0047 17.0889 7.52447 16.8404 6.48002 17.0711Z" fill="#343A3D"/>
</svg>
