<svg width="24" height="24" viewBox="0 0 24 24" fill="none" xmlns="http://www.w3.org/2000/svg">
<path fill-rule="evenodd" clip-rule="evenodd" d="M12 3C7.02944 3 3 7.02944 3 12C3 16.9706 7.02944 21 12 21C16.9706 21 21 16.9706 21 12C21 7.02944 16.9706 3 12 3ZM1 12C1 5.92487 5.92487 1 12 1C18.0751 1 23 5.92487 23 12C23 18.0751 18.0751 23 12 23C5.92487 23 1 18.0751 1 12ZM12 6C12 5.44772 12.4477 5 13 5C14.5752 5 16.0668 5.77755 17.1446 6.85539C18.2225 7.93324 19 9.42477 19 11C19 11.5523 18.5523 12 18 12C17.4477 12 17 11.5523 17 11C17 10.0752 16.5275 9.06676 15.7304 8.26961C14.9332 7.47245 13.9248 7 13 7C12.4477 7 12 6.55228 12 6ZM12 10C10.8954 10 10 10.8954 10 12C10 13.1046 10.8954 14 12 14C13.1046 14 14 13.1046 14 12C14 10.8954 13.1046 10 12 10ZM8 12C8 9.79086 9.79086 8 12 8C14.2091 8 16 9.79086 16 12C16 14.2091 14.2091 16 12 16C9.79086 16 8 14.2091 8 12Z" fill="#343A3D"/>
</svg>
