<svg width="24" height="24" viewBox="0 0 24 24" fill="none" xmlns="http://www.w3.org/2000/svg">
<path d="M3.05493 11H6.58289C6.6122 10.5451 6.66452 10.0984 6.73738 9.66076C7.15317 7.1636 8.22902 5.01228 9.43281 3.37144C6.02128 4.38492 3.45659 7.3665 3.05493 11ZM12 3.39969C10.6237 4.87176 9.17638 7.18958 8.71022 9.98924C8.6554 10.3185 8.61393 10.6556 8.58781 11H15.4122C15.3861 10.6556 15.3446 10.3185 15.2898 9.98924C14.8236 7.18958 13.3763 4.87176 12 3.39969ZM15.3852 13H8.6148C8.85096 15.2928 9.82048 17.8278 12 20.4757C14.1795 17.8278 15.149 15.2928 15.3852 13ZM9.63719 20.6866C7.71906 18.0318 6.81763 15.4275 6.60564 13H3.05493C3.46457 16.7057 6.12406 19.7333 9.63719 20.6866ZM14.3628 20.6866C17.8759 19.7333 20.5354 16.7057 20.9451 13H17.3944C17.1824 15.4275 16.2809 18.0318 14.3628 20.6866ZM20.9451 11C20.5434 7.3665 17.9787 4.38492 14.5672 3.37144C15.771 5.01228 16.8468 7.1636 17.2626 9.66076C17.3355 10.0984 17.3878 10.5451 17.4171 11H20.9451ZM1 12C1 5.92487 5.92487 1 12 1C18.0751 1 23 5.92487 23 12C23 18.0751 18.0751 23 12 23C5.92487 23 1 18.0751 1 12Z" fill="#343A3D"/>
</svg>
