<svg width="24" height="24" viewBox="0 0 24 24" fill="none" xmlns="http://www.w3.org/2000/svg">
<path d="M13.7979 2.94895C14.9488 1.71428 16.8478 1.67993 18.0395 2.87224L20.1974 5.03111C21.3891 6.22343 21.4222 8.19089 20.2714 9.42556L9.02881 21.3674C8.6534 21.7701 8.13662 21.9983 7.59619 22H4C2.9181 22.0033 2.03558 21.1618 2.00102 20.0415V16.5095C1.98376 15.9499 2.18585 15.4069 2.56127 15.0041L13.7979 2.94895ZM16.6503 4.36263C16.2531 3.96519 15.6201 3.97664 15.2365 4.3882L13.972 5.7448L17.5801 9.33027L18.8328 7.98631C19.2165 7.57476 19.2054 6.91894 18.8082 6.5215L16.6503 4.36263ZM3.91133 16.5544V20.0198L7.59619 20.0415L16.1909 10.8207L12.5828 7.23519L3.91133 16.5544Z" fill="#343A3D"/>
<path d="M14.3545 20.0198C13.8267 20.0198 13.3989 20.4631 13.3989 21.0099C13.3989 21.5567 13.8267 22 14.3545 22H21.0443C21.5721 22 22 21.5567 22 21.0099C22 20.4631 21.5721 20.0198 21.0443 20.0198H14.3545Z" fill="#343A3D"/>
</svg>
