<svg width="24" height="24" viewBox="0 0 24 24" fill="none" xmlns="http://www.w3.org/2000/svg">
<path d="M12.5354 1.58187C13.1259 0.943047 13.9855 0.884601 14.6146 1.1453C15.2923 1.42614 15.9136 2.1794 15.6869 3.17384L14.3456 9.05145L18.1756 9.11005C19.5548 9.13112 20.608 10.7228 19.5998 11.9883L11.3803 22.3059C10.7792 23.0602 9.84554 23.1318 9.17819 22.843C8.50388 22.5512 7.89489 21.7867 8.13905 20.7959L9.56421 15.014H5.85412C4.47838 15.014 3.39409 13.4426 4.38218 12.1592L12.4213 1.71763L12.5354 1.58187ZM6.24599 13.0138H10.5731C11.3563 13.0138 11.9316 13.7502 11.7439 14.512L10.2709 20.4902L17.7496 11.1034L13.3396 11.037C12.5729 11.0251 12.0118 10.3083 12.1825 9.55932L13.5628 3.50884L6.24599 13.0138Z" fill="#323439"/>
</svg>
