<svg width="24" height="24" viewBox="0 0 24 24" fill="none" xmlns="http://www.w3.org/2000/svg">
<path d="M1 5C1 3.34315 2.34315 2 4 2H20C21.6569 2 23 3.34315 23 5V19C23 20.6569 21.6569 22 20 22H4C2.34315 22 1 20.6569 1 19V5ZM13 20H20C20.5523 20 21 19.5523 21 19V5C21 4.44772 20.5523 4 20 4H13V20ZM11 4H4C3.44772 4 3 4.44772 3 5V19C3 19.5523 3.44772 20 4 20H11V4ZM6.29289 7.29289C6.68342 6.90237 7.31658 6.90237 7.70711 7.29289L9.70711 9.29289C10.0976 9.68342 10.0976 10.3166 9.70711 10.7071C9.31658 11.0976 8.68342 11.0976 8.29289 10.7071L8 10.4142V15C8 15.5523 7.55228 16 7 16C6.44772 16 6 15.5523 6 15V10.4142L5.70711 10.7071C5.31658 11.0976 4.68342 11.0976 4.29289 10.7071C3.90237 10.3166 3.90237 9.68342 4.29289 9.29289L6.29289 7.29289ZM16 12.5858V8C16 7.44772 16.4477 7 17 7C17.5523 7 18 7.44772 18 8V12.5858L18.2929 12.2929C18.6834 11.9024 19.3166 11.9024 19.7071 12.2929C20.0976 12.6834 20.0976 13.3166 19.7071 13.7071L17.7071 15.7071C17.3166 16.0976 16.6834 16.0976 16.2929 15.7071L14.2929 13.7071C13.9024 13.3166 13.9024 12.6834 14.2929 12.2929C14.6834 11.9024 15.3166 11.9024 15.7071 12.2929L16 12.5858Z" fill="#343A3D"/>
</svg>
