<svg width="24" height="24" viewBox="0 0 24 24" fill="none" xmlns="http://www.w3.org/2000/svg">
<path fill-rule="evenodd" clip-rule="evenodd" d="M11.8284 5.24261C11.3049 6.03304 11 6.98092 11 8C11 10.7614 13.2386 13 16 13C17.0191 13 17.9669 12.6951 18.7574 12.1716L11.8284 5.24261ZM13.2426 3.8284L20.1716 10.7574C20.6951 9.96696 21 9.01908 21 8C21 5.23858 18.7614 3 16 3C14.9809 3 14.033 3.30488 13.2426 3.8284ZM9.00686 7.68691C9.17063 3.96621 12.2389 1 16 1C19.866 1 23 4.13401 23 8C23 11.7611 20.0338 14.8294 16.3131 14.9931L4.55469 22.8321C4.15806 23.0965 3.62994 23.0442 3.29288 22.7071L1.29288 20.7071C0.955815 20.37 0.903521 19.8419 1.16794 19.4453L9.00686 7.68691ZM9.48745 10.5716L3.28678 19.8726L4.1274 20.7132L13.4284 14.5125C11.6309 13.8022 10.1978 12.3691 9.48745 10.5716ZM10.7071 13.2929C11.0976 13.6834 11.0976 14.3166 10.7071 14.7071L9.70709 15.7071C9.31657 16.0976 8.6834 16.0976 8.29288 15.7071C7.90236 15.3166 7.90236 14.6834 8.29288 14.2929L9.29288 13.2929C9.6834 12.9024 10.3166 12.9024 10.7071 13.2929Z" fill="#343A3D"/>
</svg>
