<svg width="24" height="24" viewBox="0 0 24 24" fill="none" xmlns="http://www.w3.org/2000/svg">
<path fill-rule="evenodd" clip-rule="evenodd" d="M4 1C2.34315 1 1 2.34315 1 4V20C1 21.6569 2.34315 23 4 23H10C11.6569 23 13 21.6569 13 20V17H15C16.1046 17 17 16.1046 17 15V9C17 7.89543 16.1046 7 15 7H9C7.89543 7 7 7.89543 7 9V15C7 16.1046 7.89543 17 9 17H11V20C11 20.5523 10.5523 21 10 21H4C3.44772 21 3 20.5523 3 20V4C3 3.44772 3.44772 3 4 3H20C20.5523 3 21 3.44772 21 4V20C21 20.5523 20.5523 21 20 21H15C14.4477 21 14 21.4477 14 22C14 22.5523 14.4477 23 15 23H20C21.6569 23 23 21.6569 23 20V4C23 2.34315 21.6569 1 20 1H4ZM13 15V11.5C13 10.9477 12.5523 10.5 12 10.5C11.4477 10.5 11 10.9477 11 11.5V15H9V9H15V15H13Z" fill="#343A3D"/>
</svg>
