<svg width="24" height="24" viewBox="0 0 24 24" fill="none" xmlns="http://www.w3.org/2000/svg">
<path fill-rule="evenodd" clip-rule="evenodd" d="M10 2C9.44771 2 9 2.44772 9 3V9.70532L7.41711 10.6098L6.37867 8.5586C5.89467 7.60255 4.91415 6.99993 3.84257 6.99993C2.27266 6.99993 1 8.27259 1 9.8425V12.4999C1 13.0522 1.44772 13.4999 2 13.4999C2.55228 13.4999 3 13.0522 3 12.4999V9.8425C3 9.37716 3.37723 8.99993 3.84257 8.99993C4.1602 8.99993 4.45083 9.17855 4.5943 9.46193L5.78564 11.8152C6.21929 12.6718 7.28185 12.9906 8.11545 12.5143L9 12.0088V13C9 13.5523 9.44771 14 10 14H22C22.5523 14 23 13.5523 23 13V3C23 2.44772 22.5523 2 22 2H10ZM14.4961 8.86817L11 10.866V12H21V4H11V8.56246L13.5039 7.13168C13.9834 6.85767 14.5942 7.02427 14.8682 7.50379C15.1423 7.98331 14.9757 8.59416 14.4961 8.86817Z" fill="#343A3D"/>
<path fill-rule="evenodd" clip-rule="evenodd" d="M1.25 4.5C1.25 3.25736 2.25736 2.25 3.5 2.25C4.74264 2.25 5.75 3.25736 5.75 4.5C5.75 5.74264 4.74264 6.75 3.5 6.75C2.25736 6.75 1.25 5.74264 1.25 4.5ZM3.5 3.75C3.08579 3.75 2.75 4.08579 2.75 4.5C2.75 4.91421 3.08579 5.25 3.5 5.25C3.91421 5.25 4.25 4.91421 4.25 4.5C4.25 4.08579 3.91421 3.75 3.5 3.75Z" fill="#343A3D"/>
<path fill-rule="evenodd" clip-rule="evenodd" d="M3.75 17.75C3.75 16.5074 4.75736 15.5 6 15.5C7.24264 15.5 8.25 16.5074 8.25 17.75C8.25 18.9926 7.24264 20 6 20C4.75736 20 3.75 18.9926 3.75 17.75ZM6 17C5.58579 17 5.25 17.3358 5.25 17.75C5.25 18.1642 5.58579 18.5 6 18.5C6.41421 18.5 6.75 18.1642 6.75 17.75C6.75 17.3358 6.41421 17 6 17Z" fill="#343A3D"/>
<path fill-rule="evenodd" clip-rule="evenodd" d="M12 15.5C10.7574 15.5 9.75 16.5074 9.75 17.75C9.75 18.9926 10.7574 20 12 20C13.2426 20 14.25 18.9926 14.25 17.75C14.25 16.5074 13.2426 15.5 12 15.5ZM11.25 17.75C11.25 17.3358 11.5858 17 12 17C12.4142 17 12.75 17.3358 12.75 17.75C12.75 18.1642 12.4142 18.5 12 18.5C11.5858 18.5 11.25 18.1642 11.25 17.75Z" fill="#343A3D"/>
<path fill-rule="evenodd" clip-rule="evenodd" d="M15.75 17.75C15.75 16.5074 16.7574 15.5 18 15.5C19.2426 15.5 20.25 16.5074 20.25 17.75C20.25 18.9926 19.2426 20 18 20C16.7574 20 15.75 18.9926 15.75 17.75ZM18 17C17.5858 17 17.25 17.3358 17.25 17.75C17.25 18.1642 17.5858 18.5 18 18.5C18.4142 18.5 18.75 18.1642 18.75 17.75C18.75 17.3358 18.4142 17 18 17Z" fill="#343A3D"/>
<path d="M5 20.5C4.58579 20.5 4.25 20.8358 4.25 21.25C4.25 21.6642 4.58579 22 5 22H7C7.41421 22 7.75 21.6642 7.75 21.25C7.75 20.8358 7.41421 20.5 7 20.5H5Z" fill="#343A3D"/>
<path d="M10.25 21.25C10.25 20.8358 10.5858 20.5 11 20.5H13C13.4142 20.5 13.75 20.8358 13.75 21.25C13.75 21.6642 13.4142 22 13 22H11C10.5858 22 10.25 21.6642 10.25 21.25Z" fill="#343A3D"/>
<path d="M17 20.5C16.5858 20.5 16.25 20.8358 16.25 21.25C16.25 21.6642 16.5858 22 17 22H19C19.4142 22 19.75 21.6642 19.75 21.25C19.75 20.8358 19.4142 20.5 19 20.5H17Z" fill="#343A3D"/>
</svg>
