<svg width="24" height="24" viewBox="0 0 24 24" fill="none" xmlns="http://www.w3.org/2000/svg">
<path d="M15.857 4.7662L19.4421 6.85752C19.9292 7.14167 20.561 6.98811 20.8533 6.51452C21.1455 6.04094 20.9876 5.42668 20.5005 5.14254L18.5419 4H19.9713C20.5393 4 20.9998 3.55228 20.9998 3C20.9998 2.44772 20.5393 2 19.9713 2H14.8455C14.8348 1.99984 14.8241 1.99984 14.8134 2H9.68565C5.99327 2 3 4.91015 3 8.5V19C3 19.5523 3.4605 20 4.02856 20C4.59662 20 5.05712 19.5523 5.05712 19V8.5C5.05712 6.01472 7.12938 4 9.68565 4V6.41604C7.8693 7.1876 6.59996 8.94968 6.59996 11V20C6.59996 21.1046 7.52097 22 8.65708 22H16.8856C18.0217 22 18.9427 21.1046 18.9427 20V11C18.9427 8.94968 17.6734 7.1876 15.857 6.41604V4.7662ZM11.7428 6V4H13.7999V6H11.7428ZM16.8856 14H15.857V12H16.8856V14ZM16.71 10H14.8285C14.2604 10 13.7999 10.4477 13.7999 11V15C13.7999 15.5523 14.2604 16 14.8285 16H16.8856V17H8.65708V11C8.65708 9.34315 10.0386 8 11.7428 8H13.7999C15.1434 8 16.2864 8.83481 16.71 10ZM16.8856 19V20H8.65708V19H16.8856Z" fill="#343A3D"/>
</svg>
