<svg width="24" height="24" viewBox="0 0 24 24" fill="none" xmlns="http://www.w3.org/2000/svg">
<path d="M21.3354 3.30063C21.7331 3.69538 21.726 4.32851 21.3195 4.71476L15.2483 10.4844C15.2164 10.5259 15.1811 10.5652 15.1425 10.6018L10.6777 14.8438C10.6398 14.8798 10.5997 14.9124 10.5579 14.9416L4.48297 20.7148C4.07652 21.101 3.42463 21.0941 3.02693 20.6994C2.62923 20.3046 2.63632 19.6715 3.04277 19.2852L5.09102 17.3388C3.42502 16.0146 2.19576 14.4936 1.5014 13.5317C0.835297 12.6089 0.831102 11.3972 1.49943 10.4711C2.22119 9.47085 3.51471 7.87528 5.26985 6.52115C7.0224 5.16903 9.31177 4 12 4C14.0643 4 15.8937 4.68995 17.4224 5.62008L19.8793 3.28524C20.2858 2.89899 20.9377 2.90588 21.3354 3.30063ZM14.2482 8.51728L15.8093 7.01774C14.6499 6.39779 13.3714 6 12 6C9.94324 6 8.09507 6.89569 6.55074 8.08717C5.009 9.27665 3.8463 10.7036 3.18578 11.6189C3.01714 11.8526 3.01648 12.1466 3.18755 12.3835C3.85142 13.3032 5.01333 14.7266 6.54965 15.912L8.5476 13.9929C8.46149 13.8506 8.3844 13.703 8.31694 13.5508C8.10054 13.0626 7.98767 12.5377 7.98546 12.0066C7.98325 11.4755 8.09175 10.9498 8.3041 10.46C8.51643 9.97016 8.82808 9.52662 9.21994 9.15431C9.61175 8.78206 10.076 8.48834 10.5854 8.28905C11.0947 8.08978 11.6398 7.98857 12.1894 7.99076C12.7389 7.99295 13.2831 8.09849 13.7907 8.30183C13.9479 8.36479 14.1006 8.43676 14.2482 8.51728ZM12.6589 10.0439C12.5027 10.0093 12.3424 9.99139 12.1809 9.99074C11.897 9.98961 11.6162 10.0419 11.3549 10.1442C11.0935 10.2464 10.8576 10.3963 10.66 10.584C10.4624 10.7717 10.3072 10.9935 10.202 11.236C10.0969 11.4785 10.0436 11.7376 10.0447 11.9985C10.0454 12.1646 10.0681 12.3297 10.1121 12.4901L12.6589 10.0439Z" fill="#343A3D"/>
<path d="M19.2605 8.266C19.6779 7.89092 20.3293 7.91548 20.7155 8.32086C21.4807 9.12398 22.0821 9.89144 22.4987 10.4686C23.1649 11.3915 23.1687 12.603 22.5005 13.529C21.7787 14.5292 20.4852 16.1248 18.7301 17.4789C16.9775 18.831 14.6882 20 11.9999 20C11.1913 20 10.4167 19.8939 9.68154 19.7082C9.13119 19.5692 8.80107 19.0232 8.94419 18.4887C9.0873 17.9542 9.64947 17.6336 10.1998 17.7726C10.778 17.9186 11.3784 18 11.9999 18C14.0567 18 15.9049 17.1043 17.4492 15.9129C18.9909 14.7234 20.1536 13.2965 20.8141 12.3811C20.9829 12.1473 20.9835 11.8536 20.8125 11.6167C20.4363 11.0956 19.8926 10.4019 19.204 9.67915C18.8178 9.27377 18.8431 8.64108 19.2605 8.266Z" fill="#343A3D"/>
</svg>
