<svg width="24" height="24" viewBox="0 0 24 24" fill="none" xmlns="http://www.w3.org/2000/svg">
<path fill-rule="evenodd" clip-rule="evenodd" d="M12.0001 8C9.72566 8 7.88187 9.79086 7.88187 12C7.88187 14.2091 9.72566 16 12.0001 16C14.2745 16 16.1183 14.2091 16.1183 12C16.1183 9.79086 14.2745 8 12.0001 8ZM9.94098 12C9.94098 10.8954 10.8629 10 12.0001 10C13.1373 10 14.0592 10.8954 14.0592 12C14.0592 13.1046 13.1373 14 12.0001 14C10.8629 14 9.94098 13.1046 9.94098 12Z" fill="#343A3D"/>
<path fill-rule="evenodd" clip-rule="evenodd" d="M12 4C9.312 4 7.02281 5.16903 5.27041 6.52115C3.5154 7.87528 2.22199 9.47085 1.50028 10.4711C0.833238 11.3955 0.833239 12.6045 1.50029 13.5289C2.22199 14.5291 3.5154 16.1247 5.27041 17.4788C7.02281 18.831 9.312 20 12 20C14.688 20 16.9772 18.831 18.7296 17.4788C20.4846 16.1247 21.778 14.5291 22.4997 13.5289C23.1668 12.6045 23.1668 11.3955 22.4997 10.4711C21.778 9.47085 20.4846 7.87528 18.7296 6.52115C16.9772 5.16903 14.688 4 12 4ZM3.1865 11.6189C3.84697 10.7036 5.00958 9.27665 6.55119 8.08717C8.0954 6.89569 9.94343 6 12 6C14.0566 6 15.9046 6.89569 17.4488 8.08717C18.9904 9.27665 20.153 10.7036 20.8135 11.6189C20.9834 11.8543 20.9834 12.1457 20.8135 12.3811C20.153 13.2964 18.9904 14.7233 17.4488 15.9128C15.9046 17.1043 14.0566 18 12 18C9.94343 18 8.0954 17.1043 6.55119 15.9128C5.00958 14.7233 3.84697 13.2964 3.1865 12.3811C3.01664 12.1457 3.01664 11.8543 3.1865 11.6189Z" fill="#343A3D"/>
</svg>
