<svg width="24" height="24" viewBox="0 0 24 24" fill="none" xmlns="http://www.w3.org/2000/svg">
<path d="M3.58954 4C3.58954 2.34315 5.0016 1 6.74346 1C8.48533 1 9.89738 2.34315 9.89738 4C9.89738 5.11282 9.26039 6.08413 8.31431 6.60201C9.50701 6.82458 10.6174 7.46197 11.3846 8.4755L12 9.28849L12.6154 8.4755C13.3826 7.46197 14.493 6.82458 15.6857 6.60201C14.7396 6.08413 14.1026 5.11282 14.1026 4C14.1026 2.34315 15.5147 1 17.2565 1C18.9984 1 20.4105 2.34315 20.4105 4C20.4105 5.28395 19.5625 6.37951 18.3702 6.80762C18.7977 6.9589 19.2104 7.1693 19.5956 7.44068C21.4439 8.74295 22.3355 10.9432 21.8844 13.0885L21.8078 13.4531C21.5247 14.7993 20.7825 16.019 19.6964 16.9231L12.7062 22.7409C12.6188 22.8165 12.5207 22.8758 12.4165 22.9184C12.2835 22.9731 12.1415 23 12 23C11.8585 23 11.7165 22.9731 11.5835 22.9184C11.4793 22.8758 11.3812 22.8165 11.2938 22.7409L4.30365 16.9231C3.21745 16.019 2.47526 14.7993 2.19221 13.4531L2.11555 13.0885C1.66447 10.9432 2.55613 8.74295 4.40438 7.44068C4.78955 7.1693 5.20226 6.9589 5.62981 6.80762C4.43751 6.37951 3.58954 5.28395 3.58954 4ZM6.74346 3C6.16284 3 5.69215 3.44772 5.69215 4C5.69215 4.55228 6.16284 5 6.74346 5C7.32408 5 7.79477 4.55228 7.79477 4C7.79477 3.44772 7.32408 3 6.74346 3ZM5.65592 9.0478C4.46195 9.88906 3.88594 11.3104 4.17734 12.6963L4.25399 13.0609C4.44626 13.9753 4.95041 14.8038 5.68823 15.4179L8.66516 17.8956C9.60547 17.3257 10.765 17 12 17C13.235 17 14.3946 17.3257 15.3349 17.8956L18.3118 15.4179C19.0496 14.8038 19.5537 13.9753 19.746 13.0609L19.8227 12.6963C20.1141 11.3104 19.5381 9.88906 18.3441 9.0478C17.063 8.14516 15.2533 8.41345 14.3217 9.64411L13.142 11.2027C14.3194 11.6379 15.1539 12.7262 15.1539 14C15.1539 15.6569 13.7419 17 12 17C10.2581 17 8.84608 15.6569 8.84608 14C8.84608 12.7262 9.68064 11.6379 10.858 11.2027L9.67827 9.64411C8.74673 8.41345 6.93701 8.14516 5.65592 9.0478ZM10.3575 19.3041L12 20.6712L13.6425 19.3041C13.16 19.1126 12.6026 19 12 19C11.3975 19 10.84 19.1126 10.3575 19.3041ZM16.2052 4C16.2052 4.55228 16.6759 5 17.2565 5C17.8372 5 18.3078 4.55228 18.3078 4C18.3078 3.44772 17.8372 3 17.2565 3C16.6759 3 16.2052 3.44772 16.2052 4ZM12 13C11.4194 13 10.9487 13.4477 10.9487 14C10.9487 14.5523 11.4194 15 12 15C12.5806 15 13.0513 14.5523 13.0513 14C13.0513 13.4477 12.5806 13 12 13Z" fill="#343A3D"/>
</svg>
