<svg width="24" height="24" viewBox="0 0 24 24" fill="none" xmlns="http://www.w3.org/2000/svg">
<path fill-rule="evenodd" clip-rule="evenodd" d="M3 10C3 5.02944 7.02944 1 12 1C16.9706 1 21 5.02944 21 10C21 14.6331 17.4992 18.4485 12.9985 18.9452C12.9995 18.9634 13 18.9816 13 19V21H17C17.5523 21 18 21.4477 18 22C18 22.5523 17.5523 23 17 23H7C6.44772 23 6 22.5523 6 22C6 21.4477 6.44772 21 7 21H11V19C11 18.9816 11.0005 18.9634 11.0015 18.9452C6.50082 18.4485 3 14.6331 3 10ZM12 3C10.9311 3 9.9181 3.23959 9.01187 3.66801C9.00948 4.42224 9.36094 5.84488 11.1974 7.10856C11.4529 7.03781 11.722 7 12 7C13.262 7 14.3421 7.77928 14.7851 8.88291C16.596 8.67675 18.0028 9.08993 18.9934 9.69437C18.8335 5.97017 15.7636 3 12 3ZM14.8664 10.8879C14.5013 12.0679 13.4276 12.9366 12.1425 12.9967C11.5799 14.7721 10.6279 15.9153 9.65899 16.599C10.391 16.8587 11.179 17 12 17C15.1511 17 17.8159 14.9179 18.6937 12.0544C18.3457 11.5762 17.1649 10.5754 14.8664 10.8879ZM10.2272 12.4204C9.48307 11.8745 9 10.9936 9 10C9 9.38512 9.18499 8.81344 9.50234 8.33759C8.15119 7.24552 7.46267 6.01695 7.17707 4.92658C5.836 6.20184 5 8.00329 5 10C5 12.1813 5.99776 14.1296 7.56179 15.4134C8.21472 15.2525 9.53954 14.5639 10.2272 12.4204ZM11 10C11 9.44772 11.4477 9 12 9C12.5523 9 13 9.44772 13 10C13 10.5523 12.5523 11 12 11C11.4477 11 11 10.5523 11 10Z" fill="#343A3D"/>
</svg>
