<svg width="25" height="24" viewBox="0 0 25 24" fill="none" xmlns="http://www.w3.org/2000/svg">
<path fill-rule="evenodd" clip-rule="evenodd" d="M3.79384 3.56525C5.10149 2.41715 6.79293 2 8.38091 2C10.0891 2 11.3721 2.67877 12.2139 3.34394C12.3814 3.47629 12.5322 3.60867 12.6666 3.73604C12.801 3.60867 12.9519 3.47629 13.1194 3.34394C13.9611 2.67877 15.2442 2 16.9523 2C18.5403 2 20.2318 2.41715 21.5394 3.56525C22.872 4.73523 23.6666 6.54141 23.6666 9.0239C23.6666 11.4966 22.5427 14.2508 20.7598 16.5822C18.9685 18.9248 16.4328 20.946 13.47 21.8768C12.947 22.0411 12.3863 22.0411 11.8633 21.8768C8.90042 20.946 6.36479 18.9248 4.57343 16.5822C2.79056 14.2508 1.66663 11.4966 1.66663 9.0239C1.66663 6.54141 2.46127 4.73523 3.79384 3.56525Z" fill="#343A3D"/>
</svg>
