<svg width="25" height="24" viewBox="0 0 25 24" fill="none" xmlns="http://www.w3.org/2000/svg">
<path fill-rule="evenodd" clip-rule="evenodd" d="M3.79384 3.56525C5.10149 2.41715 6.79293 2 8.38091 2C10.0891 2 11.3721 2.67877 12.2139 3.34394C12.3814 3.47629 12.5322 3.60867 12.6666 3.73604C12.801 3.60867 12.9519 3.47629 13.1194 3.34394C13.9611 2.67877 15.2442 2 16.9523 2C18.5403 2 20.2318 2.41715 21.5394 3.56525C22.872 4.73523 23.6666 6.54141 23.6666 9.0239C23.6666 11.4966 22.5427 14.2508 20.7598 16.5822C18.9685 18.9248 16.4328 20.946 13.47 21.8768C12.947 22.0411 12.3863 22.0411 11.8633 21.8768C8.90042 20.946 6.36479 18.9248 4.57343 16.5822C2.79056 14.2508 1.66663 11.4966 1.66663 9.0239C1.66663 6.54141 2.46127 4.73523 3.79384 3.56525ZM13.5074 5.80427C13.3235 6.09102 13.0068 6.26451 12.6666 6.26451C12.3265 6.26451 12.0098 6.09102 11.8258 5.80427L11.8219 5.79841C11.8165 5.79043 11.806 5.77508 11.7903 5.75339C11.7589 5.70992 11.7072 5.64162 11.6355 5.55666C11.4914 5.38583 11.2711 5.15332 10.9765 4.92057C10.3897 4.4569 9.52992 4.00683 8.38091 4.00683C7.11175 4.00683 5.94605 4.34224 5.11084 5.07554C4.30055 5.78697 3.66663 6.99102 3.66663 9.0239C3.66663 10.9327 4.56034 13.2685 6.16014 15.3605C7.75146 17.4415 9.96356 19.1771 12.4608 19.9616C12.5948 20.0037 12.7385 20.0037 12.8724 19.9616C15.3697 19.1771 17.5818 17.4415 19.1731 15.3605C20.7729 13.2685 21.6666 10.9327 21.6666 9.0239C21.6666 6.99102 21.0327 5.78697 20.2224 5.07554C19.3872 4.34224 18.2215 4.00683 16.9523 4.00683C15.8033 4.00683 14.9435 4.4569 14.3567 4.92057C14.0622 5.15332 13.8418 5.38583 13.6977 5.55666C13.626 5.64162 13.5744 5.70992 13.543 5.75339C13.5273 5.77508 13.5167 5.79043 13.5114 5.79841L13.5074 5.80427Z" fill="#343A3D"/>
</svg>
