<svg width="24" height="24" viewBox="0 0 24 24" fill="none" xmlns="http://www.w3.org/2000/svg">
<path d="M5 3C5.33435 3 5.64658 3.1671 5.83205 3.4453L7.83205 6.4453C7.94156 6.60957 8 6.80258 8 7V10H9V7C9 6.80258 9.05844 6.60957 9.16795 6.4453L11.1679 3.4453C11.3534 3.1671 11.6656 3 12 3C12.3344 3 12.6466 3.1671 12.8321 3.4453L14.8321 6.4453C14.9416 6.60957 15 6.80258 15 7V10H16V7C16 6.80258 16.0584 6.60957 16.1679 6.4453L18.1679 3.4453C18.3534 3.1671 18.6656 3 19 3C19.3344 3 19.6466 3.1671 19.8321 3.4453L21.8321 6.4453C21.9416 6.60957 22 6.80258 22 7V10C22.5523 10 23 10.4477 23 11C23 11.5523 22.5523 12 22 12V15C22.5523 15 23 15.4477 23 16C23 16.5523 22.5523 17 22 17V21C22 21.5523 21.5523 22 21 22H17C16.4477 22 16 21.5523 16 21V17H15V21C15 21.5523 14.5523 22 14 22H10C9.44772 22 9 21.5523 9 21V17H8V21C8 21.5523 7.55228 22 7 22H3C2.44772 22 2 21.5523 2 21V17C1.44772 17 1 16.5523 1 16C1 15.4477 1.44772 15 2 15V12C1.44772 12 1 11.5523 1 11C1 10.4477 1.44772 10 2 10V7C2 6.80258 2.05844 6.60957 2.16795 6.4453L4.16795 3.4453C4.35342 3.1671 4.66565 3 5 3ZM4 12V15H6V12H4ZM6 10V7.30278L5 5.80278L4 7.30278V10L6 10ZM8 12V15H9V12H8ZM11 12V15H13V12H11ZM13 10V7.30278L12 5.80278L11 7.30278V10H13ZM15 12V15H16V12H15ZM18 12V15H20V12H18ZM20 10V7.30278L19 5.80278L18 7.30278V10L20 10ZM20 17H18V20H20V17ZM13 17H11V20H13V17ZM6 17H4V20H6V17Z" fill="#343A3D"/>
</svg>
