<svg width="24" height="24" viewBox="0 0 24 24" fill="none" xmlns="http://www.w3.org/2000/svg">
<path d="M5.12602 6C5.57006 4.27477 7.13616 3 9 3C10.8638 3 12.4299 4.27477 12.874 6L21 6C21.5523 6 22 6.44771 22 7C22 7.55228 21.5523 8 21 8L12.874 8C12.4299 9.72523 10.8638 11 9 11C7.13616 11 5.57006 9.72523 5.12602 8L3 8C2.44772 8 2 7.55228 2 7C2 6.44772 2.44772 6 3 6L5.12602 6ZM9 5C7.89543 5 7 5.89543 7 7C7 8.10457 7.89543 9 9 9C10.1046 9 11 8.10457 11 7C11 5.89543 10.1046 5 9 5Z" fill="#343A3D"/>
<path d="M3 16C2.44772 16 2 16.4477 2 17C2 17.5523 2.44772 18 3 18L11 18C11.042 18 11.0834 17.9974 11.1241 17.9924C11.5655 19.7215 13.1334 21 15 21C16.8638 21 18.4299 19.7252 18.874 18H21C21.5523 18 22 17.5523 22 17C22 16.4477 21.5523 16 21 16H18.874C18.4299 14.2748 16.8638 13 15 13C13.1334 13 11.5655 14.2785 11.1241 16.0076C11.0834 16.0026 11.042 16 11 16L3 16ZM17 17C17 18.1046 16.1046 19 15 19C13.8954 19 13 18.1046 13 17C13 15.8954 13.8954 15 15 15C16.1046 15 17 15.8954 17 17Z" fill="#343A3D"/>
</svg>
