<svg width="24" height="24" viewBox="0 0 24 24" fill="none" xmlns="http://www.w3.org/2000/svg">
<path d="M4 1C2.34315 1 1 2.34315 1 4V22C1 22.5523 1.44772 23 2 23C2.55228 23 3 22.5523 3 22V4C3 3.44772 3.44772 3 4 3H20C20.5523 3 21 3.44772 21 4V22C21 22.5523 21.4477 23 22 23C22.5523 23 23 22.5523 23 22V4C23 2.34315 21.6569 1 20 1H4Z" fill="#343A3D"/>
<path fill-rule="evenodd" clip-rule="evenodd" d="M12.9476 8.01483C13.2646 7.95963 13.5889 8.06043 13.8188 8.28565C15.5375 9.96925 18 12.5784 18 16.0853C18 17.6596 17.3636 19.1659 16.2365 20.2737C15.9595 20.546 15.6585 20.7887 15.3384 21H18C18.5523 21 19 21.4477 19 22C19 22.5523 18.5523 23 18 23L6 23C5.44772 23 5 22.5523 5 22C5 21.4477 5.44772 21 6 21H8.6616C8.34151 20.7887 8.04046 20.546 7.76347 20.2737C6.6364 19.1659 6 17.6596 6 16.0853C6 14.3275 6.89064 12.5637 7.83794 11.161C8.14375 10.7081 8.75642 10.5846 9.2138 10.8836L10.6432 11.8179L12.219 8.56412C12.3593 8.27446 12.6305 8.07002 12.9476 8.01483ZM13.3987 10.7168L11.9476 13.7128C11.8223 13.9715 11.5918 14.1638 11.3147 14.2406C11.0377 14.3174 10.7411 14.2713 10.5005 14.114L8.9733 13.1157C8.37878 14.1539 8 15.1833 8 16.0853C8 17.118 8.41717 18.1119 9.16546 18.8474C9.91434 19.5835 10.9336 20 12 20C13.0664 20 14.0857 19.5835 14.8345 18.8474C15.5828 18.1119 16 17.118 16 16.0853C16 13.989 14.7943 12.2275 13.3987 10.7168Z" fill="#343A3D"/>
</svg>
