<svg width="24" height="24" viewBox="0 0 24 24" fill="none" xmlns="http://www.w3.org/2000/svg">
<path d="M11.6251 2.6534C9.28451 1.81 6.72594 1.78231 4.36748 2.57484C4.19315 2.63342 4.01711 2.69919 3.71191 2.8132L3.64888 2.83674C3.25857 2.98255 3 3.35423 3 3.76948V21.0039C3 21.554 3.44772 22 4 22C4.55228 22 5 21.554 5 21.0039V15.7224C7.14403 15.0005 9.40207 15.1643 11.4838 15.9938C11.5102 16.0043 11.5366 16.0149 11.5631 16.0254C11.7035 16.0815 11.844 16.1377 11.9858 16.1901C14.2469 17.026 16.7212 17.0984 19.0276 16.3962C19.1601 16.3559 19.2939 16.3115 19.5259 16.2344L20.3162 15.972C20.7246 15.8364 21 15.4557 21 15.0269V3.88294C21 3.56676 20.8493 3.26936 20.594 3.08156C20.3386 2.89375 20.009 2.83785 19.7056 2.93092L18.8878 3.18184C18.5807 3.27609 18.447 3.31701 18.3171 3.35254C16.5153 3.84557 14.6042 3.76774 12.8489 3.12987C12.647 3.05651 12.4478 2.97617 12.2486 2.89583C12.0418 2.81242 11.835 2.72901 11.6251 2.6534ZM5 13.6407V4.46492L5.00675 4.46265C6.9364 3.81421 9.02978 3.83687 10.9448 4.52692C11.1538 4.6022 11.3597 4.68529 11.5656 4.76837C11.764 4.84842 11.9624 4.92848 12.1635 5.00155C14.3089 5.78117 16.6447 5.87628 18.8469 5.2737C18.8966 5.26008 18.9466 5.24591 19 5.23031V14.309L18.9079 14.3395C18.6576 14.4226 18.5486 14.4588 18.4431 14.4909C16.556 15.0654 14.5316 15.0061 12.6816 14.3222C12.5182 14.2618 12.3565 14.1968 12.1948 14.1317C12.0294 14.0652 11.8641 13.9986 11.6968 13.937C9.5442 13.1445 7.20286 13.0446 5 13.6407Z" fill="#343A3D"/>
</svg>
