<svg width="25" height="24" viewBox="0 0 25 24" fill="none" xmlns="http://www.w3.org/2000/svg">
<path d="M13.4167 3.99805L13.4167 1.75195C13.4167 1.33774 13.0809 1.00195 12.6667 1.00195C12.2524 1.00195 11.9167 1.33774 11.9167 1.75195L11.9167 3.99805C11.9167 4.41226 12.2524 4.74805 12.6667 4.74805C13.0809 4.74805 13.4167 4.41226 13.4167 3.99805Z" fill="#343A3D"/>
<path d="M12.6667 13.248C13.0809 13.248 13.4167 13.5838 13.4167 13.998V15.998C13.4167 16.4123 13.0809 16.748 12.6667 16.748C12.2524 16.748 11.9167 16.4123 11.9167 15.998V13.998C11.9167 13.5838 12.2524 13.248 12.6667 13.248Z" fill="#343A3D"/>
<path fill-rule="evenodd" clip-rule="evenodd" d="M5.66666 7.20068C5.66666 6.53649 6.2051 5.99805 6.86929 5.99805H18.464C19.1282 5.99805 19.6667 6.53649 19.6667 7.20068V7.95289C19.6667 9.9942 18.481 11.8276 16.6667 12.6806V19.998C16.6667 21.6549 15.3235 22.998 13.6667 22.998H11.6667C10.0098 22.998 8.66666 21.6549 8.66666 19.998V12.6806C6.85227 11.8276 5.66666 9.9942 5.66666 7.95289V7.20068ZM7.66697 7.99805C7.68599 9.36766 8.5692 10.5781 9.87177 11.0123C10.3465 11.1706 10.6667 11.6148 10.6667 12.1152V19.998C10.6667 20.5503 11.1144 20.998 11.6667 20.998H13.6667C14.2189 20.998 14.6667 20.5503 14.6667 19.998V12.1152C14.6667 11.6148 14.9868 11.1706 15.4615 11.0123C16.7641 10.5781 17.6473 9.36766 17.6663 7.99805H7.66697Z" fill="#343A3D"/>
<path d="M8.58123 2.32724C8.21075 2.51248 8.06058 2.96299 8.24582 3.33347L8.7458 4.33345C8.93104 4.70394 9.38154 4.85411 9.75203 4.66887C10.1225 4.48363 10.2727 4.03313 10.0874 3.66264L9.58746 2.66266C9.40222 2.29217 8.95172 2.142 8.58123 2.32724Z" fill="#343A3D"/>
<path d="M17.0875 3.33347C17.2727 2.96299 17.1226 2.51248 16.7521 2.32724C16.3816 2.142 15.9311 2.29217 15.7459 2.66266L15.2459 3.66264C15.0606 4.03313 15.2108 4.48363 15.5813 4.66887C15.9518 4.85411 16.4023 4.70394 16.5875 4.33345L17.0875 3.33347Z" fill="#343A3D"/>
</svg>
