<svg width="24" height="24" viewBox="0 0 24 24" fill="none" xmlns="http://www.w3.org/2000/svg">
<path fill-rule="evenodd" clip-rule="evenodd" d="M9.54708 4C9.54708 2.89543 10.4344 2 11.5289 2H12.3169C13.1544 2 13.9015 2.53134 14.1832 3.32733L16.1907 9H20.5319C21.0575 9 21.5616 9.21071 21.9332 9.58579L23.4195 11.0858C24.1935 11.8668 24.1935 13.1332 23.4195 13.9142L22.9241 14.4142C22.5524 14.7893 22.0484 15 21.5228 15H16.1907L14.1832 20.6727C13.9015 21.4687 13.1544 22 12.3169 22H11.5289C10.4344 22 9.54708 21.1046 9.54708 20V15H4.62749C3.96487 15 3.3461 14.6658 2.97855 14.1094L0.336172 10.1094C-0.54183 8.78029 0.402276 7 1.98511 7H3.60174C4.22552 7 4.81289 7.29639 5.18716 7.8L6.07896 9H9.54708V4ZM12.3169 4H11.5289V9C11.5289 10.1046 10.6416 11 9.54708 11H6.07896C5.45518 11 4.86781 10.7036 4.49354 10.2L3.60174 9H1.98511L4.62749 13H9.54708C10.6416 13 11.5289 13.8954 11.5289 15V20H12.3169L14.3244 14.3273C14.6061 13.5313 15.3532 13 16.1907 13H21.5228L22.0182 12.5L20.5319 11H16.1907C15.3532 11 14.6061 10.4687 14.3244 9.67267L12.3169 4Z" fill="#343A3D"/>
</svg>
