<svg width="24" height="24" viewBox="0 0 24 24" fill="none" xmlns="http://www.w3.org/2000/svg">
<path d="M21.9999 2.77909C21.9999 2.34881 21.6599 2 21.2404 2C20.821 2 20.4809 2.34881 20.4809 2.77909V3.04938C19.5858 2.54604 18.4981 2.38298 17.4449 2.64021C16.7449 2.81167 16.1008 3.16279 15.5842 3.66233C15.0672 4.16229 14.6968 4.79296 14.5204 5.48979C14.344 6.18711 14.3704 6.91763 14.596 7.60059C14.8214 8.28297 15.2352 8.88633 15.7851 9.35004C16.3346 9.8134 17.0008 10.1213 17.7106 10.2467C18.4204 10.3721 19.1529 10.3114 19.8314 10.0698C20.51 9.82816 21.1139 9.41265 21.5743 8.86113C21.8472 8.53431 21.8101 8.04249 21.4915 7.76261C21.1729 7.48274 20.6934 7.52079 20.4206 7.84761C20.1418 8.18159 19.7672 8.44326 19.3332 8.59781C18.899 8.75243 18.4267 8.79208 17.9684 8.71112C17.5103 8.63018 17.0895 8.43286 16.7496 8.14631C16.4102 7.8601 16.1657 7.49716 16.0346 7.10046C15.9037 6.70434 15.8888 6.28372 15.9907 5.8813C16.0926 5.47839 16.3096 5.10221 16.6261 4.79618C16.943 4.48979 17.347 4.26621 17.7974 4.15585C18.6143 3.95641 19.4307 4.14846 20.0269 4.59697H19.0251C18.6057 4.59697 18.2656 4.94578 18.2656 5.37606C18.2656 5.80634 18.6057 6.15516 19.0251 6.15516H21.2404C21.6599 6.15516 21.9999 5.80634 21.9999 5.37606V4.80602C22 4.79778 22 4.78953 21.9999 4.78127V2.77909Z" fill="#343A3D"/>
<path fill-rule="evenodd" clip-rule="evenodd" d="M9.84807 5.32407C9.06046 5.32407 8.41656 5.58356 7.94679 6.0878C7.50024 6.56711 7.28366 7.19071 7.17134 7.78514C7.05807 8.3846 7.03658 9.03421 7.03933 9.63653C7.04069 9.93294 7.04811 10.2281 7.0551 10.5064L7.05563 10.5272C7.05834 10.6353 7.06096 10.7405 7.06317 10.843C7.0063 10.8676 6.94418 10.8943 6.87717 10.9228C6.48191 11.091 5.94335 11.3122 5.37617 11.5422C4.24308 12.0016 3.0105 12.4899 2.61562 12.646C2.24225 12.7937 2 13.161 2 13.5668V16.3079C2 16.9311 2.55613 17.3982 3.1517 17.2754L7.0694 16.4671V16.8952L6.33214 17.6521C6.15187 17.8371 6.05061 18.088 6.05061 18.3496V21.0115C6.05061 21.8011 6.90966 22.2709 7.54877 21.8309L9.8491 20.2471L12.1614 21.8313C12.8007 22.2693 13.6578 21.7993 13.6578 21.0107V18.3458C13.6578 18.0824 13.5552 17.83 13.3728 17.6447L12.6329 16.8929V16.4673L16.5442 17.2753C17.1398 17.3983 17.6961 16.9311 17.6961 16.3078V13.5642C17.6961 13.1618 17.4579 12.7997 17.0942 12.6491L12.6467 10.8078C12.6489 10.6369 12.6521 10.4656 12.6554 10.2932L12.6561 10.2519C12.662 9.93825 12.6676 9.62055 12.6665 9.31161C12.6643 8.70132 12.6363 8.07615 12.5138 7.51496C12.3906 6.95123 12.1568 6.37976 11.6887 5.95427C11.2099 5.51912 10.5833 5.32407 9.84807 5.32407ZM8.58838 11.3324C8.58838 11.0592 8.58124 10.7712 8.5741 10.4871L8.57374 10.4728C8.56664 10.19 8.55958 9.90894 8.5583 9.62923C8.55567 9.05498 8.57822 8.52802 8.66256 8.08164C8.74786 7.63022 8.88249 7.33871 9.04492 7.16437C9.18412 7.01496 9.40696 6.88226 9.84807 6.88226C10.3196 6.88226 10.5515 7.00251 10.6813 7.12053C10.8218 7.24821 10.9468 7.46779 11.0315 7.85557C11.1167 8.24588 11.1454 8.73266 11.1475 9.31737C11.1486 9.60592 11.1433 9.90647 11.1374 10.2222L11.1366 10.2673C11.131 10.5665 11.1252 10.8783 11.1247 11.1917C11.1242 11.5966 11.3646 11.9573 11.7263 12.1071L16.1772 13.9498V15.61L12.2658 14.8021C11.6702 14.679 11.1139 15.1462 11.1139 15.7695V17.1311C11.1139 17.3945 11.2165 17.6469 11.3989 17.8323L12.1388 18.5841V19.9421L10.3827 18.7388C10.0585 18.5168 9.63583 18.5173 9.31221 18.7401L7.56959 19.9399V18.5862L8.30686 17.8293C8.48712 17.6443 8.58838 17.3934 8.58838 17.1318V15.7694C8.58838 15.1463 8.03226 14.6791 7.43668 14.802L3.51898 15.6102V13.9585C4.07891 13.7365 5.03715 13.3551 5.93449 12.9913C6.5035 12.7606 7.05172 12.5355 7.4592 12.3621C7.66172 12.2759 7.83627 12.1996 7.96303 12.1406C8.02429 12.1121 8.08678 12.0818 8.13902 12.0533C8.16205 12.0407 8.20403 12.0172 8.24795 11.9862C8.26719 11.9726 8.31377 11.9389 8.36365 11.8876C8.3885 11.862 8.43305 11.813 8.47549 11.7421C8.51374 11.6781 8.58838 11.5335 8.58838 11.3324Z" fill="#343A3D"/>
</svg>
