<svg width="24px" height="24px" viewBox="0 0 24 24" version="1.1" xmlns="http://www.w3.org/2000/svg" xmlns:xlink="http://www.w3.org/1999/xlink">
    <g id="Utilidades" stroke="none" stroke-width="1" fill="none" fill-rule="evenodd">
        <g id="Icons" transform="translate(-156.000000, -3972.000000)" fill="#343A3D" fill-rule="nonzero">
            <g id="Group-10" transform="translate(156.000000, 3972.000000)">
                <path d="M21.122557,13.9998986 C21.3623183,13.7580899 21.4153135,13.7046477 21.8794345,13.2366124 C22.0687073,13.0408284 22.0665011,12.7295823 21.8720514,12.5340504 L20.3686421,11.0014302 L13.8008811,10.9998986 C13.5968061,10.999851 13.4132405,10.8757855 13.3371011,10.6864461 L11.1464621,5.23686266 C11.078915,5.09234715 10.933815,5 10.7742928,5 L10.4434625,5 C10.2126406,5 10.0182578,5.18849605 10.0182578,5.40475162 L10.018254,5.40772142 L10.0182578,10.4998986 C10.0182578,10.7760409 9.7944002,10.9998986 9.51825782,10.9998986 L4.56476929,10.9998986 C4.41030692,10.9998986 4.26451578,10.9285085 4.16980116,10.806493 L2.92459463,9.20236463 C2.82988001,9.08034919 2.68408887,9.0089591 2.52962649,9.0089591 L1.5,9.0089591 C1.22385763,9.0089591 1,8.78510148 1,8.5089591 C1,8.23281673 1.22385763,8.0089591 1.5,8.0089591 L2.52962649,8.0089591 C2.99301362,8.0089591 3.43038704,8.22312938 3.7145309,8.58917568 L4.80960617,9.99989857 L9.01825881,9.99989857 L9.01826788,5.41366096 L9.01825782,5.40475162 C9.01825782,4.62921242 9.66712068,4 10.4434625,4 L10.7742928,4 C11.3221208,4 11.8204204,4.31713679 12.0633222,4.83859834 L14.1388767,9.99997735 L20.5368285,10.0014694 C20.6798012,9.99018102 20.8260899,10.0397475 20.934009,10.1497635 L22.5835079,11.8313287 C23.1595953,12.4105724 23.1662138,13.3443109 22.5939689,13.9361842 L21.7293566,14.8081822 C21.7202362,14.8173804 21.7108472,14.8261502 21.7012143,14.8344913 C21.609698,14.9360515 21.4771356,14.9998986 21.3296609,14.9998986 L14.3697118,14.9998986 L12.0622017,19.2406557 C11.8249206,19.6993357 11.3559925,19.9917198 10.8396937,20.0029087 L10.4624998,20.011083 C10.4455171,20.0113821 10.4455171,20.0113821 10.4285318,20.0114057 C9.65709027,20.0093498 9.01620542,19.3824145 9.01825782,18.6129528 L9.01825782,14.9998986 L3.51807418,14.9998986 C3.04697412,14.9998986 2.60324206,14.7785766 2.31984288,14.402252 L1.12453256,12.8150046 C0.958413878,12.5944163 1.00257022,12.2809283 1.22315851,12.1148097 C1.4437468,11.948691 1.75723474,11.9928473 1.92335343,12.2134356 L3.11866374,13.8006831 C3.21313014,13.9261246 3.36104082,13.9998986 3.51807418,13.9998986 L9.51825782,13.9998986 C9.7944002,13.9998986 10.0182578,14.2237562 10.0182578,14.4998986 L10.018256,18.6142853 C10.0176903,18.826586 10.2060124,19.0108092 10.4311968,19.0114093 C10.4360156,19.0114026 10.4360156,19.0114026 10.4408336,19.0113177 L10.8180274,19.0031434 C10.9683687,18.9998853 11.104916,18.9147459 11.178908,18.771952 L13.6333512,14.2609314 C13.7208894,14.1000449 13.8893896,13.9998986 14.072549,13.9998986 L21.122557,13.9998986 Z" id="Path"></path>
            </g>
        </g>
    </g>
</svg>