<svg width="24" height="24" viewBox="0 0 24 24" fill="none" xmlns="http://www.w3.org/2000/svg">
<path d="M16.6832 8.92137C16.6053 8.65644 16.3274 8.5048 16.0625 8.58268C15.7976 8.66056 15.6459 8.93847 15.7238 9.2034L17.4681 15.1372C17.546 15.4021 17.8239 15.5537 18.0888 15.4758C18.3538 15.398 18.5054 15.1201 18.4275 14.8551L16.6832 8.92137Z" fill="#343A3D"/>
<path d="M18.7021 9.33911C18.6243 9.07417 18.3463 8.92253 18.0814 9.00041C17.8165 9.07829 17.6648 9.35619 17.7427 9.62113L18.9055 13.577C18.9834 13.8419 19.2613 13.9935 19.5263 13.9157C19.7912 13.8378 19.9428 13.5599 19.8649 13.295L18.7021 9.33911Z" fill="#343A3D"/>
<path d="M14.8902 12.2432C15.041 12.362 15.124 12.5249 15.158 12.6435C15.192 12.762 15.2079 12.9442 15.143 13.1248C15.0728 13.3203 14.9011 13.4473 14.6306 13.5249L13.3372 13.8958L12.9688 15.9883C12.9514 16.0814 12.883 16.1567 12.7919 16.1828L12.1385 16.3701C12.0645 16.3914 11.9848 16.3773 11.9225 16.332C11.8603 16.2868 11.8223 16.2153 11.8197 16.1384L11.7468 14.3518L10.8146 14.6191L10.5353 15.1932C10.5031 15.2512 10.4492 15.2941 10.3855 15.3123L9.49469 15.5678C9.4114 15.5917 9.32168 15.5707 9.25758 15.5124C9.19348 15.4541 9.16413 15.3668 9.18002 15.2816L9.36209 14.3054L8.69038 13.574C8.63177 13.5102 8.61038 13.4206 8.63385 13.3372C8.65732 13.2538 8.72231 13.1885 8.80559 13.1646L9.69641 12.9092C9.76015 12.8909 9.82854 12.8987 9.88653 12.9308L10.4283 13.2719L11.3605 13.0046L10.4749 11.4487C10.4364 11.382 10.4307 11.3013 10.4595 11.2299C10.4884 11.1586 10.5485 11.1044 10.6225 11.0832L11.2759 10.8958C11.3669 10.8697 11.4649 10.8973 11.529 10.967L12.9509 12.5486L14.2442 12.1777C14.5148 12.1001 14.7271 12.1146 14.8902 12.2432Z" fill="#343A3D"/>
<path d="M2.30301 5.92537C0.710342 6.38206 -0.210552 8.04339 0.246139 9.63606L2.45124 17.3262C2.90793 18.9188 4.56926 19.8397 6.16193 19.383L6.44433 19.3021L6.45124 19.3262C6.90793 20.9188 8.56926 21.8397 10.1619 21.383L21.6971 18.0754C23.2897 17.6187 24.2106 15.9574 23.7539 14.3647L21.5488 6.67459C21.0922 5.08192 19.4308 4.16103 17.8382 4.61772L16.5945 4.97433L16.5876 4.95023C16.1309 3.35756 14.4696 2.43666 12.8769 2.89336L2.30301 5.92537ZM14.672 5.52561L6.30301 7.92537C4.71034 8.38206 3.78945 10.0434 4.24614 11.6361L5.89305 17.3795L5.61066 17.4605C5.07977 17.6127 4.52599 17.3058 4.37376 16.7749L2.16866 9.08479C2.01643 8.5539 2.3234 8.00012 2.85429 7.84789L13.4282 4.81588C13.9591 4.66365 14.5128 4.97061 14.6651 5.5015L14.672 5.52561ZM6.16866 11.0848C6.01643 10.5539 6.3234 10.0001 6.85429 9.84789L18.3894 6.54024C18.9203 6.38801 19.4741 6.69498 19.6263 7.22587L21.8314 14.916C21.9837 15.4468 21.6767 16.0006 21.1458 16.1529L9.61066 19.4605C9.07977 19.6127 8.52599 19.3058 8.37376 18.7749L6.16866 11.0848Z" fill="#343A3D"/>
</svg>
