<svg width="24" height="24" viewBox="0 0 24 24" fill="none" xmlns="http://www.w3.org/2000/svg">
<path d="M18.6377 6.36158C18.3361 6.0664 18.3342 5.58588 18.6334 5.28832L19.3842 4.54162L15.0769 4.54162C14.6521 4.54162 14.3077 4.20184 14.3077 3.7827C14.3077 3.36356 14.6521 3.02378 15.0769 3.02379L19.3737 3.02379L18.6356 2.29556C18.3352 1.99918 18.3352 1.51866 18.6356 1.22228C18.936 0.925906 19.423 0.925906 19.7234 1.22228L21.7238 3.19583C21.7449 3.21427 21.7647 3.23389 21.7832 3.25455C22.0722 3.54857 22.0724 4.01653 21.7832 4.31085C21.7658 4.33034 21.7471 4.34891 21.7273 4.36644L19.7256 6.35728C19.4264 6.65484 18.9394 6.65677 18.6377 6.36158Z" fill="#343A3D"/>
<path d="M17.6699 6.2796C17.9716 6.57478 17.9735 7.0553 17.6743 7.35286L16.9235 8.09955L21.2308 8.09955C21.6556 8.09955 22 8.43933 22 8.85847C22 9.27761 21.6556 9.61739 21.2308 9.61739L16.934 9.61739L17.6721 10.3456C17.9725 10.642 17.9725 11.1225 17.6721 11.4189C17.3717 11.7153 16.8847 11.7153 16.5843 11.4189L14.533 9.39511C14.4599 9.32303 14.4046 9.24005 14.3671 9.15147C14.3288 9.06132 14.3077 8.96233 14.3077 8.85847C14.3077 8.65361 14.39 8.4677 14.5237 8.33117L14.5315 8.32328L16.5821 6.2839C16.8813 5.98634 17.3683 5.98441 17.6699 6.2796Z" fill="#343A3D"/>
<path fill-rule="evenodd" clip-rule="evenodd" d="M9.94872 5.75585C9.15101 5.75585 8.49885 6.00862 8.02305 6.4998C7.57078 6.9667 7.35142 7.57415 7.23766 8.15319C7.12294 8.73713 7.10118 9.36992 7.10396 9.95665C7.10534 10.2454 7.11285 10.5329 7.11993 10.804L7.12046 10.8243C7.12321 10.9295 7.12587 11.032 7.12811 11.1319C7.07051 11.1559 7.00759 11.1819 6.93972 11.2096C6.5394 11.3735 5.99393 11.589 5.41947 11.813C4.27184 12.2604 3.02346 12.7361 2.62352 12.8882C2.24535 13.032 2 13.3898 2 13.7851V16.4553C2 17.0623 2.56326 17.5174 3.16647 17.3977L7.13442 16.6104V17.0274L6.3877 17.7647C6.20512 17.9449 6.10256 18.1893 6.10256 18.4441V21.0371C6.10256 21.8062 6.97263 22.2639 7.61993 21.8353L9.94977 20.2924L12.2918 21.8357C12.9392 22.2623 13.8073 21.8045 13.8073 21.0363V18.4404C13.8073 18.1839 13.7034 17.938 13.5186 17.7574L12.7692 17.0251V16.6106L16.7307 17.3976C17.334 17.5174 17.8974 17.0623 17.8974 16.4552V13.7827C17.8974 13.3907 17.6562 13.0379 17.2877 12.8912L12.7833 11.0976C12.7855 10.9312 12.7888 10.7642 12.792 10.5963L12.7928 10.5561C12.7987 10.2506 12.8044 9.94108 12.8033 9.64013C12.8011 9.04565 12.7727 8.43667 12.6486 7.89001C12.5239 7.34088 12.2871 6.7842 11.8129 6.36973C11.328 5.94584 10.6934 5.75585 9.94872 5.75585ZM8.67288 11.6086C8.67288 11.3424 8.66564 11.062 8.65842 10.7852L8.65805 10.7712C8.65085 10.4958 8.6437 10.222 8.64241 9.94953C8.63975 9.39016 8.66259 8.87684 8.74801 8.44202C8.8344 8.00229 8.97076 7.71832 9.13527 7.54849C9.27625 7.40295 9.50196 7.27368 9.94872 7.27368C10.4263 7.27368 10.6611 7.39082 10.7927 7.50579C10.9349 7.63016 11.0616 7.84406 11.1473 8.22179C11.2337 8.602 11.2627 9.07618 11.2649 9.64574C11.2659 9.92682 11.2606 10.2196 11.2546 10.5271L11.2538 10.5711C11.2481 10.8625 11.2422 11.1663 11.2418 11.4715C11.2412 11.8659 11.4847 12.2174 11.851 12.3632L16.359 14.1582V15.7754L12.3975 14.9884C11.7942 14.8686 11.2308 15.3237 11.2308 15.9308V17.2572C11.2308 17.5137 11.3347 17.7596 11.5194 17.9402L12.2688 18.6725V19.9953L10.4902 18.8233C10.1619 18.607 9.73376 18.6074 9.40599 18.8245L7.64103 19.9933V18.6746L8.38775 17.9373C8.57032 17.757 8.67288 17.5126 8.67288 17.2578V15.9308C8.67288 15.3237 8.10962 14.8686 7.50641 14.9883L3.53846 15.7756V14.1668C4.10557 13.9505 5.0761 13.5789 5.98495 13.2245C6.56126 12.9998 7.11651 12.7805 7.52921 12.6116C7.73433 12.5277 7.91112 12.4534 8.03951 12.3959C8.10155 12.3681 8.16484 12.3386 8.21776 12.3108C8.24108 12.2986 8.28359 12.2757 8.32808 12.2455C8.34757 12.2322 8.39474 12.1994 8.44527 12.1494C8.47044 12.1245 8.51555 12.0768 8.55854 12.0077C8.59728 11.9454 8.67288 11.8045 8.67288 11.6086Z" fill="#343A3D"/>
</svg>
