<svg width="24" height="24" viewBox="0 0 24 24" fill="none" xmlns="http://www.w3.org/2000/svg">
<path fill-rule="evenodd" clip-rule="evenodd" d="M20.5825 2.18718C20.8446 2.37498 21 2.6776 21 3.00001V21C21 21.5523 20.5523 22 20 22C19.4477 22 19 21.5523 19 21V15H15C14.7156 15 14.4447 14.8789 14.255 14.667C13.9813 14.3613 14.0101 13.8282 14.0632 13.4448C14.1015 13.1679 14.1605 12.7734 14.2437 12.2968C14.4097 11.346 14.674 10.057 15.0673 8.71814C15.4584 7.38686 15.9891 5.96418 16.7027 4.7687C17.4051 3.59208 18.3666 2.49835 19.6786 2.05306C19.9839 1.94944 20.3204 1.99938 20.5825 2.18718ZM16.1532 13H19V4.95851C18.8033 5.19792 18.6096 5.47632 18.42 5.79382C17.8279 6.78584 17.3541 8.02982 16.9862 9.28187C16.6206 10.5264 16.3716 11.7374 16.2139 12.6407C16.1919 12.767 16.1716 12.887 16.1532 13ZM4 2.00001C4.55228 2.00001 5 2.44772 5 3.00001V5.00001H7V3.00001C7 2.44772 7.44772 2.00001 8 2.00001C8.55228 2.00001 9 2.44772 9 3.00001V5.00001H11V3.00001C11 2.44772 11.4477 2.00001 12 2.00001C12.5523 2.00001 13 2.44772 13 3.00001V7.00001C13 9.41896 11.2822 11.4367 9 11.9V21C9 21.5523 8.55228 22 8 22C7.44772 22 7 21.5523 7 21V11.9C4.71776 11.4367 3 9.41896 3 7.00001V3.00001C3 2.44772 3.44772 2.00001 4 2.00001ZM11 7.00001H5C5 8.65686 6.34315 10 8 10C9.65685 10 11 8.65686 11 7.00001Z" fill="#343A3D"/>
</svg>
