<svg width="24" height="24" viewBox="0 0 24 24" fill="none" xmlns="http://www.w3.org/2000/svg">
<path d="M12.4643 12.9098C12.4643 12.6336 12.2404 12.4098 11.9643 12.4098C11.6881 12.4098 11.4643 12.6336 11.4643 12.9098L12.4643 12.9098ZM11.2448 11.6444C11.0484 11.4503 10.7318 11.4521 10.5377 11.6485C10.3435 11.8449 10.3454 12.1615 10.5418 12.3556L11.2448 11.6444ZM11.9642 13.0586L11.6127 13.4142C11.8075 13.6067 12.1209 13.6067 12.3157 13.4142L11.9642 13.0586ZM13.3867 12.3556C13.5831 12.1615 13.5849 11.8449 13.3908 11.6485C13.1966 11.4521 12.8801 11.4503 12.6837 11.6444L13.3867 12.3556ZM8.42035 14.0831C8.14774 14.1271 7.9624 14.3837 8.00638 14.6563C8.05037 14.929 8.30703 15.1143 8.57965 15.0703L8.42035 14.0831ZM9.99639 14.3353L10.076 14.8289C10.2075 14.8077 10.3251 14.7349 10.4027 14.6266C10.4803 14.5184 10.5116 14.3836 10.4895 14.2523L9.99639 14.3353ZM10.2412 12.7771C10.1954 12.5047 9.93753 12.3211 9.66522 12.367C9.3929 12.4128 9.20929 12.6707 9.25511 12.943L10.2412 12.7771ZM15.6057 16.8574C15.8757 16.7992 16.0473 16.5332 15.9891 16.2633C15.9309 15.9933 15.6649 15.8217 15.3949 15.8799L15.6057 16.8574ZM14.019 16.688L13.9137 16.1993C13.7833 16.2274 13.6696 16.3063 13.5978 16.4187C13.526 16.531 13.502 16.6673 13.5311 16.7974L14.019 16.688ZM13.8583 18.2575C13.9187 18.527 14.1861 18.6965 14.4556 18.6361C14.725 18.5757 14.8945 18.3083 14.8341 18.0389L13.8583 18.2575ZM9.17886 18.0413C9.12051 18.3112 9.29201 18.5773 9.56191 18.6356C9.83182 18.694 10.0979 18.5225 10.1563 18.2526L9.17886 18.0413ZM9.98377 16.6844L10.4725 16.7901C10.5007 16.6598 10.4756 16.5237 10.403 16.4119C10.3303 16.3001 10.2161 16.222 10.0856 16.1949L9.98377 16.6844ZM8.60192 15.8864C8.33156 15.8301 8.06681 16.0037 8.01059 16.2741C7.95437 16.5444 8.12796 16.8092 8.39832 16.8654L8.60192 15.8864ZM10.5419 18.6442C10.3454 18.8383 10.3435 19.1548 10.5376 19.3513C10.7316 19.5477 11.0482 19.5497 11.2447 19.3556L10.5419 18.6442ZM12.6838 19.3556C12.8802 19.5496 13.1968 19.5477 13.3909 19.3513C13.5849 19.1549 13.583 18.8383 13.3866 18.6442L12.6838 19.3556ZM10.2489 13.9048C10.0113 13.7642 9.70461 13.8429 9.56399 14.0805C9.42336 14.3182 9.50201 14.6248 9.73966 14.7655L10.2489 13.9048ZM13.6754 17.0944C13.9131 17.235 14.2197 17.1564 14.3603 16.9187C14.501 16.6811 14.4223 16.3744 14.1847 16.2338L13.6754 17.0944ZM11.3651 16.5395C11.5976 16.3905 11.6653 16.0813 11.5164 15.8488C11.3674 15.6163 11.0581 15.5485 10.8256 15.6975L11.3651 16.5395ZM9.63488 16.4605L9.21388 16.7302L9.75338 17.5722L10.1744 17.3025L9.63488 16.4605ZM14.425 14.5643C14.656 14.413 14.7206 14.1031 14.5693 13.8721C14.418 13.6411 14.1081 13.5765 13.8771 13.7278L14.425 14.5643ZM12.5704 14.5836L12.1521 14.8576L12.7 15.6941L13.1183 15.4202L12.5704 14.5836ZM15.2914 15.1776C15.5581 15.2493 15.8324 15.0912 15.9041 14.8245C15.9758 14.5579 15.8177 14.2836 15.551 14.2119L15.2914 15.1776ZM13.9589 14.3016L13.4769 14.1689C13.4415 14.2973 13.4589 14.4344 13.525 14.5499C13.5911 14.6655 13.7006 14.7499 13.8291 14.7844L13.9589 14.3016ZM14.8388 12.9888C14.912 12.7226 14.7556 12.4473 14.4894 12.3741C14.2231 12.3008 13.9479 12.4573 13.8746 12.7235L14.8388 12.9888ZM11.4643 12.9098L11.4643 17.9418L12.4643 17.9418L12.4643 12.9098L11.4643 12.9098ZM10.5418 12.3556L11.6127 13.4142L12.3157 12.703L11.2448 11.6444L10.5418 12.3556ZM12.3157 13.4142L13.3867 12.3556L12.6837 11.6444L11.6127 12.703L12.3157 13.4142ZM8.57965 15.0703L10.076 14.8289L9.91674 13.8416L8.42035 14.0831L8.57965 15.0703ZM10.4895 14.2523L10.2412 12.7771L9.25511 12.943L9.50332 14.4182L10.4895 14.2523ZM15.3949 15.8799L13.9137 16.1993L14.1244 17.1768L15.6057 16.8574L15.3949 15.8799ZM13.5311 16.7974L13.8583 18.2575L14.8341 18.0389L14.5069 16.5787L13.5311 16.7974ZM10.1563 18.2526L10.4725 16.7901L9.49507 16.5788L9.17886 18.0413L10.1563 18.2526ZM10.0856 16.1949L8.60192 15.8864L8.39832 16.8654L9.88197 17.1739L10.0856 16.1949ZM11.2447 19.3556L12.3157 18.2975L11.6129 17.5861L10.5419 18.6442L11.2447 19.3556ZM11.6129 18.2975L12.6838 19.3556L13.3866 18.6442L12.3157 17.5862L11.6129 18.2975ZM9.73966 14.7655L13.6754 17.0944L14.1847 16.2338L10.2489 13.9048L9.73966 14.7655ZM10.8256 15.6975L9.63488 16.4605L10.1744 17.3025L11.3651 16.5395L10.8256 15.6975ZM13.8771 13.7278L12.5704 14.5836L13.1183 15.4202L14.425 14.5643L13.8771 13.7278ZM15.551 14.2119L14.0888 13.8187L13.8291 14.7844L15.2914 15.1776L15.551 14.2119ZM14.441 14.4342L14.8388 12.9888L13.8746 12.7235L13.4769 14.1689L14.441 14.4342Z" fill="#343A3D"/>
<path d="M8 23L8 22M16 23V22" stroke="#343A3D" stroke-width="2" stroke-linecap="round"/>
<path d="M7 6C7 6.55228 7.44772 7 8 7C8.55228 7 9 6.55228 9 6H7ZM9 5C9 4.44772 8.55228 4 8 4C7.44772 4 7 4.44772 7 5H9ZM7 3H17V1H7V3ZM18 4V20H20V4H18ZM17 21H7V23H17V21ZM6 20V4H4V20H6ZM7 21C6.44772 21 6 20.5523 6 20H4C4 21.6569 5.34315 23 7 23V21ZM18 20C18 20.5523 17.5523 21 17 21V23C18.6569 23 20 21.6569 20 20H18ZM17 3C17.5523 3 18 3.44772 18 4H20C20 2.34315 18.6569 1 17 1V3ZM7 1C5.34315 1 4 2.34315 4 4H6C6 3.44772 6.44772 3 7 3V1ZM9 6V5H7V6H9ZM4 10H19V8H4V10Z" fill="#343A3D"/>
</svg>
