<svg width="24" height="24" viewBox="0 0 24 24" fill="none" xmlns="http://www.w3.org/2000/svg">
<path d="M8 7C8 7.55228 8.44772 8 9 8C9.55228 8 10 7.55228 10 7V6C10 5.44772 9.55228 5 9 5C8.44772 5 8 5.44772 8 6V7Z" fill="#343A3D"/>
<path d="M9 16C8.44772 16 8 15.5523 8 15V13C8 12.4477 8.44772 12 9 12C9.55228 12 10 12.4477 10 13V15C10 15.5523 9.55228 16 9 16Z" fill="#343A3D"/>
<path d="M7 1C5.34315 1 4 2.34315 4 4V20C4 21.6569 5.34315 23 7 23H17C18.6569 23 20 21.6569 20 20V4C20 2.34315 18.6569 1 17 1H7ZM6 4C6 3.44772 6.44772 3 7 3H17C17.5523 3 18 3.44772 18 4V9H6V4ZM6 11H18V20C18 20.5523 17.5523 21 17 21H7C6.44772 21 6 20.5523 6 20V11Z" fill="#343A3D"/>
</svg>
