<svg width="24" height="24" viewBox="0 0 24 24" fill="none" xmlns="http://www.w3.org/2000/svg">
<path d="M11.5 9.30005C10.285 9.30005 9.3 10.285 9.3 11.5C9.3 12.7151 10.285 13.7 11.5 13.7C12.715 13.7 13.7 12.7151 13.7 11.5C13.7 10.285 12.715 9.30005 11.5 9.30005ZM10.7 11.5C10.7 11.0582 11.0582 10.7 11.5 10.7C11.9418 10.7 12.3 11.0582 12.3 11.5C12.3 11.9419 11.9418 12.3 11.5 12.3C11.0582 12.3 10.7 11.9419 10.7 11.5Z" fill="#343A3D"/>
<path d="M5 2C3.34315 2 2 3.34315 2 5V17C2 18.6569 3.34315 20 5 20H6.17071C6.58254 21.1652 7.69378 22 9 22H19C20.6569 22 22 20.6569 22 19V9C22 7.69378 21.1652 6.58254 20 6.17071V5C20 3.34315 18.6569 2 17 2H5ZM18 6H9C7.34315 6 6 7.34315 6 9V18H5C4.44772 18 4 17.5523 4 17V5C4 4.44772 4.44772 4 5 4H17C17.5523 4 18 4.44772 18 5V6ZM8 9C8 8.44772 8.44772 8 9 8H19C19.5523 8 20 8.44772 20 9V13.4674L19.9404 13.4377C19.0104 12.9727 17.8961 13.083 17.0753 13.7214L14.652 15.6062C14.2282 15.9358 13.6454 15.971 13.185 15.6947L12.9454 15.551C12.0507 15.0142 10.9268 15.0409 10.0586 15.6197L8 16.9921V9ZM19.3143 14.6899L20 15.0327V19C20 19.5523 19.5523 20 19 20H9C8.44772 20 8 19.5523 8 19V18.6747L10.8352 16.7846C11.2532 16.5059 11.7944 16.493 12.2251 16.7515L12.4647 16.8952C13.4209 17.4689 14.6313 17.3958 15.5115 16.7113L17.9348 14.8264C18.33 14.5191 18.8665 14.466 19.3143 14.6899Z" fill="#343A3D"/>
</svg>
