<svg width="24" height="24" viewBox="0 0 24 24" fill="none" xmlns="http://www.w3.org/2000/svg">
<path fill-rule="evenodd" clip-rule="evenodd" d="M16.6833 18.9462C16.28 18.9462 15.9531 19.288 15.9531 19.7096C15.9531 20.1313 16.28 20.4731 16.6833 20.4731C17.0866 20.4731 17.4136 20.1313 17.4136 19.7096C17.4136 19.288 17.0866 18.9462 16.6833 18.9462ZM14.4925 19.7096C14.4925 18.4447 15.4734 17.4193 16.6833 17.4193C17.8933 17.4193 18.8741 18.4447 18.8741 19.7096C18.8741 20.9746 17.8933 22 16.6833 22C15.4734 22 14.4925 20.9746 14.4925 19.7096Z" fill="#343A3D"/>
<path fill-rule="evenodd" clip-rule="evenodd" d="M15.1303 3.8555C12.336 2.16893 8.76307 3.16981 7.14982 6.09104C6.29523 7.63849 5.92994 9.13845 6.39529 10.3373L14.1343 15.0084C15.3003 14.8476 16.4117 13.7503 17.2686 12.1986C18.8819 9.27742 17.9245 5.54207 15.1303 3.8555ZM11.2188 15.5995L7.34559 13.2617C7.3939 13.7045 7.39597 14.1322 7.36191 14.5448C7.26516 15.7167 6.87973 16.7127 6.55222 17.4931C6.50277 17.6109 6.45598 17.7208 6.41169 17.8247C6.30159 18.0832 6.20698 18.3052 6.1255 18.5236C6.01315 18.8248 5.96226 19.028 5.9501 19.1736C5.93978 19.297 5.9592 19.349 5.98016 19.387C6.00876 19.4387 6.09723 19.5606 6.36712 19.7235C6.63722 19.8866 6.78115 19.9048 6.83621 19.9047C6.87559 19.9047 6.92639 19.8971 7.02222 19.8262C7.13567 19.7423 7.27748 19.5942 7.46985 19.3406C7.6072 19.1595 7.74055 18.9661 7.89541 18.7415C7.96148 18.6456 8.03148 18.5441 8.10737 18.4354C8.58872 17.7462 9.22056 16.8971 10.1464 16.2236C10.4715 15.9871 10.8273 15.7761 11.2188 15.5995ZM5.46335 5.0731C7.61435 1.17813 12.3783 -0.156381 16.104 2.09238C19.8296 4.34114 21.1061 9.32162 18.9551 13.2166C17.9656 15.0084 16.2677 17.0125 13.9264 17.0638C12.7154 17.0903 11.8842 17.4397 11.2586 17.8948C10.6132 18.3643 10.1386 18.9794 9.68017 19.6359C9.62242 19.7186 9.56293 19.8049 9.50241 19.8927C9.33641 20.1334 9.16264 20.3855 8.99558 20.6057C8.76403 20.9109 8.48626 21.2371 8.14718 21.488C7.79049 21.7519 7.35583 21.9397 6.83949 21.9406C6.33884 21.9415 5.85682 21.7663 5.39344 21.4867C4.92985 21.2068 4.54404 20.8581 4.29384 20.4052C4.03598 19.9384 3.97206 19.4517 4.01012 18.9964C4.04632 18.5632 4.17553 18.1476 4.31125 17.7838C4.4107 17.5173 4.53344 17.2292 4.65062 16.9542C4.69112 16.8592 4.73095 16.7657 4.76893 16.6752C5.08198 15.9292 5.35403 15.1901 5.42175 14.3698C5.48738 13.5748 5.36419 12.6498 4.78902 11.5463L4.78278 11.5343C3.6655 9.32051 4.47053 6.87085 5.46335 5.0731Z" fill="#343A3D"/>
</svg>
