<svg width="24" height="24" viewBox="0 0 24 24" fill="none" xmlns="http://www.w3.org/2000/svg">
<path d="M12 12C12.5523 12 13 12.4477 13 13V17.3755C13.4432 17.1368 13.9476 17 14.5 17H15.5C16.0523 17 16.5 17.4477 16.5 18C16.5 18.5523 16.0523 19 15.5 19H14.5C13.8345 19 13 19.717 13 21V22C13 22.5523 12.5523 23 12 23C11.4477 23 11 22.5523 11 22V21C11 20.9999 11 21.0001 11 21C10.9998 19.7172 10.1654 19 9.5 19H8.5C7.94772 19 7.5 18.5523 7.5 18C7.5 17.4477 7.94772 17 8.5 17H9.5C10.0524 17 10.5568 17.1368 11 17.3755V13C11 12.4477 11.4477 12 12 12Z" fill="#343A3D"/>
<path d="M9.68205 1.21878C10.4665 1.51915 11.2111 2.11001 11.7718 2.89345C11.8532 3.00717 11.9293 3.123 12 3.24043C12.0707 3.123 12.1468 3.00717 12.2282 2.89345C12.7889 2.11001 13.5335 1.51915 14.318 1.21878C15.0964 0.920726 16.007 0.883331 16.7514 1.38469C17.4958 1.88605 17.778 2.72676 17.7622 3.53845C17.7464 4.35236 17.439 5.23092 16.8836 6.01145C16.9695 6.00748 17.0559 6.00547 17.1429 6.00547C18.126 6.00547 19.051 6.26184 19.7527 6.71565C20.449 7.16597 21 7.87027 21 8.7494C21 9.62852 20.449 10.3328 19.7527 10.7831C19.0648 11.228 18.1624 11.4831 17.201 11.493C17.5555 12.1361 17.7497 12.819 17.7622 13.4616C17.778 14.2732 17.4958 15.114 16.7514 15.6153C16.007 16.1167 15.0964 16.0793 14.3179 15.7812C13.5335 15.4809 12.7889 14.89 12.2282 14.1066C12.1468 13.9928 12.0707 13.877 12 13.7596C11.9293 13.877 11.8532 13.9928 11.7718 14.1066C11.2111 14.89 10.4665 15.4809 9.68205 15.7812C8.90362 16.0793 7.99301 16.1167 7.24858 15.6153C6.50416 15.114 6.22199 14.2732 6.23777 13.4616C6.25026 12.819 6.4445 12.1361 6.79904 11.493C5.83759 11.4831 4.93518 11.228 4.2473 10.7831C3.55098 10.3328 3 9.62852 3 8.7494C3 7.87027 3.55098 7.16597 4.2473 6.71565C4.94902 6.26184 5.87399 6.00547 6.85714 6.00547C6.94407 6.00547 7.03054 6.00748 7.11644 6.01145C6.56101 5.23092 6.25359 4.35236 6.23777 3.53845C6.22198 2.72676 6.50415 1.88605 7.24858 1.38469C7.99301 0.883331 8.90362 0.920726 9.68205 1.21878ZM9.11561 2.61095C8.64554 2.43096 8.3173 2.48695 8.12846 2.61413C7.93963 2.74131 7.77082 3.02007 7.78035 3.51022C7.78976 3.99409 7.98094 4.59501 8.39214 5.16958C8.80335 5.74415 9.31692 6.12795 9.78096 6.30563C9.92996 6.36268 10.0647 6.39602 10.1853 6.4109C10.4381 6.21855 10.7224 6.06542 11.0291 5.96058C11.0863 5.81783 11.1207 5.63512 11.1162 5.40636C11.1068 4.92249 10.9156 4.32157 10.5044 3.747C10.0932 3.17243 9.57965 2.78863 9.11561 2.61095ZM13.8147 6.4109C13.9353 6.39602 14.07 6.36268 14.219 6.30563C14.6831 6.12795 15.1967 5.74415 15.6079 5.16958C16.0191 4.59501 16.2102 3.99409 16.2196 3.51022C16.2292 3.02007 16.0604 2.74131 15.8715 2.61413C15.6827 2.48695 15.3545 2.43096 14.8844 2.61095C14.4204 2.78863 13.9068 3.17243 13.4956 3.747C13.0844 4.32157 12.8932 4.92249 12.8838 5.40636C12.8793 5.63512 12.9137 5.81783 12.9709 5.96058C13.2776 6.06542 13.5619 6.21855 13.8147 6.4109ZM14.978 9.16485C15.0664 9.28792 15.199 9.41507 15.3888 9.53783C15.8039 9.80627 16.4218 9.99664 17.1429 9.99664C17.8639 9.99664 18.4818 9.80627 18.8969 9.53783C19.3174 9.26589 19.4571 8.9724 19.4571 8.7494C19.4571 8.52639 19.3174 8.2329 18.8969 7.96097C18.4818 7.69252 17.8639 7.50216 17.1429 7.50216C16.4218 7.50216 15.8039 7.69252 15.3888 7.96097C15.1906 8.08917 15.0547 8.22217 14.9665 8.35032C14.9886 8.497 15 8.64717 15 8.8C15 8.9235 14.9925 9.04526 14.978 9.16485ZM9.03348 8.35032C8.94525 8.22217 8.8094 8.08917 8.61116 7.96097C8.19607 7.69252 7.57818 7.50216 6.85714 7.50216C6.1361 7.50216 5.51822 7.69252 5.10312 7.96097C4.68264 8.2329 4.54286 8.52639 4.54286 8.7494C4.54286 8.9724 4.68264 9.26589 5.10312 9.53783C5.51822 9.80627 6.1361 9.99664 6.85714 9.99664C7.57818 9.99664 8.19607 9.80627 8.61116 9.53783C8.80097 9.41507 8.93359 9.28792 9.02196 9.16485C9.00746 9.04526 9 8.9235 9 8.8C9 8.64717 9.01143 8.497 9.03348 8.35032ZM9.70062 10.727C9.25832 10.9167 8.77976 11.2888 8.39215 11.8304C7.98094 12.405 7.78976 13.0059 7.78035 13.4898C7.77082 13.9799 7.93963 14.2587 8.12846 14.3859C8.3173 14.513 8.64554 14.569 9.11561 14.3891C9.57965 14.2114 10.0932 13.8276 10.5044 13.253C10.8951 12.7071 11.0872 12.1373 11.1135 11.6668C10.5554 11.4945 10.067 11.1637 9.70062 10.727ZM12.8865 11.6668C12.9128 12.1373 13.1049 12.7071 13.4956 13.253C13.9068 13.8276 14.4203 14.2114 14.8844 14.3891C15.3545 14.569 15.6827 14.513 15.8715 14.3859C16.0604 14.2587 16.2292 13.9799 16.2196 13.4898C16.2102 13.0059 16.0191 12.405 15.6079 11.8304C15.3564 11.4791 14.8385 10.9026 14.341 10.6763C13.9704 11.1381 13.466 11.4879 12.8865 11.6668ZM10.6364 8.8C10.6364 9.55312 11.2469 10.1636 12 10.1636C12.7531 10.1636 13.3636 9.55312 13.3636 8.8C13.3636 8.04688 12.7531 7.43636 12 7.43636C11.2469 7.43636 10.6364 8.04688 10.6364 8.8Z" fill="#343A3D"/>
</svg>
