<svg width="24" height="24" viewBox="0 0 24 24" fill="none" xmlns="http://www.w3.org/2000/svg">
<path d="M11.7718 2.89345C11.2111 2.11001 10.4665 1.51915 9.68205 1.21878C8.90362 0.920726 7.99301 0.883331 7.24858 1.38469C6.50415 1.88605 6.22198 2.72676 6.23777 3.53845C6.25359 4.35236 6.56101 5.23092 7.11644 6.01145C7.03054 6.00748 6.94407 6.00547 6.85714 6.00547C5.87399 6.00547 4.94902 6.26184 4.2473 6.71565C3.55098 7.16597 3 7.87027 3 8.7494C3 9.62852 3.55098 10.3328 4.2473 10.7831C4.93518 11.228 5.83759 11.4831 6.79904 11.493C6.4445 12.1361 6.25026 12.819 6.23777 13.4616C6.22199 14.2732 6.50416 15.114 7.24858 15.6153C7.99301 16.1167 8.90362 16.0793 9.68205 15.7812C10.1451 15.6039 10.5943 15.3254 11 14.9657V17.3755C10.5568 17.1368 10.0524 17 9.5 17H8.5C7.94772 17 7.5 17.4477 7.5 18C7.5 18.5523 7.94772 19 8.5 19H9.5C10.1654 19 10.9998 19.7172 11 21V22C11 22.5523 11.4477 23 12 23C12.5523 23 13 22.5523 13 22V21C13 19.717 13.8345 19 14.5 19H15.5C16.0523 19 16.5 18.5523 16.5 18C16.5 17.4477 16.0523 17 15.5 17H14.5C13.9476 17 13.4432 17.1368 13 17.3755V14.9657C13.4057 15.3254 13.8549 15.6039 14.3179 15.7812C15.0964 16.0793 16.007 16.1167 16.7514 15.6153C17.4958 15.114 17.778 14.2732 17.7622 13.4616C17.7497 12.819 17.5555 12.1361 17.201 11.493C18.1624 11.4831 19.0648 11.228 19.7527 10.7831C20.449 10.3328 21 9.62852 21 8.7494C21 7.87027 20.449 7.16597 19.7527 6.71565C19.051 6.26184 18.126 6.00547 17.1429 6.00547C17.0559 6.00547 16.9695 6.00748 16.8836 6.01145C17.439 5.23092 17.7464 4.35236 17.7622 3.53845C17.778 2.72676 17.4958 1.88605 16.7514 1.38469C16.007 0.883331 15.0964 0.920726 14.318 1.21878C13.5335 1.51915 12.7889 2.11001 12.2282 2.89345C12.1468 3.00717 12.0707 3.123 12 3.24043C11.9293 3.123 11.8532 3.00717 11.7718 2.89345ZM8.12846 2.61413C8.3173 2.48695 8.64554 2.43096 9.11561 2.61095C9.57965 2.78863 10.0932 3.17243 10.5044 3.747C10.9156 4.32157 11.1068 4.92249 11.1162 5.40636C11.1207 5.63512 11.0863 5.81783 11.0291 5.96058C10.7224 6.06542 10.4381 6.21855 10.1853 6.4109C10.0647 6.39602 9.92996 6.36268 9.78096 6.30563C9.31692 6.12795 8.80335 5.74415 8.39214 5.16958C7.98094 4.59501 7.78976 3.99409 7.78035 3.51022C7.77082 3.02007 7.93963 2.74131 8.12846 2.61413ZM14.219 6.30563C14.07 6.36268 13.9353 6.39602 13.8147 6.4109C13.5619 6.21855 13.2776 6.06542 12.9709 5.96058C12.9137 5.81783 12.8793 5.63512 12.8838 5.40636C12.8932 4.92249 13.0844 4.32157 13.4956 3.747C13.9068 3.17243 14.4204 2.78863 14.8844 2.61095C15.3545 2.43096 15.6827 2.48695 15.8715 2.61413C16.0604 2.74131 16.2292 3.02007 16.2196 3.51022C16.2102 3.99409 16.0191 4.59501 15.6079 5.16958C15.1967 5.74415 14.6831 6.12795 14.219 6.30563ZM15.3888 9.53783C15.199 9.41507 15.0664 9.28792 14.978 9.16485C14.9925 9.04526 15 8.9235 15 8.8C15 8.64717 14.9886 8.497 14.9665 8.35032C15.0547 8.22217 15.1906 8.08917 15.3888 7.96097C15.8039 7.69252 16.4218 7.50216 17.1429 7.50216C17.8639 7.50216 18.4818 7.69252 18.8969 7.96097C19.3174 8.2329 19.4571 8.52639 19.4571 8.7494C19.4571 8.9724 19.3174 9.26589 18.8969 9.53783C18.4818 9.80627 17.8639 9.99664 17.1429 9.99664C16.4218 9.99664 15.8039 9.80627 15.3888 9.53783ZM8.61116 7.96097C8.8094 8.08917 8.94525 8.22217 9.03348 8.35032C9.01143 8.497 9 8.64717 9 8.8C9 8.9235 9.00746 9.04526 9.02196 9.16485C8.93359 9.28792 8.80097 9.41507 8.61116 9.53783C8.19607 9.80627 7.57818 9.99664 6.85714 9.99664C6.1361 9.99664 5.51822 9.80627 5.10312 9.53783C4.68264 9.26589 4.54286 8.9724 4.54286 8.7494C4.54286 8.52639 4.68264 8.2329 5.10312 7.96097C5.51822 7.69252 6.1361 7.50216 6.85714 7.50216C7.57818 7.50216 8.19607 7.69252 8.61116 7.96097ZM8.39215 11.8304C8.77976 11.2888 9.25832 10.9167 9.70062 10.727C10.067 11.1637 10.5554 11.4945 11.1135 11.6668C11.0872 12.1373 10.8951 12.7071 10.5044 13.253C10.0932 13.8276 9.57965 14.2114 9.11561 14.3891C8.64554 14.569 8.3173 14.513 8.12846 14.3859C7.93963 14.2587 7.77082 13.9799 7.78035 13.4898C7.78976 13.0059 7.98094 12.405 8.39215 11.8304ZM13.4956 13.253C13.1049 12.7071 12.9128 12.1373 12.8865 11.6668C13.466 11.4879 13.9704 11.1381 14.341 10.6763C14.8385 10.9026 15.3564 11.4791 15.6079 11.8304C16.0191 12.405 16.2102 13.0059 16.2196 13.4898C16.2292 13.9799 16.0604 14.2587 15.8715 14.3859C15.6827 14.513 15.3545 14.569 14.8844 14.3891C14.4203 14.2114 13.9068 13.8276 13.4956 13.253ZM12 10.1636C11.2469 10.1636 10.6364 9.55312 10.6364 8.8C10.6364 8.04688 11.2469 7.43636 12 7.43636C12.7531 7.43636 13.3636 8.04688 13.3636 8.8C13.3636 9.55312 12.7531 10.1636 12 10.1636Z" fill="#343A3D"/>
</svg>
