<svg width="24" height="24" viewBox="0 0 24 24" fill="none" xmlns="http://www.w3.org/2000/svg">
<path d="M11.7404 3.97647C12.9351 3.97645 13.9304 4.5673 14.2476 5.52429C14.414 6.02624 14.944 6.30736 15.45 6.162C16.9442 5.73271 17.9872 5.97547 18.6734 6.43551C19.3797 6.90899 19.8373 7.69878 19.9844 8.58599C20.1322 9.47806 19.9507 10.3799 19.491 11.034C19.0537 11.6559 18.315 12.1294 17.1455 12.1294C16.6027 12.1294 16.1627 12.5719 16.1627 13.1177V16.0564L11.7403 16.0563V14.1058C11.7403 13.56 11.3003 13.1176 10.7575 13.1176C10.2148 13.1176 9.77477 13.56 9.77477 14.1058V16.0563L7.31784 16.0563V13.1176C7.31784 12.8555 7.2143 12.6042 7.03 12.4188C6.84569 12.2335 6.59572 12.1294 6.33507 12.1294C5.33074 12.1294 4.73013 11.6956 4.37732 11.0992C3.99592 10.4544 3.86522 9.53876 4.04439 8.61218C4.22302 7.68839 4.68471 6.88193 5.32545 6.41131C5.92855 5.96835 6.78942 5.74699 7.98983 6.14936C8.50473 6.32195 9.06128 6.04214 9.23293 5.52438C9.55022 4.56737 10.5457 3.97648 11.7404 3.97647ZM16.1627 18.0328V21.0235L7.31784 21.0235V18.0328L16.1627 18.0328ZM15.7308 4.07012C14.8652 2.64401 13.2308 1.99998 11.7403 2C10.256 2.00002 8.62898 2.63877 7.76061 4.05251C6.36504 3.79483 5.13618 4.10276 4.1661 4.81528C3.04094 5.6417 2.36631 6.93522 2.11499 8.23493C1.8642 9.53187 2.0099 10.9632 2.68804 12.1096C3.25042 13.0603 4.15181 13.7621 5.35231 14.009V22.0117C5.35231 22.5575 5.79231 23 6.33507 23L17.1455 23C17.4061 23 17.6561 22.8959 17.8404 22.7106C18.0247 22.5252 18.1282 22.2739 18.1282 22.0118V14.0231C19.4264 13.7961 20.4329 13.1181 21.096 12.1749C21.8954 11.0377 22.1439 9.59253 21.9232 8.26107C21.7017 6.92475 20.9922 5.61455 19.7637 4.79098C18.6946 4.07427 17.3241 3.78697 15.7308 4.07012Z" fill="#343A3D"/>
</svg>
