<svg width="24" height="24" viewBox="0 0 24 24" fill="none" xmlns="http://www.w3.org/2000/svg">
<path d="M12 10.0001C12.5523 10.0001 13 10.4478 13 11.0001V15.5859L13.7929 14.793C14.1834 14.4025 14.8166 14.4025 15.2071 14.793C15.5976 15.1835 15.5976 15.8167 15.2071 16.2072L12.7071 18.7072C12.3166 19.0978 11.6834 19.0978 11.2929 18.7072L8.79289 16.2072C8.40237 15.8167 8.40237 15.1835 8.79289 14.793C9.18342 14.4025 9.81658 14.4025 10.2071 14.793L11 15.5859V11.0001C11 10.4478 11.4477 10.0001 12 10.0001Z" fill="#444444"/>
<path d="M19.9992 7.95932C19.9958 7.66514 19.9808 7.39367 19.9171 7.12819C19.8436 6.82208 19.7224 6.52945 19.5579 6.26103C19.3707 5.95549 19.1168 5.70206 18.8288 5.41461L15.5855 2.17131C15.298 1.88333 15.0446 1.62942 14.7391 1.44218C14.4707 1.2777 14.178 1.15648 13.8719 1.08299C13.5235 0.999338 13.1647 0.999672 12.7578 1.00005L8.16146 1.0001C7.63431 1.00008 7.17955 1.00007 6.80497 1.03067C6.40963 1.06297 6.01641 1.13429 5.63803 1.32708C5.07354 1.6147 4.6146 2.07364 4.32698 2.63813C4.13419 3.01651 4.06287 3.40973 4.03057 3.80507C3.99997 4.17964 3.99998 4.63439 4 5.16152V18.8386C3.99998 19.3658 3.99997 19.8206 4.03057 20.1951C4.06287 20.5905 4.13419 20.9837 4.32698 21.3621C4.6146 21.9266 5.07354 22.3855 5.63803 22.6731C6.01641 22.8659 6.40963 22.9372 6.80497 22.9695C7.17954 23.0001 7.6343 23.0001 8.16144 23.0001H15.8386C16.3657 23.0001 16.8205 23.0001 17.195 22.9695C17.5904 22.9372 17.9836 22.8659 18.362 22.6731C18.9265 22.3855 19.3854 21.9266 19.673 21.3621C19.8658 20.9837 19.9371 20.5905 19.9694 20.1951C20 19.8206 20 19.3659 20 18.8388L20.0001 8.24228C20.0001 8.16792 20.0002 8.09453 19.9997 8.02316L20 8.00012C20 7.98645 19.9997 7.97285 19.9992 7.95932ZM12 3.0001V7.00012C12 8.10469 12.8954 9.00012 14 9.00012H18V18.8001C18 19.3767 17.9992 19.7489 17.9761 20.0323C17.9539 20.3039 17.9162 20.4046 17.891 20.4541C17.7951 20.6423 17.6422 20.7952 17.454 20.8911C17.4045 20.9163 17.3038 20.954 17.0322 20.9762C16.7488 20.9993 16.3766 21.0001 15.8 21.0001H8.2C7.62345 21.0001 7.25118 20.9993 6.96784 20.9762C6.69618 20.954 6.59546 20.9163 6.54601 20.8911C6.35785 20.7952 6.20487 20.6423 6.109 20.4541C6.0838 20.4046 6.04613 20.3039 6.02393 20.0323C6.00078 19.7489 6 19.3767 6 18.8001V5.2001C6 4.62355 6.00078 4.25128 6.02393 3.96794C6.04613 3.69627 6.0838 3.59556 6.109 3.54611C6.20487 3.35795 6.35785 3.20497 6.54601 3.1091C6.59546 3.0839 6.69618 3.04622 6.96784 3.02403C7.25118 3.00088 7.62345 3.0001 8.2 3.0001H12ZM17.584 7.00012H14V3.41614C14.0615 3.47634 14.1367 3.55102 14.2302 3.64447L17.3556 6.76995C17.4491 6.8634 17.5238 6.93864 17.584 7.00012Z" fill="#444444"/>
</svg>
