<svg width="24px" height="24px" viewBox="0 0 24 24" version="1.1" xmlns="http://www.w3.org/2000/svg" xmlns:xlink="http://www.w3.org/1999/xlink">
    <g id="Page-1" stroke="none" stroke-width="1" fill="none" fill-rule="evenodd">
        <g id="icono-escapadas24px" transform="translate(0.500000, 2.000000)" fill="#343A3D">
            <path d="M8.81011936,7 L11.4509648,1.17040833 C11.7082353,0.60249081 12.3771824,0.35066171 12.9450999,0.60793227 C13.1892453,0.7185318 13.3860744,0.91239037 13.5003737,1.15482569 L14.6858218,3.66923023 C14.8035813,3.9190048 14.6965618,4.21694995 14.4467873,4.33470936 C14.1970127,4.45246878 13.8990676,4.34544935 13.7813081,4.09567479 L12.59586,1.58127024 C12.5828093,1.55358898 12.5603353,1.5314542 12.5324588,1.51882595 C12.467614,1.48945079 12.3912336,1.51820464 12.3618584,1.58304947 L9.5879742,7.70632057 C9.5069716,7.88513155 9.3288302,8 9.1325274,8 L0.5,8 C0.22385763,8 0,7.77614237 0,7.5 C0,7.22385763 0.22385763,7 0.5,7 L8.81011936,7 Z M12.4678734,16.764336 L6.97476659,19.3964915 C6.41251041,19.6659102 5.73830471,19.4285185 5.46888602,18.8662624 C5.35583318,18.6303298 5.32823498,18.3624556 5.39080887,18.1084288 L5.647734,17.0654079 C5.71378129,16.7972804 5.98468349,16.633462 6.25281102,16.6995093 C6.52093854,16.7655566 6.68475693,17.0364588 6.61870965,17.3045863 L6.36178452,18.3476072 C6.35463983,18.3766119 6.357791,18.4071978 6.37069937,18.4341366 C6.4014616,18.498335 6.47844241,18.5254404 6.54264082,18.4946782 L12.2518105,15.7589909 C12.3884158,15.6935331 12.5473309,15.6935331 12.6839363,15.7589909 L18.3931059,18.4946782 C18.4200447,18.5075865 18.4506306,18.5107377 18.4796354,18.503593 C18.5487573,18.4865664 18.5909889,18.4167291 18.5739622,18.3476072 L17.164947,12.627527 C17.1246443,12.4639132 17.1694632,12.2910043 17.2841703,12.1675699 L21.4844567,7.64770797 C21.5066163,7.62386232 21.518933,7.59251531 21.518933,7.55996281 C21.518933,7.48877467 21.4612236,7.43106528 21.3900355,7.43106528 L15.3752321,7.43106528 C15.0990897,7.43106528 14.8752321,7.20720766 14.8752321,6.93106528 C14.8752321,6.65492291 15.0990897,6.43106528 15.3752321,6.43106528 L21.3900355,6.43106528 C22.0135084,6.43106528 22.518933,6.93648992 22.518933,7.55996281 C22.518933,7.84506089 22.4110622,8.1196011 22.2169857,8.3284438 L18.2005023,12.6505182 L19.5449379,18.1084288 C19.6940591,18.7138058 19.3241907,19.3254474 18.7188138,19.4745687 C18.4647869,19.5371426 18.1969128,19.5095444 17.9609802,19.3964915 L12.4678734,16.764336 Z" id="estrella" fill-rule="nonzero"></path>
            <path d="M1.5,11 C1.22385763,11 1,10.7761424 1,10.5 C1,10.2238576 1.22385763,10 1.5,10 L12.5,10 C12.7761424,10 13,10.2238576 13,10.5 C13,10.7761424 12.7761424,11 12.5,11 L1.5,11 Z" id="halo1"></path>
            <path d="M3.5,14 C3.22385763,14 3,13.7761424 3,13.5 C3,13.2238576 3.22385763,13 3.5,13 L11.0625,13 C11.3386424,13 11.5625,13.2238576 11.5625,13.5 C11.5625,13.7761424 11.3386424,14 11.0625,14 L3.5,14 Z" id="halo2"></path>
        </g>
    </g>
</svg>