<svg width="24" height="24" viewBox="0 0 24 24" fill="none" xmlns="http://www.w3.org/2000/svg">
<path d="M13 4.5L10.347 9.41203C10.1864 9.74258 9.8582 9.95139 9.49917 9.95139H1.91614C1.39264 9.95139 0.968262 9.51455 0.968262 8.97569C0.968262 8.43682 1.39264 7.99999 1.91614 7.99999H8.91335L11.7004 2.81199C12.2083 1.76647 13.6432 1.72547 14.2066 2.74038L17.1583 7.99999H21.5436C22.8432 7.99999 23.4616 9.64662 22.5 10.5465L18.6924 14L20.5303 20.1156C21.0027 21.3312 19.8056 22.5247 18.6403 22L13 19L7.44271 21.8603C6.25804 22.47 4.97825 21.2279 5.5 19.9748L6.41215 17.7839C6.61837 17.2886 7.17561 17.0592 7.65678 17.2715C8.13795 17.4837 8.36085 18.0573 8.15463 18.5526L7.75214 19.5193L12.5493 17.0502C12.8009 16.9207 13.0954 16.913 13.3531 17.029L18.3407 19.7351L16.6879 14.0959C16.541 13.7178 16.6377 13.2856 16.9304 13.0116L20.3177 9.95139H16.6083C16.2681 9.95139 15.954 9.76377 15.7853 9.45977L13 4.5Z" fill="#343A3D"/>
<path d="M2.54727 12C2.54727 11.5958 2.86556 11.2682 3.25818 11.2682L11.7891 11.2682C12.1817 11.2682 12.5 11.5958 12.5 12C12.5 12.4041 12.1817 12.7318 11.7891 12.7318L3.25818 12.7318C2.86556 12.7318 2.54727 12.4041 2.54727 12Z" fill="#343A3D"/>
<path d="M5.10182 14.2682C4.70919 14.2682 4.39091 14.5958 4.39091 15C4.39091 15.4041 4.70919 15.7318 5.10182 15.7318L10.7891 15.7318C11.1817 15.7318 11.5 15.4041 11.5 15C11.5 14.5958 11.1817 14.2682 10.7891 14.2682H5.10182Z" fill="#343A3D"/>
</svg>
