<svg width="24" height="24" viewBox="0 0 24 24" fill="none" xmlns="http://www.w3.org/2000/svg">
<path d="M6.96564 2.96555C7.58388 2.34732 8.42238 2 9.2967 2C10.171 2 11.0095 2.34732 11.6277 2.96555L11.6309 2.96867L11.6309 2.96868C11.7707 3.10973 11.8929 3.26616 12.0001 3.43087C12.1073 3.26616 12.2295 3.10973 12.3693 2.96868L12.3724 2.96555C12.9907 2.34732 13.8292 2 14.7035 2C15.5778 2 16.4163 2.34732 17.0345 2.96555C17.6528 3.58379 18.0001 4.42229 18.0001 5.29661C18.0001 5.90203 17.8336 6.49029 17.5258 7.00012H20C21.1046 7.00012 22 7.89555 22 9.00012V12.0001C22 13.1047 21.1046 14.0001 20 14.0001H20V19.9999C20 21.1045 19.1046 21.9999 18 21.9999L5.99999 22C4.89542 22 3.99998 21.1045 3.99998 20V14.0001C2.89542 14.0001 2 13.1047 2 12.0001V9.00012C2 7.89555 2.89543 7.00012 4 7.00012H6.47433C6.16663 6.49029 6.00009 5.90203 6.00009 5.29661C6.00009 4.42229 6.34741 3.58379 6.96564 2.96555ZM11.0001 9.00012H4V12.0001H4.97925C4.98614 12 4.99305 11.9999 4.99998 11.9999H11.0001V9.00012ZM19.0207 12.0001H20V9.00012H13.0001V11.9999H19C19.0069 11.9999 19.0138 12 19.0207 12.0001ZM13.0592 6.94087C13.2342 6.92408 13.4215 6.90258 13.6141 6.87509C14.0535 6.81241 14.4966 6.72188 14.8765 6.59564C15.2716 6.46431 15.5088 6.32323 15.6221 6.2117C15.8641 5.96871 16.0001 5.63967 16.0001 5.29661C16.0001 4.95272 15.8635 4.62293 15.6203 4.37977C15.3772 4.13661 15.0474 4 14.7035 4C14.3604 4 14.0314 4.13596 13.7884 4.37805C13.6768 4.49134 13.5358 4.72848 13.4044 5.12362C13.2782 5.50345 13.1877 5.94659 13.125 6.38595C13.0975 6.57863 13.076 6.76591 13.0592 6.94087ZM10.941 6.94087C10.9242 6.76591 10.9027 6.57863 10.8752 6.38595C10.8125 5.94659 10.722 5.50345 10.5957 5.12362C10.4644 4.72844 10.3233 4.4913 10.2118 4.37802C9.96879 4.13595 9.63975 4 9.2967 4C8.95281 4 8.62302 4.13661 8.37986 4.37977C8.13669 4.62293 8.00009 4.95273 8.00009 5.29661C8.00009 5.63967 8.13604 5.9687 8.37811 6.2117C8.4914 6.32323 8.72854 6.46431 9.12371 6.59565C9.50354 6.72188 9.94668 6.81241 10.386 6.87509C10.5787 6.90258 10.766 6.92408 10.941 6.94087ZM11.0001 14.0001H5.99998V20L11.0001 19.9999V14.0001ZM13.0001 19.9999L18 19.9999V14.0001H13.0001V19.9999Z" fill="#343A3D"/>
</svg>
