<svg width="24" height="24" viewBox="0 0 24 24" fill="none" xmlns="http://www.w3.org/2000/svg">
<path d="M12 13C9.23858 13 7 10.7614 7 8C7 5.23858 9.23858 3 12 3C14.7614 3 17 5.23858 17 8C17 10.7614 14.7614 13 12 13ZM12 15C15.866 15 19 11.866 19 8C19 4.13401 15.866 1 12 1C8.13401 1 5 4.13401 5 8C5 11.866 8.13401 15 12 15Z" fill="#343A3D"/>
<path d="M15 9C15 9.55229 14.5523 10 14 10C13.4477 10 13 9.55229 13 9C13 8.44772 13.4477 8 14 8C14.5523 8 15 8.44772 15 9Z" fill="#343A3D"/>
<path d="M12 7C12 7.55228 11.5523 8 11 8C10.4477 8 10 7.55228 10 7C10 6.44772 10.4477 6 11 6C11.5523 6 12 6.44772 12 7Z" fill="#343A3D"/>
<path d="M15 6C15 6.55228 14.5523 7 14 7C13.4477 7 13 6.55228 13 6C13 5.44772 13.4477 5 14 5C14.5523 5 15 5.44772 15 6Z" fill="#343A3D"/>
<path d="M8 16C7.44772 16 7 16.4477 7 17C7 17.5523 7.44772 18 8 18H9C10.1046 18 11 18.8954 11 20V22C11 22.5523 11.4477 23 12 23C12.5523 23 13 22.5523 13 22V20C13 18.8954 13.8954 18 15 18H16C16.5523 18 17 17.5523 17 17C17 16.4477 16.5523 16 16 16H8Z" fill="#343A3D"/>
</svg>
