<svg width="24" height="24" viewBox="0 0 24 24" fill="none" xmlns="http://www.w3.org/2000/svg">
<path d="M5.00361 0.998779C2.79194 0.998779 0.999023 2.7917 0.999023 5.00337V18.9965C0.999023 21.2082 2.79194 23.0011 5.00361 23.0011H18.9967C21.2084 23.0011 23.0013 21.2082 23.0013 18.9965V5.00337C23.0013 2.7917 21.2084 0.998779 18.9967 0.998779H5.00361ZM3.00132 5.00337C3.00132 3.89753 3.89778 3.00107 5.00361 3.00107H7.00017L7.00017 11H3.00132V5.00337ZM3.00132 13H7.00017L7.00017 20.9988H5.00361C3.89778 20.9988 3.00132 20.1023 3.00132 18.9965V13ZM9.00017 20.9988V13H14.7502V20.9988H9.00017ZM16.7502 20.9988V13H20.999V18.9965C20.999 20.1023 20.1026 20.9988 18.9967 20.9988H16.7502ZM20.999 11H16.7502V3.00107H18.9967C20.1026 3.00107 20.999 3.89753 20.999 5.00337V11ZM14.7502 3.00107V11H9.00017V3.00107H14.7502Z" fill="#343A3D"/>
</svg>
