<svg width="24" height="24" viewBox="0 0 24 24" fill="none" xmlns="http://www.w3.org/2000/svg">
<path fill-rule="evenodd" clip-rule="evenodd" d="M8 2C8.55228 2 9 2.44772 9 3V4C9 4.55228 8.55228 5 8 5C7.44772 5 7 4.55228 7 4V3C7 2.44772 7.44772 2 8 2ZM12 2C12.5523 2 13 2.44772 13 3V4C13 4.55228 12.5523 5 12 5C11.4477 5 11 4.55228 11 4V3C11 2.44772 11.4477 2 12 2ZM16 2C16.5523 2 17 2.44772 17 3V4C17 4.55228 16.5523 5 16 5C15.4477 5 15 4.55228 15 4V3C15 2.44772 15.4477 2 16 2ZM3.29263 6.29316C3.48019 6.10546 3.73465 6 4 6H20C20.5523 6 21 6.44772 21 7C20.9907 7.24855 21 6.99909 21 7.0012L21 7.00577L20.9999 7.01414L20.9996 7.0385C20.9992 7.05808 20.9986 7.08428 20.9973 7.11667C20.9949 7.18141 20.9901 7.27107 20.9811 7.38212C20.963 7.60386 20.9274 7.913 20.8574 8.2808C20.7181 9.01241 20.4379 9.99951 19.8686 10.996C19.2075 12.1534 18.1819 13.275 16.6356 14.0352L17.1278 15.0196C17.2501 15.0066 17.3743 15 17.5 15C19.433 15 21 16.567 21 18.5C21 20.433 19.433 22 17.5 22C16.1038 22 14.8985 21.1825 14.3368 20H6.61804L5.89443 21.4472C5.64744 21.9412 5.04676 22.1414 4.55279 21.8944C4.05881 21.6474 3.85858 21.0468 4.10557 20.5528L5.09588 18.5722C5.10186 18.5596 5.10809 18.5471 5.11457 18.5348L7.36527 14.0334C5.82067 13.2733 4.79556 12.1527 4.13425 10.9965C3.56432 10.0001 3.28341 9.01309 3.14356 8.28151C3.07325 7.91373 3.03748 7.6046 3.01922 7.38285C3.01007 7.27181 3.00528 7.18215 3.00276 7.11741C3.00151 7.08503 3.00082 7.05883 3.00044 7.03925L3.00002 7.00652L3.00001 7.0033L3 7.00194C3 7.00194 4.6694 6.9995 3 7.00074C2.9998 6.7354 3.10507 6.48085 3.29263 6.29316ZM5.12661 8C5.24301 8.56787 5.46214 9.28989 5.87031 10.0035C6.69504 11.4454 8.36633 13 12.0026 13C15.6388 13 17.3086 11.4455 18.132 10.004C18.5398 9.29018 18.7584 8.56795 18.8743 8H5.12661ZM9.2658 14.7045L7.61803 18L14.0354 18C14.1621 17.1149 14.6198 16.3365 15.2793 15.7946L14.7347 14.7055C13.9272 14.8941 13.0202 15 12.0026 15C10.9831 15 10.0745 14.8937 9.2658 14.7045ZM17.5 17C16.6716 17 16 17.6716 16 18.5C16 19.3284 16.6716 20 17.5 20C18.3284 20 19 19.3284 19 18.5C19 17.6716 18.3284 17 17.5 17Z" fill="#343A3D"/>
</svg>
