<svg width="24" height="24" viewBox="0 0 24 24" fill="none" xmlns="http://www.w3.org/2000/svg">
<path fill-rule="evenodd" clip-rule="evenodd" d="M4.5 6.66667C4.5 5.58322 5.48435 5 6.3 5H8.7C9.51565 5 10.5 5.58322 10.5 6.66667V11L14.5 11V7C14.5 5.89543 15.3954 5 16.5 5H18.5C19.6046 5 20.5 5.89543 20.5 7H21.5C22.6046 7 23.5 7.89543 23.5 9V15C23.5 16.1046 22.6046 17 21.5 17H20.5C20.5 18.1046 19.6046 19 18.5 19H16.5C15.3954 19 14.5 18.1046 14.5 17V13H10.5V17.3333C10.5 18.4168 9.51565 19 8.7 19H6.3C5.48435 19 4.5 18.4168 4.5 17.3333V17H3.5C2.39543 17 1.5 16.1046 1.5 15V9C1.5 7.89543 2.39543 7 3.5 7H4.5V6.66667ZM6.5 17H8.5V7H6.5V17ZM4.5 9H3.5V15H4.5V9ZM20.5 15H21.5V9H20.5V15ZM18.5 7L16.5 7V17H18.5V7Z" fill="#343A3D"/>
</svg>
