<svg width="24" height="24" viewBox="0 0 24 24" fill="none" xmlns="http://www.w3.org/2000/svg">
<path fill-rule="evenodd" clip-rule="evenodd" d="M19.2857 15.4214V17.7679C21.7821 16.8839 23.5714 14.5107 23.5714 11.7143C23.5714 8.1625 20.6946 5.28571 17.1429 5.28571C16.7679 5.28571 16.4089 5.33393 16.0554 5.39821C14.5875 2.77321 11.7857 1 8.57143 1C3.83571 1 0 4.83571 0 9.57143C0 12.7429 1.725 15.5018 4.28571 16.9857V14.3554C2.97321 13.1768 2.14286 11.4732 2.14286 9.57143C2.14286 6.01964 5.01964 3.14286 8.57143 3.14286C11.6196 3.14286 14.1589 5.26964 14.8232 8.11964C15.4929 7.68571 16.2857 7.42857 17.1429 7.42857C19.5107 7.42857 21.4286 9.34643 21.4286 11.7143C21.4286 13.3 20.5661 14.6821 19.2857 15.4214ZM16.0714 13.8571C16.6607 13.8571 17.1429 14.3393 17.1429 14.9286C17.1429 15.5179 16.6607 16 16.0714 16C15.4821 16 15 15.5179 15 14.9286C15 14.3393 15.4821 13.8571 16.0714 13.8571ZM16.0714 18.1429C16.6607 18.1429 17.1429 18.625 17.1429 19.2143C17.1429 19.8036 16.6607 20.2857 16.0714 20.2857C15.4821 20.2857 15 19.8036 15 19.2143C15 18.625 15.4821 18.1429 16.0714 18.1429ZM12.8571 21.3571C12.8571 20.7679 12.375 20.2857 11.7857 20.2857C11.1964 20.2857 10.7143 20.7679 10.7143 21.3571C10.7143 21.9464 11.1964 22.4286 11.7857 22.4286C12.375 22.4286 12.8571 21.9464 12.8571 21.3571ZM11.7857 16C12.375 16 12.8571 16.4821 12.8571 17.0714C12.8571 17.6607 12.375 18.1429 11.7857 18.1429C11.1964 18.1429 10.7143 17.6607 10.7143 17.0714C10.7143 16.4821 11.1964 16 11.7857 16ZM8.57143 19.2143C8.57143 18.625 8.08929 18.1429 7.5 18.1429C6.91071 18.1429 6.42857 18.625 6.42857 19.2143C6.42857 19.8036 6.91071 20.2857 7.5 20.2857C8.08929 20.2857 8.57143 19.8036 8.57143 19.2143ZM7.5 13.8571C8.08929 13.8571 8.57143 14.3393 8.57143 14.9286C8.57143 15.5179 8.08929 16 7.5 16C6.91071 16 6.42857 15.5179 6.42857 14.9286C6.42857 14.3393 6.91071 13.8571 7.5 13.8571Z" fill="#343A3D"/>
</svg>
