<svg width="24" height="24" viewBox="0 0 24 24" fill="none" xmlns="http://www.w3.org/2000/svg">
<path fill-rule="evenodd" clip-rule="evenodd" d="M1 7.0928C1 3.34972 4.3637 0.492131 8.08254 1.07591L20.595 3.0401C21.4041 3.16711 22 3.86046 22 4.67483V9.51077C22 10.3251 21.4041 11.0185 20.595 11.1455L12.9728 12.342L12.1018 19.2698C11.9767 20.2649 11.1259 21.0116 10.1172 21.0116H10V22.0058C10 22.5549 9.55228 23 9 23C8.44772 23 8 22.5549 8 22.0058V21.0116H7.88278C6.87414 21.0116 6.02333 20.2649 5.89823 19.2698L5.08985 12.8403C2.73468 12.0122 1 9.7808 1 7.0928ZM7.14881 13.1855L7.88278 19.0232H10.1172L10.9167 12.6648L8.08254 13.1097C7.76815 13.159 7.4563 13.1838 7.14881 13.1855ZM7.77062 3.03998C5.2657 2.64676 3 4.57156 3 7.0928C3 9.61403 5.2657 11.5388 7.77061 11.1456L20 9.22586V4.95973L7.77062 3.03998ZM7 6.0986C6.44772 6.0986 6 6.54372 6 7.0928C6 7.64188 6.44772 8.087 7 8.087C7.55228 8.087 8 7.64188 8 7.0928C8 6.54372 7.55228 6.0986 7 6.0986ZM4 7.0928C4 5.44555 5.34315 4.1102 7 4.1102C8.65685 4.1102 10 5.44555 10 7.0928C10 8.74004 8.65685 10.0754 7 10.0754C5.34315 10.0754 4 8.74004 4 7.0928Z" fill="#343A3D"/>
</svg>
