<svg width="24" height="24" viewBox="0 0 24 24" fill="none" xmlns="http://www.w3.org/2000/svg">
<path fill-rule="evenodd" clip-rule="evenodd" d="M20.7682 3.35984C21.1218 3.78412 21.0645 4.41469 20.6402 4.76825L14.6402 9.76823C14.2159 10.1218 13.5853 10.0645 13.2318 9.64019C12.8782 9.21591 12.9355 8.58535 13.3598 8.23178L19.3598 3.2318C19.7841 2.87824 20.4147 2.93557 20.7682 3.35984ZM5.5 6.00002C4.67157 6.00002 4 6.6716 4 7.50002C4 8.32845 4.67157 9.00003 5.5 9.00003C6.32843 9.00003 7 8.32845 7 7.50002C7 6.6716 6.32843 6.00002 5.5 6.00002ZM2 7.50002C2 5.56703 3.567 4.00003 5.5 4.00003C7.433 4.00003 9 5.56703 9 7.50002C9 7.8165 8.958 8.12316 8.87926 8.41475L21.6097 18.2074C22.0475 18.5441 22.1294 19.172 21.7926 19.6097C21.4559 20.0475 20.828 20.1294 20.3903 19.7926L11.4775 12.9367L8.57931 15.8349C8.84763 16.3301 9 16.8973 9 17.5C9 19.433 7.433 21 5.5 21C3.567 21 2 19.433 2 17.5C2 15.567 3.567 14 5.5 14C6.10276 14 6.66993 14.1524 7.1651 14.4207L9.87887 11.7069L7.81848 10.122C7.20107 10.6684 6.38927 11 5.5 11C3.567 11 2 9.43302 2 7.50002ZM5.5 16C4.67157 16 4 16.6716 4 17.5C4 18.3285 4.67157 19 5.5 19C6.32843 19 7 18.3285 7 17.5C7 16.6716 6.32843 16 5.5 16Z" fill="#343A3D"/>
</svg>
