<svg width="24" height="24" viewBox="0 0 24 24" fill="none" xmlns="http://www.w3.org/2000/svg">
<path d="M2.9998 3.7998C2.33706 3.7998 1.7998 4.33706 1.7998 4.9998C1.7998 5.66255 2.33706 6.1998 2.9998 6.1998H20.9998C21.6625 6.1998 22.1998 5.66255 22.1998 4.9998C22.1998 4.33706 21.6625 3.7998 20.9998 3.7998H2.9998Z" fill="#343A3D"/>
<path d="M2.9998 10.7998C2.33706 10.7998 1.7998 11.3371 1.7998 11.9998C1.7998 12.6625 2.33706 13.1998 2.9998 13.1998H20.9998C21.6625 13.1998 22.1998 12.6625 22.1998 11.9998C22.1998 11.3371 21.6625 10.7998 20.9998 10.7998H2.9998Z" fill="#343A3D"/>
<path d="M2.9998 17.7998C2.33706 17.7998 1.7998 18.3371 1.7998 18.9998C1.7998 19.6625 2.33706 20.1998 2.9998 20.1998H20.9998C21.6625 20.1998 22.1998 19.6625 22.1998 18.9998C22.1998 18.3371 21.6625 17.7998 20.9998 17.7998H2.9998Z" fill="#343A3D"/>
</svg>
