<svg width="24" height="24" viewBox="0 0 24 24" fill="none" xmlns="http://www.w3.org/2000/svg">
<path d="M9.75 15.5C9.33579 15.5 9 15.8358 9 16.25C9 16.6642 9.33579 17 9.75 17H14.25C14.6642 17 15 16.6642 15 16.25C15 15.8358 14.6642 15.5 14.25 15.5H9.75Z" fill="#343A3D"/>
<path d="M8 2V11H7C5.89543 11 5 11.8954 5 13V20C5 21.1046 5.89543 22 7 22H8C8 22.5523 8.44772 23 9 23C9.55228 23 10 22.5523 10 22H14C14 22.5523 14.4477 23 15 23C15.5523 23 16 22.5523 16 22H17C18.1046 22 19 21.1046 19 20V13C19 11.8954 18.1046 11 17 11H16V2C16 1.44772 15.5523 1 15 1H9C8.44772 1 8 1.44772 8 2ZM10 3H14V11H10V3ZM17 13V20H7L7 13H17Z" fill="#343A3D"/>
</svg>
