<svg width="24" height="24" viewBox="0 0 24 24" fill="none" xmlns="http://www.w3.org/2000/svg">
<path d="M9 16.25C9 16.6642 9.33579 17 9.75 17H14.25C14.6642 17 15 16.6642 15 16.25C15 15.8358 14.6642 15.5 14.25 15.5H9.75C9.33579 15.5 9 15.8358 9 16.25ZM10 11H14V3H10V11ZM8 11V2C8 1.44772 8.44772 1 9 1H15C15.5523 1 16 1.44772 16 2V11H17C18.1046 11 19 11.8954 19 13V20C19 21.1046 18.1046 22 17 22H16C16 22.5523 15.5523 23 15 23C14.4477 23 14 22.5523 14 22H10C10 22.5523 9.55228 23 9 23C8.44772 23 8 22.5523 8 22H7C5.89543 22 5 21.1046 5 20V13C5 11.8954 5.89543 11 7 11H8Z" fill="#343A3D"/>
</svg>
