<svg width="24" height="24" viewBox="0 0 24 24" fill="none" xmlns="http://www.w3.org/2000/svg">
<path fill-rule="evenodd" clip-rule="evenodd" d="M11.9938 3C10.8391 3 9.98353 3.81867 9.98353 4.8573V13C9.98353 13.3205 9.82916 13.6215 9.56839 13.8096C9.00812 14.2138 8.5039 15.0046 8.22467 15.9686C7.94567 16.9318 7.94593 17.8802 8.18434 18.5203C8.44749 19.2268 8.94794 19.8533 9.63026 20.303C10.3134 20.7533 11.1397 21 11.9938 21C12.8478 21 13.6742 20.7533 14.3573 20.303C15.0396 19.8533 15.5401 19.2268 15.8032 18.5203C16.0541 17.8466 16.0567 16.9017 15.7825 15.9586C15.5081 15.0148 15.0026 14.2306 14.4191 13.8096C14.1583 13.6215 14.0039 13.3205 14.0039 13V4.8573C14.0039 3.8186 13.1485 3 11.9938 3ZM7.97337 4.8573C7.97337 2.57485 9.87424 1 11.9938 1C14.1134 1 16.0141 2.57488 16.0141 4.8573V12.5295C16.8362 13.2849 17.4046 14.3404 17.7135 15.4028C18.0721 16.6362 18.1271 18.0366 17.6881 19.2153C17.2702 20.3372 16.4889 21.2971 15.4675 21.9703C14.4469 22.6431 13.2326 23 11.9938 23C10.7549 23 9.54067 22.6431 8.52006 21.9703C7.49867 21.2971 6.71732 20.3372 6.29945 19.2153C5.8675 18.0555 5.9362 16.647 6.29313 15.4148C6.60008 14.3551 7.16066 13.2868 7.97337 12.5316V4.8573Z" fill="#343A3D"/>
<path fill-rule="evenodd" clip-rule="evenodd" d="M11.9938 5C11.4387 5 10.9887 5.44771 10.9887 6V15.2676C10.3879 15.6134 9.98362 16.2597 9.98362 17C9.98362 18.1046 10.8836 19 11.9938 19C13.104 19 14.0039 18.1046 14.0039 17C14.0039 16.2597 13.5997 15.6134 12.9989 15.2676V6C12.9989 5.44772 12.5489 5 11.9938 5Z" fill="#343A3D"/>
</svg>
