<svg width="24" height="24" viewBox="0 0 24 24" fill="none" xmlns="http://www.w3.org/2000/svg">
<path fill-rule="evenodd" clip-rule="evenodd" d="M2 4C2 2.34315 3.34315 1 5 1H19C20.6569 1 22 2.34315 22 4V20C22 21.6569 20.6569 23 19 23H5C3.34315 23 2 21.6569 2 20V4ZM5 3C4.44772 3 4 3.44772 4 4V20C4 20.5523 4.44772 21 5 21H19C19.5523 21 20 20.5523 20 20V4C20 3.44772 19.5523 3 19 3H5Z" fill="#343A3D"/>
<path fill-rule="evenodd" clip-rule="evenodd" d="M8 6C7.44772 6 7 6.44772 7 7C7 7.55228 7.44772 8 8 8C8.55228 8 9 7.55228 9 7C9 6.44772 8.55228 6 8 6ZM5 7C5 5.34315 6.34315 4 8 4C9.65685 4 11 5.34315 11 7C11 8.65685 9.65685 10 8 10C6.34315 10 5 8.65685 5 7Z" fill="#343A3D"/>
<path fill-rule="evenodd" clip-rule="evenodd" d="M16 6C15.4477 6 15 6.44772 15 7C15 7.55228 15.4477 8 16 8C16.5523 8 17 7.55228 17 7C17 6.44772 16.5523 6 16 6ZM13 7C13 5.34315 14.3431 4 16 4C17.6569 4 19 5.34315 19 7C19 8.65685 17.6569 10 16 10C14.3431 10 13 8.65685 13 7Z" fill="#343A3D"/>
<path fill-rule="evenodd" clip-rule="evenodd" d="M8 13C7.44772 13 7 13.4477 7 14C7 14.5523 7.44772 15 8 15C8.55228 15 9 14.5523 9 14C9 13.4477 8.55228 13 8 13ZM5 14C5 12.3431 6.34315 11 8 11C9.65685 11 11 12.3431 11 14C11 15.6569 9.65685 17 8 17C6.34315 17 5 15.6569 5 14Z" fill="#343A3D"/>
<path d="M8.5 19C8.5 19.5523 8.05228 20 7.5 20C6.94772 20 6.5 19.5523 6.5 19C6.5 18.4477 6.94772 18 7.5 18C8.05228 18 8.5 18.4477 8.5 19Z" fill="#343A3D"/>
<path d="M11.5 19C11.5 19.5523 11.0523 20 10.5 20C9.94772 20 9.5 19.5523 9.5 19C9.5 18.4477 9.94772 18 10.5 18C11.0523 18 11.5 18.4477 11.5 19Z" fill="#343A3D"/>
<path d="M17.5 19C17.5 19.5523 17.0523 20 16.5 20C15.9477 20 15.5 19.5523 15.5 19C15.5 18.4477 15.9477 18 16.5 18C17.0523 18 17.5 18.4477 17.5 19Z" fill="#343A3D"/>
<path d="M14.5 19C14.5 19.5523 14.0523 20 13.5 20C12.9477 20 12.5 19.5523 12.5 19C12.5 18.4477 12.9477 18 13.5 18C14.0523 18 14.5 18.4477 14.5 19Z" fill="#343A3D"/>
<path fill-rule="evenodd" clip-rule="evenodd" d="M16 13C15.4477 13 15 13.4477 15 14C15 14.5523 15.4477 15 16 15C16.5523 15 17 14.5523 17 14C17 13.4477 16.5523 13 16 13ZM13 14C13 12.3431 14.3431 11 16 11C17.6569 11 19 12.3431 19 14C19 15.6569 17.6569 17 16 17C14.3431 17 13 15.6569 13 14Z" fill="#343A3D"/>
</svg>
