<svg width="24" height="24" viewBox="0 0 24 24" fill="none" xmlns="http://www.w3.org/2000/svg">
<path fill-rule="evenodd" clip-rule="evenodd" d="M12 3.05085C11.0891 3.81442 9.33495 5.38937 7.80398 7.36167C6.22035 9.4018 5 11.7092 5 13.8955C5 17.8064 8.13401 20.9768 12 20.9768C15.866 20.9768 19 17.8064 19 13.8955C19 11.7092 17.7796 9.4018 16.196 7.36167C14.6651 5.38937 12.9109 3.81442 12 3.05085ZM10.7807 1.44546C11.4931 0.851511 12.5069 0.851513 13.2193 1.44546C14.1672 2.23582 16.0823 3.93925 17.769 6.11214C19.4332 8.25601 21 11.0152 21 13.8955C21 18.9238 16.9706 23 12 23C7.02944 23 3 18.9238 3 13.8955C3 11.0152 4.56683 8.25601 6.23099 6.11214C7.91766 3.93925 9.83285 2.23582 10.7807 1.44546ZM16.1563 12.8963C16.7018 12.9837 17.074 13.5018 16.9877 14.0536C16.7959 15.2801 16.225 16.4136 15.3571 17.2916C14.4892 18.1696 13.3687 18.7471 12.1563 18.9411C11.6108 19.0284 11.0986 18.6519 11.0123 18.1001C10.926 17.5482 11.2982 17.0301 11.8437 16.9428C12.6388 16.8155 13.3737 16.4368 13.9429 15.861C14.5121 15.2851 14.8865 14.5417 15.0123 13.7374C15.0986 13.1856 15.6108 12.809 16.1563 12.8963Z" fill="#343A3D"/>
</svg>
