<svg width="24" height="24" viewBox="0 0 24 24" fill="none" xmlns="http://www.w3.org/2000/svg">
<path d="M16.9876 14.1562C17.0739 13.6107 16.7017 13.0985 16.1562 13.0122C15.6107 12.9259 15.0985 13.2981 15.0122 13.8436C14.8864 14.6387 14.512 15.3736 13.9428 15.9428C13.3736 16.512 12.6387 16.8864 11.8436 17.0122C11.2981 17.0985 10.9259 17.6107 11.0122 18.1562C11.0985 18.7017 11.6107 19.0739 12.1562 18.9876C13.3686 18.7958 14.4891 18.225 15.357 17.357C16.225 16.4891 16.7958 15.3686 16.9876 14.1562Z" fill="#343A3D"/>
<path fill-rule="evenodd" clip-rule="evenodd" d="M14.6 1.20001C14.3621 1.02162 14.0572 0.958317 13.768 1.02728C13.4788 1.09625 13.2353 1.29033 13.1036 1.55685L10.0648 7.70385L7.52215 6.14715C7.12795 5.90581 6.61972 5.96607 6.29289 6.2929C4.10819 8.4776 3 11.3125 3 14C3 16.4551 3.9606 18.5926 5.62774 20.2996C7.31365 22.0258 9.60533 23 12 23C14.3947 23 16.6863 22.0258 18.3723 20.2996C20.0394 18.5926 21 16.4551 21 14C21 9.20365 18.8662 4.39964 14.6 1.20001ZM11.3726 9.57139L14.34 3.56872C17.4471 6.33703 19 10.1653 19 14C19 15.8898 18.2749 17.5369 16.9415 18.9022C15.6268 20.2483 13.8488 21 12 21C10.1512 21 8.37322 20.2483 7.05855 18.9022C5.7251 17.5369 5 15.8898 5 14C5 12.0713 5.71822 9.99826 7.17756 8.28124L9.95405 9.98109C10.1936 10.1278 10.4838 10.1669 10.7537 10.089C11.0235 10.011 11.2482 9.82319 11.3726 9.57139Z" fill="#343A3D"/>
</svg>
