<svg width="24px" height="24px" viewBox="0 0 24 24" version="1.1" xmlns="http://www.w3.org/2000/svg" xmlns:xlink="http://www.w3.org/1999/xlink">
    <g id="Utilidades" stroke="none" stroke-width="1" fill="none" fill-rule="evenodd">
        <g id="Icons" transform="translate(-76.000000, -3972.000000)" fill="#343A3D" fill-rule="nonzero">
            <g id="Group-9" transform="translate(76.000000, 3972.000000)">
                <path d="M6.47140733,11.0250091 C5.91094121,10.4624248 5.88477678,9.55293774 6.42468381,8.95860223 C6.4504804,8.93068263 6.4504804,8.93068263 6.47720539,8.90365038 L7.95216505,7.43672791 C8.53140873,6.86064058 9.46514722,6.85402204 10.0570205,7.42626698 L11.5419623,8.89868784 C12.1363018,9.47326133 12.1535559,10.4200589 11.5814955,11.0158984 L12.4608737,11.0143306 C11.9106339,10.4509729 11.8881797,9.54919182 12.4246838,8.95860223 C12.4504804,8.93068263 12.4504804,8.93068263 12.4772054,8.90365038 L13.952165,7.43672791 C14.5314087,6.86064058 15.4651472,6.85402204 16.0570205,7.42626698 L17.5419623,8.89868784 C18.1327514,9.469829 18.1533291,10.4087604 17.5916844,11.0051829 L19.0000204,11.002672 L19,10.9981054 L19,5.5 C19,5.22385763 18.7761424,5 18.5,5 L5.5,5 C5.22385763,5 5,5.22385763 5,5.5 L5,7.5 C5,7.77614237 4.77614237,8 4.5,8 C4.22385763,8 4,7.77614237 4,7.5 L4,5.5 C4,4.67157288 4.67157288,4 5.5,4 L18.5,4 C19.3284271,4 20,4.67157288 20,5.5 L20,10.9981054 L19.9999924,11.0008891 L20.4973257,11.0000024 C21.3257515,10.9985254 21.9985206,11.6688999 21.9999976,12.4973257 L22,18.4987216 C22,18.774864 21.7761424,18.9987216 21.5,18.9987216 L19.9999984,18.9987216 L20,19 L20,20.4984561 C20,20.7745985 19.7761424,20.9984561 19.5,20.9984561 C19.2238576,20.9984561 19,20.7745985 19,20.4984561 L19,19 L19.0000016,18.9987216 L4.9999984,18.9987216 L5,19 L5,20.5 C5,20.7761424 4.77614237,21 4.5,21 C4.22385763,21 4,20.7761424 4,20.5 L4,19 L4.0000016,18.9987216 L2.5,18.9987216 C2.22385763,18.9987216 2,18.774864 2,18.4987216 L2,12.5303092 C2,11.7029263 2.66994406,11.0317867 3.49732566,11.0303116 L6.47140733,11.0250091 Z M7.95153596,11.0223702 L10.1285676,11.0184888 C10.1536058,10.975862 10.1854412,10.9362555 10.2239945,10.9012918 C10.5857208,10.5732453 10.8596021,10.3238944 10.8588672,10.3246546 C11.0508001,10.126119 11.0454475,9.80958173 10.8423905,9.61322218 L9.35744876,8.14080131 C9.16166478,7.95152856 8.85041862,7.95373474 8.65733739,8.14576385 L7.18237773,9.61268632 C7.1734694,9.62169707 7.1734694,9.62169707 7.16487054,9.63100361 C6.97919202,9.83540053 6.99436629,10.1516191 7.19876321,10.3372977 L7.92956175,11.0011706 C7.9371473,11.0080615 7.94447223,11.0151321 7.95153596,11.0223702 Z M16.1350408,11.0077799 C16.1590179,10.9692211 16.1886894,10.9333097 16.2239945,10.9012918 C16.5857208,10.5732453 16.8596021,10.3238944 16.8588672,10.3246546 C17.0508001,10.126119 17.0454475,9.80958173 16.8423905,9.61322218 L15.3574488,8.14080131 C15.1616648,7.95152856 14.8504186,7.95373474 14.6573374,8.14576385 L13.1823777,9.61268632 C13.1734694,9.62169707 13.1734694,9.62169707 13.1648705,9.63100361 C12.979192,9.83540053 12.9943663,10.1516191 13.1987632,10.3372977 L13.9295617,11.0011706 C13.9333731,11.0046329 13.9371186,11.0081405 13.9407982,11.011692 L16.1350408,11.0077799 Z M3,14 L17.5,14 C17.7761424,14 18,14.2238576 18,14.5 C18,14.7761424 17.7761424,15 17.5,15 L3,15 L3,17.9987216 L21,17.9987216 L21,12.5 C20.9995069,12.2229667 20.7752505,11.9995085 20.4991086,12.0000008 L3.49910855,12.03031 C3.22331469,12.0308017 3,12.2545149 3,12.5303092 L3,14 Z" id="Shape"></path>
            </g>
        </g>
    </g>
</svg>