<svg width="25" height="24" viewBox="0 0 25 24" fill="none" xmlns="http://www.w3.org/2000/svg">
<path fill-rule="evenodd" clip-rule="evenodd" d="M10.6666 4C10.6666 2.89543 11.5621 2 12.6666 2C13.7712 2 14.6666 2.89543 14.6666 4V4.22302C18.6746 5.13247 21.6666 8.71683 21.6666 13V16.1707C22.8318 16.5825 23.6666 17.6938 23.6666 19C23.6666 20.6569 22.3235 22 20.6666 22H4.66663C3.00977 22 1.66663 20.6569 1.66663 19C1.66663 17.6938 2.50143 16.5825 3.66663 16.1707V13C3.66663 8.71683 6.65865 5.13247 10.6666 4.22302V4ZM5.66663 16H19.6666V13C19.6666 9.13401 16.5326 6 12.6666 6C8.80063 6 5.66663 9.13401 5.66663 13V16ZM4.66663 18C4.11434 18 3.66663 18.4477 3.66663 19C3.66663 19.5523 4.11434 20 4.66663 20H20.6666C21.2189 20 21.6666 19.5523 21.6666 19C21.6666 18.4477 21.2189 18 20.6666 18H4.66663Z" fill="#343A3D"/>
</svg>
