<svg width="24" height="24" viewBox="0 0 24 24" fill="none" xmlns="http://www.w3.org/2000/svg">
<path d="M9 10C8.44772 10 8 10.4477 8 11V12C8 12.5523 8.44772 13 9 13H10C10.5523 13 11 12.5523 11 12V11C11 10.4477 10.5523 10 10 10H9ZM9 11H10V12H9V11Z" fill="#343A3D"/>
<path d="M8 6C8 5.44772 8.44772 5 9 5H10C10.5523 5 11 5.44772 11 6V7C11 7.55228 10.5523 8 10 8H9C8.44772 8 8 7.55228 8 7V6ZM10 6H9V7H10V6Z" fill="#343A3D"/>
<path d="M14 10C13.4477 10 13 10.4477 13 11V12C13 12.5523 13.4477 13 14 13H15C15.5523 13 16 12.5523 16 12V11C16 10.4477 15.5523 10 15 10H14ZM14 11H15V12H14V11Z" fill="#343A3D"/>
<path d="M13 6C13 5.44772 13.4477 5 14 5H15C15.5523 5 16 5.44772 16 6V7C16 7.55228 15.5523 8 15 8H14C13.4477 8 13 7.55228 13 7V6ZM15 6H14V7H15V6Z" fill="#343A3D"/>
<path d="M5.5 1C4.94772 1 4.5 1.44772 4.5 2V6H1.5C0.947715 6 0.5 6.44772 0.5 7V21C0.5 21.5523 0.947715 22 1.5 22H22.5C23.0523 22 23.5 21.5523 23.5 21V7C23.5 6.44772 23.0523 6 22.5 6H19.5V2C19.5 1.44772 19.0523 1 18.5 1H5.5ZM2.5 8H4.5V20H2.5V8ZM6.5 20V3H17.5V20H14.6501V16.65H14.8126C15.1716 16.65 15.4626 16.359 15.4626 16C15.4626 15.641 15.1716 15.35 14.8126 15.35H9.20713C8.84814 15.35 8.55713 15.641 8.55713 16C8.55713 16.359 8.84814 16.65 9.20713 16.65H9.3501V20H6.5ZM13.3501 16.65V20H10.6501V16.65H13.3501ZM21.5 20H19.5V8H21.5V20Z" fill="#343A3D"/>
</svg>
