<svg width="24" height="24" viewBox="0 0 24 24" fill="none" xmlns="http://www.w3.org/2000/svg">
<path d="M3 6C3 4.89543 3.89543 4 5 4H19C20.1046 4 21 4.89543 21 6V10C22.1046 10 23 10.8954 23 12V18C23 18.5523 22.5523 19 22 19H20V20C20 20.5523 19.5523 21 19 21C18.4477 21 18 20.5523 18 20V19H6V20C6 20.5523 5.55228 21 5 21C4.44772 21 4 20.5523 4 20L4 19H2C1.44772 19 1 18.5523 1 18V12C1 10.8954 1.89543 10 3 10V6ZM19 6H5V10H5.84784C5.89178 9.66267 6.04323 9.3364 6.30299 9.07664L7.69675 7.68288C8.32159 7.05805 9.33466 7.05805 9.9595 7.68288L11.3533 9.07664C11.613 9.3364 11.7645 9.66267 11.8084 10H11.8478C11.8918 9.66267 12.0432 9.3364 12.303 9.07664L13.6968 7.68288C14.3216 7.05805 15.3347 7.05805 15.9595 7.68288L17.3533 9.07664C17.613 9.3364 17.7645 9.66267 17.8084 10H19V6ZM16.5047 9.92517L15.111 8.53141C14.9548 8.3752 14.7015 8.3752 14.5453 8.53141L13.1515 9.92517C13.1285 9.94823 13.1088 9.97338 13.0926 10H16.5637C16.5474 9.97338 16.5278 9.94823 16.5047 9.92517ZM10.5047 9.92517L9.11097 8.53141C8.95476 8.3752 8.70149 8.3752 8.54528 8.53141L7.15152 9.92517C7.12847 9.94823 7.10883 9.97338 7.09259 10H10.5637C10.5474 9.97338 10.5278 9.94823 10.5047 9.92517ZM21 12H3V13.85H18.0001C18.3591 13.85 18.6501 14.141 18.6501 14.5C18.6501 14.859 18.3591 15.15 18.0001 15.15H3V17H21V12Z" fill="#343A3D"/>
</svg>
