<svg width="24" height="24" viewBox="0 0 24 24" fill="none" xmlns="http://www.w3.org/2000/svg">
<path d="M14 5C13.4477 5 13 5.44772 13 6V7C13 7.55228 13.4477 8 14 8H15C15.5523 8 16 7.55228 16 7V6C16 5.44772 15.5523 5 15 5H14ZM15 6V7H14V6H15Z" fill="#343A3D"/>
<path d="M9 10C8.44772 10 8 10.4477 8 11V12C8 12.5523 8.44771 13 9 13H10C10.5523 13 11 12.5523 11 12V11C11 10.4477 10.5523 10 10 10H9ZM9 12V11H10V12H9Z" fill="#343A3D"/>
<path d="M13 11C13 10.4477 13.4477 10 14 10H15C15.5523 10 16 10.4477 16 11V12C16 12.5523 15.5523 13 15 13H14C13.4477 13 13 12.5523 13 12V11ZM14 11V12H15V11H14Z" fill="#343A3D"/>
<path d="M9 5C8.44772 5 8 5.44772 8 6V7C8 7.55228 8.44771 8 9 8H10C10.5523 8 11 7.55228 11 7V6C11 5.44772 10.5523 5 10 5H9ZM9 7V6H10V7H9Z" fill="#343A3D"/>
<path d="M5 2.5C5 2.22386 5.22386 2 5.5 2H18.5C18.7761 2 19 2.22386 19 2.5C19 2.77614 18.7761 3 18.5 3H18V7H21.5C21.7761 7 22 7.22386 22 7.5C22 7.77614 21.7761 8 21.5 8H21V20.5C21 21.3284 20.3284 22 19.5 22H4.5C3.67157 22 3 21.3284 3 20.5V11.3704C3 11.0942 3.22386 10.8704 3.5 10.8704C3.77614 10.8704 4 11.0942 4 11.3704V20.5C4 20.7761 4.22386 21 4.5 21H6V8H2.5C2.22386 8 2 7.77614 2 7.5C2 7.22386 2.22386 7 2.5 7H6V3H5.5C5.22386 3 5 2.77614 5 2.5ZM11 21H13V18H11V21ZM14 21H17V3H7V21H10V18H9V17C9 15.8954 9.89543 15 11 15H13C14.1046 15 15 15.8954 15 17V18H14V21ZM18 21H19.5C19.7761 21 20 20.7761 20 20.5V8H18V21ZM10 17H14C14 16.4477 13.5523 16 13 16H11C10.4477 16 10 16.4477 10 17Z" fill="#343A3D"/>
</svg>
