<svg width="24" height="24" viewBox="0 0 24 24" fill="none" xmlns="http://www.w3.org/2000/svg">
<path d="M16 2C13.7909 2 12 3.79086 12 6V7C12 7.55228 12.4477 8 13 8H14V9H13C12.4477 9 12 9.44772 12 10V21C12 22.1046 12.8954 23 14 23H18C19.1046 23 20 22.1046 20 21V14C20 11.9497 18.7659 10.1876 17 9.41604V7.98602C17.1573 7.96732 17.3119 7.92998 17.4605 7.87477L19.2929 9.70714C19.6834 10.0977 20.3166 10.0977 20.7071 9.70714C21.0976 9.31661 21.0976 8.68345 20.7071 8.29292L19.3087 6.89447C19.3614 6.84883 19.4116 6.80059 19.459 6.75H22.25C22.6642 6.75 23 6.41421 23 6V4C23 3.58579 22.6642 3.25 22.25 3.25H20V3C20 2.44772 19.5523 2 19 2H16ZM17.8293 13H14V11H15C16.3062 11 17.4175 11.8348 17.8293 13ZM14 15H18V18H14V15ZM18 20V21H14V20H18ZM16.7639 6H14C14 4.89543 14.8954 4 16 4H18V5.38197L16.7639 6ZM21 5.25H20V4.75H21V5.25Z" fill="#343A3D"/>
<path d="M6 10C6.55228 10 7 10.4477 7 11V14.1057C9.22818 14.5723 10.9121 16.5301 10.9502 18.8953L10.9999 21.9839C11.0042 22.2519 10.9008 22.5104 10.7128 22.7014C10.5248 22.8924 10.268 23 10 23H2C1.44772 23 1 22.5523 1 22V18.9754C1 16.5614 2.71919 14.5489 5 14.0956V11C5 10.4477 5.44772 10 6 10ZM5.5 19.75V21H6.5V19.75C6.5 19.3358 6.83579 19 7.25 19C7.66421 19 8 19.3358 8 19.75V21H8.98377L8.95041 18.9275C8.92427 17.3031 7.6 16 5.9754 16C4.33213 16 3 17.3321 3 18.9754V21H4L4 19.75C4 19.3358 4.33579 19 4.75 19C5.16421 19 5.5 19.3358 5.5 19.75Z" fill="#343A3D"/>
</svg>
