<svg width="24" height="24" viewBox="0 0 24 24" fill="none" xmlns="http://www.w3.org/2000/svg">
<path d="M10.6713 1.51306C11.429 0.828979 12.571 0.828979 13.3287 1.51306L21.3287 8.73512C21.7557 9.12057 22 9.67307 22 10.2533V20.9688C22 22.0906 21.1046 23 20 23H4C2.89543 23 2 22.0906 2 20.9688V10.2533C2 9.67307 2.2443 9.12057 2.67127 8.73512L10.6713 1.51306ZM15 20.9688V13H9V20.9688H15ZM17 20.9688H20V10.2533L12 3.0312L4 10.2533V20.9688H7V13C7 11.8954 7.89543 11 9 11H15C16.1046 11 17 11.8954 17 13V20.9688Z" fill="#343A3D"/>
</svg>
