<svg width="24" height="24" viewBox="0 0 24 24" fill="none" xmlns="http://www.w3.org/2000/svg">
<path d="M17.2217 14.2399C17.2216 12.4541 16.3154 10.1365 15.129 7.90942C14.0341 5.8541 12.7692 4.00439 12 2.93607C11.2308 4.00439 9.96586 5.8541 8.87099 7.90942C7.68464 10.1365 6.77838 12.4541 6.77835 14.2399C6.77835 15.4415 7.41434 16.3773 8.42839 17.052C9.45965 17.738 10.8133 18.0963 12 18.0963C13.1867 18.0963 14.5403 17.738 15.5716 17.052C16.5857 16.3773 17.2217 15.4415 17.2217 14.2399ZM19 14.2399C19 16.2051 17.9193 17.6486 16.5473 18.5614C15.1925 19.4628 13.4905 19.9004 12 19.9004C10.5095 19.9004 8.80753 19.4628 7.45269 18.5614C6.08072 17.6486 5 16.2051 5 14.2399C5.00003 11.9708 6.10336 9.31031 7.30648 7.05177C8.52921 4.75643 9.94138 2.72199 10.713 1.66271L10.8403 1.50732C11.4693 0.830893 12.5307 0.830891 13.1597 1.50732L13.287 1.66271L13.9733 2.62832C14.7532 3.75509 15.7764 5.33019 16.6935 7.05177C17.8966 9.31031 19 11.9708 19 14.2399Z" fill="#323439"/>
<path d="M11.1108 7.63295C11.1108 7.13474 11.5089 6.73091 12 6.73091C12.4911 6.73091 12.8892 7.13474 12.8892 7.63295L12.8892 22.098C12.8892 22.5962 12.4911 23 12 23C11.5089 23 11.1108 22.5962 11.1108 22.098L11.1108 7.63295Z" fill="#323439"/>
<path d="M8.53742 12.7213C8.19792 12.3617 8.20987 11.7906 8.56428 11.446C8.91879 11.1014 9.48167 11.1137 9.82145 11.4732L12.0006 13.7788L14.1788 11.4732C14.5187 11.1138 15.0815 11.1013 15.436 11.446C15.7905 11.7907 15.8016 12.3617 15.4618 12.7213L11.9996 16.386L8.53742 12.7213Z" fill="#323439"/>
</svg>
