<svg width="24" height="24" viewBox="0 0 24 24" fill="none" xmlns="http://www.w3.org/2000/svg">
<path d="M13.3865 12.3556L12.4644 13.2671V14.6228L13.5244 13.9955L13.8745 12.7235C13.9477 12.4572 14.223 12.3007 14.4892 12.374C14.7555 12.4472 14.9119 12.7224 14.8386 12.9887L14.5743 13.9492L15.5509 14.2118C15.8176 14.2835 15.9756 14.5578 15.9039 14.8244C15.8322 15.0911 15.5579 15.2492 15.2912 15.1775L14.0531 14.8446L12.945 15.5003L14.0734 16.1681L15.3958 15.883C15.6674 15.8244 15.9345 15.9944 15.9923 16.2626C16.0501 16.5308 15.8768 16.7958 15.6052 16.8543L14.6197 17.0668L14.8374 18.0382C14.8974 18.306 14.7262 18.5723 14.455 18.633C14.1839 18.6938 13.9154 18.5259 13.8554 18.2582L13.5823 17.0395L12.4644 16.3779V17.7327L13.3865 18.6442C13.5829 18.8383 13.5847 19.1549 13.3906 19.3513C13.1965 19.5477 12.8799 19.5495 12.6835 19.3554L11.964 18.6442L11.2446 19.3554C11.0482 19.5495 10.7316 19.5477 10.5375 19.3513C10.3433 19.1549 10.3452 18.8383 10.5416 18.6442L11.4644 17.732V16.3765L10.4331 16.9867L10.1593 18.2533C10.1013 18.5214 9.83411 18.6913 9.56249 18.6326C9.29088 18.5739 9.11769 18.3089 9.17568 18.0407L9.38606 17.0676L8.39892 16.8623C8.12686 16.8058 7.95157 16.5421 8.00741 16.2735C8.06325 16.0048 8.32907 15.8329 8.60113 15.8895L9.87573 16.1545L10.9813 15.5003L9.89126 14.8553L8.57908 15.067C8.30468 15.1113 8.04683 14.9277 8.00315 14.6568C7.95948 14.386 8.14652 14.1306 8.42092 14.0863L9.41711 13.9256L9.25187 12.9434C9.20636 12.6729 9.39166 12.4163 9.66576 12.3702C9.93987 12.3241 10.199 12.506 10.2445 12.7765L10.4548 14.0268L11.4644 14.6242V13.2677L10.5416 12.3556C10.3452 12.1615 10.3433 11.8449 10.5375 11.6485C10.7316 11.4521 11.0482 11.4503 11.2446 11.6444L11.964 12.3556L12.6835 11.6444C12.8799 11.4503 13.1965 11.4521 13.3906 11.6485C13.5847 11.8449 13.5829 12.1615 13.3865 12.3556Z" fill="#343A3D"/>
<path d="M10 5.5C10 6.05228 9.55229 6.5 9 6.5C8.44772 6.5 8 6.05228 8 5.5C8 4.94772 8.44772 4.5 9 4.5C9.55229 4.5 10 4.94772 10 5.5Z" fill="#343A3D"/>
<path d="M6 6.5C6.55228 6.5 7 6.05228 7 5.5C7 4.94772 6.55228 4.5 6 4.5C5.44772 4.5 5 4.94772 5 5.5C5 6.05228 5.44772 6.5 6 6.5Z" fill="#343A3D"/>
<path d="M19 5.5C19 6.05228 18.5523 6.5 18 6.5C17.4477 6.5 17 6.05228 17 5.5C17 4.94772 17.4477 4.5 18 4.5C18.5523 4.5 19 4.94772 19 5.5Z" fill="#343A3D"/>
<path d="M4 1C2.34315 1 1 2.34315 1 4V20C1 21.6569 2.34315 23 4 23H20C21.6569 23 23 21.6569 23 20V4C23 2.34315 21.6569 1 20 1H4ZM21 10V20C21 20.5523 20.5523 21 20 21H4C3.44772 21 3 20.5523 3 20V10H21ZM21 8H3V4C3 3.44772 3.44772 3 4 3H20C20.5523 3 21 3.44772 21 4V8Z" fill="#343A3D"/>
</svg>
