<svg width="24" height="24" viewBox="0 0 24 24" fill="none" xmlns="http://www.w3.org/2000/svg">
<path d="M12.7472 9.99351C12.4659 9.3355 11.534 9.3355 11.2527 9.99351L10.7146 11.2521L9.2121 11.4404C8.5051 11.529 8.24815 12.4177 8.79225 12.8723L9.88202 13.7827L9.49934 15.5091C9.33869 16.2339 10.1564 16.7834 10.7657 16.347L11.9999 15.4633L13.2341 16.347C13.8434 16.7834 14.6612 16.2339 14.5005 15.5091L14.1178 13.7827L15.2076 12.8723C15.7517 12.4177 15.4947 11.529 14.7877 11.4404L13.2852 11.2521L12.7472 9.99351ZM11.592 11.7438L11.9999 10.7895L12.4079 11.7438C12.5213 12.0092 12.7671 12.195 13.0541 12.231L14.2379 12.3793L13.3897 13.0879C13.1562 13.2831 13.0513 13.5921 13.1171 13.8888L13.4186 15.2492L12.4728 14.5719C12.19 14.3694 11.8098 14.3694 11.527 14.5719L10.5812 15.2492L10.8828 13.8888C10.9485 13.5921 10.8437 13.2831 10.6101 13.0879L9.76193 12.3793L10.9457 12.231C11.2328 12.195 11.4785 12.0092 11.592 11.7438Z" fill="#343A3D"/>
<path d="M10.5616 2C9.18497 2 7.98502 2.93689 7.65114 4.27239L7.21924 6H5C3.34315 6 2 7.34315 2 9V17C2 18.6569 3.34315 20 5 20H6V20.0793C6 21.6974 7.82137 22.6457 9.14692 21.7178L11.96 19.7486L14.7506 21.9811C16.0601 23.0287 18 22.0964 18 20.4194V20H19C20.6569 20 22 18.6569 22 17V9C22 7.34315 20.6569 6 19 6H16.7808L16.3489 4.27239C16.015 2.93689 14.8151 2 13.4385 2H10.5616ZM14.7192 6H9.28079L9.59142 4.75746C9.70272 4.3123 10.1027 4 10.5616 4H13.4385C13.8973 4 14.2973 4.3123 14.4086 4.75746L14.7192 6ZM5 8H6V18H5C4.44772 18 4 17.5523 4 17V9C4 8.44772 4.44772 8 5 8ZM19 18H18V8H19C19.5523 8 20 8.44772 20 9V17C20 17.5523 19.5523 18 19 18ZM8 8H16V20.4194L13.2094 18.1869C12.5162 17.6323 11.5404 17.6011 10.8131 18.1102L8 20.0793V8Z" fill="#343A3D"/>
</svg>
