<svg width="24px" height="24px" viewBox="0 0 24 24" version="1.1" xmlns="http://www.w3.org/2000/svg" xmlns:xlink="http://www.w3.org/1999/xlink">
    <g id="Utilidades" stroke="none" stroke-width="1" fill="none" fill-rule="evenodd">
        <g id="Icons" transform="translate(-316.000000, -3979.000000)" fill="#343A3D" fill-rule="nonzero">
            <g id="Group-12" transform="translate(316.000000, 3979.000000)">
                <path d="M18,19 L18,19.6110854 C18,20.4395125 17.3284271,21.1110854 16.5,21.1110854 C16.1689898,21.1110854 15.8472755,21.0015956 15.5849852,20.7996761 L12.3050049,18.2746432 C12.12522,18.1362391 11.87478,18.1362391 11.6949951,18.2746432 L8.41501484,20.7996761 C7.75857433,21.3050248 6.81675805,21.1825408 6.31140931,20.5261002 C6.10948984,20.2638099 6,19.9420956 6,19.6110854 L6,19 L5.5,19 C3.56700338,19 2,17.4329966 2,15.5 L2,11.5143215 C2,11.2381791 2.22385763,11.0143215 2.5,11.0143215 C2.77614237,11.0143215 3,11.2381791 3,11.5143215 L3,15.5 C3,16.8807119 4.11928813,18 5.5,18 L6,18 L6,6 L4.5,6 C4.22385763,6 4,5.77614237 4,5.5 C4,5.22385763 4.22385763,5 4.5,5 L8.13962039,5 L8.79773427,3.02565835 C9.00190534,2.41314514 9.57511361,2 10.2207592,2 L13.7792408,2 C14.4248864,2 14.9980947,2.41314514 15.2022657,3.02565835 L15.8603796,5 L19.3888889,5 C20.8334927,5 22,6.19281946 22,7.65873016 L22,15.5 C22,17.4329966 20.4329966,19 18.5,19 L18,19 Z M17,19.6110854 L17,14.5 C17,14.2238576 17.2238576,14 17.5,14 C17.7761424,14 18,14.2238576 18,14.5 L18,18 L18.5,18 C19.8807119,18 21,16.8807119 21,15.5 L21,7.65873016 C21,6.74017337 20.276154,6 19.3888889,6 L18,6 L18,10.5 C18,10.7761424 17.7761424,11 17.5,11 C17.2238576,11 17,10.7761424 17,10.5 L17,6 L7,6 L7,19.6110854 C7,19.7214221 7.03649661,19.8286602 7.1038031,19.9160903 C7.27225268,20.1349039 7.58619144,20.1757319 7.80500495,20.0072823 L11.0849852,17.4822494 C11.6243399,17.067037 12.3756601,17.067037 12.9150148,17.4822494 L16.1949951,20.0072823 C16.2824252,20.0745888 16.3896633,20.1110854 16.5,20.1110854 C16.7761424,20.1110854 17,19.8872278 17,19.6110854 Z M9.19371294,5 L14.8062871,5 L14.2535824,3.34188612 C14.1855254,3.13771505 13.994456,3 13.7792408,3 L10.2207592,3 C10.005544,3 9.81447459,3.13771505 9.74641757,3.34188612 L9.19371294,5 Z M11.6981949,12.9402079 C11.8364594,12.8728206 11.9980451,12.8728206 12.1363096,12.9402079 L13.4593822,13.5850464 L13.1399262,12.2659662 C13.1007803,12.1043268 13.1445674,11.933803 13.2567471,11.8110211 L14.2004134,10.7781682 L12.9732412,10.7781682 C12.7785119,10.7781682 12.6014973,10.6651126 12.5196051,10.4884401 L11.9172522,9.18893678 L11.3148993,10.4884401 C11.2330071,10.6651126 11.0559926,10.7781682 10.8612632,10.7781682 L9.63409104,10.7781682 L10.5777573,11.8110211 C10.689937,11.933803 10.7337242,12.1043268 10.6945782,12.2659662 L10.3751223,13.5850464 L11.6981949,12.9402079 Z M9.85814145,14.9494595 C9.47783645,15.1348124 9.05355136,14.7934945 9.15313195,14.3823117 L9.66005821,12.2891393 L8.13086879,10.615425 C7.83768304,10.29453 8.06533753,9.77816815 8.5,9.77816815 L10.5419235,9.77816815 L11.4636161,7.7897281 C11.6426779,7.40342397 12.1918265,7.40342397 12.3708883,7.7897281 L13.292581,9.77816815 L15.3345045,9.77816815 C15.7691669,9.77816815 15.9968214,10.29453 15.7036357,10.615425 L14.1744462,12.2891393 L14.6813725,14.3823117 C14.7809531,14.7934945 14.356668,15.1348124 13.976363,14.9494595 L11.9172522,13.9458911 L9.85814145,14.9494595 Z" id="Shape"></path>
            </g>
        </g>
    </g>
</svg>