<svg width="25" height="24" viewBox="0 0 25 24" fill="none" xmlns="http://www.w3.org/2000/svg">
<path d="M12.6667 1C6.61437 1 1.66666 5.94772 1.66666 12C1.66666 18.0523 6.61437 23 12.6667 23C18.7189 23 23.6667 18.0523 23.6667 12C23.6667 5.94772 18.7189 1 12.6667 1ZM12.4167 8.24854C11.7263 8.24854 11.1667 7.68889 11.1667 6.99854C11.1667 6.30818 11.7263 5.74854 12.4167 5.74854C13.107 5.74854 13.6667 6.30818 13.6667 6.99854C13.6667 7.68889 13.107 8.24854 12.4167 8.24854ZM10.6667 10H12.6667C13.1844 10 13.6103 10.3935 13.6615 10.8978C13.6649 10.9314 13.6667 10.9655 13.6667 11V15H14.6667C15.2189 15 15.6667 15.4477 15.6667 16C15.6667 16.5523 15.2189 17 14.6667 17H10.6667C10.1144 17 9.66666 16.5523 9.66666 16C9.66666 15.4477 10.1144 15 10.6667 15H11.6667V12H10.6667C10.1144 12 9.66666 11.5523 9.66666 11C9.66666 10.4477 10.1144 10 10.6667 10Z" fill="#343A3D"/>
</svg>
