<svg width="25" height="24" viewBox="0 0 25 24" fill="none" xmlns="http://www.w3.org/2000/svg">
<g id="info-circle">
<g id="icon">
<path d="M9.66666 16C9.66666 16.5523 10.1144 17 10.6667 17H14.6667C15.2189 17 15.6667 16.5523 15.6667 16C15.6667 15.4477 15.2189 15 14.6667 15H13.6667L13.6667 11C13.6667 10.4477 13.2189 10 12.6667 10H10.6667C10.1144 10 9.66666 10.4477 9.66666 11C9.66666 11.5523 10.1144 12 10.6667 12H11.6667L11.6667 15H10.6667C10.1144 15 9.66666 15.4477 9.66666 16Z" fill="#343A3D"/>
<path d="M12.4167 8.24854C13.107 8.24854 13.6667 7.68889 13.6667 6.99854C13.6667 6.30818 13.107 5.74854 12.4167 5.74854C11.7263 5.74854 11.1667 6.30818 11.1667 6.99854C11.1667 7.68889 11.7263 8.24854 12.4167 8.24854Z" fill="#343A3D"/>
<path d="M1.66666 12C1.66666 5.94772 6.61437 1 12.6667 1C18.7189 1 23.6667 5.94772 23.6667 12C23.6667 18.0523 18.7189 23 12.6667 23C6.61437 23 1.66666 18.0523 1.66666 12ZM12.6667 3C7.71894 3 3.66666 7.05228 3.66666 12C3.66666 16.9477 7.71894 21 12.6667 21C17.6144 21 21.6667 16.9477 21.6667 12C21.6667 7.05228 17.6144 3 12.6667 3Z" fill="#343A3D"/>
</g>
</g>
</svg>
