<svg width="25" height="24" viewBox="0 0 25 24" fill="none" xmlns="http://www.w3.org/2000/svg">
<path d="M9.8049 5.59085C9.8049 7.05313 10.9873 8.23562 12.4183 8.23562C13.8802 8.23562 15.0626 7.05313 15.0626 5.59085C15.0626 4.12847 13.8802 2.94653 12.4183 2.94653C10.9873 2.94653 9.8049 4.12847 9.8049 5.59085ZM16.3912 19.119C16.1456 18.8551 15.8811 18.8023 15.7061 18.8023H14.891L14.8918 11.6002C14.8918 10.9152 14.3004 10.3235 13.6153 10.3232L13.6144 10.3215H9.62755C9.44599 10.3215 9.18212 10.3801 8.93606 10.6617C8.74823 10.8726 8.65494 11.1422 8.65494 11.4646C8.65494 11.7871 8.75451 12.051 8.94211 12.2555C9.18806 12.5194 9.45227 12.5724 9.62755 12.5724H10.4272V12.5759H10.4425V18.8023H9.62732C9.44599 18.8023 9.18257 18.8607 8.93583 19.1422C8.74823 19.3532 8.65494 19.6228 8.65494 19.951C8.65494 20.2677 8.75428 20.5315 8.94211 20.7363C9.18783 21.0002 9.45227 21.053 9.62732 21.053H15.7061C15.8873 21.053 16.1509 20.9945 16.3976 20.7131C16.5852 20.5021 16.6785 20.2325 16.6785 19.9044C16.6785 19.5876 16.5792 19.3238 16.3912 19.119Z" fill="#343A3D"/>
</svg>
