<svg width="24" height="24" viewBox="0 0 24 24" fill="none" xmlns="http://www.w3.org/2000/svg">
<path d="M9.25 2C9.25 1.58579 9.58579 1.25 10 1.25H14C14.4142 1.25 14.75 1.58579 14.75 2C14.75 2.41421 14.4142 2.75 14 2.75H10C9.58579 2.75 9.25 2.41421 9.25 2Z" fill="#343A3D"/>
<path d="M12.2854 12.0413C12.6082 12.1373 12.8627 12.3918 12.9587 12.7146L13.8102 12.4308C14.077 12.3418 14.3698 12.4501 14.5145 12.6913L17.5145 17.6913C17.6561 17.9274 17.6189 18.2296 17.4242 18.4242C17.2296 18.6189 16.9274 18.6561 16.6913 18.5145L11.6913 15.5145C11.4501 15.3698 11.3418 15.077 11.4308 14.8102L11.7146 13.9587C11.3918 13.8627 11.1373 13.6082 11.0413 13.2854L10.1898 13.5692C9.92298 13.6582 9.63022 13.5499 9.48554 13.3087L6.48554 8.30873C6.34388 8.07264 6.38109 7.77045 6.57577 7.57577C6.77045 7.38109 7.07264 7.34389 7.30873 7.48554L12.3087 10.4855C12.5499 10.6302 12.6582 10.923 12.5692 11.1898L12.2854 12.0413ZM12.9743 13.9743L12.7214 14.7331L15.2507 16.2507L13.7331 13.7214L12.9743 13.9743ZM10.2669 12.2786L11.0257 12.0257L11.2786 11.2669L8.74932 9.74932L10.2669 12.2786Z" fill="#343A3D"/>
<path d="M12 23C17.5228 23 22 18.5228 22 13C22 7.47715 17.5228 3 12 3C6.47715 3 2 7.47715 2 13C2 18.5228 6.47715 23 12 23ZM20.1408 12.0098C20.0948 12.0034 20.0478 12 20 12H19C18.4477 12 18 12.4477 18 13C18 13.5523 18.4477 14 19 14H20C20.0478 14 20.0948 13.9966 20.1408 13.9902C19.691 17.7274 16.7274 20.691 12.9902 21.1408C12.9966 21.0948 13 21.0478 13 21V20C13 19.4477 12.5523 19 12 19C11.4477 19 11 19.4477 11 20V21C11 21.0478 11.0034 21.0948 11.0098 21.1408C7.27262 20.691 4.30898 17.7274 3.85917 13.9902C3.90518 13.9966 3.9522 14 4 14H5C5.55228 14 6 13.5523 6 13C6 12.4477 5.55228 12 5 12H4C3.9522 12 3.90518 12.0034 3.85917 12.0098C4.30898 8.27262 7.27262 5.30898 11.0098 4.85917C11.0034 4.90518 11 4.9522 11 5V6C11 6.55228 11.4477 7 12 7C12.5523 7 13 6.55228 13 6V5C13 4.9522 12.9966 4.90518 12.9902 4.85917C16.7274 5.30898 19.691 8.27262 20.1408 12.0098Z" fill="#343A3D"/>
</svg>
