<svg width="24px" height="24px" viewBox="0 0 24 24" version="1.1" xmlns="http://www.w3.org/2000/svg" xmlns:xlink="http://www.w3.org/1999/xlink">
    <g id="Final" stroke="none" stroke-width="1" fill="none" fill-rule="evenodd">
        <g id="Header" transform="translate(-880.000000, -9314.000000)" fill="#343A3D" fill-rule="nonzero">
            <g id="Group-44-Copy-11" transform="translate(864.000000, 9308.000000)">
                <g id="Group-47" transform="translate(16.000000, 6.000000)">
                    <path d="M3.51519939,12.5 C3.6984623,15.566522 5.5434153,18.4272971 8.54365058,19.7630879 C9.50653121,20.19179 10.5065173,20.4269609 11.5,20.4853406 L11.5,20 C11.5,19.7238576 11.7238576,19.5 12,19.5 C12.2761424,19.5 12.5,19.7238576 12.5,20 L12.5,20.4848006 C15.566522,20.3015377 18.4272971,18.4565847 19.7630879,15.4563494 C20.19179,14.4934688 20.4269609,13.4934827 20.4853406,12.5 L20,12.5 C19.7238576,12.5 19.5,12.2761424 19.5,12 C19.5,11.7238576 19.7238576,11.5 20,11.5 L20.4848006,11.5 C20.3015377,8.43347802 18.4565847,5.57270289 15.4563494,4.23691209 C14.5044889,3.81311649 13.5040236,3.57398393 12.5,3.5146255 L12.5,4 C12.5,4.27614237 12.2761424,4.5 12,4.5 C11.7238576,4.5 11.5,4.27614237 11.5,4 L11.5,3.51479946 C10.4473263,3.57737408 9.40725377,3.83680238 8.43210589,4.28740567 C8.18143219,4.40323876 7.88431973,4.29392885 7.76848663,4.04325514 C7.65265354,3.79258144 7.76196345,3.49546898 8.01263716,3.37963588 C10.4825829,2.23830574 13.3283096,2.19481142 15.8630861,3.32336663 C20.6550584,5.45689015 22.8101569,11.0711138 20.6766334,15.8630861 C18.5431098,20.6550584 12.9288862,22.8101569 8.13691393,20.6766334 C3.34494164,18.5431098 1.18984311,12.9288862 3.32336663,8.13691393 C3.43568385,7.88464532 3.73123907,7.7711923 3.98350768,7.88350952 C4.23577629,7.99582675 4.34922931,8.29138196 4.23691209,8.54365058 C3.80821001,9.50653121 3.57303906,10.5065173 3.51465937,11.5 L4,11.5 C4.27614237,11.5 4.5,11.7238576 4.5,12 C4.5,12.2761424 4.27614237,12.5 4,12.5 L3.51519939,12.5 Z M12.5,11.1337822 C12.6507512,11.2209871 12.7766246,11.3464156 12.8643677,11.4968153 L13.9968153,11.4968153 C14.1724467,11.4968153 14.3352002,11.5889647 14.4255618,11.7395674 L17.4255618,16.7395674 C17.6933659,17.1859076 17.1859076,17.6933659 16.7395674,17.4255618 L11.7395674,14.4255618 C11.5889647,14.3352002 11.4968153,14.1724467 11.4968153,13.9968153 L11.4968153,12.8643677 C11.3464156,12.7766246 11.2209871,12.6507512 11.1337822,12.5 L10,12.5 C9.82436857,12.5 9.66161516,12.4078506 9.57125354,12.2572479 L6.57125354,7.25724788 C6.30344944,6.81090771 6.81090771,6.30344944 7.25724788,6.57125354 L12.2572479,9.57125354 C12.4078506,9.66161516 12.5,9.82436857 12.5,10 L12.5,11.1337822 Z M11.5,11.1337822 L11.5,10.2830952 L8.45773797,8.45773797 L10.2830952,11.5 L11.1337822,11.5 C11.2216019,11.348186 11.348186,11.2216019 11.5,11.1337822 Z M12.4968153,12.8680522 L12.4968153,13.7137201 L15.5390773,15.5390773 L13.7137201,12.4968153 L12.8680522,12.4968153 C12.7795556,12.6511067 12.6511067,12.7795556 12.4968153,12.8680522 Z M13,1 C13.2761424,1 13.5,1.22385763 13.5,1.5 C13.5,1.77614237 13.2761424,2 13,2 L11,2 C10.7238576,2 10.5,1.77614237 10.5,1.5 C10.5,1.22385763 10.7238576,1 11,1 L13,1 Z" id="Combined-Shape"></path>
                </g>
            </g>
        </g>
    </g>
</svg>