<svg width="24" height="24" viewBox="0 0 24 24" fill="none" xmlns="http://www.w3.org/2000/svg">
<path d="M21.3301 9C21.3301 10.1046 20.4376 11 19.3368 11C18.2359 11 17.3434 10.1046 17.3434 9C17.3434 7.89543 18.2359 7 19.3368 7C20.4376 7 21.3301 7.89543 21.3301 9Z" fill="#343A3D"/>
<path d="M12.0413 3C10.9404 3 10.048 3.89543 10.048 5C10.048 6.10457 10.9404 7 12.0413 7C13.1422 7 14.0347 6.10457 14.0347 5C14.0347 3.89543 13.1422 3 12.0413 3ZM8.05463 5C8.05463 2.79086 9.83953 1 12.0413 1C14.2431 1 16.028 2.79086 16.028 5C16.028 7.20914 14.2431 9 12.0413 9C9.83953 9 8.05463 7.20914 8.05463 5ZM20.166 8.4453L21.155 9.93375C21.9191 11.0836 22.3268 12.4347 22.3268 13.8167V14.5019C22.8736 14.9894 23.1445 15.7683 22.9221 16.5494C22.6997 17.3306 21.4983 21.5494 21.4983 21.5494C21.2538 22.408 20.4716 23 19.5816 23H4.81974C3.92976 23 2.74622 22.408 2.50172 21.5494L1.07791 16.5494C0.714087 15.2718 1.67022 14 2.99455 14H5.19999C5.50237 12.9047 6.28351 11.9927 7.25995 11.3395C8.52727 10.4918 10.2207 10 12.0413 10C13.862 10 15.5554 10.4918 16.8227 11.3395C18.1179 11.9927 18.899 12.9047 19.2014 14H20.3334V13.8167C20.3334 12.8295 20.0422 11.8645 19.4965 11.0432L18.5075 9.5547C17.7945 8.48161 19.453 7.37221 20.166 8.4453ZM16.723 14C16.5094 13.6524 16.1784 13.3123 15.717 13.0036C14.82 12.4036 13.5233 12 12.0413 12C10.5593 12 9.26267 12.4036 8.36565 13.0036C7.90425 13.3123 7.57318 13.6524 7.3596 14H16.723ZM2.99455 16L4.81975 21H19.5816L21.0054 16L2.99455 16Z" fill="#343A3D"/>
</svg>
