<svg width="24" height="24" viewBox="0 0 24 24" fill="none" xmlns="http://www.w3.org/2000/svg">
<path d="M13 5.75C13.4142 5.75 13.75 5.41421 13.75 5C13.75 4.58579 13.4142 4.25 13 4.25L11 4.25C10.5858 4.25 10.25 4.58579 10.25 5C10.25 5.41421 10.5858 5.75 11 5.75L13 5.75Z" fill="#343A3D"/>
<path d="M8 19C8 19.5523 7.55228 20 7 20C6.44772 20 6 19.5523 6 19C6 18.4477 6.44772 18 7 18C7.55228 18 8 18.4477 8 19Z" fill="#343A3D"/>
<path d="M10 20C10.5523 20 11 19.5523 11 19C11 18.4477 10.5523 18 10 18C9.44772 18 9 18.4477 9 19C9 19.5523 9.44772 20 10 20Z" fill="#343A3D"/>
<path d="M16 1C17.6569 1 19 2.34315 19 4V15C20.6569 15 22 16.3431 22 18V20C22 21.6569 20.6569 23 19 23H5C3.34315 23 2 21.6569 2 20V18C2 16.3431 3.34315 15 5 15L5 4C5 2.34315 6.34315 1 8 1H16ZM17 4C17 3.44772 16.5523 3 16 3L8 3C7.44771 3 7 3.44772 7 4L7 15H17L17 4ZM5 17C4.44772 17 4 17.4477 4 18L4 20C4 20.5523 4.44772 21 5 21H19C19.5523 21 20 20.5523 20 20V18C20 17.4477 19.5523 17 19 17H5Z" fill="#343A3D"/>
</svg>
