<svg width="24" height="24" viewBox="0 0 24 24" fill="none" xmlns="http://www.w3.org/2000/svg">
<path fill-rule="evenodd" clip-rule="evenodd" d="M11 3C11 2.44772 11.4477 2 12 2H20C21.6569 2 23 3.34315 23 5V20C23 21.1046 22.1046 22 21 22L3 22C1.89543 22 1 21.1046 1 20C1 12.8203 6.8203 7 14 7L21 7L21 5C21 4.44772 20.5523 4 20 4H12C11.4477 4 11 3.55228 11 3ZM21 9L14 9C9.33604 9 5.35002 11.9026 3.74988 16H21L21 9ZM21 18H3.18138C3.06225 18.6486 3 19.317 3 20L21 20V18ZM15 13C15 12.4477 15.4477 12 16 12H18C18.5523 12 19 12.4477 19 13C19 13.5523 18.5523 14 18 14H16C15.4477 14 15 13.5523 15 13Z" fill="#343A3D"/>
</svg>
