<svg width="24" height="24" viewBox="0 0 24 24" fill="none" xmlns="http://www.w3.org/2000/svg">
<path d="M6.99998 4C6.4477 4 5.99998 4.44772 5.99998 5H7.99998C8.61724 5 9.17867 5.11297 9.65485 5.38688C10.1453 5.66898 10.4648 6.07557 10.6628 6.5182C10.8685 6.97794 10.949 7.50415 10.9804 8H19C20.1363 8 21.1751 8.64201 21.6833 9.65836C22.1056 10.5029 22.1056 11.4971 21.6833 12.3416C21.1751 13.358 20.1363 14 19 14H16.4142L13.6923 16.7219L17.6643 20.2526C18.0771 20.6195 18.1143 21.2516 17.7474 21.6644C17.3805 22.0771 16.7484 22.1143 16.3356 21.7474L12.2756 18.1385L8.70709 21.7071C8.31657 22.0976 7.6834 22.0976 7.29288 21.7071C6.90235 21.3166 6.90235 20.6834 7.29288 20.2929L10.7782 16.8075L7.61978 14H5L4.999 14L4.99795 14L4.9957 14L4.99061 14L4.97814 13.9998C4.96881 13.9997 4.95746 13.9994 4.94422 13.999C4.91778 13.9981 4.88362 13.9965 4.84282 13.9936C4.76154 13.9877 4.65197 13.9766 4.5231 13.9551C4.27011 13.913 3.9175 13.8268 3.55279 13.6444C3.18416 13.4601 2.78511 13.1679 2.48045 12.7109C2.17162 12.2477 2 11.675 2 11C2 10.325 2.17162 9.7523 2.48045 9.28905C2.78511 8.83206 3.18416 8.53989 3.55279 8.35557C3.70617 8.27888 3.85741 8.2192 4 8.17265L3.99998 6.00009V5C3.99998 3.34315 5.34313 2 6.99998 2H7.99998C8.55227 2 8.99998 2.44772 8.99998 3C8.99998 3.55228 8.55227 4 7.99998 4H6.99998ZM5.99999 7L6 8H8.97471C8.95246 7.71599 8.91149 7.50108 8.83716 7.3349C8.78517 7.21869 8.7297 7.16199 8.65762 7.12053C8.5713 7.07088 8.38273 7 7.99998 7H5.99999ZM5.00903 12H19C19.3788 12 19.725 11.786 19.8944 11.4472C20.0352 11.1657 20.0352 10.8343 19.8944 10.5528C19.725 10.214 19.3788 10 19 10H5.00902C5.00504 10.0002 4.99696 10.0005 4.98531 10.0014C4.95721 10.0034 4.91053 10.0079 4.8519 10.0176C4.72989 10.038 4.5825 10.0768 4.44721 10.1444C4.31584 10.2101 4.21489 10.2929 4.14455 10.3985C4.07838 10.4977 4 10.675 4 11C4 11.325 4.07838 11.5023 4.14455 11.6016C4.21489 11.7071 4.31584 11.7899 4.44721 11.8556C4.5825 11.9232 4.72989 11.962 4.8519 11.9824C4.91053 11.9921 4.95721 11.9966 4.98531 11.9986C4.99697 11.9995 5.00504 11.9998 5.00903 12ZM10.6302 14L12.1949 15.3909L13.5858 14H10.6302Z" fill="#343A3D"/>
</svg>
