<svg width="24" height="24" viewBox="0 0 24 24" fill="none" xmlns="http://www.w3.org/2000/svg">
<path d="M5 4C5 2.34315 6.34315 1 8 1C9.65685 1 11 2.34315 11 4C11 4.95559 10.5532 5.80683 9.85714 6.35622C11.0769 6.84449 12.059 7.79947 12.5836 9H22C22.5523 9 23 9.44771 23 10C23 10.5523 22.5523 11 22 11V18C22 20.7614 19.7614 23 17 23H7C4.23858 23 2 20.7614 2 18V11C1.44772 11 1 10.5523 1 10C1 9.44771 1.44772 9 2 9H3.41633C3.94091 7.79946 4.92303 6.84446 6.14283 6.3562C5.44677 5.80681 5 4.95558 5 4ZM8 3C7.44772 3 7 3.44772 7 4C7 4.55228 7.44772 5 8 5C8.55228 5 9 4.55228 9 4C9 3.44772 8.55228 3 8 3ZM4 15V18C4 19.3062 4.83481 20.4175 6 20.8293V15H4ZM11 21V15H8V21H11ZM11 13V11H8V13H11ZM4.14857 11C4.13402 11.0003 4.11942 11.0003 4.10478 11H4V13H6V11H4.14857ZM13 21H16V15H13V21ZM16 13V11H13V13H16ZM18 15V20.8293C19.1652 20.4175 20 19.3062 20 18V15H18ZM20 13V11H18V13H20ZM5.76363 9H10.2363C9.68664 8.38612 8.88788 8 7.99996 8C7.11203 8 6.31327 8.38612 5.76363 9Z" fill="#343A3D"/>
<path d="M15.8547 2.15076C16.3737 2.33965 16.6413 2.9135 16.4524 3.43247L15.4263 6.25155C15.2374 6.77053 14.6636 7.03812 14.1446 6.84922C13.6256 6.66033 13.358 6.08649 13.5469 5.56751L14.573 2.74843C14.7619 2.22946 15.3357 1.96187 15.8547 2.15076Z" fill="#343A3D"/>
<path d="M20.4524 3.43247C20.6413 2.9135 20.3737 2.33965 19.8547 2.15076C19.3357 1.96187 18.7619 2.22946 18.573 2.74843L17.5469 5.56751C17.358 6.08649 17.6256 6.66033 18.1446 6.84922C18.6636 7.03812 19.2374 6.77053 19.4263 6.25155L20.4524 3.43247Z" fill="#343A3D"/>
</svg>
