<svg width="24" height="24" viewBox="0 0 24 24" fill="none" xmlns="http://www.w3.org/2000/svg">
<path d="M8 3C7.44772 3 7 3.44772 7 4C7 4.55228 7.44772 5 8 5C8.55228 5 9 4.55228 9 4C9 3.44772 8.55228 3 8 3ZM5 4C5 2.34315 6.34315 1 8 1C9.65685 1 11 2.34315 11 4C11 4.95559 10.5532 5.80682 9.85715 6.35621C11.0769 6.84448 12.059 7.79946 12.5836 9H22C22.5523 9 23 9.44772 23 10C23 10.5523 22.5523 11 22 11V18C22 20.7614 19.7614 23 17 23H7C4.23858 23 2 20.7614 2 18V11C1.44772 11 1 10.5523 1 10C1 9.44772 1.44772 9 2 9H3.41637C3.94095 7.79946 4.92306 6.84448 6.14285 6.35621C5.44678 5.80682 5 4.95559 5 4ZM4.10482 11H4V13H6V11H4.14862C4.13406 11.0003 4.11946 11.0003 4.10482 11ZM5.76368 9H10.2363C9.68668 8.38612 8.88792 8 8 8C7.11208 8 6.31332 8.38612 5.76368 9ZM6 15H4V18C4 19.3062 4.83481 20.4175 6 20.8293V15ZM8 21H11V15H8V21ZM13 21H16V15H13V21ZM13 13H16V11H13V13ZM18 15V20.8293C19.1652 20.4175 20 19.3062 20 18V15H18ZM20 13V11H18V13H20ZM11 13V11H8V13H11ZM15.8551 2.15073C16.374 2.33963 16.6416 2.91347 16.4527 3.43245L15.4267 6.25152C15.2378 6.7705 14.6639 7.03809 14.1449 6.8492C13.626 6.66031 13.3584 6.08646 13.5473 5.56748L14.5733 2.74841C14.7622 2.22943 15.3361 1.96184 15.8551 2.15073ZM19.8551 2.15073C20.374 2.33963 20.6416 2.91347 20.4527 3.43245L19.4267 6.25152C19.2378 6.7705 18.6639 7.03809 18.145 6.8492C17.626 6.66031 17.3584 6.08646 17.5473 5.56748L18.5733 2.74841C18.7622 2.22943 19.3361 1.96184 19.8551 2.15073Z" fill="#343A3D"/>
</svg>
