<svg width="24" height="24" viewBox="0 0 24 24" fill="none" xmlns="http://www.w3.org/2000/svg">
<path fill-rule="evenodd" clip-rule="evenodd" d="M1 2C1 1.44772 1.44772 1 2 1H10C10.5523 1 11 1.44772 11 2V6C11 6.55228 10.5523 7 10 7H9V14C9 15.6569 10.3431 17 12 17C13.6569 17 15 15.6569 15 14V7H14C13.4477 7 13 6.55228 13 6V2C13 1.44772 13.4477 1 14 1H22C22.2652 1 22.5196 1.10536 22.7071 1.29289C22.8946 1.48043 23 1.73478 23 2V6C23 6.55228 22.5523 7 22 7H21V14C21 18.9706 16.9706 23 12 23C7.02944 23 3 18.9706 3 14V7H2C1.44772 7 1 6.55228 1 6V2ZM3 5H4C4.55228 5 5 5.44772 5 6V14C5 17.866 8.13401 21 12 21C15.866 21 19 17.866 19 14V6C19 5.44772 19.4477 5 20 5H21V3H15V5H16C16.5523 5 17 5.44772 17 6V14C17 16.7614 14.7614 19 12 19C9.23858 19 7 16.7614 7 14V6C7 5.44772 7.44772 5 8 5H9V3H3V5Z" fill="#343A3D"/>
</svg>
