<svg width="24" height="24" viewBox="0 0 24 24" fill="none" xmlns="http://www.w3.org/2000/svg">
<path d="M11 14C12.1046 14 13 13.1046 13 12C13 10.8954 12.1046 10 11 10C9.89543 10 9 10.8954 9 12C9 13.1046 9.89543 14 11 14Z" fill="#343A3D"/>
<path d="M11.0004 1C11.3347 1.00001 11.647 1.16713 11.8324 1.44533L15.8246 7.43406C15.9352 7.59499 16 7.78993 16 8V13H16.346C17.1406 13 17.8598 13.4704 18.1783 14.1984L21.154 21H22C22.5523 21 23 21.4477 23 22C23 22.5523 22.5523 23 22 23H21.154C20.3594 23 19.6402 22.5296 19.3217 21.8016L16.346 15H16V22C16 22.5523 15.5523 23 15 23C14.4477 23 14 22.5523 14 22V17H8V22C8 22.5523 7.55228 23 7 23C6.44772 23 6 22.5523 6 22V21H3V22C3 22.5523 2.55228 23 2 23C1.44772 23 1 22.5523 1 22V15C1 12.7909 2.79086 11 5 11H6V8.00006C6 7.78989 6.06484 7.59479 6.17561 7.43382L10.1683 1.44527C10.3538 1.16707 10.666 0.999986 11.0004 1ZM11.0003 3.80278L8.86861 7H13.1316L11.0003 3.80278ZM8 9V15H14V9H8ZM6 19V17H3V19H6ZM6 15V13H5C3.89543 13 3 13.8954 3 15H6Z" fill="#343A3D"/>
</svg>
