<svg width="24" height="24" viewBox="0 0 24 24" fill="none" xmlns="http://www.w3.org/2000/svg">
<path d="M1.07066 7.92933C0.614583 5.2188 2.41233 2.63885 5.13267 2.09994C7.97103 1.53765 10.7181 3.40672 11.2069 6.23269L11.9324 10.4279C12.0581 11.1546 11.7431 11.8226 11.2129 12.2174L11.4502 14.8938C11.6203 16.8131 10.2809 18.5427 8.3654 18.8772C6.44976 19.2118 4.59381 18.0401 4.09113 16.1788L3.45767 13.8333C2.65483 13.7268 1.94493 13.1252 1.79648 12.2429L1.07066 7.92933ZM9.22335 6.56926C8.92597 4.84972 7.25441 3.71243 5.52734 4.05457C3.87207 4.38249 2.77819 5.95232 3.0557 7.60162L3.10652 7.90367C5.01416 6.95618 7.16344 6.59689 9.27511 6.86851L9.22335 6.56926ZM3.45672 9.98491L3.76401 11.8112L4.27206 11.5092C5.96584 10.5026 7.97804 10.1613 9.91196 10.5509L9.63466 8.94749C7.51999 8.51976 5.31614 8.88768 3.45672 9.98491ZM5.36561 13.1844L6.03519 15.6637C6.26814 16.5262 7.12821 17.0692 8.01595 16.9142C8.90363 16.7591 9.52433 15.9576 9.44548 15.0682L9.21357 12.4522C7.88709 12.2544 6.52867 12.511 5.36561 13.1844Z" fill="#343A3D"/>
<path d="M13.3331 19.3054V16.2293C12.8098 15.8645 12.4765 15.2424 12.5354 14.5415L12.9063 10.1334C13.1409 7.34513 15.6366 5.28818 18.4473 5.5666C21.1931 5.83858 23.2114 8.24127 22.9823 10.9651L22.606 15.4373C22.5357 16.2725 21.9474 16.9089 21.2124 17.1192L20.7423 19.9128C20.4425 21.6943 18.8864 23 17.0631 23C15.0031 23 13.3331 21.3459 13.3331 19.3054ZM15.3456 19.3054C15.3456 20.245 16.1145 21.0067 17.0631 21.0067C17.9027 21.0067 18.6192 20.4054 18.7573 19.5851L19.2317 16.7658L19.0243 16.6836C17.9369 16.2528 16.7465 16.1445 15.5981 16.372L15.3456 16.4221V19.3054ZM20.9431 11.2006L20.9768 10.7996C21.1147 9.16002 19.8998 7.71377 18.2471 7.55005C16.5552 7.38246 15.053 8.6206 14.9118 10.299L14.8905 10.551C16.9255 10.1447 19.0405 10.3708 20.9431 11.2006ZM20.7636 13.3337C18.9133 12.3274 16.7413 12.0813 14.7147 12.6414L14.5545 14.546L15.2034 14.4174C16.7346 14.1141 18.3218 14.2584 19.7717 14.8328L20.6095 15.1648L20.7636 13.3337Z" fill="#343A3D"/>
</svg>
