<svg width="24" height="24" viewBox="0 0 24 24" fill="none" xmlns="http://www.w3.org/2000/svg">
<path d="M11 8C11 8.55228 10.5523 9 10 9C9.44772 9 9 8.55228 9 8C9 7.44772 9.44772 7 10 7C10.5523 7 11 7.44772 11 8Z" fill="#343A3D"/>
<path d="M14 9C14.5523 9 15 8.55228 15 8C15 7.44772 14.5523 7 14 7C13.4477 7 13 7.44772 13 8C13 8.55228 13.4477 9 14 9Z" fill="#343A3D"/>
<path d="M9.6705 10.6639C9.48487 10.2936 9.0342 10.1439 8.66392 10.3296C8.29363 10.5152 8.14394 10.9659 8.32958 11.3362C8.68839 12.0519 9.21012 12.6597 9.85312 13.0883C10.4974 13.5179 11.2381 13.75 12 13.75C12.762 13.75 13.5027 13.5179 14.147 13.0883C14.79 12.6597 15.3117 12.0519 15.6705 11.3362C15.8561 10.9659 15.7065 10.5152 15.3362 10.3296C14.9659 10.1439 14.5152 10.2936 14.3296 10.6639C14.0784 11.1649 13.7249 11.567 13.3149 11.8403C12.9062 12.1127 12.4531 12.25 12 12.25C11.5469 12.25 11.0939 12.1127 10.6852 11.8403C10.2752 11.567 9.92166 11.1649 9.6705 10.6639Z" fill="#343A3D"/>
<path fill-rule="evenodd" clip-rule="evenodd" d="M6 2C4.89543 2 4 2.89543 4 4V19C4 20.6569 5.34315 22 7 22H19C19.5523 22 20 21.5523 20 21C20 20.4477 19.5523 20 19 20V18C19.5523 18 20 17.5523 20 17V4C20 2.89543 19.1046 2 18 2H6ZM7 18H17L17 20H7C6.44772 20 6 19.5523 6 19C6 18.4477 6.44772 18 7 18ZM18 4V16H7C6.64936 16 6.31278 16.0602 6 16.1707V4H18Z" fill="#343A3D"/>
</svg>
