<svg width="24" height="24" viewBox="0 0 24 24" fill="none" xmlns="http://www.w3.org/2000/svg">
<path d="M7.01856 14.4684L3.07547 11.1703C1.72528 10.0409 1.63267 7.99168 2.87545 6.74428L6.72672 2.87868C7.28725 2.31607 8.04748 2 8.84018 2H15.1598C15.9525 2 16.7128 2.31607 17.2733 2.87868L21.1246 6.74428C22.3673 7.99168 22.2747 10.0409 20.9245 11.1703L16.9815 14.4683V19C16.9815 20.6569 15.6433 22 13.9926 22H10.0074C8.35673 22 7.01856 20.6569 7.01856 19V14.4684ZM7.51669 4.9142L4.28442 8.1585C3.87016 8.5743 3.90103 9.25738 4.35109 9.63382L7.01856 11.865V10C7.01856 9.44772 7.46462 9 8.01486 9C8.56509 9 9.01115 9.44772 9.01115 10V13H11.0037V8.41421L7.51669 4.9142ZM11.0037 15H9.01115V19C9.01115 19.5523 9.45721 20 10.0074 20H11.0037V15ZM14.9889 15H12.9963V20H13.9926C14.5429 20 14.9889 19.5523 14.9889 19V15ZM14.9889 13V10C14.9889 9.44772 15.435 9 15.9852 9C16.5354 9 16.9815 9.44772 16.9815 10V11.8649L19.6489 9.63382C20.099 9.25738 20.1298 8.5743 19.7156 8.1585L16.4833 4.91423L12.9963 8.41421V13H14.9889ZM14.5762 4H9.42383L12 6.58579L14.5762 4Z" fill="#444444"/>
</svg>
