<svg width="24" height="24" viewBox="0 0 24 24" fill="none" xmlns="http://www.w3.org/2000/svg">
<path d="M14.6903 4.38873C10.1836 2.93447 5.0466 5.71603 4.07592 10.4004C4.00822 10.7271 3.78254 10.9986 3.474 11.1245C3.22109 11.2277 3.0008 11.533 3.0008 12C3.0008 12.467 3.22109 12.7723 3.47399 12.8755C3.78254 13.0014 4.00822 13.2729 4.07592 13.5996C5.0466 18.284 10.1836 21.0655 14.6903 19.6113C15.2162 19.4416 15.7799 19.7309 15.9494 20.2574C16.1188 20.784 15.8299 21.3484 15.304 21.5181C9.88488 23.2668 3.67811 20.106 2.22344 14.4654C1.36931 13.8828 1 12.8829 1 12C1 11.1171 1.36931 10.1172 2.22344 9.53464C3.67811 3.89405 9.88488 0.733163 15.304 2.48186C15.8299 2.65155 16.1188 3.21598 15.9494 3.74255C15.7799 4.26912 15.2162 4.55842 14.6903 4.38873Z" fill="#343A3D"/>
<path d="M6.99398 12C6.99398 8.5236 10.5536 6.00948 13.5793 7.40086C14.0814 7.63175 14.6753 7.41136 14.9059 6.90861C15.1365 6.40586 14.9164 5.81112 14.4143 5.58024C9.85674 3.48442 4.99318 7.29752 4.99318 12C4.99318 16.7025 9.85674 20.5156 14.4143 18.4198C14.9164 18.1889 15.1365 17.5942 14.9059 17.0914C14.6753 16.5887 14.0814 16.3683 13.5793 16.5992C10.5536 17.9905 6.99398 15.4764 6.99398 12Z" fill="#343A3D"/>
<path d="M19.9824 9.81298C19.9934 9.87248 19.9992 9.93383 19.9992 9.99652V12H20.9996C21.5521 12 22 12.4484 22 13.0017V18.0103C22 19.67 20.6563 21.0154 18.9988 21.0154C17.3413 21.0154 15.9976 19.67 15.9976 18.0103V13.0017C15.9976 12.736 16.103 12.4812 16.2906 12.2934C16.4782 12.1055 16.7327 12 16.998 12H17.9984V9.99652C17.9984 9.93383 18.0041 9.87248 18.0152 9.81298C16.7476 9.31427 15.9976 7.8783 15.9976 6.4905C15.9976 4.77432 17.1445 2.98448 18.9988 2.98448C20.8531 2.98448 22 4.77432 22 6.4905C22 7.8783 21.25 9.31427 19.9824 9.81298ZM17.9984 14.0034V18.0103C17.9984 18.5635 18.4463 19.012 18.9988 19.012C19.5513 19.012 19.9992 18.5635 19.9992 18.0103V14.0034H17.9984ZM17.9984 6.4905C17.9984 7.54049 18.6431 7.99308 18.9988 7.99308C19.3545 7.99308 19.9992 7.54049 19.9992 6.4905C19.9992 5.4405 19.3545 4.98792 18.9988 4.98792C18.6431 4.98792 17.9984 5.4405 17.9984 6.4905Z" fill="#343A3D"/>
</svg>
