<svg width="24" height="24" viewBox="0 0 24 24" fill="none" xmlns="http://www.w3.org/2000/svg">
<path d="M8.25 14.25C8.94036 14.25 9.5 13.6904 9.5 13C9.5 12.3096 8.94036 11.75 8.25 11.75C7.55964 11.75 7 12.3096 7 13C7 13.6904 7.55964 14.25 8.25 14.25Z" fill="#343A3D"/>
<path d="M17 13C17 13.6904 16.4404 14.25 15.75 14.25C15.0596 14.25 14.5 13.6904 14.5 13C14.5 12.3096 15.0596 11.75 15.75 11.75C16.4404 11.75 17 12.3096 17 13Z" fill="#343A3D"/>
<path d="M8.40683 16.6135C8.71237 16.1534 9.33302 16.0282 9.79309 16.3337C10.4472 16.7681 11.215 16.9999 12.0003 16.9999C12.7855 16.9999 13.5533 16.7681 14.2075 16.3337C14.6675 16.0282 15.2882 16.1534 15.5937 16.6135C15.8993 17.0736 15.774 17.6942 15.3139 17.9998C14.3319 18.652 13.1792 18.9999 12.0003 18.9999C10.8214 18.9999 9.66867 18.652 8.68662 17.9998C8.22655 17.6942 8.10129 17.0736 8.40683 16.6135Z" fill="#343A3D"/>
<path fill-rule="evenodd" clip-rule="evenodd" d="M1 12C1 5.92487 5.92487 1 12 1C18.0751 1 23 5.92487 23 12C23 18.0751 18.0751 23 12 23C5.92487 23 1 18.0751 1 12ZM3.20186 10.0957C3.06962 10.7095 3 11.3466 3 12C3 16.9706 7.02944 21 12 21C16.9706 21 21 16.9706 21 12C21 11.665 20.9817 11.3342 20.946 11.0086C18.2908 10.9636 16.285 9.41675 15.0842 8.40251C14.3441 9.12806 13.3865 9.60291 12.394 9.91477C11.2609 10.2708 10.0085 10.4377 8.80729 10.4956C6.57441 10.6031 4.38582 10.3391 3.20186 10.0957ZM3.8468 8.18375C4.92446 8.3819 6.80217 8.58979 8.71109 8.49787C9.80867 8.44502 10.8783 8.2946 11.7945 8.00673C12.717 7.7169 13.4119 7.3106 13.8504 6.79628C14.328 6.23627 15.3004 5.95726 16.0385 6.588C17.1454 7.5339 18.6081 8.75716 20.4792 8.97555C19.2368 5.49275 15.9095 3 12 3C8.3937 3 5.28281 5.12108 3.8468 8.18375Z" fill="#343A3D"/>
</svg>
