<svg width="24" height="24" viewBox="0 0 24 24" fill="none" xmlns="http://www.w3.org/2000/svg">
<path d="M1.40508 2.19623C1.65986 2.00764 1.98897 1.95103 2.29213 2.04363C3.59066 2.44027 4.55964 3.4318 5.27437 4.51966C5.99598 5.61797 6.53129 6.92412 6.92482 8.14269C7.32067 9.36843 7.5865 10.5482 7.7533 11.4179C7.83695 11.854 7.89628 12.2152 7.93491 12.4691C7.95424 12.5961 7.96841 12.6965 7.97788 12.7661C7.98262 12.8009 7.98618 12.8281 7.98863 12.8471L7.99147 12.8694L7.99227 12.8759L7.99252 12.8779C7.99252 12.8779 7.97788 12.7661 7.99267 12.8791C8.02727 13.1633 7.93842 13.4487 7.74862 13.663C7.55882 13.8773 7.28627 14 7 14H3V21C3 21.5523 2.55228 22 2 22C1.44772 22 1 21.5523 1 21V3.00001C1 2.68302 1.15029 2.38481 1.40508 2.19623ZM3 12H5.82771C5.81552 11.9338 5.80266 11.8653 5.78911 11.7946C5.63225 10.9768 5.38468 9.88158 5.02161 8.75733C4.65621 7.62589 4.18706 6.50704 3.60286 5.61786C3.40685 5.31952 3.20566 5.0587 3 4.83591V12ZM16 4.18846L16 11.3995C15.9338 11.3145 15.8673 11.2276 15.8009 11.1387C14.8201 9.8269 14 8.30346 14 7.00001C14 5.62434 14.9241 4.59379 16 4.18846ZM18 4.18846C19.0759 4.59379 20 5.62434 20 7.00001C20 8.30346 19.1799 9.8269 18.1991 11.1387C18.1327 11.2276 18.0662 11.3145 18 11.3995V4.18846ZM18 14.4212C18.0996 14.3209 18.219 14.1983 18.3532 14.0557C18.7466 13.6377 19.2726 13.0429 19.8009 12.3363C20.8201 10.9731 22 8.99656 22 7.00001C22 3.93311 19.3573 2.00001 17 2.00001C14.6427 2.00001 12 3.93311 12 7.00001C12 8.99656 13.1799 10.9731 14.1991 12.3363C14.7274 13.0429 15.2534 13.6377 15.6468 14.0557C15.781 14.1983 15.9004 14.3209 16 14.4212V21C16 21.5523 16.4477 22 17 22C17.5523 22 18 21.5523 18 21V14.4212ZM10 2.00001C10.5523 2.00001 11 2.44772 11 3.00001V14.2197C11.5199 14.4584 11.9418 14.8673 12.2463 15.324C12.732 16.0527 13 17.0017 13 18C13 18.9983 12.732 19.9474 12.2463 20.676C11.7651 21.3977 10.9907 22 10 22C9.00933 22 8.23485 21.3977 7.75374 20.676C7.26796 19.9474 7 18.9983 7 18C7 17.0017 7.26796 16.0527 7.75374 15.324C8.0582 14.8673 8.48014 14.4584 9 14.2197V3.00001C9 2.44772 9.44772 2.00001 10 2.00001ZM9.41784 16.4334C9.17976 16.7905 9 17.3415 9 18C9 18.6585 9.17976 19.2095 9.41784 19.5666C9.66058 19.9307 9.8861 20 10 20C10.1139 20 10.3394 19.9307 10.5822 19.5666C10.8202 19.2095 11 18.6585 11 18C11 17.3415 10.8202 16.7905 10.5822 16.4334C10.3394 16.0693 10.1139 16 10 16C9.8861 16 9.66058 16.0693 9.41784 16.4334Z" fill="#343A3D"/>
</svg>
