<svg width="24" height="24" viewBox="0 0 24 24" fill="none" xmlns="http://www.w3.org/2000/svg">
<path fill-rule="evenodd" clip-rule="evenodd" d="M3 11C3 8.76547 4.79086 7 7 7H17C19.2091 7 21 8.76547 21 11V18.954C21 21.1886 19.2091 23 17 23H7C4.79086 23 3 21.1886 3 18.954V11ZM6.83908 9C5.73451 9 5 9.88273 5 11V18.954C5 20.0713 5.89543 20.977 7 20.977H17C18.1046 20.977 19 20.0713 19 18.954V11C19 9.88273 17.9436 9 16.8391 9H6.83908Z" fill="#343A3D"/>
<path fill-rule="evenodd" clip-rule="evenodd" d="M9 1C9.41421 1 9.75 1.33965 9.75 1.75862V4.7931C9.75 5.21208 9.41421 5.55172 9 5.55172C8.58579 5.55172 8.25 5.21208 8.25 4.7931V1.75862C8.25 1.33965 8.58579 1 9 1Z" fill="#343A3D"/>
<path fill-rule="evenodd" clip-rule="evenodd" d="M12 1C12.4142 1 12.75 1.33965 12.75 1.75862V4.7931C12.75 5.21208 12.4142 5.55172 12 5.55172C11.5858 5.55172 11.25 5.21208 11.25 4.7931V1.75862C11.25 1.33965 11.5858 1 12 1Z" fill="#343A3D"/>
<path fill-rule="evenodd" clip-rule="evenodd" d="M15 1C15.4142 1 15.75 1.33965 15.75 1.75862V4.7931C15.75 5.21208 15.4142 5.55172 15 5.55172C14.5858 5.55172 14.25 5.21208 14.25 4.7931V1.75862C14.25 1.33965 14.5858 1 15 1Z" fill="#343A3D"/>
<path fill-rule="evenodd" clip-rule="evenodd" d="M1 12C1 11.4414 1.44772 11 2 11H22C22.5523 11 23 11.4414 23 12C23 12.5586 22.5523 13 22 13H2C1.44772 13 1 12.5586 1 12Z" fill="#343A3D"/>
</svg>
