<svg width="24" height="24" viewBox="0 0 24 24" fill="none" xmlns="http://www.w3.org/2000/svg">
<path fill-rule="evenodd" clip-rule="evenodd" d="M6.32274 3.1632C7.20493 2.29268 8.37224 2 9.5 2C11.9853 2 14 4.01472 14 6.5V11H17V9C17 8.44772 17.4477 8 18 8C18.5523 8 19 8.44772 19 9V11H20C20.5523 11 21 11.4477 21 12C21 14.222 19.7338 15.9969 18.0373 17.1746C17.4175 17.6049 16.729 17.965 16 18.2485V20C16 21.1046 15.1046 22 14 22H10C8.90073 22 8.00859 21.1131 8.00006 20.0159L7.9514 18.2294C7.24036 17.9489 6.56873 17.5953 5.96271 17.1746C4.26619 15.9969 3 14.222 3 12C3 11.7348 3.10536 11.4804 3.29289 11.2929C3.48043 11.1054 3.73478 11 4 11H12V6.5C12 5.11929 10.8807 4 9.5 4C8.69476 4 8.11207 4.20732 7.72751 4.5868C7.34633 4.96294 7 5.66607 7 7C7 7.55228 6.55228 8 6 8C5.44772 8 5 7.55228 5 7C5 5.33393 5.43718 4.03706 6.32274 3.1632ZM5.14013 13C5.41968 13.9756 6.10665 14.8399 7.10324 15.5317C8.43395 16.4555 10.2316 17 12 17C13.7684 17 15.566 16.4555 16.8968 15.5317C17.8933 14.8399 18.5803 13.9756 18.8599 13H5.14013ZM9.96792 18.8089L9.99963 19.9728C9.99988 19.9818 10 19.9909 10 20H14V18.8149C13.3391 18.937 12.6667 19 12 19C11.3225 19 10.6392 18.9349 9.96792 18.8089Z" fill="#343A3D"/>
</svg>
