<svg width="24" height="24" viewBox="0 0 24 24" fill="none" xmlns="http://www.w3.org/2000/svg">
<path d="M1 5C1 3.34315 2.34315 2 4 2H20C21.6569 2 23 3.34315 23 5V7C23 7.55228 22.5523 8 22 8H2C1.44772 8 1 7.55228 1 7V5ZM4 4C3.44772 4 3 4.44772 3 5V6H21V5C21 4.44772 20.5523 4 20 4H4Z" fill="#343A3D"/>
<path d="M13 12C13 10.3431 14.3431 9 16 9H20C21.6569 9 23 10.3431 23 12V14C23 14.5523 22.5523 15 22 15H19V21C19 21.5523 18.5523 22 18 22C17.4477 22 17 21.5523 17 21V15H14C13.4477 15 13 14.5523 13 14V12ZM16 11C15.4477 11 15 11.4477 15 12V13H21V12C21 11.4477 20.5523 11 20 11H16Z" fill="#343A3D"/>
<path d="M4 9C2.34315 9 1 10.3431 1 12V14C1 14.5523 1.44772 15 2 15H5L5 21C5 21.5523 5.44772 22 6 22C6.55229 22 7 21.5523 7 21L7 15H10C10.5523 15 11 14.5523 11 14V12C11 10.3431 9.65685 9 8 9H4ZM3 12C3 11.4477 3.44772 11 4 11H8C8.55228 11 9 11.4477 9 12V13H3V12Z" fill="#343A3D"/>
</svg>
