<svg width="24" height="24" viewBox="0 0 24 24" fill="none" xmlns="http://www.w3.org/2000/svg">
<path fill-rule="evenodd" clip-rule="evenodd" d="M1 4C1 2.34315 2.34315 1 4 1H20C21.6569 1 23 2.34315 23 4V20C23 21.6569 21.6569 23 20 23H4C2.34315 23 1 21.6569 1 20V4ZM4 3C3.44772 3 3 3.44772 3 4V20C3 20.5523 3.44772 21 4 21H20C20.5523 21 21 20.5523 21 20V4C21 3.44772 20.5523 3 20 3H4Z" fill="#343A3D"/>
<path fill-rule="evenodd" clip-rule="evenodd" d="M12.6596 5.05973C13.0554 4.9164 13.4987 5.03638 13.7682 5.35982L15.5 7.43795L17.2318 5.35982C17.5013 5.03638 17.9446 4.9164 18.3404 5.05973C18.7363 5.20305 19 5.57898 19 6V12C19 12.5523 18.5523 13 18 13C17.4477 13 17 12.5523 17 12V8.76205L16.2682 9.64018C16.0782 9.86818 15.7968 10 15.5 10C15.2032 10 14.9218 9.86818 14.7318 9.64018L14 8.76205V12C14 12.5523 13.5523 13 13 13C12.4477 13 12 12.5523 12 12V6C12 5.57898 12.2637 5.20305 12.6596 5.05973ZM10.7526 5.3415C11.1163 5.75713 11.0741 6.38889 10.6585 6.75258L8.26292 8.84871L10.7071 11.2929C11.0976 11.6834 11.0976 12.3166 10.7071 12.7071C10.3166 13.0976 9.68342 13.0976 9.29289 12.7071L7 10.4142V12C7 12.5523 6.55228 13 6 13C5.44772 13 5 12.5523 5 12V9.50566C4.99998 9.50216 4.99998 9.49865 5 9.49515V6C5 5.44772 5.44772 5 6 5C6.55228 5 7 5.44772 7 6V7.29623L9.3415 5.24742C9.75713 4.88374 10.3889 4.92586 10.7526 5.3415Z" fill="#343A3D"/>
<path d="M7 17.5C7 18.3284 6.32843 19 5.5 19C4.67157 19 4 18.3284 4 17.5C4 16.6716 4.67157 16 5.5 16C6.32843 16 7 16.6716 7 17.5Z" fill="#343A3D"/>
<path fill-rule="evenodd" clip-rule="evenodd" d="M8.5 17.5C8.5 17.2239 8.72386 17 9 17H11C11.2761 17 11.5 17.2239 11.5 17.5C11.5 17.7761 11.2761 18 11 18H9C8.72386 18 8.5 17.7761 8.5 17.5Z" fill="#343A3D"/>
<path fill-rule="evenodd" clip-rule="evenodd" d="M12.5 17.5C12.5 17.2239 12.7239 17 13 17H15C15.2761 17 15.5 17.2239 15.5 17.5C15.5 17.7761 15.2761 18 15 18H13C12.7239 18 12.5 17.7761 12.5 17.5Z" fill="#343A3D"/>
<path fill-rule="evenodd" clip-rule="evenodd" d="M16.5 17.5C16.5 17.2239 16.7239 17 17 17H19C19.2761 17 19.5 17.2239 19.5 17.5C19.5 17.7761 19.2761 18 19 18H17C16.7239 18 16.5 17.7761 16.5 17.5Z" fill="#343A3D"/>
</svg>
