<svg width="24" height="24" viewBox="0 0 24 24" fill="none" xmlns="http://www.w3.org/2000/svg">
<path fill-rule="evenodd" clip-rule="evenodd" d="M1 4C1 2.34315 2.34315 1 4 1H20C21.6569 1 23 2.34315 23 4V20C23 21.6569 21.6569 23 20 23H4C2.34315 23 1 21.6569 1 20V4ZM4 3C3.44772 3 3 3.44772 3 4V20C3 20.5523 3.44772 21 4 21H20C20.5523 21 21 20.5523 21 20V4C21 3.44772 20.5523 3 20 3H4ZM12.6596 8.05973C13.0554 7.9164 13.4987 8.03638 13.7682 8.35982L15.5 10.438L17.2318 8.35982C17.5013 8.03638 17.9446 7.9164 18.3404 8.05973C18.7363 8.20305 19 8.57898 19 9V15C19 15.5523 18.5523 16 18 16C17.4477 16 17 15.5523 17 15V11.762L16.2682 12.6402C16.0782 12.8682 15.7968 13 15.5 13C15.2032 13 14.9218 12.8682 14.7318 12.6402L14 11.762V15C14 15.5523 13.5523 16 13 16C12.4477 16 12 15.5523 12 15V9C12 8.57898 12.2637 8.20305 12.6596 8.05973ZM10.7526 8.3415C11.1163 8.75713 11.0741 9.3889 10.6585 9.75258L8.26299 11.8487L10.7072 14.2929C11.0978 14.6834 11.0978 15.3166 10.7072 15.7071C10.3167 16.0976 9.68354 16.0976 9.29302 15.7071L7 13.4141V15C7 15.5523 6.55228 16 6 16C5.44772 16 5 15.5523 5 15V12.5057C4.99998 12.5022 4.99998 12.4987 5 12.4951V9C5 8.44772 5.44772 8 6 8C6.55228 8 7 8.44772 7 9V10.2962L9.3415 8.24742C9.75713 7.88374 10.3889 7.92586 10.7526 8.3415Z" fill="#343A3D"/>
</svg>
