<svg width="24" height="24" viewBox="0 0 24 24" fill="none" xmlns="http://www.w3.org/2000/svg">
<path fill-rule="evenodd" clip-rule="evenodd" d="M2.97306 5C2.97306 3.34315 4.32022 2 5.98204 2H18.018C19.6798 2 21.0269 3.34315 21.0269 5V12C21.0269 12.8572 20.6664 13.6304 20.0882 14.1771C20.2375 14.3717 20.3642 14.5864 20.4639 14.8182L21.7535 17.8182C22.6044 19.7978 21.148 22 18.9878 22H5.01222C2.85203 22 1.39559 19.7978 2.24653 17.8182L3.53609 14.8182C3.63576 14.5864 3.76255 14.3717 3.91182 14.1771C3.33364 13.6304 2.97306 12.8572 2.97306 12V5ZM18.018 13C18.5719 13 19.021 12.5523 19.021 12V5C19.021 4.44772 18.5719 4 18.018 4H5.98204C5.4281 4 4.97904 4.44772 4.97904 5V12C4.97904 12.5523 5.4281 13 5.98204 13H18.018ZM6.30178 15C5.90056 15 5.53794 15.2384 5.37989 15.6061L4.09033 18.6061C3.80668 19.2659 4.29216 20 5.01222 20H18.9878C19.7078 20 20.1933 19.2659 19.9097 18.6061L18.6201 15.6061C18.4621 15.2384 18.0994 15 17.6982 15H6.30178ZM8.99102 17C8.99102 16.4477 9.44007 16 9.99401 16H14.006C14.5599 16 15.009 16.4477 15.009 17C15.009 17.5523 14.5599 18 14.006 18H9.99401C9.44007 18 8.99102 17.5523 8.99102 17Z" fill="#343A3D"/>
</svg>
