<svg width="24" height="24" viewBox="0 0 24 24" fill="none" xmlns="http://www.w3.org/2000/svg">
<path d="M4 6C2.34315 6 1 7.34315 1 9V15C1 16.6569 2.34315 18 4 18H12C13.1046 18 14 17.1046 14 16V13H15V16C15 17.1046 15.8954 18 17 18H20C21.6569 18 23 16.6569 23 15V9C23 7.34315 21.6569 6 20 6H17C15.8954 6 15 6.89543 15 8V11H14V8C14 6.89543 13.1046 6 12 6H4ZM12 11H5C4.44772 11 4 11.4477 4 12C4 12.5523 4.44772 13 5 13H7V14C7 14.5523 7.44772 15 8 15C8.55228 15 9 14.5523 9 14V13H12V16H4C3.44772 16 3 15.5523 3 15V9C3 8.44772 3.44772 8 4 8H12V11ZM17 16V13H19C19.5523 13 20 12.5523 20 12C20 11.4477 19.5523 11 19 11H17V8L20 8C20.5523 8 21 8.44772 21 9V15C21 15.5523 20.5523 16 20 16H17Z" fill="#343A3D"/>
</svg>
