<svg width="25" height="24" viewBox="0 0 25 24" fill="none" xmlns="http://www.w3.org/2000/svg">
<path d="M12.8342 5.01405C12.2897 4.92152 11.7733 5.28789 11.6808 5.83237C11.5883 6.37685 11.9546 6.89325 12.4991 6.98578C13.2922 7.12056 14.0243 7.49886 14.5944 8.06893C15.1645 8.63902 15.5444 9.3728 15.6811 10.1691C15.7746 10.7135 16.2916 11.079 16.8359 10.9855C17.3802 10.892 17.7457 10.375 17.6522 9.83069C17.4456 8.62734 16.8715 7.51758 16.0086 6.65471C15.1457 5.79182 14.0366 5.2184 12.8342 5.01405Z" fill="#343A3D"/>
<path fill-rule="evenodd" clip-rule="evenodd" d="M7.13344 16.6104C6.06211 15.8052 5.1914 14.773 4.58971 13.59C3.98741 12.4058 3.6712 11.1028 3.66672 9.78012C3.64475 5.0157 7.59803 1.11081 12.454 1.00242C14.3352 0.959478 16.1864 1.4893 17.744 2.52113C19.3022 3.55337 20.4904 5.03741 21.1335 6.76729C21.7767 8.49768 21.8397 10.3813 21.3128 12.149C20.7862 13.9162 19.6986 15.4722 18.2112 16.6001L18.2052 16.6046C18.0343 16.7322 17.8988 16.8935 17.8066 17.0744C17.7147 17.2549 17.6675 17.4513 17.667 17.6491V18.2274C17.667 18.7089 17.4685 19.1635 17.1273 19.493C16.7873 19.8214 16.3333 20 15.8669 20H9.46681C9.00044 20 8.54645 19.8214 8.20642 19.493C7.86521 19.1635 7.66679 18.709 7.66679 18.2274V17.6519C7.66493 17.4551 7.61752 17.2598 7.52642 17.0801C7.43516 16.9 7.30171 16.7389 7.13344 16.6104ZM16.6395 4.18847C15.4262 3.38473 13.9777 2.96806 12.4998 3.00189C8.67629 3.08698 5.64944 6.15419 5.6667 9.77196L5.66671 9.77334C5.67012 10.7809 5.91087 11.776 6.37238 12.6834C6.83398 13.5909 7.50503 14.3883 8.33725 15.0133L8.34227 15.017C8.74831 15.326 9.08003 15.7214 9.31038 16.1759C9.5408 16.6306 9.66316 17.1313 9.66677 17.6408L9.66682 17.6479L9.66679 18H15.667L15.667 17.6459C15.668 17.1313 15.7909 16.625 16.0247 16.1663C16.2577 15.7091 16.594 15.3124 17.0053 15.0045C18.1596 14.1283 18.9937 12.9282 19.3962 11.5777C19.7988 10.2267 19.751 8.7882 19.2588 7.46414C18.7664 6.13958 17.8523 4.99193 16.6395 4.18847Z" fill="#343A3D"/>
<path d="M7.66663 21.998C7.66663 21.4458 8.11434 20.998 8.66663 20.998H16.6666C17.2189 20.998 17.6666 21.4458 17.6666 21.998C17.6666 22.5503 17.2189 22.998 16.6666 22.998H8.66663C8.11434 22.998 7.66663 22.5503 7.66663 21.998Z" fill="#343A3D"/>
</svg>
