<svg width="25" height="24" viewBox="0 0 25 24" fill="none" xmlns="http://www.w3.org/2000/svg">
<path d="M4.16663 6.5C4.99505 6.5 5.66663 5.82843 5.66663 5C5.66663 4.17157 4.99505 3.5 4.16663 3.5C3.3382 3.5 2.66663 4.17157 2.66663 5C2.66663 5.82843 3.3382 6.5 4.16663 6.5Z" fill="#343A3D"/>
<path d="M8.51865 4C8.04796 4 7.66638 4.44772 7.66638 5C7.66638 5.55228 8.04796 6 8.51865 6H21.8141C22.2848 6 22.6664 5.55228 22.6664 5C22.6664 4.44772 22.2848 4 21.8141 4H8.51865Z" fill="#343A3D"/>
<path d="M8.51865 11C8.04796 11 7.66638 11.4477 7.66638 12C7.66638 12.5523 8.04796 13 8.51865 13H21.8141C22.2848 13 22.6664 12.5523 22.6664 12C22.6664 11.4477 22.2848 11 21.8141 11H8.51865Z" fill="#343A3D"/>
<path d="M7.66638 19C7.66638 18.4477 8.04796 18 8.51865 18H21.8141C22.2848 18 22.6664 18.4477 22.6664 19C22.6664 19.5523 22.2848 20 21.8141 20H8.51865C8.04796 20 7.66638 19.5523 7.66638 19Z" fill="#343A3D"/>
<path d="M5.66663 12C5.66663 12.8284 4.99505 13.5 4.16663 13.5C3.3382 13.5 2.66663 12.8284 2.66663 12C2.66663 11.1716 3.3382 10.5 4.16663 10.5C4.99505 10.5 5.66663 11.1716 5.66663 12Z" fill="#343A3D"/>
<path d="M4.16663 20.5C4.99505 20.5 5.66663 19.8284 5.66663 19C5.66663 18.1716 4.99505 17.5 4.16663 17.5C3.3382 17.5 2.66663 18.1716 2.66663 19C2.66663 19.8284 3.3382 20.5 4.16663 20.5Z" fill="#343A3D"/>
</svg>
