<svg width="24" height="24" viewBox="0 0 24 24" fill="none" xmlns="http://www.w3.org/2000/svg">
<path d="M16.8509 1C19.6946 1 22 3.30536 22 6.14915V14.7639C22.6137 15.3132 23 16.1115 23 17V21.2222C23 22.2041 22.2041 23 21.2222 23H2.77778C1.79594 23 1 22.204 1 21.2222V17C1 16.1115 1.38625 15.3132 2 14.7639V13C2 11.3431 3.34315 10 5 10H19C19.3506 10 19.6872 10.0602 20 10.1707V6.14915C20 4.54848 18.8058 3.22673 17.2597 3.0263C17.7276 3.73609 18 4.58624 18 5.5V5.84C18 6.48065 17.4807 7 16.84 7H10.16C9.51935 7 9 6.48065 9 5.84V5.5C9 3.01472 11.0147 1 13.5 1C13.6145 1 13.728 1.00428 13.8403 1.01268C13.8923 1.00433 13.9457 1 14 1H16.8509ZM19 12H5C4.44772 12 4 12.4477 4 13V14C5.65685 14 7 15.3431 7 17V17.5L17 17.5V17C17 15.3432 18.3431 14 20 14V13C20 12.4477 19.5523 12 19 12ZM19 17V18C19 18.8284 18.3284 19.5 17.5 19.5L6.49999 19.5C5.67157 19.5 5 18.8284 5 18V17C5 16.4477 4.55228 16 3.99999 16C3.44771 16 3 16.4477 3 17V21H21V17C21 16.4477 20.5523 16 20 16C19.4477 16 19 16.4477 19 17ZM13.5 3C12.2905 3 11.2816 3.85888 11.05 5H15.95C15.7184 3.85888 14.7095 3 13.5 3Z" fill="#343A3D"/>
</svg>
