<svg width="24" height="24" viewBox="0 0 24 24" fill="none" xmlns="http://www.w3.org/2000/svg">
<path d="M13.5 8.75C13.5 9.16421 13.1642 9.5 12.75 9.5H11.25C10.8358 9.5 10.5 9.16421 10.5 8.75C10.5 8.33579 10.8358 8 11.25 8H12.75C13.1642 8 13.5 8.33579 13.5 8.75Z" fill="#343A3D"/>
<path d="M12.75 14.5C13.1642 14.5 13.5 14.1642 13.5 13.75C13.5 13.3358 13.1642 13 12.75 13H11.25C10.8358 13 10.5 13.3358 10.5 13.75C10.5 14.1642 10.8358 14.5 11.25 14.5H12.75Z" fill="#343A3D"/>
<path d="M19.5 8.75C19.5 9.16421 19.1642 9.5 18.75 9.5H17.25C16.8358 9.5 16.5 9.16421 16.5 8.75C16.5 8.33579 16.8358 8 17.25 8H18.75C19.1642 8 19.5 8.33579 19.5 8.75Z" fill="#343A3D"/>
<path d="M18.75 14.5C19.1642 14.5 19.5 14.1642 19.5 13.75C19.5 13.3358 19.1642 13 18.75 13H17.25C16.8358 13 16.5 13.3358 16.5 13.75C16.5 14.1642 16.8358 14.5 17.25 14.5H18.75Z" fill="#343A3D"/>
<path d="M7.5 8.75C7.5 9.16421 7.16421 9.5 6.75 9.5H5.25C4.83579 9.5 4.5 9.16421 4.5 8.75C4.5 8.33579 4.83579 8 5.25 8H6.75C7.16421 8 7.5 8.33579 7.5 8.75Z" fill="#343A3D"/>
<path d="M6.75 14.5C7.16421 14.5 7.5 14.1642 7.5 13.75C7.5 13.3358 7.16421 13 6.75 13H5.25C4.83579 13 4.5 13.3358 4.5 13.75C4.5 14.1642 4.83579 14.5 5.25 14.5H6.75Z" fill="#343A3D"/>
<path d="M2 4C2 2.89543 2.89543 2 4 2H20C21.1046 2 22 2.89543 22 4V18C22 18.7532 21.5837 19.4091 20.9686 19.7502C20.9891 19.8301 21 19.9138 21 20V21C21 21.5523 20.5523 22 20 22C19.4477 22 19 21.5523 19 21V20H5L5 21C5 21.5523 4.55228 22 4 22C3.44772 22 3 21.5523 3 21L3 20C3 19.9138 3.01092 19.8301 3.03144 19.7502C2.41634 19.4091 2 18.7532 2 18V4ZM14 18V4H10V18H14ZM16 18H20V4H16V18ZM4 4V18H8V4H4Z" fill="#343A3D"/>
</svg>
