<svg width="25" height="24" viewBox="0 0 25 24" fill="none" xmlns="http://www.w3.org/2000/svg">
<path d="M9.66666 15C9.66666 13.3431 11.0098 12 12.6667 12C14.3235 12 15.6667 13.3431 15.6667 15C15.6667 16.6569 14.3235 18 12.6667 18C11.0098 18 9.66666 16.6569 9.66666 15ZM12.6667 14C12.1144 14 11.6667 14.4477 11.6667 15C11.6667 15.5523 12.1144 16 12.6667 16C13.2189 16 13.6667 15.5523 13.6667 15C13.6667 14.4477 13.2189 14 12.6667 14Z" fill="#343A3D"/>
<path d="M11.6667 2C8.90523 2 6.66666 4.23858 6.66666 7V8C5.0098 8 3.66666 9.34315 3.66666 11V19C3.66666 20.6569 5.0098 22 6.66666 22H18.6667C20.3235 22 21.6667 20.6569 21.6667 19V11C21.6667 9.34315 20.3235 8 18.6667 8V7C18.6667 4.23858 16.4281 2 13.6667 2H11.6667ZM16.6667 8H8.66666V7C8.66666 5.34315 10.0098 4 11.6667 4H13.6667C15.3235 4 16.6667 5.34315 16.6667 7V8ZM6.66666 10H18.6667C19.2189 10 19.6667 10.4477 19.6667 11V19C19.6667 19.5523 19.2189 20 18.6667 20H6.66666C6.11437 20 5.66666 19.5523 5.66666 19V11C5.66666 10.4477 6.11437 10 6.66666 10Z" fill="#343A3D"/>
</svg>
