<svg width="24" height="24" viewBox="0 0 24 24" fill="none" xmlns="http://www.w3.org/2000/svg">
<path d="M2.89552 1C2.85077 1 2.80638 1.00155 2.76241 1.0046C2.6579 1.00154 2.55301 1 2.44776 1C1.64818 1 1 1.64819 1 2.44776V21.5522C1 22.3518 1.64819 23 2.44776 23C2.55301 23 2.6579 22.9985 2.76241 22.9954C2.80638 22.9984 2.85077 23 2.89552 23H12C18.0751 23 23 18.0751 23 12C23 5.92487 18.0751 1 12 1H2.89552ZM8.63041 21C11.2778 19.0828 13 15.9664 13 12.4478V11.5522C13 8.03362 11.2778 4.91723 8.63041 3H12C16.9706 3 21 7.02944 21 12C21 16.9706 16.9706 21 12 21H8.63041ZM3 3.01754C7.46591 3.30216 11 7.01449 11 11.5522V12.4478C11 16.9855 7.46591 20.6978 3 20.9825V3.01754Z" fill="#343A3D"/>
</svg>
