<svg width="24" height="24" viewBox="0 0 24 24" fill="none" xmlns="http://www.w3.org/2000/svg">
<path d="M4.10526 9.41167C5.26797 9.41167 6.21053 10.3966 6.21053 11.6117C6.21053 12.8267 5.26797 13.8117 4.10526 13.8117C2.94256 13.8117 2 12.8267 2 11.6117C2 10.3966 2.94256 9.41167 4.10526 9.41167Z" fill="#343A3D"/>
<path d="M19.8947 9.41167C21.0574 9.41167 22 10.3966 22 11.6117C22 12.8267 21.0574 13.8117 19.8947 13.8117C18.732 13.8117 17.7895 12.8267 17.7895 11.6117C17.7895 10.3966 18.732 9.41167 19.8947 9.41167Z" fill="#343A3D"/>
<path d="M14.6316 1C15.7943 1 16.7368 1.98497 16.7368 3.2C16.7368 4.41503 15.6842 8.11002 15.6842 12C15.6842 15.89 16.7368 19.585 16.7368 20.8C16.7368 22.015 15.7943 23 14.6316 23C13.4689 23 12.5263 22.015 12.5263 20.8C12.5263 19.585 13.5789 15.89 13.5789 12C13.5789 8.11002 12.5263 4.41503 12.5263 3.2C12.5263 1.98497 13.4689 1 14.6316 1Z" fill="#343A3D"/>
<path d="M9.36842 4.3C10.5311 4.3 11.4737 5.28497 11.4737 6.5C11.4737 7.71503 10.4211 9.38699 10.4211 12C10.4211 14.613 11.4737 16.285 11.4737 17.5C11.4737 18.715 10.5311 19.7 9.36842 19.7C8.20572 19.7 7.26316 18.715 7.26316 17.5C7.26316 16.285 8.31579 14.613 8.31579 12C8.31579 9.38699 7.26316 7.71503 7.26316 6.5C7.26316 5.28497 8.20572 4.3 9.36842 4.3Z" fill="#343A3D"/>
</svg>
