<svg width="22" height="22" viewBox="0 0 22 22" fill="none" xmlns="http://www.w3.org/2000/svg">
<path fill-rule="evenodd" clip-rule="evenodd" d="M10.5144 1.12584C10.8164 0.958052 11.1836 0.958052 11.4856 1.12584L20.4856 6.12584C20.8031 6.30221 21 6.63683 21 7C21 7.36317 20.8031 7.69779 20.4856 7.87416L18.5209 8.96569L20.5083 10.1388C20.817 10.3211 21.0046 10.6546 20.9999 11.0131C20.9952 11.3715 20.799 11.7001 20.4856 11.8742L18.6466 12.8959L20.5547 14.168C20.8449 14.3614 21.0133 14.692 20.9992 15.0405C20.9851 15.3889 20.7905 15.7048 20.4856 15.8742L11.4856 20.8742C11.1836 21.042 10.8164 21.042 10.5144 20.8742L1.51436 15.8742C1.19008 15.694 0.992179 15.3492 1.00024 14.9783C1.0083 14.6074 1.22099 14.2715 1.55279 14.1056L3.64655 13.0587L1.51436 11.8742C1.19315 11.6957 0.995682 11.3555 1.00007 10.9881C1.00446 10.6206 1.21 10.2852 1.53538 10.1145L3.59848 9.032L1.51436 7.87416C1.19689 7.69779 1 7.36317 1 7C1 6.63683 1.19689 6.30221 1.51436 6.12584L10.5144 1.12584ZM5.76493 14.2356L4.14294 15.0466L11 18.8561L18.0807 14.9223L16.6799 13.9885L11.4856 16.8742C11.1836 17.0419 10.8164 17.0419 10.5144 16.8742L5.76493 14.2356ZM4.05913 7L11 10.856L17.9409 7L11 3.14396L4.05913 7Z" fill="#343A3D"/>
</svg>
