<svg width="24" height="24" viewBox="0 0 24 24" fill="none" xmlns="http://www.w3.org/2000/svg">
<path d="M14.6422 1.03313C15.8699 0.807897 17 1.75959 17 3.01871V5.8459H18C19.1046 5.8459 20 6.74944 20 7.86403V20.9819C20 22.0965 19.1046 23 18 23H6C4.89543 23 4 22.0965 4 20.9819V5.51205C4 4.04905 5.03687 2.79539 6.46334 2.53368L14.6422 1.03313ZM15 5.8459L15 3.01871L6.82111 4.51926C6.34562 4.6065 6 5.02438 6 5.51205V5.8459H15ZM6 7.86414L6 20.9819H18V7.86403H15.0216C15.0144 7.8641 15.0072 7.86414 15 7.86414H6Z" fill="#343A3D"/>
<path d="M7.75 11.0158C7.75 10.312 8.3154 9.74149 9.01286 9.74149H11.278C13.8402 9.74149 15.9172 11.8374 15.9172 14.4228C15.9172 17.0081 13.8402 19.104 11.278 19.104H9.01286C8.3154 19.104 7.75 18.5335 7.75 17.8297V11.0158ZM10.9251 11.2551C11.6542 11.9015 12.291 12.9069 12.291 14.4229C12.291 15.9387 11.6545 16.944 10.9256 17.5904H11.278C13.0117 17.5904 14.4172 16.1722 14.4172 14.4228C14.4172 12.6733 13.0117 11.2551 11.278 11.2551H10.9251ZM9.32084 11.97C9.30749 11.9897 9.29102 12.0259 9.29102 12.0824V16.7635C9.29102 16.82 9.30749 16.8562 9.32084 16.8759C10.0163 16.5087 10.791 15.8162 10.791 14.4229C10.791 13.0297 10.0163 12.3372 9.32084 11.97Z" fill="#343A3D"/>
</svg>
