<svg width="24" height="24" viewBox="0 0 24 24" fill="none" xmlns="http://www.w3.org/2000/svg">
<path fill-rule="evenodd" clip-rule="evenodd" d="M12.5 2.87738C12.5 1.98336 11.7229 1.28782 10.8344 1.38655L3.9425 2.15231C2.84768 2.27396 2.01674 3.19133 2.00025 4.28931L2 4.3226V16.2893C2 17.1177 2.67157 17.7893 3.5 17.7893H6.75C7.16421 17.7893 7.5 17.4535 7.5 17.0393C7.5 16.6251 7.16421 16.2893 6.75 16.2893H3.5V5.78943H11L11.0191 5.78931H13V8.03935C13 8.45357 13.3358 8.78935 13.75 8.78935C14.1642 8.78935 14.5 8.45357 14.5 8.03935V5.78931C14.5 4.96088 13.8284 4.28931 13 4.28931H12.5V2.87738ZM11 4.28931V2.87738L4.10815 3.64314C3.77302 3.68037 3.51687 3.95576 3.5008 4.28931H11Z" fill="#343A3D"/>
<path d="M13.8468 14.5381C13.634 14.6656 13.5834 14.7889 13.5834 14.8944C13.5834 14.9699 13.5988 15.0511 13.8238 15.1724C14.0757 15.3082 14.4352 15.4039 14.8944 15.5211L14.9332 15.531C15.3418 15.6352 15.838 15.7618 16.2298 15.9729C16.6608 16.205 17.0834 16.6077 17.0834 17.277C17.0834 17.9212 16.6904 18.3667 16.2409 18.6215C15.9677 18.7764 15.6537 18.8761 15.3328 18.9293C15.3332 18.9381 15.3334 18.947 15.3334 18.9559V19.2476C15.3334 19.5697 15.0722 19.8309 14.7501 19.8309C14.4279 19.8309 14.1667 19.5697 14.1667 19.2476V18.9559C14.1667 18.947 14.167 18.9383 14.1673 18.9295C13.8466 18.8765 13.5327 18.777 13.2596 18.6224C12.8101 18.368 12.4167 17.9228 12.4167 17.2787C12.4167 16.9565 12.6779 16.6954 13.0001 16.6954C13.3222 16.6954 13.5834 16.9565 13.5834 17.2787C13.5834 17.3778 13.6275 17.4901 13.8344 17.6072C14.052 17.7304 14.3833 17.81 14.7499 17.8099C15.1165 17.8099 15.4479 17.73 15.6655 17.6066C15.8723 17.4894 15.9167 17.3769 15.9167 17.277C15.9167 17.2022 15.9019 17.1214 15.6766 17C15.4247 16.8643 15.0651 16.7688 14.6058 16.6515L14.568 16.6419C14.1591 16.5376 13.6624 16.4109 13.2701 16.1993C12.8389 15.9668 12.4167 15.5637 12.4167 14.8944C12.4167 14.255 12.8037 13.803 13.2471 13.5373C13.5238 13.3715 13.8438 13.2616 14.172 13.201C14.1685 13.1753 14.1667 13.1491 14.1667 13.1226V12.8309C14.1667 12.5087 14.4279 12.2476 14.7501 12.2476C15.0722 12.2476 15.3334 12.5087 15.3334 12.8309V13.1226C15.3334 13.1431 15.3323 13.1634 15.3303 13.1834C15.6538 13.2341 15.9715 13.3347 16.2483 13.4971C16.7134 13.7699 17.0834 14.2376 17.0834 14.8944C17.0834 15.2165 16.8222 15.4777 16.5001 15.4777C16.1779 15.4777 15.9167 15.2165 15.9167 14.8944C15.9167 14.7397 15.8493 14.6156 15.6581 14.5034C15.4477 14.38 15.1244 14.3035 14.7612 14.3104C14.3991 14.3173 14.0674 14.4059 13.8468 14.5381Z" fill="#343A3D"/>
<path fill-rule="evenodd" clip-rule="evenodd" d="M5.1875 8.42392C5.1875 7.90085 5.61154 7.47681 6.13462 7.47681H7.75C9.51796 7.47681 10.9851 8.76466 11.2646 10.4534C12.2754 9.82137 13.4701 9.45605 14.7501 9.45605C18.386 9.45605 21.3334 12.4035 21.3334 16.0394C21.3334 19.6753 18.386 22.6227 14.7501 22.6227C11.1142 22.6227 8.16675 19.6753 8.16675 16.0394C8.16675 15.5286 8.22492 15.0314 8.33501 14.554C8.14467 14.5854 7.94925 14.6018 7.75 14.6018H6.13462C5.61154 14.6018 5.1875 14.1778 5.1875 13.6547V8.42392ZM10.1729 11.3076C9.60108 11.8609 9.12925 12.5168 8.78715 13.2458C8.47387 13.3933 8.12409 13.4761 7.75505 13.4768C8.31828 12.9305 8.8125 12.1375 8.8125 11.0394C8.8125 9.94114 8.31816 9.14807 7.75484 8.60181C9.09881 8.60443 10.1875 9.69473 10.1875 11.0393C10.1875 11.13 10.1825 11.2195 10.1729 11.3076ZM10.378 13.4445C9.92622 14.2041 9.66675 15.0915 9.66675 16.0394C9.66675 18.8468 11.9426 21.1227 14.7501 21.1227C17.5575 21.1227 19.8334 18.8468 19.8334 16.0394C19.8334 13.2319 17.5575 10.9561 14.7501 10.9561C13.1991 10.9561 11.8104 11.6507 10.878 12.7457C10.7396 12.9989 10.5714 13.2334 10.378 13.4445ZM6.3125 9.04743V13.0314C6.3125 13.1001 6.34342 13.1317 6.35477 13.1395C6.35771 13.1382 6.36193 13.1362 6.36752 13.1328C7.01101 12.7397 7.6875 12.0832 7.6875 11.0394C7.6875 9.99563 7.01101 9.33908 6.36752 8.94605C6.36193 8.94263 6.35771 8.94058 6.35477 8.93936C6.34342 8.94713 6.3125 8.97871 6.3125 9.04743Z" fill="#343A3D"/>
</svg>
