<svg width="24" height="24" viewBox="0 0 24 24" fill="none" xmlns="http://www.w3.org/2000/svg">
<path fill-rule="evenodd" clip-rule="evenodd" d="M14.6422 1.03313C15.8699 0.807897 17 1.75959 17 3.01871V5.84601C13 5.84601 7.5 5.84578 4 5.84601V5.51205C4 4.04905 5.03687 2.79539 6.46334 2.53368L14.6422 1.03313ZM15 3.01871L6.82111 4.51926C6.34562 4.6065 6 5.02438 6 5.51205V5.84601L15 5.84601L15 3.01871Z" fill="#343A3D"/>
<path fill-rule="evenodd" clip-rule="evenodd" d="M10.076 17.5904H11.778C13.5117 17.5904 14.9172 16.1722 14.9172 14.4228C14.9172 12.6733 13.5117 11.2551 11.778 11.2551H10.075C10.0997 11.265 10.1244 11.2764 10.1491 11.2893C11.0038 11.7352 12.041 12.643 12.041 14.4229C12.041 16.2029 11.0038 17.1107 10.1491 17.5566C10.1247 17.5693 10.1003 17.5806 10.076 17.5904Z" fill="#343A3D"/>
<path fill-rule="evenodd" clip-rule="evenodd" d="M20 7.86403C20 6.74944 19.1046 5.8459 18 5.8459L4 5.84601V20.9819C4 22.0965 4.89543 23 6 23H18C19.1046 23 20 22.0965 20 20.9819V7.86403ZM9.51286 9.74149H11.778C14.3402 9.74149 16.4172 11.8374 16.4172 14.4228C16.4172 17.0081 14.3402 19.104 11.778 19.104H9.51286C8.8154 19.104 8.25 18.5335 8.25 17.8297V11.0158C8.25 10.312 8.8154 9.74149 9.51286 9.74149Z" fill="#343A3D"/>
</svg>
