<svg width="24" height="24" viewBox="0 0 24 24" fill="none" xmlns="http://www.w3.org/2000/svg">
<path d="M20.5158 11.2494C20.6694 11.578 20.755 11.9396 20.755 12.322C20.755 13.8018 19.4731 15 17.89 15C16.3068 15 15.0249 13.8018 15.0249 12.322C15.0249 11.8416 15.1608 11.3902 15.3986 11.001C14.6084 10.9029 14 10.2721 14 9.50736C14 8.67498 14.7222 7.99997 15.6127 7.99997C16.5032 7.99997 17.2254 8.67498 17.2254 9.50736C17.2254 9.58052 17.2195 9.6523 17.2077 9.7227C17.4262 9.67163 17.6552 9.6454 17.89 9.6454C18.1986 9.6454 18.4969 9.69096 18.7746 9.77654V9.74755C18.7746 8.91517 19.4968 8.24016 20.3873 8.24016C21.2778 8.24016 22 8.91517 22 9.74755C22 10.5799 21.3472 11.1887 20.5158 11.2494Z" fill="#343A3D"/>
<path d="M7.89669 4.00012C8.38162 4.00015 8.8784 4.37158 9.34081 5.05709C9.55243 5.37083 9.71542 5.69159 9.82612 5.93778C9.82961 5.94554 9.83273 5.95387 9.8361 5.96145C9.71931 6.20549 9.5574 6.54228 9.3769 6.91339C9.02764 7.63149 8.61782 8.45938 8.32993 8.99678H4.03445C4.30146 7.92863 4.81157 6.64844 5.51329 5.64094C6.26815 4.55714 7.08662 4.00016 7.89669 4.00012ZM11.875 5.67557L11.8742 5.67336L11.8729 5.66945L11.869 5.65836L11.8567 5.62359C11.8464 5.59501 11.832 5.55576 11.8133 5.50737C11.7761 5.41074 11.7218 5.2767 11.6502 5.11753C11.515 4.81686 11.3125 4.41388 11.0398 4.00001L14.2018 4C14.9656 4.00002 15.473 4.19734 15.8234 4.44312C16.1826 4.69508 16.4391 5.04229 16.622 5.4273C16.8063 5.81503 16.9035 6.21558 16.953 6.52813C16.9773 6.68195 16.9892 6.80808 16.9949 6.89207C16.9977 6.93389 16.999 6.96477 16.9996 6.98282L17 6.9999C17.0024 7.55014 17.4492 7.99603 18 7.99603C18.5523 7.99603 19 7.54832 19 6.99603L19 6.99156L19 6.98559L18.9998 6.96924C18.9996 6.95641 18.9992 6.93974 18.9986 6.91949C18.9973 6.87901 18.9949 6.82403 18.9903 6.75659C18.9811 6.62205 18.9633 6.43601 18.9283 6.2152C18.8592 5.77851 18.7189 5.18008 18.4284 4.56882C18.1366 3.95484 17.6809 3.30304 16.9719 2.80574C16.2541 2.30226 15.3372 2.00004 14.2019 2L7.89693 2.00012C6.10797 2.00022 4.76594 3.21458 3.87212 4.49788C2.95958 5.80808 2.34751 7.41398 2.0488 8.69976C1.74686 9.99942 2.81728 10.9968 3.9429 10.9968H8.37242C9.03343 10.9968 9.70218 10.6634 10.0532 10.015C10.2171 9.71217 10.4182 9.31923 10.6247 8.90638C10.7992 9.84348 10.9379 10.9271 10.9379 11.9975C10.9379 13.0937 10.7925 14.2037 10.612 15.156L10.0787 14.1001C9.73635 13.4221 9.0411 12.9979 8.28362 12.9979H3.98357C2.8238 12.9979 1.7536 14.0495 2.1097 15.3621C2.43175 16.5493 3.04131 18.1352 3.93415 19.4492C4.79983 20.7233 6.115 22 7.8966 22H14.2019C15.3374 22 16.2545 21.6973 16.9724 21.1931C17.6814 20.6952 18.137 20.0427 18.4286 19.4282C18.719 18.8164 18.8592 18.2174 18.9284 17.7803C18.9633 17.5593 18.9812 17.3731 18.9903 17.2385C18.9949 17.171 18.9973 17.116 18.9986 17.0755C18.9992 17.0552 18.9996 17.0385 18.9998 17.0257L19 17.0093L19 17.0034L19 16.9999C19 16.9999 19 16.9989 18 16.9989L19 16.9999C19 16.4476 18.5523 15.9989 18 15.9989C17.4492 15.9989 17.0024 16.4442 17 16.9945L16.9996 17.0122C16.999 17.0303 16.9977 17.0613 16.9949 17.1032C16.9892 17.1873 16.9773 17.3137 16.9529 17.4678C16.9034 17.7809 16.8062 18.1822 16.6218 18.5706C16.4387 18.9564 16.1822 19.3042 15.8229 19.5564C15.4726 19.8025 14.9654 20 14.2019 20H11.038C11.3118 19.5843 11.5149 19.1794 11.6504 18.8775C11.722 18.7181 11.7763 18.5839 11.8135 18.4872C11.8322 18.4387 11.8466 18.3994 11.8569 18.3708L11.8692 18.336L11.873 18.3249L11.8749 18.3194C11.8765 18.3148 11.8742 18.3214 11.8754 18.3179L11.8768 18.3137L11.8797 18.3049L11.8897 18.2745C11.8982 18.2486 11.9101 18.2115 11.925 18.1641C11.9548 18.0693 11.9966 17.9328 12.0462 17.7606C12.1455 17.4165 12.2771 16.928 12.4085 16.3426C12.6696 15.1794 12.9379 13.5997 12.9379 11.9975C12.9379 10.3952 12.6696 8.81552 12.4085 7.65228C12.2771 7.06687 12.1455 6.57833 12.0463 6.23424C11.9966 6.06204 11.9548 5.92557 11.925 5.83076C11.9101 5.78334 11.8982 5.7463 11.8897 5.72038L11.8797 5.68992L11.8768 5.6811L11.8756 5.67735L11.875 5.67557ZM9.83122 18.0465C9.82945 18.0504 9.82766 18.0544 9.82586 18.0584C9.71511 18.3052 9.55207 18.6266 9.34036 18.941C8.87756 19.6283 8.38075 20 7.89656 20C7.14089 20 6.34792 19.443 5.58841 18.3252C4.89279 17.3014 4.37729 16.0194 4.08442 14.9979H8.28362C8.28755 14.9979 8.29155 14.9999 8.29155 14.9999L8.29349 15.0017L9.83122 18.0465Z" fill="#343A3D"/>
</svg>
