<svg width="24" height="24" viewBox="0 0 24 24" fill="none" xmlns="http://www.w3.org/2000/svg">
<path d="M13.555 5.2957C14.6578 4.0672 15.8618 3.51899 17 3.51899C18.1383 3.51899 19.3422 4.0672 20.445 5.2957C20.7237 5.60607 21.198 5.62895 21.5045 5.34679C21.811 5.06463 21.8336 4.58429 21.555 4.27392C20.2336 2.80199 18.6496 2 17 2C15.3504 2 13.7664 2.80199 12.4451 4.27392C12.1664 4.58429 12.189 5.06463 12.4955 5.34679C12.802 5.62895 13.2763 5.60607 13.555 5.2957Z" fill="#343A3D"/>
<path fill-rule="evenodd" clip-rule="evenodd" d="M8 12.1266C6.48122 12.1266 5.25 13.3734 5.25 14.9114C5.25 16.4494 6.48122 17.6962 8 17.6962C9.16599 17.6962 10.1625 16.9614 10.5625 15.9241H13V17.443C13 18.0023 13.4477 18.4557 14 18.4557C14.5523 18.4557 15 18.0023 15 17.443V15.9241H16V17.443C16 18.0023 16.4477 18.4557 17 18.4557C17.5523 18.4557 18 18.0023 18 17.443V13.8987H10.5625C10.1625 12.8614 9.16599 12.1266 8 12.1266ZM6.75 14.9114C6.75 14.2123 7.30964 13.6456 8 13.6456C8.69036 13.6456 9.25 14.2123 9.25 14.9114C9.25 15.6105 8.69036 16.1772 8 16.1772C7.30964 16.1772 6.75 15.6105 6.75 14.9114Z" fill="#343A3D"/>
<path fill-rule="evenodd" clip-rule="evenodd" d="M5 8.83544C3.34315 8.83544 2 10.1956 2 11.8734V18.962C2 20.6399 3.34315 22 5 22H19C20.6569 22 22 20.6399 22 18.962V11.8734C22 10.1956 20.6569 8.83544 19 8.83544H5ZM4 11.8734C4 11.3141 4.44772 10.8608 5 10.8608H19C19.5523 10.8608 20 11.3141 20 11.8734V18.962C20 19.5213 19.5523 19.9747 19 19.9747H5C4.44772 19.9747 4 19.5213 4 18.962V11.8734Z" fill="#343A3D"/>
<path d="M17 6.55696C16.5587 6.55696 16.0518 6.76763 15.555 7.32102C15.2763 7.63139 14.802 7.65426 14.4955 7.37211C14.189 7.08995 14.1664 6.60961 14.4451 6.29924C15.1604 5.50242 16.0473 5.03797 17 5.03797C17.9527 5.03797 18.8396 5.50242 19.555 6.29924C19.8336 6.60961 19.811 7.08995 19.5045 7.37211C19.198 7.65426 18.7237 7.63139 18.445 7.32102C17.9483 6.76763 17.4413 6.55696 17 6.55696Z" fill="#343A3D"/>
</svg>
