<svg width="24" height="24" viewBox="0 0 24 24" fill="none" xmlns="http://www.w3.org/2000/svg">
<path d="M18.8385 4H5.16146C4.63433 3.99998 4.17954 3.99997 3.80497 4.03057C3.40963 4.06287 3.01641 4.13419 2.63803 4.32698C2.07354 4.6146 1.6146 5.07354 1.32698 5.63803C1.13419 6.01641 1.06287 6.40963 1.03057 6.80497C0.999969 7.17954 0.999984 7.63428 1 8.16142V15.8385C0.999984 16.3657 0.999969 16.8205 1.03057 17.195C1.06287 17.5904 1.13419 17.9836 1.32698 18.362C1.6146 18.9265 2.07354 19.3854 2.63803 19.673C3.01641 19.8658 3.40963 19.9371 3.80497 19.9694C4.17951 20 4.63423 20 5.16131 20H18.8385C19.3656 20 19.8205 20 20.195 19.9694C20.5904 19.9371 20.9836 19.8658 21.362 19.673C21.9265 19.3854 22.3854 18.9265 22.673 18.362C22.8658 17.9836 22.9371 17.5904 22.9694 17.195C23 16.8205 23 16.3657 23 15.8386V8.16144C23 7.6343 23 7.17954 22.9694 6.80497C22.9371 6.40963 22.8658 6.01641 22.673 5.63803C22.3854 5.07354 21.9265 4.6146 21.362 4.32698C20.9836 4.13419 20.5904 4.06287 20.195 4.03057C19.8205 3.99997 19.3657 3.99998 18.8385 4ZM3.54601 6.109C3.59546 6.0838 3.69618 6.04613 3.96784 6.02393C4.25118 6.00078 4.62345 6 5.2 6H18.8C19.3766 6 19.7488 6.00078 20.0322 6.02393C20.3038 6.04613 20.4045 6.0838 20.454 6.109C20.4695 6.11692 20.4848 6.12523 20.4999 6.13391C20.4608 6.15656 20.4228 6.18212 20.3861 6.21063L13.3507 11.6826C12.5751 12.2859 12.408 12.3918 12.2614 12.4315C12.0902 12.4778 11.9099 12.4778 11.7387 12.4315C11.5921 12.3918 11.425 12.2859 10.6494 11.6826L3.61399 6.21063C3.57731 6.18211 3.53927 6.15654 3.50016 6.13389C3.5152 6.12521 3.53048 6.11691 3.54601 6.109ZM3 8.26681L7.70853 11.929L3.02448 17.0389L3.02393 17.0322C3.00078 16.7488 3 16.3766 3 15.8V8.26681ZM5.2 18C5.07665 18 4.96265 18 4.85687 17.9997L9.29241 13.1609L9.4215 13.2613L9.54497 13.3576C10.1222 13.808 10.6283 14.2029 11.216 14.362C11.7295 14.501 12.2706 14.501 12.7841 14.362C13.3718 14.2029 13.8779 13.808 14.4551 13.3575L14.5786 13.2613L14.6527 13.2037L18.2499 18H5.2ZM20.4917 17.8708C20.4703 17.7053 20.4072 17.543 20.2999 17.4L16.2316 11.9756L21 8.26688V15.8C21 16.3766 20.9992 16.7488 20.9761 17.0322C20.9539 17.3038 20.9162 17.4045 20.891 17.454C20.8016 17.6294 20.6626 17.7743 20.4917 17.8708Z" fill="#444444"/>
</svg>
