<svg width="24" height="24" viewBox="0 0 24 24" fill="none" xmlns="http://www.w3.org/2000/svg">
<path d="M7 4C7 5.30622 6.16519 6.41746 5 6.82929V10C5 10.5523 5.44772 11 6 11H11V6.82929C9.83481 6.41746 9 5.30622 9 4C9 2.34315 10.3431 1 12 1C13.6569 1 15 2.34315 15 4C15 5.30622 14.1652 6.41746 13 6.82929V11H18C18.5523 11 19 10.5523 19 10V6.82929C17.8348 6.41746 17 5.30622 17 4C17 2.34315 18.3431 1 20 1C21.6569 1 23 2.34315 23 4C23 5.30622 22.1652 6.41746 21 6.82929V10C21 11.6569 19.6569 13 18 13H13V17.1707C14.1652 17.5825 15 18.6938 15 20C15 21.6569 13.6569 23 12 23C10.3431 23 9 21.6569 9 20C9 18.6938 9.83481 17.5825 11 17.1707V13H6C5.44772 13 5 13.4477 5 14V17.1707C6.16519 17.5825 7 18.6938 7 20C7 21.6569 5.65685 23 4 23C2.34315 23 1 21.6569 1 20C1 18.6938 1.83481 17.5825 3 17.1707V14C3 13.2316 3.28885 12.5308 3.7639 12C3.28885 11.4692 3 10.7684 3 10V6.82929C1.83481 6.41746 1 5.30622 1 4C1 2.34315 2.34315 1 4 1C5.65685 1 7 2.34315 7 4ZM4 3C3.44772 3 3 3.44772 3 4C3 4.55228 3.44772 5 4 5C4.55228 5 5 4.55228 5 4C5 3.44772 4.55228 3 4 3ZM4 19C3.44772 19 3 19.4477 3 20C3 20.5523 3.44772 21 4 21C4.55228 21 5 20.5523 5 20C5 19.4477 4.55228 19 4 19ZM19 4C19 4.55228 19.4477 5 20 5C20.5523 5 21 4.55228 21 4C21 3.44772 20.5523 3 20 3C19.4477 3 19 3.44772 19 4ZM13 4C13 3.44772 12.5523 3 12 3C11.4477 3 11 3.44772 11 4C11 4.55228 11.4477 5 12 5C12.5523 5 13 4.55228 13 4ZM11 20C11 20.5523 11.4477 21 12 21C12.5523 21 13 20.5523 13 20C13 19.4477 12.5523 19 12 19C11.4477 19 11 19.4477 11 20Z" fill="#343A3D"/>
</svg>
