<svg width="24" height="24" viewBox="0 0 24 24" fill="none" xmlns="http://www.w3.org/2000/svg">
<path d="M8.7348 7.32176C8.45552 7.0192 8.01934 6.91876 7.63586 7.06869C7.25238 7.21863 7 7.58829 7 8.00004V16C7 16.5523 7.44772 17 8 17C8.55228 17 9 16.5523 9 16V10.5577L11.2652 13.0117C11.4545 13.2167 11.7209 13.3334 12 13.3334C12.2791 13.3334 12.5455 13.2167 12.7348 13.0117L15 10.5577V16C15 16.5523 15.4477 17 16 17C16.5523 17 17 16.5523 17 16V8.00004C17 7.58829 16.7476 7.21863 16.3641 7.06869C15.9807 6.91876 15.5445 7.0192 15.2652 7.32176L12 10.8591L8.7348 7.32176Z" fill="#343A3D"/>
<path d="M5 2C3.34315 2 2 3.34315 2 5V19C2 20.6569 3.34315 22 5 22H19C20.6569 22 22 20.6569 22 19V5C22 3.34315 20.6569 2 19 2H5ZM4 5C4 4.44772 4.44772 4 5 4H19C19.5523 4 20 4.44772 20 5V19C20 19.5523 19.5523 20 19 20H5C4.44772 20 4 19.5523 4 19V5Z" fill="#343A3D"/>
</svg>
