<svg width="24" height="24" viewBox="0 0 24 24" fill="none" xmlns="http://www.w3.org/2000/svg">
<path d="M3.00015 1C1.89558 1 1.00015 1.89543 1.00015 3V7.48163C0.999949 7.49326 0.99995 7.50487 1.00015 7.51648V17.4816C0.999949 17.4933 0.99995 17.5049 1.00015 17.5165V21C1.00015 22.1046 1.89558 23 3.00015 23H21.0002C22.1047 23 23.0002 22.1046 23.0002 21V17.5117C23.0002 17.5044 23.0002 17.4971 23.0002 17.4898V3C23.0002 1.89543 22.1047 1 21.0002 1H3.00015ZM21.0002 17.1392C20.6568 17.5097 20.1716 17.857 19.6618 17.9649C19.1599 18.071 18.4203 17.9942 17.5273 16.876C16.2853 15.3207 14.905 14.7684 13.5817 15.0841C13.3772 15.1329 13.1832 15.2005 13.0002 15.2827V13H21.0002V17.1392ZM13.0002 17.8022C13.2702 17.4406 13.6537 17.123 14.0457 17.0295C14.3835 16.9489 15.037 16.9626 15.9645 18.124C17.241 19.7225 18.7048 20.2116 20.0757 19.9216C20.4051 19.8519 20.7142 19.7402 21.0002 19.601V21H13.0002V17.8022ZM21.0002 3V7.1392C20.6568 7.50972 20.1716 7.85703 19.6618 7.96487C19.1599 8.07104 18.4203 7.99417 17.5273 6.87598C16.2853 5.32073 14.905 4.76845 13.5817 5.08407C13.3772 5.13285 13.1832 5.20054 13.0002 5.28268V3H21.0002ZM14.0457 7.0295C14.3835 6.94894 15.037 6.96262 15.9645 8.12402C17.241 9.72248 18.7048 10.2116 20.0758 9.92157C20.4051 9.8519 20.7142 9.7402 21.0002 9.60099V11H13.0002V7.80223C13.2702 7.44064 13.6537 7.123 14.0457 7.0295ZM3.00015 17.8022C3.27021 17.4406 3.65369 17.123 4.04572 17.0295C4.38345 16.9489 5.03702 16.9626 5.96451 18.124C7.24102 19.7225 8.70481 20.2116 10.0758 19.9216C10.4051 19.8519 10.7142 19.7402 11.0002 19.601V21H3.00015V17.8022ZM11.0002 17.1392C10.6568 17.5097 10.1716 17.857 9.66184 17.9649C9.1599 18.071 8.4203 17.9942 7.52732 16.876C6.28531 15.3207 4.90499 14.7684 3.5817 15.0841C3.37716 15.1329 3.18321 15.2005 3.00015 15.2827V13H11.0002V17.1392ZM3.00015 11V7.80223C3.27021 7.44064 3.65369 7.123 4.04572 7.0295C4.38345 6.94894 5.03702 6.96262 5.96451 8.12402C7.24102 9.72248 8.70481 10.2116 10.0758 9.92157C10.4051 9.8519 10.7142 9.7402 11.0002 9.60099V11H3.00015ZM9.66184 7.96487C9.1599 8.07104 8.4203 7.99417 7.52732 6.87598C6.28531 5.32073 4.90499 4.76845 3.5817 5.08407C3.37716 5.13285 3.18321 5.20054 3.00015 5.28268V3L11.0002 3V7.1392C10.6568 7.50972 10.1716 7.85703 9.66184 7.96487Z" fill="#343A3D"/>
</svg>
