<svg width="24" height="24" viewBox="0 0 24 24" fill="none" xmlns="http://www.w3.org/2000/svg">
<path d="M9 10.594C9 10.0482 9.44771 9.60576 10 9.60576L14 9.60576C14.5523 9.60576 15 10.0482 15 10.594C15 11.1397 14.5523 11.5822 14 11.5822H10C9.44772 11.5822 9 11.1397 9 10.594Z" fill="#343A3D"/>
<path d="M14 14.5468C14.5523 14.5468 15 14.1044 15 13.5586C15 13.0128 14.5523 12.5704 14 12.5704L10 12.5704C9.44772 12.5704 9 13.0128 9 13.5586C9 14.1044 9.44772 14.5468 10 14.5468L14 14.5468Z" fill="#343A3D"/>
<path d="M10.5116 2.39061C11.4339 1.8698 12.5661 1.8698 13.4884 2.39061L18.4884 5.21406C19.0713 5.54318 19.515 6.04901 19.7664 6.64114H20C21.6569 6.64114 23 7.96845 23 9.60576V13.5586C23 15.1959 21.6569 16.5232 20 16.5232H19.8179C19.613 17.0774 19.2425 17.5664 18.7437 17.9185L13.7437 21.4478C12.7006 22.1841 11.2994 22.1841 10.2563 21.4478L5.25629 17.9185C4.75748 17.5664 4.38696 17.0774 4.18208 16.5232H4C2.34315 16.5232 1 15.1959 1 13.5586V9.60576C1 7.96845 2.34315 6.64114 4 6.64114H4.23357C4.48504 6.04901 4.92874 5.54318 5.51158 5.21406L10.5116 2.39061ZM6 7.78807V15.5061C6 15.8252 6.15597 16.1247 6.41876 16.3102L11.4188 19.8395C11.7665 20.0849 12.2335 20.0849 12.5812 19.8395L17.5812 16.3102C17.844 16.1247 18 15.8252 18 15.5061V7.78807C18 7.43344 17.8077 7.106 17.4961 6.93006L12.4961 4.10662C12.1887 3.93301 11.8113 3.93301 11.5039 4.10662L6.50386 6.93006C6.19229 7.106 6 7.43344 6 7.78807ZM4 8.61756C3.44772 8.61756 3 9.05999 3 9.60576V13.5586C3 14.1044 3.44772 14.5468 4 14.5468V8.61756ZM21 13.5586V9.60576C21 9.05999 20.5523 8.61756 20 8.61756V14.5468C20.5523 14.5468 21 14.1044 21 13.5586Z" fill="#343A3D"/>
</svg>
