<svg width="24" height="24" viewBox="0 0 24 24" fill="none" xmlns="http://www.w3.org/2000/svg">
<path fill-rule="evenodd" clip-rule="evenodd" d="M8.5 2C6.84315 2 5.5 3.34315 5.5 5C5.5 6.65685 6.84315 8 8.5 8C10.1569 8 11.5 6.65685 11.5 5C11.5 3.34315 10.1569 2 8.5 2ZM7.5 5C7.5 4.44772 7.94772 4 8.5 4C9.05228 4 9.5 4.44772 9.5 5C9.5 5.55228 9.05228 6 8.5 6C7.94772 6 7.5 5.55228 7.5 5Z" fill="#343A3D"/>
<path fill-rule="evenodd" clip-rule="evenodd" d="M17 12C15.3431 12 14 13.3431 14 15C14 16.6569 15.3431 18 17 18C18.6569 18 20 16.6569 20 15C20 13.3431 18.6569 12 17 12ZM16 15C16 14.4477 16.4477 14 17 14C17.5523 14 18 14.4477 18 15C18 15.5523 17.5523 16 17 16C16.4477 16 16 15.5523 16 15Z" fill="#343A3D"/>
<path fill-rule="evenodd" clip-rule="evenodd" d="M2 16C2 14.8954 2.89543 14 4 14H7C8.10457 14 9 14.8954 9 16H11C11.8655 16 12.7076 16.2807 13.4 16.8L15.8 18.6C16.1462 18.8596 16.5673 19 17 19H21C21.5523 19 22 19.4477 22 20C22 20.5523 21.5523 21 21 21H17C16.1345 21 15.2924 20.7193 14.6 20.2L12.2 18.4C11.8538 18.1404 11.4327 18 11 18H9V20H12C12.5523 20 13 20.4477 13 21C13 21.5523 12.5523 22 12 22H8.73244C8.38663 22.5978 7.74028 23 7 23H4C2.89543 23 2 22.1046 2 21V16ZM4 16V21H7V16H4Z" fill="#343A3D"/>
<path d="M6.82843 11.5858C7.2035 11.2107 7.71221 11 8.24264 11H8.75736C9.28779 11 9.7965 11.2107 10.1716 11.5858L11.2929 12.7071C11.6834 13.0976 12.3166 13.0976 12.7071 12.7071C13.0976 12.3166 13.0976 11.6834 12.7071 11.2929L11.5858 10.1716C10.8356 9.42143 9.81823 9 8.75736 9H8.24264C7.18178 9 6.16436 9.42143 5.41421 10.1716L4.29289 11.2929C3.90237 11.6834 3.90237 12.3166 4.29289 12.7071C4.68342 13.0976 5.31658 13.0976 5.70711 12.7071L6.82843 11.5858Z" fill="#343A3D"/>
</svg>
