<svg width="25" height="24" viewBox="0 0 25 24" fill="none" xmlns="http://www.w3.org/2000/svg">
<path d="M3.66663 2C3.11434 2 2.66663 2.44772 2.66663 3V9C2.66663 9.55228 3.11434 10 3.66663 10C4.21891 10 4.66663 9.55228 4.66663 9V5.41421L8.95952 9.70711C9.35004 10.0976 9.98321 10.0976 10.3737 9.70711C10.7643 9.31658 10.7643 8.68342 10.3737 8.29289L6.08084 4H9.66663C10.2189 4 10.6666 3.55228 10.6666 3C10.6666 2.44772 10.2189 2 9.66663 2H3.66663Z" fill="#343A3D"/>
<path d="M21.6666 2C22.2189 2 22.6666 2.44772 22.6666 3V9C22.6666 9.55228 22.2189 10 21.6666 10C21.1143 10 20.6666 9.55228 20.6666 9V5.41421L16.3737 9.70711C15.9832 10.0976 15.35 10.0976 14.9595 9.70711C14.569 9.31658 14.569 8.68342 14.9595 8.29289L19.2524 4H15.6666C15.1143 4 14.6666 3.55228 14.6666 3C14.6666 2.44772 15.1143 2 15.6666 2H21.6666Z" fill="#343A3D"/>
<path d="M2.66663 21C2.66663 21.5523 3.11434 22 3.66663 22H9.66663C10.2189 22 10.6666 21.5523 10.6666 21C10.6666 20.4477 10.2189 20 9.66663 20H6.08084L10.3737 15.7071C10.7643 15.3166 10.7643 14.6834 10.3737 14.2929C9.98321 13.9024 9.35004 13.9024 8.95952 14.2929L4.66663 18.5858V15C4.66663 14.4477 4.21891 14 3.66663 14C3.11434 14 2.66663 14.4477 2.66663 15V21Z" fill="#343A3D"/>
<path d="M21.6666 22C22.2189 22 22.6666 21.5523 22.6666 21V15C22.6666 14.4477 22.2189 14 21.6666 14C21.1143 14 20.6666 14.4477 20.6666 15V18.5858L16.3737 14.2929C15.9832 13.9024 15.35 13.9024 14.9595 14.2929C14.569 14.6834 14.569 15.3166 14.9595 15.7071L19.2524 20H15.6666C15.1143 20 14.6666 20.4477 14.6666 21C14.6666 21.5523 15.1143 22 15.6666 22H21.6666Z" fill="#343A3D"/>
</svg>
