<svg width="24" height="24" viewBox="0 0 24 24" fill="none" xmlns="http://www.w3.org/2000/svg">
<path d="M9 12C9 12.5523 8.55228 13 8 13C7.44772 13 7 12.5523 7 12C7 11.4477 7.44772 11 8 11C8.55228 11 9 11.4477 9 12Z" fill="#343A3D"/>
<path d="M13 12C13 12.5523 12.5523 13 12 13C11.4477 13 11 12.5523 11 12C11 11.4477 11.4477 11 12 11C12.5523 11 13 11.4477 13 12Z" fill="#343A3D"/>
<path d="M17 12C17 12.5523 16.5523 13 16 13C15.4477 13 15 12.5523 15 12C15 11.4477 15.4477 11 16 11C16.5523 11 17 11.4477 17 12Z" fill="#343A3D"/>
<path d="M12 4C16.4183 4 20 7.58172 20 12C20 16.4183 16.4183 20 12 20H4.443L5.37808 17.5065C5.56593 17.186 5.56704 16.7731 5.34656 16.4437C4.49602 15.1731 4 13.646 4 12C4 7.58172 7.58172 4 12 4ZM3.39532 17.0978L2.57034 19.2978C2.08003 20.6053 3.04659 22 4.443 22H12C17.5228 22 22 17.5228 22 12C22 6.47715 17.5228 2 12 2C6.47715 2 2 6.47715 2 12C2 13.8605 2.50894 15.6045 3.39532 17.0978Z" fill="#343A3D"/>
</svg>
