<svg width="24" height="24" viewBox="0 0 24 24" fill="none" xmlns="http://www.w3.org/2000/svg">
<path fill-rule="evenodd" clip-rule="evenodd" d="M1 6C1 4.34315 2.34315 3 4 3H20C21.6569 3 23 4.34315 23 6V18C23 19.6569 21.6569 21 20 21H4C2.34315 21 1 19.6569 1 18V6ZM4 5C3.44772 5 3 5.44772 3 6V18C3 18.5523 3.44772 19 4 19H20C20.5523 19 21 18.5523 21 18V6C21 5.44772 20.5523 5 20 5H4Z" fill="#343A3D"/>
<path fill-rule="evenodd" clip-rule="evenodd" d="M4 9C4 7.34315 5.34315 6 7 6H14C15.6569 6 17 7.34315 17 9V15C17 16.6569 15.6569 18 14 18H7C5.34315 18 4 16.6569 4 15V9ZM7 8C6.44772 8 6 8.44772 6 9V15C6 15.5523 6.44772 16 7 16H10.5H14C14.5523 16 15 15.5523 15 15V9C15 8.44772 14.5523 8 14 8H7Z" fill="#343A3D"/>
<path fill-rule="evenodd" clip-rule="evenodd" d="M7 12.3846C7 11.6199 7.61991 11 8.38462 11H12.6154C13.3801 11 14 11.6199 14 12.3846V14.5C14 19.0139 7 19.0139 7 14.5V12.3846ZM9 13V14.5C9 15.3284 9.67157 16 10.5 16C11.3284 16 12 15.3284 12 14.5V13H9Z" fill="#343A3D"/>
<path d="M20 8C20 8.55228 19.5523 9 19 9C18.4477 9 18 8.55228 18 8C18 7.44772 18.4477 7 19 7C19.5523 7 20 7.44772 20 8Z" fill="#343A3D"/>
<path d="M20 11C20 11.5523 19.5523 12 19 12C18.4477 12 18 11.5523 18 11C18 10.4477 18.4477 10 19 10C19.5523 10 20 10.4477 20 11Z" fill="#343A3D"/>
</svg>
