<svg width="24" height="24" viewBox="0 0 24 24" fill="none" xmlns="http://www.w3.org/2000/svg">
<path fill-rule="evenodd" clip-rule="evenodd" d="M8.5 5.5C8.5 3.567 10.067 2 12 2C13.933 2 15.5 3.567 15.5 5.5V12C15.5 13.933 13.933 15.5 12 15.5C10.067 15.5 8.5 13.933 8.5 12V5.5ZM12 4C11.1716 4 10.5 4.67157 10.5 5.5V12C10.5 12.8284 11.1716 13.5 12 13.5C12.8284 13.5 13.5 12.8284 13.5 12V5.5C13.5 4.67157 12.8284 4 12 4Z" fill="#343A3D"/>
<path d="M11 18.9291C7.60771 18.4439 5 15.5265 5 12V11C5 10.4477 5.44772 10 6 10C6.55228 10 7 10.4477 7 11V12C7 14.7614 9.23858 17 12 17C14.7614 17 17 14.7614 17 12V11C17 10.4477 17.4477 10 18 10C18.5523 10 19 10.4477 19 11V12C19 15.5265 16.3923 18.4439 13 18.9291V20H15.6C16.1523 20 16.6 20.4477 16.6 21C16.6 21.5523 16.1523 22 15.6 22H8.40002C7.84774 22 7.40002 21.5523 7.40002 21C7.40002 20.4477 7.84774 20 8.40002 20H11V18.9291Z" fill="#343A3D"/>
</svg>
