<svg width="24" height="24" viewBox="0 0 24 24" fill="none" xmlns="http://www.w3.org/2000/svg">
<path d="M5.5 16C6.32843 16 7 16.6716 7 17.5C7 18.3284 6.32843 19 5.5 19C4.67157 19 4 18.3284 4 17.5C4 16.6716 4.67157 16 5.5 16Z" fill="#323439"/>
<path d="M18.5 16C19.3284 16 20 16.6716 20 17.5C20 18.3284 19.3284 19 18.5 19C17.6716 19 17 18.3284 17 17.5C17 16.6716 17.6716 16 18.5 16Z" fill="#323439"/>
<path d="M11 17C11.2761 17 11.5 17.2239 11.5 17.5C11.5 17.7761 11.2761 18 11 18H9C8.72386 18 8.5 17.7761 8.5 17.5C8.5 17.2239 8.72386 17 9 17H11Z" fill="#323439"/>
<path d="M15 17C15.2761 17 15.5 17.2239 15.5 17.5C15.5 17.7761 15.2761 18 15 18H13C12.7239 18 12.5 17.7761 12.5 17.5C12.5 17.2239 12.7239 17 13 17H15Z" fill="#323439"/>
<path d="M7.15918 6.05957C7.55501 5.91626 7.99902 6.03601 8.26855 6.35938L10 8.43652L11.7314 6.35938L11.8408 6.24805C12.1116 6.01051 12.4945 5.93419 12.8408 6.05957C13.2365 6.20298 13.5 6.57909 13.5 7V13C13.5 13.5523 13.0523 14 12.5 14C11.9477 14 11.5 13.5523 11.5 13V9.7627L10.7686 10.6406C10.5786 10.8686 10.2967 11 10 11C9.70326 11 9.42144 10.8686 9.23145 10.6406L8.5 9.7627V13C8.5 13.5523 8.05228 14 7.5 14C6.94772 14 6.5 13.5523 6.5 13V7L6.51172 6.84473C6.56753 6.48878 6.81289 6.18507 7.15918 6.05957Z" fill="#323439"/>
<path d="M16.5 9C17.0523 9 17.5 9.44771 17.5 10V13C17.5 13.5523 17.0523 14 16.5 14C15.9477 14 15.5 13.5523 15.5 13V10C15.5 9.44771 15.9477 9 16.5 9Z" fill="#323439"/>
<path d="M16.5 6C17.0523 6 17.5 6.44772 17.5 7C17.5 7.55228 17.0523 8 16.5 8C15.9477 8 15.5 7.55228 15.5 7C15.5 6.44772 15.9477 6 16.5 6Z" fill="#323439"/>
<path d="M20 1C21.6569 1 23 2.34315 23 4V20C23 21.6569 21.6569 23 20 23H4C2.34315 23 1 21.6569 1 20V4C1 2.34315 2.34315 1 4 1H20ZM4 3C3.44772 3 3 3.44772 3 4V20C3 20.5523 3.44772 21 4 21H20C20.5523 21 21 20.5523 21 20V4C21 3.44772 20.5523 3 20 3H4Z" fill="#323439"/>
</svg>
