<svg width="24" height="24" viewBox="0 0 24 24" fill="none" xmlns="http://www.w3.org/2000/svg">
<path d="M7.15918 8.05957C7.55493 7.91632 7.99902 8.03614 8.26855 8.35938L10 10.4365L11.7314 8.35938L11.8408 8.24805C12.1116 8.01061 12.4946 7.93425 12.8408 8.05957C13.2365 8.20295 13.4999 8.57919 13.5 9V15C13.5 15.5523 13.0523 16 12.5 16C11.9477 16 11.5 15.5523 11.5 15V11.7627L10.7686 12.6406C10.5786 12.8686 10.2967 13 10 13C9.70326 13 9.42144 12.8686 9.23145 12.6406L8.5 11.7627V15C8.5 15.5523 8.05228 16 7.5 16C6.94772 16 6.5 15.5523 6.5 15V9L6.51172 8.84473C6.56761 8.48889 6.81297 8.18504 7.15918 8.05957Z" fill="#323439"/>
<path d="M16.5 11C17.0522 11 17.4999 11.4478 17.5 12V15C17.5 15.5523 17.0523 16 16.5 16C15.9477 16 15.5 15.5523 15.5 15V12C15.5001 11.4478 15.9478 11 16.5 11Z" fill="#323439"/>
<path d="M16.5 8C17.0522 8 17.4999 8.44783 17.5 9C17.5 9.55229 17.0523 10 16.5 10C15.9477 10 15.5 9.55229 15.5 9C15.5001 8.44783 15.9478 8 16.5 8Z" fill="#323439"/>
<path d="M20 1C21.6569 1 23 2.34315 23 4V20C23 21.6569 21.6569 23 20 23H4C2.34315 23 1 21.6569 1 20V4C1 2.34315 2.34315 1 4 1H20ZM4 3C3.44772 3 3 3.44772 3 4V20C3 20.5523 3.44772 21 4 21H20C20.5523 21 21 20.5523 21 20V4C21 3.44772 20.5523 3 20 3H4Z" fill="#323439"/>
</svg>
