<svg width="25" height="24" viewBox="0 0 25 24" fill="none" xmlns="http://www.w3.org/2000/svg">
<path d="M9.66663 10C10.2189 10 10.6666 9.55228 10.6666 9V3C10.6666 2.44772 10.2189 2 9.66663 2C9.11434 2 8.66663 2.44772 8.66663 3V6.58579L4.37373 2.29289C3.98321 1.90237 3.35004 1.90237 2.95952 2.29289C2.56899 2.68342 2.56899 3.31658 2.95952 3.70711L7.25241 8H3.66663C3.11434 8 2.66663 8.44772 2.66663 9C2.66663 9.55228 3.11434 10 3.66663 10H9.66663Z" fill="#343A3D"/>
<path d="M15.6666 10C15.1143 10 14.6666 9.55228 14.6666 9V3C14.6666 2.44772 15.1143 2 15.6666 2C16.2189 2 16.6666 2.44772 16.6666 3V6.58579L20.9595 2.29289C21.35 1.90237 21.9832 1.90237 22.3737 2.29289C22.7643 2.68342 22.7643 3.31658 22.3737 3.70711L18.0808 8H21.6666C22.2189 8 22.6666 8.44772 22.6666 9C22.6666 9.55228 22.2189 10 21.6666 10H15.6666Z" fill="#343A3D"/>
<path d="M10.6666 15C10.6666 14.4477 10.2189 14 9.66663 14H3.66663C3.11434 14 2.66663 14.4477 2.66663 15C2.66663 15.5523 3.11434 16 3.66663 16H7.25241L2.95952 20.2929C2.56899 20.6834 2.56899 21.3166 2.95952 21.7071C3.35004 22.0976 3.98321 22.0976 4.37373 21.7071L8.66663 17.4142V21C8.66663 21.5523 9.11434 22 9.66663 22C10.2189 22 10.6666 21.5523 10.6666 21V15Z" fill="#343A3D"/>
<path d="M15.6666 14C15.1143 14 14.6666 14.4477 14.6666 15V21C14.6666 21.5523 15.1143 22 15.6666 22C16.2189 22 16.6666 21.5523 16.6666 21V17.4142L20.9595 21.7071C21.35 22.0976 21.9832 22.0976 22.3737 21.7071C22.7643 21.3166 22.7643 20.6834 22.3737 20.2929L18.0808 16H21.6666C22.2189 16 22.6666 15.5523 22.6666 15C22.6666 14.4477 22.2189 14 21.6666 14H15.6666Z" fill="#343A3D"/>
</svg>
