<svg width="24" height="24" viewBox="0 0 24 24" fill="none" xmlns="http://www.w3.org/2000/svg">
<path fill-rule="evenodd" clip-rule="evenodd" d="M3 5C3 3.34315 4.34315 2 6 2H18C19.6569 2 21 3.34315 21 5V17C21 18.6569 19.6569 20 18 20H17V21C17 21.5523 16.5523 22 16 22C15.4477 22 15 21.5523 15 21V20H9V21C9 21.5523 8.55228 22 8 22C7.44772 22 7 21.5523 7 21V20H6C4.34315 20 3 18.6569 3 17V5ZM6 4C5.44772 4 5 4.44772 5 5V17C5 17.5523 5.44772 18 6 18H18C18.5523 18 19 17.5523 19 17V5C19 4.44772 18.5523 4 18 4H6ZM8 6C8.55228 6 9 6.44772 9 7V11C9 11.5523 8.55228 12 8 12C7.44772 12 7 11.5523 7 11V7C7 6.44772 7.44772 6 8 6Z" fill="#343A3D"/>
</svg>
