<svg width="24" height="24" viewBox="0 0 24 24" fill="none" xmlns="http://www.w3.org/2000/svg">
<path d="M13.5302 5.46967C13.8231 5.76256 13.8231 6.23744 13.5302 6.53033L11.5302 8.53033C11.2373 8.82322 10.7624 8.82322 10.4696 8.53033C10.1767 8.23744 10.1767 7.76256 10.4696 7.46967L12.4696 5.46967C12.7625 5.17678 13.2373 5.17678 13.5302 5.46967Z" fill="#343A3D"/>
<path d="M14.5302 8.53033C14.8231 8.23744 14.8231 7.76256 14.5302 7.46967C14.2373 7.17678 13.7625 7.17678 13.4696 7.46967L12.4696 8.46967C12.1767 8.76256 12.1767 9.23744 12.4696 9.53033C12.7625 9.82322 13.2373 9.82322 13.5302 9.53033L14.5302 8.53033Z" fill="#343A3D"/>
<path d="M8 1C6.89543 1 6 1.89543 6 3V11H5C5 10.4477 4.55228 10 4 10C3.44772 10 3 10.4477 3 11V22C3 22.5523 3.44772 23 4 23H20C20.5523 23 21 22.5523 21 22V11C21 10.4477 20.5523 10 20 10C19.4477 10 19 10.4477 19 11H18V3C18 1.89543 17.1046 1 16 1H8ZM18 13H19V21H5V13H6V18C6 19.1046 6.89543 20 8 20H16C17.1046 20 18 19.1046 18 18V13ZM8 3H16V18H8V3Z" fill="#343A3D"/>
</svg>
