<svg width="24" height="24" viewBox="0 0 24 24" fill="none" xmlns="http://www.w3.org/2000/svg">
<path fill-rule="evenodd" clip-rule="evenodd" d="M1 6C1 3.23858 3.23858 1 6 1H18C20.7614 1 23 3.23858 23 6V11C23 12.1046 22.1046 13 21 13H3C1.89543 13 1 12.1046 1 11V6ZM6 3C4.34315 3 3 4.34315 3 6V11H21V6C21 4.34315 19.6569 3 18 3H6Z" fill="#343A3D"/>
<path fill-rule="evenodd" clip-rule="evenodd" d="M16.5 21V13H18.5V21H16.5Z" fill="#343A3D"/>
<path fill-rule="evenodd" clip-rule="evenodd" d="M10 21V13H12V21H10Z" fill="#343A3D"/>
<path fill-rule="evenodd" clip-rule="evenodd" d="M13.5 17C13.5 15.8954 14.3954 15 15.5 15H19.5C20.6046 15 21.5 15.8954 21.5 17V21C21.5 22.1046 20.6046 23 19.5 23H15.5C14.3954 23 13.5 22.1046 13.5 21V17ZM19.5 17H15.5V21H19.5V17Z" fill="#343A3D"/>
<path fill-rule="evenodd" clip-rule="evenodd" d="M7 17C7 15.8954 7.89543 15 9 15H12.5C13.0523 15 13.5 15.4477 13.5 16C13.5 16.5523 13.0523 17 12.5 17H9V21H12.5C13.0523 21 13.5 21.4477 13.5 22C13.5 22.5523 13.0523 23 12.5 23H9C7.89543 23 7 22.1046 7 21V17Z" fill="#343A3D"/>
<path fill-rule="evenodd" clip-rule="evenodd" d="M19 5.5C19 6.05228 18.5523 6.5 18 6.5L16 6.5C15.4477 6.5 15 6.05228 15 5.5C15 4.94771 15.4477 4.5 16 4.5L18 4.5C18.5523 4.5 19 4.94772 19 5.5Z" fill="#343A3D"/>
<path fill-rule="evenodd" clip-rule="evenodd" d="M22 9C22 9.55228 21.5523 10 21 10H3C2.44772 10 2 9.55228 2 9C2 8.44772 2.44772 8 3 8H21C21.5523 8 22 8.44772 22 9Z" fill="#343A3D"/>
</svg>
