<svg width="24" height="24" viewBox="0 0 24 24" fill="none" xmlns="http://www.w3.org/2000/svg">
<path fill-rule="evenodd" clip-rule="evenodd" d="M1 11.6296C1 5.20604 5.83908 1 10.1481 1C10.5131 1 10.8491 1.19885 11.0248 1.51879C11.2004 1.83874 11.1878 2.22895 10.9918 2.53688C6.38085 9.78267 14.2173 17.6192 21.4631 13.0082C21.771 12.8122 22.1613 12.7996 22.4812 12.9752C22.8012 13.1509 23 13.4869 23 13.8519C23 18.1609 18.794 23 12.3704 23C5.89216 23 1 18.1078 1 11.6296ZM8.33591 3.33195C5.67214 4.28031 3 7.22029 3 11.6296C3 17.0033 6.99673 21 12.3704 21C16.7797 21 19.7197 18.3279 20.6681 15.6641C12.8205 18.8433 5.15673 11.1795 8.33591 3.33195Z" fill="#343A3D"/>
</svg>
