<svg width="25" height="24" viewBox="0 0 25 24" fill="none" xmlns="http://www.w3.org/2000/svg">
<path d="M3.66663 12C3.66663 13.1046 4.56206 14 5.66663 14C6.7712 14 7.66663 13.1046 7.66663 12C7.66663 10.8954 6.7712 10 5.66663 10C4.56206 10 3.66663 10.8954 3.66663 12Z" fill="#343A3D"/>
<path d="M12.6666 14C11.5621 14 10.6666 13.1046 10.6666 12C10.6666 10.8954 11.5621 10 12.6666 10C13.7712 10 14.6666 10.8954 14.6666 12C14.6666 13.1046 13.7712 14 12.6666 14Z" fill="#343A3D"/>
<path d="M19.6666 14C18.5621 14 17.6666 13.1046 17.6666 12C17.6666 10.8954 18.5621 10 19.6666 10C20.7712 10 21.6666 10.8954 21.6666 12C21.6666 13.1046 20.7712 14 19.6666 14Z" fill="#343A3D"/>
</svg>
