<svg width="25" height="24" viewBox="0 0 25 24" fill="none" xmlns="http://www.w3.org/2000/svg">
<path d="M8.6676 13.25C9.35796 13.25 9.9176 12.6904 9.9176 12C9.9176 11.3096 9.35796 10.75 8.6676 10.75C7.97725 10.75 7.4176 11.3096 7.4176 12C7.4176 12.6904 7.97725 13.25 8.6676 13.25Z" fill="#343A3D"/>
<path d="M13.9166 12C13.9166 12.6904 13.357 13.25 12.6666 13.25C11.9763 13.25 11.4166 12.6904 11.4166 12C11.4166 11.3096 11.9763 10.75 12.6666 10.75C13.357 10.75 13.9166 11.3096 13.9166 12Z" fill="#343A3D"/>
<path d="M16.6656 13.25C17.356 13.25 17.9156 12.6904 17.9156 12C17.9156 11.3096 17.356 10.75 16.6656 10.75C15.9753 10.75 15.4156 11.3096 15.4156 12C15.4156 12.6904 15.9753 13.25 16.6656 13.25Z" fill="#343A3D"/>
<path fill-rule="evenodd" clip-rule="evenodd" d="M12.6666 1C6.61434 1 1.66663 5.94772 1.66663 12C1.66663 18.0523 6.61434 23 12.6666 23C18.7189 23 23.6666 18.0523 23.6666 12C23.6666 5.94772 18.7189 1 12.6666 1ZM3.66663 12C3.66663 7.05228 7.71891 3 12.6666 3C17.6143 3 21.6666 7.05228 21.6666 12C21.6666 16.9477 17.6143 21 12.6666 21C7.71891 21 3.66663 16.9477 3.66663 12Z" fill="#343A3D"/>
</svg>
