<svg width="25" height="24" viewBox="0 0 25 24" fill="none" xmlns="http://www.w3.org/2000/svg">
<path d="M14.6666 5C14.6666 6.10457 13.7712 7 12.6666 7C11.5621 7 10.6666 6.10457 10.6666 5C10.6666 3.89543 11.5621 3 12.6666 3C13.7712 3 14.6666 3.89543 14.6666 5Z" fill="#343A3D"/>
<path d="M14.6666 12C14.6666 13.1046 13.7712 14 12.6666 14C11.5621 14 10.6666 13.1046 10.6666 12C10.6666 10.8954 11.5621 10 12.6666 10C13.7712 10 14.6666 10.8954 14.6666 12Z" fill="#343A3D"/>
<path d="M12.6666 21C13.7712 21 14.6666 20.1046 14.6666 19C14.6666 17.8954 13.7712 17 12.6666 17C11.5621 17 10.6666 17.8954 10.6666 19C10.6666 20.1046 11.5621 21 12.6666 21Z" fill="#343A3D"/>
</svg>
