<svg width="24" height="24" viewBox="0 0 24 24" fill="none" xmlns="http://www.w3.org/2000/svg">
<path d="M5.29289 2.29289C5.68342 1.90237 6.31658 1.90237 6.70711 2.29289L9 4.58579L11.2929 2.29289C11.6834 1.90237 12.3166 1.90237 12.7071 2.29289L15 4.58579L17.2929 2.29289C17.6834 1.90237 18.3166 1.90237 18.7071 2.29289L21.7071 5.29289C22.0976 5.68342 22.0976 6.31658 21.7071 6.70711L18.7071 9.70711C18.3166 10.0976 17.6834 10.0976 17.2929 9.70711L15 7.41421L7.41421 15L9.70711 17.2929C10.0976 17.6834 10.0976 18.3166 9.70711 18.7071L6.70711 21.7071C6.31658 22.0976 5.68342 22.0976 5.29289 21.7071L2.29289 18.7071C1.90237 18.3166 1.90237 17.6834 2.29289 17.2929L4.58579 15L2.29289 12.7071C1.90237 12.3166 1.90237 11.6834 2.29289 11.2929L4.58579 9L2.29289 6.70711C1.90237 6.31658 1.90237 5.68342 2.29289 5.29289L5.29289 2.29289ZM6 10.4142L4.41421 12L6 13.5858L7.58579 12L6 10.4142ZM9 10.5858L10.5858 9L9 7.41421L7.41421 9L9 10.5858ZM12 7.58579L13.5858 6L12 4.41421L10.4142 6L12 7.58579ZM7.58579 6L6 4.41421L4.41421 6L6 7.58579L7.58579 6ZM6 16.4142L4.41421 18L6 19.5858L7.58579 18L6 16.4142ZM16.4142 6L18 7.58579L19.5858 6L18 4.41421L16.4142 6Z" fill="#343A3D"/>
<path d="M15.2214 9.70215C15.6356 9.70215 15.9714 10.0379 15.9714 10.4521V10.7845C15.9714 10.8172 15.9693 10.8493 15.9653 10.8808C16.6842 11.1211 17.2049 11.7848 17.2552 12.5673L17.3545 12.4664C17.4465 12.3729 17.5003 12.2437 17.5003 12.1065V11.4922C17.5003 11.078 17.8361 10.7422 18.2503 10.7422C18.6645 10.7422 19.0003 11.078 19.0003 11.4922V12.1065C19.0003 12.634 18.7941 13.1421 18.4235 13.5186L17.6235 14.3313L19.4742 16.5557C20.6129 17.9242 19.6397 19.9999 17.8595 19.9999C17.3769 19.9999 16.9323 19.8371 16.5776 19.5636C16.2502 19.836 15.8292 19.9999 15.37 19.9999C14.9106 19.9999 14.4895 19.8359 14.162 19.5633C13.8073 19.8371 13.3626 19.9999 12.8799 19.9999C11.0997 19.9999 10.1265 17.9242 11.2651 16.5557L13.116 14.3312L12.3161 13.5186C11.9455 13.1421 11.7394 12.634 11.7394 12.1065V11.4922C11.7394 11.078 12.0752 10.7422 12.4894 10.7422C12.9036 10.7422 13.2394 11.078 13.2394 11.4922V12.1065C13.2394 12.2437 13.2931 12.3729 13.3851 12.4664L13.4847 12.5675C13.5283 11.8878 13.9268 11.2978 14.5019 10.9969C14.482 10.9296 14.4714 10.8583 14.4714 10.7845V10.4521C14.4714 10.0379 14.8072 9.70215 15.2214 9.70215ZM13.4805 16.2383L12.4182 17.5151C12.0926 17.9064 12.3709 18.4999 12.8799 18.4999C13.2116 18.4999 13.4805 18.231 13.4805 17.8992V16.2383ZM15.37 14.5991C15.155 14.5991 14.9807 14.7734 14.9807 14.9884V18.1107C14.9807 18.3256 15.155 18.4999 15.37 18.4999C15.5849 18.4999 15.7592 18.3256 15.7592 18.1107V17.9379C15.7589 17.925 15.7588 17.9121 15.7588 17.8992V14.9718C15.7501 14.7645 15.5794 14.5991 15.37 14.5991ZM17.2592 17.9199C17.2701 18.242 17.5346 18.4999 17.8595 18.4999C18.3685 18.4999 18.6467 17.9064 18.3212 17.5151L17.2592 16.2387V17.9199ZM15.37 13.0991C15.5738 13.0991 15.7592 12.928 15.7592 12.6918C15.7592 12.4557 15.5738 12.2845 15.37 12.2845C15.1661 12.2845 14.9807 12.4557 14.9807 12.6918C14.9807 12.928 15.1661 13.0991 15.37 13.0991Z" fill="#343A3D"/>
</svg>
