<svg width="25" height="24" viewBox="0 0 25 24" fill="none" xmlns="http://www.w3.org/2000/svg">
<path fill-rule="evenodd" clip-rule="evenodd" d="M4.54767 1.00781C4.85027 1.03711 5.14016 1.14495 5.38849 1.32031L5.50958 1.41406L5.62091 1.51758C5.83515 1.73348 5.99009 2.00122 6.06915 2.29492L6.10236 2.44336L6.10333 2.45117L7.98419 13.5029C8.00552 13.5016 8.02697 13.5 8.04865 13.5H19.827C19.9421 13.5003 20.0539 13.4604 20.1424 13.3867C20.2309 13.3128 20.291 13.2092 20.3113 13.0957L20.3123 13.0879L21.6609 5.89453C21.7628 5.3519 22.2852 4.99498 22.8279 5.09668C23.3708 5.19845 23.7285 5.72085 23.6268 6.26367L22.2791 13.4473C22.1759 14.0238 21.8734 14.5466 21.4236 14.9219C20.9748 15.2963 20.4085 15.5 19.824 15.499H8.32404L8.61993 17.2334H18.4813C18.5642 17.2334 18.6445 17.2446 18.7215 17.2637C20.1769 17.4055 21.3143 18.6324 21.3143 20.125C21.3143 21.7128 20.0271 23 18.4393 23C16.8515 23 15.5643 21.7128 15.5643 20.125C15.5643 19.8136 15.6153 19.5142 15.7068 19.2334H11.4217C11.5133 19.5142 11.5643 19.8136 11.5643 20.125C11.5643 21.7128 10.2771 23 8.68927 23C7.10145 23 5.81427 21.7128 5.81427 20.125C5.81427 19.297 6.1653 18.5519 6.7254 18.0273L4.16779 3H2.68927C2.13699 3 1.68927 2.55228 1.68927 2C1.68927 1.44772 2.13699 1 2.68927 1H4.39532L4.54767 1.00781ZM8.68927 19.25C8.20602 19.25 7.81427 19.6418 7.81427 20.125C7.81427 20.6082 8.20602 21 8.68927 21C9.17252 21 9.56427 20.6082 9.56427 20.125C9.56427 19.6418 9.17252 19.25 8.68927 19.25ZM18.4393 19.25C17.956 19.25 17.5643 19.6418 17.5643 20.125C17.5643 20.6082 17.956 21 18.4393 21C18.9225 21 19.3143 20.6082 19.3143 20.125C19.3143 19.6418 18.9225 19.25 18.4393 19.25Z" fill="#343A3D"/>
<path d="M14.1893 1C14.7416 1 15.1893 1.44772 15.1893 2V5H18.1893C18.7416 5 19.1893 5.44772 19.1893 6C19.1893 6.55228 18.7416 7 18.1893 7H15.1893V10C15.1893 10.5523 14.7416 11 14.1893 11C13.637 11 13.1893 10.5523 13.1893 10V7H10.1893C9.63699 7 9.18927 6.55228 9.18927 6C9.18927 5.44772 9.63699 5 10.1893 5H13.1893V2C13.1893 1.44772 13.637 1 14.1893 1Z" fill="#343A3D"/>
</svg>
