<svg width="24" height="24" viewBox="0 0 24 24" fill="none" xmlns="http://www.w3.org/2000/svg">
<path d="M7.02121 1H10.9788C12.0951 1 13 1.90493 13 3.02121V5H13.0042C14.6611 5 16.0042 6.34315 16.0042 8V9.5C16.0042 10.0523 15.5565 10.5 15.0042 10.5C14.4519 10.5 14.0042 10.0523 14.0042 9.5V8C14.0042 7.44771 13.5565 7 13.0042 7H5C4.44772 7.00001 4 7.44773 4 8.00001V19C4 19.5523 4.44772 20 5 20L9.5 20C10.0523 20 10.5 20.4477 10.5 21C10.5 21.5523 10.0523 22 9.5 22L7 22C7 22.5523 6.55228 23 6 23C5.44772 23 5 22.5523 5 22C3.34315 22 2 20.6569 2 19V8.00001C2 6.34316 3.34315 5.00001 5 5.00001V3.02121C5 1.90493 5.90493 1 7.02121 1ZM11 5V3.02121C11 3.01644 10.9992 3.01441 10.9987 3.01326C10.998 3.01145 10.9964 3.00886 10.9938 3.00621C10.9911 3.00357 10.9886 3.00202 10.9867 3.00126C10.9856 3.00077 10.9836 3 10.9788 3H7.02121C7.01644 3 7.01441 3.00077 7.01326 3.00126C7.01145 3.00202 7.00886 3.00357 7.00621 3.00621C7.00357 3.00886 7.00202 3.01145 7.00126 3.01326C7.00077 3.01441 7 3.01644 7 3.02121V5H11Z" fill="#323439"/>
<path d="M9 14.7757C9 15.5361 9.15095 16.7554 9.96227 18.1904C10.7708 19.6205 12.2046 21.2107 14.6873 22.7668L14.6913 22.7693C14.9335 22.9196 15.2134 23 15.5 23C15.7866 23 16.0665 22.9196 16.3088 22.7693L16.3127 22.7668C18.7954 21.2107 20.2292 19.6205 21.0377 18.1904C21.849 16.7554 22 15.5361 22 14.7757C22 12.699 20.3295 11 18.25 11C17.136 11 16.2204 11.6038 15.6601 12.0773C15.6046 12.1242 15.5512 12.171 15.5 12.2173C15.4488 12.171 15.3954 12.1242 15.3399 12.0773C14.7796 11.6038 13.864 11 12.75 11C10.6705 11 9 12.699 9 14.7757ZM12.75 13C13.1545 13 13.6139 13.2373 14.049 13.6049C14.2517 13.7762 14.4184 13.95 14.5341 14.0811C14.5913 14.1459 14.6346 14.1986 14.6619 14.233C14.6756 14.2501 14.6852 14.2625 14.6905 14.2695L14.6951 14.2756C14.8835 14.5312 15.1823 14.6822 15.5 14.6822C15.8177 14.6822 16.1166 14.5311 16.305 14.2754L16.3095 14.2695C16.3148 14.2625 16.3244 14.2501 16.3381 14.233C16.3654 14.1986 16.4087 14.1459 16.4659 14.0811C16.5816 13.95 16.7483 13.7762 16.951 13.6049C17.3861 13.2373 17.8455 13 18.25 13C19.2076 13 20 13.7862 20 14.7757C20 15.2528 19.9103 16.1208 19.2967 17.2061C18.7035 18.2553 17.5924 19.5572 15.5 20.9132C13.4076 19.5572 12.2965 18.2553 11.7033 17.2061C11.0897 16.1208 11 15.2528 11 14.7757C11 13.7862 11.7924 13 12.75 13Z" fill="#323439"/>
</svg>
