<svg width="25" height="24" viewBox="0 0 25 24" fill="none" xmlns="http://www.w3.org/2000/svg">
<path d="M22.6666 8V3.09432C22.6689 3.05733 22.6688 3.02046 22.6665 2.98386C22.6579 2.44304 22.22 2.00649 21.6787 2.00007C21.6446 1.99807 21.6103 1.998 21.5759 2H16.6666C16.1143 2 15.6666 2.44772 15.6666 3C15.6666 3.55228 16.1143 4 16.6666 4H19.2526L12.9595 10.2931C12.569 10.6836 12.569 11.3168 12.9595 11.7073C13.35 12.0978 13.9832 12.0978 14.3737 11.7073L20.6666 5.41442V8C20.6666 8.55228 21.1143 9 21.6666 9C22.2189 9 22.6666 8.55228 22.6666 8Z" fill="#343A3D"/>
<path d="M4.66663 5C4.66663 4.44772 5.11434 4 5.66663 4H11.5925C12.1448 4 12.5925 3.55228 12.5925 3C12.5925 2.44772 12.1448 2 11.5925 2H5.66663C4.00977 2 2.66663 3.34315 2.66663 5V19C2.66663 20.6569 4.00977 22 5.66663 22H19.6666C21.3235 22 22.6666 20.6569 22.6666 19V13C22.6666 12.4477 22.2189 12 21.6666 12C21.1143 12 20.6666 12.4477 20.6666 13V19C20.6666 19.5523 20.2189 20 19.6666 20H5.66663C5.11434 20 4.66663 19.5523 4.66663 19V5Z" fill="#343A3D"/>
</svg>
