<svg width="24" height="24" viewBox="0 0 24 24" fill="none" xmlns="http://www.w3.org/2000/svg">
<path d="M1.08551 2.59545C1.24563 2.23347 1.6042 2 2.00002 2H22C22.3958 2 22.7544 2.23347 22.9145 2.59545C23.0747 2.95743 23.0062 3.37979 22.74 3.67267L13 14.3866V20H15.75C16.3023 20 16.75 20.4477 16.75 21C16.75 21.5523 16.3023 22 15.75 22H8.25002C7.69773 22 7.25002 21.5523 7.25002 21C7.25002 20.4477 7.69773 20 8.25002 20H11V14.3866L1.26008 3.67267C0.993824 3.37979 0.925376 2.95743 1.08551 2.59545ZM12 12.5134L16.1031 8L7.89693 8L12 12.5134ZM6.07875 6L17.9213 6L19.7395 4H4.26057L6.07875 6Z" fill="#343A3D"/>
</svg>
