<svg width="24" height="24" viewBox="0 0 24 24" fill="none" xmlns="http://www.w3.org/2000/svg">
<path d="M7.99739 1C8.54967 1 8.99739 1.44772 8.99739 2H15C15 1.44772 15.4477 1 16 1C16.5523 1 17 1.44772 17 2H18.9966C21.2076 2 23 3.7924 23 6.00344V18.9966C23 21.2076 21.2076 23 18.9966 23H5.00344C2.7924 23 1 21.2076 1 18.9966V6.00344C1 3.7924 2.7924 2 5.00344 2H6.99739C6.99739 1.44772 7.44511 1 7.99739 1ZM6.99739 4H5.00344C3.89697 4 3 4.89697 3 6.00344V9L21 9V6.00344C21 4.89697 20.103 4 18.9966 4H17V5C17 5.55228 16.5523 6 16 6C15.4477 6 15 5.55228 15 5V4H8.99739V5C8.99739 5.55228 8.54967 6 7.99739 6C7.44511 6 6.99739 5.55228 6.99739 5V4ZM21 11L3 11L3 18.9966C3 20.103 3.89697 21 5.00344 21H18.9966C20.103 21 21 20.103 21 18.9966V11ZM9.29286 13.2929C9.68339 12.9024 10.3166 12.9024 10.7071 13.2929L12 14.5858L13.2929 13.2929C13.6834 12.9024 14.3166 12.9024 14.7071 13.2929C15.0976 13.6834 15.0976 14.3166 14.7071 14.7071L13.4142 16L14.7071 17.2929C15.0976 17.6834 15.0976 18.3166 14.7071 18.7071C14.3166 19.0976 13.6834 19.0976 13.2929 18.7071L12 17.4142L10.7071 18.7071C10.3166 19.0976 9.68339 19.0976 9.29286 18.7071C8.90234 18.3166 8.90234 17.6834 9.29286 17.2929L10.5858 16L9.29286 14.7071C8.90234 14.3166 8.90234 13.6834 9.29286 13.2929Z" fill="#343A3D"/>
</svg>
