<svg width="24" height="24" viewBox="0 0 24 24" fill="none" xmlns="http://www.w3.org/2000/svg">
<path d="M10.9324 3.07262C9.6422 3.26374 8.62311 3.80727 7.86345 4.40523C6.27454 5.65591 5.84166 7.66318 5.64261 9.25554L5.23153 12.5442C5.0702 13.8348 4.48329 15.0348 3.56359 15.9545C2.07071 17.4474 3.12803 20 5.23928 20H8.16187C8.60345 21.6694 10.1243 22.9 11.9325 22.9C13.7407 22.9 15.2615 21.6694 15.7031 20H18.6254C20.7366 20 21.794 17.4474 20.3011 15.9545C19.3814 15.0348 18.7945 13.8348 18.6331 12.5442L18.2221 9.25555C18.023 7.66318 17.5901 5.65591 16.0012 4.40523C15.2416 3.80729 14.2225 3.26376 12.9324 3.07264V3C12.9324 2.44772 12.4847 2 11.9324 2C11.3801 2 10.9324 2.44772 10.9324 3V3.07262ZM11.9325 21.1C11.1347 21.1 10.4409 20.6551 10.0854 20H13.7795C13.4241 20.6551 12.7302 21.1 11.9325 21.1Z" fill="#323439"/>
</svg>
