<svg width="24" height="24" viewBox="0 0 24 24" fill="none" xmlns="http://www.w3.org/2000/svg">
<path d="M12 2C12.5482 2 12.9925 2.44772 12.9925 3V3.07263C14.2731 3.26375 15.2846 3.80728 16.0386 4.40523C17.6156 5.65591 18.0453 7.66318 18.2428 9.25555L18.6509 12.5442C18.811 13.8348 19.3935 15.0348 20.3064 15.9545C21.7881 17.4474 20.7387 20 18.6432 20H15.8451C15.4044 21.7252 13.8499 23 12 23C10.1501 23 8.59563 21.7252 8.15489 20H5.35683C3.26132 20 2.21188 17.4474 3.69363 15.9545C4.60648 15.0348 5.18902 13.8348 5.34914 12.5442L5.75716 9.25554C5.95472 7.66318 6.38438 5.65591 7.96145 4.40523C8.71544 3.80728 9.72692 3.26375 11.0075 3.07263V3C11.0075 2.44772 11.4518 2 12 2ZM10.2805 20C10.6237 20.5978 11.2652 21 12 21C12.7348 21 13.3763 20.5978 13.7195 20H10.2805ZM5.35683 18H18.6432C18.9702 18 19.1339 17.6017 18.9027 17.3687C17.6777 16.1346 16.896 14.5242 16.6811 12.7923L16.2731 9.50361C16.0798 7.94615 15.7094 6.68947 14.8108 5.97678C14.1511 5.45362 13.2332 5 12 5C10.7668 5 9.84893 5.45362 9.18924 5.97678C8.29057 6.68947 7.92015 7.94615 7.72692 9.50361L7.3189 12.7923C7.10403 14.5242 6.3223 16.1346 5.09731 17.3687C4.8661 17.6017 5.02985 18 5.35683 18Z" fill="#343A3D"/>
</svg>
