<svg width="24px" height="24px" viewBox="0 0 24 24" version="1.1" xmlns="http://www.w3.org/2000/svg" xmlns:xlink="http://www.w3.org/1999/xlink">
    <g id="Utilidades" stroke="none" stroke-width="1" fill="none" fill-rule="evenodd">
        <g id="Icons" transform="translate(-236.000000, -4051.000000)" fill="#343A3D" fill-rule="nonzero">
            <g id="Group-19" transform="translate(236.000000, 4051.000000)">
                <path d="M16.1582494,3.20089659 C16.482015,3.30881844 16.6049028,3.70221515 16.4001355,3.97523824 C15.5938795,5.05024625 15.5188028,6.09710688 16.0374773,7.37451405 C16.351374,8.1475884 16.6632119,8.65519883 17.7697819,10.3038395 C19.3800808,12.7029684 20.0001355,14.0046982 20.0001355,15.6752382 C20.0001355,17.5699032 19.088521,19.6609609 17.3103094,21.0674017 C17.2220073,21.1372425 17.1127188,21.1752382 17.0001355,21.1752382 L6.00013552,21.1752382 C5.79171324,21.1752382 5.60515288,21.0459518 5.53197093,20.8508 L4.03197093,16.8508 C3.93501087,16.5922398 4.06601364,16.3040337 4.3245738,16.2070737 C4.58313396,16.1101136 4.87134005,16.2411164 4.96830011,16.4996765 L6.34663576,20.1752382 L16.8224734,20.1752382 C18.2613996,18.9706075 19.0001355,17.2304321 19.0001355,15.6752382 C19.0001355,14.2725233 18.4402293,13.0970682 16.9394735,10.8611437 C15.7883951,9.14619157 15.461481,8.61403991 15.1109419,7.75072162 C14.5664868,6.40982108 14.5554696,5.18956537 15.1896918,4.01295135 C12.1172751,3.73085621 8.69503186,8.29013442 10.1371402,13.097218 C10.1970483,13.2969141 10.2611983,13.4997083 10.329594,13.7055427 C10.4371477,14.0292216 10.1961837,14.3632089 9.85510333,14.3632089 C8.34860966,14.3632089 7.19014136,13.3961542 6.38457701,11.5546532 L4.84696529,13.0353898 C4.6480591,13.2269385 4.3315328,13.2209742 4.13998401,13.022068 C3.94843522,12.8231618 3.95439956,12.5066355 4.15330575,12.3150867 L6.23012581,10.3150867 C6.49254099,10.0623781 6.92844856,10.1661449 7.04885701,10.5099838 C7.58699587,12.0466956 8.28214618,12.9357676 9.1377043,13.2416718 C7.49380189,7.42079399 12.1483296,1.86425665 16.1582494,3.20089659 Z" id="Oval"></path>
            </g>
        </g>
    </g>
</svg>