<svg width="24" height="24" viewBox="0 0 24 24" fill="none" xmlns="http://www.w3.org/2000/svg">
<path fill-rule="evenodd" clip-rule="evenodd" d="M13.1396 3.65632C14.26 3.13347 15.4223 3 16.5 3C16.9045 3 17.2691 3.24364 17.4239 3.61732C17.5787 3.99099 17.4931 4.42111 17.2071 4.70711C16.5149 5.39932 16.4147 6.19162 16.6137 7.04219C16.823 7.93664 17.3549 8.80649 17.8 9.39998C17.978 9.63723 18.1614 9.87286 18.3462 10.1102C19.6402 11.7725 21 13.5193 21 16.5C21 17.7695 20.4764 18.9203 19.8979 19.7996C19.3155 20.6849 18.6176 21.3866 18.1247 21.7809C17.9474 21.9227 17.7271 22 17.5 22H6.50003C6.08626 22 5.71522 21.7452 5.56668 21.359L3.06668 14.859C2.92482 14.4901 3.01348 14.0723 3.29291 13.7929L6.29247 10.7933C6.53016 10.5556 6.87182 10.4528 7.20109 10.5204C7.53037 10.588 7.80366 10.8165 7.9285 11.1286C8.36979 12.2318 8.79911 12.7542 9.16333 13.0297C8.866 11.1189 8.86027 8.62264 10.1425 6.4855C10.9847 5.08188 12.004 4.1863 13.1396 3.65632ZM6.71746 13.1968L5.16666 14.7476L7.18683 20H17.1282C17.4548 19.6976 17.8691 19.2445 18.2271 18.7004C18.6903 17.9964 19 17.2305 19 16.5C19 14.24 18.0706 13.0342 16.789 11.3715C16.5998 11.1259 16.4028 10.8704 16.2 10.6C15.6851 9.91348 14.9671 8.78333 14.6663 7.49778C14.4987 6.78135 14.4591 5.99571 14.663 5.21885C14.4301 5.28425 14.2043 5.36656 13.9854 5.46869C13.2461 5.81371 12.5153 6.41813 11.8575 7.51448C10.5833 9.63822 10.976 12.4447 11.4648 14.2369C11.5526 14.5587 11.4741 14.9031 11.2555 15.1552C11.0369 15.4072 10.707 15.5336 10.376 15.4922C9.67228 15.4043 8.83827 15.2562 8.04379 14.6887C7.54499 14.3324 7.10782 13.8455 6.71746 13.1968Z" fill="#343A3D"/>
</svg>
