<svg width="25" height="24" viewBox="0 0 25 24" fill="none" xmlns="http://www.w3.org/2000/svg">
<path d="M8.5415 7.81785C9.33536 5.88753 11.2001 4.5 13.3248 4.5C14.3585 4.5 15.3195 4.80671 16.1278 5.33639C16.5897 5.63912 17.2096 5.51006 17.5123 5.04813C17.815 4.5862 17.686 3.96633 17.224 3.66361C16.1013 2.92784 14.7613 2.5 13.3248 2.5C10.5017 2.5 8.09262 4.21174 6.9177 6.56075C3.74731 7.33846 1.66666 10.1723 1.66666 13.2305C1.66666 14.8805 2.2654 16.4114 3.2303 17.623C3.57436 18.055 4.20349 18.1263 4.63551 17.7822C5.06753 17.4382 5.13884 16.809 4.79478 16.377C4.08733 15.4887 3.66666 14.39 3.66666 13.2305C3.66666 10.9469 5.30967 8.83345 7.78015 8.42405C8.12177 8.36743 8.40979 8.13811 8.5415 7.81785Z" fill="#323439"/>
<path d="M6.59947 20.0079L5.36603 21.2148C4.97128 21.601 4.33815 21.5941 3.9519 21.1994C3.56565 20.8046 3.57253 20.1715 3.96728 19.7852L20.3193 3.78524C20.714 3.39899 21.3471 3.40588 21.7334 3.80063C22.1196 4.19538 22.1128 4.82851 21.718 5.21476L19.946 6.94861C20.1846 7.52191 20.3527 8.1324 20.4393 8.76852C22.2716 9.842 23.4667 11.9484 23.4667 14.184C23.4667 17.5356 20.5863 20.375 17.3017 20.375H8.80167C8.03777 20.375 7.29618 20.2449 6.59947 20.0079ZM18.3567 8.50369L15.8221 10.9837C15.7913 11.0251 15.7568 11.0646 15.7188 11.1018L11.3825 15.3438C11.3456 15.3799 11.3067 15.4125 11.2661 15.4417L8.29594 18.3479C8.46307 18.3658 8.63181 18.375 8.80167 18.375H17.3017C19.4847 18.375 21.4667 16.4281 21.4667 14.184C21.4667 12.4755 20.454 10.9297 19.0884 10.3191C18.7469 10.1664 18.5192 9.83588 18.4982 9.46237C18.4797 9.13352 18.4317 8.8131 18.3567 8.50369Z" fill="#323439"/>
</svg>
