<svg width="25" height="24" viewBox="0 0 25 24" fill="none" xmlns="http://www.w3.org/2000/svg">
<path d="M8.37373 2.29289C7.98321 1.90237 7.35004 1.90237 6.95952 2.29289L2.95952 6.29289C2.56899 6.68342 2.56899 7.31658 2.95952 7.70711C3.35004 8.09763 3.98321 8.09763 4.37373 7.70711L6.66663 5.41421L6.66663 19C6.66663 19.5523 7.11434 20 7.66663 20C8.21891 20 8.66663 19.5523 8.66663 19L8.66663 5.41422L10.9595 7.70711C11.35 8.09763 11.9832 8.09763 12.3737 7.70711C12.7643 7.31658 12.7643 6.68342 12.3737 6.29289L8.37373 2.29289Z" fill="#343A3D"/>
<path d="M18.6666 18.5858L18.6666 5C18.6666 4.44772 18.2189 4 17.6666 4C17.1143 4 16.6666 4.44771 16.6666 5L16.6666 18.5858L14.3737 16.2929C13.9832 15.9024 13.35 15.9024 12.9595 16.2929C12.569 16.6834 12.569 17.3166 12.9595 17.7071L16.9595 21.7071C17.35 22.0976 17.9832 22.0976 18.3737 21.7071L22.3737 17.7071C22.7643 17.3166 22.7643 16.6834 22.3737 16.2929C21.9832 15.9024 21.35 15.9024 20.9595 16.2929L18.6666 18.5858Z" fill="#343A3D"/>
</svg>
