<svg width="24" height="24" viewBox="0 0 24 24" fill="none" xmlns="http://www.w3.org/2000/svg">
<path d="M12 5C12 3.34315 13.4225 2 15 2C16.5775 2 18 3.34315 18 5C18 6.65685 16.5775 8 15 8C13.4225 8 12 6.65685 12 5ZM15 4C14.4742 4 14 4.44772 14 5C14 5.55228 14.4742 6 15 6C15.5258 6 16 5.55228 16 5C16 4.44772 15.5258 4 15 4Z" fill="#343A3D"/>
<path d="M7.35061 7.51898C8.0344 5.98 10.1179 5.98 10.8017 7.51898L14.5234 15.8953L15.8484 12.1842C16.4695 10.4446 18.8164 10.457 19.4209 12.203L21.8837 19.3165C22.3353 20.6209 21.4156 22 20.0942 22H15.7503C15.7472 22 15.744 22 15.7408 22H3.90646C2.51332 22 1.59178 20.4802 2.18092 19.1543L7.35061 7.51898ZM14.2458 20L9.07616 8.36475L3.90646 20L13.8271 20C13.8303 20 13.8335 20 13.8367 20H14.2458ZM16.3472 20H20.0942L17.6313 12.8865L15.6803 18.3511C15.6708 18.3777 15.6604 18.4035 15.649 18.4287L16.3472 20Z" fill="#343A3D"/>
</svg>
