<svg width="24" height="24" viewBox="0 0 24 24" fill="none" xmlns="http://www.w3.org/2000/svg">
<path d="M10.2207 4C9.5751 4 9.00189 4.41315 8.79772 5.02566L8.13961 7H6C5.72386 7 5.5 7.22386 5.5 7.5C5.5 7.77614 5.72386 8 6 8H17V12C17 12.2761 17.2239 12.5 17.5 12.5C17.7761 12.5 18 12.2761 18 12V8H19.3889C20.2682 8 21 8.73207 21 9.65873V17.5C21 18.8807 19.8807 20 18.5 20H18V17C18 16.7239 17.7761 16.5 17.5 16.5C17.2239 16.5 17 16.7239 17 17V20H7V17C7 16.7239 6.77614 16.5 6.5 16.5C6.22386 16.5 6 16.7239 6 17V20H5.5C4.11929 20 3 18.8807 3 17.5V16.5C3 16.2239 2.77614 16 2.5 16C2.22386 16 2 16.2239 2 16.5V17.5C2 19.433 3.567 21 5.5 21H18.5C20.433 21 22 19.433 22 17.5V9.65873C22 8.20093 20.8414 7 19.3889 7H15.8604L15.2023 5.02566C14.9981 4.41315 14.4249 4 13.7792 4H10.2207ZM14.8063 7H9.1937L9.7464 5.34189C9.81446 5.13772 10.0055 5 10.2207 5H13.7792C13.9944 5 14.1855 5.13772 14.2536 5.34189L14.8063 7Z" fill="#323439"/>
<path d="M14.8536 12.3536L11.3536 15.8536C11.1583 16.0488 10.8417 16.0488 10.6464 15.8536L9.14645 14.3536C8.95118 14.1583 8.95118 13.8417 9.14645 13.6464C9.34171 13.4512 9.65829 13.4512 9.85355 13.6464L11 14.7929L14.1464 11.6464C14.3417 11.4512 14.6583 11.4512 14.8536 11.6464C15.0488 11.8417 15.0488 12.1583 14.8536 12.3536Z" fill="#323439"/>
<path d="M2 9.5C1.72386 9.5 1.5 9.72386 1.5 10C1.5 10.2761 1.72386 10.5 2 10.5L6 10.5C6.27614 10.5 6.5 10.2761 6.5 10C6.5 9.72386 6.27614 9.5 6 9.5L2 9.5Z" fill="#323439"/>
<path d="M2.5 12C2.5 11.7239 2.72386 11.5 3 11.5L6 11.5C6.27614 11.5 6.5 11.7239 6.5 12C6.5 12.2761 6.27614 12.5 6 12.5H3C2.72386 12.5 2.5 12.2761 2.5 12Z" fill="#323439"/>
<path d="M4 13.5C3.72386 13.5 3.5 13.7239 3.5 14C3.5 14.2761 3.72386 14.5 4 14.5H6C6.27614 14.5 6.5 14.2761 6.5 14C6.5 13.7239 6.27614 13.5 6 13.5H4Z" fill="#323439"/>
</svg>
