<svg width="24px" height="24px" viewBox="0 0 24 24" version="1.1" xmlns="http://www.w3.org/2000/svg" xmlns:xlink="http://www.w3.org/1999/xlink">
    <g id="Utilidades" stroke="none" stroke-width="1" fill="none" fill-rule="evenodd">
        <g id="Icons" transform="translate(-236.000000, -3969.000000)" fill="#343A3D" fill-rule="nonzero">
            <g id="Group-11" transform="translate(236.000000, 3969.000000)">
                <path d="M8.13962039,6 L8.79773427,4.02565835 C9.00190534,3.41314514 9.57511361,3 10.2207592,3 L13.7792408,3 C14.4248864,3 14.9980947,3.41314514 15.2022657,4.02565835 L15.8603796,6 L19.3888889,6 C20.8334927,6 22,7.19281946 22,8.65873016 L22,16.5 C22,18.4329966 20.4329966,20 18.5,20 L5.5,20 C3.56700338,20 2,18.4329966 2,16.5 L2,12.5143215 C2,12.2381791 2.22385763,12.0143215 2.5,12.0143215 C2.77614237,12.0143215 3,12.2381791 3,12.5143215 L3,16.5 C3,17.8807119 4.11928813,19 5.5,19 L6,19 L6,7 L4.5,7 C4.22385763,7 4,6.77614237 4,6.5 C4,6.22385763 4.22385763,6 4.5,6 L8.13962039,6 Z M9.19371294,6 L14.8062871,6 L14.2535824,4.34188612 C14.1855254,4.13771505 13.994456,4 13.7792408,4 L10.2207592,4 C10.005544,4 9.81447459,4.13771505 9.74641757,4.34188612 L9.19371294,6 Z M7,7 L7,19 L17,19 L17,15.5 C17,15.2238576 17.2238576,15 17.5,15 C17.7761424,15 18,15.2238576 18,15.5 L18,19 L18.5,19 C19.8807119,19 21,17.8807119 21,16.5 L21,8.65873016 C21,7.74017337 20.276154,7 19.3888889,7 L18,7 L18,11.5 C18,11.7761424 17.7761424,12 17.5,12 C17.2238576,12 17,11.7761424 17,11.5 L17,7 L7,7 Z" id="Shape"></path>
            </g>
        </g>
    </g>
</svg>