<svg width="24" height="24" viewBox="0 0 24 24" fill="none" xmlns="http://www.w3.org/2000/svg">
<path d="M10.2207 2.5C9.35987 2.5 8.5956 3.05086 8.32337 3.86754L7.77922 5.5H6C5.44772 5.5 5 5.94772 5 6.5C5 7.05228 5.44772 7.5 6 7.5H16.75V9C16.75 9.41421 17.0858 9.75 17.5 9.75C17.9142 9.75 18.25 9.41421 18.25 9V7.5H19.3889C19.9816 7.5 20.5 7.99764 20.5 8.65873V17.5C20.5 18.6046 19.6046 19.5 18.5 19.5H18.25V18C18.25 17.5858 17.9142 17.25 17.5 17.25C17.0858 17.25 16.75 17.5858 16.75 18V19.5H7.25V18C7.25 17.5858 6.91421 17.25 6.5 17.25C6.08579 17.25 5.75 17.5858 5.75 18V19.5H5.5C4.39543 19.5 3.5 18.6046 3.5 17.5C3.5 16.9477 3.05228 16.5 2.5 16.5C1.94772 16.5 1.5 16.9477 1.5 17.5C1.5 19.7091 3.29086 21.5 5.5 21.5H18.5C20.7091 21.5 22.5 19.7091 22.5 17.5V8.65873C22.5 6.93536 21.128 5.5 19.3889 5.5H16.2207L15.6766 3.86754C15.4044 3.05086 14.6401 2.5 13.7792 2.5H10.2207ZM14.1125 5.5H9.8874L10.2207 4.5H13.7792L14.1125 5.5Z" fill="#343A3D"/>
<path d="M15.0303 10.9697C15.3232 11.2626 15.3232 11.7374 15.0303 12.0303L11.5303 15.5303C11.2374 15.8232 10.7626 15.8232 10.4697 15.5303L8.96967 14.0303C8.67678 13.7374 8.67678 13.2626 8.96967 12.9697C9.26256 12.6768 9.73744 12.6768 10.0303 12.9697L11 13.9393L13.9697 10.9697C14.2626 10.6768 14.7374 10.6768 15.0303 10.9697Z" fill="#343A3D"/>
<path d="M1 8.875C0.654822 8.875 0.375 9.15482 0.375 9.5C0.375 9.84518 0.654822 10.125 1 10.125L6 10.125C6.34518 10.125 6.625 9.84518 6.625 9.5C6.625 9.15482 6.34518 8.875 6 8.875L1 8.875Z" fill="#343A3D"/>
<path d="M1.375 11.7C1.375 11.3548 1.65482 11.075 2 11.075H6C6.34518 11.075 6.625 11.3548 6.625 11.7C6.625 12.0451 6.34518 12.325 6 12.325H2C1.65482 12.325 1.375 12.0451 1.375 11.7Z" fill="#343A3D"/>
<path d="M3 13.2749C2.65482 13.2749 2.375 13.5547 2.375 13.8999C2.375 14.2451 2.65482 14.5249 3 14.5249H6C6.34518 14.5249 6.625 14.2451 6.625 13.8999C6.625 13.5547 6.34518 13.2749 6 13.2749H3Z" fill="#343A3D"/>
</svg>
