<svg width="24" height="24" viewBox="0 0 24 24" fill="none" xmlns="http://www.w3.org/2000/svg">
<path d="M10.4415 3C9.1502 3 8.00379 3.82629 7.59544 5.05132L7.27922 6H5C3.34315 6 2 7.34315 2 9V18C2 19.6569 3.34315 21 5 21H19C20.6569 21 22 19.6569 22 18V9C22 7.34315 20.6569 6 19 6H16.7207L16.4045 5.05132C15.9962 3.82629 14.8497 3 13.5585 3H10.4415ZM14.6125 6H9.3874L9.49281 5.68377C9.62892 5.27543 10.0111 5 10.4415 5H13.5585C13.9889 5 14.371 5.27543 14.5071 5.68377L14.6125 6ZM6 8L6 19H5C4.44772 19 4 18.5523 4 18V9C4 8.44772 4.44772 8 5 8H6ZM16 19H8L8 8H16V19ZM18 19V8H19C19.5523 8 20 8.44772 20 9V18C20 18.5523 19.5523 19 19 19H18Z" fill="#343A3D"/>
</svg>
