<svg width="24" height="24" viewBox="0 0 24 24" fill="none" xmlns="http://www.w3.org/2000/svg">
<path d="M18.7568 2C19.1422 2 19.4547 2.31269 19.4547 2.69841V3.39714H19.7719C21.2934 3.39714 22.5 4.66027 22.5 6.18781C22.5 6.57353 22.1875 6.88622 21.8021 6.88622C21.4167 6.88622 21.1042 6.57353 21.1042 6.18781C21.1042 5.39593 20.4873 4.79397 19.7719 4.79397H17.4864C16.9241 4.79397 16.4215 5.28087 16.4215 5.92478C16.4215 6.37222 16.5193 6.57074 16.6016 6.67388C16.6919 6.78687 16.8459 6.88978 17.1557 6.99843L20.8168 8.25445C21.2274 8.39816 21.6729 8.61581 22.0035 9.03216C22.3416 9.45794 22.4878 9.999 22.4878 10.6473C22.4878 12.0269 21.4071 13.1749 20.0272 13.1749H19.4547V13.873C19.4547 14.2587 19.1422 14.5714 18.7568 14.5714C18.3714 14.5714 18.0589 14.2587 18.0589 13.873V13.1749H17.7417C16.2202 13.1749 15.0136 11.9118 15.0136 10.3843C15.0136 9.99853 15.326 9.68584 15.7115 9.68584C16.0969 9.68584 16.4094 9.99853 16.4094 10.3843C16.4094 11.1761 17.0263 11.7781 17.7417 11.7781H20.0272C20.5924 11.7781 21.0921 11.3001 21.0921 10.6473C21.0921 10.2076 20.9951 10.0074 20.9108 9.90116C20.8191 9.78573 20.6634 9.68078 20.358 9.57366L16.6968 8.31762C16.2906 8.17544 15.8433 7.96171 15.5112 7.54589C15.1712 7.12 15.0258 6.57726 15.0258 5.92478C15.0258 4.56012 16.1035 3.39714 17.4864 3.39714H18.0589V2.69841C18.0589 2.31269 18.3714 2 18.7568 2Z" fill="#343A3D"/>
<path d="M13.1366 5.75466C9.714 5.62927 6.23219 6.87311 3.18576 9.55626C2.76491 9.92692 2.12349 9.88598 1.7531 9.46481C1.38271 9.04364 1.42362 8.40173 1.84447 8.03106C5.24381 5.03709 9.22198 3.57813 13.2109 3.72427C13.7711 3.7448 14.2087 4.21595 14.1882 4.77663C14.1676 5.33731 13.6968 5.77518 13.1366 5.75466Z" fill="#343A3D"/>
<path d="M13.1169 10.838C10.7862 10.7072 8.38151 11.5914 6.2568 13.5963C5.8489 13.9811 5.20644 13.9622 4.82185 13.554C4.43725 13.1458 4.45614 12.5029 4.86405 12.118C7.34014 9.78161 10.2735 8.64355 13.2305 8.80945C13.7903 8.84085 14.2186 9.32042 14.1872 9.88059C14.1559 10.4408 13.6766 10.8694 13.1169 10.838Z" fill="#343A3D"/>
<path d="M8.55637 17.435C9.97882 16.2934 11.564 15.8081 13.0998 15.9207C14.3527 16.0125 15.6176 16.505 16.7764 17.435C17.2137 17.786 17.8526 17.7158 18.2034 17.2781C18.5541 16.8404 18.4839 16.201 18.0466 15.85C16.592 14.6826 14.9416 14.0184 13.2481 13.8943C11.1612 13.7414 9.07679 14.4129 7.28618 15.85C6.84883 16.201 6.77863 16.8404 7.12938 17.2781C7.48014 17.7158 8.11902 17.786 8.55637 17.435Z" fill="#343A3D"/>
<path d="M11.1435 20.4762C11.1435 19.6346 11.8222 18.9524 12.6594 18.9524H12.673C13.5102 18.9524 14.1888 19.6346 14.1888 20.4762C14.1888 21.3178 13.5102 22 12.673 22H12.6594C11.8222 22 11.1435 21.3178 11.1435 20.4762Z" fill="#343A3D"/>
</svg>
