<svg width="24" height="24" viewBox="0 0 24 24" fill="none" xmlns="http://www.w3.org/2000/svg">
<path d="M21 12C21 7.02944 16.9706 3 12 3C7.02944 3 3 7.02944 3 12C3 16.9706 7.02944 21 12 21C16.9706 21 21 16.9706 21 12ZM15 9C15 8.44772 14.5523 8.00001 14 8H11C10.4477 8 10 8.44771 10 9V12H14C14.5523 12 15 11.5523 15 11V9ZM23 12C23 18.0751 18.0751 23 12 23C5.92487 23 1 18.0751 1 12C1 5.92487 5.92487 1 12 1C18.0751 1 23 5.92487 23 12ZM17 11C17 12.6568 15.6568 14 14 14H10V17C10 17.5523 9.55228 18 9 18C8.44772 18 8 17.5523 8 17V9C8 7.34315 9.34315 6 11 6H14C15.6568 6.00001 17 7.34315 17 9V11Z" fill="#323439"/>
</svg>
