<svg width="24" height="24" viewBox="0 0 24 24" fill="none" xmlns="http://www.w3.org/2000/svg">
<path d="M1 12C1 9.32297 1.95845 6.86887 3.54785 4.96191L1.29297 2.70703C0.902444 2.31651 0.902444 1.68349 1.29297 1.29297C1.68349 0.902444 2.31651 0.902444 2.70703 1.29297L13.4141 12H14C14.5523 12 15 11.5523 15 11V9C15 8.44772 14.5523 8 14 8H12C11.4477 8 11 7.55228 11 7C11 6.44772 11.4477 6 12 6H14C15.6569 6 17 7.34315 17 9V11C17 12.2398 16.2477 13.3036 15.1748 13.7607L22.707 21.293L22.7754 21.3691C23.0957 21.7619 23.0731 22.3409 22.707 22.707C22.3409 23.0731 21.7619 23.0957 21.3691 22.7754L21.293 22.707L19.0371 20.4512C17.1302 22.0405 14.677 23 12 23C5.92487 23 1 18.0751 1 12ZM21 12C21 7.02944 16.9706 3 12 3C10.7182 3 9.50139 3.26702 8.40039 3.74805C7.89433 3.96915 7.30513 3.73845 7.08398 3.23242C6.86288 2.72637 7.0936 2.13718 7.59961 1.91602C8.94842 1.3267 10.4374 1 12 1C18.0751 1 23 5.92487 23 12C23 13.5626 22.6733 15.0516 22.084 16.4004C21.8628 16.9064 21.2736 17.1371 20.7676 16.916C20.2616 16.6949 20.0308 16.1057 20.252 15.5996C20.733 14.4986 21 13.2818 21 12ZM3 12C3 16.9706 7.02944 21 12 21C14.1254 21 16.0761 20.2625 17.6162 19.0303L12.5859 14H10V17C10 17.5523 9.55228 18 9 18C8.44772 18 8 17.5523 8 17V9.5C8 9.47236 8.00171 9.44504 8.00391 9.41797L4.96875 6.38281C3.7365 7.92293 3 9.87451 3 12Z" fill="#323439"/>
</svg>
