<svg width="24" height="24" viewBox="0 0 24 24" fill="none" xmlns="http://www.w3.org/2000/svg">
<path d="M1.29289 1.29289C1.68342 0.902369 2.31658 0.902369 2.70711 1.29289L12.4142 11H14C14.5523 11 15 11.4477 15 12C15 12.4288 14.7301 12.7946 14.3509 12.9367L22.7071 21.2929C23.0976 21.6834 23.0976 22.3166 22.7071 22.7071C22.3166 23.0976 21.6834 23.0976 21.2929 22.7071L19.039 20.4532C17.1321 22.0427 14.677 23 12 23C5.92487 23 1 18.0751 1 12C1 9.32296 1.95735 6.86793 3.54676 4.96097L1.29289 2.70711C0.902369 2.31658 0.902369 1.68342 1.29289 1.29289ZM4.96806 6.38227C3.73581 7.92239 3 9.87452 3 12C3 16.9706 7.02944 21 12 21C14.1255 21 16.0776 20.2642 17.6177 19.0319L15.9367 17.3509C15.7946 17.7301 15.4288 18 15 18H11C9.34315 18 8 16.6569 8 15V9.41421L4.96806 6.38227ZM11.5858 13H10V15C10 15.5523 10.4477 16 11 16H14.5858L11.5858 13Z" fill="#343A3D"/>
<path d="M8.40037 3.74844C9.50142 3.26737 10.7182 3 12 3C16.9706 3 21 7.02944 21 12C21 13.2818 20.7326 14.4986 20.2516 15.5996C20.0304 16.1057 20.2615 16.6952 20.7675 16.9164C21.2736 17.1375 21.8631 16.9065 22.0843 16.4004C22.6736 15.0516 23 13.5626 23 12C23 5.92487 18.0751 1 12 1C10.4374 1 8.94843 1.32642 7.59963 1.91573C7.09354 2.13685 6.86253 2.72637 7.08365 3.23246C7.30477 3.73855 7.89428 3.96956 8.40037 3.74844Z" fill="#343A3D"/>
<path d="M14 8C14.5523 8 15 7.55228 15 7C15 6.44772 14.5523 6 14 6H12C11.4477 6 11 6.44772 11 7C11 7.55228 11.4477 8 12 8H14Z" fill="#343A3D"/>
</svg>
