<svg width="24" height="24" viewBox="0 0 24 24" fill="none" xmlns="http://www.w3.org/2000/svg">
<path d="M8 9C8 7.34315 9.34315 6 11 6H15C15.5523 6 16 6.44772 16 7C16 7.55228 15.5523 8 15 8H11C10.4477 8 10 8.44772 10 9V11H13C13.5523 11 14 11.4477 14 12C14 12.5523 13.5523 13 13 13H10V15C10 15.5523 10.4477 16 11 16H15C15.5523 16 16 16.4477 16 17C16 17.5523 15.5523 18 15 18H11C9.34315 18 8 16.6569 8 15V9Z" fill="#343A3D"/>
<path fill-rule="evenodd" clip-rule="evenodd" d="M1 12C1 5.92487 5.92487 1 12 1C18.0751 1 23 5.92487 23 12C23 18.0751 18.0751 23 12 23C5.92487 23 1 18.0751 1 12ZM12 3C7.02944 3 3 7.02944 3 12C3 16.9706 7.02944 21 12 21C16.9706 21 21 16.9706 21 12C21 7.02944 16.9706 3 12 3Z" fill="#343A3D"/>
</svg>
