<svg width="24" height="24" viewBox="0 0 24 24" fill="none" xmlns="http://www.w3.org/2000/svg">
<path d="M13.3779 4.40741C12.9094 4.40741 12.526 4.02407 12.526 3.55556V1.85185C12.526 1.38333 12.9094 1 13.3779 1C13.8464 1 14.2297 1.38333 14.2297 1.85185V3.55556C14.2297 4.02407 13.8464 4.40741 13.3779 4.40741ZM7.35528 6.405L6.14991 5.19963C5.81769 4.86741 5.81769 4.32648 6.14991 3.99426C6.48213 3.66204 7.02306 3.66204 7.35528 3.99426L8.56065 5.19963C8.89288 5.53185 8.89288 6.07278 8.56065 6.405C8.22843 6.73722 7.68751 6.73722 7.35528 6.405ZM10.9671 8.81574C11.5805 8.19815 12.4366 7.81481 13.3779 7.81481C15.2605 7.81481 16.7853 9.33963 16.7853 11.2222C16.7853 11.4437 16.764 11.6609 16.7214 11.8739C15.9845 11.4607 15.1369 11.2222 14.2297 11.2222C13.9316 11.2222 13.6462 11.2606 13.3651 11.3117C12.7901 10.2852 11.9638 9.42907 10.9671 8.81574ZM2.3038 14.6296C2.3038 11.8057 4.59102 9.51852 7.41491 9.51852C9.83843 9.51852 11.8573 11.2094 12.3855 13.4754C12.9179 13.1304 13.5482 12.9259 14.2297 12.9259C16.1123 12.9259 17.6371 14.4507 17.6371 16.3333C17.6371 18.2159 16.1123 19.7407 14.2297 19.7407H7.41491C4.59102 19.7407 2.3038 17.4535 2.3038 14.6296ZM19.3408 16.3333C19.3408 15.0854 18.8894 13.9396 18.144 13.0537C18.3655 12.483 18.489 11.8696 18.489 11.2222C18.489 8.39833 16.2018 6.11111 13.3779 6.11111C11.7338 6.11111 10.2771 6.89056 9.3401 8.09593C8.73102 7.91278 8.08362 7.81481 7.41491 7.81481C3.64973 7.81481 0.600098 10.8644 0.600098 14.6296C0.600098 18.3948 3.64973 21.4444 7.41491 21.4444H14.2297C17.0536 21.4444 19.3408 19.1572 19.3408 16.3333ZM19.4005 6.405C19.0682 6.73722 18.5273 6.73722 18.1951 6.405C17.8629 6.07278 17.8629 5.53185 18.1951 5.19963L19.4005 3.99426C19.7327 3.66204 20.2736 3.66204 20.6058 3.99426C20.9381 4.32648 20.9381 4.86741 20.6058 5.19963L19.4005 6.405ZM21.0445 12.0741H22.7482C23.2168 12.0741 23.6001 11.6907 23.6001 11.2222C23.6001 10.7537 23.2168 10.3704 22.7482 10.3704H21.0445C20.576 10.3704 20.1927 10.7537 20.1927 11.2222C20.1927 11.6907 20.576 12.0741 21.0445 12.0741Z" fill="#444444"/>
</svg>
