<svg width="24" height="24" viewBox="0 0 24 24" fill="none" xmlns="http://www.w3.org/2000/svg">
<path d="M5 7C5 4.79086 6.79086 3 9 3C11.2091 3 13 4.79086 13 7C13 9.20914 11.2091 11 9 11C6.79086 11 5 9.20914 5 7ZM9 5C7.89543 5 7 5.89543 7 7C7 8.10457 7.89543 9 9 9C10.1046 9 11 8.10457 11 7C11 5.89543 10.1046 5 9 5Z" fill="#343A3D"/>
<path d="M17 7.25C15.4812 7.25 14.25 8.48122 14.25 10C14.25 11.5188 15.4812 12.75 17 12.75C18.5188 12.75 19.75 11.5188 19.75 10C19.75 8.48122 18.5188 7.25 17 7.25ZM15.75 10C15.75 9.30964 16.3096 8.75 17 8.75C17.6904 8.75 18.25 9.30964 18.25 10C18.25 10.6904 17.6904 11.25 17 11.25C16.3096 11.25 15.75 10.6904 15.75 10Z" fill="#343A3D"/>
<path d="M14.749 14.4368C13.2946 12.9341 11.2564 12 9 12C4.58172 12 1 15.5817 1 20C1 20.5523 1.44772 21 2 21H21.9999C22.5522 21 22.9999 20.5523 22.9999 20C22.9999 16.6863 20.3136 14 16.9999 14C16.2051 14 15.4448 14.155 14.749 14.4368ZM16.0009 16.1255C16.3198 16.0436 16.6544 16 16.9999 16C18.8638 16 20.4299 17.2748 20.8739 19H16.9381C16.8094 17.9679 16.4841 16.9969 16.0009 16.1255ZM9 14C11.973 14 14.441 16.1623 14.917 19H3.08296C3.55904 16.1623 6.027 14 9 14Z" fill="#343A3D"/>
</svg>
