<svg width="24" height="24" viewBox="0 0 24 24" fill="none" xmlns="http://www.w3.org/2000/svg">
<path fill-rule="evenodd" clip-rule="evenodd" d="M12 3C7.02944 3 3 7.02944 3 12C3 16.9706 7.02944 21 12 21C16.9706 21 21 16.9706 21 12C21 11.4477 21.4477 11 22 11C22.5523 11 23 11.4477 23 12C23 18.0751 18.0751 23 12 23C5.92487 23 1 18.0751 1 12C1 5.92487 5.92487 1 12 1C14.9379 1 17.8851 2.30232 20.0001 4.25643L20 3.00008C20 2.44779 20.4478 2.00008 21 2.00007C21.5523 2.00007 22 2.44779 22 3.00007L22.0001 7.00008C22.0001 7.26531 21.8947 7.51967 21.7071 7.70721C21.5196 7.89475 21.2652 8.0001 21 8.00009L16.9999 7.99991C16.4476 7.99989 15.9999 7.55215 15.9999 6.99987C16 6.44758 16.4477 5.99989 17 5.99991L18.9288 6C17.1601 4.22718 14.5488 3 12 3Z" fill="#343A3D"/>
<path fill-rule="evenodd" clip-rule="evenodd" d="M12 7.125C12.4142 7.125 12.75 7.46079 12.75 7.875V8.25C12.75 8.27639 12.7486 8.30247 12.746 8.32816C13.162 8.39325 13.5704 8.52263 13.9263 8.73141C14.5243 9.08212 15 9.68353 15 10.5279C15 10.9421 14.6642 11.2779 14.25 11.2779C13.8358 11.2779 13.5 10.9421 13.5 10.5279C13.5 10.3291 13.4132 10.1694 13.1674 10.0253C12.897 9.86664 12.4813 9.76822 12.0143 9.7771C11.5487 9.78595 11.1222 9.89988 10.8386 10.0698C10.565 10.2338 10.5 10.3923 10.5 10.5279C10.5 10.6251 10.5197 10.7294 10.8091 10.8855C11.1329 11.0601 11.5951 11.183 12.1856 11.3338C12.2021 11.338 12.2187 11.3422 12.2354 11.3465C12.7608 11.4805 13.3987 11.6432 13.9025 11.9146C14.4566 12.213 15 12.7309 15 13.5913C15 14.4196 14.4947 14.9923 13.9168 15.32C13.5655 15.5192 13.1618 15.6473 12.7492 15.7157C12.7497 15.727 12.75 15.7385 12.75 15.75V16.125C12.75 16.5392 12.4142 16.875 12 16.875C11.5858 16.875 11.25 16.5392 11.25 16.125V15.75C11.25 15.7386 11.2503 15.7273 11.2508 15.716C10.8384 15.6478 10.4348 15.52 10.0836 15.3211C9.50579 14.994 9 14.4216 9 13.5935C9 13.1793 9.33579 12.8435 9.75 12.8435C10.1642 12.8435 10.5 13.1793 10.5 13.5935C10.5 13.7209 10.5567 13.8653 10.8226 14.0158C11.1025 14.1742 11.5285 14.2767 11.9998 14.2766C12.4712 14.2764 12.8971 14.1738 13.177 14.0151C13.4428 13.8644 13.5 13.7197 13.5 13.5913C13.5 13.4952 13.4809 13.3912 13.1912 13.2352C12.8673 13.0607 12.405 12.9379 11.8144 12.7871C11.7984 12.783 11.7822 12.7789 11.7659 12.7747C11.2402 12.6406 10.6015 12.4777 10.0971 12.2057C9.54278 11.9068 9 11.3885 9 10.5279C9 9.70589 9.49749 9.12477 10.0676 8.78313C10.4233 8.57 10.8348 8.42866 11.2567 8.35067C11.2523 8.31774 11.25 8.28414 11.25 8.25V7.875C11.25 7.46079 11.5858 7.125 12 7.125Z" fill="#343A3D"/>
</svg>
