<svg width="24" height="24" viewBox="0 0 24 24" fill="none" xmlns="http://www.w3.org/2000/svg">
<path d="M17.5 4.34529L17.5161 4.40077C17.6744 4.94615 18.0312 5.40387 18.5044 5.69484L19.8139 6.5L18.5044 7.30516C18.0312 7.59613 17.6744 8.05385 17.5161 8.59923L17.5 8.65471L17.4839 8.59923C17.3256 8.05385 16.9688 7.59613 16.4956 7.30516L15.1861 6.5L16.4956 5.69484C16.9688 5.40387 17.3256 4.94614 17.4839 4.40077L17.5 4.34529ZM18.2512 1.55201C18.0376 0.815998 16.9624 0.815997 16.7488 1.55201L16.0433 3.98268C15.9912 4.16242 15.8724 4.31712 15.7099 4.41707L13.3627 5.86032C12.8791 6.15768 12.8791 6.84232 13.3627 7.13968L15.7099 8.58293C15.8724 8.68288 15.9912 8.83758 16.0433 9.01732L16.7488 11.448C16.9624 12.184 18.0376 12.184 18.2512 11.448L18.9567 9.01732C19.0088 8.83758 19.1276 8.68288 19.2901 8.58293L21.6373 7.13968C22.1209 6.84232 22.1209 6.15768 21.6373 5.86032L19.2901 4.41707C19.1276 4.31712 19.0088 4.16242 18.9567 3.98268L18.2512 1.55201Z" fill="#343A3D"/>
<path d="M12 3C7.02944 3 3 7.02944 3 12C3 16.9706 7.02944 21 12 21C16.9706 21 21 16.9706 21 12C21 11.44 20.949 10.8928 20.8516 10.3625C20.7518 9.81928 21.1113 9.29805 21.6545 9.19827C22.1976 9.0985 22.7189 9.45796 22.8187 10.0012C22.9379 10.6501 23 11.3182 23 12C23 18.0751 18.0751 23 12 23C5.92487 23 1 18.0751 1 12C1 5.92487 5.92487 1 12 1C12.6818 1 13.3499 1.06215 13.9988 1.18134C14.542 1.28112 14.9015 1.80235 14.8017 2.34555C14.702 2.88875 14.1807 3.24821 13.6375 3.14843C13.1072 3.05103 12.56 3 12 3Z" fill="#343A3D"/>
</svg>
