<svg width="24" height="24" viewBox="0 0 24 24" fill="none" xmlns="http://www.w3.org/2000/svg">
<path fill-rule="evenodd" clip-rule="evenodd" d="M9 4C8.64441 4 8 4.45181 8 5.5C8 6.54819 8.64441 7 9 7C9.35559 7 10 6.54819 10 5.5C10 4.45181 9.35559 4 9 4ZM6 5.5C6 3.78677 7.14645 2 9 2C10.8536 2 12 3.78677 12 5.5C12 7.21323 10.8536 9 9 9C7.14645 9 6 7.21323 6 5.5ZM16 4C15.6444 4 15 4.45181 15 5.5C15 6.54819 15.6444 7 16 7C16.3556 7 17 6.54819 17 5.5C17 4.45181 16.3556 4 16 4ZM13 5.5C13 3.78677 14.1464 2 16 2C17.8536 2 19 3.78677 19 5.5C19 7.21323 17.8536 9 16 9C14.1464 9 13 7.21323 13 5.5ZM4 9C3.64441 9 3 9.45181 3 10.5C3 11.5482 3.64441 12 4 12C4.35559 12 5 11.5482 5 10.5C5 9.45181 4.35559 9 4 9ZM1 10.5C1 8.78677 2.14645 7 4 7C5.85355 7 7 8.78677 7 10.5C7 12.2132 5.85355 14 4 14C2.14645 14 1 12.2132 1 10.5ZM20 10C19.6444 10 19 10.4518 19 11.5C19 12.5482 19.6444 13 20 13C20.3556 13 21 12.5482 21 11.5C21 10.4518 20.3556 10 20 10ZM17 11.5C17 9.78677 18.1464 8 20 8C21.8536 8 23 9.78677 23 11.5C23 13.2132 21.8536 15 20 15C18.1464 15 17 13.2132 17 11.5ZM9.5656 10.8667C10.2593 10.3085 11.1137 10 12 10C12.8863 10 13.7407 10.3085 14.4344 10.8667C15.1269 11.4238 15.6204 12.1975 15.8534 13.0636C16.0537 13.8085 16.5153 14.4197 17.1161 14.7808C17.8324 15.1995 18.3856 15.8523 18.7019 16.6254C19.0189 17.4 19.0847 18.2612 18.8916 19.0768C18.6984 19.8928 18.2539 20.6291 17.6144 21.1629C16.9736 21.6977 16.1744 21.997 15.3421 22L15.3391 22C14.8395 22.0003 14.3467 21.8947 13.8897 21.6912C13.2884 21.425 12.6465 21.2889 12 21.2889C11.3533 21.2889 10.7112 21.425 10.1098 21.6914L10.1121 21.6904C9.6546 21.8944 9.16112 22.0003 8.66093 22L8.65794 22C7.82558 21.997 7.02643 21.6977 6.38562 21.1629C5.74612 20.6291 5.30159 19.8928 5.10842 19.0768C4.91534 18.2612 4.9811 17.4 5.29809 16.6254C5.61444 15.8523 6.16759 15.1995 6.88391 14.7808C7.48468 14.4197 7.94626 13.8085 8.1466 13.0636C8.37956 12.1975 8.87311 11.4238 9.5656 10.8667ZM12 12C11.582 12 11.1675 12.1448 10.8193 12.4249C10.4699 12.706 10.2052 13.11 10.078 13.5831C9.74917 14.8055 8.97676 15.8593 7.90642 16.4996L7.89606 16.5058C7.57421 16.6932 7.30676 16.9976 7.14911 17.3828C6.99122 17.7687 6.95702 18.2038 7.05463 18.6161C7.15216 19.028 7.37246 19.3814 7.66721 19.6274C7.96015 19.872 8.31088 19.9983 8.66352 20C8.87918 20 9.09448 19.9544 9.2976 19.8638L9.29985 19.8628C10.1536 19.4846 11.0714 19.2889 12 19.2889C12.9286 19.2889 13.8464 19.4846 14.7001 19.8628L14.7024 19.8638C14.9055 19.9544 15.1208 20 15.3365 20C15.6891 19.9983 16.0398 19.872 16.3328 19.6274C16.6275 19.3814 16.8478 19.028 16.9454 18.6161C17.043 18.2038 17.0088 17.7687 16.8509 17.3828C16.6932 16.9976 16.4258 16.6931 16.104 16.5058L16.0935 16.4997C15.0232 15.8593 14.2508 14.8055 13.922 13.5831C13.7948 13.11 13.5301 12.706 13.1807 12.4249C12.8325 12.1448 12.418 12 12 12Z" fill="#343A3D"/>
</svg>
