<svg width="24" height="24" viewBox="0 0 24 24" fill="none" xmlns="http://www.w3.org/2000/svg">
<path fill-rule="evenodd" clip-rule="evenodd" d="M5 5.5C5 3.78677 6.14645 2 8 2C9.85355 2 11 3.78677 11 5.5C11 7.21323 9.85355 9 8 9C7.92792 9 7.85691 8.9973 7.787 8.992L16.9992 18.2042C17.0071 17.9227 16.9568 17.6417 16.8509 17.3828C16.6932 16.9976 16.4258 16.6931 16.104 16.5058L16.0935 16.4997C15.0232 15.8593 14.2508 14.8055 13.922 13.5831C13.7948 13.11 13.5301 12.706 13.1807 12.4249C12.8325 12.1448 12.418 12 12 12C11.4477 12 11 11.5523 11 11C11 10.4477 11.4477 10 12 10C12.8863 10 13.7407 10.3085 14.4344 10.8667C15.1269 11.4238 15.6204 12.1975 15.8534 13.0636C16.0537 13.8085 16.5153 14.4197 17.1161 14.7808C17.8324 15.1995 18.3856 15.8523 18.7019 16.6254C19.0189 17.4 19.0847 18.2612 18.8916 19.0768C18.8309 19.3332 18.6765 19.5429 18.4734 19.6784L18.9669 20.1719C19.3575 20.5625 19.3575 21.1956 18.9669 21.5862C18.5764 21.9767 17.9432 21.9767 17.5527 21.5862L1.43948 5.47291C1.04895 5.08238 1.04895 4.44922 1.43948 4.05869C1.83 3.66817 2.46316 3.66817 2.85369 4.05869L5.0787 6.28371C5.02676 6.02518 5 5.76173 5 5.5ZM8 4C7.64441 4 7 4.45181 7 5.5C7 6.54819 7.64441 7 8 7C8.35559 7 9 6.54819 9 5.5C9 4.45181 8.35559 4 8 4ZM12 5.5C12 3.78677 13.1464 2 15 2C16.8536 2 18 3.78677 18 5.5C18 7.21323 16.8536 9 15 9C13.1464 9 12 7.21323 12 5.5ZM15 4C14.6444 4 14 4.45181 14 5.5C14 6.54819 14.6444 7 15 7C15.3556 7 16 6.54819 16 5.5C16 4.45181 15.3556 4 15 4ZM17 10.5C17 8.78677 18.1464 7 20 7C21.8536 7 23 8.78677 23 10.5C23 12.2132 21.8536 14 20 14C18.1464 14 17 12.2132 17 10.5ZM20 9C19.6444 9 19 9.45181 19 10.5C19 11.5482 19.6444 12 20 12C20.3556 12 21 11.5482 21 10.5C21 9.45181 20.3556 9 20 9ZM3.41892 8.85479C3.81631 9.23833 3.82755 9.87139 3.44401 10.2688C3.19782 10.5239 3 10.9596 3 11.5C3 12.5482 3.64441 13 4 13C4.13686 13 4.35189 12.938 4.58098 12.7668C4.80564 12.5989 4.97883 12.3729 5.06433 12.1466C5.2595 11.63 5.83655 11.3693 6.35319 11.5645C6.86984 11.7597 7.13045 12.3367 6.93528 12.8534C6.70064 13.4745 6.27367 13.9985 5.77833 14.3688C5.28741 14.7357 4.6626 15 4 15C2.14645 15 1 13.2132 1 11.5C1 10.491 1.36597 9.54193 2.00493 8.87989C2.38846 8.48249 3.02153 8.47126 3.41892 8.85479ZM8.86427 14.497C9.14208 14.9743 8.98035 15.5865 8.50303 15.8643C8.3855 15.9327 8.0871 16.1889 7.75102 16.5647C7.41156 16.9443 7.19856 17.262 7.14911 17.3828C6.99122 17.7687 6.95702 18.2038 7.05463 18.6161C7.15216 19.028 7.37246 19.3814 7.66721 19.6274C7.96026 19.872 8.31113 19.9984 8.6639 20C8.87943 19.9999 9.0946 19.9543 9.2976 19.8638L9.29985 19.8628C10.1536 19.4846 11.0714 19.2889 12 19.2889C12.9286 19.2889 13.8464 19.4846 14.7001 19.8628C15.2051 20.0864 15.4331 20.6771 15.2095 21.1821C14.9858 21.6871 14.3951 21.9151 13.8902 21.6914C13.2888 21.425 12.6467 21.2889 12 21.2889C11.3533 21.2889 10.7112 21.425 10.1098 21.6914L10.1121 21.6904C9.6546 21.8944 9.16112 22.0003 8.66093 22L8.65794 22C7.82558 21.997 7.02643 21.6977 6.38562 21.1629C5.74612 20.6291 5.30159 19.8928 5.10842 19.0768C4.91534 18.2612 4.9811 17.4 5.29809 16.6254C5.48608 16.166 5.90101 15.6331 6.26025 15.2314C6.62287 14.826 7.09395 14.3703 7.49697 14.1357C7.9743 13.8579 8.58646 14.0197 8.86427 14.497Z" fill="#343A3D"/>
</svg>
