<svg width="24" height="24" viewBox="0 0 24 24" fill="none" xmlns="http://www.w3.org/2000/svg">
<path fill-rule="evenodd" clip-rule="evenodd" d="M4.65486 3.82582C4.12268 3.82582 3.78894 4.24034 3.83016 4.6429C4.66062 12.7546 11.2613 19.3398 19.3573 20.1698C19.7597 20.2111 20.1742 19.8775 20.1742 19.3452V15.4145C20.1742 14.9682 19.8516 14.5874 19.4114 14.514L17.5856 14.2097C17.0291 14.117 16.5226 14.5461 16.5226 15.1102V15.288C16.5226 16.5319 15.2413 17.5069 14.0015 16.9068C11.3197 15.6086 8.44066 13.3304 7.0121 10.664C6.43335 9.58382 7.14469 8.42448 8.16397 8.16966L8.96347 7.96978C9.46963 7.84324 9.76698 7.31896 9.61579 6.81959L8.90571 4.47419C8.78914 4.08916 8.43427 3.82582 8.03197 3.82582H4.65486ZM2.01385 4.82885C1.84967 3.22517 3.17032 2 4.65486 2H8.03197C9.23885 2 10.3035 2.79002 10.6532 3.94513L11.3633 6.29053C11.8168 7.78861 10.9248 9.36145 9.40629 9.74108L8.6867 9.92098C9.88336 12.0628 12.3074 14.036 14.6968 15.2144V15.1102C14.6968 13.4178 16.2164 12.1305 17.8857 12.4087L19.7115 12.713C21.0321 12.9331 22 14.0757 22 15.4145V19.3452C22 20.8298 20.7749 22.1505 19.1711 21.9861C10.2153 21.068 2.93261 13.8031 2.01385 4.82885Z" fill="#343A3D"/>
</svg>
