<svg width="24" height="24" viewBox="0 0 24 24" fill="none" xmlns="http://www.w3.org/2000/svg">
<path d="M22 6C22 7.86384 20.7252 9.42994 19 9.87398V21C19 21.5523 18.5523 22 18 22C17.4477 22 17 21.5523 17 21V9.87398C15.2748 9.42994 14 7.86384 14 6C14 3.79086 15.7909 2 18 2C20.2091 2 22 3.79086 22 6ZM18 8C19.1046 8 20 7.10457 20 6C20 4.89543 19.1046 4 18 4C16.8954 4 16 4.89543 16 6C16 7.10457 16.8954 8 18 8Z" fill="#343A3D"/>
<path d="M10 16C9.44772 16 9 16.4477 9 17C9 17.5523 9.44772 18 10 18C10.5523 18 11 17.5523 11 17C11 16.4477 10.5523 16 10 16Z" fill="#343A3D"/>
<path d="M5 17C5 16.4477 5.44772 16 6 16C6.55228 16 7 16.4477 7 17C7 17.5523 6.55228 18 6 18C5.44772 18 5 17.5523 5 17Z" fill="#343A3D"/>
<path d="M2.00354 8.99778L2.00354 8.99951C2.00354 10.3879 2.00266 12.7632 2.00177 14.8536L2 19C2 19.2589 2.00876 19.5303 2.05748 19.7741C2.10817 20.0278 2.22429 20.3671 2.53187 20.6323C2.82786 20.8876 3.16381 20.953 3.3727 20.9776C3.56561 21.0002 3.78583 21.0001 3.96753 21L4 21C4 21.5523 4.44772 22 5 22C5.55228 22 6 21.5523 6 21H10C10 21.5523 10.4477 22 11 22C11.5523 22 12 21.5523 12 21C12.0116 21 12.0253 21.0002 12.0409 21.0004C12.2473 21.0028 12.7883 21.0092 13.2417 20.7077C13.8408 20.3092 14.0013 19.6362 14.0035 19.0035L14.0035 19V9.25781C14.0035 9.25781 14.0291 9.41045 14.0007 8.90968C13.9983 8.8681 13.9941 8.81491 13.9865 8.75174C13.9713 8.62572 13.9426 8.45804 13.8881 8.26257C13.7789 7.87114 13.5643 7.36221 13.1446 6.85929C12.278 5.82081 10.707 5 8.00003 5C5.29315 5 3.7232 5.82077 2.85811 6.86035C2.43923 7.36372 2.22562 7.87304 2.1173 8.26466C2.06321 8.46023 2.03489 8.62798 2.02003 8.75404C2.01258 8.81722 2.00846 8.87042 2.0062 8.91201C2.00506 8.93283 2.0044 8.95079 2.00401 8.9657L2.00363 8.98578L2.00356 8.99407L2.00354 8.99778ZM2.01152 9C2.00354 8.99985 2.00354 8.99951 2.00354 8.99951L2.01152 9ZM5 18.9937C4.96171 18.9937 4.92392 18.9958 4.88675 19H4L4.00171 15H12.0035L12.0035 18.9982L12.0035 19H5.11325C5.07608 18.9958 5.03829 18.9937 5 18.9937ZM12.0035 10V13H4.00252L4.00343 10H12.0035ZM4.52338 8C4.97196 7.55359 5.92979 7 8.00003 7C10.0689 7 11.0289 7.55293 11.4797 8H4.52338Z" fill="#343A3D"/>
</svg>
