<svg width="25" height="24" viewBox="0 0 25 24" fill="none" xmlns="http://www.w3.org/2000/svg">
<path fill-rule="evenodd" clip-rule="evenodd" d="M6.66663 9C6.66663 7.34315 8.00977 6 9.66663 6C11.3235 6 12.6666 7.34315 12.6666 9C12.6666 10.6569 11.3235 12 9.66663 12C8.00977 12 6.66663 10.6569 6.66663 9ZM9.66663 8C9.11434 8 8.66663 8.44772 8.66663 9C8.66663 9.55228 9.11434 10 9.66663 10C10.2189 10 10.6666 9.55228 10.6666 9C10.6666 8.44772 10.2189 8 9.66663 8Z" fill="#343A3D"/>
<path fill-rule="evenodd" clip-rule="evenodd" d="M2.66663 5C2.66663 3.34315 4.00977 2 5.66663 2H19.6666C21.3235 2 22.6666 3.34315 22.6666 5V19C22.6666 20.6569 21.3235 22 19.6666 22H5.66663C4.00977 22 2.66663 20.6569 2.66663 19V5ZM5.66663 4C5.11434 4 4.66663 4.44772 4.66663 5V16.1315L8.00254 13.9075C9.01024 13.2357 10.323 13.2357 11.3307 13.9075L11.9788 14.3396C12.3473 14.5852 12.8335 14.5593 13.1737 14.2757L16.8792 11.1878C17.8999 10.3372 19.3584 10.2593 20.4639 10.9963L20.6666 11.1315V5C20.6666 4.44772 20.2189 4 19.6666 4H5.66663ZM20.6666 13.5352L19.3545 12.6604C18.986 12.4147 18.4998 12.4407 18.1596 12.7242L14.454 15.8122C13.4334 16.6627 11.9749 16.7406 10.8694 16.0037L10.2213 15.5716C9.88544 15.3477 9.44784 15.3477 9.11194 15.5716L4.66663 18.5352V19C4.66663 19.5523 5.11434 20 5.66663 20H19.6666C20.2189 20 20.6666 19.5523 20.6666 19V13.5352Z" fill="#343A3D"/>
</svg>
