<svg width="24" height="24" viewBox="0 0 24 24" fill="none" xmlns="http://www.w3.org/2000/svg">
<path d="M22.7042 6.79289C23.0986 7.18342 23.0986 7.81658 22.7042 8.20711L21.1891 9.70711C20.2679 10.6191 18.8395 9.20484 19.7606 8.29289L21.2757 6.79289C21.6702 6.40237 22.3097 6.40237 22.7042 6.79289Z" fill="#343A3D"/>
<path d="M4.56674 3.3382C4.75848 3.12317 5.03425 3 5.32397 3H6.60062C8.1491 3 9.58109 3.75913 10.4433 5H14.6628C19.9642 5 23.6932 10.4772 21.7305 15.3351L21.0452 17.0313L21.0543 17.0585C21.7072 18.9976 20.2494 21 18.1848 21C17.0392 21 15.9918 20.3592 15.4795 19.3447L15.4145 19.216C13.7713 19.6844 12.0276 19.6844 10.3844 19.216L10.3122 19.359C9.80429 20.3647 8.76603 21 7.6303 21C5.66477 21 4.2604 19.172 4.71538 17.3333L3.78427 16H3.62686C2.6639 16 1.83481 15.3271 1.64596 14.3922L1.03992 11.3922C0.789908 10.1547 1.74602 9 3.02082 9H3.39048L4.76546 7.63873L4.3217 4.12403C4.28576 3.83942 4.37501 3.55323 4.56674 3.3382ZM8.85908 10C8.85908 9.44772 8.40686 9 7.84901 9C7.29117 9 6.83895 9.44772 6.83895 10C6.83895 10.5523 7.29117 11 7.84901 11C8.40686 11 8.85908 10.5523 8.85908 10ZM12.8993 7.25C12.481 7.25 12.1418 7.58579 12.1418 8C12.1418 8.41421 12.481 8.75 12.8993 8.75H14.9195C15.3379 8.75 15.677 8.41421 15.677 8C15.677 7.58579 15.3379 7.25 14.9195 7.25H12.8993Z" fill="#343A3D"/>
</svg>
