<svg width="24" height="24" viewBox="0 0 24 24" fill="none" xmlns="http://www.w3.org/2000/svg">
<path fill-rule="evenodd" clip-rule="evenodd" d="M4.56672 3.3382C4.75846 3.12317 5.03423 3 5.32394 3H6.60059C8.14906 3 9.58105 3.75913 10.4432 5H14.6627C17.3701 5 19.8737 6.42368 21.2379 8.73894C22.4199 10.7451 22.6016 13.1787 21.7303 15.3351L21.045 17.0313L21.0542 17.0585C21.7071 18.9976 20.2493 21 18.1847 21C17.0391 21 15.9917 20.3592 15.4794 19.3447L15.4144 19.216C13.7712 19.6844 12.0276 19.6844 10.3844 19.216L10.3122 19.359C9.80424 20.3647 8.76599 21 7.63026 21C5.66475 21 4.26038 19.172 4.71536 17.3333L3.78425 16H3.62684C2.66389 16 1.8348 15.3271 1.64595 14.3922L1.03992 11.3922C0.789909 10.1547 1.74602 9 3.02081 9H3.39047L4.76544 7.63873L4.32168 4.12403C4.28575 3.83942 4.37499 3.55323 4.56672 3.3382ZM7.63026 19C8.00082 19 8.33958 18.7927 8.50531 18.4646L8.96579 17.5528C9.19058 17.1077 9.71176 16.8939 10.1886 17.0513L10.6635 17.208C12.1149 17.687 13.6839 17.687 15.1353 17.208L15.6102 17.0513C16.087 16.8939 16.6082 17.1077 16.833 17.5528L17.2862 18.4502C17.4564 18.7872 17.8042 19 18.1847 19C18.8704 19 19.3546 18.3349 19.1378 17.6909L19.0116 17.3162C18.936 17.0918 18.9433 16.8482 19.032 16.6286L19.8547 14.5923C20.4947 13.0082 20.3613 11.2204 19.4929 9.74668C18.4908 8.04585 16.6516 7 14.6627 7H9.8911C9.74906 7.00295 9.60857 6.97605 9.47897 6.92237C9.26365 6.83319 9.07835 6.6701 8.96579 6.44721C8.51785 5.56027 7.6022 5 6.60059 5H6.46812L6.83123 7.87597C6.86989 8.18217 6.76359 8.4889 6.54319 8.70711L4.52307 10.7071C4.33365 10.8946 4.07674 11 3.80885 11L3.02081 11L3.62684 14H4.31388C4.64555 14 4.95609 14.1612 5.14471 14.4313L6.6598 16.6009C6.84409 16.8648 6.88929 17.2002 6.78134 17.5027L6.70781 17.7088C6.48291 18.339 6.95512 19 7.63026 19Z" fill="#343A3D"/>
<path fill-rule="evenodd" clip-rule="evenodd" d="M22.7042 6.79289C23.0986 7.18342 23.0986 7.81658 22.7042 8.20711L21.1891 9.70711C20.7946 10.0976 20.1551 10.0976 19.7606 9.70711C19.3662 9.31658 19.3662 8.68342 19.7606 8.29289L21.2757 6.79289C21.6702 6.40237 22.3097 6.40237 22.7042 6.79289Z" fill="#343A3D"/>
<path d="M8.85915 10C8.85915 10.5523 8.40693 11 7.84909 11C7.29125 11 6.83903 10.5523 6.83903 10C6.83903 9.44772 7.29125 9 7.84909 9C8.40693 9 8.85915 9.44772 8.85915 10Z" fill="#343A3D"/>
<path fill-rule="evenodd" clip-rule="evenodd" d="M12.1418 9C12.1418 8.58579 12.4809 8.25 12.8993 8.25H14.9194C15.3378 8.25 15.677 8.58579 15.677 9C15.677 9.41421 15.3378 9.75 14.9194 9.75H12.8993C12.4809 9.75 12.1418 9.41421 12.1418 9Z" fill="#343A3D"/>
</svg>
