<svg width="24" height="24" viewBox="0 0 24 24" fill="none" xmlns="http://www.w3.org/2000/svg">
<path d="M14.0927 8.74197C14.521 8.80241 14.9194 8.51921 14.9826 8.10943C15.0458 7.69965 14.7498 7.31846 14.3215 7.25803C11.743 6.89417 8.79357 7.25121 6.54019 8.32918C6.15296 8.51442 5.99601 8.96493 6.18962 9.33541C6.38324 9.70589 6.8541 9.85606 7.24133 9.67082C9.16872 8.74879 11.7866 8.41655 14.0927 8.74197Z" fill="#343A3D"/>
<path fill-rule="evenodd" clip-rule="evenodd" d="M11.8617 4C8.7422 4 7.06258 4.30164 6.13104 4.63411C5.91677 4.71058 5.7097 4.77412 5.52177 4.8085C5.32537 4.84444 5.22155 4.83471 5.18565 4.82596L3.6081 4.4416C2.08005 4.06929 0.687741 5.38798 1.06138 6.85365L1.63917 9.12019V14.8798L1.06138 17.1463C0.687741 18.612 2.08005 19.9307 3.6081 19.5584L5.43361 19.1136C5.46956 19.1049 5.61509 19.1014 5.87961 19.2108C6.77298 19.5805 8.51229 20 11.8617 20C15.5854 20 17.5361 19.481 18.436 19.1265C18.5025 19.1003 18.5596 19.0868 18.603 19.0818C18.6457 19.0768 18.6658 19.081 18.6688 19.0818L20.3902 19.5012C22.0193 19.8981 23.4468 18.3863 22.8692 16.8759L22.0842 14.8228V9.17718L22.8692 7.12412C23.4468 5.61368 22.0193 4.10191 20.3902 4.49882L18.7996 4.88638C18.7581 4.89648 18.6064 4.89854 18.3343 4.79065C17.4094 4.42401 15.5576 4 11.8617 4ZM6.86164 6.50798C7.45031 6.29788 8.83994 6 11.8617 6C15.4257 6 16.9679 6.41385 17.5341 6.63832C17.9606 6.80738 18.6241 6.99297 19.3154 6.82452L20.9061 6.43696L20.121 8.49002C20.0369 8.71017 19.9938 8.94276 19.9938 9.17718V14.8228C19.9938 15.0572 20.0369 15.2898 20.121 15.51L20.9061 17.563L19.1846 17.1436C18.6073 17.0029 18.0555 17.1135 17.6401 17.2772C17.057 17.5069 15.3917 18 11.8617 18C8.66632 18 7.24237 17.5957 6.70937 17.3751C6.27982 17.1974 5.61461 17.0057 4.91774 17.1755L3.09223 17.6203L3.67003 15.3537C3.70957 15.1986 3.72956 15.0395 3.72956 14.8798V9.12019C3.72956 8.96051 3.70957 8.80141 3.67003 8.64628L3.09223 6.37974L4.66978 6.7641C5.12157 6.87418 5.56631 6.8366 5.91442 6.7729C6.27099 6.70766 6.60439 6.59979 6.86164 6.50798Z" fill="#343A3D"/>
</svg>
