<svg width="24" height="24" viewBox="0 0 24 24" fill="none" xmlns="http://www.w3.org/2000/svg">
<path fill-rule="evenodd" clip-rule="evenodd" d="M10.5247 2.6111C11.3395 1.7963 12.6605 1.7963 13.4753 2.6111L21.3889 10.5247C22.2037 11.3395 22.2037 12.6605 21.3889 13.4753L17.9542 16.91C17.9539 16.9103 17.9536 16.9107 17.9532 16.911L13.4753 21.3889C12.6605 22.2037 11.3395 22.2037 10.5247 21.3889L6.04697 16.9112C6.04651 16.9107 6.04605 16.9103 6.04559 16.9098L2.6111 13.4753C1.7963 12.6605 1.7963 11.3395 2.6111 10.5247L6.0457 7.09008C6.04609 7.08969 6.04648 7.0893 6.04687 7.08891L10.5247 2.6111ZM7.21606 8.87037L4.08642 12L7.21606 15.1296H8.8444L11.207 12.3654C11.4052 12.1335 11.6949 12 12 12C12.3051 12 12.5948 12.1335 12.793 12.3654L15.1556 15.1296L16.7839 15.1296L19.9136 12L16.7839 8.87037H15.1556L12.793 11.6346C12.5948 11.8665 12.3051 12 12 12C11.6949 12 11.4052 11.8665 11.207 11.6346L8.8444 8.87037H7.21606ZM14.7394 6.82586L12 4.08642L9.26057 6.82586C9.71256 6.91787 10.1256 7.15816 10.4304 7.51477L12 9.35116L13.5696 7.51477C13.8744 7.15816 14.2874 6.91787 14.7394 6.82586ZM14.7394 17.1741C14.2874 17.0821 13.8744 16.8418 13.5696 16.4852L12 14.6488L10.4304 16.4852C10.1256 16.8418 9.71256 17.0821 9.26057 17.1741L12 19.9136L14.7394 17.1741Z" fill="#343A3D"/>
</svg>
