<svg width="25" height="24" viewBox="0 0 25 24" fill="none" xmlns="http://www.w3.org/2000/svg">
<path fill-rule="evenodd" clip-rule="evenodd" d="M8.66685 0.999512C9.21913 0.999512 9.66685 1.44469 9.66685 1.99385L15.6668 1.99392C15.6668 1.44476 16.1145 0.999512 16.6668 0.999512C17.2191 0.999512 17.6668 1.44469 17.6668 1.99385L19.6669 1.99392C21.876 1.99392 23.6669 3.77463 23.6669 5.97125L23.6669 15.2931C23.6669 15.8423 23.2192 16.2875 22.6669 16.2875C22.1146 16.2875 21.6669 15.8423 21.6669 15.2931L21.6669 10.9428H3.66689V18.8976C3.66689 19.9959 4.56232 20.8863 5.66689 20.8863H10.7918C11.3441 20.8863 11.7918 21.3314 11.7918 21.8806C11.7918 22.4297 11.3441 22.8749 10.7918 22.8749H5.66689C3.45775 22.8749 1.66689 21.0942 1.66689 18.8976V5.97125C1.66689 3.77463 3.45775 1.99392 5.66689 1.99392H7.66685C7.66685 1.44476 8.11456 0.999512 8.66685 0.999512ZM7.66685 3.98259H5.66689C4.56232 3.98259 3.66689 4.87294 3.66689 5.97125V8.95418H21.6669V5.97125C21.6669 4.87294 20.7715 3.98259 19.6669 3.98259H17.6668V4.97685C17.6668 5.526 17.2191 5.97118 16.6668 5.97118C16.1145 5.97118 15.6668 5.526 15.6668 4.97685V3.98259H9.66685V4.97685C9.66685 5.526 9.21913 5.97118 8.66685 5.97118C8.11456 5.97118 7.66685 5.526 7.66685 4.97685V3.98259Z" fill="#343A3D"/>
<path fill-rule="evenodd" clip-rule="evenodd" d="M16.6662 14.2876C16.2593 14.1631 15.8241 14.1631 15.4171 14.2876C14.0689 14.7001 13.4923 16.2808 14.261 17.4568L16.0417 20.1807L17.8223 17.4568C18.591 16.2808 18.0144 14.7001 16.6662 14.2876ZM14.8289 12.3869C15.6191 12.1451 16.4642 12.1451 17.2544 12.3869C19.8723 13.1878 20.9919 16.2571 19.4992 18.5406L16.8801 22.5471C16.6956 22.8293 16.3801 22.9995 16.0417 22.9995C15.7032 22.9995 15.3877 22.8293 15.2032 22.5471L12.5841 18.5406C11.0914 16.2571 12.2111 13.1878 14.8289 12.3869Z" fill="#343A3D"/>
<path d="M17.1667 16.4121C17.1667 17.0299 16.663 17.5307 16.0417 17.5307C15.4203 17.5307 14.9167 17.0299 14.9167 16.4121C14.9167 15.7943 15.4203 15.2934 16.0417 15.2934C16.663 15.2934 17.1667 15.7943 17.1667 16.4121Z" fill="#343A3D"/>
</svg>
