<svg width="24" height="24" viewBox="0 0 24 24" fill="none" xmlns="http://www.w3.org/2000/svg">
<path d="M5 3C3.34315 3 2 4.34315 2 6V18C2 19.6569 3.34315 21 5 21H17C18.6569 21 20 19.6569 20 18V17.5C20 16.9477 19.5523 16.5 19 16.5C18.4477 16.5 18 16.9477 18 17.5V18C18 18.5523 17.5523 19 17 19H5C4.44772 19 4 18.5523 4 18V6C4 5.44772 4.44772 5 5 5H17C17.5523 5 18 5.44772 18 6V6.5C18 7.05228 18.4477 7.5 19 7.5C19.5523 7.5 20 7.05228 20 6.5V6C20 4.34315 18.6569 3 17 3H5Z" fill="#343A3D"/>
<path fill-rule="evenodd" clip-rule="evenodd" d="M11 7C8.23858 7 6 9.23858 6 12C6 14.7614 8.23858 17 11 17C13.7614 17 16 14.7614 16 12C16 9.23858 13.7614 7 11 7ZM8 12C8 11.5369 8.10494 11.0983 8.29235 10.7066L12.2934 14.7076C11.9017 14.8951 11.4631 15 11 15C9.34315 15 8 13.6569 8 12ZM13.7076 13.2935L9.70654 9.29239C10.0982 9.10496 10.5368 9 11 9C12.6569 9 14 10.3431 14 12C14 12.4632 13.895 12.9018 13.7076 13.2935Z" fill="#343A3D"/>
<path d="M21.7593 8.65081C22.1187 8.23148 22.0701 7.60018 21.6508 7.24076C21.2315 6.88134 20.6002 6.9299 20.2408 7.34923L17.2408 10.8492C16.9866 11.1457 16.9283 11.5631 17.0915 11.9179C17.2547 12.2727 17.6095 12.5 18 12.5H18.8258L17.2408 14.3492C16.8813 14.7686 16.9299 15.3999 17.3492 15.7593C17.7686 16.1187 18.3999 16.0701 18.7593 15.6508L21.7593 12.1508C22.0134 11.8543 22.0717 11.437 21.9085 11.0822C21.7453 10.7274 21.3905 10.5 21 10.5H20.1742L21.7593 8.65081Z" fill="#343A3D"/>
</svg>
