<svg width="24" height="24" viewBox="0 0 24 24" fill="none" xmlns="http://www.w3.org/2000/svg">
<path d="M17.0451 2.72844C16.0527 1.75719 14.4437 1.75718 13.4512 2.72844L11.0377 5.09052L10.7749 4.83338C9.81573 3.89466 8.26059 3.89466 7.30141 4.83338L4.57222 7.50433C1.46681 10.5435 1.29381 15.3657 4.05321 18.6036L2.32408 20.2263C1.90447 20.6201 1.8905 21.2722 2.29287 21.6828C2.69523 22.0935 3.36158 22.1072 3.78118 21.7134L5.59359 20.0125C8.8858 22.347 13.5149 22.0626 16.4814 19.1594L19.2106 16.4884C20.1698 15.5497 20.1698 14.0278 19.2106 13.0891L18.8421 12.7284L21.2557 10.3664C22.2481 9.3951 22.2481 7.82039 21.2557 6.84913C20.2632 5.87788 18.6542 5.87787 17.6618 6.84913L15.2482 9.21121L14.6316 8.60774L17.0451 6.24567C18.0376 5.27441 18.0376 3.6997 17.0451 2.72844ZM9.28627 6.29026L17.7219 14.5459C17.859 14.68 17.859 14.8975 17.7219 15.0316L14.9927 17.7025C12.5263 20.1164 8.52734 20.1164 6.06087 17.7025C3.5944 15.2887 3.5944 11.3751 6.06087 8.96121L8.79005 6.29026C8.92708 6.15616 9.14924 6.15616 9.28627 6.29026ZM13.1429 7.15086L12.5263 6.5474L14.9399 4.18532C15.1102 4.01868 15.3862 4.01868 15.5565 4.18533C15.7268 4.35197 15.7268 4.62214 15.5565 4.78879L13.1429 7.15086ZM16.7368 10.6681L19.1504 8.30601C19.3207 8.13937 19.5967 8.13937 19.767 8.30601C19.9373 8.47265 19.9373 8.74283 19.767 8.90947L17.3534 11.2715L16.7368 10.6681Z" fill="#343A3D"/>
</svg>
