<svg width="24" height="24" viewBox="0 0 24 24" fill="none" xmlns="http://www.w3.org/2000/svg">
<path d="M11.9998 1.7998C11.2878 1.7998 10.7107 2.37696 10.7107 3.08891V10.7107H3.08891C2.37696 10.7107 1.7998 11.2878 1.7998 11.9998C1.7998 12.7118 2.37696 13.2889 3.08891 13.2889H10.7107V20.9107C10.7107 21.6227 11.2878 22.1998 11.9998 22.1998C12.7118 22.1998 13.2889 21.6227 13.2889 20.9107V13.2889H20.9107C21.6227 13.2889 22.1998 12.7118 22.1998 11.9998C22.1998 11.2878 21.6227 10.7107 20.9107 10.7107H13.2889V3.08891C13.2889 2.37696 12.7118 1.7998 11.9998 1.7998Z" fill="#343A3D"/>
</svg>
