<svg width="24" height="24" viewBox="0 0 24 24" fill="none" xmlns="http://www.w3.org/2000/svg">
<path fill-rule="evenodd" clip-rule="evenodd" d="M11.2929 2.29289C11.6834 1.90237 12.3166 1.90237 12.7071 2.29289L15.7071 5.29289C16.0976 5.68342 16.0976 6.31658 15.7071 6.70711C15.3166 7.09763 14.6834 7.09763 14.2929 6.70711L13 5.41421V10C13 10.5523 12.5523 11 12 11C11.4477 11 11 10.5523 11 10V5.41421L9.70711 6.70711C9.31658 7.09763 8.68342 7.09763 8.29289 6.70711C7.90237 6.31658 7.90237 5.68342 8.29289 5.29289L11.2929 2.29289ZM5 12C4.44772 12 4 12.4477 4 13V19C4 19.5523 4.44772 20 5 20H19C19.5523 20 20 19.5523 20 19V13C20 12.4477 19.5523 12 19 12H17.0625C16.5102 12 16.0625 11.5523 16.0625 11C16.0625 10.4477 16.5102 10 17.0625 10H19C20.6569 10 22 11.3431 22 13V19C22 20.6569 20.6569 22 19 22H5C3.34315 22 2 20.6569 2 19V13C2 11.3431 3.34315 10 5 10H6.9375C7.48978 10 7.9375 10.4477 7.9375 11C7.9375 11.5523 7.48978 12 6.9375 12H5ZM9 15.5C9 13.8431 10.3431 12.5 12 12.5C13.6569 12.5 15 13.8431 15 15.5C15 17.1569 13.6569 18.5 12 18.5C10.3431 18.5 9 17.1569 9 15.5ZM12 14.5C11.4477 14.5 11 14.9477 11 15.5C11 16.0523 11.4477 16.5 12 16.5C12.5523 16.5 13 16.0523 13 15.5C13 14.9477 12.5523 14.5 12 14.5Z" fill="#343A3D"/>
</svg>
