<svg width="24" height="24" viewBox="0 0 24 24" fill="none" xmlns="http://www.w3.org/2000/svg">
<path d="M10.0001 17.25C9.58585 17.25 9.25006 17.5858 9.25006 18C9.25006 18.4142 9.58585 18.75 10.0001 18.75H14.0001C14.4143 18.75 14.7501 18.4142 14.7501 18C14.7501 17.5858 14.4143 17.25 14.0001 17.25H10.0001Z" fill="#343A3D"/>
<path d="M12.7091 7.50005C12.7091 7.11345 12.3957 6.80005 12.0091 6.80005C11.6225 6.80005 11.3091 7.11345 11.3091 7.50005V7.81823C11.3091 7.82959 11.3094 7.84089 11.3099 7.85212C10.9655 7.92143 10.6302 8.04043 10.3372 8.21597C9.84085 8.51338 9.40039 9.02438 9.40039 9.751C9.40039 10.5135 9.88313 10.9709 10.3647 11.2306C10.7997 11.4652 11.3484 11.6051 11.7922 11.7183L11.8363 11.7295C12.3398 11.8581 12.7236 11.9605 12.9901 12.1041C13.219 12.2274 13.2188 12.2977 13.2186 12.3467L13.2186 12.3502C13.2186 12.4295 13.1891 12.5341 12.9768 12.6545C12.7514 12.7823 12.4015 12.8679 12.0093 12.868C11.6171 12.8681 11.2672 12.7826 11.0419 12.655C10.8295 12.5348 10.8004 12.4305 10.8004 12.3521C10.8004 11.9655 10.487 11.6521 10.1004 11.6521C9.71379 11.6521 9.40039 11.9655 9.40039 12.3521C9.40039 13.0845 9.84861 13.5883 10.3521 13.8733C10.642 14.0375 10.9718 14.1455 11.3091 14.2064V14.4999C11.3091 14.8865 11.6225 15.1999 12.0091 15.1999C12.3957 15.1999 12.7091 14.8865 12.7091 14.4999V14.2062C13.0468 14.1452 13.377 14.0369 13.6673 13.8723C14.1708 13.5868 14.6186 13.0827 14.6186 12.3502C14.6186 11.5877 14.1353 11.1308 13.654 10.8715C13.2194 10.6375 12.6714 10.4977 12.2279 10.3846L12.1827 10.3731C11.6794 10.2445 11.2956 10.142 11.0292 9.99834C10.8001 9.87477 10.8003 9.80419 10.8004 9.75434L10.8004 9.751C10.8004 9.66504 10.8372 9.54846 11.0568 9.41689C11.2857 9.27972 11.636 9.18491 12.0228 9.17755C12.411 9.17017 12.7512 9.25232 12.9679 9.37939C13.1615 9.49296 13.2186 9.60966 13.2186 9.751C13.2186 10.1376 13.532 10.451 13.9186 10.451C14.3052 10.451 14.6186 10.1376 14.6186 9.751C14.6186 9.00715 14.1984 8.47811 13.6762 8.17178C13.3825 7.99955 13.0491 7.8899 12.709 7.83099L12.7091 7.81823V7.50005Z" fill="#343A3D"/>
<path fill-rule="evenodd" clip-rule="evenodd" d="M5 5C5 3.34315 6.34315 2 8 2H16C17.6569 2 19 3.34315 19 5V19C19 20.6569 17.6569 22 16 22H8C6.34315 22 5 20.6569 5 19V5ZM8 4C7.44772 4 7 4.44772 7 5V19C7 19.5523 7.44772 20 8 20H16C16.5523 20 17 19.5523 17 19V5C17 4.44772 16.5523 4 16 4H15C14.7941 4.5826 14.1531 5 13.5 5H10.5C9.84689 5 9.20592 4.5826 9 4H8Z" fill="#343A3D"/>
</svg>
