<svg width="24" height="24" viewBox="0 0 24 24" fill="none" xmlns="http://www.w3.org/2000/svg">
<path d="M5 13C5 12.4477 5.44772 12 6 12H12C12.5523 12 13 12.4477 13 13C13 13.5523 12.5523 14 12 14H6C5.44772 14 5 13.5523 5 13Z" fill="#343A3D"/>
<path d="M2 9.06043C2 7.40534 3.01932 5.92119 4.56408 5.32705L11.5641 2.63474C14.1841 1.62705 17 3.561 17 6.36812V7H18C19.6569 7 21 8.34315 21 10V12C21.5523 12 22 12.4477 22 13V17C22 17.5523 21.5523 18 21 18V19C21 20.6569 19.6569 22 18 22H5C3.34315 22 2 20.6569 2 19V9.06043ZM12.282 4.50143L5.78577 7H15V6.36812C15 4.96457 13.592 3.99758 12.282 4.50143ZM4 10V19C4 19.5523 4.44772 20 5 20H18C18.5523 20 19 19.5523 19 19V18H18C16.3431 18 15 16.6569 15 15C15 13.3431 16.3431 12 18 12H19V10C19 9.44771 18.5523 9 18 9H5C4.44772 9 4 9.44772 4 10ZM17 15C17 15.5523 17.4477 16 18 16H20V14H18C17.4477 14 17 14.4477 17 15Z" fill="#343A3D"/>
</svg>
