<svg width="24" height="24" viewBox="0 0 24 24" fill="none" xmlns="http://www.w3.org/2000/svg">
<path fill-rule="evenodd" clip-rule="evenodd" d="M2 4C2 2.89543 2.89543 2 4 2H9C10.1046 2 11 2.89543 11 4V8.99981C11 10.1044 10.1046 10.9998 9 10.9998H4C2.89543 10.9998 2 10.1044 2 8.99981V4ZM9 4L4 4V8.99981L9 8.99981V4ZM13 4C13 2.89543 13.8954 2 15 2H20C21.1046 2 22 2.89543 22 4V8.99981C22 10.1044 21.1046 10.9998 20 10.9998H15C13.8954 10.9998 13 10.1044 13 8.99981V4ZM20 4L15 4V8.99981L20 8.99981V4ZM14.0001 13C14.5524 13 15.0001 13.4477 15.0001 14V17C15.0001 17.5522 14.5524 18 14.0001 18C13.4478 18 13.0001 17.5522 13.0001 17V14C13.0001 13.4477 13.4478 13 14.0001 13ZM2 15C2 13.8954 2.89543 13 4 13H9C10.1046 13 11 13.8954 11 15V19.9998C11 21.1044 10.1046 21.9998 9 21.9998H4C2.89543 21.9998 2 21.1044 2 19.9998V15ZM9 15H4V19.9998H9V15ZM17.0001 14.9821C17 14.988 16.9999 14.994 16.9999 14.9999C16.9999 15.0058 17 15.0117 17.0001 15.0176V20.0001H14.0001C13.4478 20.0001 13.0001 20.4478 13.0001 21.0001C13.0001 21.5524 13.4478 22.0001 14.0001 22.0001H18.0001C18.5524 22.0001 19.0001 21.5524 19.0001 21.0001V15.9999H20.9999C21.5522 15.9999 21.9999 15.5522 21.9999 14.9999C21.9999 14.4476 21.5522 13.9999 20.9999 13.9999H19.0001C19 13.4477 18.5523 13.0001 18.0001 13.0001C17.4478 13.0001 17.0001 13.4478 17.0001 14.0001V14.9821ZM21.0001 18C21.5524 18 22.0001 18.4477 22.0001 19V21C22.0001 21.5523 21.5524 22 21.0001 22C20.4478 22 20.0001 21.5523 20.0001 21V19C20.0001 18.4477 20.4478 18 21.0001 18Z" fill="#343A3D"/>
</svg>
