<svg width="24" height="24" viewBox="0 0 24 24" fill="none" xmlns="http://www.w3.org/2000/svg">
<path fill-rule="evenodd" clip-rule="evenodd" d="M12 2C12.4107 2 12.7796 2.25108 12.9303 2.63311L14.9659 7.79464C15.1722 8.31762 15.2193 8.41781 15.2744 8.49484C15.3382 8.58387 15.4161 8.66182 15.5052 8.72558C15.5822 8.78075 15.6824 8.8278 16.2054 9.03406L21.3669 11.0697C21.7489 11.2204 22 11.5893 22 12C22 12.4107 21.7489 12.7796 21.3669 12.9303L16.2054 14.9659C15.6824 15.1722 15.5822 15.2193 15.5052 15.2744C15.4161 15.3382 15.3382 15.4161 15.2744 15.5052C15.2193 15.5822 15.1722 15.6824 14.9659 16.2054L12.9303 21.3669C12.7796 21.7489 12.4107 22 12 22C11.5893 22 11.2204 21.7489 11.0697 21.3669L9.03406 16.2054C8.8278 15.6824 8.78075 15.5822 8.72558 15.5052C8.66182 15.4161 8.58387 15.3382 8.49484 15.2744C8.41781 15.2193 8.31762 15.1722 7.79464 14.9659L2.63311 12.9303C2.25108 12.7796 2 12.4107 2 12C2 11.5893 2.25108 11.2204 2.63311 11.0697L7.79464 9.03406C8.31762 8.8278 8.41781 8.78075 8.49484 8.72558C8.58387 8.66182 8.66182 8.58387 8.72558 8.49484C8.78075 8.41781 8.8278 8.31762 9.03406 7.79464L11.0697 2.63311C11.2204 2.25108 11.5893 2 12 2ZM12 5.72561L10.8946 8.52842C10.8838 8.55573 10.8732 8.58282 10.8626 8.60969C10.7068 9.00595 10.5694 9.35524 10.3516 9.65936C10.1603 9.92645 9.92645 10.1603 9.65936 10.3516C9.35525 10.5694 9.00595 10.7068 8.6097 10.8626C8.58282 10.8732 8.55573 10.8838 8.52842 10.8946L5.72561 12L8.52842 13.1054C8.55573 13.1162 8.58283 13.1268 8.60971 13.1374C9.00595 13.2932 9.35525 13.4306 9.65936 13.6484C9.92645 13.8397 10.1603 14.0736 10.3516 14.3406C10.5694 14.6448 10.7068 14.9941 10.8626 15.3903C10.8732 15.4172 10.8838 15.4443 10.8946 15.4716L12 18.2744L13.1054 15.4716C13.1162 15.4443 13.1268 15.4172 13.1374 15.3903C13.2932 14.994 13.4306 14.6448 13.6484 14.3406C13.8397 14.0736 14.0736 13.8397 14.3406 13.6484C14.6448 13.4306 14.994 13.2932 15.3903 13.1374C15.4172 13.1268 15.4443 13.1162 15.4716 13.1054L18.2744 12L15.4716 10.8946C15.4443 10.8838 15.4172 10.8732 15.3903 10.8626C14.9941 10.7068 14.6448 10.5694 14.3406 10.3516C14.0736 10.1603 13.8397 9.92645 13.6484 9.65936C13.4306 9.35525 13.2932 9.00595 13.1374 8.60971C13.1268 8.58283 13.1162 8.55573 13.1054 8.52842L12 5.72561Z" fill="#343A3D"/>
</svg>
