<svg width="24" height="24" viewBox="0 0 24 24" fill="none" xmlns="http://www.w3.org/2000/svg">
<path fill-rule="evenodd" clip-rule="evenodd" d="M6 4C6 2.34315 7.34315 1 9 1C10.6569 1 12 2.34315 12 4C12 5.65685 10.6569 7 9 7C7.34315 7 6 5.65685 6 4ZM9 3C8.44772 3 8 3.44772 8 4C8 4.55228 8.44772 5 9 5C9.55228 5 10 4.55228 10 4C10 3.44772 9.55228 3 9 3Z" fill="#343A3D"/>
<path fill-rule="evenodd" clip-rule="evenodd" d="M10 20V22C10 22.5523 9.55228 23 9 23C8.44772 23 8 22.5523 8 22V20H7.76923C6.79211 20 6 19.2079 6 18.2308V11C6 9.34315 7.34315 8 9 8C10.6569 8 12 9.34315 12 11V11.0507C14.2632 11.3854 16 13.336 16 15.6923V18.2222C16 19.2041 15.2041 20 14.2222 20H10ZM8 18H14V15.6923C14 14.2054 12.7946 13 11.3077 13H11.2308C10.551 13 10 12.449 10 11.7692V11C10 10.4477 9.55228 10 9 10C8.44772 10 8 10.4477 8 11V18Z" fill="#343A3D"/>
</svg>
