<svg width="25" height="24" viewBox="0 0 25 24" fill="none" xmlns="http://www.w3.org/2000/svg">
<path fill-rule="evenodd" clip-rule="evenodd" d="M2.66663 4.01083C2.66663 2.34799 4.00977 1 5.66663 1H19.6666C21.3235 1 22.6666 2.348 22.6666 4.01083V9.02888C22.6666 18.2447 15.5728 21.9386 13.5705 22.7974C13.0192 23.0338 12.4078 23.0675 11.8272 22.8765C10.7735 22.5299 8.4882 21.5909 6.45753 19.4624C4.40401 17.31 2.66664 13.9971 2.66663 9.02888V4.01083ZM5.66663 3.00722C5.11434 3.00722 4.66663 3.45655 4.66663 4.01083V9.02888C4.66664 13.4747 6.20152 16.2918 7.90212 18.0743C9.62556 19.8807 11.5763 20.6817 12.4501 20.9691C12.5583 21.0047 12.6692 21.0011 12.7846 20.9516C14.5932 20.1759 20.6666 16.9805 20.6666 9.02888V4.01083C20.6666 3.45655 20.2189 3.00722 19.6666 3.00722H5.66663Z" fill="#343A3D"/>
<path d="M14.6666 9.02888C14.6666 10.1374 13.7712 11.0361 12.6666 11.0361C11.5621 11.0361 10.6666 10.1374 10.6666 9.02888C10.6666 7.92033 11.5621 7.02166 12.6666 7.02166C13.7712 7.02166 14.6666 7.92033 14.6666 9.02888Z" fill="#343A3D"/>
<path d="M11.6666 10H13.6666V13C13.6666 13.5543 13.2189 14 12.6666 14C12.1143 14 11.6666 13.5543 11.6666 13V10Z" fill="#343A3D"/>
</svg>
