<svg width="24" height="24" viewBox="0 0 24 24" fill="none" xmlns="http://www.w3.org/2000/svg">
<path d="M15 10C14.4477 10 14 10.4477 14 11V13C14 13.5523 14.4477 14 15 14C15.5523 14 16 13.5523 16 13V11C16 10.4477 15.5523 10 15 10Z" fill="#343A3D"/>
<path fill-rule="evenodd" clip-rule="evenodd" d="M2 21H4V2.83333C4 2.36851 4.1717 1.91003 4.49675 1.56176C4.82398 1.21116 5.28315 1 5.77778 1H18.2222C18.7169 1 19.176 1.21116 19.5033 1.56176C19.8283 1.91003 20 2.36851 20 2.83333V21H22C22.5523 21 23 21.4477 23 22C23 22.5523 22.5523 23 22 23H2C1.44772 23 1 22.5523 1 22C1 21.4477 1.44772 21 2 21ZM6 3V21H18V3H6Z" fill="#343A3D"/>
</svg>
