<svg width="24" height="24" viewBox="0 0 24 24" fill="none" xmlns="http://www.w3.org/2000/svg">
<path fill-rule="evenodd" clip-rule="evenodd" d="M12 13.3518C11.1716 13.3518 10.5 14.0338 10.5 14.8752C10.5 15.7165 11.1716 16.3986 12 16.3986C12.8284 16.3986 13.5 15.7165 13.5 14.8752C13.5 14.0338 12.8284 13.3518 12 13.3518ZM11.5 14.8752C11.5 14.5947 11.7239 14.3674 12 14.3674C12.2761 14.3674 12.5 14.5947 12.5 14.8752C12.5 15.1556 12.2761 15.383 12 15.383C11.7239 15.383 11.5 15.1556 11.5 14.8752Z" fill="#343A3D"/>
<path fill-rule="evenodd" clip-rule="evenodd" d="M9 11.0667C8.0335 11.0667 7.25 11.8624 7.25 12.844V16.9064C7.25 17.888 8.0335 18.6837 9 18.6837H15C15.9665 18.6837 16.75 17.888 16.75 16.9064V12.844C16.75 11.8624 15.9665 11.0667 15 11.0667H14.75V10.8128C14.75 9.27031 13.5188 8.01989 12 8.01989C10.4812 8.01989 9.25 9.27031 9.25 10.8128V11.0667H9ZM9 12.5901H15C15.1381 12.5901 15.25 12.7038 15.25 12.844V16.9064C15.25 17.0466 15.1381 17.1603 15 17.1603H9C8.86193 17.1603 8.75 17.0466 8.75 16.9064V12.844C8.75 12.7038 8.86193 12.5901 9 12.5901ZM13.25 10.8128V11.0667H10.75V10.8128C10.75 10.1117 11.3096 9.54329 12 9.54329C12.6904 9.54329 13.25 10.1117 13.25 10.8128Z" fill="#343A3D"/>
<path fill-rule="evenodd" clip-rule="evenodd" d="M13.3287 1.51306C12.571 0.828979 11.429 0.828979 10.6713 1.51306L2.67127 8.73512C2.2443 9.12057 2 9.67307 2 10.2533V20.9688C2 22.0906 2.89543 23 4 23H20C21.1046 23 22 22.0906 22 20.9688V10.2533C22 9.67307 21.7557 9.12057 21.3287 8.73512L13.3287 1.51306ZM4 10.2533L12 3.0312L20 10.2533V20.9688H4V10.2533Z" fill="#343A3D"/>
</svg>
