<svg width="24" height="24" viewBox="0 0 24 24" fill="none" xmlns="http://www.w3.org/2000/svg">
<path fill-rule="evenodd" clip-rule="evenodd" d="M20.4171 1.09116C20.7723 1.25418 21 1.60919 21 2.00001V8.00001C22.1046 8.00001 23 8.89544 23 10C23 11.1046 22.1046 12 21 12V18C21 18.3931 20.7697 18.7498 20.4113 18.9115C20.053 19.0732 19.6332 19.01 19.3384 18.7499L18.9666 18.4218C17.1032 16.7776 14.8605 15.6222 12.44 15.0592L9.59183 14.3969L11.2247 18.7512C11.8142 20.3232 10.6521 22 8.97331 22C7.97101 22 7.07385 21.3783 6.72192 20.4398L4.28297 13.9359C2.416 13.598 1 11.9644 1 10C1 7.79088 2.79086 6.00001 5 6.00001H7.76C7.79609 6.00001 7.83181 6.00156 7.86711 6.00458L12.3446 4.98006C14.7218 4.43613 16.9305 3.32081 18.7795 1.73073L19.348 1.24183C19.6443 0.986995 20.0619 0.928141 20.4171 1.09116ZM9 7.79705V12.2059L12.893 13.1112C15.0985 13.6241 17.1737 14.5711 19 15.891V4.10487C17.1462 5.45353 15.0347 6.41623 12.7907 6.92968L9 7.79705ZM7.307 14H6.443L8.59458 19.7375C8.65378 19.8954 8.8047 20 8.97331 20C9.25574 20 9.45122 19.7179 9.35205 19.4535L7.307 14ZM7 8.00001H5C3.89543 8.00001 3 8.89544 3 10C3 11.1046 3.89543 12 5 12H7V8.00001Z" fill="#343A3D"/>
</svg>
