<svg width="25" height="24" viewBox="0 0 25 24" fill="none" xmlns="http://www.w3.org/2000/svg">
<path d="M9.66663 7C9.66663 6.44772 9.21891 6 8.66663 6C8.11434 6 7.66663 6.44772 7.66663 7C7.66663 8.32608 8.19341 9.59785 9.13109 10.5355C10.0688 11.4732 11.3405 12 12.6666 12C13.9927 12 15.2645 11.4732 16.2022 10.5355C17.1398 9.59785 17.6666 8.32608 17.6666 7C17.6666 6.44772 17.2189 6 16.6666 6C16.1143 6 15.6666 6.44772 15.6666 7C15.6666 7.79565 15.3506 8.55871 14.7879 9.12132C14.2253 9.68393 13.4623 10 12.6666 10C11.871 10 11.1079 9.68393 10.5453 9.12132C9.9827 8.55871 9.66663 7.79565 9.66663 7Z" fill="#343A3D"/>
<path fill-rule="evenodd" clip-rule="evenodd" d="M4.66663 1C3.00977 1 1.66663 2.34315 1.66663 4V20C1.66663 21.6569 3.00977 23 4.66663 23H20.6666C22.3235 23 23.6666 21.6569 23.6666 20V4C23.6666 2.34315 22.3235 1 20.6666 1H4.66663ZM3.66663 4C3.66663 3.44772 4.11434 3 4.66663 3H20.6666C21.2189 3 21.6666 3.44772 21.6666 4V20C21.6666 20.5523 21.2189 21 20.6666 21H4.66663C4.11434 21 3.66663 20.5523 3.66663 20V4Z" fill="#343A3D"/>
</svg>
