<svg width="25" height="24" viewBox="0 0 25 24" fill="none" xmlns="http://www.w3.org/2000/svg">
<path d="M13.3333 17.5C13.3333 18.0523 12.8856 18.5 12.3333 18.5C11.781 18.5 11.3333 18.0523 11.3333 17.5C11.3333 16.9477 11.781 16.5 12.3333 16.5C12.8856 16.5 13.3333 16.9477 13.3333 17.5Z" fill="#343A3D"/>
<path d="M10.3333 10C10.3333 8.89543 11.2287 8 12.3333 8C13.4379 8 14.3333 8.89543 14.3333 10C14.3333 11.1046 13.4379 12 12.3333 12C11.781 12 11.3333 12.4477 11.3333 13V14.5C11.3333 15.0523 11.781 15.5 12.3333 15.5C12.8856 15.5 13.3333 15.0523 13.3333 14.5V13.874C15.0585 13.4299 16.3333 11.8638 16.3333 10C16.3333 7.79086 14.5425 6 12.3333 6C10.1242 6 8.33331 7.79086 8.33331 10C8.33331 10.5523 8.78103 11 9.33331 11C9.8856 11 10.3333 10.5523 10.3333 10Z" fill="#343A3D"/>
<path d="M1.33331 12C1.33331 5.92487 6.25818 1 12.3333 1C18.4084 1 23.3333 5.92487 23.3333 12C23.3333 18.0751 18.4084 23 12.3333 23C6.25818 23 1.33331 18.0751 1.33331 12ZM12.3333 3C7.36275 3 3.33331 7.02944 3.33331 12C3.33331 16.9706 7.36275 21 12.3333 21C17.3039 21 21.3333 16.9706 21.3333 12C21.3333 7.02944 17.3039 3 12.3333 3Z" fill="#343A3D"/>
</svg>
