<svg width="25" height="24" viewBox="0 0 25 24" fill="none" xmlns="http://www.w3.org/2000/svg">
<path fill-rule="evenodd" clip-rule="evenodd" d="M17.5431 10.0499C17.8931 9.71223 18.1939 9.3131 18.4273 8.85257C18.6667 8.39205 18.7834 7.82105 18.7834 7.16403C18.7834 6.51929 18.6851 5.88684 18.4948 5.27895C18.2983 4.66489 17.979 4.11226 17.5553 3.62718C17.1255 3.14211 16.5483 2.74297 15.8422 2.44824C15.1422 2.1535 14.2887 2 13.3001 2C12.2992 2 11.415 2.13508 10.6843 2.40526C9.95355 2.66932 9.33339 2.98861 8.84216 3.35703C8.35708 3.72545 7.97024 4.11842 7.70005 4.51755C7.42374 4.92895 7.25795 5.26053 7.20268 5.53684C7.12287 5.85616 7.12287 6.16932 7.20268 6.47019C7.28866 6.7956 7.54042 7.06579 7.95182 7.26842C8.41234 7.48947 8.85445 7.52632 9.25358 7.38508C9.64042 7.24384 9.93516 7.02892 10.1378 6.74647C10.365 6.43947 10.5799 6.17542 10.7887 5.96666C10.9852 5.77019 11.2001 5.61053 11.4334 5.5C11.6667 5.38331 11.9246 5.29737 12.2071 5.24824C12.4957 5.19913 12.8518 5.16842 13.2694 5.16842C13.8957 5.16842 14.3992 5.32805 14.7615 5.63508C15.1176 5.93597 15.2957 6.39034 15.2957 7.02895C15.2957 7.42192 15.1974 7.73508 15.0009 7.99297C14.786 8.27542 14.522 8.55174 14.215 8.80963C13.8957 9.07366 13.5395 9.34997 13.1527 9.62629C12.7474 9.92102 12.3729 10.2772 12.0413 10.6824C11.7097 11.0938 11.4211 11.585 11.1939 12.1561C10.9606 12.7333 10.8439 13.4517 10.8439 14.2991C10.8439 14.6614 11.0036 14.9929 11.3229 15.2938C11.6176 15.5701 12.0167 15.7114 12.5079 15.7114H12.6123C13.0913 15.6868 13.4904 15.5149 13.7852 15.1833C14.0799 14.864 14.2273 14.5447 14.2273 14.2438V13.7894C14.2273 13.3289 14.3255 12.9359 14.5281 12.6228C14.7369 12.2973 15.0071 11.9903 15.3325 11.7201C15.6641 11.4438 16.0264 11.1736 16.4132 10.928C16.8123 10.6763 17.1931 10.3754 17.5431 10.0499ZM13.727 21.2649C14.0832 20.9333 14.2674 20.5526 14.2674 20.1351V19.4105C14.2674 18.993 14.0832 18.6123 13.727 18.2807C13.377 17.9553 12.9042 17.7895 12.327 17.7895C11.7314 17.7895 11.2402 17.9553 10.8718 18.2746C10.4911 18.6061 10.3007 18.9868 10.3007 19.4105V20.1351C10.3007 20.5526 10.4911 20.9394 10.8718 21.2649C11.2402 21.5903 11.7314 21.7561 12.327 21.7561C12.9042 21.7561 13.377 21.5903 13.727 21.2649Z" fill="#343A3D"/>
</svg>
