<svg width="25" height="24" viewBox="0 0 25 24" fill="none" xmlns="http://www.w3.org/2000/svg">
<path fill-rule="evenodd" clip-rule="evenodd" d="M12.3333 1C6.25818 1 1.33331 5.92487 1.33331 12C1.33331 18.0751 6.25818 23 12.3333 23C18.4084 23 23.3333 18.0751 23.3333 12C23.3333 5.92487 18.4084 1 12.3333 1ZM12.3333 8C11.2287 8 10.3333 8.89543 10.3333 10C10.3333 10.5523 9.8856 11 9.33331 11C8.78103 11 8.33331 10.5523 8.33331 10C8.33331 7.79086 10.1242 6 12.3333 6C14.5425 6 16.3333 7.79086 16.3333 10C16.3333 11.8638 15.0585 13.4299 13.3333 13.874V14.5C13.3333 15.0523 12.8856 15.5 12.3333 15.5C11.781 15.5 11.3333 15.0523 11.3333 14.5V13C11.3333 12.4477 11.781 12 12.3333 12C13.4379 12 14.3333 11.1046 14.3333 10C14.3333 8.89543 13.4379 8 12.3333 8ZM13.3333 17.5C13.3333 18.0523 12.8856 18.5 12.3333 18.5C11.781 18.5 11.3333 18.0523 11.3333 17.5C11.3333 16.9477 11.781 16.5 12.3333 16.5C12.8856 16.5 13.3333 16.9477 13.3333 17.5Z" fill="#343A3D"/>
</svg>
