<svg width="24" height="24" viewBox="0 0 24 24" fill="none" xmlns="http://www.w3.org/2000/svg">
<path d="M12 15.0001C12 14.4478 12.4477 14.0001 13 14.0001H18C18.5523 14.0001 19 14.4478 19 15.0001C19 15.5524 18.5523 16.0001 18 16.0001H13C12.4477 16.0001 12 15.5524 12 15.0001Z" fill="#343A3D"/>
<path d="M13 17.0001C12.4477 17.0001 12 17.4478 12 18.0001C12 18.5524 12.4477 19.0001 13 19.0001H18C18.5523 19.0001 19 18.5524 19 18.0001C19 17.4478 18.5523 17.0001 18 17.0001H13Z" fill="#343A3D"/>
<path d="M8 13.5001C6.34315 13.5001 5 14.8433 5 16.5001C5 18.157 6.34315 19.5001 8 19.5001C9.65685 19.5001 11 18.157 11 16.5001C11 14.8433 9.65685 13.5001 8 13.5001ZM7 16.5001C7 15.9478 7.44772 15.5001 8 15.5001C8.55228 15.5001 9 15.9478 9 16.5001C9 17.0524 8.55228 17.5001 8 17.5001C7.44772 17.5001 7 17.0524 7 16.5001Z" fill="#343A3D"/>
<path d="M12.848 1.47013C12.5553 1.0018 11.9384 0.859425 11.47 1.15214L3.68754 6.01619C2.17752 6.17245 1 7.44877 1 9.00011V20.0001C1 21.657 2.34315 23.0001 4 23.0001H20C21.6569 23.0001 23 21.657 23 20.0001V9.00011C23 7.34326 21.6569 6.00011 20 6.00011H7.48686L12.53 2.84813C12.9984 2.55542 13.1407 1.93847 12.848 1.47013ZM3 9.00011C3 8.45185 3.44122 8.00664 3.98795 8.00018C3.99817 8.00032 4.0084 8.00029 4.01863 8.00011H20C20.5523 8.00011 21 8.44783 21 9.00011V10.0001H3V9.00011ZM3 12.0001H21V20.0001C21 20.5524 20.5523 21.0001 20 21.0001H4C3.44772 21.0001 3 20.5524 3 20.0001V12.0001Z" fill="#343A3D"/>
</svg>
