<svg width="24" height="24" viewBox="0 0 24 24" fill="none" xmlns="http://www.w3.org/2000/svg">
<path fill-rule="evenodd" clip-rule="evenodd" d="M16.0714 17H17.1429C19.5107 17 21.4286 15.0821 21.4286 12.7143C21.4286 10.3464 19.5107 8.42857 17.1429 8.42857C16.2857 8.42857 15.4929 8.68571 14.8232 9.11964C14.1589 6.26964 11.6196 4.14286 8.57143 4.14286C5.01964 4.14286 2.14286 7.01964 2.14286 10.5714C2.14286 13.7589 4.45714 16.4 7.5 16.9089V19.0786C3.27321 18.5482 0 14.9429 0 10.5714C0 5.83571 3.83571 2 8.57143 2C11.7857 2 14.5875 3.77321 16.0554 6.39821C16.4089 6.33393 16.7679 6.28571 17.1429 6.28571C20.6946 6.28571 23.5714 9.1625 23.5714 12.7143C23.5714 16.2661 20.6946 19.1429 17.1429 19.1429H16.0714V17ZM9.88929 16.7107L11.7857 14.8196L13.6821 16.7107C14.7268 17.7607 14.7268 19.4536 13.6821 20.5036C12.6321 21.5482 10.9393 21.5482 9.88929 20.5036C8.84464 19.4536 8.84464 17.7607 9.88929 16.7107Z" fill="#343A3D"/>
</svg>
