<svg width="24" height="24" viewBox="0 0 24 24" fill="none" xmlns="http://www.w3.org/2000/svg">
<path fill-rule="evenodd" clip-rule="evenodd" d="M15.9104 5.19133C16.3376 5.51617 16.4321 6.14158 16.1214 6.58823L8.46922 17.5881C8.31357 17.8119 8.07622 17.9582 7.81361 17.9923C7.55099 18.0264 7.2866 17.9453 7.0833 17.7682L1.34419 12.7682C0.938366 12.4147 0.883534 11.7841 1.22172 11.3598C1.55992 10.9356 2.16306 10.8782 2.56889 11.2318L7.52306 15.5479L14.5742 5.4119C14.8849 4.96525 15.4832 4.8665 15.9104 5.19133ZM22.6173 5.20007C23.04 5.53144 23.1256 6.15823 22.8086 6.60006L14.2 18.5999C13.883 19.0418 13.2835 19.1313 12.8608 18.7999L10.9478 17.3C10.5252 16.9686 10.4395 16.3418 10.7565 15.9C11.0735 15.4581 11.673 15.3686 12.0956 15.7L13.2435 16.6L21.2782 5.40007C21.5952 4.95824 22.1947 4.8687 22.6173 5.20007Z" fill="#343A3D"/>
</svg>
