<svg width="24" height="24" viewBox="0 0 24 24" fill="none" xmlns="http://www.w3.org/2000/svg">
<path fill-rule="evenodd" clip-rule="evenodd" d="M13.9907 12C12.8848 12 11.9883 12.8954 11.9883 14C11.9883 15.1046 12.8848 16 13.9907 16C15.0965 16 15.993 15.1046 15.993 14C15.993 12.8954 15.0965 12 13.9907 12ZM9.98599 14C9.98599 11.7909 11.7789 10 13.9907 10C16.2024 10 17.9953 11.7909 17.9953 14C17.9953 16.2091 16.2024 18 13.9907 18C11.7789 18 9.98599 16.2091 9.98599 14Z" fill="#343A3D"/>
<path fill-rule="evenodd" clip-rule="evenodd" d="M3.97899 3C3.97899 1.89543 4.87547 1 5.98133 1H19.9977C21.1035 1 22 1.89543 22 3V7C22 8.10457 21.1035 9 19.9977 9H5.98133C4.87547 9 3.97899 8.10457 3.97899 7V3ZM19.9977 3H5.98133V7H19.9977V3Z" fill="#343A3D"/>
<path fill-rule="evenodd" clip-rule="evenodd" d="M8.98483 20.4792C8.98483 19.927 9.43306 19.4792 9.98599 19.4792H17.474C18.8678 19.4792 19.9977 20.6078 19.9977 22C19.9977 22.5523 19.5494 23 18.9965 23C18.4436 23 17.9953 22.5523 17.9953 22C17.9953 21.7124 17.7619 21.4792 17.474 21.4792H9.98599C9.43306 21.4792 8.98483 21.0315 8.98483 20.4792Z" fill="#343A3D"/>
<path fill-rule="evenodd" clip-rule="evenodd" d="M10.6447 21.2323C10.2283 21.5957 9.59587 21.5531 9.23205 21.1372L7.3477 18.9831C6.56957 18.0936 6.01454 17.0319 5.7285 15.8857L5.04342 13.1406L5.13039 16.4322C5.15609 17.4049 5.49307 18.3438 6.09193 19.1113L7.86637 21.3853C8.20628 21.8209 8.12829 22.4492 7.69218 22.7887C7.25607 23.1282 6.62698 23.0503 6.28707 22.6147L4.51263 20.3407C3.65073 19.2362 3.16574 17.8849 3.12875 16.4849L3.00065 11.6365C2.97346 10.6075 3.8012 9.75858 4.83178 9.75858C5.67279 9.75858 6.40575 10.3306 6.60916 11.1457L7.67138 15.402C7.88057 16.2402 8.28647 17.0167 8.85554 17.6672L10.7399 19.8213C11.1037 20.2372 11.0611 20.8689 10.6447 21.2323Z" fill="#343A3D"/>
<path d="M9.98599 5C9.98599 5.55228 9.53776 6 8.98483 6C8.4319 6 7.98366 5.55228 7.98366 5C7.98366 4.44772 8.4319 4 8.98483 4C9.53776 4 9.98599 4.44772 9.98599 5Z" fill="#343A3D"/>
<path d="M13.9907 5C13.9907 5.55228 13.5424 6 12.9895 6C12.4366 6 11.9883 5.55228 11.9883 5C11.9883 4.44772 12.4366 4 12.9895 4C13.5424 4 13.9907 4.44772 13.9907 5Z" fill="#343A3D"/>
<path d="M17.9953 5C17.9953 5.55228 17.5471 6 16.9942 6C16.4412 6 15.993 5.55228 15.993 5C15.993 4.44772 16.4412 4 16.9942 4C17.5471 4 17.9953 4.44772 17.9953 5Z" fill="#343A3D"/>
</svg>
