<svg width="24" height="24" viewBox="0 0 24 24" fill="none" xmlns="http://www.w3.org/2000/svg">
<path fill-rule="evenodd" clip-rule="evenodd" d="M8 2C6.34315 2 5 3.34315 5 5V19C5 20.6569 6.34315 22 8 22H16C17.6569 22 19 20.6569 19 19V5C19 3.34315 17.6569 2 16 2H8ZM7 5C7 4.44772 7.44772 4 8 4H9C9.20592 4.5826 9.84689 5 10.5 5H13.5C14.1531 5 14.7941 4.5826 15 4H16C16.5523 4 17 4.44772 17 5V19C17 19.5523 16.5523 20 16 20H8C7.44772 20 7 19.5523 7 19V5ZM14.8273 12.1285C15.0576 11.9948 15.0576 11.6721 14.8273 11.5384L10.5387 9.04966C10.3016 8.91207 10 9.07725 10 9.34468V14.3222C10 14.5896 10.3016 14.7548 10.5387 14.6172L14.8273 12.1285Z" fill="#343A3D"/>
</svg>
