<svg width="25" height="24" viewBox="0 0 25 24" fill="none" xmlns="http://www.w3.org/2000/svg">
<path d="M4.31795 11.1752C5.05929 7.00976 8.39346 4 12.1026 4C14.0118 4 15.6593 4.86872 17.0113 6.03249C17.7363 6.65656 18.3569 7.34953 18.8638 8H16.3334C15.7811 8 15.3334 8.44772 15.3334 9C15.3334 9.55228 15.7811 10 16.3334 10H20.7557C20.7669 10.0002 20.7781 10.0002 20.7893 10H21.3334C21.8857 10 22.3334 9.55228 22.3334 9V4C22.3334 3.44772 21.8857 3 21.3334 3C20.7811 3 20.3334 3.44772 20.3334 4V6.63341C19.7789 5.93609 19.1048 5.19567 18.316 4.51671C16.7446 3.16409 14.6511 2 12.1026 2C7.27025 2 3.23162 5.86484 2.34889 10.8248C2.25212 11.3685 2.61446 11.8878 3.1582 11.9845C3.70194 12.0813 4.22118 11.719 4.31795 11.1752Z" fill="#343A3D"/>
<path d="M12.5642 20C16.2734 20 19.6075 16.9902 20.3489 12.8248C20.4456 12.281 20.9649 11.9187 21.5086 12.0155C22.0523 12.1122 22.4147 12.6315 22.3179 13.1752C21.4352 18.1352 17.3966 22 12.5642 22C10.0158 22 7.92217 20.8359 6.35079 19.4833C5.562 18.8043 4.88785 18.0638 4.33337 17.3665V20C4.33337 20.5523 3.88566 21 3.33337 21C2.78109 21 2.33337 20.5523 2.33337 20V15C2.33337 14.4477 2.78109 14 3.33337 14H3.87748C3.88871 13.9998 3.89994 13.9998 3.91115 14H8.33337C8.88566 14 9.33337 14.4477 9.33337 15C9.33337 15.5523 8.88566 16 8.33337 16H5.80298C6.30988 16.6505 6.93055 17.3434 7.65555 17.9675C9.00754 19.1313 10.655 20 12.5642 20Z" fill="#343A3D"/>
</svg>
