<svg width="24" height="24" viewBox="0 0 24 24" fill="none" xmlns="http://www.w3.org/2000/svg">
<path fill-rule="evenodd" clip-rule="evenodd" d="M12 3C12.1268 3 12.2483 3.05027 12.3377 3.13967L20.741 11.5455C20.8298 11.6342 20.8796 11.7543 20.8796 11.8795V20.5262C20.8796 20.7879 20.6664 20.9999 20.4034 20.9999H3.59665C3.33366 20.9999 3.12046 20.7879 3.12046 20.5262V19.1683C3.12046 18.9067 3.33366 18.6946 3.59665 18.6946C3.85965 18.6946 4.07284 18.9067 4.07284 19.1683V20.0526H19.9272V12.0749L12 4.14544L4.07284 12.0749V15.6164C4.07284 15.878 3.85965 16.09 3.59665 16.09C3.33366 16.09 3.12046 15.878 3.12046 15.6164V11.8795C3.12046 11.7543 3.17027 11.6342 3.259 11.5455L11.6624 3.13967C11.7517 3.05027 11.8733 3 12 3Z" fill="#343A3D"/>
<path fill-rule="evenodd" clip-rule="evenodd" d="M11.6686 6.85443C11.8533 6.67636 12.1467 6.67636 12.3314 6.85443L18.4939 12.796C18.6332 12.9303 18.6766 13.1351 18.6038 13.314C18.531 13.4928 18.3564 13.6098 18.1625 13.6098H9.70428C9.44128 13.6098 9.22809 13.3977 9.22809 13.1361V10.5268L6.16896 13.4762C5.98012 13.6583 5.67865 13.6536 5.49561 13.4658C5.31257 13.2779 5.31728 12.9781 5.50612 12.796L11.6686 6.85443ZM10.1633 9.62509C10.1745 9.66534 10.1805 9.70775 10.1805 9.75154V12.6624H16.987L12 7.85424L10.1633 9.62509Z" fill="#343A3D"/>
<path fill-rule="evenodd" clip-rule="evenodd" d="M14.241 8.95785C14.5038 8.9591 14.7169 9.17232 14.7169 9.43408V12.6074C14.7169 12.8692 14.5038 13.0803 14.241 13.0791C13.9782 13.0778 13.7651 12.8646 13.7651 12.6029V9.42955C13.7651 9.16779 13.9782 8.9566 14.241 8.95785Z" fill="#343A3D"/>
<path fill-rule="evenodd" clip-rule="evenodd" d="M8.11777 13.1371C8.11542 12.8748 8.3261 12.6621 8.58834 12.6621H10.9215C11.1837 12.6621 11.3982 12.8748 11.4006 13.1371C11.4029 13.3995 11.1922 13.6121 10.93 13.6121H8.59684C8.3346 13.6121 8.12012 13.3995 8.11777 13.1371Z" fill="#343A3D"/>
<path fill-rule="evenodd" clip-rule="evenodd" d="M11.5854 3.13342C11.7689 2.95664 12.0599 2.95538 12.245 3.13055L21.8521 12.2253C22.0426 12.4056 22.0501 12.7054 21.8688 12.8949C21.6875 13.0844 21.386 13.0919 21.1955 12.9115L11.9196 4.13032L2.80747 12.9086C2.61855 13.0906 2.31709 13.0858 2.13412 12.8979C1.95116 12.71 1.95599 12.4101 2.14491 12.2281L11.5854 3.13342Z" fill="#343A3D"/>
<path fill-rule="evenodd" clip-rule="evenodd" d="M9.28283 15.979C9.28283 15.7174 9.49603 15.5053 9.75902 15.5053H14.2408C14.5038 15.5053 14.717 15.7174 14.717 15.979V20.5263C14.717 20.7879 14.5038 21 14.2408 21H9.75902C9.49603 21 9.28283 20.7879 9.28283 20.5263V15.979ZM10.2352 16.4527V20.0526H13.7646V16.4527H10.2352Z" fill="#343A3D"/>
</svg>
