<svg width="24" height="24" viewBox="0 0 24 24" fill="none" xmlns="http://www.w3.org/2000/svg">
<path fill-rule="evenodd" clip-rule="evenodd" d="M12 7.375C12.1802 7.375 12.3517 7.4528 12.4704 7.58843L15.9704 11.5884C16.1319 11.773 16.1705 12.0349 16.0692 12.2583C15.9678 12.4816 15.7452 12.625 15.5 12.625H8.50001C8.25477 12.625 8.0322 12.4816 7.93086 12.2583C7.82953 12.0349 7.86816 11.773 8.02965 11.5884L11.5296 7.58843C11.6483 7.4528 11.8198 7.375 12 7.375ZM14.1227 11.375L12 8.94912L9.87737 11.375H14.1227Z" fill="#343A3D"/>
<path fill-rule="evenodd" clip-rule="evenodd" d="M12.2991 2.48145C11.6246 2.30231 10.8756 2.48194 10.3531 3.01683L1.28462 12.3013C0.898721 12.6964 0.90617 13.3295 1.30126 13.7154C1.69635 14.1013 2.32947 14.0938 2.71538 13.6987L3 13.4073V19C3 20.1046 3.89543 21 5 21H19C20.1046 21 21 20.1046 21 19V13.421L21.3011 13.7152C21.6961 14.1012 22.3292 14.0939 22.7152 13.6989C23.1012 13.3039 23.0939 12.6708 22.6989 12.2848L15.3802 5.1324L13.4564 3.08838C13.136 2.74791 12.726 2.5456 12.2991 2.48145ZM11.9184 4.54578L13.9524 6.53355L19 11.8966V19H14.6501V15.5C14.6501 15.141 14.3591 14.85 14.0001 14.85H10.0001C9.64111 14.85 9.3501 15.141 9.3501 15.5V19H5V11.8966L11.9184 4.54578ZM13.3501 19H10.6501V16.15H13.3501V19Z" fill="#343A3D"/>
</svg>
