<svg width="24" height="24" viewBox="0 0 24 24" fill="none" xmlns="http://www.w3.org/2000/svg">
<path fill-rule="evenodd" clip-rule="evenodd" d="M16.9879 6.99299L15.9879 7C16.9879 6.99299 16.9879 6.99385 16.9879 6.99472L16.9879 6.99649L16.9879 7V19.9428C16.9879 21.6313 15.6192 23 13.9308 23H9.05714C7.36873 23 6 21.6313 6 19.9428V14.4855C6 12.1021 7.67283 10.0871 9.92698 9.50031C10.7871 9.2764 11.745 9.00933 12.6997 8.7088C14.0268 8.29104 14.5689 7.74334 14.7918 7.41529C14.9075 7.24487 14.9554 7.10746 14.9752 7.03147C14.9837 6.99867 14.9872 6.9764 14.9885 6.96696C15.0059 6.43131 15.4446 6.0019 15.9844 6.00001C16.5354 5.99807 16.9841 6.44208 16.9879 6.99299ZM14.9879 9.87406C14.5295 10.1513 13.9732 10.4047 13.3003 10.6165C12.3056 10.9296 11.3142 11.2058 10.4308 11.4358C9.00494 11.807 8 13.0662 8 14.4855V19.9428C8 20.5267 8.4733 21 9.05714 21H13.9308C14.5146 21 14.9879 20.5267 14.9879 19.9428V9.87406Z" fill="#343A3D"/>
<path fill-rule="evenodd" clip-rule="evenodd" d="M8.60692 4.32528C8.11757 5.06342 8 5.94038 8 6.36364C8 6.91592 7.55228 7.36364 7 7.36364C6.44772 7.36364 6 6.91592 6 6.36364C6 5.69598 6.16368 4.39112 6.93996 3.22018C7.75985 1.98344 9.19929 1 11.5 1C13.8007 1 15.2402 1.98344 16.06 3.22018C16.8363 4.39112 17 5.69598 17 6.36364V13.9993L15 13.9999V6.36364C15 5.94038 14.8824 5.06342 14.3931 4.32528C13.9473 3.65292 13.1368 3 11.5 3C9.86321 3 9.05265 3.65292 8.60692 4.32528ZM16 15C15.4477 15 15 14.5522 15 13.9999L17 13.9993C17 14.5516 16.5523 15 16 15Z" fill="#343A3D"/>
<path d="M9.8 16.45C9.8 16.0357 10.1358 15.7 10.55 15.7H13.05C13.4642 15.7 13.8 16.0357 13.8 16.45C13.8 16.8642 13.4642 17.2 13.05 17.2H10.55C10.1358 17.2 9.8 16.8642 9.8 16.45Z" fill="#343A3D"/>
<path d="M10.05 14C10.4642 14 10.8 14.3358 10.8 14.75V18.25C10.8 18.6642 10.4642 19 10.05 19C9.63579 19 9.3 18.6642 9.3 18.25L9.3 14.75C9.3 14.3358 9.63579 14 10.05 14Z" fill="#343A3D"/>
<path d="M13.05 14C13.4642 14 13.8 14.3358 13.8 14.75V18.25C13.8 18.6642 13.4642 19 13.05 19C12.6358 19 12.3 18.6642 12.3 18.25V14.75C12.3 14.3358 12.6358 14 13.05 14Z" fill="#343A3D"/>
</svg>
