<svg width="24" height="24" viewBox="0 0 24 24" fill="none" xmlns="http://www.w3.org/2000/svg">
<path d="M12.5 1C13.0523 1 13.5 1.44875 13.5 2.00231V3.05967C17.6716 3.52188 20.9839 6.84182 21.4451 11.0231H22.5C23.0523 11.0231 23.5 11.4718 23.5 12.0254C23.5 12.5789 23.0523 13.0277 22.5 13.0277H2.5C1.94772 13.0277 1.5 12.5789 1.5 12.0254C1.5 11.4718 1.94772 11.0231 2.5 11.0231H3.55493C4.01608 6.84182 7.32838 3.52188 11.5 3.05967V2.00231C11.5 1.44875 11.9477 1 12.5 1ZM5.57089 11.0231H19.4291C18.9439 7.62294 16.0265 5.00922 12.5 5.00922C8.97353 5.00922 6.05612 7.62294 5.57089 11.0231ZM6.15217 16.0346H11.8478C12.208 16.0346 12.5 16.3272 12.5 16.6883V17.059C12.5 17.4666 12.1319 17.7748 11.7317 17.7023L8.67803 17.1485C8.13457 17.0499 7.6143 17.4116 7.51598 17.9563C7.41765 18.5011 7.7785 19.0225 8.32197 19.1211L11.3756 19.6748C12.7519 19.9244 14.0348 19.0666 14.3981 17.7934L18.25 16.5064C18.5908 16.3926 18.9596 16.5768 19.0738 16.9202L19.1523 17.1562C19.2453 17.4359 19.14 17.7433 18.8953 17.9068L14.4375 20.8856C14.3119 20.9695 14.1611 21.0072 14.0109 20.9921L6.08728 20.198C5.75389 20.1645 5.5 19.8833 5.5 19.5475V16.6883C5.5 16.3272 5.79199 16.0346 6.15217 16.0346ZM14.314 15.7084C13.9248 14.7252 12.9673 14.03 11.8478 14.03H6.15217C4.68742 14.03 3.5 15.2201 3.5 16.6883V19.5475C3.5 20.9132 4.53248 22.0567 5.88827 22.1926L13.8119 22.9868C14.4228 23.048 15.036 22.8949 15.5469 22.5535L20.0047 19.5748C20.9999 18.9098 21.4278 17.6596 21.0496 16.5223L20.9711 16.2863C20.5083 14.8945 19.0081 14.1401 17.6176 14.6047L14.314 15.7084Z" fill="#343A3D"/>
</svg>
