<svg width="24" height="24" viewBox="0 0 24 24" fill="none" xmlns="http://www.w3.org/2000/svg">
<path d="M9 13C9 13.5523 8.55228 14 8 14H7C6.44772 14 6 13.5523 6 13C6 12.4477 6.44772 12 7 12H8C8.55228 12 9 12.4477 9 13Z" fill="#343A3D"/>
<path d="M3 4C3 2.89543 3.89543 2 5 2H16C17.1046 2 18 2.89543 18 4V6.39797L19.6184 7.38787L21.501 8.47778C21.8098 8.65657 22 8.98637 22 9.34322V11.0883C22 13.6615 20.3737 15.9211 18 16.7693V20C18 21.1046 17.1046 22 16 22H5C3.89543 22 3 21.1046 3 20V4ZM16 16.7261C13.6235 15.8375 12 13.5543 12 10.9559V9.34335C12 8.97785 12.1994 8.64146 12.5201 8.46604L14.5049 7.38026L16 6.47683V4L5 4V20H16V16.7261ZM20 11.0883V9.91978L18.6059 9.11269L18.5851 9.10033L17.0646 8.1703L15.5209 9.10313C15.5086 9.11054 15.4962 9.11769 15.4836 9.12456L14 9.93616V10.9559C14 12.8399 15.2638 14.4786 17.0638 14.9699C18.7918 14.4822 20 12.9017 20 11.0883Z" fill="#343A3D"/>
</svg>
