<svg width="24" height="24" viewBox="0 0 24 24" fill="none" xmlns="http://www.w3.org/2000/svg">
<path fill-rule="evenodd" clip-rule="evenodd" d="M10.75 10.5014C10.75 10.3235 10.8292 10.1667 11.0442 10.0218C11.2758 9.8657 11.6279 9.75881 12.016 9.75051C12.4055 9.74218 12.745 9.83462 12.9619 9.97779C13.1515 10.1029 13.25 10.2603 13.25 10.5014C13.25 10.9156 13.5858 11.2514 14 11.2514C14.4142 11.2514 14.75 10.9156 14.75 10.5014C14.75 9.69924 14.3485 9.09557 13.7881 8.72579C13.4742 8.51867 13.1161 8.38626 12.75 8.31506V8C12.75 7.58579 12.4142 7.25 12 7.25C11.5858 7.25 11.25 7.58579 11.25 8V8.33985C10.879 8.42341 10.5188 8.56703 10.2058 8.77803C9.67076 9.13869 9.25 9.72156 9.25 10.5014C9.25 11.3172 9.70923 11.8407 10.236 12.1603C10.6982 12.4406 11.2811 12.6079 11.745 12.741L11.7929 12.7547C12.3219 12.9067 12.7144 13.025 12.9863 13.1898C13.2097 13.3251 13.25 13.4239 13.25 13.5648C13.25 13.7366 13.1769 13.8778 12.9717 14.0087C12.7453 14.1531 12.3945 14.2499 11.9998 14.25C11.605 14.2501 11.2543 14.1535 11.0279 14.0093C10.8227 13.8787 10.75 13.7379 10.75 13.567C10.75 13.1527 10.4142 12.817 10 12.817C9.58579 12.817 9.25 13.1527 9.25 13.567C9.25 14.3516 9.67726 14.9275 10.2221 15.2745C10.5324 15.4721 10.8868 15.6026 11.25 15.676V16C11.25 16.4142 11.5858 16.75 12 16.75C12.4142 16.75 12.75 16.4142 12.75 16V15.6757C13.1134 15.602 13.4679 15.4713 13.7783 15.2733C14.3231 14.9258 14.75 14.3495 14.75 13.5648C14.75 12.7491 14.2903 12.226 13.7637 11.9069C13.302 11.6271 12.7197 11.4601 12.2561 11.3271L12.2071 11.313C11.6783 11.1611 11.2858 11.0427 11.014 10.8778C10.7908 10.7424 10.75 10.6433 10.75 10.5014Z" fill="#343A3D"/>
<path d="M5 6C5 5.44772 5.44772 5 6 5H18C18.5523 5 19 5.44772 19 6V18C19 18.5523 18.5523 19 18 19H6C5.44772 19 5 18.5523 5 18V6ZM7 7V17H17V7H7Z" fill="#343A3D"/>
<path d="M2 4C2 2.89543 2.89543 2 4 2H20C21.1046 2 22 2.89543 22 4V20C22 21.1046 21.1046 22 20 22C20 22.5523 19.5523 23 19 23C18.4477 23 18 22.5523 18 22H6C6 22.5523 5.55228 23 5 23C4.44772 23 4 22.5523 4 22C2.89543 22 2 21.1046 2 20V4ZM4 20H20V4L4 4V20Z" fill="#343A3D"/>
</svg>
