<svg width="25" height="24" viewBox="0 0 25 24" fill="none" xmlns="http://www.w3.org/2000/svg">
<path d="M12.7475 14.0469L17.0404 9.73854C17.4309 9.34661 17.4309 8.71116 17.0404 8.31922C16.6498 7.92729 16.0167 7.92729 15.6261 8.31922L11.3333 12.6276L9.04036 10.3264C8.64983 9.93451 8.01667 9.93451 7.62615 10.3264C7.23562 10.7184 7.23562 11.3538 7.62615 11.7458L9.91904 14.0469C10.7001 14.8308 11.9664 14.8308 12.7475 14.0469Z" fill="#343A3D"/>
<path fill-rule="evenodd" clip-rule="evenodd" d="M5.33325 1C3.6764 1 2.33325 2.34799 2.33325 4.01083V9.02888C2.33327 13.9971 4.07064 17.31 6.12416 19.4624C8.15483 21.5909 10.4401 22.5299 11.4938 22.8765C12.0745 23.0675 12.6858 23.0338 13.2371 22.7974C15.2394 21.9386 22.3333 18.2447 22.3333 9.02888V4.01083C22.3333 2.348 20.9901 1 19.3333 1H5.33325ZM4.33325 4.01083C4.33325 3.45655 4.78097 3.00722 5.33325 3.00722H19.3333C19.8855 3.00722 20.3333 3.45655 20.3333 4.01083V9.02888C20.3333 16.9805 14.2599 20.1759 12.4512 20.9516C12.3358 21.0011 12.2249 21.0047 12.1167 20.9691C11.2429 20.6817 9.29219 19.8807 7.56874 18.0743C5.86815 16.2918 4.33327 13.4747 4.33325 9.02888V4.01083Z" fill="#343A3D"/>
</svg>
