<svg width="24" height="24" viewBox="0 0 24 24" fill="none" xmlns="http://www.w3.org/2000/svg">
<path fill-rule="evenodd" clip-rule="evenodd" d="M7.97081 4.00202C7.42121 4.00202 6.97567 4.45018 6.97567 5.00302C6.97567 5.55586 7.42121 6.00403 7.97081 6.00403C8.52041 6.00403 8.96594 5.55586 8.96594 5.00302C8.96594 4.45018 8.52041 4.00202 7.97081 4.00202ZM4.9854 5.00302C4.9854 3.3445 6.32202 2 7.97081 2C9.6196 2 10.9562 3.3445 10.9562 5.00302C10.9562 6.66155 9.6196 8.00605 7.97081 8.00605C6.32202 8.00605 4.9854 6.66155 4.9854 5.00302ZM16.4883 4.38571C16.9184 4.04149 17.5444 4.11315 17.8866 4.54576C18.2583 5.01559 18.4563 5.66723 18.2727 6.36005C18.093 7.03849 17.5927 7.59195 16.9019 8.00591C16.6795 8.13917 16.5758 8.24977 16.5294 8.31353C16.8417 8.71288 16.8082 9.29321 16.4364 9.65295C16.0403 10.0362 15.4104 10.024 15.0293 9.62556C14.584 9.15996 14.3876 8.49621 14.5822 7.81753C14.7661 7.17574 15.2551 6.66242 15.8833 6.28599C16.2861 6.04456 16.3445 5.8637 16.3496 5.8446L16.3501 5.84297C16.3522 5.83768 16.3565 5.82678 16.3292 5.79227C15.987 5.35966 16.0582 4.72992 16.4883 4.38571ZM20.0558 4.68298C20.4563 4.30437 21.0861 4.32401 21.4625 4.72686C21.6761 4.95554 21.8603 5.24259 21.9475 5.59183C22.0367 5.94854 22.0077 6.30321 21.8948 6.63089C21.685 7.23968 21.19 7.74803 20.6292 8.18244C20.4059 8.35534 20.2642 8.48149 20.1757 8.57601C20.1822 8.58615 20.1889 8.5976 20.1969 8.60928C20.5075 9.06538 20.3917 9.68839 19.9383 10.0008C19.4848 10.3132 18.8655 10.1967 18.5549 9.74064C18.2657 9.316 17.9698 8.69885 18.2334 7.97025C18.4418 7.39443 18.9486 6.9574 19.4148 6.59623C19.6361 6.42488 19.7867 6.28114 19.8849 6.1663C19.9245 6.11999 19.9525 6.08201 19.9721 6.05237C19.6378 5.64863 19.6701 5.0476 20.0558 4.68298ZM5.36723 9.60031C5.52723 9.23947 5.88327 9.00705 6.27606 9.00705H9.29766C9.64845 9.00705 9.97334 9.19284 10.1528 9.49606L12.138 12.8509H16.2042C16.5524 12.8509 16.8753 13.0341 17.0556 13.3338L20.1492 18.4779C20.7628 19.4982 20.5078 20.8202 19.5594 21.5357C18.5466 22.2998 17.1107 22.1002 16.342 21.0883L14.7685 19.0171H2.99513C2.44554 19.0171 2 18.569 2 18.0161C2 17.5313 2.3426 17.127 2.79755 17.0349C2.58691 16.5123 2.57258 15.9031 2.8296 15.3234L5.36723 9.60031ZM6.95334 17.0151H8.72535L7.90784 15.7507L6.95334 17.0151ZM6.92185 11.0091L4.64727 16.1389C4.5915 16.2647 4.68301 16.4065 4.81991 16.4065C4.87901 16.4065 4.93471 16.3787 4.97045 16.3314L7.17828 13.4067C7.37416 13.1472 7.68334 12.9999 8.00704 13.0117C8.33073 13.0236 8.62843 13.1932 8.80503 13.4663L10.4117 15.9513C10.5953 16.2352 10.9092 16.4065 11.2459 16.4065H14.798C15.1081 16.4065 15.4004 16.5519 15.5887 16.7997L17.9233 19.8727C18.0289 20.0116 18.2261 20.0391 18.3653 19.9341C18.4955 19.8358 18.5305 19.6543 18.4463 19.5141L15.6431 14.8529H11.5722C11.2214 14.8529 10.8966 14.6671 10.7171 14.3639L8.73191 11.0091H6.92185Z" fill="#343A3D"/>
</svg>
