<svg width="25" height="24" viewBox="0 0 25 24" fill="none" xmlns="http://www.w3.org/2000/svg">
<path fill-rule="evenodd" clip-rule="evenodd" d="M10.3333 1C5.36269 1 1.33325 5.02944 1.33325 10C1.33325 14.9706 5.36269 19 10.3333 19C12.4583 19 14.4113 18.2635 15.9509 17.0319L21.6262 22.7071C22.0167 23.0976 22.6498 23.0976 23.0404 22.7071C23.4309 22.3166 23.4309 21.6834 23.0404 21.2929L17.3652 15.6177C18.5968 14.078 19.3333 12.125 19.3333 10C19.3333 5.02944 15.3038 1 10.3333 1ZM3.33325 10C3.33325 6.13401 6.46726 3 10.3333 3C14.1992 3 17.3333 6.13401 17.3333 10C17.3333 13.866 14.1992 17 10.3333 17C6.46726 17 3.33325 13.866 3.33325 10Z" fill="#343A3D"/>
</svg>
