<svg width="24" height="24" viewBox="0 0 24 24" fill="none" xmlns="http://www.w3.org/2000/svg">
<path fill-rule="evenodd" clip-rule="evenodd" d="M6.99999 2C6.32501 2 5.7523 2.17162 5.28905 2.48045C4.83208 2.78511 4.5399 3.18416 4.35559 3.55278C4.17323 3.91749 4.08703 4.2701 4.04486 4.52309C4.02338 4.65195 4.01226 4.76153 4.00645 4.8428C4.00353 4.88361 4.00193 4.91777 4.00104 4.94421C4.0006 4.95744 4.00034 4.96879 4.00019 4.97812L4.00004 4.9906L4.00001 4.99568L4 4.99793L4 5V16.1045L4.00412 16.1037C4.03614 16.5057 4.2491 16.8016 4.43522 16.9838C4.63345 17.1779 4.87143 17.3163 5.08356 17.418C5.51248 17.6234 6.06692 17.7855 6.65164 17.9195C7.06302 18.0138 7.51806 18.1004 8 18.1798V20H7C6.44772 20 6 20.4477 6 21C6 21.5523 6.44772 22 7 22H11C11.5523 22 12 21.5523 12 21C12 20.4477 11.5523 20 11 20H10V18.4573C10.2983 18.4925 10.5981 18.5255 10.8964 18.5566C12.415 18.7148 13.9298 18.8252 15.0626 18.8961C15.6296 18.9315 16.1024 18.9572 16.4338 18.9739C16.5996 18.9823 16.7301 18.9885 16.8194 18.9926L16.9219 18.9972L16.9581 18.9988C16.9719 18.9993 16.986 18.9996 16.9998 18.9996H17.0008L17.0041 18.9996L17.0092 18.9996L17.0217 18.9995C17.031 18.9993 17.0424 18.999 17.0556 18.9986C17.0821 18.9977 17.1162 18.9961 17.157 18.9932C17.2383 18.9874 17.3479 18.9763 17.4768 18.9549C17.7298 18.9127 18.0824 18.8266 18.4472 18.6442C18.8158 18.4599 19.2149 18.1677 19.5196 17.7107C19.8284 17.2474 20 16.6747 20 15.9996C20 15.3246 19.8284 14.7518 19.5196 14.2885C19.2149 13.8315 18.8158 13.5393 18.4471 13.355C18.0824 13.1727 17.7298 13.0865 17.4768 13.0444C17.3479 13.023 17.2383 13.0118 17.157 13.0061C17.1162 13.0031 17.082 13.0015 17.0556 13.0007C17.0424 13.0002 17.031 13 17.0217 12.9998L17.0092 12.9997L17.0041 12.9996L17.0008 12.9996L16.9583 13.0005L16.9998 12.9996C16.986 12.9996 16.9722 12.9999 16.9583 13.0005L16.9219 13.0021L16.8194 13.0067C16.7301 13.0108 16.5996 13.017 16.4338 13.0253C16.1024 13.0421 15.6296 13.0677 15.0626 13.1032C13.9298 13.174 12.415 13.2844 10.8964 13.4427C10.5981 13.4737 10.2983 13.5068 10 13.5419V11H15C15.5523 11 16 10.5523 16 10C16 9.44772 15.5523 9 15 9H10L10 4.99792L9.99999 4.99567L9.99996 4.99059L9.99981 4.97811C9.99966 4.96878 9.9994 4.95743 9.99896 4.9442C9.99807 4.91775 9.99646 4.88359 9.99355 4.84279C9.98774 4.76152 9.97661 4.65194 9.95513 4.52308C9.91296 4.27009 9.82676 3.91748 9.6444 3.55277C9.46008 3.18415 9.1679 2.78511 8.71092 2.48045C8.24768 2.17162 7.67497 2 6.99999 2ZM8 5.00904V13.1932L6 13.6257V5.00903C6.00016 5.00505 6.00053 4.99697 6.00137 4.98532C6.00337 4.95722 6.00787 4.91055 6.01765 4.85191C6.03798 4.7299 6.07679 4.58251 6.14444 4.44722C6.21012 4.31584 6.29295 4.21489 6.39846 4.14455C6.49772 4.07838 6.67499 4 6.99999 4C7.32499 4 7.50226 4.07838 7.60152 4.14455C7.70704 4.2149 7.78987 4.31585 7.85556 4.44723C7.9232 4.58252 7.96201 4.72991 7.98235 4.85192C7.99213 4.91056 7.99663 4.95723 7.99863 4.98534C7.99947 4.99698 7.99984 5.00506 8 5.00904ZM17.0148 16.9983L17.0051 16.9989L16.9111 16.9947C16.8246 16.9907 16.6973 16.9847 16.5349 16.9765C16.2101 16.96 15.7454 16.9349 15.1874 16.9C14.0702 16.8301 12.585 16.7217 11.1036 16.5674C9.67419 16.4184 8.28073 16.2299 7.23036 15.9996C8.28073 15.7693 9.67419 15.5808 11.1036 15.4319C12.585 15.2776 14.0702 15.1692 15.1874 15.0993C15.7454 15.0644 16.2101 15.0392 16.5349 15.0228C16.6973 15.0146 16.8246 15.0085 16.911 15.0046L17.0051 15.0003L17.0149 15.001C17.043 15.003 17.0896 15.0075 17.1482 15.0173C17.2702 15.0376 17.4176 15.0763 17.5529 15.144C17.6842 15.2096 17.7851 15.2924 17.8554 15.3979C17.9216 15.4972 18 15.6745 18 15.9996C18 16.3248 17.9216 16.5021 17.8554 16.6013C17.7851 16.7069 17.6842 16.7896 17.5528 16.8553C17.4176 16.9229 17.2702 16.9617 17.1482 16.982C17.0896 16.9918 17.0429 16.9963 17.0148 16.9983Z" fill="#343A3D"/>
</svg>
