<svg width="24" height="24" viewBox="0 0 24 24" fill="none" xmlns="http://www.w3.org/2000/svg">
<path d="M5 5C5 3.34315 6.34315 2 8 2H16C17.6569 2 19 3.34315 19 5V11.0001H21C21.5523 11.0001 22 11.4478 22 12.0001V17.0001C22 18.657 20.6569 20.0001 19 20.0001V21C19 21.5523 18.5523 22 18 22C17.4477 22 17 21.5523 17 21V20.0001H7V21C7 21.5523 6.55228 22 6 22C5.44772 22 5 21.5523 5 21L5 20.0001C3.34315 20.0001 2 18.657 2 17.0001V12.0001C2 11.4478 2.44772 11.0001 3 11.0001H5V5ZM8 4C7.44772 4 7 4.44772 7 5V14H17V5C17 4.44772 16.5523 4 16 4H8ZM5 13.0001H4V17.0001C4 17.5524 4.44772 18.0001 5 18.0001H19C19.5523 18.0001 20 17.5524 20 17.0001V13.0001H19V15C19 15.5523 18.5523 16 18 16H6C5.44772 16 5 15.5523 5 15V13.0001Z" fill="#343A3D"/>
</svg>
