<svg width="24" height="24" viewBox="0 0 24 24" fill="none" xmlns="http://www.w3.org/2000/svg">
<path d="M12 7C12.5651 7 13.0233 7.44772 13.0233 8V11C13.0233 11.5523 12.5651 12 12 12C11.4349 12 10.9767 11.5523 10.9767 11V8C10.9767 7.44772 11.4349 7 12 7Z" fill="#343A3D"/>
<path d="M12 15C12.5651 15 13.0233 14.5523 13.0233 14C13.0233 13.4477 12.5651 13 12 13C11.4349 13 10.9767 13.4477 10.9767 14C10.9767 14.5523 11.4349 15 12 15Z" fill="#343A3D"/>
<path d="M12 3C9.17436 3 6.88372 5.23858 6.88372 8V16H4.83721C3.70695 16 2.7907 16.8954 2.7907 18V20C2.7907 21.1046 3.70695 22 4.83721 22H19.1628C20.293 22 21.2093 21.1046 21.2093 20V18C21.2093 16.8954 20.293 16 19.1628 16H17.1163V8C17.1163 5.23858 14.8256 3 12 3ZM15.0698 8V16H8.93023V8C8.93023 6.34315 10.3046 5 12 5C13.6954 5 15.0698 6.34315 15.0698 8ZM4.83721 18H19.1628V20H4.83721V18Z" fill="#343A3D"/>
<path d="M20.5904 12.5565C21.7567 11.0023 21.7567 8.99771 20.5904 7.44351C20.3398 7.10949 20.4137 6.64014 20.7555 6.39519C21.0972 6.15023 21.5775 6.22244 21.8282 6.55647C23.3906 8.63864 23.3906 11.3613 21.8282 13.4435C21.5775 13.7775 21.0973 13.8497 20.7555 13.6048C20.4137 13.3598 20.3398 12.8905 20.5904 12.5565Z" fill="#343A3D"/>
<path d="M3.40958 12.5565C2.24333 11.0023 2.24331 8.99772 3.40955 7.44353C3.6602 7.10951 3.58631 6.64016 3.24452 6.39521C2.90273 6.15026 2.42246 6.22246 2.17182 6.55649C0.609373 8.63867 0.609408 11.3614 2.17184 13.4435C2.42249 13.7776 2.90276 13.8498 3.24455 13.6048C3.58634 13.3599 3.66023 12.8905 3.40958 12.5565Z" fill="#343A3D"/>
<path d="M18.8151 9.36629C18.7547 9.18065 18.6841 9.08834 18.6466 9.05496C18.3329 8.77633 18.3098 8.30199 18.5949 7.9955C18.88 7.68901 19.3654 7.66642 19.679 7.94505C19.9825 8.2147 20.1677 8.57315 20.2779 8.91213C20.3904 9.2582 20.4419 9.63535 20.4419 10C20.4419 10.3647 20.3904 10.7418 20.2779 11.0879C20.1677 11.4269 19.9825 11.7853 19.679 12.055C19.3654 12.3336 18.88 12.311 18.5949 12.0045C18.3098 11.698 18.3329 11.2237 18.6466 10.9451C18.6841 10.9117 18.7547 10.8194 18.8151 10.6337C18.8731 10.4552 18.907 10.2338 18.907 10C18.907 9.76618 18.8731 9.54484 18.8151 9.36629Z" fill="#343A3D"/>
<path d="M5.35345 10.945C5.31588 10.9117 5.24525 10.8193 5.18491 10.6337C5.12687 10.4552 5.09302 10.2338 5.09302 9.99999C5.09302 9.76616 5.12687 9.54483 5.18491 9.36628C5.24525 9.18064 5.31588 9.08833 5.35345 9.05495C5.66707 8.77632 5.69018 8.30198 5.40507 7.99549C5.11996 7.689 4.63459 7.66641 4.32097 7.94504C4.01746 8.21469 3.83226 8.57313 3.72207 8.91212C3.60957 9.25819 3.55814 9.63534 3.55814 9.99999C3.55814 10.3646 3.60957 10.7418 3.72207 11.0879C3.83226 11.4269 4.01746 11.7853 4.32097 12.0549C4.63459 12.3336 5.11996 12.311 5.40507 12.0045C5.69018 11.698 5.66707 11.2237 5.35345 10.945Z" fill="#343A3D"/>
</svg>
