<svg width="24" height="24" viewBox="0 0 24 24" fill="none" xmlns="http://www.w3.org/2000/svg">
<path fill-rule="evenodd" clip-rule="evenodd" d="M15.9998 3C15.4475 3 14.9998 3.44772 14.9998 4C14.9998 4.55228 15.4475 5 15.9998 5C16.5521 5 16.9998 4.55228 16.9998 4C16.9998 3.44772 16.5521 3 15.9998 3ZM12.9998 4C12.9998 2.34315 14.343 1 15.9998 1C17.6567 1 18.9998 2.34315 18.9998 4C18.9998 5.65685 17.6567 7 15.9998 7C14.343 7 12.9998 5.65685 12.9998 4Z" fill="#343A3D"/>
<path d="M5.99982 22C5.99982 22.5523 5.55211 23 4.99982 23C4.44754 23 3.99982 22.5523 3.99982 22C3.99982 21.4477 4.44754 21 4.99982 21C5.55211 21 5.99982 21.4477 5.99982 22Z" fill="#343A3D"/>
<path fill-rule="evenodd" clip-rule="evenodd" d="M12.8466 8.49226C13.2051 7.87782 13.8629 7.5 14.5742 7.5H15.9998C17.6567 7.5 18.9998 8.84315 18.9998 10.5V11.865L20.3596 10.7318C20.7839 10.3782 21.4145 10.4355 21.768 10.8598C22.1216 11.2841 22.0643 11.9147 21.64 12.2682L18.64 14.7682C18.3419 15.0166 17.9271 15.0702 17.5757 14.9056C17.2243 14.741 16.9998 14.388 16.9998 14V10.5C16.9998 9.94772 16.5521 9.5 15.9998 9.5L14.5742 9.5L11.3636 15.0039C11.0853 15.4809 10.473 15.6421 9.99595 15.3638C9.5189 15.0855 9.35776 14.4732 9.63604 13.9961L12.8466 8.49226Z" fill="#343A3D"/>
<path fill-rule="evenodd" clip-rule="evenodd" d="M15.0143 13.6425C15.4879 13.9267 15.6415 14.5409 15.3573 15.0145L10.8573 22.5145C10.5732 22.9881 9.95891 23.1416 9.48533 22.8575C9.01175 22.5733 8.85818 21.9591 9.14233 21.4855L13.6423 13.9855C13.9265 13.5119 14.5407 13.3584 15.0143 13.6425Z" fill="#343A3D"/>
<path fill-rule="evenodd" clip-rule="evenodd" d="M11.2772 13.584C11.5069 13.7372 11.569 14.0476 11.4158 14.2773L9.41585 17.2773C9.26267 17.5071 8.95224 17.5692 8.72247 17.416C8.49271 17.2628 8.43062 16.9524 8.5838 16.7226L10.5838 13.7226C10.737 13.4929 11.0474 13.4308 11.2772 13.584Z" fill="#343A3D"/>
<path fill-rule="evenodd" clip-rule="evenodd" d="M16.3894 16.5061C15.8405 16.5671 15.4449 17.0615 15.5059 17.6104L16.0059 22.1104C16.0669 22.6593 16.5613 23.0549 17.1103 22.9939C17.6592 22.9329 18.0547 22.4385 17.9937 21.8896L17.4937 17.3896C17.4327 16.8407 16.9383 16.4451 16.3894 16.5061Z" fill="#343A3D"/>
<path fill-rule="evenodd" clip-rule="evenodd" d="M3.97389 16.2413C4.80231 14.8064 6.63708 14.3148 8.07196 15.1433L9.80401 16.1433C10.2823 16.4194 10.4462 17.031 10.17 17.5093L7.32996 22.4284C7.19735 22.6581 6.97893 22.8257 6.72275 22.8944C6.46657 22.963 6.19362 22.9271 5.96393 22.7945L2.49983 20.7945C2.02154 20.5183 1.85766 19.9067 2.13381 19.4284L3.97389 16.2413ZM7.07196 16.8753C6.59367 16.5992 5.98208 16.763 5.70594 17.2413L4.36586 19.5624L6.09791 20.5624L7.93799 17.3753L7.07196 16.8753Z" fill="#343A3D"/>
</svg>
