<svg width="24" height="24" viewBox="0 0 24 24" fill="none" xmlns="http://www.w3.org/2000/svg">
<path d="M19.1513 2.2118C20.5514 1.51021 22.1687 2.64827 21.9858 4.20633L20.3794 17.8909C20.229 19.1724 18.9117 19.9663 17.7118 19.4986L13.8279 17.9849L10.11 21.7111C9.82856 21.9932 9.40535 22.0775 9.03768 21.9249C8.67 21.7723 8.43027 21.4127 8.43027 21.0138V15.8811L3.2547 13.8638C1.66381 13.2438 1.56115 11.0266 3.08789 10.2615L19.1513 2.2118ZM10.3982 16.6481V18.633L11.8241 17.2039L10.3982 16.6481ZM11.0975 14.8045L18.425 17.6605L19.782 6.10048L11.0975 14.8045ZM18.2062 4.8905L3.96795 12.0256L9.09374 14.0235L18.2062 4.8905Z" fill="#343A3D"/>
</svg>
