<svg width="24" height="24" viewBox="0 0 24 24" fill="none" xmlns="http://www.w3.org/2000/svg">
<path fill-rule="evenodd" clip-rule="evenodd" d="M11 3L7 3C6.44772 3 6 2.55229 6 2C6 1.44772 6.44772 1 7 1L14 1C14.5523 1 15 1.44772 15 2C15 2.55228 14.5523 3 14 3H13V5C14.6569 5 16 6.34315 16 8V8.17071C17.1652 8.58254 18 9.69378 18 11V20C18 21.6569 16.6569 23 15 23H9C7.34315 23 6 21.6569 6 20V11C6 9.69378 6.83481 8.58254 8 8.17071V8C8 6.34315 9.34315 5 11 5V3ZM11 7C10.4477 7 10 7.44772 10 8L14 8C14 7.44772 13.5523 7 13 7H11ZM9 10C8.44772 10 8 10.4477 8 11V20C8 20.5523 8.44772 21 9 21H15C15.5523 21 16 20.5523 16 20V11C16 10.4477 15.5523 10 15 10H9Z" fill="#343A3D"/>
</svg>
