<svg width="25" height="24" viewBox="0 0 25 24" fill="none" xmlns="http://www.w3.org/2000/svg">
<path d="M11.6262 1.29289C12.0167 0.902369 12.6499 0.902369 13.0404 1.29289L16.0404 4.29289C16.4309 4.68342 16.4309 5.31658 16.0404 5.70711C15.6499 6.09763 15.0167 6.09763 14.6262 5.70711L13.3333 4.41421V15C13.3333 15.5523 12.8856 16 12.3333 16C11.781 16 11.3333 15.5523 11.3333 15V4.41421L10.0404 5.70711C9.6499 6.09763 9.01673 6.09763 8.62621 5.70711C8.23568 5.31658 8.23568 4.68342 8.62621 4.29289L11.6262 1.29289ZM2.33331 11C2.33331 9.34315 3.67646 8 5.33331 8H7.33331C7.8856 8 8.33331 8.44772 8.33331 9C8.33331 9.55228 7.8856 10 7.33331 10H5.33331C4.78103 10 4.33331 10.4477 4.33331 11V20C4.33331 20.5523 4.78103 21 5.33331 21H19.3333C19.8856 21 20.3333 20.5523 20.3333 20V11C20.3333 10.4477 19.8856 10 19.3333 10H17.3333C16.781 10 16.3333 9.55228 16.3333 9C16.3333 8.44772 16.781 8 17.3333 8H19.3333C20.9902 8 22.3333 9.34315 22.3333 11V20C22.3333 21.6569 20.9902 23 19.3333 23H5.33331C3.67646 23 2.33331 21.6569 2.33331 20V11Z" fill="#323439"/>
</svg>
