<svg width="25" height="24" viewBox="0 0 25 24" fill="none" xmlns="http://www.w3.org/2000/svg">
<path d="M19.3333 1C17.1242 1 15.3333 2.79086 15.3333 5C15.3333 5.1259 15.3391 5.25043 15.3505 5.37336L8.02155 9.03797C7.31135 8.39303 6.36823 8 5.33331 8C3.12417 8 1.33331 9.79086 1.33331 12C1.33331 14.2091 3.12417 16 5.33331 16C6.36817 16 7.31124 15.607 8.02143 14.9621L15.3505 18.6267C15.3391 18.7496 15.3333 18.8741 15.3333 19C15.3333 21.2091 17.1242 23 19.3333 23C21.5425 23 23.3333 21.2091 23.3333 19C23.3333 16.7909 21.5425 15 19.3333 15C17.9655 15 16.7581 15.6865 16.0368 16.7337L9.12487 13.2778C9.26005 12.8765 9.33331 12.4468 9.33331 12C9.33331 11.5532 9.26006 11.1236 9.12492 10.7223L16.0368 7.26628C16.7581 8.31351 17.9656 9 19.3333 9C21.5425 9 23.3333 7.20914 23.3333 5C23.3333 2.79086 21.5425 1 19.3333 1ZM17.3333 5C17.3333 3.89543 18.2287 3 19.3333 3C20.4379 3 21.3333 3.89543 21.3333 5C21.3333 6.10457 20.4379 7 19.3333 7C18.2287 7 17.3333 6.10457 17.3333 5ZM5.33331 10C6.43788 10 7.33331 10.8954 7.33331 12C7.33331 13.1046 6.43788 14 5.33331 14C4.22874 14 3.33331 13.1046 3.33331 12C3.33331 10.8954 4.22874 10 5.33331 10ZM19.3333 17C20.4379 17 21.3333 17.8954 21.3333 19C21.3333 20.1046 20.4379 21 19.3333 21C18.2287 21 17.3333 20.1046 17.3333 19C17.3333 17.8954 18.2287 17 19.3333 17Z" fill="#343A3D"/>
</svg>
