<svg width="24" height="24" viewBox="0 0 24 24" fill="none" xmlns="http://www.w3.org/2000/svg">
<path d="M6.40974 3C4.52914 3 2.93871 4.3915 2.68891 6.25544L1.53925 14.8339C1.53451 14.8693 1.53168 14.9045 1.53068 14.9394C1.45685 15.2812 1.41797 15.6361 1.41797 16C1.41797 18.7614 3.65655 21 6.41797 21H19.418C21.0748 21 22.418 19.6569 22.418 18C22.418 17.2316 22.1291 16.5308 21.6541 16C22.1291 15.4692 22.418 14.7684 22.418 14C22.418 13.4418 22.2655 12.9192 22 12.4716C21.9971 12.3703 21.9786 12.2678 21.9431 12.1672L19.5916 5.50466C19.0619 4.00373 17.6432 3 16.0515 3H6.40974ZM19.4102 11H6.41797C5.5354 11 4.70625 11.2287 3.98651 11.63L4.67119 6.5211C4.7879 5.65018 5.53103 5 6.40974 5H16.0515C16.7953 5 17.4581 5.46899 17.7056 6.1703L19.4102 11ZM6.41797 13H19.418C19.9703 13 20.418 13.4477 20.418 14C20.418 14.5523 19.9703 15 19.418 15H8C7.44772 15 7 15.4477 7 16C7 16.5523 7.44772 17 8 17H19.418C19.9703 17 20.418 17.4477 20.418 18C20.418 18.5523 19.9703 19 19.418 19H6.41797C4.76111 19 3.41797 17.6569 3.41797 16C3.41797 14.3431 4.76111 13 6.41797 13Z" fill="#343A3D"/>
</svg>
