<svg width="24" height="24" viewBox="0 0 24 24" fill="none" xmlns="http://www.w3.org/2000/svg">
<path d="M4 21C4.55228 21 5 20.5523 5 20C5 19.4477 4.55228 19 4 19C3.44772 19 3 19.4477 3 20C3 20.5523 3.44772 21 4 21Z" fill="#343A3D"/>
<path d="M7 19C7.55228 19 8 18.5523 8 18C8 17.4477 7.55228 17 7 17C6.44772 17 6 17.4477 6 18C6 18.5523 6.44772 19 7 19Z" fill="#343A3D"/>
<path d="M2 18C2.55228 18 3 17.5523 3 17C3 16.4477 2.55228 16 2 16C1.44772 16 1 16.4477 1 17C1 17.5523 1.44772 18 2 18Z" fill="#343A3D"/>
<path d="M5 16C5.55228 16 6 15.5523 6 15C6 14.4477 5.55228 14 5 14C4.44772 14 4 14.4477 4 15C4 15.5523 4.44772 16 5 16Z" fill="#343A3D"/>
<path fill-rule="evenodd" clip-rule="evenodd" d="M19 2.58579C19.3751 2.21071 19.8838 2 20.4142 2H22C22.5523 2 23 2.44772 23 3C23 3.55228 22.5523 4 22 4L20.4142 4L17.9159 6.49829L14.9778 20.2095C14.8994 20.5754 14.6234 20.8668 14.2623 20.965C13.9013 21.0631 13.5157 20.9515 13.2628 20.6757L2.26279 8.67579C2.01212 8.40234 1.93342 8.01259 2.05835 7.6633C2.18327 7.31401 2.49128 7.06257 2.85851 7.01011L16.5286 5.05719L19 2.58579ZM15.7217 7.19277L5.01819 8.72188L13.4281 17.8962L15.7217 7.19277Z" fill="#343A3D"/>
</svg>
