<svg width="24" height="24" viewBox="0 0 24 24" fill="none" xmlns="http://www.w3.org/2000/svg">
<path d="M9.75 12.5C9.33579 12.5 9 12.8358 9 13.25C9 13.6642 9.33579 14 9.75 14H14.25C14.6642 14 15 13.6642 15 13.25C15 12.8358 14.6642 12.5 14.25 12.5H9.75Z" fill="#343A3D"/>
<path d="M9 10.25C9 9.83579 9.33579 9.5 9.75 9.5H14.25C14.6642 9.5 15 9.83579 15 10.25C15 10.6642 14.6642 11 14.25 11H9.75C9.33579 11 9 10.6642 9 10.25Z" fill="#343A3D"/>
<path d="M9.75 15.5C9.33579 15.5 9 15.8358 9 16.25C9 16.6642 9.33579 17 9.75 17H14.25C14.6642 17 15 16.6642 15 16.25C15 15.8358 14.6642 15.5 14.25 15.5H9.75Z" fill="#343A3D"/>
<path d="M8 3.02121C8 1.90493 8.90493 1 10.0212 1H13.9788C15.0951 1 16 1.90493 16 3.02121V5C17.6569 5 19 6.34315 19 8V19C19 20.6569 17.6569 22 16 22C16 22.5523 15.5523 23 15 23C14.4477 23 14 22.5523 14 22H10C10 22.5523 9.55228 23 9 23C8.44772 23 8 22.5523 8 22C6.34315 22 5 20.6569 5 19V8C5 6.34315 6.34315 5 8 5V3.02121ZM14 3.02121C14 3.01644 13.9987 3.01326 13.9987 3.01326C13.9987 3.01326 13.9964 3.00886 13.9938 3.00621C13.9911 3.00357 13.9867 3.00126 13.9867 3.00126C13.9867 3.00126 13.9836 3 13.9788 3H10.0212C10.0164 3 10.0133 3.00126 10.0133 3.00126C10.0133 3.00126 10.0089 3.00357 10.0062 3.00621C10.0036 3.00886 10.0013 3.01326 10.0013 3.01326C10.0013 3.01326 10 3.01644 10 3.02121V5H14V3.02121ZM7 8V19C7 19.5523 7.44772 20 8 20H16C16.5523 20 17 19.5523 17 19V8C17 7.44772 16.5523 7 16 7H8C7.44772 7 7 7.44772 7 8Z" fill="#343A3D"/>
</svg>
