<svg width="25" height="24" viewBox="0 0 25 24" fill="none" xmlns="http://www.w3.org/2000/svg">
<path fill-rule="evenodd" clip-rule="evenodd" d="M9.33325 2C7.6764 2 6.33325 3.34314 6.33325 5V19.0045C6.33325 20.6614 7.6764 22.0045 9.33325 22.0045H15.3333C16.9901 22.0045 18.3333 20.6614 18.3333 19.0045V5C18.3333 3.34315 16.9901 2 15.3333 2H9.33325ZM8.33325 5C8.33325 4.44771 8.78097 4 9.33325 4H15.3333C15.8855 4 16.3333 4.44772 16.3333 5V19.0045C16.3333 19.5568 15.8855 20.0045 15.3333 20.0045H9.33325C8.78097 20.0045 8.33325 19.5568 8.33325 19.0045V5Z" fill="#343A3D"/>
<path d="M3.33325 5C3.88554 5 4.33325 5.44772 4.33325 6V18C4.33325 18.5523 3.88554 19 3.33325 19C2.78097 19 2.33325 18.5523 2.33325 18V6C2.33325 5.44772 2.78097 5 3.33325 5Z" fill="#343A3D"/>
<path d="M21.3333 5C21.8855 5 22.3333 5.44772 22.3333 6V18C22.3333 18.5523 21.8855 19 21.3333 19C20.781 19 20.3333 18.5523 20.3333 18V6C20.3333 5.44772 20.781 5 21.3333 5Z" fill="#343A3D"/>
</svg>
