<svg width="24" height="24" viewBox="0 0 24 24" fill="none" xmlns="http://www.w3.org/2000/svg">
<path fill-rule="evenodd" clip-rule="evenodd" d="M1 8C1 5.23858 3.23858 3 6 3C8.76142 3 11 5.23858 11 8V12.5858C11 13.3019 10.5612 13.8368 9.99826 14.0601C9.989 15.6264 9.93177 17.1242 9.58283 18.2873C9.36061 19.0281 8.99475 19.7317 8.36605 20.244C7.72573 20.7657 6.9226 21 6 21C5.0774 21 4.27427 20.7657 3.63395 20.244C3.00525 19.7317 2.63939 19.0281 2.41717 18.2873C2.06823 17.1242 2.011 15.6264 2.00174 14.0601C1.43884 13.8368 1 13.3019 1 12.5858V8ZM4.00095 13.7204C4.00688 15.4319 4.04866 16.7654 4.33283 17.7127C4.48561 18.2219 4.68225 18.5183 4.8973 18.6935C5.10073 18.8593 5.4226 19 6 19C6.5774 19 6.89927 18.8593 7.1027 18.6935C7.31775 18.5183 7.51439 18.2219 7.66717 17.7127C7.95134 16.7654 7.99312 15.4319 7.99905 13.7204L7.58112 13.5811C6.55478 13.239 5.44522 13.239 4.41888 13.5811L4.00095 13.7204ZM6 5C4.34315 5 3 6.34315 3 8V8.57646C3.03215 8.5662 3.06465 8.55593 3.09748 8.54566C3.91198 8.29072 5.03409 8 6 8C6.96591 8 8.08802 8.29072 8.90252 8.54566C8.93535 8.55593 8.96785 8.5662 9 8.57646V8C9 6.34315 7.65685 5 6 5ZM9 10.6881C8.80059 10.6164 8.56378 10.5353 8.30511 10.4543C7.52215 10.2093 6.64427 10 6 10C5.35573 10 4.47785 10.2093 3.69489 10.4543C3.43622 10.5353 3.19941 10.6164 3 10.6881V11.9459L3.78643 11.6838C5.22329 11.2048 6.77671 11.2048 8.21357 11.6838L9 11.9459V10.6881ZM13 8C13 5.23858 15.2386 3 18 3C20.7614 3 23 5.23858 23 8V12.5858C23 13.3019 22.5612 13.8368 21.9983 14.0601C21.989 15.6264 21.9318 17.1242 21.5828 18.2873C21.3606 19.0281 20.9947 19.7317 20.366 20.244C19.7257 20.7657 18.9226 21 18 21C17.0774 21 16.2743 20.7657 15.634 20.244C15.0052 19.7317 14.6394 19.0281 14.4172 18.2873C14.0682 17.1242 14.011 15.6264 14.0017 14.0601C13.4388 13.8368 13 13.3019 13 12.5858V8ZM16.001 13.7204C16.0069 15.4319 16.0487 16.7654 16.3328 17.7127C16.4856 18.2219 16.6823 18.5183 16.8973 18.6935C17.1007 18.8593 17.4226 19 18 19C18.5774 19 18.8993 18.8593 19.1027 18.6935C19.3178 18.5183 19.5144 18.2219 19.6672 17.7127C19.9513 16.7654 19.9931 15.4319 19.999 13.7204L19.5811 13.5811C18.5548 13.239 17.4452 13.239 16.4189 13.5811L16.001 13.7204ZM18 5C16.3431 5 15 6.34315 15 8V8.57646C15.0321 8.5662 15.0646 8.55593 15.0975 8.54566C15.912 8.29072 17.0341 8 18 8C18.9659 8 20.088 8.29072 20.9025 8.54566C20.9354 8.55593 20.9679 8.5662 21 8.57646V8C21 6.34315 19.6569 5 18 5ZM21 10.6881C20.8006 10.6164 20.5638 10.5353 20.3051 10.4543C19.5222 10.2093 18.6443 10 18 10C17.3557 10 16.4778 10.2093 15.6949 10.4543C15.4362 10.5353 15.1994 10.6164 15 10.6881V11.9459L15.7864 11.6838C17.2233 11.2048 18.7767 11.2048 20.2136 11.6838L21 11.9459V10.6881Z" fill="#343A3D"/>
</svg>
