<svg width="24" height="24" viewBox="0 0 24 24" fill="none" xmlns="http://www.w3.org/2000/svg">
<path d="M9.01451 11.5457C9.95432 10.6596 10.9954 10.25 12 10.25C13.0046 10.25 14.0457 10.6596 14.9855 11.5457C15.2869 11.8298 15.7615 11.8159 16.0457 11.5145C16.3299 11.2131 16.3159 10.7385 16.0145 10.4543C14.8331 9.34041 13.4348 8.75 12 8.75C10.5652 8.75 9.1669 9.34041 7.98549 10.4543C7.68411 10.7385 7.67015 11.2131 7.95431 11.5145C8.23847 11.8159 8.71313 11.8298 9.01451 11.5457Z" fill="#343A3D"/>
<path d="M16.5045 9.56301C13.7578 7.14566 10.2422 7.14566 7.49551 9.56301C7.18457 9.83667 6.71066 9.80644 6.437 9.4955C6.16334 9.18456 6.19357 8.71065 6.50451 8.43699C9.8178 5.521 14.1822 5.521 17.4955 8.43699C17.8064 8.71065 17.8367 9.18456 17.563 9.4955C17.2894 9.80644 16.8155 9.83667 16.5045 9.56301Z" fill="#343A3D"/>
<path d="M11.0303 13.5303C11.4486 13.1121 11.7691 13 12 13C12.2309 13 12.5514 13.1121 12.9697 13.5303C13.2626 13.8232 13.7374 13.8232 14.0303 13.5303C14.3232 13.2374 14.3232 12.7626 14.0303 12.4697C13.4486 11.8879 12.7691 11.5 12 11.5C11.2309 11.5 10.5514 11.8879 9.96968 12.4697C9.67678 12.7625 9.67677 13.2374 9.96966 13.5303C10.2626 13.8232 10.7374 13.8232 11.0303 13.5303Z" fill="#343A3D"/>
<path fill-rule="evenodd" clip-rule="evenodd" d="M5 1C2.79086 1 1 2.79086 1 5V15C1 17.2091 2.79086 19 5 19H11V20C11 20.0124 11.0002 20.0248 11.0007 20.0371C9.5715 20.1394 8.1543 20.4612 6.80055 21.0027L6.62863 21.0715C6.11585 21.2766 5.86643 21.8586 6.07155 22.3714C6.27666 22.8841 6.85863 23.1336 7.37141 22.9285L7.54333 22.8597C10.4043 21.7153 13.5958 21.7153 16.4567 22.8597L16.6286 22.9285C17.1414 23.1336 17.7234 22.8841 17.9285 22.3714C18.1336 21.8586 17.8842 21.2766 17.3714 21.0715L17.1995 21.0027C15.8457 20.4612 14.4285 20.1393 12.9993 20.0371C12.9998 20.0248 13 20.0124 13 20V19H19C21.2091 19 23 17.2091 23 15V5C23 2.79086 21.2091 1 19 1H5ZM3 5C3 3.89543 3.89543 3 5 3H19C20.1046 3 21 3.89543 21 5V15C21 16.1046 20.1046 17 19 17H5C3.89543 17 3 16.1046 3 15V5Z" fill="#343A3D"/>
</svg>
