<svg width="24" height="24" viewBox="0 0 24 24" fill="none" xmlns="http://www.w3.org/2000/svg">
<path d="M10 9.5C10 10.3284 9.32843 11 8.5 11C7.67157 11 7 10.3284 7 9.5C7 8.67157 7.67157 8 8.5 8C9.32843 8 10 8.67157 10 9.5Z" fill="#343A3D"/>
<path d="M15.5 11C16.3284 11 17 10.3284 17 9.5C17 8.67157 16.3284 8 15.5 8C14.6716 8 14 8.67157 14 9.5C14 10.3284 14.6716 11 15.5 11Z" fill="#343A3D"/>
<path d="M15.1686 16.5556C15.4756 17.0148 16.0966 17.1382 16.5557 16.8313C17.0149 16.5243 17.1383 15.9033 16.8314 15.4442C15.7387 13.8095 13.8138 12.9999 12 12.9999C10.1863 12.9999 8.26137 13.8095 7.16865 15.4442C6.86173 15.9033 6.98514 16.5243 7.44429 16.8313C7.90344 17.1382 8.52447 17.0148 8.83138 16.5556C9.4863 15.5759 10.7245 14.9999 12 14.9999C13.2755 14.9999 14.5137 15.5759 15.1686 16.5556Z" fill="#343A3D"/>
<path d="M12 1C5.92487 1 1 5.92487 1 12C1 18.0751 5.92487 23 12 23C18.0751 23 23 18.0751 23 12C23 5.92487 18.0751 1 12 1ZM3 12C3 7.02944 7.02944 3 12 3C16.9706 3 21 7.02944 21 12C21 16.9706 16.9706 21 12 21C7.02944 21 3 16.9706 3 12Z" fill="#343A3D"/>
</svg>
