<svg width="24" height="24" viewBox="0 0 24 24" fill="none" xmlns="http://www.w3.org/2000/svg">
<path d="M8.42969 10C9.25811 10 9.92969 9.32843 9.92969 8.5C9.92969 7.67157 9.25811 7 8.42969 7C7.60126 7 6.92969 7.67157 6.92969 8.5C6.92969 9.32843 7.60126 10 8.42969 10Z" fill="#343A3D"/>
<path d="M15.4297 10C16.2581 10 16.9297 9.32843 16.9297 8.5C16.9297 7.67157 16.2581 7 15.4297 7C14.6013 7 13.9297 7.67157 13.9297 8.5C13.9297 9.32843 14.6013 10 15.4297 10Z" fill="#343A3D"/>
<path d="M6.92969 12C6.3774 12 5.92969 12.4477 5.92969 13L5.92969 13.001L5.92969 13.0022L5.9297 13.0048L5.92974 13.0116L5.92997 13.0305C5.93021 13.0455 5.93066 13.0652 5.93146 13.0895C5.93308 13.1379 5.93615 13.2043 5.94199 13.2861C5.95366 13.4494 5.9765 13.6762 6.02142 13.9456C6.11046 14.4799 6.2904 15.2075 6.66026 15.9472C7.03208 16.6908 7.6055 17.4649 8.48436 18.0508C9.36948 18.6409 10.5047 19 11.9297 19C13.3547 19 14.4899 18.6409 15.375 18.0508C16.2539 17.4649 16.8273 16.6908 17.1991 15.9472C17.569 15.2075 17.7489 14.4799 17.838 13.9456C17.8829 13.6762 17.9057 13.4494 17.9174 13.2861C17.9232 13.2043 17.9263 13.1379 17.9279 13.0895C17.9287 13.0652 17.9292 13.0455 17.9294 13.0305L17.9296 13.0116L17.9297 13.0051L17.9297 13.0022L17.9297 13.001V13C17.9297 12.4477 17.482 12 16.9297 12H6.92969ZM8.44911 15.0528C8.26897 14.6925 8.14993 14.3262 8.07187 14H15.7875C15.7094 14.3262 15.5904 14.6925 15.4103 15.0528C15.1571 15.5592 14.793 16.0351 14.2656 16.3867C13.7445 16.7341 13.0047 17 11.9297 17C10.8547 17 10.1149 16.7341 9.59376 16.3867C9.06637 16.0351 8.7023 15.5592 8.44911 15.0528Z" fill="#343A3D"/>
<path d="M12 1C5.92487 1 1 5.92487 1 12C1 18.0751 5.92487 23 12 23C18.0751 23 23 18.0751 23 12C23 5.92487 18.0751 1 12 1ZM3 12C3 7.02944 7.02944 3 12 3C16.9706 3 21 7.02944 21 12C21 16.9706 16.9706 21 12 21C7.02944 21 3 16.9706 3 12Z" fill="#343A3D"/>
</svg>
