<svg width="24" height="24" viewBox="0 0 24 24" fill="none" xmlns="http://www.w3.org/2000/svg">
<path d="M9.81814 9.27284C9.81814 10.1766 9.08551 10.9092 8.18177 10.9092C7.27804 10.9092 6.54541 10.1766 6.54541 9.27284C6.54541 8.3691 7.27804 7.63647 8.18177 7.63647C9.08551 7.63647 9.81814 8.3691 9.81814 9.27284Z" fill="#343A3D"/>
<path d="M17.4545 9.27284C17.4545 10.1766 16.7219 10.9092 15.8181 10.9092C14.9144 10.9092 14.1818 10.1766 14.1818 9.27284C14.1818 8.3691 14.9144 7.63647 15.8181 7.63647C16.7219 7.63647 17.4545 8.3691 17.4545 9.27284Z" fill="#343A3D"/>
<path d="M8.3944 14.5528C8.14741 14.0588 7.54674 13.8586 7.05276 14.1055C6.55878 14.3525 6.35856 14.9532 6.60555 15.4472C7.25014 16.7364 9.06875 18.5 12 18.5C14.9312 18.5 16.7498 16.7364 17.3944 15.4472C17.6414 14.9532 17.4412 14.3525 16.9472 14.1055C16.4532 13.8586 15.8525 14.0588 15.6055 14.5528C15.2501 15.2636 14.0688 16.5 12 16.5C9.9312 16.5 8.74981 15.2636 8.3944 14.5528Z" fill="#343A3D"/>
<path d="M1 12C1 5.92487 5.92487 1 12 1C18.0751 1 23 5.92487 23 12C23 18.0751 18.0751 23 12 23C5.92487 23 1 18.0751 1 12ZM12 3C7.02944 3 3 7.02944 3 12C3 16.9706 7.02944 21 12 21C16.9706 21 21 16.9706 21 12C21 7.02944 16.9706 3 12 3Z" fill="#343A3D"/>
</svg>
