<svg width="24" height="24" viewBox="0 0 24 24" fill="none" xmlns="http://www.w3.org/2000/svg">
<path d="M17 10.5C17 11.3284 16.3284 12 15.5 12C14.6716 12 14 11.3284 14 10.5C14 10.3234 14.0305 10.1539 14.0866 9.99653C13.69 10.0309 13.2944 9.82491 13.1056 9.44723C12.8586 8.95325 13.0588 8.35258 13.5528 8.10559L15.5528 7.10559C16.0468 6.8586 16.6475 7.05883 16.8944 7.55281C17.1414 8.04678 16.9412 8.64746 16.4472 8.89445L16.0377 9.09923C16.6005 9.31541 17 9.86105 17 10.5Z" fill="#343A3D"/>
<path d="M8.5 12C7.67157 12 7 11.3284 7 10.5C7 9.86105 7.3995 9.31541 7.96235 9.09923L7.55277 8.89445C7.05879 8.64746 6.85857 8.04678 7.10556 7.55281C7.35255 7.05883 7.95322 6.8586 8.4472 7.10559L10.4472 8.10559C10.9412 8.35258 11.1414 8.95325 10.8944 9.44723C10.7056 9.82491 10.31 10.0309 9.91342 9.99653C9.96948 10.1539 10 10.3234 10 10.5C10 11.3284 9.32843 12 8.5 12Z" fill="#343A3D"/>
<path d="M15.1686 16.5556C15.4756 17.0148 16.0966 17.1382 16.5557 16.8313C17.0149 16.5243 17.1383 15.9033 16.8314 15.4442C15.7387 13.8095 13.8138 12.9999 12 12.9999C10.1863 12.9999 8.26137 13.8095 7.16865 15.4442C6.86173 15.9033 6.98514 16.5243 7.44429 16.8313C7.90344 17.1382 8.52447 17.0148 8.83138 16.5556C9.4863 15.5759 10.7245 14.9999 12 14.9999C13.2755 14.9999 14.5137 15.5759 15.1686 16.5556Z" fill="#343A3D"/>
<path d="M12 1C5.92487 1 1 5.92487 1 12C1 18.0751 5.92487 23 12 23C18.0751 23 23 18.0751 23 12C23 5.92487 18.0751 1 12 1ZM3 12C3 7.02944 7.02944 3 12 3C16.9706 3 21 7.02944 21 12C21 16.9706 16.9706 21 12 21C7.02944 21 3 16.9706 3 12Z" fill="#343A3D"/>
</svg>
