<svg width="24" height="24" viewBox="0 0 24 24" fill="none" xmlns="http://www.w3.org/2000/svg">
<path d="M12 7.00823C12.5523 7.00823 13 6.55978 13 6.00659C13 5.45339 12.5523 5.00494 12 5.00494C11.4477 5.00494 11 5.45339 11 6.00659C11 6.55978 11.4477 7.00823 12 7.00823Z" fill="#343A3D"/>
<path d="M2 4.00329C2 2.89691 2.89543 2 4 2H20C21.1046 2 22 2.8969 22 4.00329V8.00988C22 9.11627 21.1046 10.0132 20 10.0132H19.618L18.4472 12.3587C17.939 13.3767 16.9002 14.0198 15.7639 14.0198H8.1085C7.07413 14.0198 6.11272 13.486 5.5645 12.6074L3.94529 10.0124C2.86602 9.98341 2 9.09795 2 8.00988V4.00329ZM6.30425 10.0132L7.2605 11.5457C7.44324 11.8386 7.76371 12.0165 8.1085 12.0165H15.7639C16.1427 12.0165 16.489 11.8021 16.6584 11.4628L17.382 10.0132H6.30425ZM20 8.00988V4.00329H4V8.00988H20Z" fill="#343A3D"/>
<path d="M7.61661 20.0295C7.39316 20.1628 7.28894 20.2735 7.24228 20.3373C7.55614 20.7369 7.5224 21.3176 7.14884 21.6776C6.75083 22.0611 6.11778 22.0488 5.73489 21.6502C5.28741 21.1843 5.09002 20.5201 5.28551 19.841C5.47037 19.1988 5.96177 18.6851 6.59299 18.3085C6.99783 18.0669 7.05649 17.8859 7.06157 17.8668L7.06215 17.8652C7.06424 17.8599 7.06854 17.849 7.04111 17.8144C6.69724 17.3815 6.76882 16.7514 7.201 16.407C7.63317 16.0625 8.26228 16.1342 8.60614 16.5671C8.9796 17.0373 9.17856 17.6893 8.99414 18.3826C8.81356 19.0615 8.31078 19.6153 7.61661 20.0295Z" fill="#343A3D"/>
<path d="M12.1986 20.3995L12.212 20.4198L12.2204 20.4322C12.5325 20.8886 12.4162 21.512 11.9605 21.8246C11.5049 22.1372 10.8825 22.0207 10.5704 21.5643C10.2798 21.1394 9.98246 20.5218 10.2474 19.7928C10.4567 19.2166 10.966 18.7793 11.4345 18.4179C11.6568 18.2464 11.8082 18.1026 11.9069 17.9877C11.9467 17.9413 11.9749 17.9033 11.9945 17.8737C11.6586 17.4697 11.6911 16.8683 12.0786 16.5034C12.4811 16.1246 13.114 16.1442 13.4922 16.5473C13.7069 16.7761 13.8919 17.0634 13.9796 17.4128C14.0692 17.7698 14.0401 18.1247 13.9267 18.4526C13.7158 19.0617 13.2184 19.5704 12.6548 20.0051C12.4305 20.1781 12.2876 20.3049 12.1986 20.3995Z" fill="#343A3D"/>
<path d="M17.2859 20.4322C17.2779 20.4205 17.2706 20.4096 17.264 20.3995C17.353 20.3049 17.4959 20.1781 17.7202 20.0051C18.2838 19.5704 18.7813 19.0617 18.9921 18.4526C19.1056 18.1247 19.1346 17.7698 19.0451 17.4128C18.9574 17.0634 18.7723 16.7761 18.5576 16.5473C18.1794 16.1442 17.5465 16.1246 17.1441 16.5034C16.7565 16.8683 16.724 17.4697 17.06 17.8737C17.0403 17.9033 17.0122 17.9413 16.9724 17.9877C16.8737 18.1026 16.7223 18.2464 16.5 18.4179C16.0314 18.7793 15.5222 19.2166 15.3128 19.7928C15.0479 20.5218 15.3453 21.1394 15.6358 21.5643C15.9479 22.0207 16.5703 22.1372 17.026 21.8246C17.4816 21.512 17.598 20.8886 17.2859 20.4322Z" fill="#343A3D"/>
</svg>
