<svg width="24" height="24" viewBox="0 0 24 24" fill="none" xmlns="http://www.w3.org/2000/svg">
<path fill-rule="evenodd" clip-rule="evenodd" d="M18.2143 16.8607V19.0464C21.2518 18.5375 23.5714 15.8964 23.5714 12.7143C23.5714 9.1625 20.6946 6.28571 17.1429 6.28571C16.7679 6.28571 16.4089 6.33393 16.0554 6.39286C14.5875 3.77321 11.7857 2 8.57143 2C3.83571 2 0 5.83571 0 10.5714C0 14.1661 2.21786 17.2411 5.35714 18.5161V16.1321C3.43929 15.0232 2.14286 12.95 2.14286 10.5714C2.14286 7.01964 5.01964 4.14286 8.57143 4.14286C11.6196 4.14286 14.1589 6.26964 14.8232 9.11964C15.4929 8.68571 16.2857 8.42857 17.1429 8.42857C19.5107 8.42857 21.4286 10.3464 21.4286 12.7143C21.4286 14.7125 20.0625 16.3839 18.2143 16.8607ZM8.07321 15.9286C8.36786 15.4143 9.02679 15.2429 9.53571 15.5375L10.7143 16.2179V14.8571C10.7143 14.2679 11.1964 13.7857 11.7857 13.7857C12.375 13.7857 12.8571 14.2679 12.8571 14.8571V16.2179L14.0357 15.5375C14.5446 15.2429 15.2036 15.4143 15.4982 15.9286C15.7929 16.4429 15.6161 17.0964 15.1071 17.3911L13.9286 18.0714L15.1071 18.7518C15.6161 19.0464 15.7929 19.7 15.4982 20.2143C15.2036 20.7286 14.5446 20.9 14.0357 20.6054L12.8571 19.925V21.2857C12.8571 21.875 12.375 22.3571 11.7857 22.3571C11.1964 22.3571 10.7143 21.875 10.7143 21.2857V19.925L9.53571 20.6054C9.02679 20.9 8.36786 20.7286 8.07321 20.2143C7.77857 19.7 7.95536 19.0464 8.46429 18.7518L9.64286 18.0714L8.46429 17.3911C7.95536 17.0964 7.77857 16.4429 8.07321 15.9286ZM11.7857 19.1429C12.375 19.1429 12.8571 18.6607 12.8571 18.0714C12.8571 17.4821 12.375 17 11.7857 17C11.1964 17 10.7143 17.4821 10.7143 18.0714C10.7143 18.6607 11.1964 19.1429 11.7857 19.1429Z" fill="#343A3D"/>
</svg>
