<svg width="24" height="24" viewBox="0 0 24 24" fill="none" xmlns="http://www.w3.org/2000/svg">
<path fill-rule="evenodd" clip-rule="evenodd" d="M18 2.96047C17.4477 2.96047 17 3.39933 17 3.9407C17 4.48207 17.4477 4.92094 18 4.92094C18.5523 4.92094 19 4.48207 19 3.9407C19 3.39933 18.5523 2.96047 18 2.96047ZM15 3.9407C15 2.3166 16.3431 1 18 1C19.6569 1 21 2.3166 21 3.9407C21 5.56481 19.6569 6.8814 18 6.8814C16.3431 6.8814 15 5.56481 15 3.9407ZM12 5.90117C11.4477 5.90117 11 6.34004 11 6.8814C11 7.42277 11.4477 7.86164 12 7.86164C12.5523 7.86164 13 7.42277 13 6.8814C13 6.34004 12.5523 5.90117 12 5.90117ZM9 6.8814C9 5.2573 10.3431 3.9407 12 3.9407C13.6569 3.9407 15 5.2573 15 6.8814C15 8.50551 13.6569 9.82211 12 9.82211C10.3431 9.82211 9 8.50551 9 6.8814ZM8.35597 12.372C6.03226 12.1189 4 13.9018 4 16.1936C4 18.4854 6.03221 20.2684 8.35589 20.0153L10.5645 19.7748C11.5186 19.6709 12.4814 19.6709 13.4355 19.7748L15.6441 20.0153C17.9678 20.2684 20 18.4854 20 16.1936C20 13.9018 17.9677 12.1189 15.644 12.372L13.4357 12.6125C12.4815 12.7164 11.5185 12.7164 10.5643 12.6125L8.35597 12.372ZM2 16.1936C2 12.7334 5.0684 10.0413 8.57685 10.4235L10.7851 10.664C11.5926 10.752 12.4074 10.752 13.2149 10.664L15.4231 10.4235C18.9316 10.0413 22 12.7334 22 16.1936C22 19.6539 18.9317 22.3459 15.4233 21.9638L13.2146 21.7233C12.4074 21.6354 11.5926 21.6354 10.7854 21.7233L8.57674 21.9638C5.06833 22.3459 2 19.6539 2 16.1936Z" fill="#343A3D"/>
</svg>
