<svg width="24" height="24" viewBox="0 0 24 24" fill="none" xmlns="http://www.w3.org/2000/svg">
<path d="M23 12C23 18.0751 18.0751 23 12 23C5.92487 23 1 18.0751 1 12C1 5.92486 5.92487 1 12 1C18.0751 1 23 5.92486 23 12ZM10.3226 20.8439V14.8276H8V12.069H10.3226V9.86207C10.3226 7.37931 11.8194 6 13.9355 6C14.6065 6 15.329 6.11034 16 6.22069V8.75862H14.8129C13.6774 8.75862 13.4194 9.36552 13.4194 10.1379V12.069H15.8968L15.4839 14.8276H13.4194V20.8887C17.7155 20.2081 21 16.4876 21 12C21 7.02944 16.9706 3 12 3C7.02944 3 3 7.02944 3 12C3 16.3973 6.15363 20.0581 10.3226 20.8439Z" fill="#343A3D"/>
</svg>
