<svg width="24" height="24" viewBox="0 0 24 24" fill="none" xmlns="http://www.w3.org/2000/svg">
<path d="M2 4C1.44772 4 1 4.44772 1 5V18C1 18.5523 1.44772 19 2 19H7.94C9.05847 19 10.1027 18.4976 10.8522 17.6518C11.5982 16.81 12 15.6915 12 14.5469C12 13.4022 11.5982 12.2837 10.8522 11.4419C10.5349 11.0839 10.1647 10.7873 9.75849 10.5644C10.2818 9.84333 10.56 8.95341 10.56 8.04688C10.56 7.00998 10.1961 5.99482 9.51761 5.22919C8.83567 4.45963 7.88299 4 6.86 4H2ZM3 17V12.0938H7.94C8.44466 12.0938 8.95706 12.3189 9.35532 12.7684C9.75706 13.2217 10 13.8599 10 14.5469C10 15.2339 9.75706 15.872 9.35532 16.3254C8.95706 16.7748 8.44466 17 7.94 17H3ZM3 10.0938V6H6.86C7.26918 6 7.69001 6.18239 8.02076 6.55563C8.35499 6.9328 8.56 7.46761 8.56 8.04688C8.56 8.62614 8.35499 9.16096 8.02076 9.53812C7.69001 9.91137 7.26918 10.0938 6.86 10.0938H3Z" fill="#343A3D"/>
<path d="M14 6C14 5.44772 14.4477 5 15 5L21 5C21.5523 5 22 5.44772 22 6C22 6.55229 21.5523 7 21 7L15 7C14.4477 7 14 6.55228 14 6Z" fill="#343A3D"/>
<path d="M15.6526 9.59316C16.67 9.04671 17.8452 8.87056 18.9779 9.09496C20.1105 9.31935 21.1301 9.93026 21.8632 10.8231C22.5964 11.7158 22.9979 12.8353 23 13.9909C23.0005 14.2564 22.8953 14.5112 22.7078 14.6992C22.5202 14.8871 22.2655 14.9927 22 14.9927H15.1884C15.4027 15.6059 15.8101 16.1336 16.35 16.4952C16.9249 16.8802 17.6148 17.0534 18.3023 16.9856C18.9897 16.9179 19.633 16.6133 20.1224 16.1232C20.5126 15.7324 21.1457 15.7319 21.5366 16.1221C21.9274 16.5124 21.9279 17.1455 21.5377 17.5364C20.7215 18.3538 19.6475 18.8628 18.4984 18.976C17.3493 19.0892 16.1968 18.7997 15.2371 18.157C14.2776 17.5143 13.5703 16.5585 13.2352 15.4526C13.1125 15.0475 13.0424 14.6313 13.0246 14.214C13.0085 14.1428 13 14.0688 13 13.9927C13 13.9154 13.0088 13.8401 13.0254 13.7678C13.0519 13.1955 13.1766 12.6278 13.3982 12.0905C13.8388 11.0223 14.6352 10.1396 15.6526 9.59316ZM15.1936 12.9927H20.8264C20.7109 12.6676 20.5395 12.3626 20.3176 12.0923C19.8779 11.5568 19.267 11.1911 18.5892 11.0568C17.9115 10.9226 17.2082 11.0279 16.5989 11.3551C15.9896 11.6824 15.5117 12.2115 15.2472 12.853C15.2281 12.8992 15.2103 12.9458 15.1936 12.9927Z" fill="#343A3D"/>
</svg>
