<svg width="24" height="24" viewBox="0 0 24 24" fill="none" xmlns="http://www.w3.org/2000/svg">
<path d="M1.19336 9.9467C0.693193 12.5791 1.17109 15.3036 2.53733 17.6087L1.45912 21.4168C1.41349 21.5728 1.41067 21.7382 1.45095 21.8957C1.49124 22.0532 1.57314 22.197 1.68809 22.3119C1.80304 22.4269 1.94679 22.5088 2.10427 22.549C2.26176 22.5893 2.42718 22.5865 2.58321 22.5409L6.39133 21.4627C8.69638 22.8289 11.4209 23.3068 14.0533 22.8066C16.6857 22.3065 19.0451 20.8626 20.6884 18.7462C22.3317 16.6298 23.146 13.9863 22.9784 11.312C22.8109 8.63769 21.6729 6.11654 19.7782 4.22183C17.8835 2.32712 15.3623 1.18915 12.688 1.02155C10.0137 0.853954 7.37025 1.66826 5.25381 3.31159C3.13736 4.95492 1.69353 7.31427 1.19336 9.9467ZM11.5755 16.4404C10.6746 16.0685 9.85604 15.5223 9.16686 14.8331C8.47767 14.144 7.93146 13.3254 7.55961 12.4245C7.18775 11.5235 6.99758 10.558 7.00002 9.58334C7.00247 8.89735 7.2767 8.2403 7.76264 7.75609C8.24858 7.27189 8.90661 7.00002 9.5926 7.00002C9.70578 6.99912 9.81712 7.02874 9.91488 7.08577C10.0126 7.1428 10.0932 7.22513 10.1482 7.32409L11.2315 9.21297C11.2959 9.3278 11.329 9.45756 11.3273 9.58921C11.3257 9.72087 11.2895 9.84977 11.2222 9.96297L10.3519 11.4167C10.7977 12.4084 11.5916 13.2023 12.5833 13.6481L14.037 12.7778C14.1502 12.7105 14.2791 12.6743 14.4108 12.6727C14.5424 12.671 14.6722 12.7041 14.787 12.7685L16.6759 13.8518C16.7749 13.9068 16.8572 13.9874 16.9142 14.0851C16.9713 14.1829 17.0009 14.2942 17 14.4074C16.9976 15.0926 16.7249 15.7493 16.2412 16.2347C15.7575 16.7201 15.1019 16.9951 14.4167 17C13.442 17.0024 12.4765 16.8123 11.5755 16.4404Z" fill="#343A3D"/>
</svg>
