<svg width="24" height="24" viewBox="0 0 24 24" fill="none" xmlns="http://www.w3.org/2000/svg">
<path fill-rule="evenodd" clip-rule="evenodd" d="M14.9265 4.00028C13.3474 3.97797 11.942 5.36322 11.942 7.0912V8.72753C11.942 9.0225 11.8118 9.30242 11.5862 9.49243C11.3605 9.68243 11.0625 9.76314 10.7719 9.71296C8.1911 9.26741 5.87595 7.94544 4.24052 6.78079C3.78383 6.45556 3.3746 6.1386 3.02123 5.84995C2.84444 9.05541 3.80176 11.2826 4.8456 12.7501C5.47132 13.6297 6.14082 14.2531 6.64906 14.6536C6.90273 14.8536 7.11451 14.9966 7.25787 15.0871C7.32948 15.1323 7.38379 15.1642 7.41743 15.1833C7.43424 15.1929 7.44586 15.1993 7.45187 15.2026L7.45573 15.2047C7.70382 15.3345 7.8868 15.5627 7.95896 15.8334C8.03148 16.1055 7.98597 16.3955 7.8336 16.6322C6.92984 18.0364 5.60531 19.0511 4.5586 19.7017C4.49813 19.7392 4.43836 19.7757 4.37939 19.8112C4.83163 19.9197 5.42788 20 6.20285 20C9.14773 20.0015 11.9897 18.8416 14.1485 16.7455C16.3083 14.6484 17.6222 11.7712 17.8129 8.69631C17.8276 8.45901 17.9264 8.23472 18.0915 8.06366L19.6447 6.45487H18.5148C18.1125 6.45487 17.7494 6.21382 17.5932 5.84309C17.3618 5.29372 16.9844 4.83062 16.5112 4.50571C16.0385 4.18107 15.489 4.00701 14.9287 4.00031L14.9265 4.00028ZM1.89147 18.8406L1.91202 18.8323C1.93025 18.8249 1.95943 18.8128 1.99844 18.7961C2.07651 18.7626 2.19357 18.7107 2.34058 18.6405C2.63535 18.4995 3.04637 18.2867 3.50288 18.003C4.18656 17.5781 4.9338 17.0177 5.55017 16.3321C5.50489 16.2977 5.45849 16.2618 5.41107 16.2244C4.78389 15.7301 3.97241 14.9729 3.21587 13.9094C1.68615 11.7589 0.430285 8.42171 1.26861 3.64566C1.33365 3.27512 1.60115 2.97243 1.96088 2.86233C2.32034 2.75231 2.71111 2.85318 2.9724 3.12337L2.97313 3.12413L2.97891 3.13004L3.0071 3.15851C3.03319 3.18467 3.07372 3.22486 3.12791 3.2773C3.23634 3.38222 3.39919 3.53592 3.61033 3.72425C4.03325 4.10148 4.64635 4.61449 5.40068 5.15167C6.64567 6.03827 8.22773 6.9564 9.942 7.466V7.0912C9.942 4.31964 12.1892 1.96204 14.9537 2.00046C15.9144 2.01217 16.8484 2.31103 17.6434 2.85704C18.2506 3.27403 18.7563 3.82092 19.1293 4.45487H22C22.4013 4.45487 22.7637 4.69472 22.9205 5.06407C23.0773 5.43342 22.9982 5.86074 22.7195 6.14943L19.7811 9.19309C19.4804 12.6148 17.9776 15.8153 15.5417 18.1804C13.0164 20.6323 9.67755 22.0018 6.20234 22C4.49218 21.9999 3.34191 21.6671 2.58352 21.2744C2.2056 21.0786 1.93361 20.8723 1.74444 20.696C1.65022 20.6081 1.57757 20.5287 1.52323 20.463C1.49609 20.4302 1.47358 20.4009 1.45529 20.3758C1.44614 20.3633 1.43805 20.3518 1.43096 20.3415L1.42108 20.3268L1.41669 20.3202L1.41463 20.317L1.41364 20.3155C1.4122 20.3132 1.41266 20.314 1.41266 20.314C1.25015 20.0614 1.20971 19.7493 1.30252 19.4637C1.39528 19.1782 1.61177 18.9494 1.89147 18.8406Z" fill="#343A3D"/>
</svg>
