<svg width="24" height="24" viewBox="0 0 24 24" fill="none" xmlns="http://www.w3.org/2000/svg">
<path fill-rule="evenodd" clip-rule="evenodd" d="M10.9406 5.42942C9.35288 4.87043 7.56805 4.85978 5.96913 5.38227L5.74614 5.45896C4.04599 6.07277 2.60534 7.30852 1.78768 8.85511C1.4901 9.41252 1.27529 10.0029 1.14533 10.6165C0.81968 12.1368 1.04509 13.7584 1.78352 15.1434C2.26305 16.047 2.95344 16.8523 3.78649 17.4805C4.57629 18.0752 5.49209 18.5194 6.46863 18.7636C7.69865 19.0762 9.00811 19.0685 10.2454 18.8009C11.364 18.5567 12.4233 18.0486 13.2684 17.3117C14.1609 16.5328 14.7991 15.5091 15.1374 14.4063C15.5055 13.2053 15.5535 11.9223 15.3235 10.6887H8.38115V13.4207H12.4039L12.3704 13.5835C12.1799 14.3924 11.6532 15.1225 10.9285 15.5845C10.4403 15.8971 9.88046 16.0963 9.30154 16.1943C8.72261 16.2886 8.11956 16.2993 7.54062 16.1906C6.94879 16.078 6.39004 15.8446 5.89844 15.5168C5.11342 14.9935 4.51371 14.2308 4.20822 13.3682C3.89547 12.4921 3.89069 11.5171 4.20822 10.6447C4.43115 10.0271 4.79589 9.45906 5.27958 8.99279C5.87536 8.41329 6.64914 7.99948 7.48468 7.82985C8.1992 7.68685 8.9528 7.71347 9.6513 7.91269C10.2462 8.08153 10.794 8.39416 11.2421 8.80029L13.081 7.05853L13.3164 6.82511C12.63 6.22352 11.821 5.7383 10.9406 5.42942ZM20.9129 10.8462V8.89744H18.8259V10.8462H16.7388V12.7949H18.8259V14.7436H20.9129V12.7949H23V10.8462H20.9129Z" fill="#343A3D"/>
</svg>
