<svg width="24" height="24" viewBox="0 0 24 24" fill="none" xmlns="http://www.w3.org/2000/svg">
<path d="M11.582 16.4747C12.4921 16.8503 13.4674 17.0424 14.4519 17.04C15.1441 17.035 15.8064 16.7572 16.295 16.2669C16.7836 15.7766 17.059 15.1133 17.0614 14.4211C17.0623 14.3068 17.0324 14.1943 16.9748 14.0956C16.9172 13.9968 16.834 13.9154 16.7341 13.8599L14.8261 12.7656C14.7101 12.7006 14.579 12.6672 14.446 12.6688C14.313 12.6704 14.1828 12.7071 14.0685 12.775L12.6 13.6542C11.5982 13.2038 10.7963 12.4019 10.346 11.4001L11.2251 9.93168C11.2931 9.81733 11.3297 9.68712 11.3313 9.55413C11.333 9.42115 11.2996 9.29007 11.2345 9.17408L10.1402 7.26607C10.0847 7.1661 10.0033 7.08294 9.90456 7.02533C9.8058 6.96773 9.69334 6.9378 9.57902 6.93872C8.88608 6.93871 8.22138 7.21334 7.73052 7.70245C7.23966 8.19155 6.96265 8.85527 6.96018 9.5482C6.95771 10.5327 7.14981 11.508 7.52543 12.4181C7.90105 13.3281 8.45279 14.155 9.14896 14.8512C9.84512 15.5473 10.672 16.0991 11.582 16.4747Z" fill="#343A3D"/>
<path fill-rule="evenodd" clip-rule="evenodd" d="M12.688 1.02155C10.0137 0.853954 7.37025 1.66826 5.25381 3.31159C3.13736 4.95492 1.69353 7.31427 1.19336 9.9467C0.720755 12.4341 1.12139 15.0036 2.31957 17.2239L1.45614 20.2734C1.36521 20.5876 1.35998 20.9204 1.44105 21.2373C1.52255 21.5559 1.68824 21.8467 1.92077 22.0792C2.15329 22.3118 2.44409 22.4775 2.76267 22.5589C3.07958 22.64 3.41238 22.6348 3.72654 22.5439L6.77613 21.6804C8.99637 22.8786 11.5659 23.2792 14.0533 22.8066C16.6857 22.3065 19.0451 20.8626 20.6884 18.7462C22.3317 16.6298 23.146 13.9863 22.9784 11.312C22.8109 8.63769 21.6729 6.11654 19.7782 4.22183C17.8835 2.32712 15.3623 1.18915 12.688 1.02155ZM6.49281 4.9073C8.22055 3.56578 10.3785 2.90104 12.5617 3.03785C14.7448 3.17467 16.8029 4.10364 18.3496 5.65037C19.8964 7.1971 20.8253 9.25521 20.9622 11.4383C21.099 13.6215 20.4342 15.7795 19.0927 17.5072C17.7512 19.2349 15.8251 20.4136 13.6762 20.8219C11.5272 21.2302 9.30313 20.8401 7.42142 19.7248C7.18325 19.5836 6.89758 19.5464 6.6312 19.6218L3.48837 20.5116L4.37821 17.3688C4.45363 17.1024 4.41641 16.8167 4.27524 16.5786C3.15993 14.6969 2.7698 12.4728 3.17811 10.3238C3.58642 8.17485 4.76508 6.24882 6.49281 4.9073Z" fill="#343A3D"/>
</svg>
