<svg width="24" height="24" viewBox="0 0 24 24" fill="none" xmlns="http://www.w3.org/2000/svg">
<path d="M12 1C5.92487 1 1 5.92487 1 12C1 18.0751 5.92487 23 12 23C18.0751 23 23 18.0751 23 12C23 5.92487 18.0751 1 12 1ZM3 12C3 11.7274 3.01212 11.4576 3.03585 11.1912C6.3448 11.629 9.75492 11.1295 12.7954 9.71241C13.0904 10.2349 13.3561 10.7761 13.5904 11.3336C13.709 11.6159 13.8191 11.9011 13.9204 12.1887C13.1411 12.4891 12.3813 12.8464 11.6481 13.2601C9.33169 14.5671 7.34759 16.3822 5.84198 18.5635C4.0927 16.9216 3 14.5884 3 12ZM14.4647 14.1236C14.9213 16.2705 14.9202 18.4995 14.4499 20.6625C13.671 20.8824 12.8493 21 12 21C10.3376 21 8.78048 20.5493 7.44416 19.7634C8.78302 17.8028 10.5565 16.1724 12.6309 15.0019C13.2235 14.6676 13.8364 14.3746 14.4647 14.1236ZM16.6469 19.7091C16.9269 17.637 16.8339 15.5344 16.3757 13.5007C17.8609 13.1206 19.4017 12.9587 20.9428 13.0202C20.6224 15.8599 18.9806 18.2994 16.6469 19.7091ZM15.8254 11.5771C15.7058 11.2345 15.5754 10.8948 15.4342 10.5587C15.1751 9.94219 14.882 9.34341 14.557 8.76473C15.9617 7.90194 17.2387 6.84389 18.3491 5.62116C19.7687 7.03426 20.7194 8.91814 20.9471 11.0189C19.2208 10.9573 17.493 11.1448 15.8254 11.5771ZM13.4798 7.07922C12.4364 5.63523 11.1767 4.355 9.74185 3.28564C10.4635 3.09919 11.2201 3 12 3C13.7563 3 15.3951 3.50308 16.7802 4.37299C15.8096 5.42389 14.6987 6.33442 13.4798 7.07922ZM7.52526 4.18948C9.14329 5.20578 10.5518 6.50624 11.688 8.01893C9.10862 9.16169 6.23591 9.5715 3.4356 9.22605C4.12913 7.08328 5.60447 5.2923 7.52526 4.18948Z" fill="#343A3D"/>
</svg>
