<svg width="24" height="24" viewBox="0 0 24 24" fill="none" xmlns="http://www.w3.org/2000/svg">
<path d="M10.5547 15.832C10.2478 16.0366 9.8533 16.0557 9.52814 15.8817C9.20298 15.7077 9 15.3688 9 15V9C9 8.6312 9.20298 8.29234 9.52814 8.11832C9.8533 7.94431 10.2478 7.96338 10.5547 8.16795L15.0547 11.1679C15.3329 11.3534 15.5 11.6656 15.5 12C15.5 12.3344 15.3329 12.6466 15.0547 12.832L10.5547 15.832Z" fill="#343A3D"/>
<path fill-rule="evenodd" clip-rule="evenodd" d="M12 3C8.37073 3 5.21126 3.41783 3.40572 3.71851C1.97421 3.9569 1 5.20311 1 6.6V17.4C1 18.7969 1.97421 20.0431 3.40572 20.2815C5.21126 20.5822 8.37073 21 12 21C15.6293 21 18.7887 20.5822 20.5943 20.2815C22.0258 20.0431 23 18.7969 23 17.4V6.6C23 5.20311 22.0258 3.9569 20.5943 3.71851C18.7887 3.41783 15.6293 3 12 3ZM3.73425 5.69134C5.47091 5.40214 8.51482 5 12 5C15.4852 5 18.5291 5.40214 20.2657 5.69134C20.6797 5.76027 21 6.12606 21 6.6V17.4C21 17.8739 20.6797 18.2397 20.2657 18.3087C18.5291 18.5979 15.4852 19 12 19C8.51482 19 5.47091 18.5979 3.73425 18.3087C3.32034 18.2397 3 17.8739 3 17.4V6.6C3 6.12606 3.32034 5.76027 3.73425 5.69134Z" fill="#343A3D"/>
</svg>
