<svg width="24" height="24" viewBox="0 0 24 24" fill="none" xmlns="http://www.w3.org/2000/svg">
<path d="M9.31345 3.32269C10.4345 2.98429 11.6201 2.91078 12.7751 3.10815C13.9301 3.30551 15.0219 3.76816 15.9632 4.45846C16.9044 5.14873 17.6688 6.04733 18.1958 7.0818C18.7227 8.11591 18.9979 9.25743 19 10.4151C18.9998 14.5479 16.0192 17 13.2 17C11.7388 17 10.8556 16.5293 10.3478 16.1142C10.1289 15.9353 9.97063 15.759 9.863 15.6196L11.9615 8.27473C12.1133 7.7437 11.8058 7.19021 11.2747 7.03849C10.7437 6.88677 10.1902 7.19426 10.0385 7.72529L6.03849 21.7253C5.88677 22.2563 6.19426 22.8098 6.72529 22.9615C7.25633 23.1133 7.80981 22.8058 7.96154 22.2747L9.2431 17.7893C10.0981 18.4349 11.3792 19 13.2 19C17.1807 19 21 15.5947 21 10.4147L21 10.413C20.9976 8.93986 20.6474 7.48804 19.9779 6.17388C19.3084 4.85975 18.3383 3.72012 17.146 2.84569C15.9537 1.97129 14.5721 1.38622 13.112 1.13672C11.6519 0.88722 10.1531 0.980096 8.73548 1.40803C7.31783 1.83596 6.02016 2.58726 4.94662 3.60243C3.87304 4.61765 3.05341 5.86861 2.55402 7.25555C2.05462 8.64252 1.88954 10.1265 2.07221 11.5884C2.25487 13.0503 2.78011 14.449 3.60531 15.6725C3.91412 16.1304 4.53565 16.2512 4.99352 15.9424C5.4514 15.6336 5.57224 15.0121 5.26343 14.5542C4.61343 13.5905 4.20039 12.4898 4.05678 11.3404C3.91317 10.1911 4.04288 9.02421 4.43576 7.93309C4.82864 6.84195 5.47397 5.85637 6.32078 5.0556C7.16763 4.25479 8.19244 3.66109 9.31345 3.32269Z" fill="#343A3D"/>
</svg>
