<svg width="24" height="24" viewBox="0 0 24 24" fill="none" xmlns="http://www.w3.org/2000/svg">
<path d="M3.01205 1C2.45311 1 2 1.44772 2 2V22C2 22.5523 2.45311 23 3.01205 23H19.2048C19.7638 23 20.2169 22.5523 20.2169 22V21C20.2169 20.4477 19.7638 20 19.2048 20C18.6459 20 18.1928 20.4477 18.1928 21H4.0241V3H18.1928C18.1928 3.55228 18.6459 4 19.2048 4C19.7638 4 20.2169 3.55228 20.2169 3V2C20.2169 1.44772 19.7638 1 19.2048 1H3.01205Z" fill="#343A3D"/>
<path d="M15.6933 6.96967C15.3969 6.67678 14.9163 6.67678 14.6199 6.96967C14.3235 7.26256 14.3235 7.73744 14.6199 8.03033L21.7042 15.0303C22.0007 15.3232 22.4813 15.3232 22.7777 15.0303C23.0741 14.7374 23.0741 14.2626 22.7777 13.9697L15.6933 6.96967Z" fill="#343A3D"/>
<path d="M12.3735 10.5C12.3735 10.0858 12.7133 9.75 13.1325 9.75H15.1566C15.5758 9.75 15.9157 10.0858 15.9157 10.5C15.9157 10.9142 15.5758 11.25 15.1566 11.25H13.8916V12.75H16.1687C16.37 12.75 16.563 12.829 16.7054 12.9697L19.4578 15.6893V15.5C19.4578 15.0858 19.7977 14.75 20.2169 14.75C20.6361 14.75 20.9759 15.0858 20.9759 15.5V17.5C20.9759 17.8033 20.791 18.0768 20.5073 18.1929C20.2237 18.309 19.8972 18.2448 19.6801 18.0303L15.8543 14.25H13.1325C12.7133 14.25 12.3735 13.9142 12.3735 13.5V10.5Z" fill="#343A3D"/>
<path d="M20.9759 6.00002C20.9759 5.69668 20.791 5.4232 20.5073 5.30711C20.2237 5.19103 19.8972 5.25519 19.6801 5.46969L18.1621 6.96969C17.8657 7.26259 17.8657 7.73746 18.1621 8.03035C18.4585 8.32325 18.9391 8.32325 19.2355 8.03035L19.4578 7.81068V9.00002C19.4578 9.41424 19.7977 9.75002 20.2169 9.75002C20.6361 9.75002 20.9759 9.41424 20.9759 9.00002V6.00002Z" fill="#343A3D"/>
<path d="M9.62094 5.53034C9.91737 5.82323 9.91737 6.29811 9.62094 6.591L6.64619 9.53034C6.34977 9.82323 5.86917 9.82323 5.57275 9.53034C5.27633 9.23745 5.27633 8.76257 5.57275 8.46968L8.5475 5.53034C8.84393 5.23745 9.32452 5.23745 9.62094 5.53034Z" fill="#343A3D"/>
<path d="M9.62094 10.591C9.91737 10.2981 9.91737 9.82323 9.62094 9.53034C9.32452 9.23745 8.84393 9.23745 8.5475 9.53034L6.5848 11.4697C6.28838 11.7626 6.28838 12.2374 6.5848 12.5303C6.88122 12.8232 7.36181 12.8232 7.65824 12.5303L9.62094 10.591Z" fill="#343A3D"/>
</svg>
