<svg width="24" height="24" viewBox="0 0 24 24" fill="none" xmlns="http://www.w3.org/2000/svg">
<path d="M5.09439 3.96608C5.50119 3.30872 5.97755 3 6.46922 3C6.96089 3 7.43725 3.30872 7.84405 3.96608C8.25082 4.62338 8.45691 5.44083 8.45691 6C8.45691 6.53693 8.27791 7.04117 7.96256 7.39814C7.83132 7.54669 7.66716 7.68076 7.46306 7.78445V6C7.46306 5.44772 7.01811 5 6.46922 5C5.92034 5 5.47538 5.44772 5.47538 6V7.78445C5.27128 7.68076 5.10712 7.54669 4.97588 7.39814C4.66053 7.04117 4.48153 6.53693 4.48153 6C4.48153 5.44083 4.68762 4.62338 5.09439 3.96608ZM7.46306 9.8916C8.27404 9.70686 8.94619 9.2951 9.44818 8.72686C10.1267 7.95883 10.4446 6.96307 10.4446 6C10.4446 5.05917 10.1302 3.87662 9.53137 2.90892C8.93256 1.94128 7.91815 1 6.46922 1C5.02029 1 4.00588 1.94128 3.40707 2.90892C2.80822 3.87662 2.49384 5.05917 2.49384 6C2.49384 6.96307 2.81177 7.95883 3.49026 8.72686C3.99225 9.2951 4.6644 9.70686 5.47538 9.8916V11H4.48153C2.83488 11 1.5 12.3431 1.5 14V20C1.5 21.6569 2.83488 23 4.48153 23H14.42C14.4288 23.0001 14.4369 22.9996 14.4441 22.9997L14.4749 23L14.4841 23L14.4881 23H14.4892L14.4937 23L14.5028 23L14.5338 22.9997C14.5599 22.9994 14.5969 22.9988 14.6438 22.9978C14.7375 22.9956 14.871 22.9913 15.0365 22.9829C15.3669 22.9661 15.8281 22.9326 16.3568 22.8655C17.3934 22.7339 18.7753 22.4633 19.9359 21.8818C22.1394 20.7779 23.0236 18.9825 23.3385 17.496C23.4938 16.763 23.5129 16.1031 23.494 15.6269C23.4845 15.3874 23.4653 15.1907 23.4476 15.0497C23.4388 14.979 23.4303 14.9221 23.4236 14.8804C23.4194 14.8546 23.415 14.8289 23.4101 14.8033C23.3416 14.4503 23.0898 14.1605 22.7509 14.046L22.7493 14.0454C22.7303 14.0391 22.7112 14.033 22.692 14.0271C22.6611 14.0176 22.619 14.0051 22.5669 13.9907C22.4627 13.962 22.3173 13.9254 22.1384 13.8894C21.7827 13.8177 21.2844 13.7461 20.7094 13.747C19.9986 13.7481 19.1385 13.8613 18.2869 14.2454C17.9946 12.8333 17.383 11.7161 16.7747 10.9C16.355 10.3369 15.9345 9.91338 15.615 9.62759C15.4548 9.48435 15.3188 9.37465 15.2193 9.29832C15.1694 9.26012 15.1286 9.23018 15.0983 9.20848C15.0831 9.19763 15.0706 9.18883 15.0608 9.18208L15.0483 9.17348L15.0437 9.17033L15.0418 9.16905L15.0409 9.16847C14.7071 8.94454 14.2714 8.94402 13.9376 9.16795L13.934 9.17033L13.9169 9.18208C13.9071 9.18883 13.8946 9.19763 13.8794 9.20848C13.8491 9.23018 13.8082 9.26012 13.7584 9.29832C13.6589 9.37465 13.5229 9.48435 13.3627 9.62759C13.0432 9.91338 12.6227 10.3369 12.203 10.9C11.8317 11.3982 11.4591 12.0085 11.1587 12.7296C10.6833 11.7078 9.65228 11 8.45691 11H7.46306V9.8916ZM9.44025 13.8541C8.59338 13.6975 6.58622 13.3823 5.9723 14C5.67404 14.3001 5.57525 14.6493 5.52514 15.0574C5.50784 15.1983 5.48912 15.3948 5.48039 15.634C5.46303 16.1098 5.4846 16.769 5.64358 17.5017C5.8896 18.6358 6.46893 19.9473 7.7119 21H4.48153C3.93265 21 3.48769 20.5523 3.48769 20V14C3.48769 13.4477 3.93265 13 4.48153 13H8.45691C8.95655 13 9.37008 13.371 9.44025 13.8541ZM7.46389 15.8139C7.6944 15.7781 7.97287 15.75 8.2773 15.75C9.01668 15.75 9.83667 15.9131 10.5282 16.4601C10.6405 18.2207 11.3786 19.7053 12.0996 20.764C11.3549 20.6277 10.5867 20.4188 9.9641 20.1056C8.40603 19.3217 7.81087 18.1139 7.58554 17.0752C7.48172 16.5967 7.45804 16.1548 7.46389 15.8139ZM14.5384 20.6469C14.3203 20.4063 14.0649 20.0992 13.81 19.7358C13.1285 18.7643 12.5012 17.4653 12.5012 16C12.5012 14.2655 13.1441 12.9708 13.7932 12.1C14.0374 11.7724 14.2812 11.5068 14.4888 11.3042C14.6965 11.5068 14.9403 11.7724 15.1845 12.1C15.8336 12.9708 16.4765 14.2655 16.4765 16C16.4765 17.7345 15.8336 19.0292 15.1845 19.9C14.9595 20.2019 14.7348 20.4511 14.5384 20.6469ZM18.4523 16.4621C19.1588 15.9108 19.9814 15.7481 20.7124 15.747C21.0116 15.7465 21.2847 15.7736 21.511 15.8084C21.5184 16.1516 21.4966 16.5972 21.3945 17.079C21.1739 18.1203 20.5874 19.3212 19.0499 20.0915C18.4551 20.3895 17.7373 20.5943 17.0341 20.7326C17.7244 19.6998 18.3586 18.2732 18.4523 16.4621Z" fill="#343A3D"/>
</svg>
