<svg width="24" height="24" viewBox="0 0 24 24" fill="none" xmlns="http://www.w3.org/2000/svg">
<path d="M1 16.0002C1 17.354 1.8967 18.4983 3.12854 18.8717C3.5019 20.1035 4.64623 21.0002 6 21.0002C7.30622 21.0002 8.41746 20.1654 8.8293 19.0002H15.1707C15.5825 20.1654 16.6938 21.0002 18 21.0002C19.3538 21.0002 20.4981 20.1035 20.8715 18.8717C22.1033 18.4983 23 17.354 23 16.0002V13.85C23 13.0615 22.8313 12.4394 22.4466 11.7662L19.7317 7.01498C19.4546 6.52854 19.2107 6.10051 18.8537 5.77703C18.5408 5.49353 18.1716 5.27927 17.7702 5.14826C17.3122 4.99878 16.8196 4.99939 16.2597 5.00009L5.16146 5.00019C4.63431 5.00017 4.17955 5.00016 3.80497 5.03076C3.40963 5.06306 3.01641 5.13438 2.63803 5.32717C2.07354 5.61479 1.6146 6.07373 1.32698 6.63822C1.13419 7.0166 1.06287 7.40982 1.03057 7.80516C0.999969 8.17973 0.999984 8.63447 1 9.16161V16.0002ZM16.143 7.00019C16.8871 7.00019 17.0343 7.01191 17.1496 7.04955C17.2834 7.09322 17.4065 7.16464 17.5108 7.25914C17.6007 7.34058 17.6839 7.46256 18.0531 8.10869L20.277 12.0005H15V7.00019H16.143ZM13 12.0005H9V7.00019H13V12.0005ZM7 12.0005H3V9.20019C3 8.62364 3.00078 8.25136 3.02393 7.96803C3.04613 7.69636 3.0838 7.59565 3.109 7.5462C3.20487 7.35804 3.35785 7.20506 3.54601 7.10919C3.59546 7.08399 3.69618 7.04631 3.96784 7.02412C4.25118 7.00097 4.62345 7.00019 5.2 7.00019H7V12.0005ZM3 14.0005H21L21 16.0002C21 16.2761 20.8883 16.5259 20.7076 16.7068C20.2246 15.6974 19.1937 15.0002 18 15.0002C16.6938 15.0002 15.5825 15.835 15.1707 17.0002H8.8293C8.41746 15.835 7.30622 15.0002 6 15.0002C4.8063 15.0002 3.77543 15.6974 3.29237 16.7068C3.11172 16.5259 3 16.2761 3 16.0002V14.0005ZM5 18.0002C5 17.4479 5.44772 17.0002 6 17.0002C6.55229 17.0002 7 17.4479 7 18.0002C7 18.5525 6.55229 19.0002 6 19.0002C5.44772 19.0002 5 18.5525 5 18.0002ZM17 18.0002C17 17.4479 17.4477 17.0002 18 17.0002C18.5523 17.0002 19 17.4479 19 18.0002C19 18.5525 18.5523 19.0002 18 19.0002C17.4477 19.0002 17 18.5525 17 18.0002Z" fill="#343A3D"/>
</svg>
