<svg width="24" height="24" viewBox="0 0 24 24" fill="none" xmlns="http://www.w3.org/2000/svg">
<path fill-rule="evenodd" clip-rule="evenodd" d="M7.5 6C7.5 5.44772 7.94772 5 8.5 5H16.5C17.0523 5 17.5 5.44772 17.5 6C17.5 6.55228 17.0523 7 16.5 7H8.5C7.94772 7 7.5 6.55228 7.5 6ZM7.5 9.5C7.5 8.94772 7.94772 8.5 8.5 8.5H13.5C14.0523 8.5 14.5 8.94772 14.5 9.5C14.5 10.0523 14.0523 10.5 13.5 10.5H8.5C7.94772 10.5 7.5 10.0523 7.5 9.5ZM7.5 16C7.5 15.4477 7.94772 15 8.5 15H10.5C11.0523 15 11.5 15.4477 11.5 16C11.5 16.5523 11.0523 17 10.5 17H8.5C7.94772 17 7.5 16.5523 7.5 16Z" fill="#343A3D"/>
<path fill-rule="evenodd" clip-rule="evenodd" d="M3.5 4C3.5 2.34315 4.84315 1 6.5 1H18.5C20.1569 1 21.5 2.34315 21.5 4V19C21.5 20.6569 20.1569 22 18.5 22H6.5C4.84315 22 3.5 20.6569 3.5 19V4ZM6.5 3C5.94772 3 5.5 3.44772 5.5 4V19C5.5 19.5523 5.94772 20 6.5 20H18.5C19.0523 20 19.5 19.5523 19.5 19V4C19.5 3.44772 19.0523 3 18.5 3H6.5Z" fill="#343A3D"/>
<path fill-rule="evenodd" clip-rule="evenodd" d="M17.036 14.4754C17.3257 14.7714 17.3206 15.2462 17.0246 15.536L14.9814 17.536C14.8382 17.6762 14.6448 17.7532 14.4444 17.7499C14.2441 17.7466 14.0533 17.6633 13.9148 17.5185L12.9581 16.5185C12.6717 16.2192 12.6822 15.7444 12.9815 15.4581C13.2808 15.1717 13.7556 15.1822 14.0419 15.4815L14.4742 15.9334L15.9754 14.464C16.2714 14.1743 16.7462 14.1794 17.036 14.4754Z" fill="#343A3D"/>
</svg>
