<svg width="24" height="24" viewBox="0 0 24 24" fill="none" xmlns="http://www.w3.org/2000/svg">
<path fill-rule="evenodd" clip-rule="evenodd" d="M6.78544 13.4926C6.24247 13.1346 5.53511 13.1346 4.99214 13.4926C4.73753 13.6604 4.43837 13.75 4.13236 13.75H2.8553V12.25H4.13236C4.13893 12.25 4.14534 12.2481 4.1508 12.2445C5.20324 11.5506 6.57434 11.5506 7.62678 12.2445C7.63224 12.2481 7.63865 12.25 7.64521 12.25H8.92228V13.75H7.64521C7.33921 13.75 7.04005 13.6604 6.78544 13.4926ZM4.13236 17.75H2.8553V16.25H4.13236C4.43837 16.25 4.73753 16.3396 4.99214 16.5074C5.53511 16.8654 6.24247 16.8654 6.78544 16.5074C7.04005 16.3396 7.33921 16.25 7.64521 16.25H8.92228V17.75H7.64521C7.63865 17.75 7.63224 17.7519 7.62678 17.7555C6.57434 18.4494 5.20324 18.4494 4.1508 17.7555C4.14534 17.7519 4.13893 17.75 4.13236 17.75Z" fill="#343A3D"/>
<path fill-rule="evenodd" clip-rule="evenodd" d="M1.84414 3C1.84414 2.44772 2.29685 2 2.8553 2H8.92228C9.48073 2 9.93344 2.44772 9.93344 3V6C9.93344 6.55228 9.48073 7 8.92228 7V8C8.92228 8.00321 8.92227 8.00641 8.92226 8.00961C10.0826 8.12161 10.9251 9.19599 10.7116 10.3578L10.2814 12.6978C10.0603 13.9 10.0434 15.1303 10.2313 16.3381L10.7536 19.6959C10.9421 20.9074 9.99427 22 8.75482 22H3.02276C1.78331 22 0.835482 20.9074 1.02395 19.6959L1.54629 16.3381C1.73418 15.1303 1.71726 13.9 1.49622 12.6978L1.06602 10.3578C0.85243 9.196 1.69499 8.12161 2.85532 8.00961C2.85531 8.00641 2.8553 8.00321 2.8553 8L2.8553 7C2.29685 7 1.84414 6.55228 1.84414 6V3ZM7.91112 5V4H3.86646V5H7.91112ZM4.87763 7V8H6.89995V7H4.87763ZM3.05573 10L3.48593 12.34C3.74715 13.7609 3.76715 15.2149 3.5451 16.6422L3.02276 20L8.75482 20L8.23247 16.6422C8.01043 15.2149 8.03043 13.7609 8.29165 12.34L8.72185 10L3.05573 10Z" fill="#343A3D"/>
<path fill-rule="evenodd" clip-rule="evenodd" d="M13.9781 5.25C13.9781 3.45507 15.4494 2 17.2644 2H17.77C19.5849 2 21.0562 3.45507 21.0562 5.25C21.0562 5.95074 20.6398 6.55529 20.0383 6.83477C20.0428 6.88926 20.0451 6.94436 20.0451 7V8H20.2192C21.2774 8 22.1567 8.80681 22.2358 9.85042L22.9942 19.8504C23.0822 21.0107 22.1541 22 20.9776 22H14.0568C12.8803 22 11.9521 21.0107 12.0401 19.8504L12.7985 9.85042C12.8776 8.80681 13.7569 8 14.8151 8H14.9893V7C14.9893 6.94436 14.9916 6.88926 14.9961 6.83477C14.3946 6.55529 13.9781 5.95074 13.9781 5.25ZM19.0086 5C18.8915 4.42944 18.3814 4 17.77 4H17.2644C16.6529 4 16.1428 4.42944 16.0257 5H19.0086ZM17.0116 7V8H18.0227V7H17.0116ZM14.8151 10L14.0568 20L20.9776 20L20.2192 10L14.8151 10Z" fill="#343A3D"/>
<path fill-rule="evenodd" clip-rule="evenodd" d="M17.5172 12.75C17.0983 12.75 16.7588 13.0858 16.7588 13.5C16.7588 13.9142 17.0983 14.25 17.5172 14.25C17.936 14.25 18.2755 13.9142 18.2755 13.5C18.2755 13.0858 17.936 12.75 17.5172 12.75ZM15.242 13.5C15.242 12.2574 16.2607 11.25 17.5172 11.25C18.7737 11.25 19.7923 12.2574 19.7923 13.5C19.7923 14.7426 18.7737 15.75 17.5172 15.75C16.2607 15.75 15.242 14.7426 15.242 13.5ZM16.0004 17.25C16.0004 16.8358 16.34 16.5 16.7588 16.5H18.2755C18.6944 16.5 19.0339 16.8358 19.0339 17.25C19.0339 17.6642 18.6944 18 18.2755 18H16.7588C16.34 18 16.0004 17.6642 16.0004 17.25Z" fill="#343A3D"/>
</svg>
