<svg width="25" height="24" viewBox="0 0 25 24" fill="none" xmlns="http://www.w3.org/2000/svg">
<path d="M18.2574 6.61722C18.2089 6.50014 18.1373 6.3904 18.0425 6.29502L18.0382 6.29078C17.9429 6.19595 17.8331 6.12432 17.716 6.07588C17.5981 6.02699 17.4688 6 17.3333 6H13.3333C12.781 6 12.3333 6.44772 12.3333 7C12.3333 7.55228 12.781 8 13.3333 8H14.919L8.33325 14.5858V13C8.33325 12.4477 7.88554 12 7.33325 12C6.78097 12 6.33325 12.4477 6.33325 13V17C6.33325 17.1356 6.36024 17.2649 6.40913 17.3828C6.45757 17.4999 6.5292 17.6096 6.62403 17.705L6.62827 17.7092C6.72365 17.804 6.83339 17.8757 6.95047 17.9241C7.06751 17.9727 7.19576 17.9996 7.33025 18L7.33325 18H11.3333C11.8855 18 12.3333 17.5523 12.3333 17C12.3333 16.4477 11.8855 16 11.3333 16H9.74747L16.3333 9.41421V11C16.3333 11.5523 16.781 12 17.3333 12C17.8855 12 18.3333 11.5523 18.3333 11V7.00069L18.3332 6.997C18.3329 6.8625 18.3059 6.73425 18.2574 6.61722Z" fill="#343A3D"/>
<path fill-rule="evenodd" clip-rule="evenodd" d="M5.33325 2C3.6764 2 2.33325 3.34315 2.33325 5V19C2.33325 20.6569 3.6764 22 5.33325 22H19.3333C20.9901 22 22.3333 20.6569 22.3333 19V5C22.3333 3.34315 20.9901 2 19.3333 2H5.33325ZM4.33325 5C4.33325 4.44772 4.78097 4 5.33325 4H19.3333C19.8855 4 20.3333 4.44772 20.3333 5V19C20.3333 19.5523 19.8855 20 19.3333 20H5.33325C4.78097 20 4.33325 19.5523 4.33325 19V5Z" fill="#343A3D"/>
</svg>
