<svg width="25" height="24" viewBox="0 0 25 24" fill="none" xmlns="http://www.w3.org/2000/svg">
<path d="M15.2255 7.15743L13.2916 2.6335C12.9305 1.78883 11.736 1.78883 11.3749 2.6335L9.44097 7.15743C9.29507 7.49873 8.97951 7.7368 8.61198 7.78286L3.24773 8.45508C2.34275 8.56849 2.00894 9.70989 2.70958 10.2952L6.63198 13.5721C6.93179 13.8226 7.06696 14.2199 6.98231 14.6018L5.62515 20.7244C5.41776 21.66 6.471 22.3588 7.24895 21.8017L11.7272 18.5949C12.0898 18.3353 12.5767 18.3353 12.9393 18.5949L17.4176 21.8017C18.1955 22.3588 19.2487 21.66 19.0414 20.7244L17.6842 14.6018C17.5995 14.2199 17.7347 13.8226 18.0345 13.5721L21.9569 10.2952C22.6576 9.70989 22.3238 8.56849 21.4188 8.45508L16.0545 7.78286C15.687 7.7368 15.3714 7.49873 15.2255 7.15743Z" fill="#343A3D"/>
</svg>
