<svg width="25" height="24" viewBox="0 0 25 24" fill="none" xmlns="http://www.w3.org/2000/svg">
<path fill-rule="evenodd" clip-rule="evenodd" d="M13.2524 6.10608C13.0949 5.7384 12.7333 5.5 12.3333 5.5C11.9333 5.5 11.5717 5.7384 11.4142 6.10608L10.2765 8.76069L7.20926 9.14409C6.814 9.19349 6.48576 9.47277 6.37369 9.85502C6.26162 10.2373 6.3871 10.6496 6.69311 10.9046L8.95217 12.7871L8.17529 16.2831C8.08543 16.6874 8.25417 17.1053 8.5996 17.3339C8.94504 17.5625 9.39565 17.5545 9.73271 17.3137L12.3333 15.4562L14.9339 17.3137C15.2709 17.5545 15.7216 17.5625 16.067 17.3339C16.4124 17.1053 16.5812 16.6874 16.4913 16.2831L15.7144 12.7871L17.9735 10.9046C18.2795 10.6496 18.405 10.2373 18.2929 9.85502C18.1808 9.47277 17.8526 9.19349 17.4573 9.14409L14.3901 8.76069L13.2524 6.10608ZM11.8888 10.0757L12.3333 9.03859L12.7778 10.0757C12.9177 10.4023 13.2204 10.63 13.5729 10.6741L14.9234 10.8429L13.9658 11.6409C13.6783 11.8805 13.5486 12.2606 13.6298 12.626L13.9728 14.1695L12.9145 13.4135C12.5668 13.1652 12.0998 13.1652 11.7521 13.4135L10.6938 14.1695L11.0368 12.626C11.118 12.2606 10.9883 11.8805 10.7008 11.6409L9.7432 10.8429L11.0937 10.6741C11.4462 10.63 11.7489 10.4023 11.8888 10.0757Z" fill="#343A3D"/>
<path fill-rule="evenodd" clip-rule="evenodd" d="M12.3333 1C6.25812 1 1.33325 5.92487 1.33325 12C1.33325 18.0751 6.25812 23 12.3333 23C18.4084 23 23.3333 18.0751 23.3333 12C23.3333 5.92487 18.4084 1 12.3333 1ZM3.33325 12C3.33325 7.02944 7.36269 3 12.3333 3C17.3038 3 21.3333 7.02944 21.3333 12C21.3333 16.9706 17.3038 21 12.3333 21C7.36269 21 3.33325 16.9706 3.33325 12Z" fill="#343A3D"/>
</svg>
