<svg width="25" height="24" viewBox="0 0 25 24" fill="none" xmlns="http://www.w3.org/2000/svg">
<path d="M3.38465 1.68377C3.52077 1.27543 3.9029 1 4.33334 1H20.3333C20.7638 1 21.1459 1.27543 21.282 1.68377L23.2437 7.5687C23.3006 7.6914 23.3333 7.83516 23.3333 7.99998V9.99998C23.3333 11.4472 22.511 12.6299 21.3333 13.3244V20C21.3333 21.6569 19.9902 23 18.3333 23H6.33331C4.67646 23 3.33331 21.6569 3.33331 20V13.3244C2.15563 12.6299 1.33331 11.4472 1.33331 9.99998V7.99998C1.33331 7.83501 1.36604 7.69113 1.42312 7.56836L3.38465 1.68377ZM3.33331 9V9.99998C3.33331 10.9655 4.30243 12 5.83331 12C7.3642 12 8.33331 10.9655 8.33331 9.99998V9H3.33331ZM10.3333 9V9.99998C10.3333 11.1046 11.2287 12 12.3333 12C13.4379 12 14.3333 11.1046 14.3333 9.99998V9H10.3333ZM9.27745 12.5811C8.42649 13.469 7.15726 14 5.83331 14C5.66552 14 5.49861 13.9915 5.33331 13.9748V20C5.33331 20.5523 5.78103 21 6.33331 21H18.3333C18.8856 21 19.3333 20.5523 19.3333 20V13.9748C19.168 13.9915 19.0011 14 18.8333 14C17.5094 14 16.2401 13.469 15.3892 12.5811C14.6554 13.4489 13.5587 14 12.3333 14C11.1079 14 10.0112 13.4489 9.27745 12.5811ZM16.3333 9V9.99998C16.3333 10.9655 17.3024 12 18.8333 12C20.3642 12 21.3333 10.9655 21.3333 9.99998V9H16.3333ZM5.05409 3L3.72076 7H20.9459L19.6126 3H5.05409Z" fill="#343A3D"/>
</svg>
