<svg width="24" height="24" viewBox="0 0 24 24" fill="none" xmlns="http://www.w3.org/2000/svg">
<path fill-rule="evenodd" clip-rule="evenodd" d="M16.4882 16.7143H17.0087C20.2645 16.7143 22.9016 14.0772 22.9016 10.8214C22.9016 7.56562 20.2645 4.92857 17.0087 4.92857C16.665 4.92857 16.336 4.97277 16.0118 5.0317C14.6663 2.62545 12.098 1 9.15158 1C4.8105 1 1.29443 4.51607 1.29443 8.85714C1.29443 12.383 3.62211 15.3687 6.8239 16.3607L7.48684 14.5094C5.04131 13.7875 3.25872 11.5335 3.25872 8.85714C3.25872 5.60134 5.89577 2.96429 9.15158 2.96429C11.9458 2.96429 14.2735 4.91384 14.8824 7.52634C15.4962 7.12857 16.223 6.89286 17.0087 6.89286C19.1793 6.89286 20.9373 8.65089 20.9373 10.8214C20.9373 12.5598 19.8078 14.0281 18.2462 14.5487L16.4882 16.7143ZM16.0266 9.83929H11.1159L8.6605 16.7143H11.9016L10.1337 22.6071L16.5176 14.75H13.0801L16.0266 9.83929Z" fill="#343A3D"/>
</svg>
