<svg width="25" height="24" viewBox="0 0 25 24" fill="none" xmlns="http://www.w3.org/2000/svg">
<path d="M3.51343 4.08791C3.51343 3.48707 3.02538 3 2.42334 3C1.8213 3 1.33325 3.48707 1.33325 4.08791V13.978C1.33325 14.5789 1.8213 15.0659 2.42334 15.0659H19.6115L15.5264 19.1428C15.1007 19.5677 15.1007 20.2565 15.5264 20.6814C15.9521 21.1062 16.6423 21.1062 17.068 20.6814L23.014 14.7473C23.2184 14.5433 23.3333 14.2666 23.3333 13.978C23.3333 13.6895 23.2184 13.4128 23.014 13.2088L17.068 7.27469C16.6423 6.84983 15.9521 6.84983 15.5264 7.27469C15.1007 7.69954 15.1007 8.38837 15.5264 8.81323L19.6115 12.8901H3.51343V4.08791Z" fill="#343A3D"/>
</svg>
