<svg width="24" height="24" viewBox="0 0 24 24" fill="none" xmlns="http://www.w3.org/2000/svg">
<path d="M8 3.02121C8 1.90493 8.90493 1 10.0212 1H13.9788C15.0951 1 16 1.90493 16 3.02121V5C17.6569 5 19 6.34315 19 8V19C19 20.6569 17.6569 22 16 22C16 22.5523 15.5523 23 15 23C14.4477 23 14 22.5523 14 22H10C10 22.5523 9.55228 23 9 23C8.44772 23 8 22.5523 8 22C6.34315 22 5 20.6569 5 19V8C5 6.34315 6.34315 5 8 5V3.02121ZM14 3.02121C14 3.01644 13.9987 3.01326 13.9987 3.01326C13.9987 3.01326 13.9964 3.00886 13.9938 3.00621C13.9911 3.00357 13.9867 3.00126 13.9867 3.00126C13.9867 3.00126 13.9836 3 13.9788 3H10.0212C10.0164 3 10.0133 3.00126 10.0133 3.00126C10.0133 3.00126 10.0089 3.00357 10.0062 3.00621C10.0036 3.00886 10.0013 3.01326 10.0013 3.01326C10.0013 3.01326 10 3.01644 10 3.02121V5H14V3.02121ZM9 9.75C9 10.1642 9.33579 10.5 9.75 10.5H14.25C14.6642 10.5 15 10.1642 15 9.75C15 9.33579 14.6642 9 14.25 9H9.75C9.33579 9 9 9.33579 9 9.75ZM9 12.75C9 13.1642 9.33579 13.5 9.75 13.5H14.25C14.6642 13.5 15 13.1642 15 12.75C15 12.3358 14.6642 12 14.25 12H9.75C9.33579 12 9 12.3358 9 12.75ZM9 15.75C9 16.1642 9.33579 16.5 9.75 16.5H14.25C14.6642 16.5 15 16.1642 15 15.75C15 15.3358 14.6642 15 14.25 15H9.75C9.33579 15 9 15.3358 9 15.75Z" fill="#343A3D"/>
</svg>
