<svg width="24" height="24" viewBox="0 0 24 24" fill="none" xmlns="http://www.w3.org/2000/svg">
<path d="M11.0833 3.75C11.0833 4.25417 11.4958 4.66667 12 4.66667C12.5042 4.66667 12.9167 4.25417 12.9167 3.75V1.91667C12.9167 1.4125 12.5042 1 12 1C11.4958 1 11.0833 1.4125 11.0833 1.91667V3.75ZM5.51917 6.81625L4.22208 5.51917C3.86458 5.16167 3.86458 4.57958 4.22208 4.22208C4.57958 3.86458 5.16167 3.86458 5.51917 4.22208L6.81625 5.51917C7.17375 5.87667 7.17375 6.45875 6.81625 6.81625C6.45875 7.17375 5.87667 7.17375 5.51917 6.81625ZM3.75 12.9167C4.25417 12.9167 4.66667 12.5042 4.66667 12C4.66667 11.4958 4.25417 11.0833 3.75 11.0833H1.91667C1.4125 11.0833 1 11.4958 1 12C1 12.5042 1.4125 12.9167 1.91667 12.9167H3.75ZM5.51917 17.1838C5.87667 16.8263 6.45875 16.8263 6.81625 17.1838C7.17375 17.5413 7.17375 18.1233 6.81625 18.4808L5.51917 19.7779C5.16167 20.1354 4.57958 20.1354 4.22208 19.7779C3.86458 19.4204 3.86458 18.8383 4.22208 18.4808L5.51917 17.1838ZM19.7779 18.4808L18.4808 17.1838C18.1233 16.8263 17.5413 16.8263 17.1838 17.1838C16.8263 17.5413 16.8263 18.1233 17.1838 18.4808L18.4808 19.7779C18.8383 20.1354 19.4204 20.1354 19.7779 19.7779C20.1354 19.4204 20.1354 18.8383 19.7779 18.4808ZM12.9167 20.25C12.9167 19.7458 12.5042 19.3333 12 19.3333C11.4958 19.3333 11.0833 19.7458 11.0833 20.25V22.0833C11.0833 22.5875 11.4958 23 12 23C12.5042 23 12.9167 22.5875 12.9167 22.0833V20.25ZM12 8.33333C14.0258 8.33333 15.6667 9.97417 15.6667 12C15.6667 14.0258 14.0258 15.6667 12 15.6667C9.97417 15.6667 8.33333 14.0258 8.33333 12C8.33333 9.97417 9.97417 8.33333 12 8.33333ZM6.5 12C6.5 15.0387 8.96125 17.5 12 17.5C15.0387 17.5 17.5 15.0387 17.5 12C17.5 8.96125 15.0387 6.5 12 6.5C8.96125 6.5 6.5 8.96125 6.5 12ZM18.4808 6.81625C18.1233 7.17375 17.5413 7.17375 17.1838 6.81625C16.8263 6.45875 16.8263 5.87667 17.1838 5.51917L18.4808 4.22208C18.8383 3.86458 19.4204 3.86458 19.7779 4.22208C20.1354 4.57958 20.1354 5.16167 19.7779 5.51917L18.4808 6.81625ZM20.25 12.9167H22.0833C22.5875 12.9167 23 12.5042 23 12C23 11.4958 22.5875 11.0833 22.0833 11.0833H20.25C19.7458 11.0833 19.3333 11.4958 19.3333 12C19.3333 12.5042 19.7458 12.9167 20.25 12.9167Z" fill="#444444"/>
</svg>
