<svg width="25" height="24" viewBox="0 0 25 24" fill="none" xmlns="http://www.w3.org/2000/svg">
<path d="M22.0413 7.70614C22.2289 7.5186 22.3342 7.26425 22.3342 6.99903C22.3342 6.73381 22.2289 6.47946 22.0413 6.29192L18.0413 2.29192C17.6508 1.90139 17.0176 1.90139 16.6271 2.29192C16.2366 2.68244 16.2366 3.31561 16.6271 3.70613L18.92 5.99902H6.33226C5.77997 5.99902 5.33226 6.44674 5.33226 6.99902C5.33226 7.55131 5.77997 7.99902 6.33226 7.99902H18.92L16.6271 10.2919C16.2366 10.6825 16.2366 11.3156 16.6271 11.7061C17.0176 12.0967 17.6508 12.0967 18.0413 11.7061L22.0413 7.70614Z" fill="#343A3D"/>
<path d="M18.3323 17.999C18.8846 17.999 19.3323 17.5513 19.3323 16.999C19.3323 16.4467 18.8846 15.999 18.3323 15.999H5.7465L8.03939 13.7061C8.42991 13.3156 8.42991 12.6824 8.03939 12.2919C7.64886 11.9014 7.0157 11.9014 6.62517 12.2919L2.62517 16.2919C2.43763 16.4795 2.33228 16.7338 2.33228 16.999C2.33228 17.2642 2.43763 17.5186 2.62517 17.7061L6.62517 21.7061C7.0157 22.0967 7.64886 22.0967 8.03939 21.7061C8.42991 21.3156 8.42991 20.6825 8.03939 20.2919L5.74648 17.999H18.3323Z" fill="#343A3D"/>
</svg>
