<svg width="24" height="24" viewBox="0 0 24 24" fill="none" xmlns="http://www.w3.org/2000/svg">
<path fill-rule="evenodd" clip-rule="evenodd" d="M9.5 4C8.94772 4 8.5 4.44772 8.5 5V8H16.5V5C16.5 3.34315 17.8431 2 19.5 2H21.5C22.0523 2 22.5 2.44772 22.5 3C22.5 3.55228 22.0523 4 21.5 4H19.5C18.9477 4 18.5 4.44772 18.5 5V17.369C19.1699 17.5413 19.8039 17.8897 20.3284 18.4142L22.2071 20.2929C22.5976 20.6834 22.5976 21.3166 22.2071 21.7071C21.8166 22.0976 21.1834 22.0976 20.7929 21.7071L18.9142 19.8284C18.1332 19.0474 16.8668 19.0474 16.0858 19.8284L15.3284 20.5858C13.7663 22.1479 11.2337 22.1479 9.67158 20.5858L8.91421 19.8284C8.13316 19.0474 6.86684 19.0474 6.08579 19.8284L4.20711 21.7071C3.81658 22.0976 3.18342 22.0976 2.79289 21.7071C2.40237 21.3166 2.40237 20.6834 2.79289 20.2929L4.67157 18.4142C5.19611 17.8897 5.83009 17.5413 6.5 17.369V5C6.5 3.34315 7.84315 2 9.5 2H11.5C12.0523 2 12.5 2.44772 12.5 3C12.5 3.55228 12.0523 4 11.5 4H9.5ZM8.5 17.369C9.16992 17.5413 9.80389 17.8897 10.3284 18.4142L11.0858 19.1716C11.8668 19.9526 13.1332 19.9526 13.9142 19.1716L14.6716 18.4142C15.1961 17.8897 15.8301 17.5413 16.5 17.369V15H8.5V17.369ZM8.5 13H16.5V10H8.5V13Z" fill="#343A3D"/>
</svg>
