<svg width="24" height="24" viewBox="0 0 24 24" fill="none" xmlns="http://www.w3.org/2000/svg">
<path d="M15 5C15 5.55229 14.5523 6 14 6L10 6C9.44772 6 9 5.55228 9 5C9 4.44772 9.44772 4 10 4L14 4C14.5523 4 15 4.44772 15 5Z" fill="#343A3D"/>
<path d="M11 19C11 19.5523 11.4477 20 12 20C12.5523 20 13 19.5523 13 19C13 18.4477 12.5523 18 12 18C11.4477 18 11 18.4477 11 19Z" fill="#343A3D"/>
<path fill-rule="evenodd" clip-rule="evenodd" d="M17 1C19.2091 1 21 2.79086 21 5V19C21 21.2091 19.2091 23 17 23H7C4.79086 23 3 21.2091 3 19V5C3 2.79086 4.79086 1 7 1H17ZM19 5C19 3.89543 18.1046 3 17 3L7 3C5.89543 3 5 3.89543 5 5L5 19C5 20.1046 5.89543 21 7 21H17C18.1046 21 19 20.1046 19 19L19 5Z" fill="#343A3D"/>
</svg>
