<svg width="24" height="24" viewBox="0 0 24 24" fill="none" xmlns="http://www.w3.org/2000/svg">
<path d="M2.48976 4.36754C2.77189 3.55086 3.56395 3 4.45611 3H19.5439C20.436 3 21.2281 3.55086 21.5102 4.36754L22.892 8.36754C23.3394 9.66261 22.3404 11 20.9257 11H20.3997L20.6989 13.8872C20.6998 13.8952 20.7006 13.9033 20.7014 13.9114L21.3221 19.9005C21.379 20.45 20.9635 20.9401 20.394 20.995C19.8244 21.05 19.3166 20.649 19.2596 20.0995L18.7311 15H5.26884L4.74034 20.0995C4.68339 20.649 4.17553 21.05 3.60601 20.995C3.03649 20.9401 2.62097 20.45 2.67792 19.9005L3.2986 13.9115C3.29934 13.9033 3.30019 13.8952 3.30113 13.8871L3.60034 11H3.0743C1.65956 11 0.660571 9.66261 1.10795 8.36754L2.48976 4.36754ZM4.75696 9H19.243C19.2515 8.9999 19.26 8.9999 19.2684 9H20.9257L19.5439 5H4.45611L3.0743 9H4.73156C4.74001 8.9999 4.74848 8.9999 4.75696 9ZM5.68339 11L5.47612 13H18.5239L18.3166 11H5.68339Z" fill="#343A3D"/>
</svg>
