<svg width="24" height="24" viewBox="0 0 24 24" fill="none" xmlns="http://www.w3.org/2000/svg">
<path d="M8 2C8.55228 2 9 2.44772 9 3V5C9 5.55228 8.55228 6 8 6C7.44772 6 7 5.55228 7 5V3C7 2.44772 7.44772 2 8 2Z" fill="#343A3D"/>
<path d="M1 9C1 7.89543 1.89543 7 3 7H17C18.1046 7 19 7.89543 19 9H19.5C21.433 9 23 10.567 23 12.5C23 14.433 21.433 16 19.5 16H18.0645C17.2118 17.7159 15.8275 19.121 14.1272 20H17C17.5523 20 18 20.4477 18 21C18 21.5523 17.5523 22 17 22H3C2.44772 22 2 21.5523 2 21C2 20.4477 2.44772 20 3 20H5.8728C2.97844 18.5038 1 15.4829 1 12V9ZM17 9H9V10C10.1046 10 11 10.8954 11 12V15C11 15.5523 10.5523 16 10 16H6C5.44772 16 5 15.5523 5 15V12C5 10.8954 5.89543 10 7 10V9H3V12C3 15.866 6.13401 19 10 19C13.866 19 17 15.866 17 12V9ZM7 12V14H9V12H7ZM19.5 11H19V12C19 12.6874 18.9229 13.3568 18.777 14H19.5C20.3284 14 21 13.3284 21 12.5C21 11.6716 20.3284 11 19.5 11Z" fill="#343A3D"/>
<path d="M13 3C13 2.44772 12.5523 2 12 2C11.4477 2 11 2.44772 11 3V5C11 5.55228 11.4477 6 12 6C12.5523 6 13 5.55228 13 5V3Z" fill="#343A3D"/>
</svg>
