<svg width="24" height="24" viewBox="0 0 24 24" fill="none" xmlns="http://www.w3.org/2000/svg">
<path d="M7 14.25C5.48122 14.25 4.25 15.4812 4.25 17C4.25 18.5188 5.48122 19.75 7 19.75C8.51878 19.75 9.75 18.5188 9.75 17C9.75 15.4812 8.51878 14.25 7 14.25ZM5.75 17C5.75 16.3096 6.30964 15.75 7 15.75C7.69036 15.75 8.25 16.3096 8.25 17C8.25 17.6904 7.69036 18.25 7 18.25C6.30964 18.25 5.75 17.6904 5.75 17Z" fill="#343A3D"/>
<path d="M12 4.25C12.2841 4.25 12.5438 4.4105 12.6708 4.66459L14.6708 8.66459C14.7871 8.89708 14.7746 9.17319 14.638 9.3943C14.5013 9.61541 14.2599 9.75 14 9.75H10C9.74007 9.75 9.49867 9.61541 9.36201 9.3943C9.22536 9.17319 9.21293 8.89708 9.32918 8.66459L11.3292 4.66459C11.4562 4.4105 11.7159 4.25 12 4.25ZM12.7865 8.25L12 6.67705L11.2135 8.25H12.7865Z" fill="#343A3D"/>
<path d="M17.5304 14.4697C17.3897 14.329 17.1989 14.25 17 14.25C16.8011 14.25 16.6104 14.329 16.4697 14.4697L14.4697 16.4697C14.2414 16.6979 14.1848 17.0467 14.3292 17.3354L15.3292 19.3354C15.4562 19.5895 15.7159 19.75 16 19.75H18C18.2841 19.75 18.5438 19.5895 18.6708 19.3354L19.6708 17.3354C19.8152 17.0467 19.7586 16.6979 19.5304 16.4697L17.5304 14.4697ZM16.4635 18.25L15.9126 17.1481L17 16.0607L18.0875 17.1481L17.5365 18.25H16.4635Z" fill="#343A3D"/>
<path d="M8.56811 1C8.31573 0.999973 8.06993 0.999943 7.86178 1.01695C7.63318 1.03563 7.36345 1.07969 7.09202 1.21799C6.7157 1.40974 6.40974 1.7157 6.21799 2.09202C6.07969 2.36345 6.03563 2.63318 6.01695 2.86178C5.99994 3.06992 5.99997 3.3157 6 3.56807V10.4319C5.99998 10.6304 5.99996 10.8248 6.00822 11L3.56811 11C3.31572 11 3.06993 10.9999 2.86178 11.017C2.63318 11.0356 2.36345 11.0797 2.09202 11.218C1.7157 11.4097 1.40974 11.7157 1.21799 12.092C1.07969 12.3634 1.03563 12.6332 1.01695 12.8618C0.999943 13.0699 0.999973 13.3157 1 13.5681L1 20.4319C0.999973 20.6843 0.999943 20.9301 1.01695 21.1382C1.03563 21.3668 1.07969 21.6366 1.21799 21.908C1.40974 22.2843 1.7157 22.5903 2.09202 22.782C2.36345 22.9203 2.63318 22.9644 2.86178 22.9831C3.06994 23.0001 3.31574 23 3.56812 23H20.4319C20.6843 23 20.9301 23.0001 21.1382 22.9831C21.3668 22.9644 21.6366 22.9203 21.908 22.782C22.2843 22.5903 22.5903 22.2843 22.782 21.908C22.9203 21.6366 22.9644 21.3668 22.9831 21.1382C23.0001 20.9301 23 20.6843 23 20.4319V13.5681C23 13.3157 23.0001 13.0699 22.9831 12.8618C22.9644 12.6332 22.9203 12.3634 22.782 12.092C22.5903 11.7157 22.2843 11.4097 21.908 11.218C21.6366 11.0797 21.3668 11.0356 21.1382 11.017C20.9301 10.9999 20.6843 11 20.4319 11L17.9918 11C18.0001 10.8248 18 10.6304 18 10.4319V3.56812C18 3.31574 18.0001 3.06994 17.9831 2.86178C17.9644 2.63318 17.9203 2.36345 17.782 2.09202C17.5903 1.7157 17.2843 1.40974 16.908 1.21799C16.6366 1.07969 16.3668 1.03563 16.1382 1.01695C15.9301 0.999943 15.6843 0.999973 15.4319 1L8.56811 1ZM11 13V21H3.60001C3.30348 21 3.14122 20.9992 3.02464 20.9897L3.01145 20.9886L3.01031 20.9754C3.00078 20.8588 3.00001 20.6965 3.00001 20.4V13.6C3.00001 13.3035 3.00078 13.1412 3.01031 13.0246L3.01145 13.0115L3.02464 13.0103C3.14122 13.0008 3.30348 13 3.60001 13H11ZM8.60001 11C8.30348 11 8.14122 10.9992 8.02464 10.9897L8.01145 10.9886L8.01031 10.9754C8.00078 10.8588 8.00001 10.6965 8.00001 10.4V3.60001C8.00001 3.30348 8.00078 3.14122 8.01031 3.02464L8.01145 3.01145L8.02464 3.01031C8.14122 3.00078 8.30348 3.00001 8.60001 3.00001H15.4C15.6965 3.00001 15.8588 3.00078 15.9754 3.01031L15.9886 3.01145L15.9897 3.02464C15.9992 3.14122 16 3.30348 16 3.60001V10.4C16 10.6965 15.9992 10.8588 15.9897 10.9754L15.9886 10.9886L15.9754 10.9897C15.8608 10.9991 15.7023 11 15.4156 11L8.60001 11ZM20.4 21H13L13 13L20.4 13C20.6965 13 20.8588 13.0008 20.9754 13.0103L20.9886 13.0115L20.9897 13.0246C20.9992 13.1412 21 13.3035 21 13.6V20.4C21 20.6965 20.9992 20.8588 20.9897 20.9754L20.9886 20.9886L20.9754 20.9897C20.8588 20.9992 20.6965 21 20.4 21Z" fill="#343A3D"/>
</svg>
