<svg width="24" height="24" viewBox="0 0 24 24" fill="none" xmlns="http://www.w3.org/2000/svg">
<path fill-rule="evenodd" clip-rule="evenodd" d="M4.06194 10.9997C5.89537 10.9813 7.64963 10.245 8.94731 8.94731C10.245 7.64963 10.9813 5.89537 10.9997 4.06194C7.38121 4.51331 4.51331 7.38121 4.06194 10.9997ZM12.9997 4.06186C12.9813 6.42579 12.0343 8.68877 10.3615 10.3615C8.68877 12.0343 6.4258 12.9813 4.06186 12.9997C4.51301 16.6187 7.38134 19.487 11.0003 19.9381C11.0187 17.5742 11.9657 15.3112 13.6385 13.6385C15.3112 11.9657 17.5742 11.0187 19.9381 11.0003C19.487 7.38134 16.6187 4.51301 12.9997 4.06186ZM19.9381 13.0003C18.1046 13.0187 16.3504 13.755 15.0527 15.0527C13.755 16.3504 13.0187 18.1046 13.0003 19.9381C16.6188 19.4867 19.4867 16.6188 19.9381 13.0003ZM2 12C2 6.47715 6.47715 2 12 2C17.5228 2 22 6.47715 22 12C22 17.5228 17.5228 22 12 22C6.47715 22 2 17.5228 2 12Z" fill="#343A3D"/>
</svg>
