<svg width="24" height="24" viewBox="0 0 24 24" fill="none" xmlns="http://www.w3.org/2000/svg">
<path d="M5.25578 6C5.3714 5.72871 5.5387 5.42741 5.78087 5.12469C6.54465 4.16997 8.22071 3 12 3C15.7793 3 17.4554 4.16997 18.2191 5.12469C18.4613 5.42741 18.6286 5.72871 18.7442 6H5.25578ZM21 6.99838L21 6.99279C20.9996 6.95871 20.9984 6.92462 20.9966 6.89059C20.9937 6.83513 20.9882 6.76127 20.9779 6.67161C20.9574 6.4926 20.9179 6.24857 20.8412 5.96109C20.688 5.38627 20.3837 4.6289 19.7809 3.8753C18.5446 2.33003 16.2207 1 12 1C7.77929 1 5.45535 2.33003 4.21913 3.8753C3.61626 4.6289 3.31205 5.38627 3.15877 5.96109C3.0821 6.24857 3.04255 6.4926 3.02209 6.67161C3.00977 6.77946 3.00052 6.88801 3.00001 6.99663L3 6.99838C3 7.00066 3.00001 6.99663 3 7C3 7.55228 3.44772 8 4 8H11V13H6C5.44772 13 5 13.4477 5 14C5 14.5523 5.44772 15 6 15H11V22C11 22.5523 11.4477 23 12 23C12.5523 23 13 22.5523 13 22V15H18C18.5523 15 19 14.5523 19 14C19 13.4477 18.5523 13 18 13H13V8H20C20.5523 8 21 7.55228 21 7C21 6.99279 21 6.99838 21 6.99838ZM2 9C2.55229 9 3 9.44772 3 10L3 16H6C7.10457 16 8 16.8954 8 18V22C8 22.5523 7.55228 23 7 23C6.44772 23 6 22.5523 6 22V18H3V22C3 22.5523 2.55228 23 2 23C1.44772 23 1 22.5523 1 22L1 10C1 9.44772 1.44772 9 2 9ZM22 9C22.5523 9 23 9.44772 23 10V22C23 22.5523 22.5523 23 22 23C21.4477 23 21 22.5523 21 22V18H18V22C18 22.5523 17.5523 23 17 23C16.4477 23 16 22.5523 16 22V18C16 16.8954 16.8954 16 18 16H21V10C21 9.44772 21.4477 9 22 9Z" fill="#343A3D"/>
</svg>
