<svg width="25" height="24" viewBox="0 0 25 24" fill="none" xmlns="http://www.w3.org/2000/svg">
<path d="M18.3318 22C19.7084 22 20.9084 21.0631 21.2422 19.7276L23.2422 11.7276C23.7156 9.83416 22.2835 8 20.3318 8H16.0738L16.5249 5.29388C16.8122 3.56962 15.4826 2 13.7345 2C12.9087 2 12.1241 2.36085 11.5867 2.98785L7.39877 7.87378C7.34671 7.80477 7.28953 7.73813 7.22679 7.67426C6.68503 7.1227 5.94915 7 5.29337 7L3.93331 7C3.27754 7 2.54166 7.1227 1.99989 7.67426C1.46372 8.22014 1.33331 8.96782 1.33331 9.67647V18.3235C1.33331 19.0322 1.46372 19.7799 1.99989 20.3257C2.54165 20.8773 3.27754 21 3.93331 21H5.29337C5.94915 21 6.68503 20.8773 7.22679 20.3257C7.42895 20.1199 7.57342 19.8854 7.67497 19.6351L10.9039 21.5725C11.3701 21.8522 11.9036 22 12.4473 22H18.3318ZM5.89337 16.8686V18.3235C5.89337 18.7738 5.81326 18.9053 5.80013 18.9237C5.77985 18.9375 5.6644 19 5.29337 19H3.93331C3.56228 19 3.44684 18.9375 3.42655 18.9237C3.41343 18.9053 3.33331 18.7738 3.33331 18.3235L3.33331 9.67647C3.33331 9.22619 3.41343 9.0947 3.42655 9.07633C3.44684 9.06253 3.56229 9 3.93331 9L5.29337 9C5.6644 9 5.77985 9.06253 5.80013 9.07633C5.81326 9.09471 5.89337 9.2262 5.89337 9.67647V10.7376L5.89337 10.7398V16.8686ZM7.89337 16.8676V10.7398C7.89337 10.5011 7.97876 10.2703 8.13412 10.0891L13.1052 4.28943C13.2627 4.10573 13.4926 4 13.7345 4C14.2467 4 14.6363 4.45989 14.5521 4.96509L14.101 7.6712C13.8979 8.89027 14.838 10 16.0738 10H20.3318C20.9824 10 21.4597 10.6114 21.302 11.2425L19.302 19.2425C19.1907 19.6877 18.7907 20 18.3318 20H12.4473C12.2661 20 12.0883 19.9507 11.9328 19.8575L8.37888 17.7251C8.07767 17.5444 7.89337 17.2189 7.89337 16.8676Z" fill="#343A3D"/>
</svg>
