<svg width="25" height="24" viewBox="0 0 25 24" fill="none" xmlns="http://www.w3.org/2000/svg">
<path d="M3.42436 4.27239C3.75824 2.93689 4.95819 2 6.33479 2H12.2193C12.763 2 13.2965 2.14777 13.7628 2.42752L16.9916 4.36485C17.0932 4.11457 17.2377 3.88008 17.4398 3.67426C17.9816 3.1227 18.7175 3 19.3732 3L20.7333 3C21.3891 3 22.125 3.1227 22.6667 3.67426C23.2029 4.22014 23.3333 4.96782 23.3333 5.67647L23.3333 14.3235C23.3333 15.0322 23.2029 15.7799 22.6667 16.3257C22.125 16.8773 21.3891 17 20.7333 17H19.3732C18.7175 17 17.9816 16.8773 17.4398 16.3257C17.3771 16.2619 17.3199 16.1952 17.2678 16.1262L13.0799 21.0121C12.5425 21.6391 11.7579 22 10.9321 22C9.18405 22 7.85438 20.4304 8.14176 18.7061L8.59278 16H4.33479C2.38308 16 0.951003 14.1658 1.42436 12.2724L3.42436 4.27239Z" fill="#343A3D"/>
</svg>
