<svg width="25" height="24" viewBox="0 0 25 24" fill="none" xmlns="http://www.w3.org/2000/svg">
<path d="M21.2422 19.7276C20.9084 21.0631 19.7084 22 18.3318 22H12.4473C11.9036 22 11.3701 21.8522 10.9039 21.5725L7.67497 19.6351C7.57342 19.8854 7.42895 20.1199 7.22679 20.3257C6.68503 20.8773 5.94915 21 5.29337 21H3.93331C3.27754 21 2.54165 20.8773 1.99989 20.3257C1.46372 19.7799 1.33331 19.0322 1.33331 18.3235V9.67647C1.33331 8.96782 1.46372 8.22014 1.99989 7.67426C2.54166 7.1227 3.27754 7 3.93331 7L5.29337 7C5.94915 7 6.68503 7.1227 7.22679 7.67426C7.28583 7.73436 7.33994 7.79691 7.3895 7.86159C7.39372 7.86433 7.39792 7.86709 7.40212 7.86987L11.5867 2.98785C12.1241 2.36085 12.9087 2 13.7345 2C15.4826 2 16.8122 3.56962 16.5249 5.29388L16.0738 8H20.3318C22.2835 8 23.7156 9.83416 23.2422 11.7276L21.2422 19.7276Z" fill="#343A3D"/>
</svg>
