<svg width="25" height="24" viewBox="0 0 25 24" fill="none" xmlns="http://www.w3.org/2000/svg">
<path d="M6.33479 2C4.95819 2 3.75824 2.93689 3.42436 4.27239L1.42436 12.2724C0.951003 14.1658 2.38308 16 4.33479 16H8.59278L8.14176 18.7061C7.85438 20.4304 9.18405 22 10.9321 22C11.7579 22 12.5425 21.6391 13.0799 21.0121L17.2678 16.1262C17.3199 16.1952 17.3771 16.2619 17.4398 16.3257C17.9816 16.8773 18.7175 17 19.3732 17H20.7333C21.3891 17 22.125 16.8773 22.6667 16.3257C23.2029 15.7799 23.3333 15.0322 23.3333 14.3235L23.3333 5.67647C23.3333 4.96782 23.2029 4.22014 22.6667 3.67426C22.125 3.1227 21.3891 3 20.7333 3L19.3732 3C18.7175 3 17.9816 3.1227 17.4398 3.67426C17.2377 3.88008 17.0932 4.11457 16.9916 4.36485L13.7628 2.42752C13.2965 2.14777 12.763 2 12.2193 2H6.33479ZM16.7732 7.13238V13.2602C16.7732 13.4989 16.6878 13.7297 16.5325 13.9109L11.5614 19.7106C11.4039 19.8943 11.1741 20 10.9321 20C10.4199 20 10.0303 19.5401 10.1145 19.0349L10.5656 16.3288C10.7687 15.1097 9.82866 14 8.59278 14H4.33479C3.68422 14 3.20686 13.3886 3.36465 12.7575L5.36465 4.75746C5.47594 4.3123 5.87592 4 6.33479 4H12.2193C12.4005 4 12.5784 4.04926 12.7338 4.14251L16.2877 6.27489C16.5889 6.45561 16.7732 6.78112 16.7732 7.13238ZM18.7732 14.3235L18.7732 5.67647C18.7732 5.22619 18.8534 5.0947 18.8665 5.07633C18.8868 5.06253 19.0022 5 19.3732 5H20.7333C21.1043 5 21.2198 5.06253 21.2401 5.07633C21.2532 5.09471 21.3333 5.2262 21.3333 5.67647L21.3333 14.3235C21.3333 14.7738 21.2532 14.9053 21.2401 14.9237C21.2198 14.9375 21.1043 15 20.7333 15H19.3732C19.0022 15 18.8868 14.9375 18.8665 14.9237C18.8534 14.9053 18.7732 14.7738 18.7732 14.3235Z" fill="#343A3D"/>
</svg>
