<svg width="24" height="24" viewBox="0 0 24 24" fill="none" xmlns="http://www.w3.org/2000/svg">
<path fill-rule="evenodd" clip-rule="evenodd" d="M11 5V6.00006C11 6.55235 10.5523 7.00006 10 7.00006C9.44772 7.00006 9 6.55235 9 6.00006V5C9 5 9.48794 5 10 5C10.3857 5 10.7852 5 11 5ZM10 9.00006C10.5523 9.00006 11 9.44778 11 10.0001V14.0001C11 14.5523 10.5523 15.0001 10 15.0001C9.44772 15.0001 9 14.5523 9 14.0001L9 10.0001C9 9.44778 9.44772 9.00006 10 9.00006ZM11 18.0001V19C10 19 10.5 19 9 19V18.0001C9 16.7104 11 16.7104 11 18.0001Z" fill="#343A3D"/>
<path fill-rule="evenodd" clip-rule="evenodd" d="M2 6C2 4.34315 3.34315 3 5 3H19C20.6569 3 22 4.34315 22 6V9.22045C22 9.8719 21.6211 10.3379 21.2549 10.599C20.8916 10.858 20.4382 11.0001 20 11.0001C19.4477 11.0001 19 11.4478 19 12.0001C19 12.5523 19.4477 13.0001 20 13.0001C20.4382 13.0001 20.8916 13.1422 21.2549 13.4011C21.6211 13.6622 22 14.1282 22 14.7797V18C22 19.6569 20.6569 21 19 21H5C3.34315 21 2 19.6569 2 18V14.7797C2 14.1282 2.37887 13.6622 2.74511 13.4011C3.1084 13.1422 3.56178 13.0001 4 13.0001C4.55228 13.0001 5 12.5523 5 12.0001C5 11.4478 4.55228 11.0001 4 11.0001C3.56178 11.0001 3.1084 10.858 2.74511 10.599C2.37887 10.3379 2 9.8719 2 9.22044V6ZM5 5C4.44772 5 4 5.44772 4 6V9.00006C5.65685 9.00006 7 10.3432 7 12.0001C7 13.6569 5.65685 15.0001 4 15.0001V18C4 18.5523 4.44772 19 5 19H19C19.5523 19 20 18.5523 20 18V15.0001C18.3431 15.0001 17 13.6569 17 12.0001C17 10.3432 18.3431 9.00006 20 9.00006V6C20 5.44772 19.5523 5 19 5H10H5Z" fill="#343A3D"/>
</svg>
