<svg width="24px" height="24px" viewBox="0 0 24 24" version="1.1" xmlns="http://www.w3.org/2000/svg" xmlns:xlink="http://www.w3.org/1999/xlink">
    <g id="Utilidades" stroke="none" stroke-width="1" fill="none" fill-rule="evenodd">
        <g id="Icons" transform="translate(-156.000000, -4051.000000)" fill="#343A3D" fill-rule="nonzero">
            <g id="Group-20" transform="translate(156.000000, 4051.000000)">
                <path d="M9,6 L6.52079771,6 C6.24465533,6 6.02079771,5.77614237 6.02079771,5.5 C6.02079771,5.22385763 6.24465533,5 6.52079771,5 L21.5000018,5 C21.7761442,5 22.0000018,5.22385763 22.0000018,5.5 L22.0000018,9.50003329 C22.0000018,9.78551291 21.7613767,10.0130457 21.4762202,9.9994674 C19.8891938,9.92389779 19.0038781,10.7364871 19.0038781,12.0000333 C19.0038781,13.2635795 19.8891938,14.0761688 21.4762202,14.0005992 C21.7613767,13.9870208 22.0000018,14.2145537 22.0000018,14.5000333 L22.0000018,18.5000505 C22.0000018,18.7761929 21.7761442,19.0000505 21.5000018,19.0000505 L2.5,19.0000505 C2.22385754,19.0000505 1.99999988,18.7761928 2,18.5000503 L2.00000178,14.4910893 C2.00000191,14.2135154 2.2260985,13.9890693 2.50366503,13.991103 C4.11020302,14.0028736 5.01673834,13.1791807 5.01673834,12.0000333 C5.01673834,10.8218168 4.11161662,10.0033996 2.50586948,10.0222449 C2.22745207,10.0255125 2.00000195,9.80071626 2.00000178,9.52227967 L2,6.5000003 C1.99999984,6.22385792 2.22385733,6.00000016 2.4999997,6 C2.77614208,5.99999984 2.99999984,6.22385733 3,6.4999997 L3.0000015,9.0408625 C4.85225064,9.20263728 6.01673834,10.3863732 6.01673834,12.0000333 C6.01673834,13.6134188 4.8526062,14.8014102 3.00000157,14.970503 L3.00000022,18.0000505 L9,18.0000505 L9,13.5293095 C9,13.2531672 9.22385763,13.0293095 9.5,13.0293095 C9.77614237,13.0293095 10,13.2531672 10,13.5293095 L10,18 L21.0000018,18.0000505 L21.0000018,14.9969633 C19.1546393,14.8866455 18.0038781,13.6888146 18.0038781,12.0000333 C18.0038781,10.311252 19.1546393,9.11342107 21.0000018,9.00310328 L21.0000018,6 L10,6 L10,8.50203426 C10,8.77817664 9.77614237,9.00203426 9.5,9.00203426 C9.22385763,9.00203426 9,8.77817664 9,8.50203426 L9,6 Z" id="Path"></path>
            </g>
        </g>
    </g>
</svg>