<svg width="24" height="24" viewBox="0 0 24 24" fill="none" xmlns="http://www.w3.org/2000/svg">
<path fill-rule="evenodd" clip-rule="evenodd" d="M1 6C1 4.89543 1.89543 4 3 4H21C22.1046 4 23 4.89543 23 6V9.30771C23 9.58182 22.8875 9.84391 22.6888 10.0327C22.49 10.2215 22.2225 10.3204 21.9488 10.3064C21.1758 10.2668 20.7194 10.4893 20.4559 10.7498C20.1824 11.0201 20.0039 11.4431 20.0039 12C20.0039 12.5569 20.1824 12.9799 20.4559 13.2502C20.7194 13.5107 21.1758 13.7333 21.9488 13.6936C22.2225 13.6796 22.49 13.7785 22.6888 13.9673C22.8875 14.1561 23 14.4182 23 14.6923V18C23 19.1046 22.1046 20 21 20H3C1.89543 20 1 19.1046 1 18V14.6827C1 14.4161 1.10644 14.1605 1.29569 13.9728C1.48494 13.785 1.74132 13.6806 2.00789 13.6827C2.79859 13.6889 3.28174 13.4499 3.56317 13.1745C3.84925 12.8946 4.01674 12.49 4.01674 12C4.01674 11.51 3.84929 11.1077 3.56491 10.8307C3.28518 10.5584 2.80351 10.3216 2.01264 10.3316C1.74525 10.335 1.48765 10.2311 1.29738 10.0432C1.1071 9.85534 1 9.59908 1 9.33167V6ZM8 6H3L3 8.41581C3.77923 8.5623 4.44538 8.89656 4.9602 9.39786C5.6814 10.1001 6.01674 11.0447 6.01674 12C6.01674 12.9554 5.68144 13.9 4.96194 14.604C4.44733 15.1076 3.7807 15.445 3 15.5947L3 18H8V14.0293C8 13.477 8.44772 13.0293 9 13.0293C9.55229 13.0293 10 13.477 10 14.0293V18H21V15.6358C20.2283 15.5071 19.5641 15.1809 19.0499 14.6726C18.3247 13.9558 18.0039 12.9814 18.0039 12C18.0039 11.0186 18.3247 10.0442 19.0499 9.32738C19.5641 8.8191 20.2283 8.49294 21 8.36427V6L10 6V8.00203C10 8.55432 9.55229 9.00203 9 9.00203C8.44772 9.00203 8 8.55432 8 8.00203V6Z" fill="#343A3D"/>
</svg>
