<svg width="25" height="24" viewBox="0 0 25 24" fill="none" xmlns="http://www.w3.org/2000/svg">
<path d="M12.8333 7C12.8333 6.44772 12.3855 6 11.8333 6C11.281 6 10.8333 6.44772 10.8333 7V12C10.8333 12.3148 10.9814 12.6111 11.2333 12.8L15.2333 15.8C15.6751 16.1314 16.3019 16.0418 16.6333 15.6C16.9646 15.1582 16.8751 14.5314 16.4333 14.2L12.8333 11.5V7Z" fill="#343A3D"/>
<path fill-rule="evenodd" clip-rule="evenodd" d="M12.3333 1C6.26097 1 1.33325 5.92772 1.33325 12C1.33325 18.0723 6.26097 23 12.3333 23C18.4055 23 23.3333 18.0723 23.3333 12C23.3333 5.92772 18.4055 1 12.3333 1ZM3.33325 12C3.33325 7.03228 7.36554 3 12.3333 3C17.301 3 21.3333 7.03228 21.3333 12C21.3333 16.9677 17.301 21 12.3333 21C7.36554 21 3.33325 16.9677 3.33325 12Z" fill="#343A3D"/>
</svg>
