<svg width="24" height="24" viewBox="0 0 24 24" fill="none" xmlns="http://www.w3.org/2000/svg">
<path d="M10.7369 13.0525C10.7369 13.663 10.2421 14.1578 9.63163 14.1578C9.02121 14.1578 8.52637 13.663 8.52637 13.0525C8.52637 12.4421 9.02121 11.9473 9.63163 11.9473C10.2421 11.9473 10.7369 12.4421 10.7369 13.0525Z" fill="#343A3D"/>
<path d="M6.31571 14.1578C6.92613 14.1578 7.42098 13.663 7.42098 13.0525C7.42098 12.4421 6.92613 11.9473 6.31571 11.9473C5.70529 11.9473 5.21045 12.4421 5.21045 13.0525C5.21045 13.663 5.70529 14.1578 6.31571 14.1578Z" fill="#343A3D"/>
<path d="M6 8C6 8.03338 6.00082 8.06656 6.00243 8.09953C3.71898 8.56186 2 10.5802 2 13V20C2 21.1046 2.89543 22 4 22H5C5 22.5523 5.44772 23 6 23C6.55228 23 7 22.5523 7 22H17C17 22.5523 17.4477 23 18 23C18.5523 23 19 22.5523 19 22H20C21.1046 22 22 21.1046 22 20V18.4736C22.5523 18.4736 23 18.0259 23 17.4736C23 16.9214 22.5523 16.4736 22 16.4736V13C22 10.5802 20.281 8.56186 17.9976 8.09953C17.9992 8.06656 18 8.03338 18 8V6.91465C18.5826 6.70873 19 6.15311 19 5.5V4.37586C19 3.09308 18.0726 1.99831 16.8073 1.78742L15.4524 1.56161C13.1666 1.18064 10.8334 1.18064 8.54762 1.56161L7.19274 1.78742C5.92741 1.99831 5 3.09308 5 4.37586V5.5C5 6.15311 5.4174 6.70873 6 6.91465V8ZM20 13V20H4V13C4 11.3431 5.34315 10 7 10H17C18.6569 10 20 11.3431 20 13ZM16 8H8V6.5C8 5.84689 7.5826 5.29128 7 5.08536V4.37586C7 4.07075 7.22058 3.81037 7.52154 3.76021L8.87642 3.53439C10.9445 3.18971 13.0555 3.18971 15.1236 3.53439L16.4785 3.76021C16.7794 3.81037 17 4.07075 17 4.37586V5.08536C16.4174 5.29128 16 5.84689 16 6.5V8Z" fill="#343A3D"/>
</svg>
