<svg width="24" height="24" viewBox="0 0 24 24" fill="none" xmlns="http://www.w3.org/2000/svg">
<path d="M6 12C6.55228 12 7 11.5523 7 11C7 10.4477 6.55228 10 6 10C5.44772 10 5 10.4477 5 11C5 11.5523 5.44772 12 6 12Z" fill="#343A3D"/>
<path d="M4.05393 5.66729C4.7092 4.43864 5.44454 4 6 4C6.18239 4 6.38418 4.0473 6.59616 4.15433C6.83181 4.30272 7.15053 4.55048 7.47807 4.94821C7.53185 5.01352 7.58633 5.08344 7.64108 5.15825C7.744 5.31033 7.84597 5.47959 7.94607 5.66729C8.57843 6.85296 9 8.55984 9 10.5C9 12.4402 8.57843 14.147 7.94607 15.3327C7.2908 16.5614 6.55546 17 6 17C5.44454 17 4.7092 16.5614 4.05393 15.3327C3.42157 14.147 3 12.4402 3 10.5C3 8.55984 3.42157 6.85296 4.05393 5.66729ZM6.32188 2.01588C6.21629 2.00539 6.10899 2 6 2C4.34633 2 3.08166 3.24029 2.28922 4.72611C1.47386 6.2549 1 8.29802 1 10.5C1 12.702 1.47386 14.7451 2.28922 16.2739C3.08166 17.7597 4.34633 19 6 19C7.22459 19 8.23585 18.3199 9 17.3635V20C9 21.1046 9.89543 22 11 22H21C22.1046 22 23 21.1046 23 20V9C23 5.13426 19.8674 2 16.0012 2H6.5C6.43933 2 6.3798 2.00544 6.32188 2.01588ZM11 12H12C12.5523 12 13 11.5523 13 11C13 10.4477 12.5523 10 12 10H10.9933C10.915 7.12092 10.1628 5.22769 9.2718 4H16.0012C18.7623 4 21 6.23832 21 9V10H19.5C18.9477 10 18.5 10.4477 18.5 11C18.5 11.5523 18.9477 12 19.5 12H21V20H11V12ZM14 11C14 10.4477 14.4477 10 15 10H16.5C17.0523 10 17.5 10.4477 17.5 11C17.5 11.5523 17.0523 12 16.5 12H15C14.4477 12 14 11.5523 14 11Z" fill="#343A3D"/>
</svg>
