<svg width="24" height="24" viewBox="0 0 24 24" fill="none" xmlns="http://www.w3.org/2000/svg">
<path d="M5 4H19C19.5523 4 20 4.44772 20 5V19C20 19.5523 19.5523 20 19 20H9C8.44771 20 8 19.5523 8 19V17H15C16.6569 17 18 15.6569 18 14V6C18 5.44772 17.5523 5 17 5C16.4477 5 16 5.44772 16 6V10H4V5C4 4.44772 4.44772 4 5 4ZM6 17V19C6 20.6569 7.34315 22 9 22H19C20.6569 22 22 20.6569 22 19V5C22 3.34315 20.6569 2 19 2H5C3.34315 2 2 3.34315 2 5V14C2 15.6569 3.34315 17 5 17H6ZM4 12H16V14C16 14.5523 15.5523 15 15 15H5C4.44772 15 4 14.5523 4 14V12Z" fill="#343A3D"/>
</svg>
