<svg width="24" height="24" viewBox="0 0 24 24" fill="none" xmlns="http://www.w3.org/2000/svg">
<path d="M14.4998 1.37845C14.7774 1.13243 15.1344 1 15.5 1C15.8656 1 16.2226 1.13243 16.5002 1.37845L16.5018 1.37982L21.4993 5.79103L21.5135 5.80384C21.6619 5.94 21.7825 6.10524 21.8667 6.29072C21.9509 6.47628 21.9965 6.67749 21.9999 6.88227L22 6.89892V9.5C22 10.0523 21.5523 10.5 21 10.5C20.4477 10.5 20 10.0523 20 9.5V7.13534L15.5 3.16327L11 7.13534V13C11 13.0974 10.9861 13.1916 10.9601 13.2807L12.5489 14.8233L12.5626 14.8368C12.7023 14.9778 12.8106 15.1436 12.8845 15.3226C12.9583 15.5015 12.997 15.6922 12.9999 15.8838L13 15.8989V21L17 21V19.8843C14.2621 19.2326 12.8241 15.9612 14.4962 13.453L16.9738 9.73661C17.462 9.0043 18.5381 9.0043 19.0263 9.73661L21.5039 13.453C23.1761 15.9613 21.7379 19.2326 19 19.8843V21L22 21C22.5523 21 23 21.4477 23 22C23 22.5523 22.5523 23 22 23H12.0014L12 23H2C1.44772 23 1 22.5523 1 22V15.8989L1.00011 15.8838C1.00302 15.6922 1.04172 15.5015 1.11553 15.3226C1.18936 15.1436 1.29774 14.9778 1.43744 14.8368L1.45112 14.8233L5.99569 10.4107C6.25957 10.1535 6.6168 10 7 10C7.38323 10 7.74049 10.1536 8.00437 10.4108L8.00583 10.4122L9 11.3775V6.89892L9.00014 6.88227C9.00355 6.67749 9.04914 6.47628 9.13332 6.29072C9.21747 6.10524 9.33807 5.94 9.48651 5.80384L9.50074 5.79103L14.4982 1.37982L14.4998 1.37845ZM11 21V16.1071L7 12.2232L3 16.1071V21H4V17.625C4 17.1724 4.19236 16.7525 4.51132 16.4535C4.8281 16.1565 5.24472 16 5.66667 16H8.33333C8.75528 16 9.1719 16.1565 9.48868 16.4535C9.80764 16.7526 10 17.1724 10 17.625V21H11ZM6 18V21H8V18H6ZM19 17.7656C20.117 17.2008 20.6151 15.7254 19.8398 14.5624L18 11.8028L16.1603 14.5624C15.385 15.7253 15.8831 17.2007 17 17.7655V15C17 14.4477 17.4477 14 18 14C18.5523 14 19 14.4477 19 15V17.7656Z" fill="#343A3D"/>
<path d="M13 8C12.4477 8 12 8.44772 12 9C12 9.55229 12.4477 10 13 10H15C15.5523 10 16 9.55229 16 9C16 8.44772 15.5523 8 15 8H13Z" fill="#343A3D"/>
</svg>
