<svg width="24" height="24" viewBox="0 0 24 24" fill="none" xmlns="http://www.w3.org/2000/svg">
<path d="M7 4C7 2.34315 8.34315 1 10 1H14C15.6569 1 17 2.34315 17 4V5.96928L17.2428 6.02997C17.7786 6.16392 18.1043 6.70685 17.9704 7.24265C17.8567 7.69736 17.4485 8.00079 17 8.00034C16.9997 10.7616 14.7613 12.9999 12 12.9999C9.23873 12.9999 7.00025 10.7616 7 8.00035C6.55173 8.00058 6.14373 7.6972 6.03009 7.24265C5.89615 6.70685 6.22191 6.16392 6.7577 6.02997L7 5.96939V4ZM9.03778 7.5215C9.01295 7.67691 9 7.83665 9 7.99988C9 9.65673 10.3431 10.9999 12 10.9999C13.6569 10.9999 15 9.65673 15 7.99988C15 7.8366 14.987 7.67683 14.9622 7.52138L13.9405 7.26596C12.6666 6.94748 11.3339 6.94748 10.06 7.26596L9.03778 7.5215ZM15 5.46928V4C15 3.44772 14.5523 3 14 3H10C9.44772 3 9 3.44772 9 4V5.46939L9.57488 5.32567C11.1673 4.92757 12.8332 4.92757 14.4256 5.32567L15 5.46928Z" fill="#444444"/>
<path d="M14 18C13.4477 18 13 18.4477 13 19C13 19.5523 13.4477 20 14 20H16C16.5523 20 17 19.5523 17 19C17 18.4477 16.5523 18 16 18H14Z" fill="#444444"/>
<path d="M2 22C2 17.3624 6.7256 14 12 14C17.2744 14 22 17.3624 22 22C22 22.5523 21.5523 23 21 23H3C2.44772 23 2 22.5523 2 22ZM19.8842 21C19.2587 18.3076 16.1589 16 12 16C7.84112 16 4.74126 18.3076 4.11584 21H19.8842Z" fill="#444444"/>
</svg>
