<svg width="24" height="24" viewBox="0 0 24 24" fill="none" xmlns="http://www.w3.org/2000/svg">
<path d="M7.62553 1H16.3745C16.9799 0.999985 17.4934 0.999972 17.9146 1.03345C18.356 1.06855 18.7835 1.1452 19.1923 1.34788C19.8105 1.65439 20.3174 2.14566 20.6365 2.75505C20.8488 3.16047 20.9289 3.58477 20.9654 4.01922C21 4.4318 21 4.93384 21 5.52116V15.1486C21 15.7359 21 16.2379 20.9654 16.6505C20.9289 17.085 20.8488 17.5093 20.6365 17.9147C20.3174 18.5241 19.8105 19.0153 19.1923 19.3218C18.7835 19.5245 18.356 19.6012 17.9146 19.6363C17.9027 19.6372 17.8907 19.6381 17.8786 19.639L19.554 21.2693C19.9545 21.6589 19.9617 22.2978 19.5701 22.6964C19.1786 23.0949 18.5366 23.102 18.1361 22.7124L15.0091 19.6697H8.99086L5.8639 22.7124C5.46345 23.102 4.8214 23.0949 4.42985 22.6964C4.0383 22.2978 4.04552 21.6589 4.44597 21.2693L6.12136 19.639C6.10931 19.6381 6.09733 19.6372 6.08542 19.6363C5.64401 19.6012 5.2165 19.5245 4.8077 19.3218C4.18947 19.0153 3.68257 18.5241 3.36347 17.9147C3.15118 17.5093 3.07109 17.085 3.03461 16.6505C2.99997 16.2379 2.99998 15.7359 3 15.1486V5.52112C2.99998 4.93382 2.99997 4.43179 3.03461 4.01922C3.07109 3.58477 3.15118 3.16047 3.36347 2.75505C3.68257 2.14566 4.18947 1.65439 4.8077 1.34788C5.2165 1.1452 5.64401 1.06855 6.08542 1.03345C6.50658 0.999972 7.02005 0.999985 7.62553 1ZM5.02817 11.8991V15.1083C5.02817 15.747 5.02899 16.164 5.05573 16.4824C5.08143 16.7884 5.12569 16.9124 5.16208 16.9819C5.28048 17.2081 5.4717 17.3961 5.71212 17.5153C5.79141 17.5546 5.9274 17.5989 6.24694 17.6243C6.57766 17.6506 7.00949 17.6514 7.66479 17.6514H16.3352C16.9905 17.6514 17.4223 17.6506 17.7531 17.6243C18.0726 17.5989 18.2086 17.5546 18.2879 17.5153C18.5283 17.3961 18.7195 17.2081 18.8379 16.9819C18.8743 16.9124 18.9186 16.7884 18.9443 16.4824C18.971 16.164 18.9718 15.747 18.9718 15.1083V11.8991H5.02817ZM10.9859 9.88073V3.11927C10.9859 3.08521 10.9876 3.05154 10.9909 3.01835H7.66479C7.00949 3.01835 6.57766 3.0191 6.24694 3.04539C5.9274 3.0708 5.79141 3.11513 5.71212 3.15444C5.4717 3.27364 5.28048 3.46167 5.16208 3.68778C5.12569 3.75728 5.08143 3.8813 5.05573 4.18729C5.02899 4.50575 5.02817 4.92273 5.02817 5.56147V9.88073H10.9859ZM13.0141 9.88073H18.9718V5.56147C18.9718 4.92273 18.971 4.50575 18.9443 4.18729C18.9186 3.8813 18.8743 3.75728 18.8379 3.68778C18.7195 3.46167 18.5283 3.27364 18.2879 3.15444C18.2086 3.11513 18.0726 3.0708 17.7531 3.04539C17.4223 3.0191 16.9905 3.01835 16.3352 3.01835H13.0091C13.0124 3.05154 13.0141 3.08521 13.0141 3.11927V9.88073ZM6.42254 15.3303C6.42254 14.7729 6.87656 14.3211 7.43662 14.3211H7.44803C8.00809 14.3211 8.46211 14.7729 8.46211 15.3303C8.46211 15.8876 8.00809 16.3394 7.44803 16.3394H7.43662C6.87656 16.3394 6.42254 15.8876 6.42254 15.3303ZM15.5493 15.3303C15.5493 14.7729 16.0033 14.3211 16.5634 14.3211H16.5748C17.1349 14.3211 17.5889 14.7729 17.5889 15.3303C17.5889 15.8876 17.1349 16.3394 16.5748 16.3394H16.5634C16.0033 16.3394 15.5493 15.8876 15.5493 15.3303Z" fill="#343A3D"/>
</svg>
