<svg width="24" height="24" viewBox="0 0 24 24" fill="none" xmlns="http://www.w3.org/2000/svg">
<path d="M2 4C2 2.89543 2.89543 2 4 2H13C14.1046 2 15 2.89543 15 4V9H20C21.1046 9 22 9.89543 22 11V21C22 21.3464 21.8207 21.6681 21.5262 21.8504C21.2316 22.0326 20.8637 22.0495 20.5537 21.8949L16.9648 20.1051C16.8262 20.036 16.6734 20 16.5185 20H11C9.89543 20 9 19.1046 9 18V14H7.47214C7.31689 14 7.16378 14.0361 7.02492 14.1056L3.44721 15.8944C3.13723 16.0494 2.76909 16.0329 2.47427 15.8507C2.17945 15.6684 2 15.3466 2 15V4ZM11 18H16.5185C16.9832 18 17.4416 18.1079 17.8574 18.3153L20 19.3838V11H11V18ZM13 9V4L4 4V13.382L6.1305 12.3167C6.54706 12.1084 7.0064 12 7.47214 12H9V11C9 9.89543 9.89543 9 11 9H13Z" fill="#343A3D"/>
<path d="M5.4 5.99973C5.40002 5.66836 5.66866 5.39974 6.00003 5.39976L9.9891 5.39995C9.99662 5.39981 10.0042 5.39981 10.0117 5.39995L11 5.4C11.3314 5.40002 11.6 5.66866 11.6 6.00003C11.6 6.3314 11.3313 6.60002 11 6.6L10.3707 6.59997L9.972 7.39743C9.78456 7.7723 9.56214 8.12788 9.30805 8.45955L10.4242 9.57571C10.6585 9.81003 10.6585 10.1899 10.4242 10.4242C10.1899 10.6586 9.81 10.6586 9.57569 10.4242L8.49993 9.34848L7.42417 10.4242C7.18985 10.6586 6.80995 10.6586 6.57564 10.4242C6.34132 10.1899 6.34132 9.81003 6.57564 9.57571L7.6918 8.45955C7.43771 8.12788 7.2153 7.7723 7.02786 7.39743L6.62904 6.59979L5.99997 6.59976C5.6686 6.59974 5.39998 6.3311 5.4 5.99973ZM7.97071 6.59985L8.10117 6.86077C8.21791 7.09424 8.35122 7.31856 8.49993 7.53206C8.64863 7.31856 8.78195 7.09424 8.89868 6.86077L9.02912 6.5999L7.97071 6.59985Z" fill="#343A3D"/>
<path d="M15.5 11.9C15.7273 11.9 15.935 12.0284 16.0367 12.2317L17.5313 15.2209C17.5351 15.2283 17.5389 15.2357 17.5425 15.2433L18.0367 16.2317C18.1849 16.5281 18.0647 16.8885 17.7683 17.0367C17.4719 17.1848 17.1115 17.0647 16.9633 16.7683L16.6292 16.1H14.3708L14.0367 16.7683C13.8885 17.0647 13.5281 17.1848 13.2317 17.0367C12.9353 16.8885 12.8152 16.5281 12.9633 16.2317L13.4575 15.2433C13.4611 15.2357 13.4649 15.2283 13.4687 15.2209L14.9633 12.2317C15.065 12.0284 15.2727 11.9 15.5 11.9ZM14.9708 14.9H16.0292L15.5 13.8416L14.9708 14.9Z" fill="#343A3D"/>
</svg>
