<svg width="25" height="24" viewBox="0 0 25 24" fill="none" xmlns="http://www.w3.org/2000/svg">
<path d="M8.33331 12C8.33331 11.4477 8.78103 11 9.33331 11H15.3333C15.8856 11 16.3333 11.4477 16.3333 12C16.3333 12.5523 15.8856 13 15.3333 13H9.33331C8.78103 13 8.33331 12.5523 8.33331 12Z" fill="#343A3D"/>
<path d="M9.83331 16C9.83331 15.4477 10.281 15 10.8333 15H13.8333C14.3856 15 14.8333 15.4477 14.8333 16C14.8333 16.5523 14.3856 17 13.8333 17H10.8333C10.281 17 9.83331 16.5523 9.83331 16Z" fill="#343A3D"/>
<path d="M18.1141 4.99999L17.6822 3.27239C17.3483 1.93689 16.1484 1 14.7718 1H9.89487C8.51826 1 7.31831 1.93689 6.98444 3.27239L6.55254 4.99999L3.33331 4.99999C2.78103 4.99999 2.33331 5.44771 2.33331 5.99999C2.33331 6.55228 2.78103 6.99999 3.33331 6.99999H4.39386L5.21806 20.1872C5.31688 21.7683 6.62803 23 8.21222 23H16.4544C18.0386 23 19.3498 21.7683 19.4486 20.1872L20.2728 6.99999H21.3333C21.8856 6.99999 22.3333 6.55228 22.3333 5.99999C22.3333 5.44771 21.8856 4.99999 21.3333 4.99999L18.1141 4.99999ZM7.31208 6.99999C7.32678 7.00032 7.34144 7.00032 7.35606 6.99999L17.3106 6.99999C17.3252 7.00032 17.3398 7.00032 17.3545 6.99999H18.2689L17.4525 20.0624C17.4195 20.5894 16.9825 21 16.4544 21H8.21222C7.68415 21 7.2471 20.5894 7.21416 20.0624L6.39776 6.99999H7.31208ZM16.0525 4.99999L8.61409 4.99999L8.92472 3.75746C9.03602 3.3123 9.436 3 9.89487 3H14.7718C15.2306 3 15.6306 3.3123 15.7419 3.75746L16.0525 4.99999Z" fill="#343A3D"/>
</svg>
