<svg width="24" height="24" viewBox="0 0 24 24" fill="none" xmlns="http://www.w3.org/2000/svg">
<path d="M6.34094 10.25H9.25418C9.65642 10.25 9.9825 10.5858 9.9825 11C9.9825 11.4142 9.65642 11.75 9.25418 11.75H6.34094C5.93871 11.75 5.61263 11.4142 5.61263 11C5.61263 10.5858 5.93871 10.25 6.34094 10.25Z" fill="#343A3D"/>
<path d="M1 7C1 5.89543 1.86953 5 2.94216 5H15.5895C16.1744 5 16.7281 5.27139 17.0969 5.73881L22.5652 12.6694C23.1928 13.4649 23.1349 14.6201 22.4311 15.3448L21.1083 16.7071C20.9262 16.8946 20.6792 17 20.4216 17H19.9361C19.8812 17 19.8274 16.9953 19.775 16.9863C19.3788 18.1586 18.2962 19 17.0228 19C15.7544 19 14.6753 18.1652 14.2754 17H9.08842C8.68849 18.1652 7.60939 19 6.34094 19C5.0725 19 3.9934 18.1652 3.59347 17H2.94216C1.86954 17 1 16.1046 1 15V7ZM5.36986 16C5.36986 16.5523 5.80463 17 6.34094 17C6.87726 17 7.31202 16.5523 7.31202 16C7.31202 15.4477 6.87726 15 6.34094 15C5.80463 15 5.36986 15.4477 5.36986 16ZM3.59347 15C3.9934 13.8348 5.0725 13 6.34094 13C7.60939 13 8.68849 13.8348 9.08842 15H11.9247V7L2.94216 7V15H3.59347ZM19.9361 15H20.0194L21.0578 13.9306L19.3373 11.75H13.3813V15H14.2754C14.6753 13.8348 15.7544 13 17.0228 13C18.2962 13 19.3788 13.8414 19.775 15.0137C19.8274 15.0047 19.8812 15 19.9361 15ZM15.5895 7H13.3813V10.25H18.1538L15.5895 7ZM17.0228 15C16.4865 15 16.0517 15.4477 16.0517 16C16.0517 16.5523 16.4865 17 17.0228 17C17.5591 17 17.9939 16.5523 17.9939 16C17.9939 15.4477 17.5591 15 17.0228 15Z" fill="#343A3D"/>
</svg>
