<svg width="24px" height="24px" viewBox="0 0 24 24" version="1.1" xmlns="http://www.w3.org/2000/svg" xmlns:xlink="http://www.w3.org/1999/xlink">
    <g id="Utilidades" stroke="none" stroke-width="1" fill="none" fill-rule="evenodd">
        <g id="Icons" transform="translate(-396.000000, -3972.000000)" fill="#343A3D" fill-rule="nonzero">
            <g id="Group-13" transform="translate(396.000000, 3972.000000)">
                <path d="M19.9665162,11 L19.0004393,11 L13,11.0000002 L13,12.5500002 C13,12.8261426 12.7761424,13.0500002 12.5,13.0500002 C12.2238576,13.0500002 12,12.8261426 12,12.5500002 L12,6.05000019 C12,6.03312515 12.000836,6.01644537 12.0024688,6 L2.4847843,6 C2.20864192,6 1.9847843,5.77614237 1.9847843,5.5 C1.9847843,5.22385763 2.20864192,5 2.4847843,5 L16.0297443,5 C16.1780487,5 16.3187005,5.06583588 16.4136984,5.17972005 L22.6770325,12.691236 C23.2531199,13.2704797 23.2597384,14.2042182 22.6913028,14.7922076 L21.6668338,15.8481627 C21.5631425,15.9550409 21.4233159,16.0056772 21.2853999,15.9994959 C21.2778889,15.9998309 21.2703347,16.0000002 21.262741,16.0000002 L19.949991,16.0000002 C19.7183558,17.1411203 18.709479,18.0000002 17.5,18.0000002 C16.2905211,18.0000002 15.2816442,17.1411203 15.0500091,16.0000002 L8.94999096,16.0000002 C8.71835579,17.1411203 7.70947897,18.0000002 6.50000002,18.0000002 C5.29052106,18.0000002 4.28164424,17.1411203 4.05000907,16.0000002 L1.50000002,16.0000002 C1.22351117,16.0000002 0.999510291,15.7756016 1.0000008,15.4991131 L1.00886759,10.5011558 C1.00935748,10.2250138 1.2336119,10.0015537 1.50975384,10.0020436 C1.78589578,10.0025335 2.00935591,10.2267879 2.00886601,10.5029298 L2.00088784,15.0000002 L4.05000907,15.0000002 C4.28164424,13.85888 5.29052106,13.0000002 6.50000002,13.0000002 C7.70947897,13.0000002 8.71835579,13.85888 8.94999096,15.0000002 L15.0500091,15.0000002 C15.2816442,13.85888 16.2905211,13.0000002 17.5,13.0000002 C18.709479,13.0000002 19.7183558,13.85888 19.949991,15.0000002 L21.0964174,15.0000002 L21.9729591,14.0965197 C22.1622319,13.9007357 22.1600257,13.5894896 21.9385605,13.3641021 L19.9665162,11 Z M15.7957058,6 L12.9975312,6 C12.999164,6.01644537 13,6.03312515 13,6.05000019 L13,10.0000002 L19,10.0000002 C19.0529848,10.0000002 19.1040446,10.0082417 19.1519675,10.0235128 L15.7957058,6 Z M9.50000002,11.0000002 L7.50000002,11.0000002 C7.22385764,11.0000002 7.00000002,10.7761426 7.00000002,10.5000002 C7.00000002,10.2238578 7.22385764,10.0000002 7.50000002,10.0000002 L9.50000002,10.0000002 C9.77614239,10.0000002 10,10.2238578 10,10.5000002 C10,10.7761426 9.77614239,11.0000002 9.50000002,11.0000002 Z M17.5,17.0000002 C18.3284271,17.0000002 19,16.3284273 19,15.5000002 C19,14.6715731 18.3284271,14.0000002 17.5,14.0000002 C16.6715729,14.0000002 16,14.6715731 16,15.5000002 C16,16.3284273 16.6715729,17.0000002 17.5,17.0000002 Z M6.50000002,17.0000002 C7.32842714,17.0000002 8.00000002,16.3284273 8.00000002,15.5000002 C8.00000002,14.6715731 7.32842714,14.0000002 6.50000002,14.0000002 C5.67157289,14.0000002 5.00000002,14.6715731 5.00000002,15.5000002 C5.00000002,16.3284273 5.67157289,17.0000002 6.50000002,17.0000002 Z" id="Shape"></path>
            </g>
        </g>
    </g>
</svg>