<svg width="24" height="24" viewBox="0 0 24 24" fill="none" xmlns="http://www.w3.org/2000/svg">
<path d="M17 4.5V6H20C21.1049 6 22 6.89608 22 8.00028V10.9998C22 11.8883 21.6138 12.6866 21 13.236V19C21 20.6569 19.6569 22 18 22H6C4.34315 22 3 20.6569 3 19V13.2361C2.38625 12.6868 2 11.8885 2 11V8C2 6.89543 2.89543 6 4 6H7V4.5C7 2.84315 8.34315 1.5 10 1.5H14C15.6569 1.5 17 2.84315 17 4.5ZM9 4.5V6H15V4.5C15 3.94772 14.5523 3.5 14 3.5H10C9.44772 3.5 9 3.94772 9 4.5ZM5 14V19C5 19.5523 5.44772 20 6 20H18C18.5523 20 19 19.5523 19 19V14H16V15C16 15.5523 15.5523 16 15 16C14.4477 16 14 15.5523 14 15V14H10V15C10 15.5523 9.55228 16 9 16C8.44772 16 8 15.5523 8 15V14H5ZM19 12C19.5522 12 20 11.5522 20 10.9998V8H4V11C4 11.5523 4.44772 12 5 12H8V11C8 10.4477 8.44772 10 9 10C9.55228 10 10 10.4477 10 11V12H14V11C14 10.4477 14.4477 10 15 10C15.5523 10 16 10.4477 16 11V12H19Z" fill="#343A3D"/>
</svg>
