<svg width="25" height="24" viewBox="0 0 25 24" fill="none" xmlns="http://www.w3.org/2000/svg">
<path d="M6.63607 8.29482C7.02701 7.90471 7.66018 7.9054 8.05028 8.29634L10.3394 10.5904L11.6666 9.28329C11.8556 9.09711 12.1109 8.99369 12.3762 8.99579C12.6415 8.99789 12.8951 9.10534 13.0811 9.29447L16.3333 12.6003V11C16.3333 10.4477 16.781 10 17.3333 10C17.8855 10 18.3333 10.4477 18.3333 11V15C18.3333 15.5523 17.8855 16 17.3333 16H13.3333C12.781 16 12.3333 15.5523 12.3333 15C12.3333 14.4477 12.781 14 13.3333 14H14.9046L12.3571 11.4103L11.035 12.7125C10.6433 13.0982 10.0137 13.0955 9.62538 12.7063L6.63454 9.70903C6.24443 9.31808 6.24512 8.68492 6.63607 8.29482Z" fill="#343A3D"/>
<path fill-rule="evenodd" clip-rule="evenodd" d="M1.33325 4C1.33325 2.34315 2.6764 1 4.33325 1H20.3333C21.9901 1 23.3333 2.34315 23.3333 4V20C23.3333 21.6569 21.9901 23 20.3333 23H4.33325C2.6764 23 1.33325 21.6569 1.33325 20V4ZM4.33325 3C3.78097 3 3.33325 3.44772 3.33325 4V20C3.33325 20.5523 3.78097 21 4.33325 21H20.3333C20.8855 21 21.3333 20.5523 21.3333 20V4C21.3333 3.44772 20.8855 3 20.3333 3H4.33325Z" fill="#343A3D"/>
</svg>
