<svg width="25" height="24" viewBox="0 0 25 24" fill="none" xmlns="http://www.w3.org/2000/svg">
<path d="M6.63582 15.7079C7.02677 16.098 7.65993 16.0973 8.05003 15.7063L10.3391 13.4123L11.6663 14.7194C11.8554 14.9056 12.1106 15.009 12.3759 15.0069C12.6412 15.0048 12.8948 14.8974 13.0809 14.7082L16.333 11.4024V13.0027C16.333 13.555 16.7807 14.0027 17.333 14.0027C17.8853 14.0027 18.333 13.555 18.333 13.0027V9.00269C18.333 8.4504 17.8853 8.00269 17.333 8.00269H13.333C12.7807 8.00269 12.333 8.4504 12.333 9.00269C12.333 9.55497 12.7807 10.0027 13.333 10.0027H14.9044L12.3568 12.5923L11.0347 11.2902C10.643 10.9045 10.0134 10.9072 9.62514 11.2963L6.63429 14.2937C6.24419 14.6846 6.24487 15.3178 6.63582 15.7079Z" fill="#343A3D"/>
<path fill-rule="evenodd" clip-rule="evenodd" d="M1.33301 4C1.33301 2.34315 2.67615 1 4.33301 1H20.333C21.9899 1 23.333 2.34315 23.333 4V20C23.333 21.6569 21.9899 23 20.333 23H4.33301C2.67615 23 1.33301 21.6569 1.33301 20V4ZM4.33301 3C3.78072 3 3.33301 3.44772 3.33301 4V20C3.33301 20.5523 3.78072 21 4.33301 21H20.333C20.8853 21 21.333 20.5523 21.333 20V4C21.333 3.44772 20.8853 3 20.333 3H4.33301Z" fill="#343A3D"/>
</svg>
