<svg width="24" height="24" viewBox="0 0 24 24" fill="none" xmlns="http://www.w3.org/2000/svg">
<path fill-rule="evenodd" clip-rule="evenodd" d="M10 4C9.44772 4 9 4.44772 9 5V7H15V5C15 4.44772 14.5523 4 14 4H10ZM17 7V5C17 3.34315 15.6569 2 14 2H10C8.34315 2 7 3.34315 7 5V7H5C3.34315 7 2 8.34315 2 10V19C2 20.6569 3.34315 22 5 22H19C20.6569 22 22 20.6569 22 19V10C22 8.34315 20.6569 7 19 7H17ZM15 9H9V20H15V9ZM17 20V9H19C19.5523 9 20 9.44772 20 10V19C20 19.5523 19.5523 20 19 20H17ZM7 20V9H5C4.44772 9 4 9.44772 4 10V19C4 19.5523 4.44772 20 5 20H7Z" fill="#343A3D"/>
</svg>
