<svg width="24" height="24" viewBox="0 0 24 24" fill="none" xmlns="http://www.w3.org/2000/svg">
<path d="M13 2C12.4477 2 12 2.44772 12 3V9H4C2.89543 9 2 9.89543 2 11V14C2 16.2091 3.79086 18 6 18H6.5283L5.12669 20.513C4.85767 20.9953 5.03059 21.6044 5.51293 21.8734C5.99526 22.1424 6.60435 21.9695 6.87338 21.4872L8.81836 18H15.1816L17.1266 21.4872C17.3956 21.9695 18.0047 22.1424 18.4871 21.8734C18.9694 21.6044 19.1423 20.9953 18.8733 20.513L17.4717 18H18C20.2091 18 22 16.2091 22 14V10C22 5.46047 17.841 2 13 2ZM20 11V14C20 15.1046 19.1046 16 18 16H6C4.89543 16 4 15.1046 4 14V11H20ZM19.901 9H14V4.05983C17.0822 4.43302 19.4039 6.50667 19.901 9Z" fill="#343A3D"/>
</svg>
