<svg width="24" height="24" viewBox="0 0 24 24" fill="none" xmlns="http://www.w3.org/2000/svg">
<path d="M1.99926 2C1.44739 2 1 2.44772 1 3C1 3.55228 1.44739 4 1.99926 4H3.97886L5.86184 14.6106C5.86701 14.6577 5.87545 14.7037 5.88691 14.7486L6.48977 18.0657C5.95419 18.5879 5.62159 19.3176 5.62159 20.125C5.62159 21.7128 6.90782 23 8.49447 23C10.0811 23 11.3674 21.7128 11.3674 20.125C11.3674 19.8199 11.3199 19.5259 11.2319 19.25H15.8746C15.7866 19.5259 15.7391 19.8199 15.7391 20.125C15.7391 21.7128 17.0254 23 18.612 23C20.1987 23 21.4849 21.7128 21.4849 20.125C21.4849 18.5372 20.1987 17.25 18.612 17.25H8.37284L8.05479 15.5H19.3858C19.9705 15.5014 20.5371 15.2967 20.9861 14.9217C21.435 14.5469 21.7377 14.0258 21.8411 13.4499L21.8415 13.448L22.9838 7.1794C23.037 6.8876 22.9579 6.58723 22.7681 6.35945C22.5782 6.13168 22.2971 6 22.0007 6H6.32822L5.90908 3.4438L5.90867 3.44147C5.83692 3.04053 5.62765 2.67717 5.31691 2.41404C5.00556 2.1504 4.61192 2.00391 4.20409 2H1.99926ZM6.69171 8H20.8028L19.8748 13.0925L19.8742 13.0958C19.8539 13.2094 19.7942 13.3122 19.7057 13.3861C19.6171 13.46 19.5054 13.5004 19.3901 13.5L19.387 13.5H7.6913L6.69171 8ZM17.7377 20.125C17.7377 19.6418 18.1291 19.25 18.612 19.25C19.0949 19.25 19.4864 19.6418 19.4864 20.125C19.4864 20.6082 19.0949 21 18.612 21C18.1291 21 17.7377 20.6082 17.7377 20.125ZM8.49447 19.25C8.97736 19.25 9.36883 19.6418 9.36883 20.125C9.36883 20.6082 8.97736 21 8.49447 21C8.01158 21 7.62012 20.6082 7.62012 20.125C7.62012 19.6418 8.01158 19.25 8.49447 19.25Z" fill="#343A3D"/>
</svg>
