<svg width="24" height="24" viewBox="0 0 24 24" fill="none" xmlns="http://www.w3.org/2000/svg">
<path d="M14.7773 10.416C14.9164 10.3233 15 10.1672 15 10C15 9.83284 14.9165 9.67673 14.7774 9.58399L10.2774 6.58398C10.1239 6.48169 9.92665 6.47215 9.76407 6.55916C9.60149 6.64617 9.5 6.8156 9.5 7V13C9.5 13.1844 9.60149 13.3538 9.76407 13.4408C9.92665 13.5278 10.1239 13.5183 10.2773 13.416L14.7773 10.416Z" fill="#343A3D"/>
<path fill-rule="evenodd" clip-rule="evenodd" d="M5 1C2.79086 1 1 2.79086 1 5V15C1 17.2091 2.79086 19 5 19H11V20C11 20.0124 11.0002 20.0248 11.0007 20.0371C9.5715 20.1394 8.1543 20.4612 6.80055 21.0027L6.62863 21.0715C6.11585 21.2766 5.86643 21.8586 6.07155 22.3714C6.27666 22.8841 6.85863 23.1336 7.37141 22.9285L7.54333 22.8597C10.4043 21.7153 13.5958 21.7153 16.4567 22.8597L16.6286 22.9285C17.1414 23.1336 17.7234 22.8841 17.9285 22.3714C18.1336 21.8586 17.8842 21.2766 17.3714 21.0715L17.1995 21.0027C15.8457 20.4612 14.4285 20.1393 12.9993 20.0371C12.9998 20.0248 13 20.0124 13 20V19H19C21.2091 19 23 17.2091 23 15V5C23 2.79086 21.2091 1 19 1H5ZM3 5C3 3.89543 3.89543 3 5 3H19C20.1046 3 21 3.89543 21 5V15C21 16.1046 20.1046 17 19 17H5C3.89543 17 3 16.1046 3 15V5Z" fill="#343A3D"/>
</svg>
