<svg width="24" height="24" viewBox="0 0 24 24" fill="none" xmlns="http://www.w3.org/2000/svg">
<path fill-rule="evenodd" clip-rule="evenodd" d="M1 4C1 2.34315 2.34315 1 4 1H20C21.6569 1 23 2.34315 23 4V16C23 17.6569 21.6569 19 20 19H13V20C13 20.0124 12.9998 20.0248 12.9993 20.0371C14.4285 20.1394 15.8457 20.4613 17.1995 21.0028L17.3714 21.0715C17.8842 21.2766 18.1336 21.8586 17.9285 22.3714C17.7234 22.8842 17.1414 23.1336 16.6286 22.9285L16.4567 22.8597C13.5958 21.7153 10.4042 21.7153 7.54331 22.8597L7.37139 22.9285C6.8586 23.1336 6.27664 22.8842 6.07152 22.3714C5.86641 21.8586 6.11583 21.2766 6.62861 21.0715L6.80053 21.0028C8.15429 20.4613 9.57149 20.1394 11.0007 20.0371C11.0002 20.0248 11 20.0124 11 20V19H4C2.34315 19 1 17.6569 1 16V4ZM4 3C3.44772 3 3 3.44772 3 4V16C3 16.5523 3.44772 17 4 17H20C20.5523 17 21 16.5523 21 16V4C21 3.44772 20.5523 3 20 3H4Z" fill="#343A3D"/>
</svg>
