<svg width="24" height="24" viewBox="0 0 24 24" fill="none" xmlns="http://www.w3.org/2000/svg">
<path d="M7.3125 2C6.09214 2 4.75794 2.30789 3.71043 3.1948C2.62883 4.11058 2 5.51876 2 7.39766C2 10.4085 3.45704 13.4468 5.89244 16.4148C6.21422 17.0491 6.61214 17.6647 7.06803 18.2394C8.33159 19.8323 10.1203 21.2147 12.2177 21.8791C12.7267 22.0403 13.2733 22.0403 13.7823 21.8791C15.8797 21.2147 17.6684 19.8323 18.932 18.2394C20.1849 16.6599 21 14.7715 21 13.0342C21 11.2883 20.4082 9.9798 19.3902 9.12885C19.2205 8.98699 19.0428 8.86108 18.859 8.74982C18.9512 8.29435 19 7.84143 19 7.39766C19 5.51876 18.3712 4.11058 17.2896 3.1948C16.2421 2.30789 14.9079 2 13.6875 2C12.2315 2 11.1647 2.60338 10.5 3.15198C9.83533 2.60338 8.76851 2 7.3125 2ZM16.8211 8.06912C16.5448 8.03438 16.2694 8.01864 16 8.01864C14.7345 8.01864 13.7792 8.49825 13.15 8.97159C13.0979 9.01081 13.0479 9.05005 13 9.08906C12.9521 9.05005 12.9021 9.01081 12.85 8.97159C12.2208 8.49825 11.2655 8.01864 10 8.01864C8.85143 8.01864 7.59571 8.30473 6.60982 9.12885C5.82514 9.78478 5.29365 10.7126 5.09126 11.903C4.30589 10.451 4.125 8.46971 4.125 7.39766C4.125 6.03797 4.55867 5.28708 5.07082 4.85344C5.61706 4.39094 6.40786 4.15907 7.3125 4.15907C8.09291 4.15907 8.67162 4.45257 9.06563 4.75281C9.36275 4.97923 9.54924 5.20907 9.60505 5.2835C9.82555 5.57755 10.1203 5.77836 10.5 5.77836C10.8519 5.77836 11.1807 5.60139 11.3784 5.30619C11.3919 5.28697 11.5886 5.0163 11.9344 4.75281C12.3284 4.45257 12.9071 4.15907 13.6875 4.15907C14.5921 4.15907 15.3829 4.39094 15.9292 4.85344C16.4413 5.28708 16.875 6.03797 16.875 7.39766C16.875 7.61223 16.8569 7.83685 16.8211 8.06912ZM13 11.5295C13.3312 11.5295 13.6406 11.3651 13.8267 11.0908C13.8285 11.0882 13.8337 11.081 13.8423 11.0697C13.8597 11.0467 13.8906 11.0077 13.9349 10.9577C14.0241 10.8571 14.1631 10.7172 14.35 10.5766C14.7208 10.2976 15.2655 10.0248 16 10.0248C16.8514 10.0248 17.5957 10.2403 18.1098 10.6701C18.5918 11.073 19 11.7707 19 13.0342C19 14.1842 18.4342 15.6449 17.367 16.9902C16.3104 18.3222 14.8397 19.4402 13.1801 19.966C13.063 20.0031 12.937 20.0031 12.8199 19.966C11.1603 19.4402 9.68961 18.3222 8.63302 16.9902C7.5658 15.6449 7 14.1842 7 13.0342C7 11.7707 7.40816 11.073 7.89018 10.6701C8.40429 10.2403 9.14857 10.0248 10 10.0248C10.7345 10.0248 11.2792 10.2976 11.65 10.5766C11.8369 10.7172 11.9759 10.8571 12.0651 10.9577C12.1094 11.0077 12.1403 11.0467 12.1577 11.0697C12.1663 11.081 12.1715 11.0882 12.1733 11.0908C12.3594 11.3651 12.6688 11.5295 13 11.5295ZM13.8302 11.0857C13.829 11.0874 13.8279 11.0891 13.8267 11.0908C13.8267 11.0908 13.8267 11.0907 13.8267 11.0908C13.8258 11.0921 13.8259 11.092 13.8267 11.0908L13.8287 11.0878" fill="#343A3D"/>
</svg>
