<svg width="24" height="24" viewBox="0 0 24 24" fill="none" xmlns="http://www.w3.org/2000/svg">
<path fill-rule="evenodd" clip-rule="evenodd" d="M3 7C3 5.34315 4.34315 4 6 4H20C21.6569 4 23 5.34315 23 7V16C23 17.6569 21.6569 19 20 19H19.8293C19.4175 20.1652 18.3062 21 17 21H4C2.34315 21 1 19.6569 1 18V10C1 8.69378 1.83481 7.58254 3 7.17071V7ZM5 7H17C18.6569 7 20 8.34315 20 10V17C20.5523 17 21 16.5523 21 16V7C21 6.44772 20.5523 6 20 6H6C5.44772 6 5 6.44772 5 7ZM4 9C3.44772 9 3 9.44772 3 10V11.1428H18V10C18 9.44772 17.5523 9 17 9H4ZM3 13.1428V18C3 18.5523 3.44772 19 4 19H17C17.5523 19 18 18.5523 18 18V13.1428H3ZM4 16.5713C4 16.019 4.44772 15.5713 5 15.5713H7C7.55228 15.5713 8 16.019 8 16.5713C8 17.1235 7.55228 17.5713 7 17.5713H5C4.44772 17.5713 4 17.1235 4 16.5713ZM9 16.5713C9 16.019 9.44772 15.5713 10 15.5713H14C14.5523 15.5713 15 16.019 15 16.5713C15 17.1235 14.5523 17.5713 14 17.5713H10C9.44772 17.5713 9 17.1235 9 16.5713Z" fill="#343A3D"/>
</svg>
