<svg width="22" height="22" viewBox="0 0 22 22" fill="none" xmlns="http://www.w3.org/2000/svg">
<path d="M10.5144 1.18932C10.8164 1.02153 11.1836 1.02153 11.4856 1.18932L20.4856 6.18932C20.8031 6.36569 21 6.70031 21 7.06348C21 7.42664 20.8031 7.76126 20.4856 7.93763L18.5209 9.02917L20.5083 10.2023C20.817 10.3845 21.0046 10.7181 20.9999 11.0765C20.9952 11.435 20.799 11.7635 20.4856 11.9376L18.0732 13.2779L20.3103 14.4579C21.0241 14.8344 21.0209 15.8578 20.3048 16.2298L11.461 20.824C11.172 20.9741 10.828 20.9741 10.539 20.824L1.69524 16.2298C0.979095 15.8578 0.975884 14.8344 1.68968 14.4579L3.92683 13.2779L1.51436 11.9376C1.19315 11.7592 0.995682 11.419 1.00007 11.0515C1.00446 10.6841 1.21 10.3487 1.53538 10.178L3.59848 9.09548L1.51436 7.93763C1.19689 7.76126 1 7.42664 1 7.06348C1 6.70031 1.19689 6.36569 1.51436 6.18932L10.5144 1.18932ZM11.4718 12.9452C11.2105 13.0849 10.9022 13.1008 10.6304 12.9927C10.5998 12.9805 10.5697 12.9668 10.5401 12.9515L5.50398 10.3543L4.10438 11.0886L11 14.9195L17.9882 11.0372L16.5875 10.2104L11.4718 12.9452ZM4.05913 7.06348L11 10.9195L17.9409 7.06348L11 3.20744L4.05913 7.06348Z" fill="#343A3D"/>
</svg>
