<svg width="24" height="24" viewBox="0 0 24 24" fill="none" xmlns="http://www.w3.org/2000/svg">
<path fill-rule="evenodd" clip-rule="evenodd" d="M11.5 1C5.42487 1 0.5 5.92487 0.5 12C0.5 18.0751 5.42487 23 11.5 23C17.5751 23 22.5 18.0751 22.5 12C22.5 5.92487 17.5751 1 11.5 1ZM4.87928 5.90353C6.52392 4.11837 8.88136 3 11.5 3C11.7571 3 12.0116 3.01078 12.2632 3.0319C11.935 3.29644 11.7107 3.67301 11.6374 4.09431L11.405 5.42941C11.3909 5.5107 11.3375 5.57977 11.2624 5.614L9.79675 6.28234C9.11514 6.59315 8.70695 7.30333 8.78149 8.04875L8.95115 9.7453C8.97394 9.97322 8.70371 10.1092 8.53422 9.95516L5.1816 6.90732C5.14562 6.87461 5.11996 6.83212 5.10776 6.78506L4.87928 5.90353ZM3.7474 7.42586C3.84567 7.64967 3.99018 7.85141 4.17259 8.01723L7.52521 11.0651C8.71165 12.1436 10.6033 11.1915 10.4437 9.59604L10.274 7.89949C10.2634 7.793 10.3217 7.69155 10.4191 7.64715L11.8848 6.97881C12.4103 6.73917 12.7837 6.25565 12.8828 5.68661L13.1152 4.35152C13.1279 4.27846 13.1724 4.21482 13.2366 4.17779L14.4324 3.48853C15.57 3.88037 16.6043 4.49383 17.4839 5.27734L17.1575 6.22642C17.1072 6.3726 17.0766 6.5248 17.0663 6.67904L16.9176 8.90685C16.8748 9.54814 17.187 10.1613 17.7307 10.5039L19.4921 11.6139C19.6117 11.6893 19.7401 11.7499 19.8743 11.7944L20.5 12.0018C20.499 16.9391 16.5224 20.9474 11.5972 20.9995C11.7403 20.9117 11.8664 20.7814 11.9598 20.604L14.8134 15.1822C15.0625 14.7089 14.8951 14.1235 14.4335 13.8534L10.8552 11.7593C10.0868 11.3096 9.15807 12.0126 9.38232 12.8742L10.2376 16.1603C10.2635 16.2598 10.2739 16.3626 10.2685 16.4653L10.0763 20.0853C10.056 20.4663 10.2253 20.762 10.4742 20.9422C5.98669 20.433 2.5 16.6237 2.5 12C2.5 10.33 2.95484 8.76625 3.7474 7.42586ZM18.6419 6.52262C19.4931 7.63086 20.0922 8.94289 20.3533 10.3729L20.3464 10.3706C20.3272 10.3643 20.3089 10.3556 20.2918 10.3448L18.5304 9.2349C18.4527 9.18595 18.4081 9.09835 18.4143 9.00674L18.5629 6.77892C18.5644 6.75689 18.5688 6.73515 18.576 6.71426L18.6419 6.52262ZM11.6893 15.7825L11.1375 13.6624L13.2634 14.9065L11.6951 17.8862L11.7664 16.5448C11.78 16.2882 11.754 16.0311 11.6893 15.7825Z" fill="#323439"/>
</svg>
