<svg width="24" height="24" viewBox="0 0 24 24" fill="none" xmlns="http://www.w3.org/2000/svg">
<path d="M4.24543 6.51062C3.67988 7.30805 3.23425 8.19654 2.93484 9.14982C2.85209 9.41328 2.57144 9.55977 2.30799 9.47702C2.04454 9.39428 1.89804 9.11363 1.98079 8.85018C3.31863 4.59067 7.29773 1.5 12 1.5C17.799 1.5 22.5 6.20101 22.5 12C22.5 17.799 17.799 22.5 12 22.5C6.91962 22.5 2.68295 18.8924 1.71004 14.0995C1.65511 13.8288 1.82996 13.5649 2.10058 13.51C2.37121 13.4551 2.63512 13.6299 2.69006 13.9005C3.57023 18.2366 7.40457 21.5 12 21.5C17.2467 21.5 21.5 17.2467 21.5 12C21.5 11.968 21.4999 11.9361 21.4995 11.9042L20.4528 11.5571C20.3378 11.519 20.2277 11.467 20.1252 11.4024L18.3638 10.2924C17.8977 9.99874 17.6302 9.47319 17.6668 8.92351L17.8155 6.6957C17.8244 6.56349 17.8507 6.43303 17.8937 6.30774L18.3624 4.9451C17.4447 4.117 16.3647 3.4654 15.1758 3.04381C15.1478 3.07035 15.1162 3.09405 15.0813 3.11418L13.6119 3.96119C13.4834 4.03526 13.3944 4.16254 13.369 4.30865L13.1366 5.64374C13.0517 6.13149 12.7316 6.54594 12.2811 6.75134L10.8155 7.41967C10.6207 7.50848 10.5041 7.71139 10.5254 7.92436L10.695 9.62091C10.8318 10.9885 9.21043 11.8046 8.19348 10.8801L4.84086 7.83224C4.625 7.636 4.47104 7.38107 4.39785 7.09868L4.24543 6.51062ZM5.02852 5.54626L5.36586 6.84778C5.39026 6.94191 5.44158 7.02688 5.51353 7.0923L8.86616 10.1401C9.20514 10.4483 9.74559 10.1763 9.70001 9.72042L9.53036 8.02387C9.46646 7.38494 9.81634 6.77621 10.4006 6.5098L11.8663 5.84147C12.0164 5.773 12.1231 5.63485 12.1514 5.47227L12.3838 4.13717C12.4601 3.69885 12.727 3.317 13.1125 3.09482L13.8366 2.6774C13.2424 2.561 12.6283 2.5 12 2.5C9.24532 2.5 6.76395 3.67262 5.02852 5.54626ZM19.1464 5.74043L18.8394 6.63297C18.825 6.67473 18.8162 6.71822 18.8133 6.76229L18.6646 8.9901C18.6524 9.17333 18.7416 9.34851 18.8969 9.44641L20.6583 10.5563C20.6925 10.5779 20.7292 10.5952 20.7675 10.6079L21.4283 10.827C21.1899 8.89094 20.369 7.13518 19.1464 5.74043Z" fill="#323439"/>
<path d="M9.88226 12.8742C9.65801 12.0127 10.5867 11.3096 11.3551 11.7593L14.9335 13.8534C15.395 14.1235 15.5624 14.709 15.3133 15.1822L12.4597 20.6041C11.9601 21.5534 10.5193 21.1566 10.5762 20.0853L10.7684 16.4653C10.7739 16.3627 10.7635 16.2598 10.7376 16.1604L9.88226 12.8742ZM10.85 12.6224L11.7053 15.9085C11.7571 16.1074 11.7779 16.3131 11.767 16.5183L11.5748 20.1383L14.4284 14.7165L10.85 12.6224Z" fill="#323439"/>
</svg>
