<svg width="24" height="24" viewBox="0 0 24 24" fill="none" xmlns="http://www.w3.org/2000/svg">
<path d="M9 15C9 13.3431 10.3431 12 12 12C13.6569 12 15 13.3431 15 15C15 16.6569 13.6569 18 12 18C10.3431 18 9 16.6569 9 15ZM12 14C11.4477 14 11 14.4477 11 15C11 15.5523 11.4477 16 12 16C12.5523 16 13 15.5523 13 15C13 14.4477 12.5523 14 12 14Z" fill="#343A3D"/>
<path d="M11.0001 2.00001L13 2C13.8517 2 14.6461 2.21594 15.1953 2.58205C15.7148 2.9284 16 3.38792 16 4.00004C16 4.55232 16.4477 5.00004 17 5.00004C17.5523 5.00004 18 4.55232 18 4.00004C18 2.61212 17.2852 1.57162 16.3047 0.917956C15.3539 0.284057 14.1483 0 13 0L11.0001 6.67572e-06C8.2387 2.13981e-05 6 2.23856 6 5V8C4.34315 8 3 9.34315 3 11V19C3 20.6569 4.34315 22 6 22H18C19.6569 22 21 20.6569 21 19V11C21 9.34315 19.6569 8 18 8H8V5C8 3.34319 9.34321 2.00002 11.0001 2.00001ZM6 10H18C18.5523 10 19 10.4477 19 11V19C19 19.5523 18.5523 20 18 20H6C5.44772 20 5 19.5523 5 19V11C5 10.4477 5.44772 10 6 10Z" fill="#343A3D"/>
</svg>
