<svg width="25" height="24" viewBox="0 0 25 24" fill="none" xmlns="http://www.w3.org/2000/svg">
<path d="M13.4037 17.8626C13.4037 18.49 12.9252 19 12.3333 19C11.7415 19 11.2629 18.49 11.2629 17.8626L11.2629 4.88477L8.16089 8.18318C7.74281 8.62774 7.06467 8.62774 6.64658 8.18318C6.22889 7.73904 6.22889 7.01926 6.64658 6.57512L11.5762 1.33342C11.7768 1.12002 12.0492 1 12.3333 1C12.6174 1 12.8898 1.12002 13.0905 1.33342L18.02 6.57512C18.4377 7.01926 18.4377 7.73904 18.02 8.18318C17.602 8.62774 16.9238 8.62774 16.5057 8.18318L13.4037 4.88477L13.4037 17.8626Z" fill="#343A3D"/>
<path d="M2.33331 21C1.78103 21 1.33331 21.4477 1.33331 22C1.33331 22.5523 1.78103 23 2.33331 23H22.3333C22.8856 23 23.3333 22.5523 23.3333 22C23.3333 21.4477 22.8856 21 22.3333 21H2.33331Z" fill="#343A3D"/>
</svg>
