<svg width="24" height="24" viewBox="0 0 24 24" fill="none" xmlns="http://www.w3.org/2000/svg">
<path fill-rule="evenodd" clip-rule="evenodd" d="M13.4044 2.478C14.0417 1.84067 15.0751 1.84067 15.7124 2.478L21.522 8.2876C22.1593 8.92494 22.1593 9.95826 21.522 10.5956L17.9836 14.134L18.1703 14.3206C18.8076 14.958 18.8076 15.9913 18.1703 16.6286L13.9248 20.8741C12.4237 22.3753 9.98976 22.3753 8.48859 20.8741L6.51434 18.8999L5.21044 20.2038C4.81991 20.5943 4.18675 20.5943 3.79622 20.2038C3.4057 19.8133 3.4057 19.1801 3.79622 18.7896L5.10013 17.4857L3.12588 15.5114C1.62471 14.0102 1.62471 11.5763 3.12588 10.0752L7.37136 5.82969C8.00869 5.19236 9.04202 5.19235 9.67936 5.82969L9.86603 6.01637L13.4044 2.478ZM11.2802 7.43058L16.5694 12.7198L19.8476 9.4416L14.5584 4.15243L11.2802 7.43058ZM8.52536 7.50412L4.5401 11.4894C3.81997 12.2095 3.81997 13.3771 4.5401 14.0972L9.9028 19.4599C10.6229 20.18 11.7905 20.18 12.5106 19.4599L16.4959 15.4746L8.52536 7.50412ZM15.6007 6.38831C15.9912 6.77883 15.9912 7.412 15.6007 7.80252L14.9303 8.47286C14.5398 8.86338 13.9066 8.86338 13.5161 8.47286C13.1256 8.08234 13.1256 7.44917 13.5161 7.05865L14.1865 6.38831C14.577 5.99778 15.2102 5.99778 15.6007 6.38831ZM17.6117 8.39932C18.0022 8.78985 18.0022 9.42301 17.6117 9.81354L16.9414 10.4839C16.5508 10.8744 15.9177 10.8744 15.5271 10.4839C15.1366 10.0933 15.1366 9.46018 15.5271 9.06966L16.1975 8.39932C16.588 8.0088 17.2212 8.0088 17.6117 8.39932Z" fill="#343A3D"/>
</svg>
