<svg width="24" height="24" viewBox="0 0 24 24" fill="none" xmlns="http://www.w3.org/2000/svg">
<path d="M9 3C6.79086 3 5 4.79086 5 7C5 9.20914 6.79086 11 9 11C11.2091 11 13 9.20914 13 7C13 4.79086 11.2091 3 9 3ZM7 7C7 5.89543 7.89543 5 9 5C10.1046 5 11 5.89543 11 7C11 8.10457 10.1046 9 9 9C7.89543 9 7 8.10457 7 7Z" fill="#343A3D"/>
<path d="M14.25 10C14.25 8.48122 15.4812 7.25 17 7.25C18.5188 7.25 19.75 8.48122 19.75 10C19.75 11.5188 18.5188 12.75 17 12.75C15.4812 12.75 14.25 11.5188 14.25 10ZM17 8.75C16.3096 8.75 15.75 9.30964 15.75 10C15.75 10.6904 16.3096 11.25 17 11.25C17.6904 11.25 18.25 10.6904 18.25 10C18.25 9.30964 17.6904 8.75 17 8.75Z" fill="#343A3D"/>
<path d="M9 12C4.58172 12 1 15.5817 1 20C1 20.5523 1.44772 21 2 21H22.0002C22.5525 21 23.0002 20.5523 23.0002 20C23.0002 16.6863 20.3139 14 17.0002 14C16.2052 14 15.4449 14.1551 14.7491 14.4369C13.2947 12.9342 11.2564 12 9 12ZM9 14C11.973 14 14.441 16.1623 14.917 19H3.08296C3.55904 16.1623 6.027 14 9 14ZM16.0009 16.1256C16.3199 16.0436 16.6546 16 17.0002 16C18.864 16 20.4301 17.2748 20.8741 19H16.9381C16.8094 17.9679 16.4841 16.9969 16.0009 16.1256Z" fill="#343A3D"/>
</svg>
