<svg width="24" height="24" viewBox="0 0 24 24" fill="none" xmlns="http://www.w3.org/2000/svg">
<path d="M16.2929 1.29289C16.6834 0.902369 17.3166 0.902369 17.7071 1.29289L22.7071 6.29289C23.0976 6.68342 23.0976 7.31658 22.7071 7.70711C22.3166 8.09763 21.6834 8.09763 21.2929 7.70711L19.5 5.91421L17.4142 8L20.7071 11.2929C21.0976 11.6834 21.0976 12.3166 20.7071 12.7071C20.3166 13.0976 19.6834 13.0976 19.2929 12.7071L18.5 11.9142L9.70711 20.7071C9.51957 20.8946 9.26522 21 9 21H4.41421L2.70711 22.7071C2.31658 23.0976 1.68342 23.0976 1.29289 22.7071C0.902369 22.3166 0.902369 21.6834 1.29289 21.2929L3 19.5858V15C3 14.7348 3.10536 14.4804 3.29289 14.2929L12.0858 5.5L11.2929 4.70711C10.9024 4.31658 10.9024 3.68342 11.2929 3.29289C11.6834 2.90237 12.3166 2.90237 12.7071 3.29289L16 6.58579L18.0858 4.5L16.2929 2.70711C15.9024 2.31658 15.9024 1.68342 16.2929 1.29289ZM5 19H8.58579L16.5858 11L13 7.41421L10.9142 9.5L12.7071 11.2929C13.0976 11.6834 13.0976 12.3166 12.7071 12.7071C12.3166 13.0976 11.6834 13.0976 11.2929 12.7071L9.5 10.9142L7.91421 12.5L9.70711 14.2929C10.0976 14.6834 10.0976 15.3166 9.70711 15.7071C9.31658 16.0976 8.68342 16.0976 8.29289 15.7071L6.5 13.9142L5 15.4142V19Z" fill="#343A3D"/>
</svg>
