<svg width="24" height="24" viewBox="0 0 24 24" fill="none" xmlns="http://www.w3.org/2000/svg">
<path d="M4 5C2.34315 5 1 6.34315 1 8V16C1 17.6569 2.34315 19 4 19H15C16.6569 19 18 17.6569 18 16V15.7662L19.971 16.9488C21.3041 17.7486 23 16.7884 23 15.2338V8.76621C23 7.21162 21.3041 6.2514 19.971 7.05123L18 8.23383V8C18 6.34315 16.6569 5 15 5H4ZM18 10.5662L21 8.76621V15.2338L18 13.4338V10.5662ZM16 8V16C16 16.5523 15.5523 17 15 17H4C3.44772 17 3 16.5523 3 16V8C3 7.44772 3.44772 7 4 7H15C15.5523 7 16 7.44772 16 8Z" fill="#343A3D"/>
</svg>
