<svg width="24" height="24" viewBox="0 0 24 24" fill="none" xmlns="http://www.w3.org/2000/svg">
<path fill-rule="evenodd" clip-rule="evenodd" d="M1.43354 10.533C1.68492 6.83912 4.80971 4 8.54264 4H15.4571C19.19 4 22.3148 6.83912 22.5662 10.533L22.9907 16.771C23.1479 19.0807 21.2817 21 18.974 21C17.4601 21 16.064 20.162 15.377 18.8162L15.1925 18.4546C14.7413 17.5706 13.8108 17 12.7797 17H11.22C10.189 17 9.25846 17.5706 8.80723 18.4546L8.62269 18.8162C7.93576 20.162 6.53967 21 5.02572 21C2.718 21 0.85182 19.0807 1.00901 16.771L1.43354 10.533ZM8.54264 6C5.82641 6 3.60653 8.05908 3.42892 10.6688L3.00439 16.9068C2.92873 18.0185 3.8329 19 5.02572 19C5.80389 19 6.50318 18.5694 6.84132 17.9069L7.02586 17.5454C7.82589 15.978 9.45317 15 11.22 15H12.7797C14.5466 15 16.1738 15.978 16.9739 17.5454L17.1584 17.9069C17.4965 18.5694 18.1958 19 18.974 19C20.1668 19 21.071 18.0185 20.9953 16.9068L20.5708 10.6688C20.3932 8.05908 18.1733 6 15.4571 6H8.54264Z" fill="#343A3D"/>
<path fill-rule="evenodd" clip-rule="evenodd" d="M7.99992 8.75C8.41413 8.75 8.74992 9.08579 8.74992 9.5V10.25H9.49992C9.91413 10.25 10.2499 10.5858 10.2499 11C10.2499 11.4142 9.91413 11.75 9.49992 11.75H8.74992V12.5C8.74992 12.9142 8.41413 13.25 7.99992 13.25C7.58571 13.25 7.24992 12.9142 7.24992 12.5V11.75H6.49992C6.08571 11.75 5.74992 11.4142 5.74992 11C5.74992 10.5858 6.08571 10.25 6.49992 10.25H7.24992V9.5C7.24992 9.08579 7.58571 8.75 7.99992 8.75Z" fill="#343A3D"/>
<path d="M17.9999 10C17.9999 10.5523 17.5522 11 16.9999 11C16.4476 11 15.9999 10.5523 15.9999 10C15.9999 9.44772 16.4476 9 16.9999 9C17.5522 9 17.9999 9.44772 17.9999 10Z" fill="#343A3D"/>
<path d="M15.9999 12C15.9999 12.5523 15.5522 13 14.9999 13C14.4476 13 13.9999 12.5523 13.9999 12C13.9999 11.4477 14.4476 11 14.9999 11C15.5522 11 15.9999 11.4477 15.9999 12Z" fill="#343A3D"/>
</svg>
