<svg width="24" height="24" viewBox="0 0 24 24" fill="none" xmlns="http://www.w3.org/2000/svg">
<path d="M6.50067 11.3465C6.35303 11.2213 6.2354 11.0821 6.15345 10.9279L6.15226 10.9256C6.0728 10.7714 6.02723 10.6124 6.02217 10.4503L6.02197 10.444C6.02197 10.3592 6.0529 10.2713 6.12889 10.2074C6.19199 10.1536 6.26951 10.124 6.35407 10.124H6.89407C6.9606 10.124 7.03062 10.1374 7.0953 10.1744C7.17886 10.2221 7.22533 10.3015 7.25269 10.3671L7.2555 10.3739L7.25781 10.3808C7.2827 10.4555 7.31946 10.5073 7.36526 10.5445C7.42567 10.5901 7.49552 10.624 7.57696 10.6456C7.66857 10.6656 7.76679 10.676 7.87207 10.676C8.08183 10.676 8.22271 10.6273 8.31686 10.5521C8.40631 10.4799 8.45807 10.3773 8.45807 10.216C8.45807 10.0465 8.40765 9.96729 8.34571 9.92412L8.34241 9.92182C8.25679 9.85955 8.11991 9.81604 7.90807 9.81604H7.29007C7.20799 9.81604 7.12288 9.79272 7.05191 9.73189L7.04608 9.72689L7.04065 9.72146C6.97081 9.65162 6.94007 9.56262 6.94007 9.47204V9.22004C6.94007 9.15351 6.95346 9.08349 6.99042 9.01881L6.99434 9.01196C7.01988 8.9711 7.04907 8.93219 7.08265 8.89862L7.08425 8.89702L7.80741 8.19004H6.58207C6.49149 8.19004 6.40249 8.1593 6.33265 8.08946L6.32722 8.08403L6.32222 8.0782C6.26443 8.01077 6.23807 7.92942 6.23807 7.84604V7.45004C6.23807 7.36796 6.26139 7.28285 6.32222 7.21188L6.32722 7.20605L6.33265 7.20062C6.40249 7.13078 6.49149 7.10004 6.58207 7.10004H9.15607C9.24665 7.10004 9.33565 7.13078 9.40549 7.20062C9.47533 7.27046 9.50607 7.35946 9.50607 7.45004V7.81004C9.50607 7.87671 9.49093 7.94365 9.45572 8.00527C9.43237 8.04612 9.40431 8.08441 9.37063 8.11831L8.60773 8.90327C8.7453 8.93524 8.87483 8.98036 8.99572 9.03929C9.22061 9.14287 9.39898 9.29842 9.52434 9.50511C9.65662 9.7165 9.71607 9.97147 9.71607 10.258C9.71607 10.5674 9.63343 10.8441 9.46125 11.0785C9.29707 11.3034 9.07228 11.4724 8.79542 11.5885C8.51874 11.7045 8.20768 11.76 7.86607 11.76C7.5707 11.76 7.30632 11.7243 7.07683 11.6478C6.85575 11.5741 6.66375 11.4762 6.50569 11.3507L6.50067 11.3465Z" fill="#343A3D"/>
<path d="M11.0114 11.5446C10.7349 11.3974 10.5155 11.1979 10.3592 10.9452L10.3584 10.9438C10.2024 10.6869 10.1254 10.4006 10.1254 10.09C10.1254 9.94862 10.1436 9.8107 10.1806 9.67685C10.2159 9.54878 10.2625 9.4266 10.3205 9.3106C10.3742 9.20308 10.4267 9.10644 10.4779 9.02114L10.4793 9.01876C10.5321 8.93343 10.5822 8.86056 10.6294 8.80325L11.729 7.29498C11.7546 7.26301 11.7871 7.23151 11.8215 7.20121C11.8986 7.1273 11.9959 7.10004 12.0894 7.10004H12.6474C12.7408 7.10004 12.8237 7.13861 12.8842 7.20616C12.9445 7.26928 12.9734 7.34902 12.9734 7.43204C12.9734 7.47763 12.9629 7.51987 12.946 7.5574C12.9353 7.58459 12.9201 7.61138 12.8992 7.63581L12.3097 8.45269C12.482 8.46993 12.6481 8.51198 12.8074 8.57905C13.009 8.65994 13.188 8.773 13.3424 8.9184C13.4976 9.06441 13.6189 9.2359 13.7055 9.43145C13.7982 9.63133 13.8434 9.84781 13.8434 10.078C13.8434 10.3772 13.7681 10.6577 13.6185 10.9162L13.6177 10.9176C13.4659 11.1751 13.2485 11.3794 12.9721 11.5311C12.6923 11.6869 12.3634 11.76 11.9934 11.76C11.6248 11.76 11.2958 11.6914 11.0136 11.5458L11.0114 11.5446ZM11.5854 10.78C11.7094 10.84 11.8434 10.87 11.9874 10.87C12.1314 10.87 12.2634 10.84 12.3834 10.78C12.5074 10.72 12.6074 10.632 12.6834 10.516C12.7594 10.4 12.7974 10.256 12.7974 10.084C12.7974 9.91604 12.7594 9.77404 12.6834 9.65804C12.6074 9.54204 12.5074 9.45404 12.3834 9.39404C12.2634 9.33404 12.1314 9.30404 11.9874 9.30404C11.8434 9.30404 11.7094 9.33404 11.5854 9.39404C11.4654 9.45404 11.3674 9.54204 11.2914 9.65804C11.2154 9.77404 11.1774 9.91604 11.1774 10.084C11.1774 10.256 11.2154 10.4 11.2914 10.516C11.3674 10.632 11.4654 10.72 11.5854 10.78Z" fill="#343A3D"/>
<path d="M14.4134 10.6393L14.413 10.6381C14.3432 10.4245 14.3023 10.1992 14.2894 9.96293L14.2892 9.95944C14.2852 9.851 14.2812 9.7326 14.2772 9.60429L14.277 9.59804L14.2771 9.19598C14.2811 9.06368 14.2852 8.94132 14.2892 8.8289C14.2979 8.59049 14.3392 8.36437 14.4143 8.15194C14.4903 7.93327 14.601 7.74013 14.7476 7.57517L14.7496 7.57288C14.9032 7.40536 15.094 7.27557 15.3176 7.18164C15.5479 7.08495 15.8135 7.04004 16.1091 7.04004C16.4083 7.04004 16.676 7.08482 16.9065 7.18164C17.1301 7.27554 17.3195 7.40557 17.4696 7.57403C17.6208 7.73938 17.7322 7.93349 17.8044 8.15359C17.8789 8.3645 17.9199 8.58877 17.9288 8.82527L17.9286 8.82179L17.929 8.82877L17.9288 8.82527C17.937 8.94177 17.9411 9.06742 17.9411 9.20204V9.59804C17.9411 9.72866 17.9371 9.85041 17.9288 9.96307L17.929 9.95931L17.9285 9.96681L17.9288 9.96307C17.9199 10.1991 17.881 10.4244 17.8112 10.6381L17.8108 10.6393C17.7388 10.8552 17.6301 11.0484 17.4844 11.2169C17.3336 11.3912 17.1408 11.5243 16.9119 11.6187C16.6812 11.7155 16.4116 11.76 16.1091 11.76C15.8063 11.76 15.5365 11.7154 15.3056 11.6184C15.0804 11.5238 14.8901 11.3906 14.7398 11.2169C14.5941 11.0484 14.4853 10.8552 14.4134 10.6393ZM15.3411 9.21404V9.57404C15.3451 9.69004 15.3471 9.80604 15.3471 9.92204C15.3551 10.214 15.4211 10.446 15.5451 10.618C15.6691 10.786 15.8571 10.87 16.1091 10.87C16.3691 10.87 16.5591 10.786 16.6791 10.618C16.8031 10.446 16.8671 10.214 16.8711 9.92204C16.8791 9.80604 16.8831 9.69004 16.8831 9.57404V9.21404C16.8831 9.09404 16.8791 8.98004 16.8711 8.87204C16.8671 8.58804 16.8031 8.36004 16.6791 8.18804C16.5591 8.01204 16.3691 7.92404 16.1091 7.92404C15.8531 7.92404 15.6631 8.01204 15.5391 8.18804C15.4191 8.36004 15.3551 8.58804 15.3471 8.87204C15.3471 8.98004 15.3451 9.09404 15.3411 9.21404Z" fill="#343A3D"/>
<path d="M19.1414 8.48736C19.4245 8.01314 20.0384 7.85818 20.5126 8.14125C22.2117 9.15543 23.0001 10.5498 23.0001 12.1307C23.0001 13.8316 21.7817 15.1809 20.2361 16.1085C18.6559 17.0569 16.5092 17.7163 14.115 17.9933C13.5664 18.0567 13.0702 17.6634 13.0067 17.1148C12.9433 16.5662 13.3366 16.07 13.8852 16.0065C16.0814 15.7525 17.9347 15.1572 19.2069 14.3936C20.5137 13.6093 21.0001 12.7895 21.0001 12.1307C21.0001 11.3423 20.6619 10.5596 19.4875 9.85857C19.0133 9.5755 18.8584 8.96159 19.1414 8.48736Z" fill="#343A3D"/>
<path d="M4.86352 8.4956C5.14205 8.9725 4.98123 9.58491 4.50432 9.86343C3.32203 10.5539 3 11.3213 3 12.0981C3 12.7762 3.55357 13.6515 5.0643 14.4662C6.12133 15.0362 7.51808 15.4969 9.1386 15.7727L8.21947 14.625C7.87423 14.194 7.94381 13.5646 8.37488 13.2194C8.80596 12.8741 9.43529 12.9437 9.78053 13.3748L12.0231 16.1749C12.3199 16.5455 12.3152 17.0737 12.0118 17.439L9.76925 20.1389C9.41636 20.5637 8.78589 20.622 8.36105 20.2692C7.93621 19.9163 7.87787 19.2858 8.23075 18.861L9.1161 17.7951C7.19323 17.4981 5.46996 16.9573 4.11499 16.2266C2.39929 15.3013 1 13.9051 1 12.0981C1 10.5304 1.77174 9.14324 3.49568 8.1364C3.97259 7.85787 4.58499 8.01869 4.86352 8.4956Z" fill="#343A3D"/>
</svg>
