<svg width="24" height="24" viewBox="0 0 24 24" fill="none" xmlns="http://www.w3.org/2000/svg">
<path d="M12 6.25C8.82436 6.25 6.25 8.82436 6.25 12C6.25 15.1756 8.82436 17.75 12 17.75C15.1756 17.75 17.75 15.1756 17.75 12C17.75 8.82436 15.1756 6.25 12 6.25ZM9.06103 11.25H7.81597C8.05255 9.92126 8.90659 8.80619 10.0708 8.21207C9.6393 8.94517 9.28415 9.81599 9.12209 10.7893C9.09684 10.9409 9.07637 11.0945 9.06103 11.25ZM10.6017 11.0357C10.8049 9.81551 11.3986 8.78331 12 8.07552C12.6014 8.78331 13.1951 9.81551 13.3983 11.0357C13.41 11.1063 13.4205 11.1778 13.4296 11.25H10.5704C10.5795 11.1778 10.59 11.1063 10.6017 11.0357ZM12 15.8368C11.1585 14.7451 10.7394 13.7038 10.5916 12.75H13.4084C13.2606 13.7038 12.8415 14.7451 12 15.8368ZM9.07751 12.75C9.19757 13.7427 9.54193 14.7851 10.1872 15.8451C8.96371 15.2673 8.06037 14.1226 7.81597 12.75H9.07751ZM14.9225 12.75H16.184C15.9396 14.1226 15.0363 15.2673 13.8128 15.8451C14.4581 14.7851 14.8024 13.7427 14.9225 12.75ZM14.939 11.25C14.9236 11.0945 14.9032 10.9409 14.8779 10.7893C14.7159 9.81599 14.3607 8.94517 13.9292 8.21207C15.0934 8.80619 15.9475 9.92126 16.184 11.25H14.939Z" fill="#343A3D"/>
<path d="M6 1C4.34315 1 3 2.34315 3 4V20C3 21.6569 4.34315 23 6 23H18C19.6569 23 21 21.6569 21 20V4C21 2.34315 19.6569 1 18 1H6ZM5 4C5 3.44772 5.44772 3 6 3H18C18.5523 3 19 3.44772 19 4V20C19 20.5523 18.5523 21 18 21H6C5.44772 21 5 20.5523 5 20V4Z" fill="#343A3D"/>
</svg>
