<svg width="24" height="24" viewBox="0 0 24 24" fill="none" xmlns="http://www.w3.org/2000/svg">
<path d="M4 1C2.34315 1 1 2.34315 1 4V20C1 21.6569 2.34315 23 4 23H16C17.6569 23 19 21.6569 19 20V18.6429C19 18.0906 18.5523 17.6429 18 17.6429C17.4477 17.6429 17 18.0906 17 18.6429V20C17 20.5523 16.5523 21 16 21H4C3.44772 21 3 20.5523 3 20V4C3 3.44772 3.44772 3 4 3H16C16.5523 3 17 3.44772 17 4V5.15895C17 5.71124 17.4477 6.15895 18 6.15895C18.5523 6.15895 19 5.71124 19 5.15895V4C19 2.34315 17.6569 1 16 1H4Z" fill="#343A3D"/>
<path fill-rule="evenodd" clip-rule="evenodd" d="M20.8773 7.66226C20.6605 7.15433 20.0729 6.91836 19.565 7.13522C19.0571 7.35207 18.8211 7.93963 19.0379 8.44756L19.5556 9.65995L18.41 10.149L17.3463 7.65762C17.1295 7.14969 16.5419 6.91373 16.034 7.13058C15.526 7.34744 15.2901 7.93499 15.5069 8.44292L15.6464 8.76965L8.74908 11.6034L8.73417 11.6096C8.22817 11.8272 7.92126 12.2766 7.74449 12.5887C7.54734 12.9368 7.39021 13.339 7.2642 13.7071C7.14111 14.0666 7.03411 14.4349 6.94509 14.7412L6.9351 14.7756C6.90079 14.8937 6.87046 14.9973 6.84339 15.0874L5.55087 15.6393C5.04294 15.8561 4.80698 16.4437 5.02384 16.9516C5.24069 17.4595 5.82825 17.6955 6.33618 17.4786L7.62866 16.9268C7.71251 16.9696 7.80832 17.0194 7.91734 17.0763L7.94907 17.0928C8.23192 17.2405 8.57193 17.4179 8.91671 17.5777C9.26967 17.7412 9.66887 17.9059 10.0566 18.0043C10.4026 18.092 10.936 18.1808 11.441 17.9697L18.3645 15.136L18.4198 15.2655C18.6366 15.7734 19.2242 16.0094 19.7321 15.7926C20.24 15.5757 20.476 14.9881 20.2592 14.4802L19.1953 11.9884L20.3409 11.4993L20.8585 12.7117C21.0753 13.2196 21.6629 13.4556 22.1708 13.2387C22.6787 13.0219 22.9147 12.4343 22.6978 11.9264L20.8773 7.66226ZM12.2475 12.3283L12.9521 12.0388L13.1222 12.59C13.285 13.1177 13.8449 13.4135 14.3726 13.2506C14.9003 13.0878 15.1961 12.528 15.0333 12.0002L14.8097 11.2757L15.981 10.7944L17.1678 13.4648L10.7315 16.0991C10.7042 16.0971 10.646 16.0905 10.5483 16.0657C10.3382 16.0124 10.0696 15.9076 9.75752 15.763C9.45678 15.6236 9.15372 15.4655 8.86164 15.3131C8.95358 14.9968 9.049 14.6685 9.15636 14.3549C9.26779 14.0295 9.3779 13.763 9.48472 13.5744C9.53194 13.4911 9.56629 13.4448 9.58458 13.4223L10.3934 13.09L10.7392 14.1244C10.9144 14.6482 11.481 14.9309 12.0047 14.7557C12.5285 14.5806 12.8111 14.014 12.636 13.4902L12.2475 12.3283Z" fill="#343A3D"/>
</svg>
