<svg width="24" height="24" viewBox="0 0 24 24" fill="none" xmlns="http://www.w3.org/2000/svg">
<path fill-rule="evenodd" clip-rule="evenodd" d="M12.0932 6.91412C11.4541 6.40281 10.5459 6.40281 9.90678 6.91412L5.90678 10.1141C5.49166 10.4462 5.25 10.949 5.25 11.4806V17C5.25 17.4142 5.58579 17.75 6 17.75H9C9.41421 17.75 9.75 17.4142 9.75 17V15C9.75 14.8619 9.86193 14.75 10 14.75H12C12.1381 14.75 12.25 14.8619 12.25 15V17C12.25 17.4142 12.5858 17.75 13 17.75H16C16.4142 17.75 16.75 17.4142 16.75 17V11.4806C16.75 10.949 16.5083 10.4462 16.0932 10.1141L12.0932 6.91412ZM10.8438 8.08542C10.9351 8.01238 11.0649 8.01238 11.1562 8.08542L15.1562 11.2854C15.2155 11.3329 15.25 11.4047 15.25 11.4806V16.25H13.75V15C13.75 14.0335 12.9665 13.25 12 13.25H10C9.0335 13.25 8.25 14.0335 8.25 15V16.25H6.75V11.4806C6.75 11.4047 6.78452 11.3329 6.84383 11.2854L10.8438 8.08542Z" fill="#343A3D"/>
<path fill-rule="evenodd" clip-rule="evenodd" d="M3 3C1.89543 3 1 3.89543 1 5V19C1 20.1046 1.89543 21 3 21H21C22.1046 21 23 20.1046 23 19V14.7796C23 14.3144 22.4652 14 22 14C20.8954 14 20 13.1046 20 12C20 10.8954 20.8954 10 22 10C22.4652 10 23 9.68557 23 9.22038V5C23 3.89543 22.1046 3 21 3H3ZM3 19V5L21 5V8.12602C19.2748 8.57006 18 10.1362 18 12C18 13.8638 19.2748 15.4299 21 15.874V19H3Z" fill="#343A3D"/>
</svg>
