<svg width="24" height="24" viewBox="0 0 24 24" fill="none" xmlns="http://www.w3.org/2000/svg">
<path d="M9.57129 14.5C9.9855 14.5 10.3213 14.1642 10.3213 13.75C10.3213 13.3358 9.9855 13 9.57129 13C9.15708 13 8.82129 13.3358 8.82129 13.75C8.82129 14.1642 9.15708 14.5 9.57129 14.5Z" fill="#343A3D"/>
<path d="M12.8306 13.75C12.8306 14.1642 12.4948 14.5 12.0806 14.5C11.6664 14.5 11.3306 14.1642 11.3306 13.75C11.3306 13.3358 11.6664 13 12.0806 13C12.4948 13 12.8306 13.3358 12.8306 13.75Z" fill="#343A3D"/>
<path d="M15.75 8.66306L15.75 8.66489L15.75 8.66667L15.75 14.1387C15.75 14.4262 15.75 14.6866 15.7318 14.9037C15.7122 15.1371 15.6676 15.3863 15.5397 15.6304C15.3554 15.9822 15.0633 16.2643 14.7089 16.4398C14.6751 16.4566 14.6411 16.4719 14.6071 16.4857V17C14.6071 17.4142 14.2714 17.75 13.8571 17.75C13.4429 17.75 13.1071 17.4142 13.1071 17V16.6389H8.89286V17C8.89286 17.4142 8.55707 17.75 8.14286 17.75C7.72865 17.75 7.39286 17.4142 7.39286 17V16.4857C7.35888 16.4719 7.32494 16.4566 7.29109 16.4398C6.93671 16.2643 6.64464 15.9822 6.46027 15.6304C6.33238 15.3863 6.28782 15.1371 6.26821 14.9037C6.24997 14.6867 6.24998 14.4262 6.25 14.1387L6.25 8.66667L6.25 8.66489L6.25001 8.66306L6.25004 8.65928L6.25015 8.65118L6.25069 8.63287C6.25119 8.61976 6.25203 8.60481 6.25337 8.58814C6.25603 8.55483 6.26068 8.51455 6.2686 8.46833C6.28445 8.37585 6.31349 8.25934 6.36615 8.12771C6.47325 7.85995 6.67085 7.54801 7.01986 7.25717C7.71044 6.68169 8.91432 6.25 11 6.25C13.0857 6.25 14.2896 6.68169 14.9801 7.25717C15.3292 7.54801 15.5268 7.85995 15.6339 8.12771C15.6865 8.25934 15.7156 8.37585 15.7314 8.46833C15.7393 8.51455 15.744 8.55483 15.7466 8.58814C15.748 8.60481 15.7488 8.61976 15.7493 8.63287L15.7499 8.65118L15.75 8.65928L15.75 8.66306ZM7.75 10.7879H14.25V8.71009C14.2482 8.70388 14.2454 8.69534 14.2411 8.68479C14.2232 8.64005 14.1709 8.53532 14.0199 8.4095C13.7104 8.15165 12.9143 7.75 11 7.75C9.08568 7.75 8.28956 8.15165 7.98014 8.4095C7.82915 8.53532 7.77676 8.64005 7.75886 8.68479C7.75464 8.69534 7.75183 8.70388 7.75 8.71009V10.7879ZM7.75 14.1111C7.75 14.435 7.75062 14.6315 7.76294 14.7781C7.77246 14.8913 7.78619 14.9282 7.78883 14.9341C7.82359 15.0004 7.88123 15.0582 7.95693 15.0957C7.95693 15.0957 7.99373 15.1147 8.13734 15.1261C8.29132 15.1383 8.49651 15.1389 8.82857 15.1389H13.1714C13.5035 15.1389 13.7087 15.1383 13.8627 15.1261C14.0085 15.1145 14.0431 15.0957 14.0431 15.0957C14.1188 15.0582 14.1764 15.0004 14.2111 14.9341C14.2138 14.9282 14.2275 14.8913 14.2371 14.7781C14.2494 14.6315 14.25 14.435 14.25 14.1111V12.2879H7.75V14.1111Z" fill="#343A3D"/>
<path d="M3 3C1.89543 3 1 3.89543 1 5V19C1 20.1046 1.89543 21 3 21H21C22.1046 21 23 20.1046 23 19V14.7796C23 14.3144 22.4652 14 22 14C20.8954 14 20 13.1046 20 12C20 10.8954 20.8954 10 22 10C22.4652 10 23 9.68557 23 9.22038V5C23 3.89543 22.1046 3 21 3H3ZM3 19V5L21 5V8.12602C19.2748 8.57006 18 10.1362 18 12C18 13.8638 19.2748 15.4299 21 15.874V19H3Z" fill="#343A3D"/>
</svg>
