<svg width="24" height="24" viewBox="0 0 24 24" fill="none" xmlns="http://www.w3.org/2000/svg">
<path d="M19.8835 5C19.9199 4.68939 19.948 4.37628 19.9674 4.0609C20.0394 2.89336 19.0869 2 18 2H4C2.89543 2 2 2.89543 2 4V18C2 19.0869 2.89336 20.0394 4.0609 19.9674C4.37628 19.948 4.68939 19.9199 5 19.8835V21C5 22.0881 5.89523 23.0393 7.06174 22.9674C15.6054 22.4404 22.4404 15.6054 22.9674 7.06174C23.0393 5.89524 22.0881 5 21 5H19.8835ZM17.8679 5H7C5.89543 5 5 5.89543 5 7V17.8679C4.67002 17.9119 4.33657 17.9451 4 17.9672L4 4L17.9672 4C17.9451 4.33657 17.9119 4.67002 17.8679 5ZM12 7H15V10H12V7ZM10 10H7L7 7L10 7V10ZM7 12H10V15H7L7 12ZM7 17H10V20.4609C9.03546 20.7271 8.03197 20.8994 7 20.9672L7 17ZM15 17V18H15.0015C14.0779 18.694 13.0716 19.2838 12 19.752V17H15ZM12 15V12H15V15H12ZM18 15H17V12H19.752C19.2838 13.0716 18.694 14.0779 18 15.0015V15ZM20.4609 10H17V7H20.9672C20.8994 8.03197 20.7271 9.03546 20.4609 10Z" fill="#343A3D"/>
</svg>
