<svg width="24" height="24" viewBox="0 0 24 24" fill="none" xmlns="http://www.w3.org/2000/svg">
<path fill-rule="evenodd" clip-rule="evenodd" d="M10.9954 1C9.33738 1 7.99326 2.34315 7.99326 4C7.99326 5.65685 9.33738 7 10.9954 7C12.6535 7 13.9976 5.65685 13.9976 4C13.9976 2.34315 12.6535 1 10.9954 1ZM9.99471 4C9.99471 3.44772 10.4428 3 10.9954 3C11.5481 3 11.9962 3.44772 11.9962 4C11.9962 4.55228 11.5481 5 10.9954 5C10.4428 5 9.99471 4.55228 9.99471 4Z" fill="#343A3D"/>
<path d="M12.8912 13.5528C12.6441 13.0588 12.0429 12.8586 11.5486 13.1055C11.0543 13.3525 10.8539 13.9532 11.1011 14.4472L15.104 22.4472C15.3511 22.9412 15.9523 23.1414 16.4466 22.8944C16.9409 22.6474 17.1413 22.0467 16.8941 21.5528L12.8912 13.5528Z" fill="#343A3D"/>
<path d="M10.1909 16.0194C10.7329 16.1277 11.0843 16.6545 10.976 17.1961L9.97523 22.1961C9.86684 22.7376 9.33963 23.0888 8.79767 22.9805C8.25572 22.8722 7.90425 22.3454 8.01264 21.8038L9.01337 16.8038C9.12176 16.2623 9.64897 15.9111 10.1909 16.0194Z" fill="#343A3D"/>
<path d="M9.47623 10H11.4741C11.8662 10 12.2246 10.2214 12.4 10.5718L14.8395 15.4472C15.0866 15.9412 15.6877 16.1414 16.1821 15.8944C16.6764 15.6474 16.8768 15.0468 16.6296 14.5528L14.1902 9.67738C13.6758 8.64937 12.6243 8 11.4741 8H9.47623C8.63265 8 7.82709 8.35066 7.2526 8.96794L6.80383 9.45014C6.05606 10.2536 5.8069 11.4009 6.15413 12.4419L6.77937 14.3162C6.95414 14.8402 7.52087 15.1233 8.0452 14.9487C8.56952 14.774 8.85289 14.2077 8.67811 13.6838L8.05287 11.8094C7.79861 11.0472 8.71728 10 9.47623 10Z" fill="#343A3D"/>
</svg>
