<svg width="24" height="24" viewBox="0 0 24 24" fill="none" xmlns="http://www.w3.org/2000/svg">
<path d="M11.25 12.5C11.6642 12.5 12 12.1642 12 11.75C12 11.3358 11.6642 11 11.25 11C10.8358 11 10.5 11.3358 10.5 11.75C10.5 12.1642 10.8358 12.5 11.25 12.5Z" fill="#343A3D"/>
<path d="M7.5 11.75C7.5 12.1642 7.16421 12.5 6.75 12.5C6.33579 12.5 6 12.1642 6 11.75C6 11.3358 6.33579 11 6.75 11C7.16421 11 7.5 11.3358 7.5 11.75Z" fill="#343A3D"/>
<path d="M3 1C1.89543 1 1 1.89543 1 3V21C1 22.1046 1.89543 23 3 23H21C22.1046 23 23 22.1046 23 21V3C23 1.89543 22.1046 1 21 1H3ZM15 3V21H10V3H15ZM21 21H17V18H21V21ZM21 16H17V13H21V16ZM17 8H21V11H17V8ZM21 6H17V3H21V6ZM8 3V21H3V3L8 3Z" fill="#343A3D"/>
</svg>
