<svg width="25" height="24" viewBox="0 0 25 24" fill="none" xmlns="http://www.w3.org/2000/svg">
<path d="M12.3333 8C12.8855 8 13.3333 8.44772 13.3333 9V14C13.3333 14.5523 12.8855 15 12.3333 15C11.781 15 11.3333 14.5523 11.3333 14V9C11.3333 8.44772 11.781 8 12.3333 8Z" fill="#343A3D"/>
<path d="M11.3333 17C11.3333 16.4477 11.781 16 12.3333 16C12.8855 16 13.3333 16.4477 13.3333 17C13.3333 17.5523 12.8855 18 12.3333 18C11.781 18 11.3333 17.5523 11.3333 17Z" fill="#343A3D"/>
<path fill-rule="evenodd" clip-rule="evenodd" d="M14.9435 3.51337C13.7937 1.49529 10.8681 1.49561 9.71871 3.51392L1.72702 17.5473C0.594469 19.5361 2.04016 22 4.33959 22H20.3269C22.6266 22 24.0723 19.5355 22.9392 17.5468L14.9435 3.51337ZM11.4604 4.4935C11.8435 3.82073 12.8188 3.82063 13.202 4.49332L21.1977 18.5267C21.5754 19.1897 21.0935 20.0111 20.3269 20.0111H4.33959C3.5731 20.0111 3.09121 19.1898 3.46873 18.5269L11.4604 4.4935Z" fill="#343A3D"/>
</svg>
