<svg width="25" height="24" viewBox="0 0 25 24" fill="none" xmlns="http://www.w3.org/2000/svg">
<path d="M12.3333 8C12.8856 8 13.3333 8.44772 13.3333 9V14C13.3333 14.5523 12.8856 15 12.3333 15C11.781 15 11.3333 14.5523 11.3333 14V9C11.3333 8.44772 11.781 8 12.3333 8Z" fill="#343A3D"/>
<path d="M11.3333 17C11.3333 16.4477 11.781 16 12.3333 16C12.8856 16 13.3333 16.4477 13.3333 17C13.3333 17.5523 12.8856 18 12.3333 18C11.781 18 11.3333 17.5523 11.3333 17Z" fill="#343A3D"/>
<path d="M14.9436 3.51337C13.7938 1.49529 10.8681 1.49561 9.71877 3.51392L1.72708 17.5473C0.59453 19.5361 2.04022 22 4.33965 22H20.327C22.6267 22 24.0723 19.5355 22.9392 17.5468L14.9436 3.51337ZM11.4605 4.4935C11.8436 3.82073 12.8188 3.82063 13.2021 4.49332L21.1977 18.5267C21.5754 19.1897 21.0936 20.0111 20.327 20.0111H4.33965C3.57317 20.0111 3.09127 19.1898 3.46879 18.5269L11.4605 4.4935Z" fill="#343A3D"/>
</svg>
