<svg width="24" height="24" viewBox="0 0 24 24" fill="none" xmlns="http://www.w3.org/2000/svg">
<path fill-rule="evenodd" clip-rule="evenodd" d="M6 3C5.40088 3 5 3.47828 5 4V11H6.27924L6.59547 10.0513C7.00381 8.82629 8.15023 8 9.44152 8H10.5858C12.4748 6.12327 15.5252 6.12327 17.4142 8H18.5585C19.8498 8 20.9962 8.82629 21.4045 10.0513L21.7723 11.1546C22.4934 11.4567 23 12.1692 23 13V16C23 18.7614 20.7614 21 18 21V22C18 22.5523 17.5523 23 17 23C16.4477 23 16 22.5523 16 22V21H8V22C8 22.5523 7.55228 23 7 23C6.44772 23 6 22.5523 6 22V21C3.23858 21 1 18.7614 1 16V13C1 11.8954 1.89543 11 3 11V4C3 2.52172 4.1539 1 6 1C7.8461 1 9 2.52172 9 4C9 4.55228 8.55228 5 8 5C7.44772 5 7 4.55228 7 4C7 3.47828 6.59912 3 6 3ZM18 19C19.6569 19 21 17.6569 21 16V13H3V16C3 17.6569 4.34315 19 6 19H18ZM19.6126 11L19.5072 10.6838C19.3711 10.2754 18.9889 10 18.5585 10H17.3981C16.878 10 16.3792 9.79338 16.0114 9.4256C14.9005 8.31474 13.0995 8.31474 11.9886 9.4256C11.6208 9.79338 11.122 10 10.6019 10H9.44152C9.01109 10 8.62895 10.2754 8.49284 10.6838L8.38743 11H19.6126Z" fill="#343A3D"/>
</svg>
