<svg width="24" height="24" viewBox="0 0 24 24" fill="none" xmlns="http://www.w3.org/2000/svg">
<path d="M2 6C2 3.79086 3.79086 2 6 2H18C20.2091 2 22 3.79086 22 6V24H20V6C20 4.89543 19.1046 4 18 4H16C16 4.55228 15.5 5 15 5H9C8.5 5 8 4.55228 8 4H6C4.89543 4 4 4.89543 4 6V24H2V6Z" fill="#343A3D"/>
<path d="M5 8.2C5 7.53726 5.53726 7 6.2 7H11.3C11.9627 7 12.5 7.53726 12.5 8.2V13.3C12.5 13.9627 11.9627 14.5 11.3 14.5H6.2C5.53726 14.5 5 13.9627 5 13.3V8.2ZM6.5 13H11V8.5H6.5V13Z" fill="#343A3D"/>
<path d="M6 16.05C5.58579 16.05 5.25 16.3858 5.25 16.8C5.25 17.2143 5.58579 17.55 6 17.55H11.5C11.9142 17.55 12.25 17.2143 12.25 16.8C12.25 16.3858 11.9142 16.05 11.5 16.05H6Z" fill="#343A3D"/>
<path d="M14 8.2C14 7.53726 14.5373 7 15.2 7H17.8C18.4627 7 19 7.53726 19 8.2V10.8C19 11.4627 18.4627 12 17.8 12H15.2C14.5373 12 14 11.4627 14 10.8V8.2ZM15.5 10.5H17.5V8.5H15.5V10.5Z" fill="#343A3D"/>
<path d="M14 14.2C14 13.5373 14.5373 13 15.2 13H17.8C18.4627 13 19 13.5373 19 14.2V16.8C19 17.4627 18.4627 18 17.8 18H15.2C14.5373 18 14 17.4627 14 16.8V14.2ZM15.5 16.5H17.5V14.5H15.5V16.5Z" fill="#343A3D"/>
</svg>
