<svg width="24" height="24" viewBox="0 0 24 24" fill="none" xmlns="http://www.w3.org/2000/svg">
<path d="M2.66068 8.75068C8.34296 3.74977 15.6571 3.74977 21.3393 8.75068C21.7539 9.11556 22.3858 9.07526 22.7507 8.66067C23.1156 8.24608 23.0753 7.61419 22.6607 7.24932C16.223 1.58356 7.77707 1.58356 1.33935 7.24932C0.924758 7.61419 0.884457 8.24608 1.24933 8.66067C1.61421 9.07526 2.24609 9.11556 2.66068 8.75068Z" fill="#343A3D"/>
<path d="M5.68602 12.5276C7.64616 10.6795 9.84744 9.8 12 9.8C14.1526 9.8 16.3538 10.6795 18.314 12.5276C18.7158 12.9065 19.3487 12.8879 19.7276 12.486C20.1065 12.0842 20.0879 11.4513 19.686 11.0724C17.4037 8.92055 14.7262 7.8 12 7.8C9.27377 7.8 6.59627 8.92055 4.31399 11.0724C3.91215 11.4513 3.89354 12.0842 4.27241 12.486C4.65129 12.8879 5.28418 12.9065 5.68602 12.5276Z" fill="#343A3D"/>
<path d="M12 14.725C10.7968 14.725 9.51552 15.2221 8.14021 16.3682C7.71593 16.7218 7.08537 16.6645 6.7318 16.2402C6.37824 15.8159 6.43556 15.1853 6.85984 14.8318C8.48453 13.4779 10.2033 12.725 12 12.725C13.7968 12.725 15.5155 13.4779 17.1402 14.8318C17.5645 15.1853 17.6218 15.8159 17.2682 16.2402C16.9147 16.6645 16.2841 16.7218 15.8598 16.3682C14.4845 15.2221 13.2033 14.725 12 14.725Z" fill="#343A3D"/>
<path d="M11.9933 18C11.1686 18 10.5 18.6716 10.5 19.5C10.5 20.3284 11.1686 21 11.9933 21H12.0067C12.8314 21 13.5 20.3284 13.5 19.5C13.5 18.6716 12.8314 18 12.0067 18H11.9933Z" fill="#343A3D"/>
</svg>
