<svg width="24" height="24" viewBox="0 0 24 24" fill="none" xmlns="http://www.w3.org/2000/svg">
<path fill-rule="evenodd" clip-rule="evenodd" d="M8.46447 9.46447C9.40215 8.52678 10.6739 8 12 8C13.3261 8 14.5979 8.52678 15.5355 9.46447C16.4732 10.4021 17 11.6739 17 13C17 14.3261 16.4732 15.5979 15.5355 16.5355C14.5979 17.4732 13.3261 18 12 18C10.6739 18 9.40215 17.4732 8.46447 16.5355C7.52678 15.5979 7 14.3261 7 13C7 11.6739 7.52678 10.4021 8.46447 9.46447ZM12 10C11.2044 10 10.4413 10.3161 9.87868 10.8787C9.31607 11.4413 9 12.2044 9 13C9 13.7956 9.31607 14.5587 9.87868 15.1213C10.4413 15.6839 11.2044 16 12 16C12.7957 16 13.5587 15.6839 14.1213 15.1213C14.6839 14.5587 15 13.7957 15 13C15 12.2044 14.6839 11.4413 14.1213 10.8787C13.5587 10.3161 12.7956 10 12 10Z" fill="#343A3D"/>
<path fill-rule="evenodd" clip-rule="evenodd" d="M3 5C3 3.34315 4.34315 2 6 2H18C19.6569 2 21 3.34315 21 5V19C21 20.6569 19.6569 22 18 22H6C4.34315 22 3 20.6569 3 19V5ZM6 4C5.44772 4 5 4.44772 5 5V19C5 19.5523 5.44772 20 6 20H18C18.5523 20 19 19.5523 19 19V5C19 4.44772 18.5523 4 18 4H6Z" fill="#343A3D"/>
<path fill-rule="evenodd" clip-rule="evenodd" d="M14 6C14 5.44772 14.4477 5 15 5H16C16.5523 5 17 5.44772 17 6C17 6.55228 16.5523 7 16 7H15C14.4477 7 14 6.55228 14 6Z" fill="#343A3D"/>
<path fill-rule="evenodd" clip-rule="evenodd" d="M11.8753 14.135C10.0607 13.2945 8.85568 14.0457 8.5505 14.3755L7.4495 13.3568C8.16019 12.5887 10.0536 11.6381 12.5057 12.7739C14.4419 13.6707 15.355 13.0472 15.4495 12.945L16.5505 13.9638C15.8831 14.685 14.2057 15.2144 11.8753 14.135Z" fill="#343A3D"/>
</svg>
