<svg width="24" height="24" viewBox="0 0 24 24" fill="none" xmlns="http://www.w3.org/2000/svg">
<path d="M3.00024 1C1.89567 1 1.00024 1.89543 1.00024 3V7.47696C0.999918 7.49171 0.999919 7.50644 1.00024 7.52115V17.477C0.999918 17.4917 0.999919 17.5064 1.00024 17.5211V21C1.00024 22.1046 1.89568 23 3.00024 23H21.0002C22.1048 23 23.0002 22.1046 23.0002 21V3C23.0002 1.89543 22.1048 1 21.0002 1H3.00024ZM3.00024 17.8021C3.2703 17.4406 3.65373 17.123 4.04572 17.0295C4.38345 16.9489 5.03702 16.9626 5.96451 18.124C7.24102 19.7225 8.70481 20.2116 10.0758 19.9216C10.4051 19.8519 10.7142 19.7402 11.0002 19.6009V21H3.00024V17.8021ZM11.0002 17.1391C10.6569 17.5097 10.1717 17.857 9.66184 17.9649C9.1599 18.071 8.4203 17.9942 7.52732 16.876C6.28531 15.3207 4.90499 14.7684 3.5817 15.0841C3.3772 15.1328 3.18328 15.2005 3.00024 15.2826V13H11.0002V17.1391ZM3.00024 11V7.80211C3.2703 7.44057 3.65373 7.12299 4.04572 7.0295C4.38345 6.94894 5.03702 6.96262 5.96451 8.12402C7.24102 9.72248 8.70481 10.2116 10.0758 9.92157C10.4051 9.85189 10.7142 9.74017 11.0002 9.60095V11H3.00024ZM9.66184 7.96487C9.1599 8.07104 8.4203 7.99417 7.52732 6.87598C6.28531 5.32073 4.90499 4.76845 3.5817 5.08407C3.3772 5.13285 3.18328 5.20052 3.00024 5.28264V3L11.0002 3V7.1391C10.6569 7.50966 10.1717 7.85702 9.66184 7.96487ZM13.0002 21V17.8021C13.2703 17.4406 13.6537 17.123 14.0457 17.0295C14.3835 16.9489 15.037 16.9626 15.9645 18.124C17.241 19.7225 18.7048 20.2116 20.0757 19.9216C20.4051 19.8519 20.7142 19.7402 21.0002 19.6009V21H13.0002ZM13.0002 15.2826V13H21.0002V17.1391C20.6569 17.5097 20.1717 17.857 19.6618 17.9649C19.1599 18.071 18.4203 17.9942 17.5273 16.876C16.2853 15.3207 14.905 14.7684 13.5817 15.0841C13.3772 15.1328 13.1833 15.2005 13.0002 15.2826ZM13.0002 11V7.80211C13.2703 7.44057 13.6537 7.12299 14.0457 7.0295C14.3835 6.94894 15.037 6.96262 15.9645 8.12402C17.241 9.72248 18.7048 10.2116 20.0758 9.92157C20.4051 9.85189 20.7142 9.74017 21.0002 9.60095V11H13.0002ZM19.6618 7.96487C19.1599 8.07104 18.4203 7.99417 17.5273 6.87598C16.2853 5.32073 14.905 4.76845 13.5817 5.08407C13.3772 5.13285 13.1833 5.20052 13.0002 5.28264V3H21.0002V7.1391C20.6569 7.50966 20.1717 7.85702 19.6618 7.96487Z" fill="#343A3D"/>
</svg>
