<svg width="140" height="31" viewBox="0 0 140 31" xmlns="http://www.w3.org/2000/svg"><g fill="none" fill-rule="evenodd"><path d="M132.676 22.857h.037c2.704 0 4.7-.361 5.91-.84-.2-.243-.399-.472-.568-.685 0 0 .272 0 .294-.023 0-4.067-4.023-4.443-4.428-4.443 0-.442-.781-.353-1.039-.353 0-.442.236-.582.236-.582l.508-.317-.103-.457h-1.658l-.103.457.509.317s.235.14.235.582c-.258 0-1.039-.089-1.039.353-.405 0-4.428.376-4.428 4.443.022.023.295.023.295.023-.17.213-.361.442-.568.685 1.209.479 3.206.84 5.91.84" fill="#024DA1"/><path d="M139.05 22.533c-1.135.574-3.28 1.031-6.337 1.031h-.037c-3.058 0-5.202-.457-6.337-1.031-.508.633-.95 1.29-.95 1.842 0 .913 2.549 2.011 7.287 2.019h.037c4.738-.008 7.287-1.106 7.287-2.02 0-.552-.442-1.208-.95-1.841M2.328 25.281c.538 0 1.069-.096 1.585-.287a4.839 4.839 0 001.466-.848c.457-.375.847-.84 1.179-1.4l-.007.185-.03.324-.03.331c-.007.177-.014.369-.007.568 0 .199.008.383.022.552.015.17.037.31.067.413.03.103.059.155.095.162.104 0 .25-.007.465-.022.206-.015.442-.03.692-.066.266-.022.516-.067.767-.118a3.52 3.52 0 00.64-.192l.015-.737c.008-.331.03-.7.06-1.12.021-.42.066-.847.125-1.297.03-.198.066-.493.125-.869l.199-1.334.265-1.658.287-1.827.288-1.864.28-1.754.228-1.488c.052-.31.067-.538.044-.686-.022-.147-.095-.22-.22-.22-.163 0-.354.007-.583.029-.236.022-.471.051-.73.08l-.729.104-.597.096c0 .191-.014.45-.051.78-.03.325-.074.694-.125 1.099l-.177 1.208c-.067.406-.125.781-.184 1.128-.067.339-.118.619-.163.832a2.844 2.844 0 00-.722-.265 4.493 4.493 0 00-.92-.088c-.745 0-1.43.132-2.056.368a5.67 5.67 0 00-1.651 1.017 6.432 6.432 0 00-1.223 1.51 7.57 7.57 0 00-.76 1.85A8.199 8.199 0 000 21.817c0 .73.096 1.357.287 1.872.185.509.45.907.796 1.18.346.272.744.405 1.223.412h.022zm1.489-2.336c-.236 0-.428-.118-.59-.36-.154-.244-.235-.65-.243-1.21 0-.375.037-.758.118-1.163a6.12 6.12 0 01.361-1.187 4.4 4.4 0 01.612-1.039c.25-.31.538-.552.877-.737a2.547 2.547 0 011.15-.28c.28 0 .53.045.736.126.214.073.383.184.516.317l-.052.235-.051.273-.03.199a9.302 9.302 0 01-.501 1.783 6.98 6.98 0 01-.7 1.349 5.62 5.62 0 01-.788.95c-.273.25-.53.435-.774.56-.236.125-.442.184-.62.184h-.021zm13.337-7.913c-.678 0-1.297.125-1.872.353a5.28 5.28 0 00-1.547.973 5.965 5.965 0 00-1.164 1.437 7.118 7.118 0 00-.73 1.739 7.06 7.06 0 00-.258 1.886c-.007.796.11 1.474.346 2.056a2.709 2.709 0 001.098 1.326c.509.317 1.18.472 1.997.48.685-.008 1.282-.082 1.79-.23.517-.147.944-.33 1.29-.552.347-.214.62-.435.803-.656.14-.132.244-.295.325-.493.073-.207.117-.45.117-.737 0-.221-.022-.398-.058-.538a.766.766 0 00-.185-.324 7.86 7.86 0 01-.818.596 5.55 5.55 0 01-1.053.494c-.39.14-.81.206-1.268.214-.353-.008-.64-.074-.87-.207a1.182 1.182 0 01-.485-.552 1.988 1.988 0 01-.155-.81v-.266a8.616 8.616 0 001.083-.103 8.47 8.47 0 001.216-.28c.412-.118.81-.28 1.193-.472a4.67 4.67 0 001.04-.7c.302-.272.545-.59.722-.95a2.78 2.78 0 00.272-1.238c0-.523-.125-.965-.36-1.334a2.27 2.27 0 00-.988-.825c-.42-.192-.907-.287-1.46-.287h-.021zm-.39 1.783a.8.8 0 01.434.132.877.877 0 01.265.31.809.809 0 01.089.354c0 .14-.037.309-.11.493a1.645 1.645 0 01-.436.575c-.213.184-.515.354-.906.494-.398.147-.906.243-1.533.287.126-.619.31-1.127.546-1.518.243-.39.5-.67.788-.855.28-.184.56-.272.84-.272h.022zm8.664-1.783a4.7 4.7 0 00-1.584.257 3.78 3.78 0 00-1.223.708 3.002 3.002 0 00-.796 1.054c-.184.397-.28.84-.28 1.311a2.77 2.77 0 00.118.847c.081.28.243.56.464.84.229.288.553.575.973.87.413.287.737.523.973.715.235.184.398.346.493.479.089.132.14.265.133.39 0 .214-.11.383-.31.523-.206.133-.486.2-.825.207a4.08 4.08 0 01-.847-.089 5.432 5.432 0 01-.81-.206 6.123 6.123 0 01-.671-.258c-.103-.052-.207-.022-.295.081-.096.103-.162.258-.214.457a2.14 2.14 0 00-.051.626c.015.214.08.42.184.597.103.147.265.28.486.405.221.126.494.229.818.31.324.08.678.118 1.069.125.648-.007 1.23-.096 1.746-.273a4.1 4.1 0 001.319-.744c.36-.31.64-.663.833-1.068.191-.398.287-.818.287-1.268a2.393 2.393 0 00-.14-.854 2.618 2.618 0 00-.516-.81c-.236-.266-.56-.539-.965-.826-.354-.243-.649-.442-.87-.612a5.28 5.28 0 01-.508-.434 1.08 1.08 0 01-.228-.317.513.513 0 01-.06-.266.68.68 0 01.148-.442.967.967 0 01.39-.25c.155-.052.332-.081.516-.081.214 0 .413.022.59.059s.346.08.508.14c.221.088.413.088.575.022a.947.947 0 00.405-.361c.11-.162.192-.347.243-.545.06-.192.096-.376.11-.546a1.857 1.857 0 00-.603-.427 3.47 3.47 0 00-.781-.258 3.733 3.733 0 00-.781-.088h-.023zm7.214 2.446l.11-.774.111-.825c.03-.265.06-.508.074-.707a2.37 2.37 0 00.015-.428 2.75 2.75 0 00-.538.015c-.214.03-.442.074-.686.118-.25.059-.486.118-.714.184-.236.066-.435.133-.605.192-.169.059-.287.11-.353.154 0 .155-.015.369-.037.627-.022.25-.052.53-.088.84l-.118.913-.11.833c-.266 1.85-.539 3.699-.84 5.548a297.227 297.227 0 01-.915 5.52c.155 0 .34-.008.56-.023.229-.014.457-.037.7-.059.236-.03.457-.059.664-.095a2.41 2.41 0 00.486-.111c.22-.074.383-.177.486-.324.103-.148.177-.361.221-.641.052-.354.103-.722.17-1.098l.199-1.223.243-1.452c.272.229.59.39.972.48.376.095.767.14 1.18.14a4.681 4.681 0 001.827-.377 4.95 4.95 0 001.503-1.024 6.208 6.208 0 001.127-1.525c.31-.575.553-1.209.708-1.872.17-.67.25-1.37.25-2.078 0-.412-.037-.81-.125-1.208a3.504 3.504 0 00-.427-1.083 2.203 2.203 0 00-.781-.781c-.325-.2-.715-.302-1.187-.302a4.08 4.08 0 00-1.297.206c-.398.14-.766.324-1.098.553a5.495 5.495 0 00-.913.78 8.188 8.188 0 00-.73.907h-.044zm2.852-.155c.258 0 .45.118.59.354.132.228.198.567.198 1.017 0 .346-.03.722-.088 1.12a6.758 6.758 0 01-.302 1.179 4.05 4.05 0 01-.56 1.06 2.6 2.6 0 01-.855.774c-.34.192-.737.288-1.201.295-.2 0-.413-.044-.634-.133a1.584 1.584 0 01-.611-.442c0-.073.007-.154.014-.228l.052-.302a8.8 8.8 0 01.597-1.938 6.41 6.41 0 01.862-1.481c.317-.413.64-.73.98-.943.331-.221.64-.332.936-.332h.022zm10.595-2.291a4.98 4.98 0 00-1.871.353 5.28 5.28 0 00-1.547.973c-.457.413-.84.891-1.165 1.437a7.118 7.118 0 00-.73 1.739 7.06 7.06 0 00-.257 1.886c-.007.796.11 1.474.346 2.056a2.709 2.709 0 001.098 1.326c.509.317 1.18.472 1.997.48.685-.008 1.282-.082 1.79-.23a5.104 5.104 0 001.29-.552c.346-.214.619-.435.803-.656.14-.132.243-.295.317-.493a2 2 0 00.125-.737 1.81 1.81 0 00-.066-.538.758.758 0 00-.177-.324 7.86 7.86 0 01-.818.596 5.55 5.55 0 01-1.053.494 3.93 3.93 0 01-1.268.214c-.354-.008-.648-.074-.87-.207a1.182 1.182 0 01-.486-.552 1.988 1.988 0 01-.154-.81v-.266a8.616 8.616 0 001.083-.103 8.47 8.47 0 001.216-.28c.412-.118.81-.28 1.193-.472.383-.191.73-.427 1.04-.7.301-.272.544-.59.721-.95a2.78 2.78 0 00.273-1.238c0-.523-.125-.965-.361-1.334a2.27 2.27 0 00-.987-.825c-.42-.192-.907-.287-1.46-.287h-.022zm-.397 1.783a.825.825 0 01.442.132.877.877 0 01.265.31.809.809 0 01.088.354c0 .14-.036.309-.11.493-.081.192-.229.383-.435.575-.214.184-.516.354-.906.494-.398.147-.907.243-1.533.287.125-.619.31-1.127.545-1.518.236-.39.501-.67.781-.855.288-.184.568-.272.848-.272h.015zm8.797-1.783c-.618 0-1.193.103-1.709.302a3.968 3.968 0 00-1.356.854c-.383.369-.678.81-.891 1.32a4.44 4.44 0 00-.317 1.687c0 .405.051.751.14 1.046.096.302.213.553.353.759.14.206.295.376.45.508.155.126.302.221.435.288-.25.147-.494.302-.73.471a3.64 3.64 0 00-.567.516c-.155.17-.236.324-.236.472 0 .243.044.457.125.648a2.164 2.164 0 00.553.781 7.283 7.283 0 00-1.061.67 3.75 3.75 0 00-.73.708c-.176.236-.265.45-.272.649 0 .353.08.722.258 1.09.17.376.442.73.818 1.054.375.324.87.59 1.48.788.612.2 1.356.302 2.233.31a6.27 6.27 0 001.997-.302c.597-.2 1.105-.465 1.525-.811.42-.339.745-.73.966-1.164.22-.435.331-.9.339-1.378 0-.332-.067-.663-.2-.987a2.52 2.52 0 00-.655-.9c-.295-.265-.693-.478-1.186-.633l-.686-.177-.766-.192-.73-.176c-.22-.06-.397-.11-.545-.155-.28-.081-.493-.162-.633-.258-.148-.088-.222-.199-.222-.317a.317.317 0 01.067-.162l.132-.147.214.037a4.669 4.669 0 00.84.074 5.21 5.21 0 001.157-.133 4.48 4.48 0 001.12-.42c.354-.185.67-.428.95-.73a3.36 3.36 0 00.671-1.083c.162-.427.243-.914.25-1.466 0-.096-.007-.214-.022-.354-.014-.147-.036-.287-.059-.435a2.895 2.895 0 00-.095-.383c.103 0 .243.007.412.022l.546.03c.184.007.331.014.442.014 0-.125.007-.28.014-.464l.045-.56.051-.56a7.71 7.71 0 01.067-.464l-.553.096-.612.11c-.206.037-.398.067-.56.089a3.38 3.38 0 01-.383.037 1.18 1.18 0 01-.383-.045c-.14-.03-.28-.08-.427-.132a4.567 4.567 0 00-1.12-.361 4.727 4.727 0 00-.914-.081h-.03zm1.054 3.087a3.7 3.7 0 01-.214 1.29c-.14.383-.338.685-.582.906-.25.22-.53.331-.847.339-.324 0-.575-.118-.752-.354-.184-.228-.272-.582-.28-1.061 0-.339.037-.663.126-.965.073-.31.184-.59.331-.826.155-.243.324-.434.538-.574a1.26 1.26 0 01.693-.214c.346.007.604.133.759.39.154.251.236.597.228 1.047v.022zm-1.577 9.896c-.368 0-.722-.044-1.053-.126a3.251 3.251 0 01-.877-.346 1.85 1.85 0 01-.604-.523 1.05 1.05 0 01-.229-.663c0-.125.06-.258.17-.383.11-.126.235-.243.383-.34a3.29 3.29 0 01.39-.242c.118.014.288.044.516.088.229.052.48.103.752.162.272.066.538.125.78.192.251.073.45.132.605.199.258.095.457.206.59.31a.863.863 0 01.272.33.881.881 0 01.059.37.656.656 0 01-.221.493c-.147.155-.346.265-.604.346-.258.089-.56.133-.907.133h-.022zm5.726-5.976c0 .737.095 1.341.272 1.82.177.479.428.84.744 1.076.325.228.693.346 1.113.346a4.512 4.512 0 001.71-.346 5.452 5.452 0 001.503-.929c.45-.383.825-.832 1.127-1.326l-.044.45-.044.523c-.015.265-.022.523-.015.773 0 .243.015.45.044.605.03.162.066.243.125.25.096 0 .25-.007.457-.022.207-.015.442-.03.693-.066a6.27 6.27 0 00.759-.118c.258-.052.471-.118.656-.192a10.236 10.236 0 01-.015-.582c0-.258.007-.56.022-.906.022-.347.052-.722.103-1.113.06-.435.118-.92.192-1.437l.213-1.599c.081-.538.155-1.053.236-1.547.066-.494.14-.928.206-1.304.067-.376.118-.663.163-.855a22.058 22.058 0 00-1.003-.221 13.851 13.851 0 00-1.171-.199 8.164 8.164 0 00-1.18-.088 8.616 8.616 0 00-1.797.17c-.56.11-1.083.294-1.57.552-.486.258-.943.59-1.37 1.017a6.588 6.588 0 00-1.017 1.282c-.28.456-.493.913-.656 1.385a8.27 8.27 0 00-.353 1.363 7.316 7.316 0 00-.103 1.216v.022zm3.64.906c-.214 0-.384-.11-.524-.339-.125-.22-.199-.582-.199-1.075a6.066 6.066 0 01.45-2.27c.155-.398.354-.774.604-1.12a3.45 3.45 0 01.781-.766c.25-.177.509-.295.767-.361.25-.06.515-.089.773-.089a2.618 2.618 0 01.9.155c-.008.118-.023.206-.03.273l-.037.213c-.11.73-.258 1.378-.464 1.953a8.497 8.497 0 01-.693 1.51c-.265.428-.53.789-.81 1.069-.28.287-.546.5-.811.634-.25.14-.486.213-.685.213h-.022zm11.472-4.804c.06-.413.103-.803.118-1.179.022-.368.03-.7.015-.987 0-.288-.022-.523-.052-.686-.03-.169-.059-.257-.103-.257-.059 0-.177.014-.339.044a9.958 9.958 0 00-.575.103c-.213.044-.427.088-.648.14l-.59.147a1.97 1.97 0 00-.368.118c.007.096.015.229.015.398 0 .17 0 .354-.008.553 0 .199-.014.383-.022.567l-.03.464a52.04 52.04 0 01-.169 1.496c-.066.538-.14 1.083-.228 1.65-.081.568-.17 1.12-.258 1.666l-.25 1.54c-.089.479-.17.906-.236 1.275a12.867 12.867 0 001.378-.133c.25-.03.479-.074.692-.125a2.51 2.51 0 00.516-.162.721.721 0 00.346-.273c.081-.118.14-.295.185-.523.176-.98.375-1.828.59-2.528.22-.7.449-1.289.677-1.753.228-.464.457-.825.678-1.09.228-.273.435-.458.634-.568.191-.11.368-.17.508-.162.214 0 .413.037.597.096.191.059.346.132.479.213.132-.132.258-.317.383-.545a4.943 4.943 0 00.553-1.533c.044-.265.044-.486.007-.678a1.089 1.089 0 00-.28-.191 2.56 2.56 0 00-.368-.147 1.168 1.168 0 00-.317-.06 2.39 2.39 0 00-.781.126 2.852 2.852 0 00-.877.471c-.302.221-.604.538-.907.944-.309.412-.604.935-.898 1.57h-.067z" fill="#024DA1"/><path d="M92.348 15.15c-.736.007-1.407.117-2.019.338a5.457 5.457 0 00-1.643.929c-.486.398-.899.87-1.238 1.407a6.34 6.34 0 00-.766 1.754 7.194 7.194 0 00-.273 2.004c0 .87.148 1.584.42 2.144.28.56.671.966 1.165 1.23.5.266 1.098.399 1.775.399a6.526 6.526 0 001.592-.2 5.227 5.227 0 001.23-.486c.347-.198.627-.412.848-.633.184-.177.317-.376.398-.582a1.722 1.722 0 00.066-1.083 1.577 1.577 0 00-.14-.295.587.587 0 00-.147-.17 6.05 6.05 0 01-.516.406c-.199.147-.42.28-.67.412a3.99 3.99 0 01-.774.324 3.11 3.11 0 01-.818.133c-.354-.007-.641-.088-.855-.265a1.4 1.4 0 01-.479-.73c-.103-.317-.147-.685-.147-1.112 0-.332.03-.678.096-1.032a4.76 4.76 0 01.316-1.046 3.6 3.6 0 01.553-.914 2.7 2.7 0 01.818-.648 2.69 2.69 0 011.12-.243c.228 0 .457.029.678.073.228.052.45.118.656.192.095-.008.191-.074.302-.184.103-.118.206-.266.295-.435a2.94 2.94 0 00.213-.553 1.31 1.31 0 00.06-.516 1.765 1.765 0 00-.568-.353 2.793 2.793 0 00-.73-.2 4.702 4.702 0 00-.795-.066h-.023zm8.82 0c-.928.014-1.746.176-2.46.5a5.216 5.216 0 00-1.828 1.371 6.047 6.047 0 00-1.127 2.012c-.266.751-.39 1.57-.39 2.439-.008 1.282.294 2.247.913 2.903.611.648 1.562.98 2.859.98.899-.008 1.702-.177 2.417-.501a5.295 5.295 0 001.827-1.349 5.987 5.987 0 001.157-2.011 7.277 7.277 0 00.405-2.461c0-.774-.133-1.452-.405-2.027a3.138 3.138 0 00-1.245-1.363c-.56-.317-1.26-.486-2.1-.494h-.023zm-.368 1.864a1 1 0 01.53.154c.148.104.266.229.354.398.089.17.148.347.192.553.037.199.051.405.051.612 0 .663-.051 1.274-.17 1.849a6.212 6.212 0 01-.478 1.503 3.073 3.073 0 01-.752 1.017 1.526 1.526 0 01-.958.368c-.272-.007-.493-.088-.655-.25-.17-.155-.288-.376-.369-.641a3.318 3.318 0 01-.11-.892c0-.464.037-.92.103-1.378.066-.45.17-.87.302-1.267.133-.398.287-.744.479-1.046.192-.302.405-.546.648-.715.244-.17.516-.258.81-.265h.023zm9.188.965l.06-.457c.125-.803.176-1.393.169-1.783 0-.39-.066-.59-.184-.59-.052 0-.155.015-.325.045l-.59.11-.684.148c-.229.051-.435.095-.62.14-.176.044-.309.08-.382.11.022.192.007.59-.045 1.186-.059.597-.17 1.445-.324 2.52-.088.509-.17 1.032-.258 1.577l-.258 1.607-.25 1.473-.221 1.201a13.33 13.33 0 001.238-.073 4.57 4.57 0 00.832-.155c.214-.06.39-.133.509-.214a.842.842 0 00.236-.265c.058-.11.125-.287.176-.523.221-1.076.465-1.99.737-2.756.265-.759.538-1.393.825-1.879.288-.501.56-.892.833-1.172.273-.28.523-.471.752-.589.235-.11.427-.162.59-.162.183 0 .323.066.404.184.089.125.133.28.148.486.007.2 0 .42-.03.67a40.195 40.195 0 01-.472 3.102 115.1 115.1 0 01-.323 1.696l-.34 1.65a11.08 11.08 0 001.253-.088 6.33 6.33 0 00.833-.155 4.64 4.64 0 00.486-.177.601.601 0 00.273-.258c.08-.125.147-.316.191-.552.2-1.076.428-1.997.678-2.763.258-.76.523-1.393.803-1.887.28-.493.56-.884.833-1.157.273-.287.53-.478.766-.589.236-.118.442-.162.605-.162a.42.42 0 01.353.177c.089.118.14.272.17.471.014.207 0 .428-.06.693-.058.258-.117.553-.176.892-.066.331-.125.685-.192 1.046l-.191 1.06-.162.944c-.052.302-.089.597-.118.899-.03.302-.052.575-.06.833-.007.258 0 .456.016.619.014.154.036.235.073.243l.487-.022c.22-.015.471-.03.751-.067.28-.03.545-.066.803-.118.258-.051.472-.117.649-.191.007-.361.037-.766.08-1.216.045-.45.111-.943.2-1.481l.17-1.135.206-1.23c.066-.42.14-.818.213-1.209.074-.42.103-.832.096-1.252a3.93 3.93 0 00-.199-1.135 1.83 1.83 0 00-.59-.825c-.272-.207-.633-.317-1.075-.325-.516.008-.98.089-1.408.251a4.399 4.399 0 00-1.164.656 6.245 6.245 0 00-.95.92c-.28.34-.53.686-.76 1.047h-.043a.468.468 0 00.022-.11v-.126c.036-.486 0-.92-.104-1.319a1.94 1.94 0 00-.574-.95c-.273-.236-.634-.354-1.09-.369a3.755 3.755 0 00-1.393.28 4.77 4.77 0 00-1.165.693 7.51 7.51 0 00-.95.914c-.273.331-.516.64-.73.943h-.059zm-27.594 1.289c-.361 0-.67.081-.929.236a1.472 1.472 0 00-.604.649 2.2 2.2 0 00-.214.994c0 .31.067.575.185.796.117.229.287.405.5.523.222.126.48.185.767.185.332 0 .626-.074.877-.229.25-.155.45-.368.597-.64.14-.274.213-.59.213-.944a1.93 1.93 0 00-.154-.789 1.301 1.301 0 00-.465-.567 1.292 1.292 0 00-.751-.214h-.022" fill="#ED1C24"/><path d="M84.295 9.476l.656-.641 1.923.199 3.058-3.729-5.556-2.623 1.238-.855 6.403 1.422S95.547.015 96.423.884c.877.877-2.454 4.325-2.454 4.325l1.091 6.116-.81 1.172-2.373-5.217-3.84 2.94.148 1.945-.67.649-1.061-2.203-2.16-1.135" fill="#024DA1"/><path d="M82.217 17.758c.53 0 1.039.125 1.48.354.856-2.587 1.379-4.134 2.86-6.006l-2.034-.066c-1.459 1.842-2.137 3.33-2.748 5.747.147-.022.287-.03.442-.03m.059 6.647c-.442 0-.87-.088-1.26-.25.147 2.431.611 4 1.665 6.057h2.1c-1.032-2.02-1.503-3.574-1.65-5.925-.273.074-.56.118-.855.118" fill="#ED1C24"/></g></svg>