<svg width="37" height="31" viewBox="0 0 37 31" xmlns="http://www.w3.org/2000/svg"><g fill="none" fill-rule="evenodd"><path d="M15.2 15.49c-.037.183-.065.366-.101.539l-.073.383c-.246 1.313-.575 2.49-1.021 3.51a13.646 13.646 0 01-1.432 2.68 10.915 10.915 0 01-1.623 1.87c-.547.492-1.076.866-1.577 1.103-.483.246-.912.365-1.267.365H8.06c-.492 0-.884-.228-1.213-.711-.319-.493-.483-1.286-.501-2.38 0-.748.082-1.514.237-2.308.173-.801.41-1.576.748-2.332a8.523 8.523 0 011.249-2.053 5.924 5.924 0 011.805-1.458c.684-.347 1.477-.538 2.352-.547.584 0 1.094.082 1.523.237.429.155.766.364 1.04.629l-.1.474zM23.094.895c-.046-.292-.201-.438-.465-.438-.318 0-.721.018-1.185.064-.474.045-.967.1-1.496.155l-1.504.2c-.465.073-.875.128-1.213.192 0 .374-.036.884-.1 1.54a61.204 61.204 0 01-.273 2.162c-.11.793-.238 1.586-.356 2.388-.137.803-.255 1.541-.383 2.225a73.675 73.675 0 01-.328 1.641c-.41-.228-.903-.392-1.486-.52a10.042 10.042 0 00-1.888-.182c-1.522.01-2.927.255-4.203.739a11.289 11.289 0 00-3.392 1.996 12.317 12.317 0 00-2.507 2.982 14.572 14.572 0 00-1.56 3.647 15.66 15.66 0 00-.528 4.03c.01 1.44.2 2.671.583 3.684.383 1.012.93 1.796 1.633 2.333.71.539 1.54.803 2.507.812h.045a9.783 9.783 0 003.255-.565 9.871 9.871 0 003-1.678c.94-.737 1.75-1.658 2.425-2.762 0 .054 0 .173-.018.364l-.054.648c-.019.228-.046.445-.064.647-.019.356-.019.74-.019 1.13 0 .383.019.75.055 1.076.028.328.073.611.128.821.055.2.127.31.2.32.201 0 .484-.01.949-.018.528-.02.866-.01 1.468-.02.674-.008.948 0 1.595 0 .666-.008.903.01 1.248-.027 0-.336.01-1.54.029-2.179a60.35 60.35 0 01.118-2.197 37.05 37.05 0 01.265-2.562c.053-.401.136-.967.255-1.723.11-.749.254-1.623.41-2.635.164-1.003.347-2.088.528-3.255l1.76-10.741.467-2.945c.117-.61.145-1.067.099-1.35zM36.243 22.95c0-.366-.292-.794-.63-1.214-.764.374-2.188.675-4.22.684h-.037c-2.034-.009-3.456-.31-4.222-.684-.336.42-.629.848-.629 1.213 0 .593 1.696 1.322 4.852 1.331h.035c3.156-.009 4.85-.738 4.85-1.33zm-8.826-1.55c.811.31 2.142.546 3.94.546h.035c1.796 0 3.127-.236 3.93-.546v-.01c0-2.963-2.863-3.383-3.128-3.383 0-.291-.52-.237-.693-.237 0-.282.156-.383.156-.383l.337-.2-.073-.31h-1.103l-.064.31.337.2s.154.1.154.383c-.172 0-.692-.054-.692.237-.263 0-2.908.357-3.127 3.374l-.01.019zm-1.742-10.44l.538-.511 1.605.155 2.535-2.982-4.622-2.097 1.03-.684 5.333 1.131s2.936-2.598 3.666-1.896c.729.693-2.043 3.464-2.043 3.464l.92 4.896-.674.93L31.976 9.2l-3.192 2.361.128 1.55-.556.52-.885-1.76-1.796-.912" fill="#024DA1"/><path d="M23.907 19.23c-.3 0-.566.063-.776.19a1.201 1.201 0 00-.501.52c-.119.218-.173.484-.173.794 0 .255.045.465.146.647.11.174.246.31.428.41.183.1.391.147.638.155.274-.008.511-.073.72-.192.21-.126.375-.301.493-.51.119-.218.182-.475.182-.756a1.53 1.53 0 00-.127-.63 1.08 1.08 0 00-.392-.457 1.111 1.111 0 00-.62-.172h-.018m-.156-1.213c.447 0 .867.11 1.24.283.703-2.07 1.14-3.31 2.371-4.805l-1.696-.045c-1.203 1.467-1.769 2.662-2.28 4.595.118-.01.247-.028.365-.028m.054 5.325a3.02 3.02 0 01-1.037-.19c.117 1.94.508 3.19 1.385 4.84h1.75c-.866-1.623-1.259-2.862-1.385-4.741a2.59 2.59 0 01-.713.091" fill="#ED1C24"/></g></svg>