<svg width="210" height="258" viewBox="0 0 210 258" xmlns="http://www.w3.org/2000/svg"><g fill="#FFF"><path d="M25.46 216.996h-5a.23.23 0 00-.234.23v9.174c-1.543-1.957-4.213-3.109-7.265-3.109-7.504 0-12.544 6.461-12.544 12.496 0 6.14 4.6 12.491 12.3 12.491 2.987 0 5.813-1.195 7.51-3.152v2.296c.001.128.106.23.234.23h5a.23.23 0 00.23-.23v-30.196a.23.23 0 00-.23-.23zm-12.117 26.087a7.317 7.317 0 010-14.63c3.835 0 7.074 3.351 7.074 7.317 0 3.965-3.239 7.33-7.074 7.33v-.017zm29.444-19.792c-8.487 0-13.07 6.44-13.07 12.496s4.583 12.474 13.074 12.474c4.179-.048 8.083-2.091 10.996-5.761a.23.23 0 00-.065-.348l-4.235-2.356a.23.23 0 00-.3.065c-1.74 2.296-3.987 3.513-6.522 3.513-3.5 0-6.46-2.461-6.856-5.652h19.07a.235.235 0 00.234-.23v-.914c-.022-9.156-7.217-13.287-12.326-13.287zm-.67 4.892c3.087 0 5.518 1.847 6.557 4.965H35.826c.84-3.07 3.226-4.965 6.291-4.965zm29.753 5.595l-5.053-.965c-1.934-.335-2.834-1.043-2.834-2.222 0-1.739 2.087-2.7 4.047-2.7 2.048 0 4.1.87 6.087 2.544.047.04.109.059.17.052a.226.226 0 00.16-.083l2.836-3.513a.217.217 0 00.052-.178.24.24 0 00-.096-.156c-3.17-2.257-6.06-3.266-9.37-3.266-6.147 0-9.365 3.94-9.365 7.826 0 3.81 2.4 5.73 8.557 6.866l2.835.526c1.882.348 2.839 1.178 2.839 2.465 0 1.104-1.561 2.7-4.383 2.7-2.422 0-5.287-1.344-7.135-3.34a.226.226 0 00-.17-.073.209.209 0 00-.169.07l-3.413 3.478a.217.217 0 00-.065.174c0 .064.029.124.078.165 3.287 2.791 6.765 4.143 10.635 4.143 3.24 0 5.917-.934 7.74-2.704a7.557 7.557 0 002.347-5.365c.013-3.548-2.06-5.652-6.33-6.444zm22.987-10.487a9.843 9.843 0 00-7.51 3.174v-2.313a.235.235 0 00-.23-.235h-5a.235.235 0 00-.234.235v31.305c.002.127.106.23.234.23h5a.23.23 0 00.23-.23v-10.283c1.544 1.952 4.214 3.104 7.27 3.104 7.5 0 12.54-6.46 12.54-12.491 0-6.144-4.6-12.496-12.3-12.496zm-.627 5.179a7.317 7.317 0 010 14.63c-3.834 0-7.073-3.348-7.073-7.313s3.239-7.317 7.073-7.317zm28.813-5.179c-8.49 0-13.07 6.44-13.07 12.496s4.566 12.474 13.07 12.474c4.179-.048 8.083-2.091 10.996-5.761a.23.23 0 00.048-.191.235.235 0 00-.117-.157l-4.23-2.356a.23.23 0 00-.3.065c-1.74 2.296-3.988 3.513-6.544 3.513-3.5 0-6.461-2.461-6.857-5.652h19.07a.23.23 0 00.23-.23v-.914c-.009-9.156-7.2-13.287-12.296-13.287zm-.673 4.892c3.087 0 5.517 1.847 6.556 4.965h-12.839c.822-3.07 3.209-4.965 6.27-4.965h.013zm40.278-4.27h-4.713a.235.235 0 00-.23.235v2.195c-1.705-2-4.157-3.043-7.127-3.043-6.013 0-12.104 4.209-12.104 12.252 0 7.952 5.8 12.109 11.53 12.109a10 10 0 007.7-3.248v.948c0 4.565-3.87 6.643-7.46 6.643-2.174 0-4.3-1.4-5.292-2.787a.24.24 0 00-.17-.087.226.226 0 00-.173.044l-4.087 2.978a.24.24 0 00-.096.161.248.248 0 00.052.178 12.93 12.93 0 0010 4.7 12.648 12.648 0 008.605-3.234c2.482-2.279 3.795-5.43 3.795-9.13v-20.675a.235.235 0 00-.23-.239zm-11.635 18.557c-3.913 0-6.787-2.953-6.787-7.027a6.891 6.891 0 016.787-6.956c3.687 0 6.691 3.152 6.691 7.026 0 3.96-2.878 6.96-6.691 6.96v-.003zm40.213-18.557h-5a.235.235 0 00-.235.235v2.248c-1.539-1.957-4.208-3.109-7.265-3.109-7.504 0-12.543 6.46-12.543 12.496 0 6.139 4.604 12.49 12.304 12.49 2.987 0 5.809-1.195 7.504-3.151v2.295c.003.128.107.23.235.23h5a.235.235 0 00.235-.23v-23.265a.235.235 0 00-.235-.239zM179.13 243.1a7.317 7.317 0 010-14.63c3.835 0 7.079 3.352 7.079 7.317 0 3.965-3.266 7.313-7.079 7.313zm30.344-19.048a5.326 5.326 0 00-2.865-.76 5.126 5.126 0 00-4.43 2.608v-1.74a.235.235 0 00-.236-.234h-4.708a.235.235 0 00-.235.235v23.27c.002.127.107.23.235.23h5a.23.23 0 00.23-.23v-15.396a3.183 3.183 0 013.23-3.274 3.478 3.478 0 011.74.622.24.24 0 00.365-.105l1.765-4.93a.235.235 0 00-.091-.296z"/><path d="M.76 193.935h93.914c53.478 0 96.86-43.365 96.86-96.861S148.158.217 94.662.217H.748L.76 193.935z" opacity=".45"/><path d="M1.213.217H.778v193.718h.435c53.478 0 96.86-43.365 96.86-96.861S54.71.217 1.214.217z"/></g></svg>