<svg width="539" height="134" viewBox="0 0 539 134" xmlns="http://www.w3.org/2000/svg"><g fill="#550FED"><path d="M0 133.828h64.626c36.823 0 66.674-29.851 66.674-66.675C131.3 30.33 101.45.48 64.626.48H0v133.349z" opacity=".45"/><path d="M.3.485H0v133.343h.311c36.824 0 66.675-29.851 66.675-66.675C66.986 30.33 37.135.48.31.48M229.374 33.1H218.38a.521.521 0 00-.521.522v20.104c-3.39-4.282-9.241-6.803-15.943-6.803-16.47 0-27.548 14.182-27.548 27.423 0 13.481 10.103 27.43 27.003 27.43 6.552 0 12.745-2.624 16.47-6.912v5.019a.521.521 0 00.52.52h11.014a.521.521 0 00.521-.52V33.622a.521.521 0 00-.52-.521zm-26.59 57.29c-8.672 0-15.727-7.186-15.727-16.044s7.055-16.044 15.727-16.044c8.414 0 15.517 7.348 15.517 16.044 0 8.696-7.127 16.044-15.541 16.044h.024zm64.446-43.467c-18.637 0-28.693 14.128-28.693 27.423 0 13.295 10.056 27.43 28.7 27.43 9.168-.109 17.738-4.6 24.14-12.65a.521.521 0 00-.155-.778l-9.29-5.168a.515.515 0 00-.664.143c-3.785 5.037-8.744 7.702-14.373 7.702-7.678 0-14.17-5.39-15.044-12.355h41.844a.515.515 0 00.515-.521v-2.006c.018-20.153-15.769-29.22-26.98-29.22zm-1.479 10.744c6.767 0 12.098 4.054 14.373 10.888h-28.147c1.826-6.732 7.054-10.888 13.774-10.888zm86.468 30.795l-9.583-5.696a.521.521 0 00-.706.168c-3.15 4.947-7.475 7.456-12.859 7.456-9.145 0-16.044-6.893-16.044-16.044s6.9-16.044 16.044-16.044c5.39 0 9.583 2.443 12.865 7.468a.515.515 0 00.7.162l9.583-5.696a.527.527 0 00.161-.742c-5.845-8.463-13.475-12.577-23.326-12.577-18.632 0-28.693 14.128-28.693 27.423 0 13.295 10.061 27.43 28.693 27.43 9.486 0 18.427-4.828 23.356-12.577a.551.551 0 00.066-.402.545.545 0 00-.257-.33zm33.495-41.539c-18.637 0-28.692 14.128-28.692 27.423 0 13.295 10.055 27.43 28.692 27.43 18.638 0 28.687-14.135 28.687-27.43s-10.055-27.423-28.687-27.423zm0 43.467c-9.15 0-16.044-6.893-16.044-16.044s6.893-16.044 16.044-16.044S401.76 65.2 401.76 74.346s-6.9 16.044-16.045 16.044z"/><rect x="423.702" y="33.101" width="11.99" height="67.303" rx="1.13"/><path d="M498.964 48.294h-10.971a.521.521 0 00-.521.521v4.911c-3.39-4.282-9.241-6.803-15.943-6.803-16.47 0-27.549 14.182-27.549 27.423 0 13.481 10.104 27.43 27.004 27.43 6.552 0 12.745-2.624 16.47-6.912v5.019a.521.521 0 00.52.52h10.972a.521.521 0 00.521-.52V48.815a.521.521 0 00-.503-.52zm-26.59 42.096c-8.672 0-15.727-7.186-15.727-16.044s7.055-16.044 15.727-16.044c8.384 0 15.517 7.348 15.517 16.044 0 8.696-7.103 16.044-15.517 16.044zm66.333-41.802a11.798 11.798 0 00-6.295-1.665 11.235 11.235 0 00-9.72 5.72v-3.828a.521.521 0 00-.52-.52h-10.338a.521.521 0 00-.52.52v51.068c0 .287.233.52.52.52h10.996a.521.521 0 00.521-.52V66.117a6.977 6.977 0 017.079-7.186 7.69 7.69 0 013.785 1.36.521.521 0 00.814-.228l3.911-10.87a.521.521 0 00-.233-.605z"/></g></svg>