<svg width="539" height="121" viewBox="0 0 539 121" xmlns="http://www.w3.org/2000/svg"><g fill="#FFF"><path d="M162.314 113.073l-.38.386h-3.453l-.38-.386-8.814-23.374v-2.68l.386-.381h2.295l.386.38 7.66 21.069h.387l7.66-21.069.387-.38h2.3l.38.38v2.68zm15.826-21.841h-3.067l-.38-.38v-3.067l.38-.38h3.066l.38.38v3.067l-.38.38zm0 22.239h-3.067l-.38-.386v-18.4l.38-.386h3.066l.38.386v18.388l-.38.398zm14.677-.398l-.386.386h-3.447l-.387-.386-6.513-15.708v-2.68l.386-.386h2.3l.38.386 5.367 13.408h.38l5.367-13.408.38-.386h2.3l.38.386v2.68zm13.519-21.841h-3.061l-.386-.38v-3.067l.386-.38h3.06l.387.38v3.067l-.386.38zm0 22.239h-3.061l-.386-.386v-18.4l.386-.386h3.06l.387.386v18.388l-.386.398zm15.824-15.737h-1.913a8.035 8.035 0 00-2.072.252 3.459 3.459 0 00-1.568.9 4.167 4.167 0 00-.995 1.757 9.785 9.785 0 00-.346 2.832v9.58l-.386.387h-3.06l-.387-.387v-18.37l.386-.386h2.68l.381.386.386 1.527h.38c.281-.277.576-.538.885-.784a4.746 4.746 0 011.035-.614 5.9 5.9 0 011.323-.38 9.932 9.932 0 011.756-.135h1.533l.386.386v2.68l-.404.369zm23.223 15.339l-.387.386h-3.447l-.386-.386-6.484-15.708v-2.68l.38-.386h2.3l.38.386 5.367 13.408h.351l5.367-13.408.38-.386h2.3l.386.386v2.68zm13.524-21.841h-3.066l-.38-.38v-3.067l.38-.38h3.066l.38.38v3.067l-.38.38zm0 22.239h-3.066l-.38-.386v-18.4l.38-.386h3.066l.38.386v18.388l-.38.398zm19.664-.011h-2.692l-.38-.387-.387-1.533h-.38a6.438 6.438 0 01-1.264 1.17 8.38 8.38 0 01-1.65.784 7.242 7.242 0 01-2.453.363c-2.118 0-3.733-.542-4.845-1.627a6.004 6.004 0 01-1.668-4.5 5.852 5.852 0 01.614-2.745 5.197 5.197 0 011.72-1.914 8.146 8.146 0 012.664-1.112 15.216 15.216 0 013.43-.362c.485 0 .941 0 1.363.058.421.059.784.082 1.088.135.305.052.69.14 1.001.187l.38-.38v-.767c0-1.354-.3-2.267-.9-2.739-.602-.472-1.577-.708-2.927-.708a5.66 5.66 0 00-2.926.585 1.914 1.914 0 00-.907 1.697l-.387.38H264l-.38-.38a5.9 5.9 0 01.38-2.03 4.758 4.758 0 011.287-1.862 6.777 6.777 0 012.376-1.34 12.98 12.98 0 017.24 0c.914.3 1.734.835 2.376 1.551a6.122 6.122 0 011.287 2.628c.27 1.226.398 2.479.38 3.734v10.727l-.374.386zm-3.453-8.048l-.38-.386a20.134 20.134 0 01-.808-.187c-.31-.076-.585-.1-.977-.135a11.816 11.816 0 00-1.282-.058c-1.74 0-3.004.267-3.792.801a2.575 2.575 0 00-1.17 2.265 2.34 2.34 0 00.86 2.066c.78.463 1.682.677 2.586.615a5.741 5.741 0 003.64-1.054 3.353 3.353 0 001.34-2.78l-.017-1.147zm11.986 9.961a5.086 5.086 0 01-.457 2.241 4.63 4.63 0 01-1.205 1.551 4.916 4.916 0 01-1.756.901c-.64.19-1.304.288-1.972.287h-1.92l-.38-.38v-2.686l.38-.38h1.92a1.85 1.85 0 001.053-.328c.353-.296.534-.749.48-1.206V94.685l.38-.386h3.067l.38.386.03 20.688zm-.38-24.141h-3.067l-.38-.38v-3.067l.38-.38h3.066l.38.38v3.067l-.38.38zm19.652 22.228h-2.68l-.381-.387-.386-1.533h-.363c-.366.446-.791.84-1.264 1.17a8.193 8.193 0 01-1.662.767c-.791.26-1.62.383-2.453.363-2.118 0-3.733-.543-4.845-1.627a6.004 6.004 0 01-1.668-4.5 5.852 5.852 0 01.614-2.746 5.162 5.162 0 011.727-1.913 8.041 8.041 0 012.662-1.112 15.134 15.134 0 013.424-.363c.486 0 .942 0 1.364.058.421.059.784.082 1.088.135.305.053.69.14 1.001.187l.38-.38v-.767c0-1.354-.3-2.266-.9-2.739-.602-.472-1.577-.708-2.927-.708a5.66 5.66 0 00-2.926.586 1.914 1.914 0 00-.901 1.726l-.387.38h-3.06l-.387-.38a5.77 5.77 0 01.387-2.03 4.682 4.682 0 011.281-1.862 6.777 6.777 0 012.376-1.34 12.98 12.98 0 017.24 0c.914.3 1.733.834 2.376 1.55a6.045 6.045 0 011.281 2.629c.276 1.225.405 2.478.387 3.733v10.728l-.398.374zm-3.447-8.048l-.38-.386a20.134 20.134 0 01-.808-.187c-.31-.076-.586-.1-.978-.135a11.816 11.816 0 00-1.281-.058c-1.74 0-3.005.267-3.793.801a2.575 2.575 0 00-1.17 2.265 2.34 2.34 0 00.86 2.066c.78.463 1.682.677 2.587.615a5.741 5.741 0 003.64-1.054 3.353 3.353 0 001.34-2.78l-.017-1.147zm24.251 8.048h-3.06l-.386-.387v-11.12a10.856 10.856 0 00-.112-1.527 4.19 4.19 0 00-.52-1.498 3.172 3.172 0 00-1.17-1.13 4.056 4.056 0 00-2.055-.439c-1.74 0-3.004.504-3.792 1.51-.789 1.007-1.179 2.675-1.17 5.004v9.194l-.381.386h-3.067l-.38-.386V94.685l.38-.386h2.68l.387.386.38 1.527h.386a5.69 5.69 0 011.17-1.17 7.333 7.333 0 011.552-.784 6.122 6.122 0 012.241-.363 8.492 8.492 0 013.389.585c.88.372 1.656.95 2.265 1.686a6.7 6.7 0 011.24 2.551c.265 1.044.395 2.118.386 3.196v11.119l-.362.427zm20.806 0h-2.698l-.38-.387-.387-1.533h-.38a5.852 5.852 0 01-1.17 1.17 7.608 7.608 0 01-1.552.784 6.28 6.28 0 01-2.247.363 8.193 8.193 0 01-3.582-.743 7.795 7.795 0 01-2.639-2.072 8.93 8.93 0 01-1.65-3.16 14.56 14.56 0 010-7.97 8.831 8.831 0 011.65-3.161 7.725 7.725 0 012.64-2.072 8.193 8.193 0 013.581-.743 6.157 6.157 0 012.247.363 7.608 7.608 0 011.551.784c.444.333.838.727 1.17 1.17h.381v-9.235l.386-.38h3.061l.386.38v26.055l-.368.386zm-3.447-9.581c0-2.298-.447-3.958-1.34-4.98a4.582 4.582 0 00-3.64-1.534 4.424 4.424 0 00-3.64 1.668c-.896 1.106-1.341 2.727-1.341 4.846 0 2.118.445 3.734 1.34 4.846a4.424 4.424 0 003.64 1.668 4.582 4.582 0 003.64-1.534c.92-1.024 1.34-2.68 1.34-4.98zm7.397 0c-.02-1.405.193-2.803.632-4.138a8.779 8.779 0 011.82-3.142 7.883 7.883 0 012.891-1.996 11.172 11.172 0 017.702 0 7.883 7.883 0 012.89 1.996 8.866 8.866 0 011.821 3.142 13.858 13.858 0 010 8.276 8.966 8.966 0 01-1.82 3.142 7.801 7.801 0 01-2.891 1.99c-2.485.92-5.217.92-7.702 0a7.801 7.801 0 01-2.89-1.99 8.878 8.878 0 01-1.821-3.142 12.694 12.694 0 01-.632-4.138zm3.833 0c0 2.118.459 3.734 1.376 4.846a5.595 5.595 0 007.97 0c.921-1.112 1.382-2.728 1.382-4.846 0-2.119-.463-3.74-1.382-4.846a5.595 5.595 0 00-7.97 0c-.92 1.106-1.376 2.727-1.376 4.846z"/><path d="M.322 113.371H55.1c30.983-.315 55.935-25.521 55.935-56.507C111.035 25.88 86.083.672 55.1.357H.322v113.014z" opacity=".45"/><path d="M.585.363H.322V113.37h.263c30.985-.314 55.935-25.52 55.935-56.506C56.52 25.88 31.57.672.585.357m194.719 7.251h-9.323a.433.433 0 00-.433.433v17.124c-2.873-3.646-7.854-5.794-13.548-5.794-13.987 0-23.41 12.044-23.41 23.293 0 11.453 8.58 23.298 22.936 23.298 5.571 0 10.839-2.236 13.999-5.853v4.278c0 .24.193.436.433.44h9.323a.445.445 0 00.439-.44v-56.3a.439.439 0 00-.44-.432m-22.59 48.68c-7.422-.154-13.359-6.215-13.359-13.64 0-7.423 5.937-13.484 13.36-13.638 7.151 0 13.19 6.244 13.19 13.636 0 7.391-6.039 13.642-13.19 13.642m54.924-36.993c-15.801 0-24.37 12.003-24.37 23.292 0 11.29 8.545 23.298 24.376 23.298 7.79-.093 15.075-3.903 20.483-10.744a.427.427 0 00.088-.352.439.439 0 00-.217-.298l-7.889-4.39a.421.421 0 00-.556.118c-3.213 4.284-7.438 6.548-12.208 6.548-6.525 0-12.044-4.582-12.781-10.534h35.553a.44.44 0 00.439-.433v-1.703c0-17.118-13.414-24.82-22.942-24.82m-1.252 9.118c5.759 0 10.288 3.447 12.226 9.259H214.64c1.563-5.73 6.01-9.259 11.705-9.259m55.498 10.453l-9.417-1.797c-3.61-.632-5.267-1.949-5.267-4.144 0-3.271 3.886-5.033 7.544-5.033 3.815 0 7.643 1.592 11.37 4.735a.45.45 0 00.329.105.445.445 0 00.292-.158l5.267-6.548a.421.421 0 00.07-.305.433.433 0 00-.18-.298c-5.912-4.208-11.296-6.087-17.464-6.087-11.465 0-17.464 7.345-17.464 14.631 0 7.1 4.472 10.687 15.954 12.8l5.267.982c3.511.644 5.267 2.19 5.267 4.595 0 2.054-2.926 5.033-8.193 5.033-4.512 0-9.861-2.505-13.308-6.227a.433.433 0 00-.627 0l-6.361 6.437a.433.433 0 00.023.638c6.128 5.197 12.612 7.725 19.828 7.725 6.04 0 11.032-1.755 14.432-5.044a14.075 14.075 0 004.465-10.02c0-6.59-3.868-10.534-11.827-11.991M324.7 19.342c-5.642 0-10.576 2.095-14 5.917v-4.32a.433.433 0 00-.433-.432h-9.322a.433.433 0 00-.434.433V79.3a.433.433 0 00.434.438h9.322a.433.433 0 00.433-.439V60.14c2.88 3.646 7.854 5.793 13.554 5.793 13.988 0 23.41-12.044 23.41-23.298 0-11.447-8.58-23.292-22.941-23.292m-1.17 9.656c7.422.154 13.358 6.215 13.358 13.64 0 7.423-5.936 13.484-13.359 13.638-7.151 0-13.191-6.244-13.191-13.642 0-7.397 6.04-13.636 13.191-13.636m53.678-9.657c-15.802 0-24.37 12.003-24.37 23.292 0 11.29 8.545 23.298 24.376 23.298 7.79-.093 15.075-3.903 20.483-10.744a.427.427 0 00.088-.352.439.439 0 00-.217-.298l-7.889-4.39a.421.421 0 00-.556.118c-3.213 4.284-7.438 6.548-12.202 6.548-6.525 0-12.05-4.582-12.787-10.534h35.558a.44.44 0 00.44-.433v-1.703c0-17.118-13.414-24.82-22.942-24.82m-1.252 9.118c5.759 0 10.288 3.447 12.225 9.259h-23.93c1.563-5.73 6.01-9.259 11.705-9.259m75.144-7.959h-8.779a.439.439 0 00-.439.433v4.097c-3.172-3.728-7.742-5.694-13.279-5.694-11.219 0-22.578 7.848-22.578 22.824 0 14.818 10.815 22.578 21.502 22.578 5.852 0 10.294-1.879 14.355-6.057v1.756c0 8.515-7.21 12.389-13.905 12.389-4.038 0-8.023-2.616-9.867-5.197a.439.439 0 00-.287-.176.404.404 0 00-.321.077l-7.608 5.56a.41.41 0 00-.176.292c-.017.12.017.24.094.333a24.1 24.1 0 0018.622 8.779 23.58 23.58 0 0016.04-6.034c4.63-4.249 7.076-10.124 7.076-16.972V20.94a.433.433 0 00-.433-.433M429.427 55.11c-7.333 0-12.653-5.512-12.653-13.103 0-7.175 5.677-13.01 12.653-13.01 6.876 0 12.471 5.853 12.471 13.098 0 7.42-5.36 13.015-12.471 13.015m74.963-34.627h-9.323a.439.439 0 00-.44.433v4.249c-2.873-3.646-7.847-5.794-13.548-5.794-13.987 0-23.409 12.044-23.409 23.293 0 11.453 8.58 23.298 22.935 23.298 5.572 0 10.839-2.236 14-5.853v4.278a.445.445 0 00.438.44h9.323a.439.439 0 00.433-.44V20.94a.433.433 0 00-.433-.433m-22.59 35.769c-7.423-.154-13.36-6.215-13.36-13.639 0-7.424 5.937-13.485 13.36-13.639 7.146 0 13.191 6.245 13.191 13.636 0 7.392-6.045 13.642-13.191 13.642m56.639-35.518a9.978 9.978 0 00-5.343-1.416 9.545 9.545 0 00-8.264 4.88V20.94a.433.433 0 00-.433-.433h-8.778a.433.433 0 00-.44.433v43.389a.44.44 0 00.44.439h9.322a.439.439 0 00.433-.44V35.653a5.934 5.934 0 016.04-6.115 6.578 6.578 0 013.225 1.17.416.416 0 00.386.076.433.433 0 00.292-.269l3.319-9.235a.439.439 0 00-.176-.51"/></g></svg>