<svg width="539" height="114" viewBox="0 0 539 114" xmlns="http://www.w3.org/2000/svg"><g fill="#550FED"><path d="M.182 113.442H54.99c31.224 0 56.536-25.312 56.536-56.536C111.526 25.68 86.214.369 54.99.369H.182v113.073z" opacity=".45"/><path d="M.445.375H.182v113.073h.263c31.224 0 56.537-25.312 56.537-56.537C56.982 25.687 31.669.375.445.375M195.27 27.712h-9.333a.434.434 0 00-.433.433v17.108c-2.877-3.645-7.857-5.795-13.557-5.795-13.997 0-23.394 12.052-23.394 23.306 0 11.46 8.583 23.306 22.949 23.306 5.571 0 10.838-2.232 14.002-5.859v4.283c0 .24.194.434.433.434h9.333a.434.434 0 00.434-.434V28.122a.434.434 0 00-.434-.434m-22.603 48.704c-7.427-.154-13.367-6.22-13.367-13.648 0-7.43 5.94-13.494 13.367-13.648 7.154 0 13.2 6.251 13.2 13.645 0 7.393-6.046 13.65-13.2 13.65m54.926-36.933c-15.819 0-24.378 12.01-24.378 23.306 0 11.296 8.542 23.306 24.384 23.306 7.798-.088 15.08-3.902 20.505-10.745a.434.434 0 00-.129-.65l-7.88-4.37a.445.445 0 00-.586.117c-3.21 4.288-7.434 6.555-12.203 6.555-6.533 0-12.058-4.587-12.796-10.545h35.598a.434.434 0 00.433-.44v-1.699c0-17.13-13.416-24.835-22.948-24.835m-1.254 9.122c5.76 0 10.294 3.451 12.233 9.269H214.61c1.564-5.736 6.017-9.269 11.717-9.269m55.523 10.44l-9.42-1.798c-3.61-.627-5.273-1.945-5.273-4.142 0-3.275 3.89-5.039 7.551-5.039 3.82 0 7.617 1.6 11.378 4.74.09.075.205.113.322.105a.416.416 0 00.293-.164l5.273-6.544a.457.457 0 00.094-.334.44.44 0 00-.182-.293c-5.911-4.212-11.301-6.093-17.47-6.093-11.478 0-17.477 7.347-17.477 14.606 0 7.107 4.476 10.698 15.959 12.807l5.273.99c3.515.645 5.273 2.191 5.273 4.593 0 2.057-2.93 5.039-8.202 5.039-4.518 0-9.867-2.508-13.317-6.234a.41.41 0 00-.31-.134.398.398 0 00-.317.128l-6.369 6.445a.441.441 0 00.03.639c6.128 5.196 12.613 7.721 19.831 7.721 6.047 0 11.038-1.757 14.442-5.044a14.09 14.09 0 004.382-10.007c0-6.59-3.872-10.516-11.834-11.998m42.95-19.551c-5.648 0-10.58 2.098-14.008 5.923v-4.317a.434.434 0 00-.434-.44h-9.327a.434.434 0 00-.433.44V99.45c0 .24.194.434.433.434h9.327c.24 0 .434-.194.434-.434V80.264c2.882 3.65 7.862 5.794 13.563 5.794 13.99 0 23.393-12.051 23.393-23.306 0-11.453-8.583-23.305-22.948-23.305m-1.172 9.66c7.427.154 13.368 6.22 13.368 13.648 0 7.43-5.94 13.494-13.368 13.648-7.153 0-13.2-6.251-13.2-13.65 0-7.4 6.047-13.645 13.2-13.645m53.742-9.65c-15.818 0-24.384 12.01-24.384 23.306 0 11.296 8.566 23.306 24.384 23.306 7.792-.088 15.08-3.902 20.505-10.745a.434.434 0 00-.128-.65l-7.886-4.37a.44.44 0 00-.586.117c-3.217 4.288-7.44 6.555-12.21 6.555-6.526 0-12.051-4.587-12.79-10.545h35.575a.434.434 0 00.433-.44v-1.699c0-17.13-13.416-24.835-22.948-24.835m-1.254 9.122c5.76 0 10.294 3.451 12.233 9.269h-23.962c1.564-5.736 6.011-9.269 11.717-9.269m75.197-7.956h-8.788a.434.434 0 00-.434.434v4.1c-3.181-3.731-7.75-5.7-13.293-5.7-11.22 0-22.586 7.851-22.586 22.85 0 14.828 10.821 22.584 21.514 22.584 5.858 0 10.3-1.874 14.365-6.057v1.757c0 8.513-7.218 12.391-13.92 12.391-4.037 0-8.02-2.613-9.866-5.196a.463.463 0 00-.287-.182.445.445 0 00-.328.082l-7.617 5.56a.451.451 0 00-.175.293.44.44 0 00.093.328 24.114 24.114 0 0018.637 8.788 23.599 23.599 0 0016.047-6.034c4.634-4.248 7.077-10.13 7.077-16.99V41.057a.434.434 0 00-.433-.434M429.524 75.25c-7.335 0-12.66-5.513-12.66-13.112 0-7.177 5.683-13.018 12.66-13.018 6.884 0 12.485 5.859 12.485 13.106 0 7.423-5.366 13.024-12.485 13.024m74.986-34.626h-9.327a.434.434 0 00-.434.434v4.195c-2.882-3.645-7.862-5.795-13.557-5.795-13.996 0-23.4 12.052-23.4 23.306 0 11.46 8.584 23.306 22.95 23.306 5.57 0 10.838-2.232 14.007-5.859v4.283c0 .24.194.434.434.434h9.327c.24 0 .433-.194.433-.434V41.081a.434.434 0 00-.433-.433m-22.603 35.79c-7.427-.153-13.368-6.219-13.368-13.647 0-7.43 5.94-13.494 13.368-13.648 7.153 0 13.2 6.251 13.2 13.645 0 7.393-6.047 13.65-13.2 13.65m56.648-35.562a9.96 9.96 0 00-5.35-1.418 9.567 9.567 0 00-8.266 4.88v-3.274a.434.434 0 00-.433-.44h-8.788a.44.44 0 00-.44.44V84.47a.445.445 0 00.44.44h9.327a.44.44 0 00.433-.44V55.763a5.94 5.94 0 016.023-6.11c1.161.096 2.275.5 3.228 1.171a.422.422 0 00.387.076.41.41 0 00.293-.27l3.322-9.238a.44.44 0 00-.176-.51"/></g></svg>