<svg width="210" height="271" viewBox="0 0 210 271" xmlns="http://www.w3.org/2000/svg"><g fill="#550FED"><path d="M1.233 212.019h102.75c58.539 0 105.994-47.456 105.994-105.994S162.522.032 103.984.032H1.233v211.987z" opacity=".3"/><path d="M1.725.04h-.492v211.98h.492c58.538 0 105.994-47.456 105.994-105.994S60.263.041 1.725.041zm25.823 236.497h-5.496a.257.257 0 00-.257.262v10.066c-1.698-2.145-4.63-3.405-7.985-3.405-8.246 0-13.787 7.1-13.787 13.734 0 6.774 5.058 13.733 13.525 13.733 3.28 0 6.377-1.31 8.247-3.46v2.512a.257.257 0 00.257.262h5.496a.262.262 0 00.262-.262v-33.18a.262.262 0 00-.262-.262zm-13.313 28.69a8.034 8.034 0 010-16.068c4.209 0 7.768 3.681 7.768 8.035 0 4.353-3.56 8.034-7.768 8.034zm32.281-21.767c-9.33 0-14.366 7.077-14.366 13.734 0 6.656 5.036 13.733 14.37 13.733 4.594-.05 8.888-2.299 12.09-6.322a.262.262 0 00-.076-.389l-4.652-2.592a.262.262 0 00-.334.072c-1.893 2.525-4.38 3.857-7.19 3.857-3.843 0-7.095-2.71-7.528-6.187h20.95a.262.262 0 00.262-.262V258.1c.023-10.102-7.908-14.641-13.526-14.641zm-.74 5.379c3.391 0 6.06 2.027 7.203 5.446H38.875c.921-3.364 3.54-5.446 6.9-5.446zm43.304 15.422l-4.809-2.854a.262.262 0 00-.352.086c-1.576 2.48-3.744 3.735-6.436 3.735a8.034 8.034 0 010-16.069c2.71 0 4.8 1.224 6.436 3.74a.262.262 0 00.352.081l4.81-2.854a.257.257 0 00.08-.37c-2.926-4.237-6.746-6.296-11.678-6.296-9.335 0-14.37 7.077-14.37 13.734 0 6.656 5.035 13.733 14.37 13.733a13.874 13.874 0 0011.683-6.322.262.262 0 00-.085-.362v.018zm16.774-20.801c-9.33 0-14.366 7.077-14.366 13.734 0 6.656 5.035 13.733 14.366 13.733 9.33 0 14.37-7.077 14.37-13.733 0-6.657-5.036-13.734-14.37-13.734zm0 21.768a8.034 8.034 0 118.034-8.034 7.858 7.858 0 01-8.034 8.034z"/><rect x="124.88" y="236.537" width="6.002" height="33.704" rx=".45"/><path d="M162.58 244.146h-5.505a.262.262 0 00-.261.262v2.457c-1.694-2.145-4.63-3.405-7.98-3.405-8.247 0-13.788 7.1-13.788 13.734 0 6.774 5.058 13.733 13.521 13.733 3.279 0 6.381-1.31 8.247-3.46v2.512c0 .144.117.262.261.262h5.506a.257.257 0 00.257-.262v-25.57a.258.258 0 00-.257-.263zm-13.317 21.082a8.034 8.034 0 110-16.069c4.213 0 7.772 3.681 7.772 8.035 0 4.353-3.568 8.034-7.781 8.034h.009zm33.211-20.937a5.916 5.916 0 00-3.161-.831 5.627 5.627 0 00-4.868 2.863v-1.915a.262.262 0 00-.258-.262h-5.17a.262.262 0 00-.263.262v25.57c0 .145.117.263.262.263h5.496a.262.262 0 00.262-.262V253.07a3.491 3.491 0 013.54-3.613 3.85 3.85 0 011.898.682.262.262 0 00.234.05.285.285 0 00.177-.163l1.955-5.446a.266.266 0 00-.104-.289z"/></g></svg>