<svg width="539" height="142" viewBox="0 0 539 142" xmlns="http://www.w3.org/2000/svg"><g fill="#550FED"><path d="M.305 133.585h64.56c36.78 0 66.595-29.815 66.595-66.595S101.644.395 64.865.395H.305v133.19z" opacity=".45"/><path d="M.636.395H.325v133.19h.311c36.78 0 66.596-29.815 66.596-66.595S37.416.395.636.395m228.76 8.902h-10.958a.522.522 0 00-.522.522v20.09c-3.385-4.276-9.227-6.79-15.909-6.79-16.45 0-27.497 14.16-27.497 27.364 0 13.465 10.086 27.395 26.97 27.395 6.54 0 12.726-2.622 16.45-6.904v5.014c0 .288.233.522.52.522h10.96a.522.522 0 00.52-.522V9.806a.522.522 0 00-.534-.509zm-26.555 57.228c-8.667 0-15.712-7.19-15.712-16.03-.064-8.754 6.958-15.915 15.712-16.023 8.4 0 15.495 7.337 15.495 16.023 0 8.687-7.063 16.03-15.495 16.03zm64.387-43.419c-18.613 0-28.636 14.109-28.636 27.364s10.042 27.395 28.636 27.395c9.157-.108 17.723-4.594 24.112-12.631a.515.515 0 00.102-.427.496.496 0 00-.255-.35l-9.278-5.142a.522.522 0 00-.636.14c-3.774 5.04-8.731 7.7-14.338 7.7-7.636 0-14.146-5.377-15.018-12.345h41.765a.515.515 0 00.515-.522V52.29c0-20.135-15.769-29.184-26.969-29.184zm-1.476 10.73c6.758 0 12.09 4.047 14.363 10.869H252c1.82-6.72 7.045-10.87 13.752-10.87zM352.12 64.59l-9.59-5.688a.528.528 0 00-.707.165c-3.144 4.951-7.465 7.458-12.842 7.458-9.132 0-16.024-6.891-16.024-16.03 0-9.138 6.892-16.023 16.024-16.023 5.377 0 9.545 2.437 12.848 7.458a.515.515 0 00.7.16l9.59-5.69a.547.547 0 00.242-.337c.03-.142 0-.29-.083-.408-5.835-8.444-13.459-12.549-23.297-12.549-18.614 0-28.636 14.109-28.636 27.364s10.041 27.396 28.636 27.396a27.676 27.676 0 0023.31-12.575.515.515 0 00.064-.401.554.554 0 00-.236-.3zm33.453-41.484c-18.614 0-28.637 14.109-28.637 27.364s10.042 27.395 28.637 27.395c18.594 0 28.636-14.114 28.636-27.395 0-13.28-10.023-27.364-28.636-27.364zm0 43.42c-9.138 0-16.024-6.892-16.024-16.03 0-9.139 6.886-16.024 16.024-16.024 9.138 0 16.023 6.885 16.023 16.023 0 9.139-6.885 16.03-16.023 16.03z"/><rect x="423.519" y="9.297" width="11.976" height="67.219" rx="1.06"/><path d="M498.686 24.475h-10.958a.522.522 0 00-.522.515v4.92c-3.379-4.277-9.227-6.79-15.909-6.79-16.45 0-27.503 14.158-27.503 27.363 0 13.465 10.092 27.395 26.975 27.395 6.542 0 12.727-2.622 16.444-6.904v5.014c0 .288.233.522.522.522h10.958a.522.522 0 00.522-.522V24.99a.516.516 0 00-.529-.515zm-26.555 42.05c-8.661 0-15.706-7.19-15.706-16.03 0-8.839 7.045-16.023 15.706-16.023 8.4 0 15.502 7.337 15.502 16.023 0 8.687-7.102 16.03-15.502 16.03zm66.233-41.758a11.728 11.728 0 00-6.288-1.66 11.225 11.225 0 00-9.704 5.727v-3.819a.515.515 0 00-.522-.515h-10.303a.515.515 0 00-.522.515v51.011c0 .289.234.522.522.522h10.958a.522.522 0 00.522-.522V42.3a7 7 0 017.064-7.197 7.732 7.732 0 013.818 1.362.522.522 0 00.815-.23l3.9-10.856a.515.515 0 00-.26-.61zM189.776 132.873l-.432.426h-3.876l-.433-.426-9.908-26.282v-3.016l.433-.427h2.584l.432.427 8.617 23.698h.426l8.616-23.692.433-.426h2.584l.433.426v3.016zm17.679-24.558h-3.443l-.433-.432v-3.443l.433-.433h3.443l.432.433v3.443l-.432.432zm0 24.984h-3.443l-.433-.426V112.19l.433-.426h3.443l.432.426v20.682l-.432.426zm16.348-.426l-.427.426h-3.881l-.427-.426-7.324-17.691v-2.991l.432-.426h2.584l.426.426 6.033 15.082h.433l6.033-15.076.426-.426h2.584l.432.426v2.985zm19.817.859c-1.55.033-3.09-.253-4.525-.84a8.845 8.845 0 01-3.227-2.33 9.692 9.692 0 01-1.909-3.55 14.89 14.89 0 01-.636-4.455c-.005-1.45.192-2.893.585-4.289a10.13 10.13 0 011.788-3.57 8.546 8.546 0 013.08-2.437 11.455 11.455 0 018.91 0 8.597 8.597 0 013.041 2.412 10.24 10.24 0 011.788 3.57c.392 1.396.587 2.84.58 4.289v1.273l-.427.432h-14.216l-.433.427c.02.398.071.793.153 1.183.122.615.362 1.201.706 1.725a5.09 5.09 0 001.667 1.61c.934.51 1.992.75 3.055.693.427 0 .852-.036 1.273-.108a4.582 4.582 0 001.202-.388c.393-.19.745-.453 1.038-.776a4.6 4.6 0 00.814-1.33l.433-.427h3.443l.432.427a7.14 7.14 0 01-.795 2.456 6.898 6.898 0 01-1.725 2.068 8.203 8.203 0 01-2.628 1.426c-1.12.357-2.292.529-3.468.509zm4.74-13.364a8.667 8.667 0 00-.178-1.368 4.824 4.824 0 00-.637-1.718 4.455 4.455 0 00-1.546-1.47 6.612 6.612 0 00-5.606 0 4.455 4.455 0 00-1.547 1.47 4.71 4.71 0 00-.668 1.718 8.81 8.81 0 00-.153 1.355l.433.433h9.47l.432-.42zm20.675-4.728h-2.157a8.705 8.705 0 00-2.323.28 3.884 3.884 0 00-1.769 1.012 4.808 4.808 0 00-1.12 1.979 11.11 11.11 0 00-.388 3.182v10.78l-.426.426h-3.45l-.426-.426V112.19l.427-.426h3.016l.433.426.426 1.724h.433c.314-.313.645-.608.993-.884.355-.28.747-.512 1.164-.687a6.81 6.81 0 011.483-.433 11.785 11.785 0 011.96-.146h1.724l.433.426v2.99l-.433.459zm25.85 17.233l-.433.426h-3.882l-.426-.426-7.325-17.691v-2.991l.433-.426h2.583l.433.426 6.027 15.082h.432l6.033-15.076.426-.426h2.59l.427.426v2.985zm15.075-24.558h-3.45l-.432-.432v-3.443l.433-.433h3.449l.426.433v3.443l-.426.432zm0 24.984h-3.45l-.432-.426V112.19l.433-.426h3.449l.426.426v20.682l-.426.426zm21.967.001h-3.016l-.433-.427-.426-1.725h-.433a6.93 6.93 0 01-1.419 1.273 9.705 9.705 0 01-1.852.884 8.107 8.107 0 01-2.762.408c-2.38 0-4.2-.637-5.447-1.833a6.758 6.758 0 01-1.877-5.06 6.472 6.472 0 01.693-3.08 5.835 5.835 0 011.91-2.156 9.03 9.03 0 012.997-1.273c1.265-.284 2.56-.42 3.856-.407.541 0 1.057 0 1.527.063.471.064.885.096 1.229.153.343.057.776.153 1.12.21l.432-.426v-.866c0-1.519-.337-2.545-1.011-3.08-.675-.534-1.765-.793-3.271-.776a6.364 6.364 0 00-3.297.636 2.138 2.138 0 00-1.012 1.91l-.432.432h-3.443l-.433-.433a6.53 6.53 0 01.433-2.278 5.32 5.32 0 011.438-2.094 7.636 7.636 0 012.673-1.508 14.592 14.592 0 018.139 0c1.028.338 1.95.94 2.673 1.744a6.873 6.873 0 011.444 2.953c.308 1.378.453 2.788.433 4.2v12.09l-.433.465zm-3.875-9.044l-.433-.432c-.26-.058-.56-.128-.904-.217-.343-.089-.68-.108-1.1-.146a13.586 13.586 0 00-1.439-.07c-1.953 0-3.379.305-4.27.904a2.902 2.902 0 00-1.336 2.545 2.647 2.647 0 00.974 2.323c.875.524 1.89.766 2.908.693a6.415 6.415 0 004.092-1.19 3.767 3.767 0 001.508-3.118v-1.292zm13.351 11.2a5.727 5.727 0 01-.516 2.546 5.148 5.148 0 01-1.355 1.743 5.485 5.485 0 01-1.91 1.012 7.776 7.776 0 01-2.214.325h-2.157l-.433-.446v-3.016l.433-.433h2.113c.422.001.834-.125 1.183-.362.395-.333.596-.843.535-1.356v-23.278l.433-.426h3.442l.433.426.013 23.265zm-.433-27.14h-3.443l-.432-.433v-3.443l.432-.433h3.443l.433.433v3.443l-.433.432zm21.974 24.984h-3.017l-.432-.427-.433-1.725h-.427c-.412.49-.892.918-1.425 1.273a9.348 9.348 0 01-1.852.884 8.07 8.07 0 01-2.755.408c-2.385 0-4.2-.611-5.448-1.833a6.74 6.74 0 01-1.877-5.06 6.472 6.472 0 01.694-3.08 5.778 5.778 0 011.909-2.156 9.03 9.03 0 012.997-1.273 16.792 16.792 0 013.857-.407c.54 0 1.05 0 1.527.063.477.064.884.096 1.228.153.344.057.776.153 1.12.21l.426-.426v-.866c0-1.519-.337-2.545-1.011-3.08-.675-.534-1.763-.793-3.265-.776a6.32 6.32 0 00-3.296.636 2.145 2.145 0 00-1.019 1.91l-.426.432h-3.449l-.426-.433c.004-.778.149-1.55.426-2.278a5.333 5.333 0 011.445-2.094 7.636 7.636 0 012.672-1.508 14.592 14.592 0 018.14 0 6.204 6.204 0 012.672 1.744 6.95 6.95 0 011.445 2.953 18.13 18.13 0 01.426 4.2v12.09l-.426.465zm-3.882-9.044l-.427-.432c-.26-.058-.56-.128-.903-.217-.344-.089-.687-.108-1.101-.146-.48-.049-.962-.072-1.445-.07-1.953 0-3.372.305-4.263.904a2.902 2.902 0 00-1.337 2.545 2.647 2.647 0 00.974 2.323 4.957 4.957 0 002.902.693 6.446 6.446 0 004.098-1.19 3.78 3.78 0 001.502-3.118v-1.292zm27.141 9.044h-3.443l-.433-.427v-12.498a12.727 12.727 0 00-.127-1.719 4.563 4.563 0 00-.585-1.68 3.494 3.494 0 00-1.273-1.272 4.537 4.537 0 00-2.342-.522c-1.952 0-3.373.568-4.264 1.705-.89 1.137-1.336 3.01-1.336 5.62v10.366l-.433.426h-3.442l-.433-.426V112.19l.433-.426h3.016l.426.426.433 1.724h.433a6.255 6.255 0 011.33-1.272 8.59 8.59 0 011.75-.885 6.93 6.93 0 012.545-.407 9.545 9.545 0 013.818.687 6.605 6.605 0 012.546 1.91 7.445 7.445 0 011.4 2.863c.296 1.175.441 2.383.433 3.595v12.467l-.452.426zm23.265 0h-3.016l-.433-.427-.433-1.725h-.426a6.44 6.44 0 01-1.336 1.273 8.858 8.858 0 01-1.744.884 7 7 0 01-2.545.408 9.15 9.15 0 01-4.029-.84 8.642 8.642 0 01-2.971-2.33 9.927 9.927 0 01-1.852-3.55 16.246 16.246 0 010-8.96c.37-1.297 1-2.506 1.852-3.551a8.642 8.642 0 012.971-2.33 9.15 9.15 0 014.029-.84 7 7 0 012.545.408 8.527 8.527 0 011.744.885 6.44 6.44 0 011.336 1.272h.426v-10.302l.433-.427h3.45l.426.427v29.272l-.427.452zm-3.882-10.768c0-2.584-.502-4.455-1.508-5.6a5.148 5.148 0 00-4.092-1.725 4.97 4.97 0 00-4.091 1.878c-1.006 1.247-1.509 3.063-1.509 5.447s.503 4.2 1.509 5.447a4.99 4.99 0 004.091 1.877 5.167 5.167 0 004.092-1.724c1.006-1.15 1.508-3.017 1.508-5.6zm8.184 0c-.02-1.58.22-3.151.713-4.652a9.985 9.985 0 012.049-3.532 8.686 8.686 0 013.252-2.24 12.447 12.447 0 018.654 0 8.686 8.686 0 013.252 2.24 9.985 9.985 0 012.05 3.532 15.54 15.54 0 010 9.304 9.985 9.985 0 01-2.05 3.531 8.686 8.686 0 01-3.252 2.24 12.447 12.447 0 01-8.654 0 8.686 8.686 0 01-3.252-2.24 9.985 9.985 0 01-2.05-3.531 14.337 14.337 0 01-.712-4.652zm4.308 0c0 2.386.522 4.2 1.553 5.447a6.287 6.287 0 008.96 0c1.035-1.247 1.553-3.063 1.553-5.447s-.518-4.198-1.553-5.441a6.287 6.287 0 00-8.96 0c-1.031 1.273-1.54 3.054-1.54 5.44h-.013z"/></g></svg>