<svg width="42" height="56" viewBox="0 0 42 56" xmlns="http://www.w3.org/2000/svg"><g fill="#FFF" fill-rule="evenodd"><path d="M.987 7.233C23.837 2.45 35.398.046 35.673.02c.412-.04 1.68-.163 1.68 1.35v7.926H.977c-.433 0-.977-.09-.977-.995 0-.603.329-.96.987-1.068z" fill-opacity=".6"/><path d="M0 8.29c.023.638.35.97.977.995h39.366c.52 0 .942.422.942.942v43.878c0 .52-.422.942-.942.942H5.16A5.16 5.16 0 010 49.887V8.29zm9.83 34.818h10.645c6.064 0 10.98-5.121 10.98-11.44 0-6.318-4.916-11.44-10.98-11.44H9.83v22.88z" fill-rule="nonzero"/><path d="M9.83 43.108v-22.88 22.88zm.172-22.88h10.473c6.064 0 10.98 5.122 10.98 11.44 0 6.319-4.916 11.44-10.98 11.44H10.002c6.25-.064 11.296-5.161 11.296-11.44 0-6.278-5.046-11.375-11.296-11.44z" fill-opacity=".6" fill-rule="nonzero"/></g></svg>