<svg width="233" height="86" viewBox="0 0 233 86" xmlns="http://www.w3.org/2000/svg"><g fill="none" fill-rule="evenodd"><path d="M95.033 59.332H92.54l-.117.122v4.761c-.77-1.016-2.1-1.613-3.622-1.613-3.742 0-6.254 3.352-6.254 6.487 0 3.188 2.295 6.487 6.135 6.487 1.487 0 2.899-.623 3.741-1.639v1.192l.117.12h2.493l.117-.12V59.454l-.117-.122zm-6.04 13.555c-1.972 0-3.575-1.704-3.575-3.798 0-2.094 1.603-3.796 3.575-3.796 1.912 0 3.528 1.74 3.528 3.796 0 2.06-1.616 3.798-3.528 3.798zm14.448-9.946c-4.216 0-6.49 3.255-6.49 6.318 0 3.062 2.274 6.317 6.493 6.317 2.076-.022 4.016-1.06 5.462-2.912l.022-.098-.056-.078-2.1-1.192-.152.032c-.855 1.163-1.978 1.776-3.251 1.776-1.736 0-3.207-1.242-3.405-2.849h9.47l.117-.12v-.461c-.003-4.645-3.575-6.733-6.11-6.733m-.336 2.472c1.534 0 2.742.934 3.254 2.51h-6.38c.418-1.551 1.604-2.51 3.126-2.51" fill="#FFBDC0" fill-rule="nonzero"/><path d="M118.255 68.243l-2.623-.488c-1.003-.17-1.475-.528-1.475-1.125 0-.887 1.085-1.365 2.1-1.365 1.064 0 2.13.43 3.167 1.283l.088.028.085-.044 1.472-1.773.025-.088-.05-.082c-1.645-1.141-3.145-1.65-4.862-1.65-3.194 0-4.864 1.99-4.864 3.958 0 1.924 1.245 2.9 4.443 3.471l1.472.268c.977.176 1.471.594 1.471 1.245 0 .56-.811 1.365-2.276 1.365-1.255 0-2.745-.676-3.704-1.686l-.085-.038-.088.035-1.77 1.751-.035.089.044.084c1.704 1.41 3.509 2.095 5.518 2.095 1.682 0 3.072-.475 4.019-1.368.776-.73 1.22-1.72 1.22-2.714.003-1.786-1.076-2.849-3.292-3.251" fill="#FFBDC0"/><path d="M129.817 62.941c-1.507 0-2.827.563-3.742 1.592v-1.16l-.117-.117h-2.493l-.116.116v15.694l.116.12h2.493l.117-.12v-5.154c.77.981 2.1 1.56 3.622 1.56 3.742 0 6.251-3.242 6.251-6.267.003-3.078-2.289-6.264-6.131-6.264m-.309 2.598c1.972 0 3.576 1.644 3.576 3.666 0 2.022-1.604 3.67-3.576 3.67-1.912 0-3.528-1.683-3.528-3.67 0-1.987 1.616-3.666 3.528-3.666m14.735-2.598c-4.217 0-6.49 3.255-6.49 6.318 0 3.062 2.273 6.317 6.493 6.317 2.075-.022 4.016-1.06 5.462-2.912l.022-.098-.057-.078-2.1-1.192-.148.032c-.855 1.163-1.98 1.776-3.251 1.776-1.739 0-3.21-1.242-3.405-2.849h9.47l.116-.12v-.461c-.002-4.645-3.574-6.733-6.112-6.733m-.334 2.472c1.535 0 2.743.934 3.258 2.51h-6.38c.415-1.551 1.6-2.51 3.122-2.51m20.725-2.138h-2.433l-.123.122v1.17c-.877-1.066-2.144-1.626-3.675-1.626-3.107 0-6.252 2.242-6.252 6.525 0 4.236 2.994 6.452 5.952 6.452 1.614 0 2.852-.534 3.978-1.729v.503c0 2.43-1.997 3.538-3.852 3.538-1.12 0-2.22-.746-2.732-1.485l-.079-.05-.091.025-2.11 1.588-.047.085.025.094a6.613 6.613 0 005.157 2.503c1.689 0 3.267-.613 4.44-1.723 1.283-1.214 1.959-2.893 1.959-4.858V63.397l-.117-.122zm-6.008 9.883c-2.029 0-3.503-1.573-3.503-3.742 0-2.05 1.572-3.717 3.503-3.717 1.905 0 3.452 1.68 3.452 3.745.003 2.116-1.481 3.714-3.452 3.714zm20.414-9.899h-2.495l-.116.12v1.135c-.77-.988-2.1-1.57-3.625-1.57-3.74 0-6.251 3.264-6.251 6.318 0 3.103 2.292 6.317 6.131 6.317 1.49 0 2.9-.607 3.742-1.594v1.16l.116.116h2.494l.116-.116V63.378l-.113-.119zm-6.045 9.697c-1.971 0-3.575-1.66-3.575-3.698 0-2.037 1.604-3.697 3.575-3.697 1.912 0 3.529 1.694 3.529 3.697 0 2.007-1.617 3.698-3.529 3.698z" fill="#FFBDC0" fill-rule="nonzero"/><path d="M189.9 63.335c-.434-.252-1.019-.394-1.642-.394-1.05 0-1.99.51-2.54 1.356v-.915l-.133-.117h-2.697l-.133.117V75.45l.133.123h2.864l.135-.123v-7.977c0-1.104.953-1.698 1.85-1.698.244 0 .744.144.99.323l.12.022.088-.075 1.018-2.566-.053-.144z" fill="#FFBDC0"/><path d="M83.128 51.725h3.283a.157.157 0 00.154-.157v-6.207c1.013 1.324 2.764 2.1 4.767 2.1 4.924 0 8.23-4.37 8.23-8.448 0-4.154-3.023-8.45-8.073-8.45-1.959 0-3.81.809-4.924 2.132v-1.553a.154.154 0 00-.154-.154h-3.283a.154.154 0 00-.154.154v20.426c.003.085.073.157.154.157m7.953-17.659c2.597 0 4.707 2.217 4.707 4.947 0 2.729-2.11 4.946-4.707 4.946-2.516 0-4.642-2.264-4.642-4.946-.003-2.683 2.126-4.947 4.642-4.947m65.929 17.659h3.282a.157.157 0 00.154-.157v-6.207c1.01 1.324 2.764 2.1 4.767 2.1 4.924 0 8.232-4.37 8.232-8.448 0-4.154-3.019-8.45-8.071-8.45-1.96 0-3.812.809-4.925 2.132v-1.553a.154.154 0 00-.154-.154h-3.283a.154.154 0 00-.153.154v20.426c0 .085.065.157.15.157m7.952-17.659c2.598 0 4.708 2.217 4.708 4.947 0 2.729-2.11 4.946-4.708 4.946-2.515 0-4.64-2.264-4.64-4.946-.004-2.683 2.125-4.947 4.64-4.947" fill="#FF7B81" fill-rule="nonzero"/><path d="M126.807 36.896c-1.26-.223-1.849-.695-1.849-1.477 0-1.167 1.359-1.8 2.639-1.8 1.333 0 2.672.573 3.98 1.693l.114.034.103-.056 1.852-2.337.032-.116-.063-.104c-2.066-1.503-3.95-2.173-6.106-2.173-4.013 0-6.113 2.62-6.113 5.208 0 2.534 1.566 3.814 5.578 4.568l1.852.353c1.23.232 1.852.782 1.852 1.638 0 .736-1.016 1.798-2.858 1.798-1.576 0-3.45-.893-4.654-2.22l-.11-.05-.11.047-2.226 2.305-.041.116.053.114c2.142 1.852 4.409 2.754 6.934 2.754 2.113 0 3.858-.622 5.05-1.798.971-.966 1.534-2.268 1.534-3.572 0-2.352-1.355-3.755-4.138-4.283l-3.305-.642z" fill="#FF7B81"/><path d="M224.705 30.564c-5.547 0-8.543 4.282-8.543 8.313 0 4.031 2.993 8.314 8.546 8.314 2.736-.034 5.286-1.393 7.191-3.833l.035-.126-.079-.107-2.764-1.569-.198.044c-1.128 1.529-2.606 2.34-4.28 2.34-2.288 0-4.219-1.635-4.483-3.755h12.47a.155.155 0 00.152-.157v-.607c-.004-6.11-4.708-8.857-8.047-8.857m-.437 3.254c2.019 0 3.607 1.233 4.286 3.305h-8.396c.545-2.044 2.104-3.305 4.11-3.305m-106.262-2.839h-3.283a.153.153 0 00-.154.157v1.497c-1.01-1.305-2.764-2.07-4.767-2.07-4.924 0-8.232 4.299-8.232 8.314 0 4.088 3.022 8.314 8.072 8.314 1.959 0 3.811-.795 4.924-2.097v1.531c0 .085.07.154.154.154h3.283a.154.154 0 00.154-.154v-15.49a.15.15 0 00-.15-.156m-7.953 12.766c-2.597 0-4.707-2.185-4.707-4.868 0-2.685 2.11-4.867 4.707-4.867 2.515 0 4.641 2.226 4.641 4.867.003 2.639-2.126 4.868-4.641 4.868m42.629-12.766H149.4a.153.153 0 00-.154.157v1.497c-1.01-1.305-2.764-2.07-4.767-2.07-4.924 0-8.232 4.299-8.232 8.314 0 4.088 3.022 8.314 8.072 8.314 1.958 0 3.81-.795 4.924-2.097v1.531c0 .085.069.154.154.154h3.282a.155.155 0 00.155-.154v-15.49a.149.149 0 00-.151-.156m-7.95 12.766c-2.597 0-4.707-2.185-4.707-4.868 0-2.685 2.11-4.867 4.708-4.867 2.515 0 4.64 2.226 4.64 4.867 0 2.639-2.125 4.868-4.64 4.868" fill="#FF7B81" fill-rule="nonzero"/><path d="M202.034 31.082c-.456-.333-1.066-.515-1.72-.515-1.1 0-2.082.67-2.657 1.783v-1.198c0-.088-.063-.16-.141-.16h-2.824c-.08 0-.142.072-.142.16v15.885c0 .088.063.157.142.157h2.996c.08 0 .142-.069.142-.157V36.535c0-1.45.997-2.233 1.937-2.233.258 0 .78.189 1.038.422l.122.031.095-.097 1.065-3.384-.053-.192z" fill="#FF7B81"/><path d="M189.62 32.966c-1.604-1.62-3.528-2.402-5.874-2.402-2.314 0-4.289.808-5.873 2.402-1.607 1.613-2.422 3.6-2.422 5.908 0 2.311.812 4.299 2.422 5.912 1.584 1.594 3.559 2.402 5.873 2.402 2.346 0 4.267-.786 5.874-2.402 1.607-1.617 2.418-3.604 2.418-5.912 0-2.305-.811-4.292-2.418-5.908m-2.519 9.348c-.902.909-2.031 1.368-3.355 1.368-1.324 0-2.455-.462-3.355-1.368-.902-.905-1.358-2.063-1.358-3.437 0-1.374.456-2.528 1.358-3.436.903-.906 2.031-1.368 3.355-1.368 1.324 0 2.453.462 3.355 1.368.903.908 1.359 2.065 1.359 3.436.003 1.374-.456 2.532-1.359 3.437" fill="#FF7B81" fill-rule="nonzero"/><path d="M214.656 34.217v-3.613h-3.947V26.03l-3.597 1.082-.085.025v3.468H204.1v3.613h2.927v7.65c0 1.953.46 3.318 1.403 4.17.861.777 2.138 1.154 3.946 1.154.654 0 1.377-.047 2.173-.148l.107-.012v-3.38l-.126.006c-1.758.085-2.855.113-3.4-.415-.289-.28-.424-.717-.424-1.374v-7.65h3.95z" fill="#FF7B81"/><path d="M1.6 11.512C36.95 4.112 54.838.393 55.263.352c.638-.06 2.6-.251 2.6 2.091v12.26H1.588c-.67 0-1.513-.138-1.513-1.537 0-.934.51-1.485 1.525-1.654" fill="#FFBDC0"/><path d="M.075 13.15c.038.987.541 1.5 1.513 1.537h60.9c.806 0 1.46.651 1.46 1.456v67.882a1.46 1.46 0 01-1.46 1.459H8.06A7.985 7.985 0 01.075 77.5V13.15z" fill="#FF7B81"/><path d="M15.282 67.013h16.467c9.383 0 16.99-7.924 16.99-17.7 0-9.775-7.607-17.7-16.99-17.7l-16.467.004v35.396z" fill="#FFBFC3"/><path d="M15.364 31.617c-.029 0-.054.003-.082.003v35.393h.082c9.753 0 17.658-7.923 17.658-17.7 0-9.775-7.905-17.696-17.658-17.696" fill="#FFF"/></g></svg>