<svg width="232" height="80" viewBox="0 0 232 80" xmlns="http://www.w3.org/2000/svg"><g fill="none" fill-rule="evenodd"><path d="M89.2 53.32h-2.608a.125.125 0 00-.125.122v4.756c-.803-1.012-2.196-1.61-3.789-1.61-3.914 0-6.545 3.355-6.545 6.489 0 3.19 2.402 6.489 6.42 6.489 1.557 0 3.03-.62 3.914-1.635v1.188c0 .069.057.122.125.122H89.2a.125.125 0 00.125-.122V53.442a.125.125 0 00-.125-.122m-6.32 13.555c-2.062 0-3.738-1.703-3.738-3.795 0-2.093 1.679-3.795 3.739-3.795 2 0 3.688 1.738 3.688 3.795s-1.691 3.795-3.688 3.795m15.123-10.43c-4.414 0-6.795 3.381-6.795 6.56 0 3.182 2.381 6.56 6.798 6.56 2.173-.023 4.203-1.098 5.718-3.027a.124.124 0 00.024-.1.128.128 0 00-.063-.084l-2.2-1.238a.124.124 0 00-.157.032c-.896 1.206-2.072 1.843-3.4 1.843-1.818 0-3.354-1.289-3.562-2.956h9.909a.123.123 0 00.122-.125v-.479c0-4.816-3.739-6.986-6.394-6.986m-.351 2.572c1.601 0 2.866.97 3.405 2.605h-6.67c.437-1.614 1.676-2.605 3.265-2.605" fill="#FFBDC0" fill-rule="nonzero"/><path d="M118.783 66.384l-2.316-1.363a.124.124 0 00-.17.038c-.758 1.185-1.803 1.786-3.098 1.786-2.205 0-3.87-1.649-3.87-3.84 0-2.187 1.665-3.84 3.87-3.84 1.298 0 2.313.584 3.102 1.786a.125.125 0 00.17.04l2.315-1.364a.135.135 0 00.06-.08.129.129 0 00-.018-.099c-1.408-2.024-3.248-3.006-5.623-3.006-4.491 0-6.917 3.381-6.917 6.56 0 3.182 2.426 6.56 6.917 6.56 2.286 0 4.444-1.154 5.626-3.011a.118.118 0 00.015-.096.143.143 0 00-.063-.071" fill="#FFBDC0"/><path d="M127.013 56.445c-4.488 0-6.908 3.381-6.908 6.56 0 3.182 2.423 6.56 6.908 6.56 4.486 0 6.909-3.38 6.909-6.56 0-3.179-2.423-6.56-6.909-6.56m0 10.4c-2.202 0-3.863-1.649-3.863-3.84 0-2.187 1.66-3.84 3.863-3.84 2.202 0 3.863 1.65 3.863 3.84 0 2.188-1.66 3.84-3.863 3.84" fill="#FFBDC0" fill-rule="nonzero"/><path d="M138.806 69.568h-2.863c-.078 0-.14-.056-.14-.127V53.448c0-.071.062-.128.14-.128h2.863c.077 0 .14.057.14.128v15.993c0 .068-.063.127-.14.127" fill="#FFBDC0"/><path d="M153.897 56.773h-2.608a.126.126 0 00-.125.125v1.175c-.806-1.023-2.197-1.628-3.789-1.628-3.914 0-6.545 3.394-6.545 6.56 0 3.227 2.402 6.56 6.42 6.56 1.557 0 3.03-.628 3.914-1.651v1.2c0 .067.057.124.125.124h2.608a.126.126 0 00.125-.125V56.895a.125.125 0 00-.125-.122m-6.322 10.072c-2.063 0-3.739-1.72-3.739-3.84 0-2.116 1.68-3.84 3.739-3.84 2 0 3.687 1.76 3.687 3.84.003 2.081-1.687 3.84-3.687 3.84" fill="#FFBDC0" fill-rule="nonzero"/><path d="M164.01 56.853c-.416-.265-.975-.408-1.574-.408-1.003 0-1.902.527-2.429 1.405v-.94a.13.13 0 00-.13-.128h-2.587a.13.13 0 00-.131.128v12.53c0 .072.056.129.13.129h2.745a.13.13 0 00.131-.128v-8.284c0-1.146.911-1.762 1.771-1.762.235 0 .712.149.947.333a.127.127 0 00.116.024.136.136 0 00.086-.08l.976-2.667a.128.128 0 00-.05-.152" fill="#FFBDC0"/><path d="M84.37 31.01c2.408 0 4.364 2.058 4.364 4.59 0 2.534-1.956 4.59-4.364 4.59-2.333 0-4.304-2.101-4.304-4.59 0-2.485 1.97-4.59 4.304-4.59M77 47.398h3.042a.148.148 0 00.143-.146v-5.76c.938 1.23 2.563 1.95 4.42 1.95 4.563 0 7.632-4.054 7.632-7.84 0-3.855-2.8-7.84-7.483-7.84-1.815 0-3.533.75-4.566 1.979v-1.444a.143.143 0 00-.143-.145h-3.042a.145.145 0 00-.142.145v18.952a.144.144 0 00.14.149m91.375-16.388c2.408 0 4.363 2.058 4.363 4.59 0 2.534-1.955 4.59-4.363 4.59-2.331 0-4.304-2.101-4.304-4.59 0-2.485 1.97-4.59 4.304-4.59m-7.373 16.387h3.042a.148.148 0 00.143-.146v-5.76c.937 1.23 2.56 1.95 4.42 1.95 4.563 0 7.631-4.054 7.631-7.84 0-3.855-2.8-7.84-7.485-7.84-1.816 0-3.534.75-4.566 1.979v-1.444a.143.143 0 00-.143-.145h-3.042a.145.145 0 00-.143.145v18.952c.003.08.066.149.143.149" fill="#FF7B81" fill-rule="nonzero"/><path d="M117.493 33.639c-1.17-.208-1.715-.646-1.715-1.37 0-1.082 1.26-1.666 2.447-1.666 1.235 0 2.476.53 3.69 1.572l.105.032.095-.053 1.717-2.167.027-.107-.06-.099c-1.916-1.395-3.66-2.014-5.66-2.014-3.721 0-5.668 2.431-5.668 4.834 0 2.35 1.45 3.538 5.173 4.238l1.718.327c1.14.214 1.717.726 1.717 1.518 0 .685-.943 1.667-2.652 1.667-1.461 0-3.197-.83-4.316-2.06l-.1-.047-.102.041-2.063 2.137-.039.108.048.104c1.985 1.717 4.09 2.557 6.43 2.557 1.958 0 3.577-.58 4.681-1.67.902-.893 1.42-2.102 1.42-3.313 0-2.182-1.256-3.483-3.837-3.974l-3.056-.595zm15.084.161c-1.17-.209-1.714-.646-1.714-1.37 0-1.083 1.26-1.666 2.447-1.666 1.235 0 2.476.53 3.69 1.571l.105.033.095-.053 1.717-2.167.027-.108-.06-.098c-1.916-1.395-3.66-2.015-5.66-2.015-3.721 0-5.668 2.432-5.668 4.834 0 2.351 1.45 3.539 5.173 4.238l1.718.328c1.14.214 1.717.726 1.717 1.518 0 .684-.943 1.667-2.652 1.667-1.461 0-3.197-.83-4.316-2.06l-.101-.048-.101.042-2.063 2.137-.039.107.048.105c1.985 1.717 4.09 2.556 6.43 2.556 1.958 0 3.577-.58 4.681-1.67.902-.892 1.42-2.1 1.42-3.312 0-2.182-1.256-3.483-3.837-3.974l-3.057-.595z" fill="#FF7B81"/><path d="M223.357 30.782c1.87 0 3.346 1.143 3.974 3.065h-7.784c.506-1.899 1.953-3.065 3.81-3.065m.408-3.021c-5.143 0-7.92 3.976-7.92 7.712 0 3.738 2.777 7.715 7.923 7.715 2.536-.03 4.9-1.292 6.667-3.558l.03-.115-.071-.099-2.563-1.455-.181.039c-1.048 1.42-2.417 2.17-3.968 2.17-2.122 0-3.914-1.519-4.155-3.483h11.56c.075 0 .14-.065.14-.146v-.562c-.006-5.668-4.366-8.218-7.462-8.218M101.964 39.99c-2.408 0-4.363-2.023-4.363-4.515 0-2.49 1.955-4.518 4.363-4.518 2.33 0 4.304 2.07 4.304 4.518 0 2.447-1.973 4.516-4.304 4.516m7.37-11.843h-3.042a.144.144 0 00-.143.145v1.39c-.937-1.208-2.56-1.92-4.42-1.92-4.563 0-7.632 3.989-7.632 7.716 0 3.791 2.801 7.712 7.486 7.712 1.816 0 3.533-.738 4.566-1.947v1.42c0 .077.066.143.143.143h3.042a.145.145 0 00.143-.143V28.296c-.003-.086-.066-.148-.143-.148m40.29 11.842c-2.408 0-4.364-2.023-4.364-4.515 0-2.49 1.956-4.518 4.364-4.518 2.33 0 4.304 2.07 4.304 4.518 0 2.447-1.974 4.516-4.304 4.516m7.37-11.843h-3.042a.143.143 0 00-.143.145v1.39c-.938-1.208-2.56-1.92-4.42-1.92-4.563 0-7.632 3.989-7.632 7.716 0 3.791 2.8 7.712 7.486 7.712 1.815 0 3.533-.738 4.566-1.947v1.42c0 .077.062.143.143.143h3.042a.145.145 0 00.142-.143V28.296c-.003-.086-.065-.148-.142-.148" fill="#FF7B81" fill-rule="nonzero"/><path d="M202.748 28.243c-.422-.31-.988-.48-1.595-.48-1.018 0-1.932.623-2.465 1.655v-1.113c0-.083-.056-.149-.13-.149h-2.62c-.071 0-.131.066-.131.15v14.739c0 .08.057.146.131.146h2.78c.074 0 .131-.063.131-.146V33.3c0-1.349.926-2.075 1.795-2.075.24 0 .723.176.961.39l.113.027.087-.09.988-3.137-.045-.172z" fill="#FF7B81"/><path d="M188.901 38.666c-.836.843-1.884 1.268-3.11 1.268s-2.274-.428-3.11-1.268c-.837-.842-1.26-1.914-1.26-3.19 0-1.274.423-2.349 1.26-3.191.836-.84 1.88-1.268 3.11-1.268s2.274.429 3.11 1.268c.837.842 1.262 1.917 1.262 3.19 0 1.275-.425 2.35-1.262 3.191m2.337-8.673c-1.488-1.5-3.271-2.23-5.444-2.23-2.146 0-3.977.75-5.444 2.23-1.491 1.494-2.244 3.343-2.244 5.482 0 2.143.753 3.99 2.244 5.483 1.467 1.48 3.3 2.23 5.444 2.23 2.176 0 3.956-.73 5.444-2.23 1.491-1.497 2.242-3.342 2.242-5.483 0-2.14-.754-3.985-2.242-5.482" fill="#FF7B81" fill-rule="nonzero"/><path d="M214.449 31.15V27.8h-3.661v-4.247l-3.334 1.006-.077.024V27.8h-2.715v3.352h2.715v7.099c0 1.812.425 3.077 1.3 3.866.798.72 1.983 1.071 3.658 1.071.608 0 1.277-.044 2.015-.136l.099-.012v-3.135l-.116.007c-1.628.077-2.646.104-3.152-.384-.268-.26-.393-.667-.393-1.275v-7.098h3.66v-.003z" fill="#FF7B81"/><path d="M1.414 10.384C34.188 3.517 50.77.067 51.166.029c.592-.057 2.41-.232 2.41 1.94v11.376H1.403C.78 13.345 0 13.218 0 11.917c0-.867.47-1.378 1.414-1.533" fill="#FFBDC0"/><path d="M0 11.902c.033.917.5 1.39 1.402 1.429h56.854c.53 0 .958.428.958.958v63.768c0 .53-.428.958-.958.958H5.25a5.25 5.25 0 01-5.251-5.25V11.902z" fill="#FF7B81"/><path d="M14.097 61.88h15.269c8.697 0 15.749-7.352 15.749-16.421 0-9.07-7.052-16.422-15.749-16.422h-15.27V61.88z" fill="#FFBDC0"/><path d="M14.174 29.037h-.077V61.88h.077c9.043 0 16.374-7.352 16.374-16.421 0-9.07-7.331-16.422-16.374-16.422" fill="#FFF"/></g></svg>