<svg width="231" height="85" viewBox="0 0 231 85" xmlns="http://www.w3.org/2000/svg"><g fill="#FFF" fill-rule="evenodd"><path d="M94.218 58.822h-2.473l-.115.122v4.72c-.764-1.007-2.082-1.6-3.591-1.6-3.71 0-6.2 3.324-6.2 6.432 0 3.16 2.275 6.431 6.081 6.431 1.475 0 2.875-.617 3.71-1.624v1.181l.115.119h2.473l.115-.119v-15.54l-.115-.122zm-5.989 13.44c-1.955 0-3.545-1.69-3.545-3.766s1.59-3.763 3.545-3.763c1.895 0 3.498 1.724 3.498 3.763 0 2.042-1.603 3.766-3.498 3.766zm14.324-9.861c-4.18 0-6.434 3.227-6.434 6.263s2.254 6.263 6.437 6.263c2.058-.022 3.981-1.05 5.415-2.887l.022-.096-.056-.078-2.082-1.182-.15.031c-.848 1.154-1.96 1.762-3.223 1.762-1.721 0-3.18-1.232-3.376-2.825h9.39l.114-.118v-.458c-.003-4.605-3.544-6.675-6.057-6.675m-.333 2.45c1.521 0 2.718.926 3.226 2.488h-6.325c.415-1.537 1.59-2.488 3.099-2.488" fill-rule="nonzero" opacity=".6"/><path d="M117.24 67.657l-2.6-.483c-.995-.168-1.463-.524-1.463-1.116 0-.88 1.076-1.353 2.083-1.353 1.054 0 2.11.427 3.14 1.272l.086.028.085-.044 1.459-1.758.024-.087-.05-.081c-1.63-1.132-3.117-1.637-4.819-1.637-3.167 0-4.823 1.973-4.823 3.925 0 1.908 1.235 2.874 4.405 3.441l1.46.265c.969.175 1.458.59 1.458 1.235 0 .555-.804 1.353-2.257 1.353-1.244 0-2.721-.67-3.672-1.671l-.084-.037-.088.034-1.755 1.736-.034.088.044.084c1.69 1.396 3.479 2.076 5.47 2.076 1.669 0 3.046-.47 3.985-1.356.77-.723 1.21-1.705 1.21-2.69.002-1.771-1.067-2.825-3.265-3.224" opacity=".6"/><path d="M128.702 62.401c-1.493 0-2.802.558-3.71 1.578v-1.15l-.115-.116h-2.472l-.115.115v15.56l.115.118h2.472l.116-.119v-5.11c.763.973 2.082 1.547 3.59 1.547 3.71 0 6.198-3.214 6.198-6.213.003-3.052-2.27-6.21-6.079-6.21m-.305 2.575c1.954 0 3.544 1.63 3.544 3.635s-1.59 3.638-3.544 3.638c-1.896 0-3.498-1.668-3.498-3.638s1.602-3.635 3.498-3.635m14.608-2.575c-4.18 0-6.435 3.227-6.435 6.263s2.255 6.263 6.438 6.263c2.057-.022 3.981-1.05 5.415-2.887l.022-.096-.056-.078-2.083-1.182-.146.031c-.848 1.154-1.964 1.762-3.224 1.762-1.724 0-3.182-1.232-3.376-2.825h9.39l.115-.118v-.458c-.003-4.605-3.544-6.675-6.06-6.675m-.33 2.45c1.52 0 2.718.926 3.23 2.488h-6.326c.411-1.537 1.587-2.488 3.095-2.488m20.547-2.119h-2.413l-.121.121v1.16c-.87-1.057-2.126-1.612-3.644-1.612-3.08 0-6.198 2.223-6.198 6.469 0 4.199 2.968 6.397 5.901 6.397 1.6 0 2.828-.53 3.944-1.715v.499c0 2.41-1.98 3.507-3.819 3.507-1.11 0-2.2-.739-2.709-1.471l-.078-.05-.09.025-2.092 1.574-.047.084.025.094a6.556 6.556 0 005.113 2.481c1.674 0 3.239-.608 4.402-1.708 1.272-1.204 1.942-2.868 1.942-4.817V62.853l-.116-.121zm-5.957 9.798c-2.01 0-3.473-1.559-3.473-3.71 0-2.033 1.559-3.685 3.473-3.685 1.889 0 3.423 1.665 3.423 3.713.003 2.098-1.469 3.682-3.423 3.682zm20.238-9.814h-2.472l-.116.118v1.126c-.763-.98-2.082-1.556-3.594-1.556-3.706 0-6.197 3.236-6.197 6.263 0 3.077 2.273 6.263 6.079 6.263 1.477 0 2.874-.602 3.71-1.58v1.15l.115.115h2.472l.115-.115V62.834l-.112-.118zm-5.992 9.614c-1.954 0-3.544-1.646-3.544-3.666s1.59-3.666 3.544-3.666c1.896 0 3.498 1.68 3.498 3.666 0 1.989-1.602 3.666-3.498 3.666z" fill-rule="nonzero" opacity=".6"/><path d="M188.27 62.79c-.43-.249-1.01-.389-1.628-.389a2.974 2.974 0 00-2.519 1.344v-.907l-.13-.116h-2.675l-.131.116v11.964l.13.122h2.84l.135-.122v-7.909c0-1.094.945-1.683 1.833-1.683.243 0 .739.143.982.321l.118.022.088-.075 1.01-2.544-.053-.143z" opacity=".6"/><path d="M82.415 51.281h3.254a.156.156 0 00.153-.155v-6.154c1.004 1.312 2.74 2.082 4.726 2.082 4.882 0 8.158-4.333 8.158-8.376 0-4.118-2.995-8.377-8.002-8.377-1.942 0-3.778.801-4.882 2.114v-1.54a.153.153 0 00-.153-.153h-3.254a.153.153 0 00-.153.153v20.25c.003.085.072.156.153.156m7.884-17.507c2.575 0 4.667 2.198 4.667 4.904s-2.092 4.903-4.667 4.903c-2.494 0-4.601-2.244-4.601-4.903-.004-2.66 2.107-4.904 4.6-4.904m65.364 17.507h3.254a.156.156 0 00.153-.155v-6.154c1 1.312 2.74 2.082 4.726 2.082 4.882 0 8.162-4.333 8.162-8.376 0-4.118-2.993-8.377-8.003-8.377-1.942 0-3.778.801-4.882 2.114v-1.54a.153.153 0 00-.153-.153h-3.254a.153.153 0 00-.153.153v20.25c0 .085.065.156.15.156m7.883-17.507c2.575 0 4.667 2.198 4.667 4.904s-2.092 4.903-4.667 4.903c-2.493 0-4.6-2.244-4.6-4.903-.004-2.66 2.107-4.904 4.6-4.904" fill-rule="nonzero"/><path d="M125.719 36.58c-1.25-.222-1.833-.69-1.833-1.466 0-1.156 1.347-1.783 2.615-1.783 1.322 0 2.65.568 3.947 1.678l.112.034.103-.056 1.836-2.317.031-.115-.062-.103c-2.048-1.49-3.915-2.154-6.054-2.154-3.978 0-6.06 2.597-6.06 5.163 0 2.512 1.552 3.78 5.53 4.53l1.836.348c1.22.231 1.836.777 1.836 1.624 0 .73-1.007 1.784-2.833 1.784-1.562 0-3.42-.886-4.614-2.201l-.11-.05-.108.047-2.207 2.285-.041.115.053.112c2.123 1.836 4.37 2.731 6.874 2.731 2.095 0 3.825-.617 5.006-1.783.964-.957 1.522-2.248 1.522-3.541 0-2.332-1.344-3.723-4.103-4.246l-3.276-.636z"/><path d="M222.776 30.301c-5.499 0-8.47 4.246-8.47 8.243 0 3.996 2.968 8.242 8.473 8.242 2.712-.034 5.24-1.381 7.13-3.8l.034-.125-.078-.106-2.74-1.555-.196.043c-1.12 1.515-2.585 2.32-4.243 2.32-2.27 0-4.184-1.621-4.446-3.723h12.364c.081 0 .15-.068.15-.155v-.602c-.003-6.057-4.667-8.782-7.978-8.782m-.433 3.227c2.001 0 3.576 1.222 4.249 3.276h-8.324c.54-2.026 2.086-3.276 4.075-3.276m-105.35-2.815h-3.254a.152.152 0 00-.153.156v1.484c-1-1.294-2.74-2.052-4.726-2.052-4.882 0-8.162 4.262-8.162 8.243 0 4.052 2.996 8.242 8.003 8.242 1.942 0 3.778-.789 4.882-2.08v1.519c0 .084.068.153.152.153h3.255a.153.153 0 00.153-.153V30.869c0-.09-.065-.156-.15-.156m-7.884 12.656c-2.575 0-4.667-2.166-4.667-4.825 0-2.663 2.092-4.826 4.667-4.826 2.494 0 4.602 2.207 4.602 4.826.003 2.615-2.108 4.825-4.602 4.825m42.263-12.656h-3.255a.152.152 0 00-.152.156v1.484c-1.001-1.294-2.74-2.052-4.726-2.052-4.882 0-8.162 4.262-8.162 8.243 0 4.052 2.996 8.242 8.003 8.242 1.942 0 3.778-.789 4.882-2.08v1.519c0 .084.068.153.152.153h3.255a.153.153 0 00.153-.153V30.869a.147.147 0 00-.15-.156m-7.88 12.656c-2.576 0-4.668-2.166-4.668-4.825 0-2.663 2.092-4.826 4.667-4.826 2.494 0 4.602 2.207 4.602 4.826 0 2.615-2.108 4.825-4.602 4.825" fill-rule="nonzero"/><path d="M200.3 30.816c-.452-.33-1.057-.512-1.705-.512-1.091 0-2.064.664-2.635 1.768v-1.188c0-.087-.062-.159-.14-.159h-2.8c-.078 0-.14.072-.14.16v15.748c0 .088.062.156.14.156h2.972c.077 0 .14-.068.14-.156V36.221c0-1.437.988-2.213 1.92-2.213.256 0 .773.187 1.029.418l.121.03.094-.096 1.057-3.354-.053-.19z"/><path d="M187.992 32.683c-1.59-1.606-3.498-2.382-5.823-2.382-2.295 0-4.252.801-5.823 2.382-1.594 1.6-2.4 3.57-2.4 5.858 0 2.29.804 4.261 2.4 5.86 1.571 1.58 3.528 2.382 5.823 2.382 2.325 0 4.23-.78 5.823-2.382s2.397-3.572 2.397-5.86c0-2.286-.804-4.256-2.397-5.858m-2.497 9.268c-.895.9-2.014 1.356-3.326 1.356-1.313 0-2.435-.458-3.326-1.356-.895-.898-1.347-2.045-1.347-3.407 0-1.363.452-2.507 1.347-3.408.895-.897 2.013-1.356 3.326-1.356 1.312 0 2.431.459 3.326 1.356.895.901 1.347 2.048 1.347 3.408.003 1.362-.452 2.51-1.347 3.407" fill-rule="nonzero"/><path d="M212.813 33.924v-3.582h-3.912v-4.536l-3.567 1.072-.084.025v3.439h-2.902v3.582h2.902v7.584c0 1.936.455 3.29 1.39 4.134.855.77 2.12 1.144 3.913 1.144.648 0 1.365-.047 2.154-.146l.106-.013v-3.351l-.125.006c-1.742.084-2.83.112-3.37-.411-.286-.278-.42-.711-.42-1.363v-7.584h3.915z"/><path d="M1.587 11.413C36.633 4.078 54.367.39 54.788.349c.633-.06 2.579-.25 2.579 2.073v12.155H1.574c-.664 0-1.5-.137-1.5-1.524 0-.926.506-1.472 1.513-1.64" opacity=".6"/><path d="M.075 13.037c.037.979.536 1.487 1.5 1.524h60.377c.798 0 1.447.646 1.447 1.444v67.298c0 .798-.649 1.447-1.447 1.447H7.99a7.916 7.916 0 01-7.915-7.915V13.037zM15.15 66.438h16.325c9.303 0 16.844-7.856 16.844-17.548 0-9.692-7.541-17.548-16.844-17.548l-16.325.003v35.093z" fill-rule="nonzero"/><path d="M15.279 66.438h-.128v-35.09l.08-.002c9.67 0 17.508 7.852 17.508 17.544 0 9.677-7.812 17.523-17.46 17.548h-.128V31.345l16.325-.003c9.303 0 16.844 7.856 16.844 17.548 0 9.692-7.541 17.548-16.844 17.548H15.28z" opacity=".6"/></g></svg>