<svg width="24" height="32" viewBox="0 0 24 32" xmlns="http://www.w3.org/2000/svg"><g fill="none" fill-rule="evenodd"><path d="M.564 4.133C13.62 1.4 20.228.026 20.384.011c.236-.022.96-.093.96.772v4.529H.559C.311 5.312 0 5.261 0 4.744c0-.345.188-.549.564-.61z" fill="#FFBCBF"/><path d="M0 4.737c.013.365.2.554.558.569h22.495c.297 0 .538.24.538.538v25.073a.538.538 0 01-.538.538H2.95A2.949 2.949 0 010 28.506V4.737z" fill="#FF7A80"/><path d="M5.617 24.633H11.7c3.465 0 6.274-2.926 6.274-6.537 0-3.61-2.809-6.537-6.274-6.537H5.617v13.074z" fill="#FFBCBF"/><path d="M5.647 11.559h-.03v13.074h.03c3.603 0 6.523-2.926 6.523-6.537 0-3.61-2.92-6.537-6.523-6.537" fill="#FFF"/></g></svg>