<svg width="68" height="69" viewBox="0 0 68 69" fill="none" xmlns="http://www.w3.org/2000/svg"><mask id="a" maskUnits="userSpaceOnUse" x="0" y="0" width="67" height="69"><path d="M37.79 66.915c-8.933 3.912-19.353.27-23.918-8.31l-.137-.261L2.16 35.746c-4.69-9.158-1.07-20.384 8.088-25.075 9.065-4.644 11.126-16.145 15.898-7.189l8.752 1.377 6.282 2.52 8.196 4.702c7.964-1.114 13.835 10.206 17.331 17.85l-4.688 8.959c4.086 9.33-3.133 18.604-12.362 22.825l-.281.126-11.587 5.073z" fill="#fff"/></mask><g mask="url(#a)"><path d="M41.903 44.775L30.317 49.85 18.742 27.252" stroke="#D3C4F6" stroke-width="37.26" stroke-linecap="round" stroke-linejoin="round"/><path fill-rule="evenodd" clip-rule="evenodd" d="M42.965 19.089c-.762.291.565 1.042 1.793 3.422 1.66 5.03-3.669-.45-2.442 2.388 3.09 7.151 5.645 15.227 1.815 16.584-2.995 1.06-6.086-1.006-6.086-1.006s.655 1.325-.001 2.478c-.768 1.276-1.97 2.03-1.917 2.099.054.069 15.041 7.727 15.041-9.033-.435-2.378-1.052-5.063-3.283-9.178-.347-.642.081-1.196.122-1.944.048-.859-.83-2.412-.936-2.58-1.512-2.396-3.344-3.521-4.106-3.23z" fill="#A780FF"/><path d="M46.6 41.886c-.873 0-1.135-.169-1.652-1.07m-1.614-13.51c3.224 8.774 3.637 10.659 1.747 13.196-.873 1.063-2.94 2.266-6.549 0" stroke="#270570" stroke-width=".5" stroke-linecap="round"/><path d="M36.394 45.187c5.33 3.032 14.169 3.328 14.774-6.848 0-5.143-1.425-7.417-3.144-10.943-.807-1.656.224-1.58-.3-3.395 0 0-.97-3.2-3.255-4.763m-.202 5.244s1.285.166.741-1.355" stroke="#270570" stroke-width=".5" stroke-linecap="round"/><path fill-rule="evenodd" clip-rule="evenodd" d="M14.043 38.282c2.238-4.214 9.08-2.876 9.08-2.876l7.52.262s2.86.309 5.54 1.684l.184.056-.002.038c2.104 1.123 4.918 1.208 7.758 3.822l-1.29 7.725-5.705-.755s-.092-.041-.1 0c-.04.2.929 7.844 1.505 11.273-2.792.973-17.68 1.534-20.096.366l-.369-3.135c-.095-1.074 1.134-8.271-.107-10.616-2.08-3.93-4.348-5.443-4.394-5.602.766-1.798.24-1.798.476-2.242z" fill="#fff"/><path d="M22.712 34.997s-6.692-.39-8.925 3.19c-2.232 3.582 4.169 8.46 4.169 8.46l.481 13.22M30.488 37.37s.614-1.592.541-2.191c0 0 3.876 1.565 7.84 2.989s5.278 2.648 5.278 2.648l-1.234 8.056s-4.044-1.446-4.38-.437c-1.02 3.059-.02 9.776-.02 9.68" stroke="#270570" stroke-width=".5" stroke-linecap="round" stroke-linejoin="round"/><mask id="b" maskUnits="userSpaceOnUse" x="23" y="25" width="10" height="15"><path fill-rule="evenodd" clip-rule="evenodd" d="M30.884 26.044c.185.116.336.417.378.706.566 3.96 1.043 7.294 1.372 9.233.033.19-.064.658-.233.935-1.857 2.961-6.776 2.82-8.343-.422-.142-.303-.216-.76-.19-.914.262-1.6.686-4.707 1.21-8.55.039-.28.18-.59.353-.725a4.757 4.757 0 012.915-.978 4.8 4.8 0 012.538.715z" fill="#fff"/></mask><g mask="url(#b)"><path fill-rule="evenodd" clip-rule="evenodd" d="M33.195 39.592h-9.888V24.775h9.888v14.817z" fill="#CEB7FE"/></g><path fill-rule="evenodd" clip-rule="evenodd" d="M30.884 26.044c.185.116.336.417.378.706.566 3.96 1.043 7.294 1.372 9.233.033.19-.064.658-.233.935-1.857 2.961-6.776 2.82-8.343-.422-.142-.303-.216-.76-.19-.914.262-1.6.686-4.707 1.21-8.55.039-.28.18-.59.353-.725a4.757 4.757 0 012.915-.978c.887 0 1.774.238 2.538.715z" fill="#A780FF"/><path fill-rule="evenodd" clip-rule="evenodd" d="M32.06 32.002s-2.116.412-4.543-.74c0 0 1.311 2.285 4.648 1.604l-.105-.864z" fill="#A780FF"/><mask id="c" maskUnits="userSpaceOnUse" x="24" y="25" width="8" height="4"><path fill-rule="evenodd" clip-rule="evenodd" d="M31.128 26.235l.119.81c-.663.672-1.848 1.273-3.226 1.309-1.354.038-2.467-.462-3.077-.978l.119-.85c.888-.799 2.05-1.198 3.212-1.198 1.011 0 2.022.302 2.853.907z" fill="#fff"/></mask><g mask="url(#c)"><path fill-rule="evenodd" clip-rule="evenodd" d="M31.804 28.899h-7.417v-4.115h7.417V28.9z" fill="#270570"/></g><mask id="d" maskUnits="userSpaceOnUse" x="34" y="19" width="4" height="5"><path fill-rule="evenodd" clip-rule="evenodd" d="M37.951 21.905a1.922 1.922 0 01-1.918 1.925 1.922 1.922 0 01-1.919-1.925c0-1.063.86-1.925 1.919-1.925 1.06 0 1.918.862 1.918 1.925z" fill="#fff"/></mask><g mask="url(#d)"><path fill-rule="evenodd" clip-rule="evenodd" d="M38.51 24.391h-4.955V19.42h4.956v4.972z" fill="#CEB7FE"/></g><mask id="e" maskUnits="userSpaceOnUse" x="19" y="19" width="5" height="5"><path fill-rule="evenodd" clip-rule="evenodd" d="M23 21.905a1.922 1.922 0 01-1.918 1.925 1.922 1.922 0 01-1.918-1.925c0-1.063.859-1.925 1.918-1.925 1.06 0 1.918.862 1.918 1.925z" fill="#fff"/></mask><g mask="url(#e)"><path fill-rule="evenodd" clip-rule="evenodd" d="M23.56 24.391h-4.955V19.42h4.955v4.972z" fill="#A780FF"/></g><path d="M36.056 23.83c1.047 0 1.896-.862 1.896-1.925 0-1.063-.85-1.925-1.896-1.925m-14.909 0c-1.047 0-1.896.862-1.896 1.925 0 1.063.85 1.925 1.896 1.925" stroke="#270570" stroke-width=".622" stroke-linecap="round" stroke-linejoin="round"/><mask id="f" maskUnits="userSpaceOnUse" x="20" y="10" width="18" height="23"><path fill-rule="evenodd" clip-rule="evenodd" d="M37.028 17.546v6.302c0 4.433-3.53 8.19-7.966 8.247-4.509.058-8.181-3.757-8.181-8.247v-6.302c0-2.55 3.067-6.675 8.18-6.675 5.114 0 7.967 4.472 7.967 6.675z" fill="#fff"/></mask><g mask="url(#f)"><path fill-rule="evenodd" clip-rule="evenodd" d="M37.58 32.648H20.329v-22.33H37.58v22.33z" fill="#A780FF"/></g><mask id="g" maskUnits="userSpaceOnUse" x="20" y="17" width="18" height="16"><path fill-rule="evenodd" clip-rule="evenodd" d="M23.997 23.859H37.05c0 4.426-3.53 8.178-7.966 8.236-4.508.058-8.181-3.752-8.181-8.236-.02-2.826-.02-4.186 0-4.082.075.388 2.163-1.376 2.567-2.127-1.055 2.827-.469 6.209.527 6.209z" fill="#fff"/></mask><g mask="url(#g)"><path fill-rule="evenodd" clip-rule="evenodd" d="M37.603 32.647H20.335V17.098h17.268v15.55z" fill="#270570"/></g><mask id="h" maskUnits="userSpaceOnUse" x="26" y="20" width="2" height="1"><path fill-rule="evenodd" clip-rule="evenodd" d="M27.669 20.39a.389.389 0 01-.778 0 .389.389 0 11.778 0z" fill="#fff"/></mask><g mask="url(#h)"><path fill-rule="evenodd" clip-rule="evenodd" d="M28.185 21.137h-1.652v-1.652h1.652v1.652z" fill="#270570"/></g><mask id="i" maskUnits="userSpaceOnUse" x="34" y="20" width="2" height="1"><path fill-rule="evenodd" clip-rule="evenodd" d="M35.348 20.39a.389.389 0 11-.778 0 .389.389 0 01.778 0z" fill="#fff"/></mask><g mask="url(#i)"><path fill-rule="evenodd" clip-rule="evenodd" d="M35.864 21.137h-1.652v-1.652h1.652v1.652z" fill="#270570"/></g><mask id="j" maskUnits="userSpaceOnUse" x="29" y="26" width="5" height="2"><path fill-rule="evenodd" clip-rule="evenodd" d="M33.345 26.513l-.704.9c-.46.539-2.668 1.019-3.62-.9h4.324z" fill="#fff"/></mask><g mask="url(#j)"><path fill-rule="evenodd" clip-rule="evenodd" d="M33.9 29.329h-5.434v-2.525h5.433v2.525z" fill="#fff"/></g><path d="M32.35 27.492c-.458.52-2.661.982-3.611-.867h4.314" stroke="#CEB7FE" stroke-width=".5" stroke-linecap="round" stroke-linejoin="round"/><path d="M31.356 19.679c.24.948.707 3.034.707 3.034H30.9" stroke="#270570" stroke-width=".622" stroke-linecap="round" stroke-linejoin="round"/><path d="M22.23 14.042c1.76-2.152 4.037-3.227 6.832-3.227 4.19 0 7.992 3.06 7.966 7.386a285.54 285.54 0 010 5.504c0 4.433-3.53 8.249-7.966 8.306-4.509.059-8.181-3.696-8.181-8.186v-7.35" stroke="#270570" stroke-width=".622" stroke-linecap="round" stroke-linejoin="round"/><mask id="k" maskUnits="userSpaceOnUse" x="20" y="10" width="20" height="10"><path fill-rule="evenodd" clip-rule="evenodd" d="M28.92 10.561h.101c6.322.073 7.502 6.145 10.792 6.145-.751 1.733-12.177 1.77-15.049-1.104-.311-.311-.732.916-1.323 2.143-.638 1.325-1.474 2.65-2.588 2.038v-1.93c0-3.94 3.611-7.292 8.066-7.292z" fill="#fff"/></mask><g mask="url(#k)"><path fill-rule="evenodd" clip-rule="evenodd" d="M40.365 20.49H20.301V10.009h20.064v10.48z" fill="#270570"/></g><mask id="l" maskUnits="userSpaceOnUse" x="33" y="10" width="5" height="5"><path fill-rule="evenodd" clip-rule="evenodd" d="M37.768 12.829a1.957 1.957 0 01-3.915 0 1.957 1.957 0 013.915 0z" fill="#fff"/></mask><g mask="url(#l)"><path fill-rule="evenodd" clip-rule="evenodd" d="M38.327 15.345h-5.033v-5.033h5.033v5.033z" fill="#270570"/></g><mask id="m" maskUnits="userSpaceOnUse" x="31" y="10" width="5" height="5"><path fill-rule="evenodd" clip-rule="evenodd" d="M35.319 12.336a1.957 1.957 0 01-3.915 0 1.957 1.957 0 013.915 0z" fill="#fff"/></mask><g mask="url(#m)"><path fill-rule="evenodd" clip-rule="evenodd" d="M35.878 14.853h-5.033V9.82h5.033v5.033z" fill="#270570"/></g><mask id="n" maskUnits="userSpaceOnUse" x="20" y="13" width="5" height="5"><path fill-rule="evenodd" clip-rule="evenodd" d="M24.085 15.595c0 1.084-2.575 1.888-2.84 1.753a1.965 1.965 0 01-1.075-1.753 1.96 1.96 0 011.958-1.964c1.08 0 1.957.88 1.957 1.964z" fill="#fff"/></mask><g mask="url(#n)"><path fill-rule="evenodd" clip-rule="evenodd" d="M24.644 17.924h-5.033V13.07h5.033v4.854z" fill="#270570"/></g><path d="M35.931 23.806c.967 0 1.75-.87 1.75-1.944 0-1.073-.783-1.943-1.75-1.943" stroke="#410062" stroke-width=".5" stroke-linecap="round" stroke-linejoin="round"/><path d="M20.963 19.919c-.966 0-1.75.87-1.75 1.944 0 1.073.784 1.944 1.75 1.944" stroke="#270570" stroke-width=".5" stroke-linecap="round"/><path fill-rule="evenodd" clip-rule="evenodd" d="M26.795 20.356a.34.34 0 10.68 0 .34.34 0 00-.68 0zm8.456 0a.34.34 0 11-.68 0 .34.34 0 01.68 0z" fill="#410062"/><path d="M31.14 19.627c.24.942.709 3.013.709 3.013h-1.166" stroke="#410062" stroke-width=".5" stroke-linecap="round" stroke-linejoin="round"/><path fill-rule="evenodd" clip-rule="evenodd" d="M20.288 50.245s-.88 1.973-.88 2.565c.613.2 1.275-.116 1.51-.72l.628-1.618-1.258-.227zm16.887.292s.875 1.908.895 2.527h-.243a1.386 1.386 0 01-1.253-.833l-.643-1.413 1.244-.281z" fill="#270570"/><path fill-rule="evenodd" clip-rule="evenodd" d="M40.403 24.876c1.879 0 3.402-1.654 3.402-3.694s-1.523-3.693-3.402-3.693c-1.88 0-3.402 1.653-3.402 3.693s1.523 3.694 3.402 3.694z" fill="#FFE3E0"/><path fill-rule="evenodd" clip-rule="evenodd" d="M40.305 17.489l-2.195.065c-1.572.327-2.762 1.851-2.762 3.682 0 1.761 1.1 3.238 2.583 3.64h1.59" fill="#FFE3E0"/><path d="M40.305 17.489l-2.195.065c-1.572.327-2.762 1.851-2.762 3.682 0 1.761 1.1 3.238 2.583 3.64H40.2" stroke="#270570" stroke-width=".5" stroke-linecap="round"/><path clip-rule="evenodd" d="M40.403 24.876c1.879 0 3.402-1.654 3.402-3.694s-1.523-3.693-3.402-3.693c-1.88 0-3.402 1.653-3.402 3.693s1.523 3.694 3.402 3.694z" stroke="#270570" stroke-width=".5" stroke-linecap="round"/><path fill-rule="evenodd" clip-rule="evenodd" d="M40.548 23.612c1.262 0 2.285-1.066 2.285-2.381 0-1.315-1.023-2.381-2.285-2.381-1.261 0-2.284 1.066-2.284 2.381 0 1.315 1.023 2.381 2.284 2.381z" fill="#4300D2" stroke="#270570" stroke-width=".5" stroke-linecap="round"/><path fill-rule="evenodd" clip-rule="evenodd" d="M26.872 19.141s-2.959.462-3.063 1.511c-.104 1.05.095 1.717.465 1.946.37.23 1.651 1.012 3.007 1.209" fill="#FBC3BE"/><path d="M26.872 19.141s-2.959.462-3.063 1.511c-.104 1.05.095 1.717.465 1.946.37.23 1.651 1.012 3.007 1.209" stroke="#270570" stroke-width=".5" stroke-linecap="round"/><path fill-rule="evenodd" clip-rule="evenodd" d="M31.266 24.876c1.879 0 3.402-1.654 3.402-3.694s-1.523-3.693-3.402-3.693c-1.88 0-3.402 1.653-3.402 3.693s1.523 3.694 3.402 3.694z" fill="#FFE3E0"/><path fill-rule="evenodd" clip-rule="evenodd" d="M31.169 17.489l-2.195.065c-1.573.327-2.763 1.851-2.763 3.682 0 1.761 1.1 3.238 2.584 3.64h1.589" fill="#FFE3E0"/><path d="M31.169 17.489l-2.195.065c-1.573.327-2.763 1.851-2.763 3.682 0 1.761 1.1 3.238 2.584 3.64h2.268" stroke="#270570" stroke-width=".5" stroke-linecap="round"/><path clip-rule="evenodd" d="M31.266 24.876c1.879 0 3.402-1.654 3.402-3.694s-1.523-3.693-3.402-3.693c-1.88 0-3.402 1.653-3.402 3.693s1.523 3.694 3.402 3.694z" stroke="#270570" stroke-width=".5" stroke-linecap="round"/><path fill-rule="evenodd" clip-rule="evenodd" d="M31.363 23.613c1.288 0 2.333-1.11 2.333-2.48 0-1.368-1.045-2.478-2.333-2.478-1.288 0-2.333 1.11-2.333 2.479s1.045 2.479 2.333 2.479z" fill="#4300D2" stroke="#270570" stroke-width=".5" stroke-linecap="round"/><path fill-rule="evenodd" clip-rule="evenodd" d="M36.029 20.965c-.143.385-.235.703-.235.703s-.545-.355-1.126 0v-.939s.785-.415 1.36.236z" fill="#FBC3BE" stroke="#270570" stroke-width=".5" stroke-linecap="round" stroke-linejoin="round"/><path fill-rule="evenodd" clip-rule="evenodd" d="M33.89 18.663s1.672-.642 2.819.362c-.644.88-.644 1.768-.644 1.768s-.765-.415-1.323 0c-.093-1.19-.852-2.13-.852-2.13z" fill="#FBC3BE" stroke="#270570" stroke-width=".5" stroke-linecap="round" stroke-linejoin="round"/><path fill-rule="evenodd" clip-rule="evenodd" d="M37.89 36.54c-1.054 0-4.734 10.48-.686 19.634l2.887-.846c-.25-5.465-1.057-5.162 1.082-15.364.159-2.025-2.228-3.424-3.283-3.424z" fill="#fff" stroke="#270570" stroke-width=".5" stroke-linecap="round" stroke-linejoin="round"/><path fill-rule="evenodd" clip-rule="evenodd" d="M21.999 33.868c1.052.074 3.992 10.785-.685 19.635l-2.821-1.046c.63-5.435 1.414-5.075-.007-15.401-.018-2.031 2.46-3.261 3.513-3.188z" fill="#fff" stroke="#270570" stroke-width=".5"/><path fill-rule="evenodd" clip-rule="evenodd" d="M44.267 78.137s-6.992-18.875-7.14-19.188l-15.951 1.009.843 6.114-.006-.012c.031.066 8.195 18.367 8.195 18.367l14.06-6.29z" fill="#fff"/><path d="M44.03 78.204c-3.326-12.142-6.366-17.97-6.513-18.283" stroke="#270570" stroke-width=".5" stroke-linecap="round" stroke-linejoin="round"/><path fill-rule="evenodd" clip-rule="evenodd" d="M28.251 85.16s6.968-25.758 7.025-26.1l-13.983.48.002-.013c-.012.073-8.902 20.558-8.902 20.558l15.858 5.075z" fill="#fff"/><path d="M18.479 59.997l17.58-.974m-14.982 1.165l.003-.013c-.013.072-3.991 7.61-8.018 17.705l-.992 2.486m7.359-13.993s3.155-.789 4.065-3.642m7.4 4.426c-.872 3.301-3.072 10.04-4.747 14.8" stroke="#270570" stroke-width=".5" stroke-linecap="round" stroke-linejoin="round"/><path fill-rule="evenodd" clip-rule="evenodd" d="M48.83 38.89l3.728 27.862-3.729-27.861z" fill="#fff"/><path d="M24.923 28.959c-.433 3.265-.795 5.948-1.044 7.472.706 1.697 2.316 2.51 3.888 2.438" stroke="#270570" stroke-width=".5" stroke-linecap="round" stroke-linejoin="round"/><path fill-rule="evenodd" clip-rule="evenodd" d="M20.765 15.064s13.386-3.551 17.178.005c0 0-.038-2.88-.227-3.386-.665-1.782-2.433-4.195-8.474-4.195-4.223 0-7.212 1.229-8.506 3.898-.228.472.03 3.175.03 3.678" fill="#fff"/><path clip-rule="evenodd" d="M20.765 15.064s13.386-3.551 17.178.005c0 0-.038-2.88-.227-3.386-.665-1.782-2.433-4.195-8.474-4.195-4.223 0-7.212 1.229-8.506 3.898-.228.472.03 3.175.03 3.678z" stroke="#270570" stroke-width=".5"/><path fill-rule="evenodd" clip-rule="evenodd" d="M23.876 14.42l-.318 1.614s.228.83 1.475.783c1.247-.047 15.567-.512 15.567-.512s.584-.466 0-.822c-.585-.356-1.667-.872-1.667-.872s-2.484-1.097-7.221-1.097c-3.33 0-7.836.905-7.836.905" fill="#fff"/><path clip-rule="evenodd" d="M23.876 14.42l-.318 1.614s.228.83 1.475.783c1.247-.047 15.567-.512 15.567-.512s.584-.466 0-.822c-.585-.356-1.667-.872-1.667-.872s-2.484-1.097-7.221-1.097c-3.33 0-7.836.905-7.836.905z" stroke="#270570" stroke-width=".5"/><path d="M23.759 14.486s-.35-3.726 4.076-6.998m8.359 6.609l-.425-2.81s-.588-2.108-3.657-3.605" stroke="#270570" stroke-width=".5"/><path fill-rule="evenodd" clip-rule="evenodd" d="M53.593 31.47l2.765-1.14s6.38-2.205 6.967-2.495c.677-.335 1-.089 1.107.17.166.401-.177.913-.75 1.219-.198.105-3.385 1.645-3.385 1.645s.335.015 1.16.192c.826.177 1.709 1.112 2.23 2.26.522 1.15.566 1.518.129 1.742-.176.089-.367.06-.537-.012a1.234 1.234 0 01-.625-.62c-.86-1.828-2.069-1.839-2.069-1.839l-.362.15s1.33.714 1.43 1.754c.017.17-.003.32-.043.457a1.618 1.618 0 01-.086 1.54c-.3.472-.866.762-1.424.731-.267-.015-.568-.136-.636-.394-.036-.137.002-.28.037-.417a1.27 1.27 0 00.04-.22l-1.073.276s-2.441.492-3.48.826l-36.4 9.141a4.436 4.436 0 11-2.863-8.367l37.868-6.599z" fill="#A780FF"/><path d="M54.31 33.219c.074.378.486.599.869.633.383.035.766-.062 1.15-.055 1.15.02 2.151.947 3.3.912.16-.005.357-.061.386-.219.027-.146-.11-.265-.232-.35l-3.128-2.174m6.121-3.91c-.491.297-10.223 3.773-10.505 3.752" stroke="#270570" stroke-width=".5" stroke-linecap="round" stroke-linejoin="round"/><path clip-rule="evenodd" d="M54.238 37.323c-.515.253-26.326 6.896-26.605 6.85l26.605-6.85z" stroke="#270570" stroke-width=".5" stroke-linecap="round" stroke-linejoin="round"/><path d="M31.264 40.59c-.873 0-1.135-.17-1.652-1.07m-7.45 6.033c-5.992 1.636-8.392 1.16-9.378-1.117a4.436 4.436 0 012.896-6.04l22.64-4.354" stroke="#270570" stroke-width=".5" stroke-linecap="round"/></g></svg>