<svg width="457" height="396" viewBox="0 0 457 396" fill="none" xmlns="http://www.w3.org/2000/svg"><mask id="a" maskUnits="userSpaceOnUse" x="19" y="0" width="432" height="396"><path d="M301.14 385.03c-43.934 21.043-96.523 8.583-126.367-29.751l-.898-1.169L40.783 178.099C6.307 132.505 15.32 67.595 60.913 33.119c45.14-34.132 109.208-25.64 143.937 18.773l1.044 1.357L331.249-.001l61.805 61.443c51.037-24.446 21.171 90.262 46.346 140.709l.752 1.537c24.445 51.038 3.348 112.127-47.098 137.303l-1.538.752-90.376 43.287z" fill="#fff"/></mask><g mask="url(#a)"><path d="M344.125 249.3l-90.376 43.287-133.092-176.01" stroke="#D3C4F6" stroke-width="207" stroke-linecap="round" stroke-linejoin="round"/><path fill-rule="evenodd" clip-rule="evenodd" d="M341.364 77.609c-3.526 1.348 2.617 4.824 8.302 15.841 7.686 23.29-16.987-2.086-11.308 11.058 14.303 33.106 26.133 70.494 8.402 76.775-13.866 4.911-28.172-4.654-28.172-4.654s3.03 6.13-.009 11.471c-3.555 5.907-9.117 9.397-8.871 9.716.246.319 69.635 35.776 69.635-41.818-2.018-11.01-4.873-23.438-15.2-42.493-1.61-2.969.374-5.535.565-8.997.219-3.978-3.842-11.168-4.335-11.95-7-11.09-15.484-16.298-19.009-14.95z" fill="#A780FF"/><path d="M358.192 183.15c-4.043 0-5.255-.782-7.65-4.95" stroke="#270570" stroke-width="2.16" stroke-linecap="round"/><path d="M343.071 115.65c14.928 40.621 16.837 49.346 8.088 61.091-4.038 4.923-13.615 10.494-30.316 0" stroke="#270570" stroke-width="2" stroke-linecap="round"/><path d="M310.943 198.434c24.674 14.036 65.597 15.407 68.4-31.704 0-23.811-6.601-34.338-14.558-50.661-3.738-7.669 1.035-7.315-1.391-15.717 0 0-4.488-14.816-15.065-22.052m-.936 24.275s5.945.77 3.428-6.275" stroke="#270570" stroke-width="2" stroke-linecap="round"/><path fill-rule="evenodd" clip-rule="evenodd" d="M207.466 164.046c10.361-19.97 42.032-13.63 42.032-13.63l34.816 1.244s13.24 1.462 25.647 7.981l.855.266-.011.178c9.745 5.323 22.772 5.727 35.917 18.115l-5.972 36.615-26.412-3.577s-.422-.199-.461 0c-.182.942 12.746 66.569 15.412 82.82-12.925 4.615-44.106 8.223-44.106 8.223s-44.631 5.536-55.814 0l-3.268-50.739c-.444-5.089 5.249-39.202-.497-50.316-9.631-18.629-20.13-25.798-20.341-26.551 3.543-8.524 1.111-8.524 2.203-10.629z" fill="#fff"/><path d="M247.6 151.258s-30.985-1.809-41.319 14.771c-10.335 16.58 19.3 39.168 19.3 39.168l2.228 61.203M283.6 162.241s2.842-7.369 2.504-10.141c0 0 17.943 7.248 36.294 13.839 18.352 6.591 24.437 12.261 24.437 12.261l-5.711 37.293s-18.726-6.693-20.282-2.022c-4.716 14.16-.093 45.258-.093 44.819" stroke="#270570" stroke-width="2" stroke-linecap="round" stroke-linejoin="round"/><mask id="b" maskUnits="userSpaceOnUse" x="252" y="106" width="42" height="64"><path fill-rule="evenodd" clip-rule="evenodd" d="M285.433 109.81c.854.537 1.556 1.932 1.747 3.267 2.62 18.335 4.83 33.771 6.355 42.747.15.882-.298 3.044-1.079 4.327-8.596 13.71-31.371 13.06-38.623-1.951-.657-1.403-1.004-3.516-.886-4.235 1.216-7.407 3.178-21.79 5.608-39.581.177-1.294.828-2.73 1.633-3.356 3.895-3.021 8.695-4.531 13.496-4.531 4.105 0 8.211 1.105 11.749 3.313z" fill="#fff"/></mask><g mask="url(#b)"><path fill-rule="evenodd" clip-rule="evenodd" d="M296.134 172.53h-45.78v-68.595h45.78v68.595z" fill="#CEB7FE"/></g><g fill-rule="evenodd" clip-rule="evenodd" fill="#A780FF"><path d="M285.433 109.81c.854.537 1.556 1.932 1.747 3.267 2.62 18.335 4.83 33.771 6.355 42.747.15.882-.298 3.044-1.079 4.327-8.596 13.71-31.371 13.06-38.623-1.951-.657-1.403-1.004-3.516-.886-4.235 1.216-7.407 3.178-21.79 5.608-39.581.177-1.294.828-2.73 1.633-3.356 3.895-3.021 8.695-4.531 13.496-4.531 4.105.001 8.21 1.105 11.749 3.313z"/><path d="M290.877 137.391s-9.794 1.911-21.031-3.424c0 0 6.07 10.578 21.518 7.425l-.487-4.001z"/></g><mask id="c" maskUnits="userSpaceOnUse" x="257" y="106" width="31" height="15"><path fill-rule="evenodd" clip-rule="evenodd" d="M286.564 110.694l.548 3.753c-3.071 3.108-8.555 5.89-14.934 6.054-6.269.178-11.42-2.135-14.246-4.526l.549-3.934c4.113-3.699 9.494-5.549 14.872-5.549 4.682 0 9.364 1.401 13.211 4.202z" fill="#fff"/></mask><g mask="url(#c)"><path fill-rule="evenodd" clip-rule="evenodd" d="M289.69 123.026h-34.337v-19.05h34.337v19.05z" fill="#270570"/></g><mask id="d" maskUnits="userSpaceOnUse" x="300" y="81" width="19" height="19"><path fill-rule="evenodd" clip-rule="evenodd" d="M318.151 90.646c0 4.92-3.975 8.91-8.881 8.91-4.904 0-8.881-3.99-8.881-8.91 0-4.922 3.977-8.912 8.881-8.912 4.906 0 8.881 3.99 8.881 8.912z" fill="#fff"/></mask><g mask="url(#d)"><path fill-rule="evenodd" clip-rule="evenodd" d="M320.741 102.155H297.8V79.137h22.941v23.018z" fill="#CEB7FE"/></g><mask id="e" maskUnits="userSpaceOnUse" x="231" y="81" width="18" height="19"><path fill-rule="evenodd" clip-rule="evenodd" d="M248.935 90.646c0 4.92-3.975 8.91-8.881 8.91-4.905 0-8.881-3.99-8.881-8.91 0-4.922 3.976-8.912 8.881-8.912 4.906 0 8.881 3.99 8.881 8.912z" fill="#fff"/></mask><g mask="url(#e)"><path fill-rule="evenodd" clip-rule="evenodd" d="M251.525 102.155h-22.941V79.137h22.941v23.018z" fill="#A780FF"/></g><path d="M309.376 99.557c4.848 0 8.778-3.99 8.778-8.91 0-4.923-3.93-8.912-8.778-8.912m-69.021 0c-4.847 0-8.778 3.99-8.778 8.91 0 4.922 3.931 8.911 8.778 8.911" stroke="#270570" stroke-width="2.88" stroke-linecap="round" stroke-linejoin="round"/><mask id="f" maskUnits="userSpaceOnUse" x="239" y="39" width="75" height="99"><path fill-rule="evenodd" clip-rule="evenodd" d="M313.876 70.467v29.177c0 20.52-16.34 37.911-36.881 38.177-20.871.271-37.874-17.39-37.874-38.177V70.467c0-11.806 14.2-30.905 37.874-30.905 23.675 0 36.881 20.707 36.881 30.905z" fill="#fff"/></mask><g mask="url(#f)"><path fill-rule="evenodd" clip-rule="evenodd" d="M316.437 140.382h-79.876V37.003h79.876v103.379z" fill="#A780FF"/></g><mask id="g" maskUnits="userSpaceOnUse" x="239" y="70" width="75" height="68"><path fill-rule="evenodd" clip-rule="evenodd" d="M253.548 99.692h60.432c0 20.494-16.341 37.864-36.882 38.13-20.87.27-37.874-17.369-37.874-38.13-.092-13.08-.092-19.377 0-18.895.347 1.795 10.012-6.371 11.886-9.85-4.885 13.09-2.171 28.745 2.438 28.745z" fill="#fff"/></mask><g mask="url(#g)"><path fill-rule="evenodd" clip-rule="evenodd" d="M316.54 140.379h-79.947V68.393h79.947v71.986z" fill="#270570"/></g><mask id="h" maskUnits="userSpaceOnUse" x="266" y="81" width="5" height="5"><path fill-rule="evenodd" clip-rule="evenodd" d="M270.547 83.63a1.8 1.8 0 11-3.6 0 1.8 1.8 0 113.6 0z" fill="#fff"/></mask><g mask="url(#h)"><path fill-rule="evenodd" clip-rule="evenodd" d="M272.937 87.089h-7.648V79.44h7.648v7.648z" fill="#270570"/></g><mask id="i" maskUnits="userSpaceOnUse" x="302" y="81" width="5" height="5"><path fill-rule="evenodd" clip-rule="evenodd" d="M306.098 83.63a1.8 1.8 0 11-3.6 0 1.8 1.8 0 013.6 0z" fill="#fff"/></mask><g mask="url(#i)"><path fill-rule="evenodd" clip-rule="evenodd" d="M308.488 87.089h-7.648V79.44h7.648v7.648z" fill="#270570"/></g><mask id="j" maskUnits="userSpaceOnUse" x="276" y="111" width="21" height="8"><path fill-rule="evenodd" clip-rule="evenodd" d="M296.826 111.981l-3.26 4.163c-2.126 2.496-12.352 4.719-16.762-4.163h20.022z" fill="#fff"/></mask><g mask="url(#j)"><path fill-rule="evenodd" clip-rule="evenodd" d="M299.393 125.016h-25.156v-11.691h25.156v11.691z" fill="#fff"/></g><g stroke-linecap="round" stroke-linejoin="round"><path d="M292.221 116.51c-2.12 2.405-12.322 4.546-16.721-4.01h19.973" stroke="#CEB7FE" stroke-width="2"/><path d="M287.618 80.34c1.111 4.39 3.275 14.046 3.275 14.046h-5.39" stroke="#270570" stroke-width="2.88"/><path d="M245.371 54.245c8.148-9.962 18.688-14.944 31.624-14.944 19.403 0 37.001 14.174 36.882 34.2.079 5.153.079 13.646 0 25.478 0 20.522-16.341 38.19-36.882 38.457-20.871.27-37.874-17.113-37.874-37.9V65.507" stroke="#270570" stroke-width="2.88"/></g><mask id="k" maskUnits="userSpaceOnUse" x="238" y="38" width="89" height="44"><path fill-rule="evenodd" clip-rule="evenodd" d="M276.338 38.128c.157 0 .316 0 .472.003 29.266.335 34.729 28.445 49.961 28.445-3.477 8.026-56.373 8.191-69.671-5.109-1.442-1.441-3.388 4.24-6.123 9.92-2.954 6.136-6.828 12.272-11.983 9.433v-8.93c0-18.24 16.719-33.76 37.34-33.762h.004z" fill="#fff"/></mask><g mask="url(#k)"><path fill-rule="evenodd" clip-rule="evenodd" d="M329.327 84.092h-92.889V35.57h92.889v48.522z" fill="#270570"/></g><mask id="l" maskUnits="userSpaceOnUse" x="299" y="39" width="19" height="19"><path fill-rule="evenodd" clip-rule="evenodd" d="M317.303 48.628a9.06 9.06 0 01-9.061 9.061 9.062 9.062 0 110-18.123 9.06 9.06 0 019.061 9.062z" fill="#fff"/></mask><g mask="url(#l)"><path fill-rule="evenodd" clip-rule="evenodd" d="M319.893 60.278h-23.302V36.976h23.302v23.302z" fill="#270570"/></g><mask id="m" maskUnits="userSpaceOnUse" x="287" y="37" width="19" height="19"><path fill-rule="evenodd" clip-rule="evenodd" d="M305.964 46.347a9.062 9.062 0 01-18.124 0 9.062 9.062 0 0118.124 0z" fill="#fff"/></mask><g mask="url(#m)"><path fill-rule="evenodd" clip-rule="evenodd" d="M308.553 57.997h-23.302V34.695h23.302v23.302z" fill="#270570"/></g><mask id="n" maskUnits="userSpaceOnUse" x="235" y="52" width="19" height="18"><path fill-rule="evenodd" clip-rule="evenodd" d="M253.956 61.431c0 5.022-11.922 8.741-13.151 8.117a9.094 9.094 0 01-4.973-8.117c0-5.02 4.057-9.091 9.062-9.091 5.004 0 9.062 4.07 9.062 9.091z" fill="#fff"/></mask><g mask="url(#n)"><path fill-rule="evenodd" clip-rule="evenodd" d="M256.545 72.214h-23.302V49.742h23.302v22.472z" fill="#270570"/></g><path d="M308.625 184.95c-2.487 13.375 2.006 41.14 24.025 76.13l-70.2 4.87" stroke="#270570" stroke-width="1.589" stroke-linecap="round"/><path d="M308.8 99.45c4.473 0 8.1-4.03 8.1-9s-3.627-9-8.1-9" stroke="#410062" stroke-width="1.271" stroke-linecap="round" stroke-linejoin="round"/><path d="M239.5 81.45c-4.473 0-8.1 4.03-8.1 9s3.627 9 8.1 9" stroke="#270570" stroke-width="1.271" stroke-linecap="round"/><path fill-rule="evenodd" clip-rule="evenodd" d="M266.5 83.475a1.575 1.575 0 103.15 0 1.575 1.575 0 00-3.15 0zm39.15 0a1.575 1.575 0 11-3.15 0 1.575 1.575 0 013.15 0z" fill="#410062"/><path d="M286.619 80.1c1.113 4.36 3.281 13.95 3.281 13.95h-5.4" stroke="#410062" stroke-width="1.271" stroke-linecap="round" stroke-linejoin="round"/><path fill-rule="evenodd" clip-rule="evenodd" d="M236.378 221.85s-4.078 9.133-4.078 11.873a5.631 5.631 0 006.992-3.334l2.908-7.489-5.822-1.05zm78.179 1.35s4.052 8.837 4.143 11.7h-1.123c-2.475 0-4.73-1.498-5.802-3.855l-2.975-6.543 5.757-1.302z" fill="#270570"/><path fill-rule="evenodd" clip-rule="evenodd" d="M329.5 104.4c8.698 0 15.75-7.656 15.75-17.1 0-9.444-7.052-17.1-15.75-17.1s-15.75 7.656-15.75 17.1c0 9.444 7.052 17.1 15.75 17.1z" fill="#FFE3E0"/><path fill-rule="evenodd" clip-rule="evenodd" d="M329.05 70.2l-10.163.301c-7.28 1.516-12.787 8.572-12.787 17.049 0 8.152 5.094 14.991 11.959 16.85h7.358" fill="#FFE3E0"/><path d="M329.05 70.2l-10.163.301c-7.28 1.515-12.787 8.572-12.787 17.049 0 8.152 5.093 14.991 11.959 16.85h10.501" stroke="#270570" stroke-width="2" stroke-linecap="round"/><path clip-rule="evenodd" d="M329.5 104.4c8.698 0 15.75-7.656 15.75-17.1 0-9.444-7.052-17.1-15.75-17.1s-15.75 7.656-15.75 17.1c0 9.444 7.052 17.1 15.75 17.1z" stroke="#270570" stroke-width="2" stroke-linecap="round"/><path fill-rule="evenodd" clip-rule="evenodd" d="M330.175 98.55c5.84 0 10.575-4.936 10.575-11.025S336.015 76.5 330.175 76.5c-5.841 0-10.575 4.936-10.575 11.025s4.734 11.025 10.575 11.025z" fill="#4300D2" stroke="#270570" stroke-width="2" stroke-linecap="round"/><path fill-rule="evenodd" clip-rule="evenodd" d="M266.858 77.85s-13.698 2.139-14.18 6.996c-.482 4.858.437 7.946 2.151 9.01 1.714 1.063 7.645 4.682 13.921 5.594" fill="#FBC3BE"/><path d="M266.858 77.85s-13.698 2.139-14.18 6.996c-.482 4.858.437 7.946 2.151 9.01 1.714 1.063 7.645 4.682 13.921 5.594" stroke="#270570" stroke-width="2" stroke-linecap="round"/><path fill-rule="evenodd" clip-rule="evenodd" d="M287.2 104.4c8.699 0 15.75-7.656 15.75-17.1 0-9.444-7.051-17.1-15.75-17.1s-15.75 7.656-15.75 17.1c0 9.444 7.051 17.1 15.75 17.1z" fill="#FFE3E0"/><path fill-rule="evenodd" clip-rule="evenodd" d="M286.75 70.2l-10.163.301c-7.28 1.515-12.787 8.572-12.787 17.049 0 8.152 5.093 14.991 11.959 16.85h7.358" fill="#FFE3E0"/><path d="M286.75 70.2l-10.163.301c-7.28 1.515-12.787 8.572-12.787 17.049 0 8.152 5.093 14.991 11.959 16.85h10.501" stroke="#270570" stroke-width="2" stroke-linecap="round"/><path clip-rule="evenodd" d="M287.2 104.4c8.699 0 15.75-7.656 15.75-17.1 0-9.444-7.051-17.1-15.75-17.1s-15.75 7.656-15.75 17.1c0 9.444 7.051 17.1 15.75 17.1z" stroke="#270570" stroke-width="2" stroke-linecap="round"/><path fill-rule="evenodd" clip-rule="evenodd" d="M287.65 98.55c5.965 0 10.8-5.137 10.8-11.475 0-6.337-4.835-11.475-10.8-11.475-5.965 0-10.8 5.138-10.8 11.475 0 6.338 4.835 11.475 10.8 11.475z" fill="#4300D2" stroke="#270570" stroke-width="2" stroke-linecap="round"/><path fill-rule="evenodd" clip-rule="evenodd" d="M309.25 86.296c-.658 1.781-1.085 3.254-1.085 3.254s-2.525-1.647-5.215 0v-4.347s3.636-1.92 6.3 1.093z" fill="#FBC3BE" stroke="#270570" stroke-width="1.271" stroke-linecap="round" stroke-linejoin="round"/><path fill-rule="evenodd" clip-rule="evenodd" d="M299.35 75.635s7.738-2.971 13.05 1.68c-2.982 4.069-2.982 8.185-2.982 8.185s-3.543-1.92-6.123 0c-.432-5.512-3.945-9.865-3.945-9.865z" fill="#FBC3BE" stroke="#270570" stroke-width="1.271" stroke-linecap="round" stroke-linejoin="round"/><path fill-rule="evenodd" clip-rule="evenodd" d="M317.869 158.4c-4.882 0-21.918 48.518-3.176 90.9l13.365-3.918c-1.156-25.3-4.894-23.898 5.007-71.13.737-9.376-10.313-15.852-15.196-15.852z" fill="#fff" stroke="#270570" stroke-width="2" stroke-linecap="round" stroke-linejoin="round"/><path fill-rule="evenodd" clip-rule="evenodd" d="M244.297 146.031c4.871.341 18.48 49.931-3.172 90.9l-13.06-4.84c2.918-25.162 6.549-23.498-.033-71.302-.081-9.404 11.395-15.098 16.265-14.758z" fill="#fff" stroke="#270570" stroke-width="2"/><path fill-rule="evenodd" clip-rule="evenodd" d="M125.091 194.666s5.781 50.533 1.299 69.456c-4.483 18.926-5.319 37.512 7.34 46.516 12.661 9.005 24.812 2.788 27.992-.061 3.92-3.512 16.031-28.806-5.208-66.765-8.342-14.906-31.423-49.146-31.423-49.146z" fill="#fff"/><path fill-rule="evenodd" clip-rule="evenodd" d="M184.086 152.3s-24.75 49.884-29.296 88.515c-.37 3.145-.606 6.217-.685 9.18-1.035 39.356 3.597 55.339 16.009 47.602 12.413-7.735 24.649-73.778 22.449-96.048-2.2-22.27-8.477-49.249-8.477-49.249z" fill="#FBC3BE"/><path d="M170.114 297.6c6.207-3.869 12.369-22.318 16.704-42.576 4.336-20.264 6.845-42.342 5.744-53.475-2.2-22.27-8.476-49.249-8.476-49.249s-24.749 49.884-29.295 88.512m23.525-39.585l-10.343 82.957" stroke="#270570" stroke-width="2" stroke-linecap="round" stroke-linejoin="round"/><path fill-rule="evenodd" clip-rule="evenodd" d="M242.494 224.485s-27.832 42.562-32.314 61.484c-4.483 18.923-12.073 35.912-27.426 38.274-15.354 2.362-23.421-8.654-24.985-12.626-1.929-4.895-1.406-32.939 34.601-57.324 14.141-9.578 50.124-29.808 50.124-29.808z" fill="#FB8478"/><path d="M152.892 343.015s36.883-64.777 62.332-91.08m-74.115-7.961s10.301 79.565 8.342 98.227" stroke="#270570" stroke-width="2" stroke-linecap="round" stroke-linejoin="round"/><path d="M154.792 240.815c-9.406-16.045-29.701-46.149-29.701-46.149s5.783 50.537 1.301 69.459c-4.482 18.919-5.319 37.509 7.339 46.513 12.66 9.005 21.741 4.68 24.923 1.834" stroke="#270570" stroke-width="2" stroke-linecap="round" stroke-linejoin="round"/><path d="M210.18 285.969c-4.363 18.95-12.074 35.909-27.427 38.274-15.352 2.362-23.419-8.654-24.984-12.626-1.929-4.899-1.406-32.939 34.601-57.324 14.142-9.574 50.125-29.808 50.125-29.808s-18.171 29.606-26.424 46.005" stroke="#270570" stroke-width="2" stroke-linecap="round" stroke-linejoin="round"/><path d="M153.969 261.451s1.046 29.623 4.755 34.824m-4.671-44.045s.304-16.269 1.941-19.479" stroke="#3D1B7B" stroke-width="1.8" stroke-linecap="round" stroke-linejoin="round"/><path fill-rule="evenodd" clip-rule="evenodd" d="M210.092 360.9l54.158 10.667s8.976-4.532 6.75 0l-60.908 105.966c-4.034 10.752-27.023 12.843-37.702 8.621-11.615-4.595-16.473-18.405-10.292-29.259l47.994-95.995zm129.889-24.836l-57.063 6.792s-13.307-1.417-11.65 3.353l57.846 108.606c2.693 11.164 19.901 15.858 31.015 12.969 12.088-3.145 18.593-16.26 13.781-27.787l-33.929-103.933z" fill="#A780FF"/><path fill-rule="evenodd" clip-rule="evenodd" d="M347.392 350.979s-32.371-87.382-33.054-88.831l-73.849 4.669 3.902 28.305-.026-.055c.144.309 37.937 85.035 37.937 85.035l65.09-29.123z" fill="#fff"/><path d="M346.29 351.291c-15.396-56.215-29.469-83.194-30.152-84.643" stroke="#270570" stroke-width="2" stroke-linecap="round" stroke-linejoin="round"/><path fill-rule="evenodd" clip-rule="evenodd" d="M273.244 383.493s32.258-119.251 32.522-120.83l-64.736 2.221.011-.062c-.057.336-41.215 95.178-41.215 95.178l73.418 23.493z" fill="#fff"/><path d="M257.579 264.551l51.81-2.06m-68.358 2.393l.011-.062c-.058.333-18.477 35.23-37.12 81.969l-4.59 11.508m33.066-61.781s14.607-3.652 18.82-16.862m48.262 22.489c-4.04 15.284-14.223 46.486-21.981 68.522m-9.645 9.613c-15.284-4.04-46.486-14.223-68.522-21.981m147.259-7.264c-18.042 8.375-40.123 16.929-61.191 27.025" stroke="#270570" stroke-width="2" stroke-linecap="round" stroke-linejoin="round"/><path fill-rule="evenodd" clip-rule="evenodd" d="M366.561 164.099s7.343-1.984 9.899 14.865c2.556 16.849 2.578 26.08 2.578 26.08s.937 3.663 3.666 2.382c2.728-1.287 7.424-5.942 10.612-3.762 3.308 2.259 3.156 6.739.468 12.503-2.685 5.764-8.11 18.606-8.596 19.77-.478 1.143-.379 3.09 1.619 2.513 1.999-.577 14.822-7.896 17.929-1.6 3.107 6.296-7.015 21.123-8.09 22.764-1.076 1.641-.979 2.527-.272 3.258.707.728 4.786-2.139 8.518-4.068 3.733-1.933 8.399-3.519 9.888.261 1.489 3.787-1.802 16.341-20.122 32.421l-8.977 6.893-10.572-4.178c-22.081-10.319-28.745-21.452-28.373-25.503.374-4.048 5.297-3.828 9.421-3.018 4.123.814 8.84 2.427 9.315 1.528.475-.899.321-1.778-1.171-3.052-1.492-1.277-15.349-12.681-14.124-19.595 1.226-6.914 15.582-3.471 17.663-3.474 2.079-.007 1.629-1.906.852-2.867a1023.555 1023.555 0 00-9.502-11.555 298.44 298.44 0 00-4.272-5.026c-4.189-4.782-5.585-9.043-3.041-12.136 2.453-2.983 9.824.711 12.801 1.181 2.978.471-1.99-41.202-1.99-41.202" fill="#fff"/><path d="M365.972 206.839s.122 3.78-2.856 3.31c-2.977-.471-8.787-3.629-11.24-.646-2.544 3.093-1.148 7.354 3.041 12.136a315.386 315.386 0 014.272 5.026c.734.879 1.487 1.785 2.231 2.684a1023.555 1023.555 0 017.271 8.871c.777.961 1.228 2.86-.852 2.867-2.081.003-16.437-3.44-17.663 3.474-1.225 6.914 12.633 18.318 14.124 19.595 1.492 1.274 1.646 2.153 1.171 3.052-.475.899-5.192-.714-9.316-1.524-4.123-.814-9.046-1.034-9.42 3.014-.372 4.051 6.292 15.184 28.373 25.503l10.572 4.182 8.977-6.897c18.32-16.08 21.611-28.634 20.122-32.418-1.489-3.783-6.155-2.197-9.888-.264-3.732 1.929-7.811 4.796-8.518 4.068-.707-.731-.804-1.617.272-3.258 1.075-1.641 11.197-16.468 8.09-22.764-3.107-6.296-15.93 1.023-17.929 1.6-1.998.577-2.097-1.37-1.619-2.513.486-1.164 5.911-14.006 8.596-19.77 2.688-5.764 2.84-10.244-.468-12.503-3.188-2.18-7.884 2.478-10.612 3.762-2.729 1.284-3.666-2.382-3.666-2.382s-.022-9.231-2.578-26.08c-2.556-16.849-9.899-14.865-9.899-14.865-2.052.154-5.458 4.326-2.671 19.757.271 5.321.881 16.33 1.147 17.806" stroke="#220F6B" stroke-width="1.8" stroke-linecap="round" stroke-linejoin="round"/><path fill-rule="evenodd" clip-rule="evenodd" d="M368.511 169.283l17.262 128.986-17.262-128.986z" fill="#fff"/><path d="M368.511 169.283l17.262 128.986m.191-82.775l-9.386 14.075-15.461-11.233m33.071 27.385L380.61 259.69l-18.111-9.334m38.607 21.418l-16.837 15.249-25.503-13.1" stroke="#220F6B" stroke-width="1.8" stroke-linecap="round" stroke-linejoin="round"/><path fill-rule="evenodd" clip-rule="evenodd" d="M394.326 316.729c14.373-16.383 12.723-39.644 7.008-59.487-.954-3.313-1.469-6.931-3.814-9.454-2.346-2.527-6.603-3.584-9.28-1.411-2.217 1.799-2.588 4.964-3.394 7.703a20.321 20.321 0 01-6.053 9.486c-1.878 1.648-4.374 2.993-6.792 2.372-3.319-.855-4.661-4.748-5.475-8.078l-4.552-18.61c-.813-3.33-1.654-6.722-3.493-9.612-1.84-2.891-4.887-5.239-8.311-5.318-3.423-.079-6.924 2.743-6.782 6.166.058 1.424.691 2.76.944 4.16.252 1.404-.015 3.094-1.246 3.814-1.244.728-2.826.124-4.077-.593-4.316-2.479-7.759-6.207-11.041-9.953-3.284-3.742-6.525-7.604-10.596-10.467-4.07-2.866-9.158-4.669-14.044-3.721-4.887.944-9.284 5.177-9.327 10.158-.045 4.992 3.917 9.046 7.882 12.081a76.943 76.943 0 0019.335 10.779c1.248.474 2.599.989 3.314 2.118 1.286 2.029-.285 4.769-2.317 6.056-2.302 1.456-5.087 1.885-7.634 2.849-2.547.969-5.103 2.826-5.481 5.527-.523 3.746 3.247 6.578 6.663 8.198a66.46 66.46 0 0021.77 6.053c2.7.271 5.501.398 7.929 1.613 2.427 1.215 4.381 3.897 3.765 6.54-.618 2.65-3.525 4.178-6.237 4.36-2.712.178-5.383-.628-8.084-.927-5.058-.556-10.95 1.263-12.921 5.956-1.295 3.086-.558 6.743 1.203 9.588 1.762 2.843 4.427 5.002 7.164 6.925 9.569 6.718 20.793 11.239 32.442 12.207 11.65.972 21.839-.539 31.532-7.078z" fill="#FFE3E0"/><path d="M334.906 289.131c-5.057-.556-10.949 1.263-12.92 5.96-1.295 3.082-.558 6.739 1.203 9.581 1.761 2.846 4.426 5.005 7.163 6.928 9.569 6.722 20.794 11.243 32.443 12.211 11.65.968 21.839-.543 31.531-7.082" stroke="#220F6B" stroke-width="1.8" stroke-linecap="round" stroke-linejoin="round"/><path fill-rule="evenodd" clip-rule="evenodd" d="M394.326 316.729c14.373-16.383 12.723-39.644 7.008-59.487-.954-3.313-1.469-6.931-3.814-9.454-2.346-2.527-6.603-3.584-9.28-1.411-2.217 1.799-2.588 4.964-3.394 7.703a20.321 20.321 0 01-6.053 9.486c-1.878 1.648-4.374 2.993-6.792 2.372-3.319-.855-4.661-4.748-5.475-8.078l-4.552-18.61c-.813-3.33-1.654-6.722-3.493-9.612-1.84-2.891-4.887-5.239-8.311-5.318-3.423-.079-6.924 2.743-6.782 6.166.058 1.424.691 2.76.944 4.16.252 1.404-.015 3.094-1.246 3.814-1.244.728-2.826.124-4.077-.593-4.316-2.479-7.759-6.207-11.041-9.953-3.284-3.742-6.525-7.604-10.596-10.467-4.07-2.866-9.158-4.669-14.044-3.721-4.887.944-9.284 5.177-9.327 10.158-.045 4.992 3.917 9.046 7.882 12.081a76.943 76.943 0 0019.335 10.779c1.248.474 2.599.989 3.314 2.118 1.286 2.029-.285 4.769-2.317 6.056-2.302 1.456-5.087 1.885-7.634 2.849-2.547.969-5.103 2.826-5.481 5.527-.523 3.746 3.247 6.578 6.663 8.198a66.46 66.46 0 0021.77 6.053c2.7.271 5.501.398 7.929 1.613 2.427 1.215 4.381 3.897 3.765 6.54" fill="#FFE3E0"/><path d="M394.326 316.729c14.373-16.383 12.723-39.644 7.008-59.487-.954-3.313-1.469-6.931-3.814-9.454-2.346-2.527-6.603-3.584-9.28-1.411-2.217 1.799-2.588 4.964-3.394 7.703a20.321 20.321 0 01-6.053 9.486c-1.878 1.648-4.374 2.993-6.792 2.372-3.319-.855-4.661-4.748-5.475-8.078l-4.552-18.61c-.813-3.33-1.654-6.722-3.493-9.612-1.84-2.891-4.887-5.239-8.311-5.318-3.423-.079-6.924 2.743-6.782 6.166.058 1.424.691 2.76.944 4.16.252 1.404-.015 3.094-1.246 3.814-1.244.728-2.826.124-4.077-.593-4.316-2.479-7.759-6.207-11.041-9.953-3.284-3.742-6.525-7.604-10.596-10.467-4.07-2.866-9.158-4.669-14.044-3.721-4.887.944-9.284 5.177-9.327 10.158-.045 4.992 3.917 9.046 7.882 12.081a76.943 76.943 0 0019.335 10.779c1.248.474 2.599.989 3.314 2.118 1.286 2.029-.285 4.769-2.317 6.056-2.302 1.456-5.087 1.885-7.634 2.849-2.547.969-5.103 2.826-5.481 5.527-.523 3.746 3.247 6.578 6.663 8.198a66.46 66.46 0 0021.77 6.053c2.7.271 5.501.398 7.929 1.613 2.427 1.215 4.381 3.897 3.765 6.54" stroke="#270570" stroke-width="1.8"/><path d="M299.344 217.255s61.976 42.26 94.983 99.473m-1.895-49.661s-5.298 29.781-8.292 33.681c0 0-31.358 5.85-44.53 1.212" stroke="#220F6B" stroke-width="1.8" stroke-linecap="round" stroke-linejoin="round"/><path d="M326.749 263.315l28.75 2.688c-.169-2.125-3.109-26.526-3.109-26.526" stroke="#220F6B" stroke-width="1.8" stroke-linecap="round" stroke-linejoin="round"/><path d="M257.834 123.3c-2.005 15.115-3.68 27.542-4.834 34.595 3.269 7.856 10.724 11.618 18 11.284" stroke="#270570" stroke-width="2.16" stroke-linecap="round" stroke-linejoin="round"/></g><path fill-rule="evenodd" clip-rule="evenodd" d="M154.648 137.021h50.597c.012-.229.018-.459.018-.691 0-7.511-6.077-13.6-13.574-13.6-1.953 0-3.809.417-5.487 1.161-2.888-8.708-11.079-14.991-20.74-14.991-9.499 0-17.579 6.072-20.593 14.552a13.955 13.955 0 00-5.635-1.183c-7.751 0-14.034 6.295-14.034 14.061 0 .232.006.462.017.691h16.547" fill="#fff"/><path d="M154.648 137.021h50.597c.012-.229.018-.459.018-.691 0-7.511-6.077-13.6-13.574-13.6-1.953 0-3.809.417-5.487 1.161-2.888-8.708-11.079-14.991-20.74-14.991-9.499 0-17.579 6.072-20.593 14.552a13.955 13.955 0 00-5.635-1.183c-7.751 0-14.034 6.295-14.034 14.061 0 .232.006.462.017.691h16.547" stroke="#270570" stroke-width="2" stroke-linecap="round" stroke-linejoin="round"/><path fill-rule="evenodd" clip-rule="evenodd" d="M53.813 24.3c20.446-.025 38.145 11.783 46.654 28.97h.001c.53-.484.785-.656.828-.581 28.124-20.224 51.156 6.535 51.177 23.564l-46.619.059-55.345.129H1.899C1.865 47.679 25.107 24.335 53.814 24.3" fill="#fff"/><path d="M121.356 45.154a30.935 30.935 0 00-20.889 8.116C91.958 36.083 74.259 24.275 53.813 24.3 25.106 24.335 1.863 47.68 1.9 76.44h48.609m70.847-31.286c17.164-.021 31.096 13.902 31.117 31.1l-46.619.057-15.54.02" stroke="#270570" stroke-width="2" stroke-linecap="round" stroke-linejoin="round"/><path fill-rule="evenodd" clip-rule="evenodd" d="M238.586 58.974s61.969-16.44 79.529.026c0 0-.179-13.336-1.053-15.679-3.08-8.247-11.262-19.421-39.231-19.421-19.553 0-33.388 5.69-39.379 18.05-1.057 2.181.134 14.697.134 17.024" fill="#fff"/><path clip-rule="evenodd" d="M238.586 58.974s61.969-16.44 79.529.026c0 0-.179-13.336-1.053-15.679-3.08-8.247-11.262-19.421-39.231-19.421-19.553 0-33.388 5.69-39.379 18.05-1.057 2.181.134 14.697.134 17.024z" stroke="#270570" stroke-width="2.16"/><path fill-rule="evenodd" clip-rule="evenodd" d="M252.987 55.99l-1.472 7.474s1.056 3.844 6.828 3.627c5.772-.217 72.069-2.369 72.069-2.369s2.706-2.158 0-3.807c-2.705-1.648-7.715-4.04-7.715-4.04s-11.5-5.075-33.433-5.075c-15.417 0-36.277 4.19-36.277 4.19" fill="#fff"/><path clip-rule="evenodd" d="M252.987 55.99l-1.472 7.474s1.056 3.844 6.828 3.627c5.772-.217 72.069-2.369 72.069-2.369s2.706-2.158 0-3.807c-2.705-1.648-7.715-4.04-7.715-4.04s-11.5-5.075-33.433-5.075c-15.417 0-36.277 4.19-36.277 4.19z" stroke="#270570" stroke-width="2.16"/><path d="M252.445 56.3s-1.62-17.249 18.87-32.4m38.7 30.6l-1.965-13.015s-2.723-9.755-16.935-16.685" stroke="#270570" stroke-width="2.16"/><path fill-rule="evenodd" clip-rule="evenodd" d="M390.565 134.93l12.803-5.284s29.538-10.205 32.251-11.546c3.135-1.551 4.636-.413 5.129.782.768 1.862-.822 4.232-3.471 5.645-.917.489-15.672 7.616-15.672 7.616s1.548.071 5.371.89c3.823.819 7.908 5.148 10.322 10.468 2.414 5.321 2.619 7.025.596 8.058-.812.415-1.696.28-2.484-.052-1.288-.543-2.298-1.603-2.893-2.868-3.982-8.467-9.58-8.517-9.58-8.517l-1.675.691s6.157 3.307 6.62 8.126a5.486 5.486 0 01-.201 2.112c1.076 2.24.936 5.03-.399 7.13-1.39 2.185-4.005 3.528-6.591 3.385-1.235-.067-2.63-.629-2.946-1.826-.167-.63.009-1.295.171-1.928.084-.332.16-.678.184-1.02l-4.964 1.28s-11.303 2.278-16.11 3.825l-168.522 42.318c-10.537 4.567-22.769-.394-27.15-11.009-4.763-11.547 1.796-24.635 13.898-27.729l175.313-30.547z" fill="#A780FF"/><path d="M393.89 143.026c.337 1.748 2.244 2.771 4.017 2.931 1.773.159 3.549-.286 5.328-.255 5.323.093 9.956 4.382 15.277 4.222.741-.023 1.649-.284 1.786-1.012.125-.677-.51-1.229-1.075-1.621l-14.481-10.065m28.338-18.102c-2.274 1.375-47.33 17.468-48.634 17.37" stroke="#270570" stroke-width="2" stroke-linecap="round" stroke-linejoin="round"/><path clip-rule="evenodd" d="M393.552 162.027c-2.384 1.172-121.879 31.926-123.171 31.715l123.171-31.715z" stroke="#270570" stroke-width="2" stroke-linecap="round" stroke-linejoin="round"/><path d="M287.192 177.15c-4.043 0-5.255-.782-7.65-4.95" stroke="#270570" stroke-width="2.16" stroke-linecap="round"/><path d="M245.054 200.126c-27.743 7.574-38.855 5.367-43.42-5.169-4.964-11.463 1.366-24.663 13.411-27.967l104.817-20.155" stroke="#270570" stroke-width="2" stroke-linecap="round"/></svg>