<svg width="448" height="378" viewBox="0 0 448 378" fill="none" xmlns="http://www.w3.org/2000/svg">
<g id="error">
<mask id="mask0" mask-type="alpha" maskUnits="userSpaceOnUse" x="0" y="0" width="449" height="378">
<path id="Clip 7" fill-rule="evenodd" clip-rule="evenodd" d="M51.9421 163.278C31.2312 195.682 -1.49235e-05 212.625 0.480454 220.778C1.73155 242.007 12.0882 269.863 12.0882 277.135C12.0882 294.202 32.5823 309.406 40.2881 324.287C45.2336 333.837 49.1994 338.573 56.9446 346.319C76.7593 366.132 103.634 377.263 131.654 377.263H297.609C325.63 377.263 352.504 366.132 372.318 346.319C392.132 326.504 403.264 299.63 403.264 271.609V216.914C403.264 191.421 431.191 240.399 448 85.0203C448.238 82.817 374.106 32.7335 372.318 30.9456C352.504 11.1313 325.63 0 297.609 0C269.587 0 242.714 11.1313 222.899 30.9456C203.085 50.7594 51.9421 163.278 51.9421 163.278Z" fill="white"/>
</mask>
<g mask="url(#mask0)">
<path id="Clip 7_2" fill-rule="evenodd" clip-rule="evenodd" d="M191.954 105.655V165.954H131.654C103.634 165.954 76.7594 177.085 56.9446 196.9C37.1313 216.714 26 243.587 26 271.609C26 299.63 37.1313 326.504 56.9446 346.319C76.7594 366.132 103.634 377.263 131.654 377.263H297.609C325.63 377.263 352.504 366.132 372.318 346.319C392.132 326.504 403.264 299.63 403.264 271.609V105.655C403.264 77.6331 392.132 50.7594 372.318 30.9456C352.504 11.1313 325.63 0 297.609 0C269.587 0 242.714 11.1313 222.899 30.9456C203.085 50.7594 191.954 77.6331 191.954 105.655Z" fill="#FBC3BE"/>
<g id="Group 7">
<g id="Group 23">
<path id="Stroke 190" fill-rule="evenodd" clip-rule="evenodd" d="M158.86 114.759C158.86 121.954 160.638 128.473 164.099 134.218L156.615 149.187C156.615 149.187 176.695 147.011 176.867 147.176C181.313 151.432 189.628 152.929 197.03 152.929C218.112 152.929 235.201 135.841 235.201 114.759C235.201 93.6773 218.112 76.5881 197.03 76.5881C175.949 76.5881 158.86 93.6773 158.86 114.759Z" fill="#FC8586" stroke="#270570" stroke-width="2.4948" stroke-linecap="round" stroke-linejoin="round"/>
<g id="Group 20 Copy">
<g id="Group 19">
<g id="Group 12">
<g id="Group 9">
<g id="Group 4 Copy">
<g id="Group 5">
<g id="Group 2">
<g id="Group 4">
<g id="Group 4_2">
<g id="Group 1336">
<g id="Group 3">
<path id="Fill 795" fill-rule="evenodd" clip-rule="evenodd" d="M336.679 179.755C345.829 191.295 354.564 179.755 354.564 179.755C366.83 191.853 369.385 191.315 369.385 191.315C377.086 193.697 381.665 187.536 384.121 182.096C385.7 178.6 389.581 177.044 393.012 178.446C397.562 180.307 399.79 179.755 399.79 179.755C407.254 178.609 408.473 171.791 408.282 166.627C408.168 163.468 410.426 160.805 413.426 160.599C428.466 159.569 430.708 152.064 430.708 152.064C444.331 135.377 429.313 117.839 422.612 111.37C421.358 110.161 421.606 107.99 423.126 107.185C432.852 102.029 430.963 96.9507 430.963 96.9507C424.576 74.1001 384.459 75.7138 384.459 75.7138C383.438 67.6481 377.051 64.1523 377.051 64.1523C350.732 46.4098 324.926 74.1001 324.926 74.1001C324.926 74.1001 319.134 157.625 336.679 179.755" fill="#4300D2"/>
<path id="Stroke 954" d="M324.711 74.1147C324.711 74.1147 350.567 46.3986 376.937 64.158C376.937 64.158 383.336 67.6571 384.36 75.73C384.36 75.73 424.553 74.1147 430.953 96.9854C430.953 96.9854 432.845 102.068 423.101 107.228C421.58 108.033 421.329 110.208 422.586 111.417C429.3 117.89 444.347 135.445 430.697 152.147C430.697 152.147 428.451 159.657 413.382 160.69C410.377 160.895 408.114 163.56 408.229 166.722C408.419 171.891 407.198 178.715 399.721 179.862C399.721 179.862 397.488 180.414 392.929 178.552C389.544 177.169 385.72 178.659 384.094 182.047" stroke="#270570" stroke-width="2.2" stroke-linecap="round" stroke-linejoin="round"/>
</g>
<g id="Group 1081">
<path id="Fill 1049" fill-rule="evenodd" clip-rule="evenodd" d="M323.201 146.75C323.201 146.75 331.011 151.136 341.299 150.167C341.299 150.167 334.109 157.371 322.657 150.497L323.201 146.75Z" fill="white"/>
</g>
</g>
</g>
</g>
</g>
</g>
</g>
</g>
</g>
<g id="Group 14">
<g id="Group 12_2">
<g id="Group 11">
<g id="Group 38 Copy">
<path id="Fill 35" fill-rule="evenodd" clip-rule="evenodd" d="M314.009 267.306C327.829 267.309 359.521 267.736 365.385 279.423C368.904 286.435 370.855 297.586 370.774 303.986C370.493 326.284 345.239 335.244 327.468 335.244C309.436 335.244 316.535 333.025 278.187 340.422C239.838 347.819 236.52 369.233 236.52 393.831C236.52 415.967 236.52 431.473 236.52 447.555C214.602 447.555 202.045 447.555 180.038 447.555C180.038 412.313 180.038 349.67 209.852 316.099C228.501 295.101 275.255 289.162 286.388 290.697" fill="white"/>
<path id="Fill 35 Copy" fill-rule="evenodd" clip-rule="evenodd" d="M295.445 269.833C303.958 269.833 346.793 270.953 372.252 271.26C373.043 277.901 371.533 296.187 370.776 302.551C366.085 342.031 325.944 335.595 308.173 335.595C273.111 335.595 260.78 342.815 247.777 355.529C235.89 367.152 235.729 419.107 235.729 447.555C213.811 447.555 172.848 447.555 150.841 447.555C150.841 412.354 151.412 336.18 180.038 301.825C208.624 267.518 286.933 269.833 295.445 269.833Z" fill="white"/>
<path id="Stroke 37" d="M373.635 263.563C373.635 263.563 373.381 272.084 373.381 287.968C373.381 303.852 364.951 335.134 334.47 335.134C311.338 335.134 278.533 335.134 261.657 343.791C244.886 352.394 237.928 373.014 236.946 389.437C235.644 411.193 236.52 428.874 236.52 447.462C218.183 447.462 182.928 447.671 163.568 447.462C163.609 424.213 161.116 339.978 192.57 304.89C211.335 283.956 275.255 277.092 286.388 278.624" stroke="#270570" stroke-width="2.2" stroke-linecap="round" stroke-linejoin="round"/>
<path id="Stroke 37 Copy" d="M207.389 447.462C189.052 447.462 170.227 447.671 150.867 447.462C150.907 424.2 149.016 338.185 180.038 301.781C198.195 280.475 235.405 271.787 278.793 269.801" stroke="#270570" stroke-width="2.2" stroke-linecap="round" stroke-linejoin="round"/>
</g>
<g id="Group 42 Copy">
<path id="Stroke 41" d="M241.984 337.611C232.941 343.487 220.942 359.211 224.048 415.856" stroke="#270570" stroke-width="2.4948" stroke-linecap="round" stroke-linejoin="round"/>
</g>
</g>
</g>
<g id="Group 27">
<g id="Group 16">
<path id="Fill 45" fill-rule="evenodd" clip-rule="evenodd" d="M267.924 232.907C250.609 235.96 230.332 237.013 206.915 234.524C200.335 233.824 195.568 227.922 196.268 221.343C196.967 214.762 202.869 209.996 209.449 210.695C252.997 215.325 283.493 205.985 301.406 197.335C320.773 187.982 336.516 169.804 336.608 169.699L338.753 169.32L348.44 192.778C347.081 194.389 321.939 223.382 267.924 232.907" fill="#BDA3F8"/>
<path id="Stroke 47" d="M277.753 206.795C277.288 210.808 278.295 214.975 280.542 218.332" stroke="#270570" stroke-width="2.4948" stroke-linecap="round" stroke-linejoin="round"/>
<path id="Stroke 56" d="M209.449 210.695C252.997 215.325 283.492 205.985 301.406 197.335C306.077 195.079 310.536 192.31 314.617 189.405" stroke="#270570" stroke-width="2.4948" stroke-linecap="round" stroke-linejoin="round"/>
<path id="Stroke 58" d="M328.988 209.175C315.789 217.99 295.664 228.016 267.924 232.907C252.533 235.621 234.801 236.754 214.603 235.224" stroke="#270570" stroke-width="1.58071" stroke-linecap="round" stroke-linejoin="round"/>
</g>
</g>
<path id="Fill 9" fill-rule="evenodd" clip-rule="evenodd" d="M220.904 287.185L220.903 287.184C220.903 287.184 220.903 287.184 220.903 287.183L220.904 287.185Z" fill="#270570"/>
<g id="Group 18">
<g id="Path">
<path fill-rule="evenodd" clip-rule="evenodd" d="M351.201 165.943L342.404 163.725C340.572 169.088 337.41 174.273 332.476 177.048C327.543 179.824 326.09 171.97 322.357 167.709C306.943 179.824 283.914 257.828 279.076 270.599C278.511 272.092 279.668 273.672 281.26 273.58L375.118 277.715C376.412 277.64 377.362 276.468 377.166 275.184C374.969 260.722 379.859 192.727 352.901 167.709" fill="white"/>
<path d="M351.201 165.943L342.404 163.725C340.572 169.088 337.41 174.273 332.476 177.048C327.543 179.824 326.09 171.97 322.357 167.709C306.943 179.824 283.914 257.828 279.076 270.599C278.511 272.092 279.668 273.672 281.26 273.58L375.118 277.715C376.412 277.64 377.362 276.468 377.166 275.184C374.969 260.722 379.859 192.727 352.901 167.709" stroke="#270570" stroke-width="2.2" stroke-linecap="round" stroke-linejoin="round"/>
</g>
</g>
<g id="Group 17">
<g id="Group 24">
<path id="Fill 92 Copy" fill-rule="evenodd" clip-rule="evenodd" d="M203.987 212.309C205.384 212.616 206.587 213.59 207.605 214.87C207.835 213.466 208.73 212.308 211.276 212.868C212.673 213.174 213.876 214.148 214.894 215.428C215.123 214.025 216.019 212.867 218.565 213.427C224.062 214.634 226.57 226.148 226.57 226.148L217.254 225.79L217.147 225.425L211.992 225.03L200.681 217.895C200.681 217.895 198.49 211.101 203.987 212.309" fill="#BDA3F8"/>
<path id="Fill 106 Copy" fill-rule="evenodd" clip-rule="evenodd" d="M201.4 228.019C201.4 228.019 196.53 222.01 201.572 220.683C206.614 219.357 215.397 233.404 215.397 233.404" fill="#BDA3F8"/>
</g>
</g>
</g>
<g id="Group 15">
<path id="Fill 124" fill-rule="evenodd" clip-rule="evenodd" d="M353.18 170.267C346.9 183.052 327.178 183.605 319.733 171.929C319.058 170.836 318.669 168.995 318.799 168.242C320.12 160.598 322.034 147.45 324.303 131.833C324.468 130.696 325.076 129.507 325.816 129.051C332.464 124.97 341.42 125.316 347.677 130.088C348.373 130.622 348.938 131.844 349.091 132.946C351.196 148.101 352.894 160.35 353.947 166.659C354.049 167.271 353.75 169.071 353.18 170.267" fill="#BDA3F8"/>
<path id="Stroke 128" d="M349.266 137.8C351.151 151.792 352.725 163.296 353.809 169.825C350.738 177.097 343.732 180.579 336.893 180.271" stroke="#270570" stroke-width="2.4948" stroke-linecap="round" stroke-linejoin="round"/>
<g id="Group 13">
<g id="Group">
<g id="Group 373">
<g id="cabeza 2">
<g id="Group 871">
<mask id="mask1" mask-type="alpha" maskUnits="userSpaceOnUse" x="305" y="108" width="14" height="15">
<path id="Clip 870" fill-rule="evenodd" clip-rule="evenodd" d="M318.541 115.805C318.541 119.577 315.585 122.638 311.943 122.638V122.638C308.298 122.638 305.344 119.577 305.344 115.805V115.805C305.344 112.029 308.298 108.97 311.943 108.97V108.97C315.585 108.97 318.541 112.029 318.541 115.805V115.805Z" fill="white"/>
</mask>
<g mask="url(#mask1)">
<path id="Fill 869" fill-rule="evenodd" clip-rule="evenodd" d="M320.464 124.63H303.42V106.977H320.464V124.63Z" fill="#BDA3F8"/>
</g>
</g>
<g id="Group 874">
<mask id="mask2" mask-type="alpha" maskUnits="userSpaceOnUse" x="357" y="108" width="14" height="15">
<path id="Clip 873" fill-rule="evenodd" clip-rule="evenodd" d="M370.433 115.805C370.433 119.577 367.479 122.638 363.833 122.638V122.638C360.19 122.638 357.234 119.577 357.234 115.805V115.805C357.234 112.029 360.19 108.97 363.833 108.97V108.97C367.479 108.97 370.433 112.029 370.433 115.805V115.805Z" fill="white"/>
</mask>
<g mask="url(#mask2)">
<path id="Fill 872" fill-rule="evenodd" clip-rule="evenodd" d="M372.356 124.63H355.312V106.977H372.356V124.63Z" fill="#BDA3F8"/>
</g>
</g>
<g id="Group 879">
<path id="Stroke 875" d="M311.999 122.637C308.354 122.637 305.399 119.576 305.399 115.803C305.399 112.028 308.354 108.969 311.999 108.969" stroke="#270570" stroke-width="2.19542" stroke-linecap="round" stroke-linejoin="round"/>
<path id="Stroke 877" d="M363.894 108.969C367.539 108.969 370.494 112.029 370.494 115.804C370.494 119.578 367.539 122.637 363.894 122.637" stroke="#270570" stroke-width="2.19542" stroke-linecap="round" stroke-linejoin="round"/>
</g>
<g id="cuello">
<path id="Fill 126" fill-rule="evenodd" clip-rule="evenodd" d="M337.004 137.835C342.416 137.99 346.862 135.982 349.301 133.909C349.146 132.787 348.988 131.649 348.827 130.495C342.187 124.492 331.723 124.103 324.587 129.327C324.428 130.423 324.27 131.509 324.114 132.583C326.764 135.279 331.498 137.693 337.004 137.835" fill="#270570"/>
</g>
<g id="Group 882">
<mask id="mask3" mask-type="alpha" maskUnits="userSpaceOnUse" x="308" y="74" width="57" height="80">
<path id="Clip 881" fill-rule="evenodd" clip-rule="evenodd" d="M364.877 99.44V122.823C364.877 139.483 352.102 153.639 336.419 153.421V153.421C320.984 153.209 308.708 139.27 308.708 122.823V122.823V99.44C308.708 91.2677 318.631 74.6699 336.419 74.6699V74.6699C354.208 74.6699 364.877 89.9775 364.877 99.44V99.44Z" fill="white"/>
</mask>
<g mask="url(#mask3)">
<path id="Fill 880" fill-rule="evenodd" clip-rule="evenodd" d="M366.802 155.474H306.783V72.6196H366.802V155.474Z" fill="#BDA3F8"/>
</g>
</g>
<g id="Group 898">
<path id="Stroke 896" d="M308.707 104.034V122.874C308.707 139.375 320.986 153.579 336.42 153.793C352.102 154.012 364.878 140.034 364.878 123.321V119.116" stroke="#270570" stroke-width="2.4948" stroke-linecap="round" stroke-linejoin="round"/>
</g>
<g id="Group 901">
<mask id="mask4" mask-type="alpha" maskUnits="userSpaceOnUse" x="304" y="73" width="65" height="32">
<path id="Clip 900" fill-rule="evenodd" clip-rule="evenodd" d="M338.912 73.3534C350.075 74.2969 360.487 80.3075 366.022 90.7086V90.7086C367.784 94.0206 370.001 101.245 366.223 104.641V104.641C365.681 104.388 365.17 104.067 364.66 103.745V103.745C363.978 103.318 363.295 102.887 362.516 102.603V102.603C359.819 101.612 356.92 101.329 354.082 101.245V101.245C349.763 101.12 345.373 101.428 341.175 100.345V100.345C336.978 99.2661 332.86 96.445 331.537 92.101V92.101C326.35 94.842 320.438 96.0373 314.662 95.51V95.51C310.951 95.1739 307.066 93.9882 304.652 90.9928V90.9928C304.391 90.6708 304.139 90.2994 304.129 89.8747V89.8747C304.112 89.3669 304.437 88.9269 304.752 88.5444V88.5444C312.423 79.2541 324.319 73.2339 336.073 73.2339V73.2339C337.021 73.2339 337.969 73.2733 338.912 73.3534V73.3534Z" fill="white"/>
</mask>
<g mask="url(#mask4)">
<path id="Fill 899" fill-rule="evenodd" clip-rule="evenodd" d="M370.221 106.682H302.196V71.1946H370.221V106.682Z" fill="#4300D2"/>
</g>
</g>
<g id="Group 904">
<mask id="mask5" mask-type="alpha" maskUnits="userSpaceOnUse" x="334" y="87" width="5" height="6">
<path id="Clip 903" fill-rule="evenodd" clip-rule="evenodd" d="M334.113 92.3077L338.162 87.9492L334.113 92.3077Z" fill="white"/>
</mask>
<g mask="url(#mask5)">
<path id="Fill 902" fill-rule="evenodd" clip-rule="evenodd" d="M340.201 94.5036H332.071V85.7532H340.201V94.5036Z" fill="#4300D2"/>
</g>
</g>
<path id="Stroke 905" d="M332.618 92.7992L336.827 88.6016" stroke="#270570" stroke-width="2.19542" stroke-linecap="round" stroke-linejoin="round"/>
<path id="Stroke 907" d="M315.083 96.2974L320.694 90.001" stroke="#270570" stroke-width="2.19542" stroke-linecap="round" stroke-linejoin="round"/>
<path id="Stroke 909" d="M323.437 76.0088C313.019 81.1771 312.823 79.3675 304.49 89.364C304.172 89.7447 303.845 90.1841 303.861 90.6893C303.875 91.1119 304.127 91.4828 304.388 91.8033C306.815 94.7855 310.721 95.9668 314.451 96.3011C320.26 96.8246 326.201 95.6351 331.415 92.9061C332.746 97.2333 336.885 100.039 341.107 101.115C345.328 102.192 354.099 101.51 358.614 102.277C363.13 103.042 363.566 103.836 366.286 105.392" stroke="#270570" stroke-width="2.19542" stroke-linecap="round" stroke-linejoin="round"/>
<path id="Stroke 956" d="M335.424 64.1154C335.424 64.1154 349.392 45.7327 385.926 57.6273" stroke="#270570" stroke-width="2.19542" stroke-linecap="round" stroke-linejoin="round"/>
<path id="Stroke 958" d="M336.902 61.317C336.902 61.317 335.6 57.679 343.841 52.2222" stroke="#270570" stroke-width="2.39865" stroke-linecap="round" stroke-linejoin="round"/>
<path id="Fill 960" fill-rule="evenodd" clip-rule="evenodd" d="M376.048 103.599C373.205 92.9856 364.261 73.824 336.751 73.9102C335.247 73.9145 334.901 76.1781 336.34 76.6561C345.825 79.8069 361.519 87.36 373.715 104.808C374.598 106.069 376.455 105.113 376.048 103.599" fill="#ADEDDD"/>
<path id="Stroke 962" fill-rule="evenodd" clip-rule="evenodd" d="M376.048 103.599C373.205 92.9856 364.261 73.824 336.751 73.9102C335.247 73.9145 334.901 76.1781 336.34 76.6561C345.825 79.8069 361.519 87.36 373.715 104.808C374.598 106.069 376.455 105.113 376.048 103.599Z" stroke="#270570" stroke-width="2.39865" stroke-linecap="round" stroke-linejoin="round"/>
</g>
<mask id="mask6" mask-type="alpha" maskUnits="userSpaceOnUse" x="307" y="109" width="4" height="4">
<path id="Clip 372" fill-rule="evenodd" clip-rule="evenodd" d="M307.998 110.689C307.998 111.517 308.669 112.188 309.497 112.188V112.188C310.324 112.188 310.996 111.517 310.996 110.689V110.689C310.996 109.861 310.324 109.19 309.497 109.19V109.19C308.669 109.19 307.998 109.861 307.998 110.689V110.689Z" fill="white"/>
</mask>
<g mask="url(#mask6)">
</g>
</g>
</g>
<g id="Group 11_2">
<path id="Fill 154" fill-rule="evenodd" clip-rule="evenodd" d="M349.494 112.308C349.494 112.944 348.978 113.46 348.341 113.46C347.705 113.46 347.189 112.944 347.189 112.308C347.189 111.671 347.705 111.155 348.341 111.155C348.978 111.155 349.494 111.671 349.494 112.308" fill="#270570"/>
<path id="Fill 156" fill-rule="evenodd" clip-rule="evenodd" d="M320.35 112.308C320.35 112.944 320.866 113.46 321.502 113.46C322.139 113.46 322.655 112.944 322.655 112.308C322.655 111.671 322.139 111.155 321.502 111.155C320.866 111.155 320.35 111.671 320.35 112.308" fill="#270570"/>
<path id="Stroke 162" d="M334.367 110.102C333.534 113.399 331.911 120.649 331.911 120.649H335.955" stroke="#270570" stroke-width="2.4948" stroke-linecap="round" stroke-linejoin="round"/>
<path id="Stroke 160" d="M345.128 139.24C344.406 137.604 339.378 134.807 335.651 138.701" stroke="#270570" stroke-width="2.4948" stroke-linecap="round" stroke-linejoin="round"/>
</g>
</g>
</g>
</g>
<g id="Group 17_2">
<path id="Stroke 5" d="M335.496 374.634L335.422 496.762" stroke="#270570" stroke-width="2.4948" stroke-linecap="round" stroke-linejoin="round"/>
<path id="Stroke 7" d="M359.573 369.645L396.096 496.637" stroke="#270570" stroke-width="2.4948" stroke-linecap="round" stroke-linejoin="round"/>
<path id="Stroke 9" d="M311.419 369.645L271.954 496.637" stroke="#270570" stroke-width="2.4948" stroke-linecap="round" stroke-linejoin="round"/>
<path id="Fill 11" fill-rule="evenodd" clip-rule="evenodd" d="M402.213 286.878C402.213 286.878 265.895 285.205 253.724 365.225L252.864 369.807C252.04 374.201 255.854 378.202 260.868 378.202H394.099C398.581 378.202 402.213 374.974 402.213 370.992V286.878Z" fill="#A780FF"/>
<path id="Stroke 13" fill-rule="evenodd" clip-rule="evenodd" d="M402.213 286.878C402.213 286.878 265.895 285.205 253.724 365.225L252.864 369.807C252.04 374.201 255.854 378.202 260.868 378.202H394.099C398.581 378.202 402.213 374.974 402.213 370.992V286.878Z" stroke="#270570" stroke-width="2.4948" stroke-linecap="round" stroke-linejoin="round"/>
</g>
</g>
<g id="Group 22 Copy" clip-path="url(#clip0)">
<g id="Path_2">
<path d="M210.984 118.36C214.381 123.731 210.93 125.629 208.766 125.629H184.866C182.702 125.629 178.658 123.857 182.708 118.36L192.7 100.601V100.601C192.754 100.601 194.446 97.188 196.616 97.188H197.009C199.173 97.188 200.878 100.431 200.926 100.601" fill="white"/>
<path d="M210.984 118.36C214.381 123.731 210.93 125.629 208.766 125.629H184.866C182.702 125.629 178.658 123.857 182.708 118.36L192.7 100.601V100.601C192.754 100.601 194.446 97.188 196.616 97.188H197.009C199.173 97.188 200.878 100.431 200.926 100.601" stroke="#270570" stroke-width="2.4948" stroke-linecap="round" stroke-linejoin="round"/>
</g>
<path id="!" d="M195.96 115.479C195.96 115.599 196.003 115.704 196.091 115.792C196.179 115.879 196.283 115.923 196.404 115.923H198.479C198.6 115.923 198.704 115.879 198.792 115.792C198.879 115.704 198.923 115.599 198.923 115.479V108.382C198.923 108.261 198.879 108.157 198.792 108.069C198.704 107.981 198.6 107.937 198.479 107.937H196.404C196.283 107.937 196.179 107.981 196.091 108.069C196.003 108.157 195.96 108.261 195.96 108.382V115.479ZM195.96 119.019C195.96 119.14 196.003 119.244 196.091 119.332C196.179 119.419 196.283 119.463 196.404 119.463H198.479C198.6 119.463 198.704 119.419 198.792 119.332C198.879 119.244 198.923 119.14 198.923 119.019V117.356C198.923 117.235 198.879 117.131 198.792 117.043C198.704 116.955 198.6 116.911 198.479 116.911H196.404C196.283 116.911 196.179 116.955 196.091 117.043C196.003 117.131 195.96 117.235 195.96 117.356V119.019Z" fill="#270570"/>
</g>
</g>
<g id="Group_2">
<g id="Group 333 Copy">
<g id="Group 333 Copy_2">
<g id="Group 9_2">
<path id="Stroke 7_2" fill-rule="evenodd" clip-rule="evenodd" d="M216.932 248.027H117.272C112.898 248.027 109.352 244.48 109.352 240.107C109.352 235.733 112.898 232.187 117.272 232.187H216.932C221.306 232.187 224.852 235.733 224.852 240.107C224.852 244.48 221.306 248.027 216.932 248.027Z" fill="#FB8478" stroke="#270570" stroke-width="2.64"/>
</g>
<g id="Group 91">
<mask id="mask7" mask-type="alpha" maskUnits="userSpaceOnUse" x="111" y="129" width="36" height="103">
<path id="Clip 90" fill-rule="evenodd" clip-rule="evenodd" d="M126.334 136.291L146.147 229.286L132.954 231.365L111.331 129.896L114.673 129.369C115.284 129.273 115.892 129.226 116.491 129.226V129.226C121.234 129.226 125.449 132.135 126.334 136.291V136.291Z" fill="white"/>
</mask>
<g mask="url(#mask7)">
<path id="Fill 89" fill-rule="evenodd" clip-rule="evenodd" d="M148.103 226.9H109.377V126.8H148.103V226.9Z" fill="#A780FF"/>
</g>
</g>
<g id="Group 94">
<mask id="mask8" mask-type="alpha" maskUnits="userSpaceOnUse" x="130" y="217" width="114" height="13">
<path id="Clip 93" fill-rule="evenodd" clip-rule="evenodd" d="M233.084 217.465C238.648 217.465 243.159 221.327 243.159 226.088V226.088V229.011H130.473V217.465H233.084Z" fill="white"/>
</mask>
<g mask="url(#mask8)">
<path id="Fill 92" fill-rule="evenodd" clip-rule="evenodd" d="M245.263 229.282H121.17V210.582H245.263V229.282Z" fill="#A780FF"/>
</g>
</g>
<g id="Group 101">
<path id="Stroke 95" d="M132.065 225.825L111.332 129.851C118.638 128.715 125.646 132.819 126.985 139.016L131.833 161.46" stroke="#270570" stroke-width="2.27238" stroke-linecap="round" stroke-linejoin="round"/>
<path id="Stroke 97" d="M141.877 216.651H229.812C237.184 216.651 243.159 222.279 243.159 229.221H132.456" stroke="#270570" stroke-width="2.38656" stroke-linecap="round" stroke-linejoin="round"/>
<path id="Stroke 99" d="M134.803 166.741L144.582 215.541" stroke="#270570" stroke-width="2.38656" stroke-linecap="round" stroke-linejoin="round"/>
</g>
<g id="Group 104">
<mask id="mask9" mask-type="alpha" maskUnits="userSpaceOnUse" x="24" y="266" width="189" height="13">
<path id="Clip 103" fill-rule="evenodd" clip-rule="evenodd" d="M212.104 267.039C212.02 273.408 208.602 278.504 204.416 278.504V278.504H32.3381C28.0903 278.504 24.6471 273.265 24.6471 266.804V266.804L212.104 267.039Z" fill="white"/>
</mask>
<g mask="url(#mask9)">
<path id="Fill 102" fill-rule="evenodd" clip-rule="evenodd" d="M213.789 280.384H22.9614V264.924H213.789V280.384Z" fill="white"/>
</g>
</g>
<path id="Stroke 105" d="M24.647 266.805V266.805C24.647 273.266 28.0895 278.504 32.3366 278.504H204.416C208.602 278.504 212.02 273.408 212.104 267.039" stroke="#270570" stroke-width="2.64" stroke-linecap="round" stroke-linejoin="round"/>
<g id="Group 109">
<mask id="mask10" mask-type="alpha" maskUnits="userSpaceOnUse" x="169" y="278" width="84" height="247">
<path id="Clip 108" fill-rule="evenodd" clip-rule="evenodd" d="M186.721 278.747C196.087 321.944 218.028 403.883 252.548 524.566V524.566H248.532C209.792 405.719 183.398 323.779 169.352 278.747V278.747H186.721Z" fill="white"/>
</mask>
<g mask="url(#mask10)">
<path id="Fill 107" fill-rule="evenodd" clip-rule="evenodd" d="M258.234 526.447H171.666V276.866H258.234V526.447Z" fill="#A780FF"/>
</g>
</g>
<path id="Stroke 110" fill-rule="evenodd" clip-rule="evenodd" d="M248.532 524.566C209.792 405.718 183.399 323.778 169.352 278.747H186.721C196.086 321.943 218.028 403.883 252.548 524.566H248.532Z" stroke="#270570" stroke-width="2.64"/>
<g id="Group 114">
<mask id="mask11" mask-type="alpha" maskUnits="userSpaceOnUse" x="-11" y="278" width="84" height="247">
<path id="Clip 113" fill-rule="evenodd" clip-rule="evenodd" d="M72.8303 278.747C58.7822 323.779 32.3888 405.719 -6.3512 524.566V524.566H-10.368C24.152 403.883 46.0944 321.944 55.4598 278.747V278.747H72.8303Z" fill="white"/>
</mask>
<g mask="url(#mask11)">
<path id="Fill 112" fill-rule="evenodd" clip-rule="evenodd" d="M74.514 526.447H-12.0535V276.866H74.514V526.447Z" fill="#A780FF"/>
</g>
</g>
<path id="Stroke 115" fill-rule="evenodd" clip-rule="evenodd" d="M-6.98384 524.566C31.7555 405.718 58.1496 323.778 72.197 278.747H54.8271C45.4617 321.943 23.5194 403.883 -10.9999 524.566H-6.98384Z" stroke="#270570" stroke-width="2.64"/>
<g id="Group 119">
<mask id="mask12" mask-type="alpha" maskUnits="userSpaceOnUse" x="170" y="277" width="19" height="25">
<path id="Clip 118" fill-rule="evenodd" clip-rule="evenodd" d="M186.923 280.146C187.415 280.369 187 283.082 187.26 283.766V283.766C188.52 287.069 188.832 284.074 187.492 288.083V288.083C184.932 295.761 176.245 302.863 176.109 301.42V301.42C175.634 296.425 170.816 287.383 170.067 280.146V280.146C169.987 279.385 171.198 278.939 171.647 278.747V278.747C172.913 278.203 174.584 277.965 176.412 277.965V277.965C179.925 277.965 184.017 278.847 186.923 280.146V280.146Z" fill="white"/>
</mask>
<g mask="url(#mask12)">
<path id="Fill 117" fill-rule="evenodd" clip-rule="evenodd" d="M167.575 277.968L186.866 272.2L193.191 298.542L173.899 304.31L167.575 277.968Z" fill="#270570"/>
</g>
</g>
<g id="Group 122">
<mask id="mask13" mask-type="alpha" maskUnits="userSpaceOnUse" x="-20" y="251" width="277" height="18">
<path id="Clip 121" fill-rule="evenodd" clip-rule="evenodd" d="M248.4 251.229C252.705 251.229 256.172 255.155 256.087 259.932V259.932C256.001 264.577 252.585 268.292 248.4 268.292V268.292H198.274H174.953H-11.8866C-16.1324 268.292 -19.5743 264.473 -19.5743 259.761V259.761C-19.5743 255.05 -16.1324 251.229 -11.8866 251.229V251.229H248.4Z" fill="white"/>
</mask>
<g mask="url(#mask13)">
<path id="Fill 120" fill-rule="evenodd" clip-rule="evenodd" d="M257.774 270.173H22.1854C16.4351 270.173 11.7736 265.511 11.7736 259.761V259.761C11.7736 254.011 16.4351 249.349 22.1854 249.349H257.774V270.173Z" fill="white"/>
</g>
</g>
<path id="Stroke 123" d="M204.914 268.292H249.282C252.987 268.292 256.01 264.576 256.087 259.932C256.162 255.155 253.093 251.229 249.282 251.229H18.8922C15.1341 251.229 12.0881 255.05 12.0881 259.761C12.0881 264.472 15.1341 268.292 18.8922 268.292H184.272" stroke="#270570" stroke-width="2.64" stroke-linecap="round" stroke-linejoin="round"/>
<g id="Group 127">
<mask id="mask14" mask-type="alpha" maskUnits="userSpaceOnUse" x="218" y="275" width="1" height="1">
<path id="Clip 126" fill-rule="evenodd" clip-rule="evenodd" d="M218.976 275.032H218.975V275.03L218.976 275.032Z" fill="white"/>
</mask>
<g mask="url(#mask14)">
<path id="Fill 125" fill-rule="evenodd" clip-rule="evenodd" d="M221.08 277.134H216.872V272.926H221.08V277.134Z" fill="#270E6E"/>
</g>
</g>
</g>
</g>
</g>
<g id="Group 28">
<path id="Combined Shape" fill-rule="evenodd" clip-rule="evenodd" d="M311.766 209.443C311.313 208.723 309.022 207.63 308.634 207.522C308.532 207.494 308.395 207.474 308.222 207.462C305.278 207.256 292.214 209.311 279.426 211.384C277.945 211.624 276.467 211.865 275.01 212.102C263.849 213.919 253.854 215.547 252.283 215.421C251.413 215.352 250.543 215.278 249.673 215.203C246.303 214.915 242.93 214.627 239.544 214.639C238.952 214.641 238.373 214.684 237.804 214.726C236.262 214.841 234.794 214.95 233.342 214.226L231.627 213.37C229.674 212.396 227.721 211.422 225.769 210.447C224.27 209.7 222.847 208.522 221.479 207.389C221.005 206.997 220.538 206.61 220.076 206.249C219.811 206.041 219.544 205.818 219.273 205.592C218.066 204.586 216.777 203.51 215.179 203.376C213.487 203.234 211.859 204.685 212.263 206.451C212.63 208.058 213.861 209.037 215.093 210.016C215.435 210.288 215.777 210.56 216.101 210.846C216.209 210.941 216.334 211.044 216.466 211.153C216.911 211.518 217.437 211.951 217.672 212.392C217.76 212.558 217.819 212.736 217.847 212.917L202.75 209.153C200.819 208.671 198.863 209.846 198.381 211.777C197.9 213.708 199.075 215.664 201.006 216.146L208.698 218.063C208.652 218.084 208.608 218.108 208.564 218.136C207.084 219.102 207.565 221.999 208.728 222.995C209.437 223.601 210.313 223.992 211.181 224.318C210.965 224.237 210.56 225.598 210.463 225.926C210.455 225.95 210.45 225.969 210.446 225.981C210.247 226.636 210.261 227.339 210.35 228.017C210.438 228.676 210.669 229.386 211.263 229.742C211.896 230.124 212.617 230.368 213.325 230.577C212.365 232.297 213.174 234.145 214.559 235.346C216.587 237.106 219.425 237.635 222 238.115C222.078 238.13 222.155 238.144 222.232 238.159C225.23 238.719 228.186 239.027 231.246 238.911C232.068 238.88 232.959 238.891 233.862 238.902C236.054 238.928 238.317 238.954 239.842 238.391C241.65 237.725 242.899 237.052 243.954 236.484C245.937 235.415 247.232 234.717 250.256 235.133C251.392 235.29 260.683 235.522 270.408 235.765C270.86 235.777 271.313 235.788 271.767 235.799C282.166 236.057 292.654 236.323 293.861 236.511C295.079 236.699 310.287 238.566 311.277 237.649C312.09 236.897 312.609 233.389 312.875 231.595C312.923 231.27 312.962 231.002 312.994 230.816C313.874 225.684 312.273 210.253 311.766 209.443Z" fill="#BDA3F8"/>
<mask id="mask15" mask-type="alpha" maskUnits="userSpaceOnUse" x="198" y="203" width="116" height="36">
<path id="Combined Shape_2" fill-rule="evenodd" clip-rule="evenodd" d="M311.766 209.443C311.313 208.723 309.022 207.63 308.634 207.522C308.532 207.494 308.395 207.474 308.222 207.462C305.278 207.256 292.214 209.311 279.426 211.384C277.945 211.624 276.467 211.865 275.01 212.102C263.849 213.919 253.854 215.547 252.283 215.421C251.413 215.352 250.543 215.278 249.673 215.203C246.303 214.915 242.93 214.627 239.544 214.639C238.952 214.641 238.373 214.684 237.804 214.726C236.262 214.841 234.794 214.95 233.342 214.226L231.627 213.37C229.674 212.396 227.721 211.422 225.769 210.447C224.27 209.7 222.847 208.522 221.479 207.389C221.005 206.997 220.538 206.61 220.076 206.249C219.811 206.041 219.544 205.818 219.273 205.592C218.066 204.586 216.777 203.51 215.179 203.376C213.487 203.234 211.859 204.685 212.263 206.451C212.63 208.058 213.861 209.037 215.093 210.016C215.435 210.288 215.777 210.56 216.101 210.846C216.209 210.941 216.334 211.044 216.466 211.153C216.911 211.518 217.437 211.951 217.672 212.392C217.76 212.558 217.819 212.736 217.847 212.917L202.75 209.153C200.819 208.671 198.863 209.846 198.381 211.777C197.9 213.708 199.075 215.664 201.006 216.146L208.698 218.063C208.652 218.084 208.608 218.108 208.564 218.136C207.084 219.102 207.565 221.999 208.728 222.995C209.437 223.601 210.313 223.992 211.181 224.318C210.965 224.237 210.56 225.598 210.463 225.926C210.455 225.95 210.45 225.969 210.446 225.981C210.247 226.636 210.261 227.339 210.35 228.017C210.438 228.676 210.669 229.386 211.263 229.742C211.896 230.124 212.617 230.368 213.325 230.577C212.365 232.297 213.174 234.145 214.559 235.346C216.587 237.106 219.425 237.635 222 238.115C222.078 238.13 222.155 238.144 222.232 238.159C225.23 238.719 228.186 239.027 231.246 238.911C232.068 238.88 232.959 238.891 233.862 238.902C236.054 238.928 238.317 238.954 239.842 238.391C241.65 237.725 242.899 237.052 243.954 236.484C245.937 235.415 247.232 234.717 250.256 235.133C251.392 235.29 260.683 235.522 270.408 235.765C270.86 235.777 271.313 235.788 271.767 235.799C282.166 236.057 292.654 236.323 293.861 236.511C295.079 236.699 310.287 238.566 311.277 237.649C312.09 236.897 312.609 233.389 312.875 231.595C312.923 231.27 312.962 231.002 312.994 230.816C313.874 225.684 312.273 210.253 311.766 209.443Z" fill="white"/>
</mask>
<g mask="url(#mask15)">
<path id="Stroke 205" d="M238.865 225.869C238.135 227.955 238.182 231.613 238.305 233.795" stroke="#270570" stroke-width="2.2176" stroke-linecap="round" stroke-linejoin="round"/>
<path id="Stroke 203" d="M215.908 235.066C218.595 236.822 221.94 237.261 225.047 237.585C228.666 237.963 232.33 237.893 235.934 237.377" stroke="#270570" stroke-width="2.2176" stroke-linecap="round" stroke-linejoin="round"/>
<path id="Stroke 211" d="M213.775 205.839C213.336 206.451 213.353 207.079 213.876 207.624C214.242 208.006 214.726 208.403 215.206 208.636C215.325 208.693 215.447 208.751 215.579 208.756C215.841 208.765 216.056 208.565 216.236 208.38C216.514 208.094 216.784 207.964 217.062 207.678" stroke="#270570" stroke-width="2.2176" stroke-linecap="round" stroke-linejoin="round"/>
<path id="Stroke 215" d="M207.591 217.639C210.677 218.906 212.029 219.413 215.324 219.939" stroke="#270570" stroke-width="2.2176" stroke-linecap="round" stroke-linejoin="round"/>
<path id="Stroke 217" d="M208.645 220.585C208.664 221.536 209.07 222.475 209.753 223.144C210.449 223.826 211.379 224.207 212.287 224.568C214.302 225.368 216.556 225.85 218.668 226.351" stroke="#270570" stroke-width="2.2176" stroke-linecap="round" stroke-linejoin="round"/>
<path id="Stroke 219" d="M210.871 226.672C211.247 229.096 212.657 229.97 214.91 230.559C216.514 230.979 217.973 231.371 219.644 231.514" stroke="#270570" stroke-width="2.2176" stroke-linecap="round" stroke-linejoin="round"/>
<path id="Stroke 221" d="M214.579 204.951C216.533 205.115 218.025 206.695 219.47 207.832C221.404 209.353 223.292 210.941 225.35 212.295C226.833 213.27 228.424 214.062 230.021 214.828C231.473 215.524 232.697 216.138 234.309 216.346C238.699 216.912 243.216 216.601 247.633 216.891" stroke="#270570" stroke-width="2.2176" stroke-linecap="round" stroke-linejoin="round"/>
<path id="Stroke 223" d="M201.112 210.261C202.163 209.841 203.302 210.179 204.349 210.435C205.587 210.738 206.82 211.061 208.047 211.406C210.501 212.094 212.932 212.865 215.332 213.718" stroke="#270570" stroke-width="2.2176" stroke-linecap="round" stroke-linejoin="round"/>
<path id="Stroke 225" d="M198.842 213.707C199.346 214.448 200.414 215.291 202.648 215.83L204.578 216.513" stroke="#270570" stroke-width="2.2176" stroke-linecap="round" stroke-linejoin="round"/>
</g>
</g>
<g id="Group 6">
<path id="Fill 112_2" fill-rule="evenodd" clip-rule="evenodd" d="M343.424 182.984C341.321 192.834 335.183 189.142 328.17 196.368C315.632 209.291 284.812 206.407 284.805 206.298C284.811 206.388 286.894 238.089 286.899 238.159C287.041 240.292 310.179 237.912 311.882 237.737C325.768 236.313 340.718 234.459 352.783 226.942C362.101 221.136 368.313 213.305 373.114 204.415L343.424 182.984Z" fill="white"/>
<path id="Stroke 114" d="M327.631 196.147C315.093 209.07 285.496 206.125 284.266 206.076C284.221 207.533 286.356 237.867 286.36 237.937C286.502 240.071 309.64 237.691 311.343 237.516C325.229 236.091 340.179 234.238 352.244 226.721C361.562 220.915 368.083 213.811 372.884 204.921" stroke="#270570" stroke-width="2.4948" stroke-linecap="round" stroke-linejoin="round"/>
</g>
<path id="Fill 1" fill-rule="evenodd" clip-rule="evenodd" d="M348.939 362.733H401.959V193.082C401.959 186.446 395.669 181.616 389.265 183.333L358.003 189.784C351.705 191.473 347.325 197.185 347.325 203.711V262.9" fill="#A780FF"/>
<path id="Stroke 3" d="M401.959 362.733V193.082C401.959 186.446 395.669 181.616 389.265 183.333L358.003 189.784C351.705 191.473 347.325 197.185 347.325 203.711V262.9" stroke="#270570" stroke-width="2.2" stroke-linecap="round" stroke-linejoin="round"/>
<path id="Stroke 205_2" d="M283.627 210.991C278.236 212.917 262.463 216.258 256.74 216.512" stroke="#270570" stroke-width="2.2176" stroke-linecap="round" stroke-linejoin="round"/>
</g>
</g>
</g>
<defs>
<clipPath id="clip0">
<rect width="32" height="29" fill="white" transform="matrix(-1 0 0 1 212.412 97.188)"/>
</clipPath>
</defs>
</svg>
