<svg width="80" height="191" viewBox="0 0 80 191" xmlns="http://www.w3.org/2000/svg" xmlns:xlink="http://www.w3.org/1999/xlink"><defs><filter x="-8%" y="-15.5%" width="116%" height="131.1%" filterUnits="objectBoundingBox" id="p"><feOffset dx="4" in="SourceAlpha" result="shadowOffsetInner1"/><feComposite in="shadowOffsetInner1" in2="SourceAlpha" operator="arithmetic" k2="-1" k3="1" result="shadowInnerInner1"/><feColorMatrix values="0 0 0 0 0.682352941 0 0 0 0 0.925490196 0 0 0 0 1 0 0 0 1 0" in="shadowInnerInner1"/></filter><filter x="-4.3%" y="-23.2%" width="108.7%" height="146.4%" filterUnits="objectBoundingBox" id="l"><feOffset dx="4" in="SourceAlpha" result="shadowOffsetInner1"/><feComposite in="shadowOffsetInner1" in2="SourceAlpha" operator="arithmetic" k2="-1" k3="1" result="shadowInnerInner1"/><feColorMatrix values="0 0 0 0 0.682352941 0 0 0 0 0.925490196 0 0 0 0 1 0 0 0 1 0" in="shadowInnerInner1"/></filter><filter x="-4.6%" y="-31.5%" width="109.2%" height="163%" filterUnits="objectBoundingBox" id="n"><feOffset dx="-3" dy="3" in="SourceAlpha" result="shadowOffsetInner1"/><feComposite in="shadowOffsetInner1" in2="SourceAlpha" operator="arithmetic" k2="-1" k3="1" result="shadowInnerInner1"/><feColorMatrix values="0 0 0 0 0.866666667 0 0 0 0 0.866666667 0 0 0 0 0.866666667 0 0 0 1 0" in="shadowInnerInner1"/></filter><filter x="-4.2%" y="-22.5%" width="108.4%" height="145%" filterUnits="objectBoundingBox" id="d"><feOffset dx="4" in="SourceAlpha" result="shadowOffsetInner1"/><feComposite in="shadowOffsetInner1" in2="SourceAlpha" operator="arithmetic" k2="-1" k3="1" result="shadowInnerInner1"/><feColorMatrix values="0 0 0 0 0.898039216 0 0 0 0 0.894117647 0 0 0 0 0.894117647 0 0 0 1 0" in="shadowInnerInner1"/></filter><filter x="-4.4%" y="-30.6%" width="108.9%" height="161.1%" filterUnits="objectBoundingBox" id="f"><feOffset dx="-3" dy="3" in="SourceAlpha" result="shadowOffsetInner1"/><feComposite in="shadowOffsetInner1" in2="SourceAlpha" operator="arithmetic" k2="-1" k3="1" result="shadowInnerInner1"/><feColorMatrix values="0 0 0 0 0.866666667 0 0 0 0 0.866666667 0 0 0 0 0.866666667 0 0 0 1 0" in="shadowInnerInner1"/></filter><filter x="-7.8%" y="-15.3%" width="115.7%" height="130.6%" filterUnits="objectBoundingBox" id="h"><feOffset dx="4" in="SourceAlpha" result="shadowOffsetInner1"/><feComposite in="shadowOffsetInner1" in2="SourceAlpha" operator="arithmetic" k2="-1" k3="1" result="shadowInnerInner1"/><feColorMatrix values="0 0 0 0 0.898039216 0 0 0 0 0.894117647 0 0 0 0 0.894117647 0 0 0 1 0" in="shadowInnerInner1"/></filter><filter x="-8%" y="-7.7%" width="116.1%" height="115.4%" filterUnits="objectBoundingBox" id="b"><feOffset dx="4" in="SourceAlpha" result="shadowOffsetInner1"/><feComposite in="shadowOffsetInner1" in2="SourceAlpha" operator="arithmetic" k2="-1" k3="1" result="shadowInnerInner1"/><feColorMatrix values="0 0 0 0 0.898039216 0 0 0 0 0.894117647 0 0 0 0 0.894117647 0 0 0 1 0" in="shadowInnerInner1"/></filter><filter x="-8.2%" y="-7.8%" width="116.4%" height="115.7%" filterUnits="objectBoundingBox" id="j"><feOffset dx="4" in="SourceAlpha" result="shadowOffsetInner1"/><feComposite in="shadowOffsetInner1" in2="SourceAlpha" operator="arithmetic" k2="-1" k3="1" result="shadowInnerInner1"/><feColorMatrix values="0 0 0 0 0.682352941 0 0 0 0 0.925490196 0 0 0 0 1 0 0 0 1 0" in="shadowInnerInner1"/></filter><path d="M8.302.383h30.443c.271 0 .507.185.571.447l1.097 4.462H6.635L7.73.83a.588.588 0 01.571-.447z" id="e"/><path d="M1.764 3.934h44.123c.974 0 1.764.79 1.764 1.764v5.94c0 .649-.527 1.176-1.176 1.176H1.176c-.65 0-1.176-.527-1.176-1.176v-5.94c0-.974.79-1.764 1.764-1.764z" id="c"/><path d="M1.701 4.07h42.593c.94 0 1.701.762 1.701 1.702v5.778c0 .627-.507 1.134-1.134 1.134H1.134A1.134 1.134 0 010 11.55V5.772a1.7 1.7 0 011.701-1.701z" id="k"/><path d="M3.288 23.685L6.97 42.652c.107.553.591.952 1.154.952h31.643c.557 0 1.037-.39 1.151-.935L44.887 23.7a1.176 1.176 0 00-1.15-1.416H4.441a1.176 1.176 0 00-1.154 1.4z" id="g"/><path d="M8.014.625h29.385c.262 0 .489.179.551.433l1.059 4.33H6.404l1.06-4.33a.567.567 0 01.55-.433z" id="m"/><path d="M11.64 53.852h25.382c.585 0 1.08-.43 1.164-1.007l5.973-41.215H3.619l6.86 41.239c.095.567.585.983 1.16.983z" id="a"/><path d="M3.172 23.221l3.557 18.414c.103.534.57.92 1.114.92h30.544c.537 0 1-.378 1.11-.904l3.833-18.414a1.134 1.134 0 00-1.11-1.365H4.285a1.134 1.134 0 00-1.113 1.35z" id="o"/><path d="M11.235 52.496h24.501c.564 0 1.042-.414 1.123-.972l5.766-39.988H3.493l6.623 40.01c.09.548.564.95 1.119.95z" id="i"/></defs><g fill="none" fill-rule="evenodd"><circle fill="#FFF" cx="40" cy="40" r="40"/><g transform="translate(16 11)"><use fill="#FFF" xlink:href="#a"/><use fill="#000" filter="url(#b)" xlink:href="#a"/><use stroke="#B9B9B9" stroke-width="2.52" xlink:href="#a"/><use fill="#FFF" xlink:href="#c"/><use fill="#000" filter="url(#d)" xlink:href="#c"/><path stroke="#B9B9B9" stroke-width="2.52" d="M1.26 11.554h45.13V5.698a.504.504 0 00-.503-.504H1.764a.504.504 0 00-.504.504v5.856z" stroke-linejoin="square"/><use fill="#FFF" xlink:href="#e"/><use fill="#000" filter="url(#f)" xlink:href="#e"/><path stroke="#B9B9B9" stroke-width="2.1" d="M8.664 1.433l-.69 2.809h31.1l-.69-2.81H8.663z" stroke-linejoin="square"/><use fill="#FFF" xlink:href="#g"/><use fill="#000" filter="url(#h)" xlink:href="#g"/><use stroke="#B9B9B9" stroke-width="2.52" xlink:href="#g"/><rect stroke="#AAA" stroke-width="1.4" fill="#FFF" x="18.795" y="27.72" width="10.663" height="10.439" rx="5.219"/><path d="M1.904 54.098h45.192" stroke="#B9B9B9" stroke-width="2.025" stroke-linecap="round" stroke-linejoin="round"/></g><path d="M37.68 187.492l1.675-1.124a2.44 2.44 0 00-1.48-4.462h0a1.278 1.278 0 01-.487-2.482l4.217-1.484a3.402 3.402 0 00.267-6.312l-3.865-1.738a3.402 3.402 0 01-1.019-5.499L38.37 163" stroke="#AAA" stroke-width="2.025" stroke-linecap="round" stroke-linejoin="round"/><g transform="translate(0 81)"><circle fill="#FFE6A6" cx="40" cy="40" r="40"/><g transform="translate(17 11)"><use fill="#FFF" xlink:href="#i"/><use fill="#000" filter="url(#j)" xlink:href="#i"/><use stroke="#1B2951" stroke-width="2.43" xlink:href="#i"/><use fill="#FFF" xlink:href="#k"/><use fill="#000" filter="url(#l)" xlink:href="#k"/><path stroke="#1B2951" stroke-width="2.43" d="M1.215 11.47H44.78V5.771a.486.486 0 00-.486-.486H1.701a.486.486 0 00-.486.486v5.697z" stroke-linejoin="square"/><use fill="#FFF" xlink:href="#m"/><use fill="#000" filter="url(#n)" xlink:href="#m"/><path stroke="#1B2951" stroke-width="2.025" d="M8.364 1.638l-.67 2.737H37.72l-.67-2.737H8.365z" stroke-linejoin="square"/><use fill="#FFF" xlink:href="#o"/><use fill="#000" filter="url(#p)" xlink:href="#o"/><use stroke="#1B2951" stroke-width="2.43" xlink:href="#o"/><rect stroke="#1B2951" stroke-width="1.35" fill="#58CFF3" x="18.142" y="27.141" width="10.294" height="10.135" rx="5.067"/></g><path d="M17.904 64.098h45.192" stroke="#1B2951" stroke-width="2.025" stroke-linecap="round" stroke-linejoin="round"/></g></g></svg>