<svg width="150" height="442" viewBox="0 0 150 442" xmlns="http://www.w3.org/2000/svg" xmlns:xlink="http://www.w3.org/1999/xlink"><defs><filter x="-5.9%" y="-31.6%" width="111.9%" height="163.2%" filterUnits="objectBoundingBox" id="aj"><feOffset dx="3" in="SourceAlpha" result="shadowOffsetInner1"/><feComposite in="shadowOffsetInner1" in2="SourceAlpha" operator="arithmetic" k2="-1" k3="1" result="shadowInnerInner1"/><feColorMatrix values="0 0 0 0 0.682352941 0 0 0 0 0.925490196 0 0 0 0 1 0 0 0 1 0" in="shadowInnerInner1"/></filter><filter x="-2.7%" y="-6.7%" width="105.3%" height="113.5%" filterUnits="objectBoundingBox" id="D"><feOffset dx="-4" dy="1" in="SourceAlpha" result="shadowOffsetInner1"/><feComposite in="shadowOffsetInner1" in2="SourceAlpha" operator="arithmetic" k2="-1" k3="1" result="shadowInnerInner1"/><feColorMatrix values="0 0 0 0 0.682352941 0 0 0 0 0.925490196 0 0 0 0 1 0 0 0 1 0" in="shadowInnerInner1"/></filter><filter x="-13.2%" y="-8%" width="126.5%" height="116%" filterUnits="objectBoundingBox" id="az"><feOffset dx="-4" dy="2" in="SourceAlpha" result="shadowOffsetInner1"/><feComposite in="shadowOffsetInner1" in2="SourceAlpha" operator="arithmetic" k2="-1" k3="1" result="shadowInnerInner1"/><feColorMatrix values="0 0 0 0 0.968627451 0 0 0 0 0.901960784 0 0 0 0 0.839215686 0 0 0 1 0" in="shadowInnerInner1"/></filter><filter x="-5.9%" y="-31.6%" width="111.9%" height="163.2%" filterUnits="objectBoundingBox" id="r"><feOffset dx="3" in="SourceAlpha" result="shadowOffsetInner1"/><feComposite in="shadowOffsetInner1" in2="SourceAlpha" operator="arithmetic" k2="-1" k3="1" result="shadowInnerInner1"/><feColorMatrix values="0 0 0 0 0.682352941 0 0 0 0 0.925490196 0 0 0 0 1 0 0 0 1 0" in="shadowInnerInner1"/></filter><filter x="-6.3%" y="-5.3%" width="112.5%" height="110.6%" filterUnits="objectBoundingBox" id="ax"><feOffset dx="-3" dy="1" in="SourceAlpha" result="shadowOffsetInner1"/><feComposite in="shadowOffsetInner1" in2="SourceAlpha" operator="arithmetic" k2="-1" k3="1" result="shadowInnerInner1"/><feColorMatrix values="0 0 0 0 1 0 0 0 0 0.964705882 0 0 0 0 0.874509804 0 0 0 1 0" in="shadowInnerInner1"/></filter><filter x="-5.6%" y="-38.1%" width="111.1%" height="176.2%" filterUnits="objectBoundingBox" id="t"><feOffset dx="-2" dy="2" in="SourceAlpha" result="shadowOffsetInner1"/><feComposite in="shadowOffsetInner1" in2="SourceAlpha" operator="arithmetic" k2="-1" k3="1" result="shadowInnerInner1"/><feColorMatrix values="0 0 0 0 0.866666667 0 0 0 0 0.866666667 0 0 0 0 0.866666667 0 0 0 1 0" in="shadowInnerInner1"/></filter><filter x="-2.6%" y="-6.6%" width="105.3%" height="113.2%" filterUnits="objectBoundingBox" id="av"><feOffset dx="-4" dy="2" in="SourceAlpha" result="shadowOffsetInner1"/><feComposite in="shadowOffsetInner1" in2="SourceAlpha" operator="arithmetic" k2="-1" k3="1" result="shadowInnerInner1"/><feColorMatrix values="0 0 0 0 0.682352941 0 0 0 0 0.925490196 0 0 0 0 1 0 0 0 1 0" in="shadowInnerInner1"/></filter><filter x="-9.8%" y="-19.1%" width="119.7%" height="138.2%" filterUnits="objectBoundingBox" id="v"><feOffset dx="3" in="SourceAlpha" result="shadowOffsetInner1"/><feComposite in="shadowOffsetInner1" in2="SourceAlpha" operator="arithmetic" k2="-1" k3="1" result="shadowInnerInner1"/><feColorMatrix values="0 0 0 0 0.682352941 0 0 0 0 0.925490196 0 0 0 0 1 0 0 0 1 0" in="shadowInnerInner1"/></filter><filter x="-3.6%" y="-2.5%" width="107.1%" height="105.1%" filterUnits="objectBoundingBox" id="at"><feOffset dx="-3" dy="2" in="SourceAlpha" result="shadowOffsetInner1"/><feComposite in="shadowOffsetInner1" in2="SourceAlpha" operator="arithmetic" k2="-1" k3="1" result="shadowInnerInner1"/><feColorMatrix values="0 0 0 0 1 0 0 0 0 0.964705882 0 0 0 0 0.874509804 0 0 0 1 0" in="shadowInnerInner1"/></filter><filter x="-18.8%" y="-18.8%" width="137.5%" height="137.5%" filterUnits="objectBoundingBox" id="c"><feOffset in="SourceAlpha" result="shadowOffsetOuter1"/><feGaussianBlur stdDeviation="7.5" in="shadowOffsetOuter1" result="shadowBlurOuter1"/><feColorMatrix values="0 0 0 0 0 0 0 0 0 0 0 0 0 0 0 0 0 0 0.2 0" in="shadowBlurOuter1"/></filter><filter x="-5.6%" y="-38.1%" width="111.1%" height="176.2%" filterUnits="objectBoundingBox" id="aL"><feOffset dx="-2" dy="2" in="SourceAlpha" result="shadowOffsetInner1"/><feComposite in="shadowOffsetInner1" in2="SourceAlpha" operator="arithmetic" k2="-1" k3="1" result="shadowInnerInner1"/><feColorMatrix values="0 0 0 0 0.866666667 0 0 0 0 0.866666667 0 0 0 0 0.866666667 0 0 0 1 0" in="shadowInnerInner1"/></filter><filter x="-4.1%" y="-2.9%" width="108.1%" height="105.8%" filterUnits="objectBoundingBox" id="f"><feOffset dx="-3" dy="2" in="SourceAlpha" result="shadowOffsetInner1"/><feComposite in="shadowOffsetInner1" in2="SourceAlpha" operator="arithmetic" k2="-1" k3="1" result="shadowInnerInner1"/><feColorMatrix values="0 0 0 0 0.968627451 0 0 0 0 0.901960784 0 0 0 0 0.839215686 0 0 0 1 0" in="shadowInnerInner1"/></filter><filter x="-5.9%" y="-31.6%" width="111.9%" height="163.2%" filterUnits="objectBoundingBox" id="aJ"><feOffset dx="3" in="SourceAlpha" result="shadowOffsetInner1"/><feComposite in="shadowOffsetInner1" in2="SourceAlpha" operator="arithmetic" k2="-1" k3="1" result="shadowInnerInner1"/><feColorMatrix values="0 0 0 0 0.682352941 0 0 0 0 0.925490196 0 0 0 0 1 0 0 0 1 0" in="shadowInnerInner1"/></filter><filter x="-3.3%" y="-8.3%" width="106.7%" height="116.7%" filterUnits="objectBoundingBox" id="h"><feOffset dx="-5" dy="2" in="SourceAlpha" result="shadowOffsetInner1"/><feComposite in="shadowOffsetInner1" in2="SourceAlpha" operator="arithmetic" k2="-1" k3="1" result="shadowInnerInner1"/><feColorMatrix values="0 0 0 0 0.682352941 0 0 0 0 0.925490196 0 0 0 0 1 0 0 0 1 0" in="shadowInnerInner1"/></filter><filter x="-10.1%" y="-9.6%" width="120.2%" height="119.3%" filterUnits="objectBoundingBox" id="aH"><feOffset dx="3" in="SourceAlpha" result="shadowOffsetInner1"/><feComposite in="shadowOffsetInner1" in2="SourceAlpha" operator="arithmetic" k2="-1" k3="1" result="shadowInnerInner1"/><feColorMatrix values="0 0 0 0 0.682352941 0 0 0 0 0.925490196 0 0 0 0 1 0 0 0 1 0" in="shadowInnerInner1"/></filter><filter x="-6.3%" y="-5.3%" width="112.6%" height="110.7%" filterUnits="objectBoundingBox" id="j"><feOffset dx="-3" dy="2" in="SourceAlpha" result="shadowOffsetInner1"/><feComposite in="shadowOffsetInner1" in2="SourceAlpha" operator="arithmetic" k2="-1" k3="1" result="shadowInnerInner1"/><feColorMatrix values="0 0 0 0 1 0 0 0 0 0.964705882 0 0 0 0 0.874509804 0 0 0 1 0" in="shadowInnerInner1"/></filter><filter x="-7.4%" y="-9.3%" width="114.8%" height="118.7%" filterUnits="objectBoundingBox" id="aF"><feOffset dy="2" in="SourceAlpha" result="shadowOffsetInner1"/><feComposite in="shadowOffsetInner1" in2="SourceAlpha" operator="arithmetic" k2="-1" k3="1" result="shadowInnerInner1"/><feColorMatrix values="0 0 0 0 1 0 0 0 0 0.964705882 0 0 0 0 0.874509804 0 0 0 1 0" in="shadowInnerInner1"/></filter><filter x="-16.7%" y="-10.1%" width="133.3%" height="120.2%" filterUnits="objectBoundingBox" id="l"><feOffset dx="-5" dy="2" in="SourceAlpha" result="shadowOffsetInner1"/><feComposite in="shadowOffsetInner1" in2="SourceAlpha" operator="arithmetic" k2="-1" k3="1" result="shadowInnerInner1"/><feColorMatrix values="0 0 0 0 0.968627451 0 0 0 0 0.901960784 0 0 0 0 0.839215686 0 0 0 1 0" in="shadowInnerInner1"/></filter><filter x="-5.9%" y="-9.8%" width="111.9%" height="119.6%" filterUnits="objectBoundingBox" id="aD"><feOffset dx="-2" dy="3" in="SourceAlpha" result="shadowOffsetInner1"/><feComposite in="shadowOffsetInner1" in2="SourceAlpha" operator="arithmetic" k2="-1" k3="1" result="shadowInnerInner1"/><feColorMatrix values="0 0 0 0 0.682352941 0 0 0 0 0.925490196 0 0 0 0 1 0 0 0 0.5 0" in="shadowInnerInner1"/></filter><filter x="-5.3%" y="-4.9%" width="110.6%" height="109.8%" filterUnits="objectBoundingBox" id="n"><feOffset dx="-6" dy="2" in="SourceAlpha" result="shadowOffsetInner1"/><feComposite in="shadowOffsetInner1" in2="SourceAlpha" operator="arithmetic" k2="-1" k3="1" result="shadowInnerInner1"/><feColorMatrix values="0 0 0 0 0.968627451 0 0 0 0 0.901960784 0 0 0 0 0.839215686 0 0 0 1 0" in="shadowInnerInner1"/></filter><filter x="-5.3%" y="-4.9%" width="110.6%" height="109.8%" filterUnits="objectBoundingBox" id="aB"><feOffset dx="-6" dy="2" in="SourceAlpha" result="shadowOffsetInner1"/><feComposite in="shadowOffsetInner1" in2="SourceAlpha" operator="arithmetic" k2="-1" k3="1" result="shadowInnerInner1"/><feColorMatrix values="0 0 0 0 1 0 0 0 0 0.964705882 0 0 0 0 0.874509804 0 0 0 1 0" in="shadowInnerInner1"/></filter><filter x="-10.1%" y="-9.6%" width="120.2%" height="119.3%" filterUnits="objectBoundingBox" id="p"><feOffset dx="3" in="SourceAlpha" result="shadowOffsetInner1"/><feComposite in="shadowOffsetInner1" in2="SourceAlpha" operator="arithmetic" k2="-1" k3="1" result="shadowInnerInner1"/><feColorMatrix values="0 0 0 0 0.682352941 0 0 0 0 0.925490196 0 0 0 0 1 0 0 0 1 0" in="shadowInnerInner1"/></filter><filter x="-6.3%" y="-5.4%" width="112.5%" height="110.8%" filterUnits="objectBoundingBox" id="F"><feOffset dx="-3" dy="1" in="SourceAlpha" result="shadowOffsetInner1"/><feComposite in="shadowOffsetInner1" in2="SourceAlpha" operator="arithmetic" k2="-1" k3="1" result="shadowInnerInner1"/><feColorMatrix values="0 0 0 0 1 0 0 0 0 0.964705882 0 0 0 0 0.874509804 0 0 0 1 0" in="shadowInnerInner1"/></filter><filter x="-10.1%" y="-9.6%" width="120.2%" height="119.3%" filterUnits="objectBoundingBox" id="ah"><feOffset dx="3" in="SourceAlpha" result="shadowOffsetInner1"/><feComposite in="shadowOffsetInner1" in2="SourceAlpha" operator="arithmetic" k2="-1" k3="1" result="shadowInnerInner1"/><feColorMatrix values="0 0 0 0 0.682352941 0 0 0 0 0.925490196 0 0 0 0 1 0 0 0 1 0" in="shadowInnerInner1"/></filter><filter x="-13.3%" y="-8.2%" width="126.6%" height="116.3%" filterUnits="objectBoundingBox" id="H"><feOffset dx="-4" dy="1" in="SourceAlpha" result="shadowOffsetInner1"/><feComposite in="shadowOffsetInner1" in2="SourceAlpha" operator="arithmetic" k2="-1" k3="1" result="shadowInnerInner1"/><feColorMatrix values="0 0 0 0 0.968627451 0 0 0 0 0.901960784 0 0 0 0 0.839215686 0 0 0 1 0" in="shadowInnerInner1"/></filter><filter x="-5.3%" y="-4.9%" width="110.6%" height="109.8%" filterUnits="objectBoundingBox" id="af"><feOffset dx="-6" dy="2" in="SourceAlpha" result="shadowOffsetInner1"/><feComposite in="shadowOffsetInner1" in2="SourceAlpha" operator="arithmetic" k2="-1" k3="1" result="shadowInnerInner1"/><feColorMatrix values="0 0 0 0 0.968627451 0 0 0 0 0.901960784 0 0 0 0 0.839215686 0 0 0 1 0" in="shadowInnerInner1"/></filter><filter x="-5.3%" y="-5%" width="110.6%" height="109.9%" filterUnits="objectBoundingBox" id="J"><feOffset dx="-6" dy="1" in="SourceAlpha" result="shadowOffsetInner1"/><feComposite in="shadowOffsetInner1" in2="SourceAlpha" operator="arithmetic" k2="-1" k3="1" result="shadowInnerInner1"/><feColorMatrix values="0 0 0 0 0.968627451 0 0 0 0 0.901960784 0 0 0 0 0.839215686 0 0 0 1 0" in="shadowInnerInner1"/></filter><filter x="-13.3%" y="-8%" width="126.6%" height="116%" filterUnits="objectBoundingBox" id="ad"><feOffset dx="-4" dy="2" in="SourceAlpha" result="shadowOffsetInner1"/><feComposite in="shadowOffsetInner1" in2="SourceAlpha" operator="arithmetic" k2="-1" k3="1" result="shadowInnerInner1"/><feColorMatrix values="0 0 0 0 0.968627451 0 0 0 0 0.901960784 0 0 0 0 0.839215686 0 0 0 1 0" in="shadowInnerInner1"/></filter><filter x="-10.1%" y="-9.6%" width="120.2%" height="119.3%" filterUnits="objectBoundingBox" id="L"><feOffset dx="3" in="SourceAlpha" result="shadowOffsetInner1"/><feComposite in="shadowOffsetInner1" in2="SourceAlpha" operator="arithmetic" k2="-1" k3="1" result="shadowInnerInner1"/><feColorMatrix values="0 0 0 0 0.682352941 0 0 0 0 0.925490196 0 0 0 0 1 0 0 0 1 0" in="shadowInnerInner1"/></filter><filter x="-6.3%" y="-5.3%" width="112.5%" height="110.6%" filterUnits="objectBoundingBox" id="ab"><feOffset dx="-3" dy="1" in="SourceAlpha" result="shadowOffsetInner1"/><feComposite in="shadowOffsetInner1" in2="SourceAlpha" operator="arithmetic" k2="-1" k3="1" result="shadowInnerInner1"/><feColorMatrix values="0 0 0 0 1 0 0 0 0 0.964705882 0 0 0 0 0.874509804 0 0 0 1 0" in="shadowInnerInner1"/></filter><filter x="-5.9%" y="-31.6%" width="111.9%" height="163.2%" filterUnits="objectBoundingBox" id="N"><feOffset dx="3" in="SourceAlpha" result="shadowOffsetInner1"/><feComposite in="shadowOffsetInner1" in2="SourceAlpha" operator="arithmetic" k2="-1" k3="1" result="shadowInnerInner1"/><feColorMatrix values="0 0 0 0 0.682352941 0 0 0 0 0.925490196 0 0 0 0 1 0 0 0 1 0" in="shadowInnerInner1"/></filter><filter x="-2.7%" y="-6.6%" width="105.3%" height="113.2%" filterUnits="objectBoundingBox" id="Z"><feOffset dx="-4" dy="2" in="SourceAlpha" result="shadowOffsetInner1"/><feComposite in="shadowOffsetInner1" in2="SourceAlpha" operator="arithmetic" k2="-1" k3="1" result="shadowInnerInner1"/><feColorMatrix values="0 0 0 0 0.682352941 0 0 0 0 0.925490196 0 0 0 0 1 0 0 0 1 0" in="shadowInnerInner1"/></filter><filter x="-5.6%" y="-38.1%" width="111.1%" height="176.2%" filterUnits="objectBoundingBox" id="P"><feOffset dx="-2" dy="2" in="SourceAlpha" result="shadowOffsetInner1"/><feComposite in="shadowOffsetInner1" in2="SourceAlpha" operator="arithmetic" k2="-1" k3="1" result="shadowInnerInner1"/><feColorMatrix values="0 0 0 0 0.866666667 0 0 0 0 0.866666667 0 0 0 0 0.866666667 0 0 0 1 0" in="shadowInnerInner1"/></filter><filter x="-3.6%" y="-2.5%" width="107.1%" height="105.1%" filterUnits="objectBoundingBox" id="X"><feOffset dx="-3" dy="2" in="SourceAlpha" result="shadowOffsetInner1"/><feComposite in="shadowOffsetInner1" in2="SourceAlpha" operator="arithmetic" k2="-1" k3="1" result="shadowInnerInner1"/><feColorMatrix values="0 0 0 0 0.968627451 0 0 0 0 0.901960784 0 0 0 0 0.839215686 0 0 0 1 0" in="shadowInnerInner1"/></filter><filter x="-9.8%" y="-19.1%" width="119.7%" height="138.2%" filterUnits="objectBoundingBox" id="R"><feOffset dx="3" in="SourceAlpha" result="shadowOffsetInner1"/><feComposite in="shadowOffsetInner1" in2="SourceAlpha" operator="arithmetic" k2="-1" k3="1" result="shadowInnerInner1"/><feColorMatrix values="0 0 0 0 0.682352941 0 0 0 0 0.925490196 0 0 0 0 1 0 0 0 1 0" in="shadowInnerInner1"/></filter><filter x="-9.8%" y="-19.1%" width="119.7%" height="138.2%" filterUnits="objectBoundingBox" id="aN"><feOffset dx="3" in="SourceAlpha" result="shadowOffsetInner1"/><feComposite in="shadowOffsetInner1" in2="SourceAlpha" operator="arithmetic" k2="-1" k3="1" result="shadowInnerInner1"/><feColorMatrix values="0 0 0 0 0.682352941 0 0 0 0 0.925490196 0 0 0 0 1 0 0 0 1 0" in="shadowInnerInner1"/></filter><filter x="-18.8%" y="-18.8%" width="137.5%" height="137.5%" filterUnits="objectBoundingBox" id="U"><feOffset in="SourceAlpha" result="shadowOffsetOuter1"/><feGaussianBlur stdDeviation="7.5" in="shadowOffsetOuter1" result="shadowBlurOuter1"/><feColorMatrix values="0 0 0 0 0 0 0 0 0 0 0 0 0 0 0 0 0 0 0.2 0" in="shadowBlurOuter1"/></filter><filter x="-18.8%" y="-18.8%" width="137.5%" height="137.5%" filterUnits="objectBoundingBox" id="aq"><feOffset in="SourceAlpha" result="shadowOffsetOuter1"/><feGaussianBlur stdDeviation="7.5" in="shadowOffsetOuter1" result="shadowBlurOuter1"/><feColorMatrix values="0 0 0 0 0 0 0 0 0 0 0 0 0 0 0 0 0 0 0.2 0" in="shadowBlurOuter1"/></filter><filter x="-18.8%" y="-18.8%" width="137.5%" height="137.5%" filterUnits="objectBoundingBox" id="y"><feOffset in="SourceAlpha" result="shadowOffsetOuter1"/><feGaussianBlur stdDeviation="7.5" in="shadowOffsetOuter1" result="shadowBlurOuter1"/><feColorMatrix values="0 0 0 0 0 0 0 0 0 0 0 0 0 0 0 0 0 0 0.2 0" in="shadowBlurOuter1"/></filter><filter x="-9.8%" y="-19.1%" width="119.7%" height="138.2%" filterUnits="objectBoundingBox" id="an"><feOffset dx="3" in="SourceAlpha" result="shadowOffsetInner1"/><feComposite in="shadowOffsetInner1" in2="SourceAlpha" operator="arithmetic" k2="-1" k3="1" result="shadowInnerInner1"/><feColorMatrix values="0 0 0 0 0.682352941 0 0 0 0 0.925490196 0 0 0 0 1 0 0 0 1 0" in="shadowInnerInner1"/></filter><filter x="-3.5%" y="-2.6%" width="107.1%" height="105.1%" filterUnits="objectBoundingBox" id="B"><feOffset dx="-3" dy="1" in="SourceAlpha" result="shadowOffsetInner1"/><feComposite in="shadowOffsetInner1" in2="SourceAlpha" operator="arithmetic" k2="-1" k3="1" result="shadowInnerInner1"/><feColorMatrix values="0 0 0 0 0.968627451 0 0 0 0 0.901960784 0 0 0 0 0.839215686 0 0 0 1 0" in="shadowInnerInner1"/></filter><filter x="-5.6%" y="-38.1%" width="111.1%" height="176.2%" filterUnits="objectBoundingBox" id="al"><feOffset dx="-2" dy="2" in="SourceAlpha" result="shadowOffsetInner1"/><feComposite in="shadowOffsetInner1" in2="SourceAlpha" operator="arithmetic" k2="-1" k3="1" result="shadowInnerInner1"/><feColorMatrix values="0 0 0 0 0.866666667 0 0 0 0 0.866666667 0 0 0 0 0.866666667 0 0 0 1 0" in="shadowInnerInner1"/></filter><path id="S" d="M0 0h156v105H0z"/><path id="a" d="M0 0h156v105H0z"/><path d="M1.747 28.79l1.956 10.14a.63.63 0 00.618.511h16.8a.63.63 0 00.618-.502l2.107-10.14a.63.63 0 00-.617-.758H2.365a.63.63 0 00-.618.75z" id="aM"/><path d="M9.2 98.845c7.137-5.93-6.36-40.051-8.358-55.937C-1.168 26.923 4.495.317 40.156.317c31.45 0 34.214 25.13 34.214 36.082 0 10.951-16.763 42.47-9.507 56.279 7.175 13.657-13.583 11.44-13.583 11.44l-40.776-.735L21.88 92.678 9.2 98.845z" id="W"/><path d="M1.747 28.79l1.956 10.14a.63.63 0 00.618.511h16.8a.63.63 0 00.618-.502l2.107-10.14a.63.63 0 00-.617-.758H2.365a.63.63 0 00-.618.75z" id="Q"/><path d="M30.276 15.897h14.695c16.721 0 30.277 13.556 30.277 30.277H0c0-16.721 13.555-30.277 30.276-30.277z" id="Y"/><path d="M4.413 16.33h16.168c.145 0 .272.099.306.24l.582 2.385H3.525l.582-2.385a.315.315 0 01.306-.24z" id="O"/><path d="M29.347 16.653H45.9l.539 4.176a6.812 6.812 0 001.085 2.904c2.13 3.198 2.842 5.63 2.138 7.297-.924 2.188 0 12.61 0 13.586 0 .587-7.504.587-22.512 0-.08-7.785-.352-12.314-.814-13.586-.745-2.051-.24-4.52 1.518-7.408a6.812 6.812 0 00.937-2.67l.555-4.3z" id="aa"/><path d="M.945 18.229h23.424c.522 0 .945.423.945.945v3.173a.63.63 0 01-.63.63H.63a.63.63 0 01-.63-.63v-3.173c0-.522.423-.945.945-.945z" id="M"/><path d="M36.912 0h1.424a6.813 6.813 0 016.813 6.813V17.36c0 .64-.09 1.277-.269 1.893-1.103 3.817-3.522 5.725-7.256 5.725-3.734 0-6.153-1.908-7.257-5.725a6.812 6.812 0 01-.268-1.893V6.812A6.812 6.812 0 0136.912 0z" id="ac"/><path d="M6.188 44.92h13.475a.63.63 0 00.624-.54l3.172-22.036H1.923l3.644 22.05a.63.63 0 00.621.527z" id="K"/><path d="M60.988 21.179l-1.04 10.45a30.278 30.278 0 01-7.531 17.156c-8.242 9.242-14.565 13.662-18.97 13.26-4.27-.391-10.64-4.706-19.111-12.945a30.278 30.278 0 01-9.02-18.709l-.95-9.56c.475-1.56 2.415-7.084 7.369-12.22C17.183 2.965 20.309.545 22.41.545c2.103 0 2.06 8.364 15.783 8.068 24.614-.532 21.704 11.114 22.563 12.65.014.024.097.01.23-.083z" id="ae"/><path d="M59.988 20.79L58.964 30.9a29.82 29.82 0 01-7.611 17.061c-8.21 9.025-14.513 13.34-18.906 12.946-4.26-.383-10.614-4.602-19.06-12.659A29.82 29.82 0 014.3 29.675l-.935-9.227c.475-1.53 2.415-6.954 7.369-11.994C16.183 2.91 19.309.534 21.41.534c2.103 0 2.06 8.21 15.783 7.92 24.614-.522 21.704 10.91 22.563 12.417.014.024.097.01.23-.08z" id="I"/><path d="M6.188 44.92h13.475a.63.63 0 00.624-.54l3.172-22.036H1.923l3.644 22.05a.63.63 0 00.621.527z" id="ag"/><path d="M36.809 0h1.63a6.71 6.71 0 016.71 6.71v10.312a6.71 6.71 0 01-.28 1.916c-1.109 3.722-3.524 5.583-7.245 5.583-3.722 0-6.137-1.861-7.246-5.583a6.71 6.71 0 01-.279-1.916V6.71A6.71 6.71 0 0136.809 0z" id="G"/><path d="M.945 18.229h23.424c.522 0 .945.423.945.945v3.173a.63.63 0 01-.63.63H.63a.63.63 0 01-.63-.63v-3.173c0-.522.423-.945.945-.945z" id="ai"/><path d="M29.347 16.347H45.9l.535 4.074a6.71 6.71 0 001.098 2.89c2.122 3.132 2.832 5.516 2.13 7.15-.925 2.148 0 12.379 0 13.336 0 .576-7.505.576-22.513 0-.08-7.642-.352-12.088-.814-13.337-.744-2.01-.24-4.43 1.511-7.26a6.71 6.71 0 00.948-2.658l.55-4.195z" id="E"/><path d="M4.413 16.33h16.168c.145 0 .272.099.306.24l.582 2.385H3.525l.582-2.385a.315.315 0 01.306-.24z" id="ak"/><path d="M29.72 15.606h15.807c16.414 0 29.72 13.306 29.72 29.72H0c0-16.414 13.306-29.72 29.72-29.72z" id="C"/><path d="M1.747 28.79l1.956 10.14a.63.63 0 00.618.511h16.8a.63.63 0 00.618-.502l2.107-10.14a.63.63 0 00-.617-.758H2.365a.63.63 0 00-.618.75z" id="am"/><path d="M9.2 97.031c7.137-5.821-6.36-39.316-8.358-54.91C-1.168 26.429 4.495.31 40.156.31c31.45 0 34.214 24.67 34.214 35.42s-16.763 41.69-9.507 55.246c7.175 13.407-13.583 11.23-13.583 11.23l-40.776-.721L21.88 90.977 9.2 97.031z" id="A"/><path id="ao" d="M0 0h156v105H0z"/><path d="M9.17 97.938c7.113-5.876-6.34-39.683-8.33-55.424C-1.164 26.676 4.48.314 40.024.314c31.347 0 34.102 24.9 34.102 35.75 0 10.852-16.708 42.08-9.477 55.763 7.152 13.533-13.537 11.336-13.537 11.336l-40.643-.729 11.34-10.607-12.64 6.111z" id="e"/><path d="M4.413 16.33h16.168c.145 0 .272.099.306.24l.582 2.385H3.525l.582-2.385a.315.315 0 01.306-.24z" id="aK"/><path d="M9.23 98.845c7.16-5.93-6.38-40.051-8.385-55.937C-1.172 26.923 4.51.317 40.285.317c31.552 0 34.325 25.13 34.325 36.082 0 10.951-16.817 42.47-9.538 56.279 7.199 13.657-13.626 11.44-13.626 11.44l-40.909-.735 11.414-10.705L9.23 98.845z" id="as"/><path id="w" d="M0 0h156v105H0z"/><path d="M30.276 15.897h14.938c16.721 0 30.276 13.556 30.276 30.277H0c0-16.721 13.555-30.277 30.276-30.277z" id="au"/><path d="M1.747 28.79l1.956 10.14a.63.63 0 00.618.511h16.8a.63.63 0 00.618-.502l2.107-10.14a.63.63 0 00-.617-.758H2.365a.63.63 0 00-.618.75z" id="u"/><path d="M29.441 16.653H46.05l.54 4.173a6.812 6.812 0 001.09 2.909c2.136 3.197 2.85 5.629 2.145 7.295-.928 2.188 0 12.61 0 13.586 0 .587-7.529.587-22.586 0-.08-7.785-.353-12.314-.816-13.586-.748-2.051-.24-4.52 1.522-7.407a6.813 6.813 0 00.942-2.675l.555-4.295z" id="aw"/><path d="M4.413 16.33h16.168c.145 0 .272.099.306.24l.582 2.385H3.525l.582-2.385a.315.315 0 01.306-.24z" id="s"/><path d="M37.009 0h1.473a6.812 6.812 0 016.812 6.813v10.545c0 .643-.091 1.283-.27 1.901-1.109 3.813-3.535 5.72-7.279 5.72-3.744 0-6.17-1.907-7.278-5.72a6.813 6.813 0 01-.27-1.9V6.811A6.813 6.813 0 0137.008 0z" id="ay"/><path d="M.945 18.229h23.424c.522 0 .945.423.945.945v3.173a.63.63 0 01-.63.63H.63a.63.63 0 01-.63-.63v-3.173c0-.522.423-.945.945-.945z" id="q"/><path d="M61.181 21.179l-1.04 10.43a30.278 30.278 0 01-7.565 17.183C44.311 58.03 37.97 62.447 33.551 62.044c-4.282-.39-10.671-4.704-19.169-12.94a30.278 30.278 0 01-9.054-18.735l-.951-9.539c.476-1.559 2.422-7.083 7.392-12.218C17.235 2.964 20.371.544 22.481.544c2.109 0 2.067 8.364 15.833 8.068 24.694-.532 21.773 11.114 22.636 12.65.013.024.097.01.231-.083z" id="aA"/><path d="M6.188 44.92h13.475a.63.63 0 00.624-.54l3.172-22.036H1.923l3.644 22.05a.63.63 0 00.621.527z" id="o"/><path d="M55.548 108.512h20.946c-8.356-4.947-14.38-8.777-18.07-11.488-3.69-2.712-8.09-6.542-13.2-11.49L38.5 93.422c3.691 4.027 6.61 6.99 8.755 8.889 2.145 1.899 4.91 3.966 8.293 6.202z" id="aC"/><path d="M59.79 20.985L58.758 31.3a30 30 0 01-7.522 17.05c-8.209 9.148-14.508 13.523-18.896 13.124-4.254-.387-10.601-4.66-19.042-12.82a30 30 0 01-9-18.582l-.943-9.434c.473-1.544 2.407-7.018 7.344-12.106C16.13 2.937 19.246.539 21.341.539c2.096 0 2.054 8.287 15.731 7.994 24.533-.527 21.632 11.012 22.489 12.533.013.024.096.01.23-.081z" id="m"/><path d="M31.542 83.576l1.46-3.358c-4.783-3.972-6.62-6.443-5.513-7.413 1.28-1.122 7.714 4.924 10.363 6.365 2.65 1.44 5.628 2.113 7.164.77 1.536-1.345 3.498-3.494 5.793-2.007.617.488-2.291 3.418-2.829 4.963-.137.78 0 3.94-4.259 7.347-1.518 2.182-5.085 1.535-10.7-1.939a3.785 3.785 0 01-1.48-4.728z" id="aE"/><path d="M36.75 0h1.5A6.75 6.75 0 0145 6.75v10.446a6.75 6.75 0 01-.27 1.89c-1.102 3.776-3.512 5.664-7.23 5.664-3.718 0-6.128-1.888-7.23-5.663a6.75 6.75 0 01-.27-1.89V6.75A6.75 6.75 0 0136.75 0z" id="k"/><path d="M6.188 44.92h13.475a.63.63 0 00.624-.54l3.172-22.036H1.923l3.644 22.05a.63.63 0 00.621.527z" id="aG"/><path d="M29.25 16.5h16.5l.536 4.131a6.75 6.75 0 001.085 2.888c2.12 3.167 2.83 5.575 2.129 7.226-.921 2.169 0 12.495 0 13.462 0 .58-7.48.58-22.438 0-.08-7.714-.351-12.202-.812-13.462-.742-2.032-.238-4.477 1.512-7.337a6.75 6.75 0 00.936-2.656l.552-4.252z" id="i"/><path d="M.945 18.229h23.424c.522 0 .945.423.945.945v3.173a.63.63 0 01-.63.63H.63a.63.63 0 01-.63-.63v-3.173c0-.522.423-.945.945-.945z" id="aI"/><path d="M29.998 15.752h15.004C61.569 15.752 75 29.182 75 45.75H0c0-16.568 13.43-29.998 29.998-29.998z" id="g"/><circle id="V" cx="78" cy="74" r="60"/><circle id="ar" cx="78" cy="74" r="60"/><circle id="d" cx="78" cy="74" r="60"/><circle id="z" cx="78" cy="74" r="60"/></defs><g fill="none" fill-rule="evenodd"><g transform="translate(-3 5)"><mask id="b" fill="#fff"><use xlink:href="#a"/></mask><g mask="url(#b)"><use fill="#000" filter="url(#c)" xlink:href="#d"/><use fill="#FFE6A6" xlink:href="#d"/></g></g><g transform="translate(37.5 2)" stroke-linecap="round" stroke-linejoin="round"><use fill="#FFF" xlink:href="#e"/><use fill="#000" filter="url(#f)" xlink:href="#e"/><use stroke="#1B2951" stroke-width="3" xlink:href="#e"/></g><g transform="translate(38.25 64.25)"><use fill="#58CFF3" xlink:href="#g"/><use fill="#000" filter="url(#h)" xlink:href="#g"/><path stroke="#1B2951" stroke-width="3" d="M1.539 44.25H73.46C72.68 29.208 60.237 17.252 45 17.252H29.999c-15.236 0-27.68 11.956-28.46 26.998z" stroke-linejoin="square"/></g><g fill="#AEECFF"><path d="M47.981 91.035c6.969 0 25.35-.178 55.144-.535v3.375H45.75c.407-.675 1.15-1.622 2.231-2.84z"/><path d="M46.705 93.371l-.22-.621h2.64v3.375H45.75v-2.398zm26.045-.621h3.375v3.375H72.75zm-13.5 0h3.375v3.375H59.25zm27 0h3.375v3.375H86.25zm-33.75 0h3.375v3.375H52.5zm27 0h3.375v3.375H79.5zm-13.5 0h3.375v3.375H66zm27 0h3.375v3.375H93zm6.75 0h3.375v3.375H99.75zM49.8 89.174c1.137-.963 2.037-1.271 2.7-.924v3.375h-3.375c0-1.336.225-2.153.675-2.451zm26.325-.924H79.5v3.375h-3.375zm-13.5 0H66v3.375h-3.375zm27 0H93v3.375h-3.375zm-33.75 0h3.375v3.375h-3.375zm27 0h3.375v3.375h-3.375zm-13.5 0h3.375v3.375h-3.375zm27 0h3.375v3.375h-3.375z"/></g><g fill="#AEECFF"><path d="M41.708 101.75H109.5v3.375H40.894z"/><path d="M45.75 104h3.375v3.375H45.75zm27 .75h3.375v3.375H72.75zm-13.5-.75h3.375v3.375H59.25zm27 .75h3.375v3.375H86.25zM52.5 104h3.375v3.375H52.5zm27 .75h3.375v3.375H79.5zm-13.5 0h3.375v3.375H66zm27 0h3.375v3.375H93zm6.75 0h3.375v3.375H99.75zm-50.625-4.5H52.5v3.375h-3.375zm27 0H79.5v3.375h-3.375zm-13.5 0H66v3.375h-3.375zm27 0H93v3.375h-3.375zm-33.75 0h3.375v3.375h-3.375zm27 0h3.375v3.375h-3.375zm-13.5 0h3.375v3.375h-3.375zm27 0h3.375v3.375h-3.375zm5.625 0h3.375v3.375H102z"/></g><g transform="translate(38.25 64.25)"><use fill="#FFF" xlink:href="#i"/><use fill="#000" filter="url(#j)" xlink:href="#i"/><path stroke="#1B2951" stroke-width="2" d="M30.129 17.5l-.439 3.381a7.75 7.75 0 01-1.075 3.049c-1.606 2.623-2.048 4.77-1.426 6.472.498 1.363.768 5.548.861 12.842 6.995.266 12.276.399 15.84.399 1.847 0 3.226-.036 4.13-.106.165-.013.313-.027.442-.042-.054-.895-.146-2.346-.165-2.668a136.203 136.203 0 01-.164-3.481c-.116-3.554-.017-5.902.447-6.992.533-1.255-.09-3.366-2.04-6.28a7.75 7.75 0 01-1.246-3.314l-.423-3.26H30.13z" stroke-linejoin="square"/></g><path d="M54 107.75v-9" stroke="#1B2951" stroke-width="1.5" stroke-linecap="round" stroke-linejoin="round"/><g transform="translate(38.25 64.25)"><use fill="#FFF" xlink:href="#k"/><use fill="#000" filter="url(#l)" xlink:href="#k"/><path stroke="#444" stroke-width="2" d="M36.75 1A5.75 5.75 0 0031 6.75v10.446c0 .545.077 1.088.23 1.61.98 3.358 3.005 4.944 6.27 4.944 3.265 0 5.29-1.586 6.27-4.943a5.75 5.75 0 00.23-1.61V6.75A5.75 5.75 0 0038.25 1h-1.5z" stroke-linejoin="square"/></g><path d="M98.25 107.75v-9" stroke="#1B2951" stroke-width="1.5" stroke-linecap="round" stroke-linejoin="round"/><g transform="translate(42.75 20.75)"><path d="M8 25.757l-1.937.013A5.097 5.097 0 001 30.9a4.883 4.883 0 004.916 4.85L8 35.736v-9.98zm46.25 9.986l1.937-.013a5.097 5.097 0 005.063-5.097V30.6a4.883 4.883 0 00-4.916-4.85l-2.084.014v9.98z" stroke="#1B2951" stroke-width="2" fill="#FFF"/><use fill="#FFF" xlink:href="#m"/><use fill="#000" filter="url(#n)" xlink:href="#m"/><path stroke="#1B2951" stroke-width="2" d="M58.723 21.612a1.165 1.165 0 01-.034-.055c-.184-.328-.247-.648-.323-1.327-.273-2.443-.492-3.385-1.406-4.82-2.466-3.868-8.522-6.121-19.866-5.878-6.303.136-10.357-1.428-13.06-4.308-.942-1.002-2.59-3.524-2.653-3.59-.086-.092-.09-.095-.042-.095-1.672.002-4.628 2.236-9.922 7.69-3.7 3.813-5.934 7.99-7.047 11.513l.923 9.231a29 29 0 008.7 17.963C22.276 55.943 28.48 60.12 32.43 60.48c3.96.36 10.057-3.875 18.062-12.796a29 29 0 007.271-16.481l.96-9.59zM21.339 1.54a1.607 1.607 0 010 0z" stroke-linejoin="square"/><rect fill="#1B2951" x="38.25" y="24" width="3.75" height="5.25" rx="1.875"/><rect fill="#1B2951" x="21" y="24" width="3.75" height="5.25" rx="1.875"/><path d="M28.5 38.25c.25 1 1.125 1.5 2.625 1.5s2.375-.5 2.625-1.5" stroke="#1B2951" stroke-width="2" stroke-linecap="round"/></g><path d="M64.44 23.58c-3.893-12.236.106-19.18 11.996-20.83" stroke="#1B2951" stroke-width="2" stroke-linecap="round" stroke-linejoin="round"/><path d="M68.297 66.75l1.052 2.34a5.36 5.36 0 004.888 3.16h.32a5.784 5.784 0 005.174-3.197l1.151-2.303H68.297z" stroke="#1B2951" stroke-width="2" fill="#FFF"/><path d="M45.76 39.271l26.101.353a.75.75 0 01.41.128c1.657 1.118 3.396 1.076 5.216-.125l26.003-.353a.75.75 0 01.76.75v1.103a.75.75 0 01-.75.75h-.254c-.479 10.778-4.736 16.424-12.773 16.939-8.037.514-12.692-2.733-13.964-9.741-.13-2.926-.758-4.356-1.884-4.292-1.689.097-2.533 1.468-2.533 4.292 0 2.823-1.797 9.74-12.905 9.74-7.405 0-11.887-5.714-13.445-17.142A.742.742 0 0145 40.93v-.91a.75.75 0 01.76-.75zm14.388 2.772a687.353 687.353 0 00-6.742-.02c-3.736.006-3.499 2.717-3.499 2.717S47.94 57.742 60.231 57.008c12.293-.734 10.603-10.352 10.382-12.266-.148-1.276-.836-2.1-2.064-2.474l-8.4-.225zm29.302 0l-8.4.225c-1.228.374-1.916 1.198-2.064 2.474-.222 1.914-1.91 11.532 10.382 12.266S99.69 44.74 99.69 44.74s.238-2.711-3.498-2.717c-2.49-.004-4.738.003-6.743.02z" fill="#1B2951"/><path d="M19.875 108.875h110.25" stroke="#1B2951" stroke-width="2.25" stroke-linecap="round" stroke-linejoin="round"/><g transform="translate(21 63.5)"><use fill="#FFF" xlink:href="#o"/><use fill="#000" filter="url(#p)" xlink:href="#o"/><use stroke="#1B2951" stroke-width="1.35" xlink:href="#o"/><use fill="#FFF" xlink:href="#q"/><use fill="#000" filter="url(#r)" xlink:href="#q"/><path stroke="#1B2951" stroke-width="1.35" d="M.675 22.302h23.964v-3.128a.27.27 0 00-.27-.27H.945a.27.27 0 00-.27.27v3.128z" stroke-linejoin="square"/><use fill="#FFF" xlink:href="#s"/><use fill="#000" filter="url(#t)" xlink:href="#s"/><path stroke="#1B2951" stroke-width="1.125" d="M4.607 16.892l-.366 1.5h16.512l-.366-1.5H4.607z" stroke-linejoin="square"/><use fill="#FFF" xlink:href="#u"/><use fill="#000" filter="url(#v)" xlink:href="#u"/><use stroke="#1B2951" stroke-width="1.35" xlink:href="#u"/><rect stroke="#1B2951" stroke-width=".75" fill="#58CFF3" x="9.988" y="30.948" width="5.659" height="5.581" rx="2.79"/><path d="M5.553 13.5l.924-.62a1.344 1.344 0 00-.816-2.46h0a.704.704 0 01-.27-1.367l2.288-.806a1.89 1.89 0 00.149-3.506l-2.076-.934A1.89 1.89 0 015.186.753L5.933 0" stroke="#666" stroke-width="1.125" stroke-linecap="round" stroke-linejoin="round"/></g><g transform="translate(-3 115)"><mask id="x" fill="#fff"><use xlink:href="#w"/></mask><g mask="url(#x)"><use fill="#000" filter="url(#y)" xlink:href="#z"/><use fill="#FFE6A6" xlink:href="#z"/></g></g><g transform="translate(37 112)" stroke-linecap="round" stroke-linejoin="round"><use fill="#FFF" xlink:href="#A"/><use fill="#000" filter="url(#B)" xlink:href="#A"/><use stroke="#1B2951" stroke-width="2.237" xlink:href="#A"/></g><g transform="translate(37.752 173.674)"><use fill="#58CFF3" xlink:href="#C"/><use fill="#000" filter="url(#D)" xlink:href="#C"/><path stroke="#1B2951" stroke-width="2.237" d="M1.14 44.208h72.968C73.52 28.93 60.949 16.724 45.527 16.724H29.72c-15.423 0-27.994 12.206-28.581 27.484z" stroke-linejoin="square"/></g><g fill="#AEECFF"><path d="M47.516 200.211c6.991 0 25.433-.177 55.326-.53v3.343H45.277c.409-.669 1.155-1.606 2.24-2.813z"/><path d="M46.236 202.525l-.222-.615h2.65v3.343h-3.387v-2.376zm26.13-.615h3.386v3.343h-3.386zm-13.544 0h3.386v3.343h-3.386zm27.089 0h3.386v3.343h-3.386zm-33.861 0h3.385v3.343H52.05zm27.088 0h3.386v3.343h-3.386zm-13.544 0h3.386v3.343h-3.386zm27.089 0h3.386v3.343h-3.386zm6.772 0h3.386v3.343h-3.386zm-50.115-3.543c1.141-.955 2.044-1.26 2.71-.916v3.344h-3.387c0-1.324.226-2.133.677-2.428zm26.412-.916h3.386v3.344h-3.386zm-13.544 0h3.386v3.344h-3.386zm27.089 0h3.386v3.344h-3.386zm-33.862 0h3.386v3.344h-3.386zm27.09 0h3.386v3.344h-3.386zm-13.545 0h3.386v3.344H68.98zm27.09 0h3.385v3.344H96.07z"/></g><g fill="#AEECFF"><path d="M41.222 210.826h68.016v3.344H40.405z"/><path d="M45.277 213.055h3.386v3.344h-3.386zm27.089.743h3.386v3.344h-3.386zm-13.544-.743h3.386v3.344h-3.386zm27.088.743h3.387v3.344H85.91zm-33.86-.743h3.386v3.344H52.05zm27.089.743h3.386v3.344h-3.386zm-13.545 0h3.386v3.344h-3.386zm27.089 0h3.386v3.344h-3.386zm6.773 0h3.386v3.344h-3.386zm-50.793-4.458h3.386v3.344h-3.386zm27.09 0h3.386v3.344h-3.386zm-13.545 0h3.386v3.344h-3.386zm27.089 0h3.386v3.344h-3.386zm-33.861 0h3.386v3.344h-3.386zm27.089 0h3.386v3.344h-3.386zm-13.545 0h3.386v3.344H68.98zm27.089 0h3.386v3.344h-3.386zm5.644 0h3.386v3.344h-3.386z"/></g><g transform="translate(37.752 173.674)"><use fill="#FFF" xlink:href="#E"/><use fill="#000" filter="url(#F)" xlink:href="#E"/><path stroke="#1B2951" stroke-width=".746" d="M29.674 16.72l-.509 3.87a7.082 7.082 0 01-1 2.806c-1.697 2.74-2.177 5.048-1.479 6.935.477 1.289.748 5.62.834 13.107 7.322.28 12.828.418 16.515.418 1.868 0 3.266-.035 4.193-.106a7.438 7.438 0 001.055-.14c-.036-.67-.176-2.835-.197-3.197-.073-1.24-.128-2.366-.164-3.433-.113-3.407-.014-5.707.399-6.667.639-1.485-.038-3.756-2.096-6.794a7.082 7.082 0 01-1.159-3.05l-.492-3.749h-15.9z" stroke-linejoin="square"/></g><path d="M53.554 216.77v-8.916" stroke="#1B2951" stroke-width="1.491" stroke-linecap="round" stroke-linejoin="round"/><g transform="translate(37.752 173.674)"><use fill="#FFF" xlink:href="#G"/><use fill="#000" filter="url(#H)" xlink:href="#G"/><path stroke="#444" stroke-width="1.491" d="M36.809.746a5.964 5.964 0 00-5.964 5.964v10.312c0 .577.083 1.15.248 1.703 1.016 3.41 3.144 5.05 6.53 5.05 3.387 0 5.516-1.64 6.532-5.05a5.964 5.964 0 00.248-1.703V6.71A5.964 5.964 0 0038.439.746h-1.63z" stroke-linejoin="square"/></g><path d="M97.95 216.77v-8.916" stroke="#1B2951" stroke-width="1.491" stroke-linecap="round" stroke-linejoin="round"/><path d="M50.495 155.772l-2.09.015a5.373 5.373 0 00-5.336 5.372v.036a5.156 5.156 0 005.192 5.12l2.234-.015v-10.528zm46 10.538l2.09-.014a5.373 5.373 0 005.336-5.372v-.035a5.156 5.156 0 00-5.192-5.121l-2.234.015v10.528z" stroke="#1B2951" stroke-width="1.491" fill="#FFF"/><g transform="translate(42.267 130.576)"><use fill="#FFF" xlink:href="#I"/><use fill="#000" filter="url(#J)" xlink:href="#I"/><path stroke="#1B2951" stroke-width="2.237" d="M58.797 21.445a1.333 1.333 0 01-.011-.02c-.198-.347-.263-.674-.341-1.367-.272-2.4-.488-3.318-1.39-4.716-2.448-3.791-8.489-6.011-19.837-5.77-6.352.134-10.449-1.427-13.184-4.304-.955-1.004-2.61-3.502-2.661-3.557-.052-.055-.05-.06-.008-.06-1.614.02-4.564 2.226-9.833 7.586a30.675 30.675 0 00-5.175 7.057c-.862 1.613-1.468 3.075-1.855 4.272l.911 8.996a28.702 28.702 0 008.745 17.876c8.27 7.889 14.464 12.002 18.388 12.354 3.92.352 9.996-3.81 17.98-12.584a28.702 28.702 0 007.325-16.422l.946-9.34zM21.365 1.652h.046-.02z" stroke-linejoin="square"/></g><path d="M64.03 133.38c-3.907-12.123.105-19.002 12.035-20.637" stroke="#1B2951" stroke-width="2.237" stroke-linecap="round" stroke-linejoin="round"/><g stroke="#1B2951"><path d="M61.832 158.07c0-1.487 1.204-2.973 3.01-2.973 1.806 0 3.01 1.486 3.01 2.972m12.792.001c0-1.487 1.204-2.973 3.01-2.973 1.805 0 3.01 1.486 3.01 2.972" stroke-width="2.275" stroke-linecap="round"/><path d="M67.483 175.162l1.321 3.045a6.045 6.045 0 005.545 3.638h.078a6.473 6.473 0 005.83-3.661l1.457-3.022H67.483z" stroke-width="1.491" fill="#FFF"/><path d="M71.614 166.243c.25.99 1.129 1.486 2.634 1.486 1.504 0 2.382-.495 2.633-1.486" stroke-width="2.237" stroke-linecap="round"/></g><path d="M45.28 148.926c28.143 1.585 29.947 1.585 31.84.353l26.095-.35a.746.746 0 01.755.745v1.088a.745.745 0 01-.745.746h-.262c-.48 10.678-4.752 16.272-12.815 16.781-8.064.51-12.734-2.707-14.01-9.65-.131-2.898-.761-4.316-1.89-4.252-1.695.096-2.542 1.454-2.542 4.252 0 2.797-1.803 9.65-12.948 9.65-7.43 0-11.926-5.66-13.489-16.983a.745.745 0 01-.744-.745v-.89a.745.745 0 01.755-.745zm14.451 2.745a698.153 698.153 0 00-6.764-.011c-3.748.01-3.513 2.695-3.513 2.695S47.465 167.24 59.798 166.5c12.332-.74 10.648-10.269 10.428-12.165-.147-1.264-.836-2.08-2.067-2.449l-8.428-.215zm29.383 0l-8.428.215c-1.23.369-1.92 1.185-2.067 2.45-.22 1.895-1.904 11.423 10.428 12.164 12.333.74 10.344-12.145 10.344-12.145s.235-2.685-3.513-2.695a698.153 698.153 0 00-6.764.011z" fill="#1B2951"/><path d="M19.875 218.875h110.25" stroke="#1B2951" stroke-width="2.25" stroke-linecap="round" stroke-linejoin="round"/><g transform="translate(21 173.5)"><use fill="#FFF" xlink:href="#K"/><use fill="#000" filter="url(#L)" xlink:href="#K"/><use stroke="#1B2951" stroke-width="1.35" xlink:href="#K"/><use fill="#FFF" xlink:href="#M"/><use fill="#000" filter="url(#N)" xlink:href="#M"/><path stroke="#1B2951" stroke-width="1.35" d="M.675 22.302h23.964v-3.128a.27.27 0 00-.27-.27H.945a.27.27 0 00-.27.27v3.128z" stroke-linejoin="square"/><use fill="#FFF" xlink:href="#O"/><use fill="#000" filter="url(#P)" xlink:href="#O"/><path stroke="#1B2951" stroke-width="1.125" d="M4.607 16.892l-.366 1.5h16.512l-.366-1.5H4.607z" stroke-linejoin="square"/><use fill="#FFF" xlink:href="#Q"/><use fill="#000" filter="url(#R)" xlink:href="#Q"/><use stroke="#1B2951" stroke-width="1.35" xlink:href="#Q"/><rect stroke="#1B2951" stroke-width=".75" fill="#58CFF3" x="9.988" y="30.948" width="5.659" height="5.581" rx="2.79"/><path d="M5.553 13.5l.924-.62a1.344 1.344 0 00-.816-2.46h0a.704.704 0 01-.27-1.367l2.288-.806a1.89 1.89 0 00.149-3.506l-2.076-.934A1.89 1.89 0 015.186.753L5.933 0" stroke="#666" stroke-width="1.125" stroke-linecap="round" stroke-linejoin="round"/></g><g transform="translate(-3 225)"><mask id="T" fill="#fff"><use xlink:href="#S"/></mask><g mask="url(#T)"><use fill="#000" filter="url(#U)" xlink:href="#V"/><use fill="#FFE6A6" xlink:href="#V"/></g></g><g transform="translate(37 222)" stroke-linecap="round" stroke-linejoin="round"><use fill="#FFF" xlink:href="#W"/><use fill="#000" filter="url(#X)" xlink:href="#W"/><use stroke="#1B2951" stroke-width="2.271" xlink:href="#W"/></g><g transform="translate(37.752 284.826)"><use fill="#58CFF3" xlink:href="#Y"/><use fill="#000" filter="url(#Z)" xlink:href="#Y"/><path stroke="#1B2951" stroke-width="2.271" d="M1.157 45.038H74.09c-.596-15.568-13.405-28.005-29.119-28.005H30.276c-15.714 0-28.522 12.437-29.119 28.005z" stroke-linejoin="square"/></g><g fill="#AEECFF"><path d="M47.516 311.86c6.991 0 25.433-.18 55.326-.54v3.406H45.277c.409-.682 1.155-1.637 2.24-2.866z"/><path d="M46.236 314.217l-.222-.627h2.65v3.407h-3.387v-2.42zm26.13-.627h3.386v3.407h-3.386zm-13.544 0h3.386v3.407h-3.386zm27.089 0h3.386v3.407h-3.386zm-33.861 0h3.385v3.407H52.05zm27.088 0h3.386v3.407h-3.386zm-13.544 0h3.386v3.407h-3.386zm27.089 0h3.386v3.407h-3.386zm6.772 0h3.386v3.407h-3.386zm-50.115-3.61c1.141-.971 2.044-1.282 2.71-.931v3.406h-3.387c0-1.349.226-2.173.677-2.474zm26.412-.931h3.386v3.406h-3.386zm-13.544 0h3.386v3.406h-3.386zm27.089 0h3.386v3.406h-3.386zm-33.862 0h3.386v3.406h-3.386zm27.09 0h3.386v3.406h-3.386zm-13.545 0h3.386v3.406H68.98zm27.09 0h3.385v3.406H96.07z"/></g><g fill="#AEECFF"><path d="M41.222 322.674h68.016v3.406H40.405z"/><path d="M45.277 324.945h3.386v3.406h-3.386zm27.089.757h3.386v3.406h-3.386zm-13.544-.757h3.386v3.406h-3.386zm27.088.757h3.387v3.406H85.91zm-33.86-.757h3.386v3.406H52.05zm27.089.757h3.386v3.406h-3.386zm-13.545 0h3.386v3.406h-3.386zm27.089 0h3.386v3.406h-3.386zm6.773 0h3.386v3.406h-3.386zm-50.793-4.542h3.386v3.406h-3.386zm27.09 0h3.386v3.406h-3.386zm-13.545 0h3.386v3.406h-3.386zm27.089 0h3.386v3.406h-3.386zm-33.861 0h3.386v3.406h-3.386zm27.089 0h3.386v3.406h-3.386zm-13.545 0h3.386v3.406H68.98zm27.089 0h3.386v3.406h-3.386zm5.644 0h3.386v3.406h-3.386z"/></g><g transform="translate(37.752 284.826)"><use fill="#FFF" xlink:href="#aa"/><use fill="#000" filter="url(#ab)" xlink:href="#aa"/><path stroke="#1B2951" stroke-width=".757" d="M29.68 17.031L29.167 21a7.191 7.191 0 01-.99 2.82c-1.703 2.798-2.186 5.154-1.486 7.081.477 1.313.748 5.724.833 13.352 7.32.284 12.824.425 16.51.425 1.867 0 3.266-.036 4.192-.108a7.3 7.3 0 001.05-.142c-.035-.68-.176-2.89-.197-3.259-.073-1.263-.128-2.41-.164-3.497-.113-3.469-.014-5.812.399-6.789.64-1.517-.04-3.837-2.105-6.939a7.191 7.191 0 01-1.146-3.065l-.496-3.847H29.68z" stroke-linejoin="square"/></g><path d="M53.554 328.73v-9.084" stroke="#1B2951" stroke-width="1.514" stroke-linecap="round" stroke-linejoin="round"/><g transform="translate(37.752 284.826)"><use fill="#FFF" xlink:href="#ac"/><use fill="#000" filter="url(#ad)" xlink:href="#ac"/><path stroke="#444" stroke-width="1.514" d="M36.912.757a6.056 6.056 0 00-6.056 6.056V17.36c0 .57.08 1.136.238 1.682 1.012 3.5 3.14 5.18 6.53 5.18s5.517-1.68 6.53-5.18a6.056 6.056 0 00.238-1.682V6.812A6.056 6.056 0 0038.336.758h-1.424z" stroke-linejoin="square"/></g><path d="M97.95 328.73v-9.084" stroke="#1B2951" stroke-width="1.514" stroke-linecap="round" stroke-linejoin="round"/><path d="M50.567 266.7l-2.245.016a5.36 5.36 0 00-5.324 5.395 5.146 5.146 0 005.18 5.11l2.389-.016v-10.504zm45.856 10.516l2.245-.015a5.36 5.36 0 005.325-5.36v-.035a5.146 5.146 0 00-5.18-5.11l-2.39.015v10.505z" stroke="#1B2951" stroke-width="1.514" fill="#FFF"/><g transform="translate(41.267 240.924)"><use fill="#FFF" xlink:href="#ae"/><use fill="#000" filter="url(#af)" xlink:href="#ae"/><path stroke="#1B2951" stroke-width="2.271" d="M59.78 21.841a1.343 1.343 0 01-.014-.025c-.196-.351-.26-.682-.339-1.386-.272-2.447-.489-3.385-1.392-4.812-2.445-3.859-8.477-6.116-19.816-5.871-6.361.137-10.466-1.456-13.205-4.39-.955-1.023-2.609-3.569-2.66-3.624-.046-.049-.045-.055-.009-.055-1.593.03-4.541 2.279-9.793 7.722-3.69 3.824-5.92 8.012-7.034 11.547l.928 9.332a29.142 29.142 0 008.681 18.007c8.292 8.064 14.5 12.269 18.423 12.628 3.915.357 10.01-3.903 18.02-12.885a29.142 29.142 0 007.248-16.512l.963-9.676zM22.346 1.678l.066.002h-.03z" stroke-linejoin="square"/></g><path d="M64.03 243.78c-3.907-12.35.105-19.357 12.035-21.023" stroke="#1B2951" stroke-width="2.271" stroke-linecap="round" stroke-linejoin="round"/><g transform="translate(61.832 257.576)" stroke="#1B2951"><rect stroke-width=".757" fill="#1B2951" x="19.19" y="7.191" width="3.005" height="4.542" rx="1.503"/><rect stroke-width=".757" fill="#1B2951" x="1.883" y="7.191" width="3.005" height="4.542" rx="1.503"/><path d="M0 1.514C1.129.504 2.351 0 3.668 0 4.985 0 6.02.505 6.772 1.514m10.535 0C18.436.504 19.658 0 20.975 0c1.317 0 2.352.505 3.104 1.514" stroke-width="2.271" stroke-linecap="round" stroke-linejoin="round"/><path d="M9.782 18.167c.251 1.009 1.129 1.514 2.634 1.514s2.383-.505 2.634-1.514" stroke-width="2.271" stroke-linecap="round"/><ellipse stroke-width="1.514" fill="#FFF" cx="13.168" cy="31.413" rx="3.386" ry="4.163"/></g><path d="M45.292 259.617l26.18.355a.757.757 0 01.415.13c1.662 1.127 3.406 1.085 5.232-.127l26.084-.356a.757.757 0 01.767.757v1.113a.757.757 0 01-.757.757h-.25c-.48 10.878-4.752 16.577-12.815 17.096-8.064.518-12.734-2.759-14.01-9.832-.131-2.952-.761-4.395-1.89-4.33-1.695.097-2.542 1.48-2.542 4.33s-1.803 9.832-12.948 9.832c-7.43 0-11.926-5.768-13.489-17.302a.745.745 0 01-.744-.744v-.923a.757.757 0 01.767-.756zm14.427 2.796a685.648 685.648 0 00-6.765-.023c-3.748.004-3.508 2.74-3.508 2.74s-1.969 13.121 10.364 12.387c12.334-.734 10.634-10.442 10.41-12.374-.149-1.287-.84-2.12-2.071-2.497l-8.43-.233zm29.407 0l-8.43.233c-1.232.377-1.922 1.21-2.071 2.497-.224 1.932-1.923 11.64 10.41 12.374S99.4 265.13 99.4 265.13s.239-2.736-3.51-2.74c-2.498-.002-4.753.006-6.764.023z" fill="#1B2951"/><path d="M19.875 328.875h110.25" stroke="#1B2951" stroke-width="2.25" stroke-linecap="round" stroke-linejoin="round"/><g transform="translate(21 283.5)"><use fill="#FFF" xlink:href="#ag"/><use fill="#000" filter="url(#ah)" xlink:href="#ag"/><use stroke="#1B2951" stroke-width="1.35" xlink:href="#ag"/><use fill="#FFF" xlink:href="#ai"/><use fill="#000" filter="url(#aj)" xlink:href="#ai"/><path stroke="#1B2951" stroke-width="1.35" d="M.675 22.302h23.964v-3.128a.27.27 0 00-.27-.27H.945a.27.27 0 00-.27.27v3.128z" stroke-linejoin="square"/><use fill="#FFF" xlink:href="#ak"/><use fill="#000" filter="url(#al)" xlink:href="#ak"/><path stroke="#1B2951" stroke-width="1.125" d="M4.607 16.892l-.366 1.5h16.512l-.366-1.5H4.607z" stroke-linejoin="square"/><use fill="#FFF" xlink:href="#am"/><use fill="#000" filter="url(#an)" xlink:href="#am"/><use stroke="#1B2951" stroke-width="1.35" xlink:href="#am"/><rect stroke="#1B2951" stroke-width=".75" fill="#58CFF3" x="9.988" y="30.948" width="5.659" height="5.581" rx="2.79"/><path d="M5.553 13.5l.924-.62a1.344 1.344 0 00-.816-2.46h0a.704.704 0 01-.27-1.367l2.288-.806a1.89 1.89 0 00.149-3.506l-2.076-.934A1.89 1.89 0 015.186.753L5.933 0" stroke="#666" stroke-width="1.125" stroke-linecap="round" stroke-linejoin="round"/></g><g transform="translate(-3 336)"><mask id="ap" fill="#fff"><use xlink:href="#ao"/></mask><g mask="url(#ap)"><use fill="#000" filter="url(#aq)" xlink:href="#ar"/><use fill="#FFE6A6" xlink:href="#ar"/></g></g><g transform="translate(38 333)" stroke-linecap="round" stroke-linejoin="round"><use fill="#FFF" xlink:href="#as"/><use fill="#000" filter="url(#at)" xlink:href="#as"/><use stroke="#1B2951" stroke-width="2.271" xlink:href="#as"/></g><g transform="translate(38.755 395.826)"><use fill="#58CFF3" xlink:href="#au"/><use fill="#000" filter="url(#av)" xlink:href="#au"/><path stroke="#1B2951" stroke-width="2.271" d="M1.157 45.038h73.176c-.596-15.568-13.405-28.005-29.119-28.005H30.276c-15.714 0-28.522 12.437-29.119 28.005z" stroke-linejoin="square"/></g><g fill="#AEECFF"><path d="M48.55 422.86c7.014 0 25.515-.18 55.504-.54v3.406h-57.75c.41-.682 1.158-1.637 2.246-2.866z"/><path d="M47.265 425.217l-.222-.627h2.658v3.407h-3.397v-2.42zm26.215-.627h3.397v3.407H73.48zm-13.588 0h3.397v3.407h-3.397zm27.177 0h3.397v3.407h-3.397zm-33.971 0h3.397v3.407h-3.397zm27.177 0h3.397v3.407h-3.397zm-13.589 0h3.397v3.407h-3.397zm27.177 0h3.397v3.407h-3.397zm6.794 0h3.397v3.407h-3.397zm-50.277-3.61c1.145-.971 2.05-1.282 2.718-.931v3.406h-3.397c0-1.349.226-2.173.68-2.474zm26.498-.931h3.397v3.406h-3.397zm-13.589 0h3.397v3.406h-3.397zm27.177 0h3.397v3.406h-3.397zm-33.971 0h3.397v3.406h-3.397zm27.177 0h3.397v3.406h-3.397zm-13.589 0h3.397v3.406h-3.397zm27.177 0h3.397v3.406H97.26z"/></g><g fill="#AEECFF"><path d="M42.235 433.674h68.236v3.406H41.416z"/><path d="M46.304 435.945H49.7v3.406h-3.397zm27.176.757h3.398v3.406H73.48zm-13.587-.757h3.397v3.406h-3.397zm27.176.757h3.397v3.406h-3.397zm-33.971-.757h3.397v3.406h-3.397zm27.177.757h3.397v3.406h-3.397zm-13.588 0h3.397v3.406h-3.397zm27.176 0h3.397v3.406h-3.397zm6.794 0h3.397v3.406h-3.397zM49.7 432.16h3.398v3.406H49.7zm27.178 0h3.397v3.406h-3.397zm-13.588 0h3.397v3.406H63.29zm27.176 0h3.397v3.406h-3.397zm-33.971 0h3.397v3.406h-3.397zm27.177 0h3.397v3.406h-3.397zm-13.588 0h3.397v3.406h-3.397zm27.176 0h3.397v3.406H97.26zm5.662 0h3.397v3.406h-3.397z"/></g><g transform="translate(38.755 395.826)"><use fill="#FFF" xlink:href="#aw"/><use fill="#000" filter="url(#ax)" xlink:href="#aw"/><path stroke="#1B2951" stroke-width=".757" d="M29.774 17.031l-.513 3.965a7.19 7.19 0 01-.994 2.824c-1.708 2.798-2.192 5.154-1.49 7.08.478 1.312.75 5.724.836 13.352 7.344.284 12.866.425 16.564.425 1.873 0 3.276-.036 4.206-.108a7.347 7.347 0 001.054-.142c-.035-.68-.176-2.89-.197-3.259-.074-1.263-.13-2.41-.165-3.497-.113-3.47-.014-5.813.4-6.79.643-1.516-.039-3.835-2.11-6.936a7.191 7.191 0 01-1.152-3.07l-.497-3.844H29.774z" stroke-linejoin="square"/></g><path d="M54.608 439.73v-9.084" stroke="#1B2951" stroke-width="1.514" stroke-linecap="round" stroke-linejoin="round"/><g transform="translate(38.755 395.826)"><use fill="#FFF" xlink:href="#ay"/><use fill="#000" filter="url(#az)" xlink:href="#ay"/><path stroke="#444" stroke-width="1.514" d="M37.009.757a6.056 6.056 0 00-6.056 6.056v10.545c0 .572.081 1.14.24 1.69 1.017 3.496 3.152 5.174 6.552 5.174 3.4 0 5.536-1.678 6.552-5.174.16-.55.24-1.118.24-1.69V6.812A6.056 6.056 0 0038.482.758h-1.473z" stroke-linejoin="square"/></g><path d="M99.147 439.73v-9.084" stroke="#1B2951" stroke-width="1.514" stroke-linecap="round" stroke-linejoin="round"/><path d="M51.598 377.681l-2.225.015a5.38 5.38 0 00-5.344 5.38v.035a5.164 5.164 0 005.2 5.13l2.37-.016V377.68zm46.029 10.554l2.226-.015a5.38 5.38 0 005.343-5.38v-.034a5.164 5.164 0 00-5.199-5.13l-2.37.016v10.543z" stroke="#1B2951" stroke-width="1.514" fill="#FFF"/><g transform="translate(42.284 351.924)"><use fill="#FFF" xlink:href="#aA"/><use fill="#000" filter="url(#aB)" xlink:href="#aA"/><path stroke="#1B2951" stroke-width="2.271" d="M59.974 21.842a1.344 1.344 0 01-.014-.025c-.197-.351-.262-.682-.34-1.386-.273-2.448-.49-3.385-1.398-4.811-2.453-3.86-8.505-6.118-19.883-5.873-6.38.137-10.497-1.455-13.244-4.39-.957-1.022-2.617-3.567-2.669-3.623-.047-.05-.046-.056-.008-.056-1.602.027-4.56 2.276-9.833 7.723-3.7 3.824-5.939 8.012-7.056 11.546l.93 9.31a29.142 29.142 0 008.714 18.031c8.317 8.063 14.544 12.267 18.481 12.625 3.93.359 10.043-3.9 18.076-12.878a29.142 29.142 0 007.28-16.539l.964-9.654zM22.418 1.678l.063.002h-.028z" stroke-linejoin="square"/></g><path d="M65.117 354.78c-3.92-12.35.105-19.357 12.074-21.023" stroke="#1B2951" stroke-width="2.271" stroke-linecap="round" stroke-linejoin="round"/><g stroke="#1B2951"><g transform="matrix(-1 0 0 1 93.863 369.333)"><rect stroke-width=".757" fill="#1B2951" transform="rotate(-5 28.309 7.191)" x="26.8" y="4.92" width="3.018" height="4.542" rx="1.509"/><path d="M0 3.785c4.874-4.873 9.403-5.04 13.588-.503M24.912 2.27C28.165.844 32.694.426 38.5 1.019" stroke-width="1.514" stroke-linecap="round" stroke-linejoin="round"/><rect stroke-width=".757" fill="#1B2951" transform="rotate(-5 10.946 7.191)" x="9.437" y="4.92" width="3.018" height="4.542" rx="1.509"/></g><path d="M71.216 389.77c.251 1.01 1.132 1.515 2.642 1.515s2.39-.505 2.642-1.514" stroke-width="2.271" stroke-linecap="round"/><path d="M70.46 401.402c4.831-.616 8.354-.204 10.57 1.237" stroke-width="1.514" stroke-linecap="round"/></g><path d="M46.316 370.616l26.269.356a.757.757 0 01.413.13c1.668 1.127 3.418 1.085 5.25-.127l26.171-.356a.757.757 0 01.767.757v1.113a.757.757 0 01-.757.757h-.253c-.482 10.878-4.767 16.577-12.857 17.096-8.09.518-12.774-2.759-14.055-9.832-.131-2.952-.763-4.395-1.896-4.33-1.7.097-2.55 1.48-2.55 4.33s-1.809 9.832-12.99 9.832c-7.453 0-11.964-5.768-13.532-17.302a.747.747 0 01-.747-.747v-.92a.757.757 0 01.767-.757zm14.479 2.797a682.23 682.23 0 00-6.787-.02c-3.76.004-3.52 2.74-3.52 2.74s-1.98 13.122 10.394 12.384c12.373-.737 10.67-10.445 10.446-12.376-.149-1.288-.841-2.12-2.077-2.498l-8.456-.23zm29.497 0l-8.456.23c-1.236.377-1.929 1.21-2.078 2.498-.224 1.931-1.926 11.639 10.447 12.376 12.373.738 10.394-12.384 10.394-12.384s.24-2.736-3.52-2.74c-2.507-.004-4.77.003-6.787.02z" fill="#1B2951"/><g stroke-linecap="round" stroke-linejoin="round" transform="translate(38 333)"><use fill="#58CFF3" xlink:href="#aC"/><use fill="#000" filter="url(#aD)" xlink:href="#aC"/><use stroke="#1B2951" stroke-width="1.514" xlink:href="#aC"/></g><g stroke-linecap="round" stroke-linejoin="round" transform="translate(38 333)"><use fill="#FFF" xlink:href="#aE"/><use fill="#000" filter="url(#aF)" xlink:href="#aE"/><use stroke="#1B2951" stroke-width="1.514" xlink:href="#aE"/></g><path d="M19.875 439.875h110.25" stroke="#1B2951" stroke-width="2.25" stroke-linecap="round" stroke-linejoin="round"/><g transform="translate(21 394.5)"><use fill="#FFF" xlink:href="#aG"/><use fill="#000" filter="url(#aH)" xlink:href="#aG"/><use stroke="#1B2951" stroke-width="1.35" xlink:href="#aG"/><use fill="#FFF" xlink:href="#aI"/><use fill="#000" filter="url(#aJ)" xlink:href="#aI"/><path stroke="#1B2951" stroke-width="1.35" d="M.675 22.302h23.964v-3.128a.27.27 0 00-.27-.27H.945a.27.27 0 00-.27.27v3.128z" stroke-linejoin="square"/><use fill="#FFF" xlink:href="#aK"/><use fill="#000" filter="url(#aL)" xlink:href="#aK"/><path stroke="#1B2951" stroke-width="1.125" d="M4.607 16.892l-.366 1.5h16.512l-.366-1.5H4.607z" stroke-linejoin="square"/><use fill="#FFF" xlink:href="#aM"/><use fill="#000" filter="url(#aN)" xlink:href="#aM"/><use stroke="#1B2951" stroke-width="1.35" xlink:href="#aM"/><rect stroke="#1B2951" stroke-width=".75" fill="#58CFF3" x="9.988" y="30.948" width="5.659" height="5.581" rx="2.79"/><path d="M5.553 13.5l.924-.62a1.344 1.344 0 00-.816-2.46h0a.704.704 0 01-.27-1.367l2.288-.806a1.89 1.89 0 00.149-3.506l-2.076-.934A1.89 1.89 0 015.186.753L5.933 0" stroke="#666" stroke-width="1.125" stroke-linecap="round" stroke-linejoin="round"/></g></g></svg>