<svg width="32" height="32" viewBox="0 0 32 32" xmlns="http://www.w3.org/2000/svg"><g fill="none"><path d="M19.965 9.978c1.996-.434 2.994-1.432 2.994-2.993 0-2.342-1.34-2.994-2.994-2.994-1.103 0-2.101.998-2.995 2.994h3.758l-.763 2.993z"/><path fill="#FFF" d="M14.478 23.948v3.89H9.501v2.097h10.98v-2.091h-6.003"/><path stroke="#410062" stroke-width="1.006" stroke-linecap="round" stroke-linejoin="round" d="M14.96 23.948v3.89H9.983v2.097h10.98v-2.091h-4.484"/><path d="M21.734 8.98a3.496 3.496 0 003.222-3.487 3.496 3.496 0 00-3.494-3.497 3.496 3.496 0 00-3.494 3.497" fill="#FFF"/><path d="M20.812 8.977c.555.005.862.005.922 0a3.495 3.495 0 003.222-3.485 3.495 3.495 0 10-6.988 0" stroke="#410062" stroke-width="1.006" stroke-linecap="round" stroke-linejoin="round"/><path d="M10.155 16.611l1.14-5.285-2.311-5.339h12.977l-2.4 5.339 1.207 5.212c.173.548.266 1.132.266 1.738 0 3.133-2.49 5.672-5.561 5.672-3.072 0-5.562-2.539-5.562-5.672 0-.58.085-1.138.244-1.665z" fill="#FFF"/><path d="M10.902 14.498l.355-1.526h8.667l.951 4.913c.537 2.776-1.456 5.526-4.37 6.038-.32.057-.578 0-.904 0-2.857 0-5.618-2.205-5.619-4.927" fill="#00D2C4"/><path d="M10.155 16.611l1.14-5.285-2.311-5.339h12.977l-2.4 5.339 1.207 5.212c.173.548.266 1.132.266 1.738 0 3.133-2.49 5.672-5.561 5.672-3.072 0-5.562-2.539-5.562-5.672 0-.58.085-1.138.244-1.665z" stroke="#410062" stroke-width="1.006" stroke-linecap="round" stroke-linejoin="round"/><path stroke="#410062" stroke-width="1.006" stroke-linecap="round" stroke-linejoin="round" d="M8.984 2.346L11.005.998l3.968 12.972"/></g></svg>