<svg width="32" height="32" viewBox="0 0 32 32" xmlns="http://www.w3.org/2000/svg"><g fill="none"><path d="M16.76 23.32a7.829 7.829 0 01-4.781 1.626c-4.41 0-7.986-3.661-7.986-8.177a8.234 8.234 0 013.097-6.467c.587-3.779 3.629-6.31 7.583-6.31 2.742 0 4.891 1.428 6.125 3.594 3.014 1.17 5.156 4.154 5.156 7.65 0 4.516-3.575 8.177-7.986 8.177a7.91 7.91 0 01-1.209-.093z" fill="#FFF"/><path d="M16.76 22.4a8.084 8.084 0 01-4.781 1.548c-4.41 0-7.986-3.486-7.986-7.788 0-2.512 1.22-4.747 3.114-6.17.63-3.411 3.689-5.999 7.367-5.999a7.526 7.526 0 016.352 3.434c2.999 1.122 5.128 3.956 5.128 7.275 0 4.301-3.575 7.788-7.986 7.788-.41 0-.815-.03-1.209-.089z" stroke="#410062" stroke-width="1.006" stroke-linecap="round" stroke-linejoin="round"/><ellipse stroke="#410062" stroke-width="1.006" fill="#E45480" stroke-linecap="round" stroke-linejoin="round" cx="14.474" cy="14.469" rx="3.494" ry="3.492"/><path d="M28.949 25.63c0-4.675-2.627-4.675-8.86-4.675s-6.233.935-7.045 4.675c-.63 2.9 3.26.102 7.986 0 4.5-.097 7.919 2.77 7.919 0z" fill="#FFF"/><path d="M28.927 25.532c0-4.577-2.602-4.577-8.776-4.577-6.173 0-6.173.915-6.978 4.577-.271 1.236-.426-.639.683-1.307 1.44-.87 4.516-.83 7.16-.886 2.533-.054 5.621-.001 7.057.886 1.09.673.854 2.479.854 1.307z" fill="#E45480"/><path d="M28.949 25.63c0-4.675-2.627-4.675-8.86-4.675s-6.233.935-7.045 4.675c-.63 2.9 3.26.102 7.986 0 4.5-.097 7.919 2.77 7.919 0zm-14.974-1.059c5.356-2.28 10.347-2.154 14.974.375" stroke="#410062" stroke-width="1.006" stroke-linecap="round" stroke-linejoin="round"/></g></svg>