<svg width="32" height="32" viewBox="0 0 32 32" xmlns="http://www.w3.org/2000/svg"><g fill="none"><path d="M21.89 18h4.048V8.632l.843-1.66c.517-1.02.088-2.254-.958-2.758a2.16 2.16 0 00-.936-.213L14.113 4C12.946 4 12 4.921 12 6.058c0 .307.07.611.207.889l.829 1.685v3.35" fill="#FFF"/><path d="M21.89 18h4.048V8.632l.843-1.66c.517-1.02.088-2.254-.958-2.758a2.16 2.16 0 00-.936-.213L14.113 4C12.946 4 12 4.921 12 6.058c0 .307.07.611.207.889l.829 1.685v3.35" stroke="#410062" stroke-linecap="round" stroke-linejoin="round"/><path d="M16.37 15.981h2.504c.755 4.147-1.953 8.128-6.05 8.892-.45.085-2.093.127-2.552.127C6.256 25 3.001 21.706 3 17.64c.032-1.878.373-3.092 1.023-3.64" fill="#FFF"/><path d="M4 14.087L9.19 16l7.362-.019h2.322c.755 4.138-1.953 8.13-6.05 8.893-.45.084-2.093.126-2.552.126-4.016 0-7.253-3.288-7.253-7.344" stroke="#410062" stroke-linecap="round" stroke-linejoin="round"/><path d="M12.278 12.167c2.556.521 4.13 1.785 4.722 3.79L9.088 16 4 14.087a7.323 7.323 0 011.364-1.037 1.91 1.91 0 01-.326-1.067c0-1.095.93-1.983 2.076-1.983.754 0 1.415.385 1.778.96.361-.29.827-.464 1.335-.464 1.036 0 1.895.724 2.05 1.671z" stroke="#410062" fill="#00D2C4" stroke-linecap="round" stroke-linejoin="round"/></g></svg>