<svg width="32" height="32" viewBox="0 0 32 32" xmlns="http://www.w3.org/2000/svg"><g fill="none"><path d="M23.343 18.762c.907.076 1.53.076 1.871 0 1.266-.284 1.87-.921 1.87-1.244v-4.523c0-.68-.751-1.23-1.68-1.23h-2.06v6.997zm-9.948 5.02H5.054v.904c0 1.103.894 1.997 1.996 1.997h15.91a1.996 1.996 0 001.996-1.997v-1.431h-2.93a2.85 2.85 0 00-.184.006" fill="#FFF"/><path d="M13.395 23.782H5.054v.904c0 1.103.894 1.997 1.996 1.997h15.91a1.996 1.996 0 001.996-1.997v-.904h-3.02" stroke="#410062" stroke-width=".998" stroke-linecap="round" stroke-linejoin="round"/><path d="M25.405 18.75c1.12-.368 1.68-.779 1.68-1.232v-4.523c0-.68-.752-1.23-1.68-1.23h-2.062" fill="#FFF"/><path d="M25.405 18.75c.928 0 1.68-.552 1.68-1.232v-4.523c0-.68-.752-1.23-1.68-1.23h-2.062" stroke="#410062" stroke-width=".998" stroke-linecap="round" stroke-linejoin="round"/><path d="M5.88 18.825c1.2 2.74 3.708 4.956 8.549 4.956 7.735 0 9.514-5.66 9.514-10.068 0-2.063-1.745-3.735-3.898-3.735h-.015l-11.277.043c-2.122.008-3.839 1.659-3.839 3.692" fill="#FFF"/><path d="M5.918 19.347c1.2 2.74 3.689 4.615 8.53 4.615 3.174 0 6.114-.77 7.784-3.487.695-1.131 1.278-3.44 1.75-6.925H4.951c-.155 2.038.167 3.971.966 5.797z" fill="#00D2C4"/><path d="M5.88 18.825c1.2 2.74 3.708 4.956 8.549 4.956 7.735 0 9.514-5.66 9.514-10.068 0-2.063-1.745-3.735-3.898-3.735h-.015l-11.277.043c-2.122.008-3.839 1.659-3.839 3.692" stroke="#410062" stroke-width=".998" stroke-linecap="round" stroke-linejoin="round"/><path stroke="#410062" stroke-width=".998" fill="#FFF" stroke-linecap="round" stroke-linejoin="round" d="M19.217 19.337H15.05V16.3l2.083-1.858 2.084 1.858z"/><path d="M17.162 14.443v-4.127" stroke="#410062" stroke-width=".998" stroke-linecap="round" stroke-linejoin="round"/></g></svg>