<svg width="32" height="31" viewBox="0 0 32 31" xmlns="http://www.w3.org/2000/svg"><g fill="none"><path d="M17.372 23.2h3.901a3.794 3.794 0 003.795-3.794V4.833H11.314v8.686l.146 5.91a3.794 3.794 0 003.671 3.699" fill="#FFF"/><path d="M17.372 23.2h3.901a3.794 3.794 0 003.795-3.794V4.833H11.314v9.36" stroke="#410062" stroke-width=".982" stroke-linecap="round" stroke-linejoin="round"/><path d="M26.85 17.883c.915 0 1.656-.686 1.656-1.533v-5.634c0-.846-.741-1.533-1.656-1.533H11.363" stroke="#410062" stroke-width=".982" stroke-linecap="round" stroke-linejoin="round"/><path d="M11.554 13.894l9.298 3.211-17.107 7.967 3.505-9.17a3.415 3.415 0 014.304-2.008z" stroke="#410062" stroke-width=".982" fill="#00D2C4" stroke-linecap="round" stroke-linejoin="round"/><path d="M6.221 18.765l4.394 2.877m3.923-6.624l.183 4.799" stroke="#410062" stroke-width=".982" stroke-linecap="round" stroke-linejoin="round"/></g></svg>