<svg width="32" height="32" viewBox="0 0 32 32" xmlns="http://www.w3.org/2000/svg"><g stroke="#410062" stroke-width=".998" fill="none" stroke-linecap="round" stroke-linejoin="round"><path d="M3.993 5.987v4.646c0 1.103.894 1.997 1.996 1.997h.548a1.996 1.996 0 001.996-1.997V5.987m-2.273 0l.115 18.96M27.451 4.99v19.956"/><path d="M26.952 4.99h.407v9.09h-.407a1.996 1.996 0 01-1.996-1.997V6.986c0-1.103.894-1.997 1.996-1.997z" fill="#FFF"/><ellipse fill="#FFF" cx="16.471" cy="16.465" rx="7.487" ry="7.484"/><ellipse fill="#00D2C4" cx="16.471" cy="16.465" rx="7.487" ry="7.484"/><path d="M21.961 16.465a5.49 5.49 0 00-5.49-5.489 5.49 5.49 0 00-5.49 5.489"/></g></svg>