<svg xmlns="http://www.w3.org/2000/svg" width="128" height="128" viewBox="0 0 128 128"><g fill="none" fill-rule="evenodd"><path fill="#ADEDDD" d="M34.792 89.658a35.467 35.467 0 01-8.958-23.612c0-19.522 15.72-35.376 35.204-35.617V68.3L34.792 89.658z"/><path stroke="#1B182B" stroke-linecap="round" stroke-linejoin="round" stroke-width="4" d="M86.212 41.272c-13.924-13.91-36.5-13.91-50.424 0s-13.924 36.464 0 50.375c13.924 13.91 36.5 13.91 50.424 0 7.734-7.727 11.172-18.12 10.314-28.218"/><path stroke="#1B182B" stroke-linecap="round" stroke-linejoin="round" stroke-width="4" d="M88.215 72.158l8.292-13.13 8.712 11.814M61 52.646l.038 15.615-17.602 14.251M61.5 101.667v-4.879m0-59.909V32M25.834 66.5h4.006"/><path d="M0 0h128v128H0z" opacity=".2"/></g></svg>