<svg xmlns="http://www.w3.org/2000/svg" width="128" height="128" viewBox="0 0 128 128"><g fill="none" fill-rule="evenodd"><path fill="#FFF" d="M39.854 93.04l.326.83 2.997 18.313.172 1.442c.198 1.655-1.018 3.341-2.715 3.765-1.43.357-2.786-.295-3.271-1.573l-2.923-5.795-7.724-15.373-.112-.112-15.636-7.914L5.173 83.7c-1.278-.486-1.93-1.841-1.573-3.271.424-1.698 2.11-2.913 3.765-2.716l1.442.173 18.28 3.18 29.31-29.309c10.5-10.5 18.985-16.641 25.452-18.42 2.532-.942 5.132.277 5.808 2.722.26.935.204 1.96-.156 2.93-1.826 6.514-8.96 14.916-19.521 25.477-8.537 8.537-19.841 18.838-28.126 28.573z"/><path fill="#FFF288" d="M39.668 92.59l.512 1.302 2.997 18.314.172 1.442c.198 1.655-1.018 3.34-2.715 3.765-1.43.357-2.786-.295-3.271-1.573l-2.923-5.795-7.724-15.373-.112-.112-15.636-7.915-5.795-2.922c-1.278-.486-1.93-1.842-1.573-3.272.424-1.697 2.11-2.913 3.765-2.715l1.442.172 19.622 3.415.074.158 17.864 4.853c-1.094.984-3.327 3.069-6.699 6.255z"/><path fill="#FFF" d="M63.504 43.395l-46.9-3.793-1.728-.063a4.06 4.06 0 00-1.22 7.973l8.386 3.17 24.623 8.246m28.719-.209c1.881 6.249 3.252 21.363 4.112 45.343l.063 1.727a4.06 4.06 0 01-7.973 1.22l-3.17-8.386-8.246-24.622c8.05-13.443 13.122-18.537 15.214-15.282z"/><path stroke="#1B182B" stroke-linecap="round" stroke-width="4" d="M63.043 44.337l-47.89-4.49-1.77-.065a4.033 4.033 0 00-4.184 3.91 4.09 4.09 0 003.008 4.065l8.386 3.17 14.821 5.108m41.608 13.808c.53 7.442 1.384 18.873 2.564 34.292l.065 1.771a4.033 4.033 0 01-3.91 4.185 4.09 4.09 0 01-4.065-3.008l-3.17-8.387-8.374-24.53"/><path stroke="#1B182B" stroke-linecap="round" stroke-linejoin="round" stroke-width="4" d="M39.905 91.86l3.28 19.662.173 1.442c.197 1.655-1.018 3.34-2.716 3.765-1.43.357-2.786-.295-3.27-1.573l-2.924-5.795-7.723-15.373m-.098-.331L10.968 85.73l-5.795-2.923c-1.278-.485-1.93-1.841-1.573-3.271.424-1.698 2.11-2.913 3.765-2.715l1.442.172 19.751 3.669m0 .001c3.54-4.822 7.678-9.822 11.835-13.979l6.15-6.149 8.917-8.918a165.779 165.779 0 016.98-6.612c7.566-6.733 13.892-10.811 18.96-12.254 3.228-1.149 6.617 2.679 5.626 5.626-.992 3.422-3.17 7.41-6.545 11.955m-5.743 7.125c-1.875 2.13-4.484 4.68-6.786 6.983L53.108 79.284c-3.977 3.978-8.734 8.654-13.215 12.254M115.5 20v17m-11 11v17M124 28.5h-17m6 28H96"/><path d="M0 0h128v128H0z" opacity=".2"/></g></svg>