<svg xmlns="http://www.w3.org/2000/svg" width="274" height="128" viewBox="0 0 274 128"><g fill="none" fill-rule="evenodd"><g transform="translate(154.814 18)"><path fill="#ADEDDD" d="M13.329 38.019L48.62 2.484a5.69 5.69 0 018.035-.04l18.453 18.212a9.9 9.9 0 01-.298 14.375c-3.787 3.44-5.875 5.16-6.265 5.16-.6 0-7.542-.725-20.825-2.172H13.329z"/><path stroke="#181527" stroke-linecap="round" stroke-width="4" d="M69.586 77.542v1.445a5.69 5.69 0 01-5.69 5.69H6.501a5.69 5.69 0 01-5.69-5.67l-.16-43.726a5.69 5.69 0 015.69-5.711h7.619"/><path stroke="#181527" stroke-linecap="round" stroke-width="4" d="M10.661 73.406V43.757a5.69 5.69 0 015.685-5.69l47.647-.048a5.69 5.69 0 015.696 5.798l-.119 6.257"/><path stroke="#181527" stroke-linecap="round" stroke-width="4" d="M69.586 50.73h2.828a5.69 5.69 0 015.69 5.684l.011 9.879a5.69 5.69 0 01-5.69 5.697h-22.69a5.69 5.69 0 01-5.69-5.69v-9.88a5.69 5.69 0 015.69-5.69h11.348"/><ellipse cx="53.204" cy="61.369" fill="#181527" rx="2.843" ry="2.824"/><path stroke="#181527" stroke-linecap="round" stroke-width="4" d="M63.356 9.564l14.83 14.243a5.69 5.69 0 01-.007 8.216L69.64 40.19"/></g><g transform="translate(112.662 56.825)"><ellipse cx="15.292" cy="19.413" fill="#FFF288" rx="15.292" ry="15.35"/><path xmlns="http://www.w3.org/2000/svg" d="M14.2 28.942a.75.75 0 01-.55-.227.75.75 0 01-.227-.55v-6.318H7.235a.75.75 0 01-.55-.227.75.75 0 01-.228-.551v-1.75c0-.216.076-.4.227-.55a.75.75 0 01.55-.227h6.19v-6.124c0-.237.075-.426.226-.567a.78.78 0 01.55-.21h1.945c.238 0 .427.07.567.21.14.14.21.33.21.567v6.124h6.189c.216 0 .4.075.55.227a.75.75 0 01.228.55v1.75c0 .216-.07.4-.211.55-.14.152-.33.228-.567.228h-6.188v6.318c0 .216-.07.4-.211.55-.14.152-.33.227-.567.227H14.2z" fill="#181527" fill-rule="nonzero"/></g><g stroke-width="4"><path stroke="#181527" d="M40 41.714v57.6a8.54 8.54 0 008.54 8.54h51.016c.836 0 1.513-.678 1.513-1.514V43.227c0-.835-.677-1.513-1.513-1.513H40z"/><path stroke="#181527" stroke-linecap="round" stroke-linejoin="round" d="M55.306 90.33h15.581c8.877 0 16.074-7.458 16.074-16.658 0-9.2-7.197-16.658-16.074-16.658l-15.581.001V90.33z"/><path fill="#FF7A80" stroke="#1B182B" stroke-linecap="round" stroke-linejoin="round" d="M55.379 57.014l-.073.001V90.33l.073.001c8.7 0 15.754-7.458 15.754-16.658 0-9.2-7.053-16.658-15.754-16.658"/><path stroke="#181527" stroke-linecap="round" stroke-linejoin="round" d="M39.773 40.88c-.133-2.162.492-3.714 1.874-4.656 5.707-2.036 22.42-5.79 50.14-11.264 2.147-.192 3.22.592 3.22 2.35v7.905"/></g><path d="M0 0h274v128H0z" opacity=".2"/></g></svg>