<svg xmlns="http://www.w3.org/2000/svg" width="128" height="128" viewBox="0 0 128 128"><g fill="none" fill-rule="evenodd"><g fill-rule="nonzero"><path stroke="#1B182B" stroke-linecap="round" stroke-linejoin="round" stroke-width="4" d="M34.76 69.982h5.098m-7.295 11.631H64.71M49.411 69.982H84.63"/><path fill="#FF7A80" d="M31.35 37.27h59.564a7.577 7.577 0 017.577 7.576v9.87H23.772v-9.87a7.577 7.577 0 017.577-7.577z"/><path stroke="#1B182B" stroke-linecap="round" stroke-linejoin="round" stroke-width="4" d="M67.83 54.716h29.982v35.931l-9.573 9.775H75.75m-22.276 0H23.217V54.716H33.65m47.26-10.177c4.046 0 7.326-3.255 7.326-7.27 0-4.014-3.28-7.269-7.326-7.269-4.046 0-7.325 3.255-7.325 7.27"/><path stroke="#1B182B" stroke-linecap="round" stroke-linejoin="round" stroke-width="4" d="M66.408 38.099h25.561a5.837 5.837 0 015.837 5.837v13.688M44.283 44.539c4.046 0 7.326-3.255 7.326-7.27 0-4.014-3.28-7.269-7.326-7.269-4.045 0-7.325 3.255-7.325 7.27"/><path stroke="#1B182B" stroke-linecap="round" stroke-linejoin="round" stroke-width="4" d="M51.385 38.099H30.85a7.577 7.577 0 00-7.577 7.577v9.684M16.935 90.3c-6.612 7.134-8.823 13.28-6.634 18.439 5.816 8.624 34.677-.676 64.463-20.77 29.786-20.096 49.218-43.378 43.402-52.002-2.718-4.03-13.767-3.026-23.653 2.132"/></g><path d="M0 0h128v128H0z" opacity=".2"/></g></svg>