<svg xmlns="http://www.w3.org/2000/svg" width="128" height="128" viewBox="0 0 128 128"><g fill="none" fill-rule="evenodd"><g fill-rule="nonzero"><path fill="#FFF288" d="M33.833 45.273H96.46a5.833 5.833 0 015.832 5.833V63.53H28V51.106a5.833 5.833 0 015.833-5.833z"/><path stroke="#1B182B" stroke-linecap="round" stroke-linejoin="round" stroke-width="4" d="M55.101 45.273h42.002c2.866 0 5.19 2.725 5.19 6.086v12.172h-42.33m-23.259 0H28V51.36c0-3.361 2.61-6.086 5.83-6.086h40.66"/><path stroke="#1B182B" stroke-linecap="round" stroke-linejoin="round" stroke-width="4" d="M102.292 57.05v27.61l-9.534 9.912H80.32M58.56 45.274V94.57H28V57.199m30.314-12.795c-2.072-10.874-4.464-17.641-7.175-20.302a10.123 10.123 0 00-14.48.263c-3.93 4.137-3.82 10.727.247 14.72 2.71 2.66 9.847 4.434 21.408 5.319zm8.926 0c2.073-10.874 4.464-17.641 7.175-20.302a10.123 10.123 0 0114.48.263c3.93 4.137 3.82 10.727-.246 14.72-2.711 2.66-9.847 4.434-21.408 5.319z"/><path stroke="#1B182B" stroke-linecap="round" stroke-linejoin="round" stroke-width="4" d="M67.623 43.86v51.123h3.446"/></g><path d="M0 0h128v128H0z" opacity=".2"/></g></svg>