<svg width="76" height="77" viewBox="0 0 76 77" xmlns="http://www.w3.org/2000/svg"><g fill="none"><path d="M70.297 22.57C62.26 4.54 41.351-3.077 23.6 5.558 5.847 14.194-2.027 35.811 6.011 53.842c8.039 18.03 28.946 25.647 46.698 17.011 13.271-6.456 21.022-20.167 20.73-34.212" stroke="#F9A824" stroke-width="4" fill="#FEF6B0" stroke-linecap="round" stroke-linejoin="round"/><g fill="#F9A824"><path d="M38.871 17C27.363 17 18 26.397 18 37.947c0 11.55 9.363 20.948 20.871 20.948 11.509 0 20.871-9.397 20.871-20.948C59.742 26.397 50.38 17 38.872 17zm0 37.437c-9.06 0-16.43-7.397-16.43-16.49 0-9.093 7.37-16.49 16.43-16.49 9.06 0 16.43 7.397 16.43 16.49 0 9.093-7.37 16.49-16.43 16.49z"/><path d="M49.748 37.3h-9.38V25.983c0-.953-.769-1.725-1.718-1.725s-1.718.772-1.718 1.725v13.043c0 .953.77 1.725 1.718 1.725h11.098c.95 0 1.719-.772 1.719-1.725 0-.952-.77-1.724-1.719-1.724z"/></g></g></svg>