<svg xmlns="http://www.w3.org/2000/svg" width="46" height="58" viewBox="0 0 46 58"><g fill="none" fill-rule="evenodd" stroke-width="2.5"><path fill="#FFF" stroke="#181527" d="M2.25 12.728v35.018a7.456 7.456 0 007.456 7.456h31.992c.912 0 1.651-.74 1.651-1.652V14.38c0-.912-.74-1.652-1.651-1.652H2.25z"/><path stroke="#181527" stroke-linecap="round" stroke-linejoin="round" d="M12.596 43.933h10.44c5.948 0 10.77-4.782 10.77-10.68 0-5.9-4.822-10.682-10.77-10.682h-10.44v21.362z"/><path fill="#FF7A80" stroke="#1B182B" stroke-linecap="round" stroke-linejoin="round" d="M12.645 22.571h-.05v21.362h.05c5.83 0 10.556-4.782 10.556-10.68 0-5.9-4.726-10.682-10.556-10.682"/><path stroke="#181527" stroke-linecap="round" stroke-linejoin="round" d="M2.188 12.226c-.09-1.386.33-2.382 1.256-2.985C7.268 7.935 18.466 5.527 37.04 2.018c1.439-.123 2.158.38 2.158 1.506v5.07"/></g></svg>