<svg xmlns="http://www.w3.org/2000/svg" width="114" height="58" viewBox="0 0 114 58"><g fill="none" fill-rule="evenodd" transform="translate(4 3)"><path fill="#FF7A80" d="M69.495 20.44l18.842-19.1a3.035 3.035 0 014.3-.021l9.894 9.83a5.28 5.28 0 01-.157 7.641c-2.052 1.879-3.183 2.818-3.392 2.818-.321 0-4.028-.39-11.121-1.168H69.495z"/><path stroke="#181527" stroke-linecap="round" stroke-width="2.5" d="M99.537 41.689v.802a3.035 3.035 0 01-3.035 3.035H65.847a3.035 3.035 0 01-3.035-3.024l-.086-23.558a3.035 3.035 0 013.035-3.046h4.072"/><path stroke="#181527" stroke-linecap="round" stroke-width="2.5" d="M68.071 39.465V23.501a3.035 3.035 0 013.032-3.035l25.451-.026a3.035 3.035 0 013.038 3.092l-.064 3.39"/><path stroke="#181527" stroke-linecap="round" stroke-width="2.5" d="M99.537 27.274h1.514a3.035 3.035 0 013.034 3.032l.006 5.36a3.035 3.035 0 01-3.035 3.038H88.933a3.035 3.035 0 01-3.035-3.035v-5.36a3.035 3.035 0 013.035-3.035h6.063"/><circle cx="90.789" cy="32.994" fill="#181527" r="1.518"/><path stroke="#181527" stroke-linecap="round" stroke-width="2.5" d="M96.21 5.142l7.945 7.682a3.035 3.035 0 01-.004 4.368l-4.585 4.416"/><text fill="#181527" font-family="Rubik-Bold, Rubik" font-size="17.28" font-weight="bold"><tspan x="41.555" y="36.985">+</tspan></text><path stroke="#181527" stroke-width="2.5" d="M1.25 12.924v30.839a4.37 4.37 0 004.37 4.37h27.253a.623.623 0 00.623-.623V13.548a.624.624 0 00-.623-.624H1.25z"/><path stroke="#181527" stroke-linecap="round" stroke-linejoin="round" stroke-width="2.5" d="M9.241 38.887h8.32c4.741 0 8.584-4.01 8.584-8.956s-3.843-8.956-8.583-8.956h-8.32v17.912z"/><path fill="#FF7A80" stroke="#1B182B" stroke-linecap="round" stroke-linejoin="round" stroke-width="2.5" d="M9.28 20.975h-.039v17.912h.04c4.645 0 8.412-4.01 8.412-8.956s-3.767-8.956-8.413-8.956"/><path stroke="#181527" stroke-linecap="round" stroke-linejoin="round" stroke-width="2.5" d="M.947 12.301c-.071-1.162.262-1.997 1-2.503C4.996 8.703 13.92 6.685 28.723 3.742c1.146-.103 1.72.318 1.72 1.263v4.25"/></g></svg>