<svg xmlns="http://www.w3.org/2000/svg" width="48" height="48" viewBox="0 0 48 48"><g fill="none" fill-rule="evenodd"><path d="M0 0h48v48H0z" opacity=".2"/><path fill="#F9F9F9" fill-rule="nonzero" d="M13.389 9.422c0 7.165 4.975 12.974 11.111 12.974 6.136 0 11.111-5.809 11.111-12.974"/><path fill="#FFF288" fill-rule="nonzero" d="M13.389 37.4c0-8.287 4.975-15.004 11.111-15.004 6.136 0 11.111 6.717 11.111 15.003"/><path fill="#FFF288" d="M15.472 17.303h18.056l-5.72 5.093h-7.06z"/><path stroke="#1B182B" stroke-linecap="round" stroke-linejoin="round" stroke-width="1.75" d="M13.698 13.056c1.175 5.359 5.565 9.34 10.802 9.34 6.136 0 11.111-5.467 11.111-12.21"/><path fill="#FFF288" fill-rule="nonzero" stroke="#1B182B" stroke-linecap="round" stroke-linejoin="round" stroke-width="1.75" d="M12 9.341h25M12 36.896h25m-23.047-3.897h7.813"/><path stroke="#1B182B" stroke-linecap="round" stroke-linejoin="round" stroke-width="1.75" d="M13.389 36.133c0-7.587 4.975-13.737 11.111-13.737 5.383 0 9.872 4.732 10.893 11.016"/></g></svg>