<svg xmlns="http://www.w3.org/2000/svg" width="94" height="62" viewBox="0 0 94 62"><g fill="none" stroke="#1B182B" stroke-linecap="round" stroke-linejoin="round" stroke-width="2.5" transform="translate(4 3)"><path fill="#FF7A80" d="M15 41.924c10-12.556 15-21.572 15-27.049C30 6.66 23.284 0 15 0 6.716 0 0 6.66 0 14.875c0 4.67 3.634 11.911 10.903 21.726"/><ellipse cx="15" cy="14.875" fill="#FFF" rx="4.412" ry="4.375"/><path d="M74.5 55C82.167 45.416 86 38.534 86 34.354 86 28.084 80.851 23 74.5 23S63 28.083 63 34.354c0 3.467 2.637 8.792 7.91 15.976"/><circle cx="74.5" cy="34.5" r="3.5"/><path stroke-dasharray="4,6" d="M23 42l10.123 10.123h31.623"/></g></svg>