<svg xmlns="http://www.w3.org/2000/svg" width="39" height="45" viewBox="0 0 39 45"><g fill="none" fill-rule="evenodd"><path fill="#F9F9F9" fill-rule="nonzero" d="M3.944 2.611c0 10.378 6.965 18.79 15.556 18.79s15.556-8.412 15.556-18.79"/><path fill="#FFF288" fill-rule="nonzero" d="M3.944 43.13c0-12 6.965-21.73 15.556-21.73s15.556 9.73 15.556 21.73"/><path fill="#FFF288" d="M6.861 14.025H32.14l-8.009 7.376h-9.882z"/><path stroke="#1B182B" stroke-linecap="round" stroke-linejoin="round" stroke-width="2.5" d="M4.377 7.874c1.645 7.76 7.791 13.527 15.123 13.527 8.591 0 15.556-7.918 15.556-17.684"/><path fill="#FFF288" fill-rule="nonzero" stroke="#1B182B" stroke-linecap="round" stroke-linejoin="round" stroke-width="2.5" d="M2 2.494h35M2 42.4h35M4.734 36.757h10.938"/><path stroke="#1B182B" stroke-linecap="round" stroke-linejoin="round" stroke-width="2.5" d="M3.944 41.296C3.944 30.308 10.91 21.4 19.5 21.4c7.536 0 13.82 6.854 15.25 15.954"/></g></svg>