<svg xmlns="http://www.w3.org/2000/svg" width="48" height="48" viewBox="0 0 48 48"><g fill="none" fill-rule="evenodd"><path d="M0 0h48v48H0z" opacity=".2"/><g stroke-width="1.75"><path fill="#FFF" stroke="#181527" d="M9.875 11.596v24.921a5.219 5.219 0 005.219 5.22h22.593c.638 0 1.156-.519 1.156-1.157V12.752c0-.638-.518-1.156-1.156-1.156H9.875z"/><path stroke="#181527" stroke-linecap="round" stroke-linejoin="round" d="M17.17 33.734h7.355c4.191 0 7.588-3.39 7.588-7.573s-3.397-7.574-7.588-7.574H17.17v15.147z"/><path fill="#FF7A80" stroke="#1B182B" stroke-linecap="round" stroke-linejoin="round" d="M17.204 18.587h-.034v15.147h.034c4.108 0 7.438-3.39 7.438-7.573s-3.33-7.574-7.438-7.574"/><path stroke="#181527" stroke-linecap="round" stroke-linejoin="round" d="M9.837 11.251c-.063-.983.232-1.689.885-2.117 2.694-.926 10.584-2.633 23.67-5.121 1.013-.087 1.52.269 1.52 1.068v3.595"/></g></g></svg>