<svg xmlns="http://www.w3.org/2000/svg" width="48" height="48" viewBox="0 0 48 48"><g fill="none" fill-rule="evenodd"><path d="M0 0h48v48H0z" opacity=".2"/><g fill-rule="nonzero" transform="translate(6 1.333)"><path fill="#FFF288" d="M16.267 20.907c.927 0 8.752-7.05 8.752-11.98C25.02 3.997 21.101 0 16.267 0c-4.833 0-8.752 3.997-8.752 8.927s7.826 11.98 8.752 11.98z"/><circle cx="16.333" cy="8.333" r="2" fill="#1B182B"/><path stroke="#1B182B" stroke-linecap="round" stroke-linejoin="round" stroke-width="2" d="M7.515 8.927c0 3.286 2.918 7.28 8.752 11.98 2.513-2.161 4.214-3.738 5.104-4.73 2.432-2.712 3.648-5.128 3.648-7.25a8.986 8.986 0 00-2.73-6.478A8.632 8.632 0 0016.267 0M29.69 26.102l-4.798 6.207-8.558-6.207-7.88 9.145"/><path stroke="#1B182B" stroke-linecap="round" stroke-linejoin="round" stroke-width="2" d="M28.452 14.255h5.685c.974 0 1.764.757 1.764 1.69V35.94l-8.198 8.726H0V15.945c0-.933.79-1.69 1.764-1.69H4.57"/><path stroke="#1B182B" stroke-linecap="round" stroke-linejoin="round" stroke-width="2" d="M35.394 35.73h-7.75v8.133"/></g></g></svg>